# Made in Blockbench 4.10.3
mtllib MHUD1_3.mtl

o cylinder
v -0.4999999999999998 -0.5 -0.133974596215562
v 0.5000000000000002 -0.5 -0.1339745962155602
v -0.49999999999999933 -0.3660254037844388 -0.3660254037844393
v 0.5000000000000007 -0.3660254037844388 -0.36602540378443754
v -0.4999999999999991 -0.13397459621556154 -0.5000000000000008
v 0.5000000000000009 -0.13397459621556154 -0.499999999999999
v -0.4999999999999991 0.13397459621556115 -0.500000000000001
v 0.5000000000000009 0.13397459621556115 -0.4999999999999991
v -0.49999999999999933 0.36602540378443843 -0.3660254037844397
v 0.5000000000000007 0.36602540378443843 -0.36602540378443793
v -0.4999999999999998 0.49999999999999983 -0.1339745962155626
v 0.5000000000000002 0.49999999999999983 -0.13397459621556082
v -0.5000000000000002 0.5000000000000001 0.13397459621556002
v 0.4999999999999998 0.5000000000000001 0.1339745962155618
v -0.5000000000000007 0.3660254037844389 0.36602540378443754
v 0.49999999999999933 0.3660254037844389 0.3660254037844393
v -0.5000000000000009 0.1339745962155615 0.499999999999999
v 0.4999999999999991 0.1339745962155615 0.5000000000000008
v -0.5000000000000009 -0.13397459621556088 0.49999999999999917
v 0.4999999999999991 -0.13397459621556088 0.500000000000001
v -0.5000000000000007 -0.3660254037844384 0.366025403784438
v 0.49999999999999933 -0.3660254037844384 0.36602540378443976
v -0.5000000000000002 -0.4999999999999999 0.13397459621556063
v 0.4999999999999998 -0.4999999999999999 0.1339745962155624
vt 0.21983124999999998 1
vt 0.21983124999999998 0.75
vt 0.28681875 0.75
vt 0.28681875 1
vt 0.13505625 1
vt 0.13505625 0.75
vt 0.20204375000000002 0.75
vt 0.20204375000000002 1
vt 0.06806875 1
vt 0.06806875 0.75
vt 0.13505625 0.75
vt 0.13505625 1
vt 0.001081249999999992 1
vt 0.001081249999999992 0.75
vt 0.06806875 0.75
vt 0.06806875 1
vt 0.35380625 0.734375
vt 0.35380625 0.484375
vt 0.42079375 0.484375
vt 0.42079375 0.734375
vt 0.28681875 0.734375
vt 0.28681875 0.484375
vt 0.35380625 0.484375
vt 0.35380625 0.734375
vt 0.21983124999999998 0.734375
vt 0.21983124999999998 0.484375
vt 0.28681875 0.484375
vt 0.28681875 0.734375
vt 0.13505625 0.734375
vt 0.13505625 0.484375
vt 0.20204375000000002 0.484375
vt 0.20204375000000002 0.734375
vt 0.06806875 0.734375
vt 0.06806875 0.484375
vt 0.13505625 0.484375
vt 0.13505625 0.734375
vt 0.001081249999999992 0.734375
vt 0.001081249999999992 0.484375
vt 0.06806875 0.484375
vt 0.06806875 0.734375
vt 0.35380625 1
vt 0.35380625 0.75
vt 0.42079375 0.75
vt 0.42079375 1
vt 0.28681875 1
vt 0.28681875 0.75
vt 0.35380625 0.75
vt 0.35380625 1
vn -8.881784197001243e-16 0.866025403784439 0.4999999999999995
vn -1.538370149106851e-15 0.5000000000000003 0.8660254037844386
vn -1.7763568394002505e-15 4.440892098500626e-16 1
vn -1.5383701491068518e-15 -0.4999999999999996 0.866025403784439
vn -8.88178419700126e-16 -0.8660254037844386 0.5000000000000004
vn -1.5248781498184102e-30 -1 8.584300834134505e-16
vn 8.881784197001239e-16 -0.8660254037844392 -0.4999999999999992
vn 1.5383701491068513e-15 -0.5000000000000001 -0.8660254037844387
vn 1.7763568394002505e-15 -6.512596466317567e-16 -1
vn 1.538370149106852e-15 0.4999999999999992 -0.8660254037844392
vn 8.881784197001258e-16 0.8660254037844386 -0.5000000000000003
vn 7.888609052210118e-31 1 -4.440892098500626e-16
usemtl m_c7da95bd-b013-a47c-4454-4a52407719dc
f 4/1/1 3/2/1 1/3/1 2/4/1
f 6/5/2 5/6/2 3/7/2 4/8/2
f 8/9/3 7/10/3 5/11/3 6/12/3
f 10/13/4 9/14/4 7/15/4 8/16/4
f 12/17/5 11/18/5 9/19/5 10/20/5
f 14/21/6 13/22/6 11/23/6 12/24/6
f 16/25/7 15/26/7 13/27/7 14/28/7
f 18/29/8 17/30/8 15/31/8 16/32/8
f 20/33/9 19/34/9 17/35/9 18/36/9
f 22/37/10 21/38/10 19/39/10 20/40/10
f 24/41/11 23/42/11 21/43/11 22/44/11
f 2/45/12 1/46/12 23/47/12 24/48/12
o cylinder
v 0.5000000000000002 -0.4999999999999999 0.13397459621556065
v -0.4999999999999998 -0.4999999999999999 0.13397459621556243
v 0.5000000000000002 0.49999999999999994 0.13397459621556038
v -0.4999999999999998 0.49999999999999994 0.13397459621556215
v 0.4999999999999998 0.49999999999999994 -0.13397459621556224
v -0.5000000000000002 0.49999999999999994 -0.13397459621556046
v 0.4999999999999998 -0.5 -0.13397459621556196
v -0.5000000000000002 -0.5 -0.13397459621556018
vt 0.3125 0
vt 0.5625 0
vt 0.5625 1
vt 0.3125 1
vt 0 0
vt 0.25 0
vt 0.25 1
vt 0 1
vn -5.28436606236133e-32 1 -2.974833628667473e-17
vn 7.888609052210118e-31 -1 4.440892098500626e-16
usemtl m_0d9cc13d-a75e-e5d1-8415-6c6a3c0eb4bc
f 27/49/13 29/50/13 30/51/13 28/52/13
f 31/53/14 25/54/14 26/55/14 32/56/14