# Made in Blockbench 4.7.4
mtllib eye.mtl

o frame
v 0.5 -0.1249999999999999 3.061616997868383e-17
v 0.24999999999999997 -0.1249999999999999 -0.43301270189221935
v 0.49999999999999994 0.12500000000000006 3.0616169978683824e-17
v 0.24999999999999994 0.12500000000000006 -0.4330127018922193
v -0.25000000000000006 -0.1249999999999999 -0.4330127018922193
v -0.25 0.12500000000000006 -0.43301270189221924
v -0.5 -0.1249999999999999 -9.184850993605148e-17
v -0.49999999999999994 0.12500000000000006 -9.184850993605147e-17
v -0.2500000000000002 -0.1249999999999999 0.4330127018922192
v -0.25000000000000017 0.12500000000000006 0.43301270189221913
v 0.24999999999999997 -0.1249999999999999 0.43301270189221935
v 0.24999999999999994 0.12500000000000006 0.4330127018922193
v 0.5541265877365275 -0.12499999999999989 3.4085616930637444e-17
v 0.27706329386826367 -0.12499999999999989 -0.47988770189221935
v 0.5541265877365273 0.12500000000000006 3.408561693063744e-17
v 0.27706329386826367 0.12500000000000006 -0.4798877018922193
v -0.2770632938682638 -0.12499999999999989 -0.4798877018922193
v -0.2770632938682637 0.12500000000000008 -0.47988770189221924
v -0.5541265877365275 -0.12499999999999989 -1.0399157426788913e-16
v -0.5541265877365273 0.12500000000000008 -1.0399157426788912e-16
v -0.27706329386826395 -0.12499999999999989 0.4798877018922192
v -0.2770632938682639 0.12500000000000006 0.47988770189221913
v 0.27706329386826367 -0.12499999999999989 0.47988770189221935
v 0.2770632938682636 0.12500000000000006 0.4798877018922193
v -0.4747120290688627 -0.12499999999999989 -0.1141125504730549
v -0.3361803821347308 -0.12499999999999989 -0.3540564014191645
v -0.32264873520059895 -0.12499999999999989 -0.3306189014191645
v -0.4476487352005989 -0.12499999999999989 -0.11411255047305491
v -0.4122120290688627 -0.4999999999999999 -0.09887866028076413
v -0.2919192878358696 -0.4999999999999999 -0.30679029161145527
v -0.28016920084038544 -0.4999999999999999 -0.28648167007312914
v -0.3887118550778943 -0.4999999999999999 -0.09887866028076414
v -0.3361803821347309 -0.12499999999999989 0.3540564014191644
v -0.4747120290688627 -0.12499999999999989 0.11411255047305473
v -0.44764873520059895 -0.12499999999999989 0.11411255047305471
v -0.32264873520059906 -0.12499999999999989 0.3306189014191644
v -0.29191928783586973 -0.4999999999999999 0.30679029161145516
v -0.4122120290688627 -0.4999999999999999 0.09887866028076397
v -0.3887118550778943 -0.4999999999999999 0.09887866028076396
v -0.28016920084038555 -0.4999999999999999 0.2864816700731291
v 0.13853164693413178 -0.12499999999999989 0.4681689518922193
v -0.13853164693413203 -0.12499999999999989 0.46816895189221924
v -0.12500000000000017 -0.12499999999999989 0.44473145189221924
v 0.12499999999999992 -0.12499999999999989 0.4447314518922193
v 0.12029274123299301 -0.4999999999999999 0.4056689518922193
v -0.12029274123299323 -0.4999999999999999 0.40566895189221924
v -0.10854265423750906 -0.4999999999999999 0.38536033035389317
v 0.10854265423750883 -0.4999999999999999 0.38536033035389317
v 0.4747120290688626 -0.12499999999999989 0.11411255047305487
v 0.3361803821347307 -0.12499999999999989 0.3540564014191645
v 0.3226487352005989 -0.12499999999999989 0.3306189014191645
v 0.4476487352005989 -0.12499999999999989 0.11411255047305487
v 0.4122120290688627 -0.4999999999999999 0.0988786602807641
v 0.2919192878358695 -0.4999999999999999 0.30679029161145527
v 0.2801692008403853 -0.4999999999999999 0.28648167007312914
v 0.3887118550778943 -0.4999999999999999 0.0988786602807641
v 0.3361803821347307 -0.12499999999999989 -0.3540564014191645
v 0.4747120290688626 -0.12499999999999989 -0.11411255047305481
v 0.4476487352005989 -0.12499999999999989 -0.11411255047305481
v 0.3226487352005989 -0.12499999999999989 -0.3306189014191645
v 0.2919192878358695 -0.4999999999999999 -0.30679029161145527
v 0.4122120290688627 -0.4999999999999999 -0.09887866028076406
v 0.3887118550778943 -0.4999999999999999 -0.09887866028076406
v 0.2801692008403853 -0.4999999999999999 -0.28648167007312914
v -0.13853164693413192 -0.12499999999999989 -0.4681689518922193
v 0.1385316469341318 -0.12499999999999989 -0.4681689518922193
v 0.12499999999999997 -0.12499999999999989 -0.4447314518922193
v -0.12500000000000006 -0.12499999999999989 -0.4447314518922193
v -0.12029274123299313 -0.4999999999999999 -0.4056689518922193
v 0.12029274123299304 -0.4999999999999999 -0.4056689518922193
v 0.10854265423750888 -0.4999999999999999 -0.38536033035389317
v -0.10854265423750896 -0.4999999999999999 -0.38536033035389317
v 0.33618038213473067 0.12500000000000006 0.3540564014191645
v 0.47471202906886256 0.12500000000000006 0.11411255047305485
v 0.44764873520059884 0.12500000000000006 0.11411255047305485
v 0.32264873520059884 0.12500000000000006 0.3306189014191645
v 0.29191928783586946 0.5 0.3067902916114552
v 0.41221202906886256 0.5 0.09887866028076409
v 0.3887118550778942 0.5 0.09887866028076409
v 0.2801692008403853 0.5 0.2864816700731291
v 0.47471202906886256 0.12500000000000006 -0.11411255047305481
v 0.33618038213473067 0.12500000000000006 -0.3540564014191645
v 0.32264873520059884 0.12500000000000006 -0.3306189014191645
v 0.44764873520059884 0.12500000000000006 -0.11411255047305481
v 0.41221202906886256 0.5 -0.09887866028076406
v 0.29191928783586946 0.5 -0.3067902916114553
v 0.2801692008403853 0.5 -0.2864816700731292
v 0.3887118550778942 0.5 -0.09887866028076406
v 0.13853164693413184 0.12500000000000006 -0.4681689518922193
v -0.1385316469341319 0.12500000000000006 -0.4681689518922193
v -0.125 0.12500000000000006 -0.4447314518922193
v 0.12499999999999996 0.12500000000000006 -0.4447314518922193
v 0.12029274123299304 0.5 -0.4056689518922193
v -0.12029274123299309 0.5 -0.4056689518922193
v -0.10854265423750889 0.5 -0.38536033035389317
v 0.10854265423750885 0.5 -0.38536033035389317
v -0.3361803821347308 0.12500000000000006 -0.35405640141916445
v -0.47471202906886256 0.12500000000000006 -0.11411255047305488
v -0.4476487352005989 0.12500000000000006 -0.1141125504730549
v -0.3226487352005989 0.12500000000000006 -0.33061890141916445
v -0.29191928783586957 0.5 -0.3067902916114552
v -0.41221202906886256 0.5 -0.09887866028076411
v -0.38871185507789424 0.5 -0.09887866028076413
v -0.2801692008403853 0.5 -0.2864816700731291
v -0.47471202906886256 0.12500000000000006 0.11411255047305471
v -0.3361803821347309 0.12500000000000006 0.35405640141916433
v -0.322648735200599 0.12500000000000006 0.33061890141916433
v -0.4476487352005989 0.12500000000000006 0.1141125504730547
v -0.41221202906886256 0.5 0.09887866028076396
v -0.2919192878358696 0.5 0.3067902916114551
v -0.28016920084038544 0.5 0.2864816700731291
v -0.38871185507789424 0.5 0.09887866028076395
v -0.138531646934132 0.12500000000000006 0.4681689518922192
v 0.13853164693413175 0.12500000000000006 0.46816895189221924
v 0.12499999999999992 0.12500000000000006 0.44473145189221924
v -0.12500000000000014 0.12500000000000006 0.4447314518922192
v -0.12029274123299319 0.5 0.4056689518922192
v 0.12029274123299297 0.5 0.4056689518922193
v 0.10854265423750882 0.5 0.38536033035389317
v -0.10854265423750901 0.5 0.38536033035389305
vt 0.046875 0.984375
vt 0.015625 0.984375
vt 0.015625 0.953125
vt 0.046875 0.953125
vt 0.109375 0.984375
vt 0.078125 0.984375
vt 0.078125 0.953125
vt 0.109375 0.953125
vt 0.171875 0.984375
vt 0.140625 0.984375
vt 0.140625 0.953125
vt 0.171875 0.953125
vt 0.234375 0.984375
vt 0.203125 0.984375
vt 0.203125 0.953125
vt 0.234375 0.953125
vt 0.296875 0.984375
vt 0.265625 0.984375
vt 0.265625 0.953125
vt 0.296875 0.953125
vt 0.359375 0.984375
vt 0.328125 0.984375
vt 0.328125 0.953125
vt 0.359375 0.953125
vt 0.421875 0.984375
vt 0.390625 0.984375
vt 0.390625 0.953125
vt 0.421875 0.953125
vt 0.484375 0.984375
vt 0.453125 0.984375
vt 0.453125 0.953125
vt 0.484375 0.953125
vt 0.546875 0.984375
vt 0.515625 0.984375
vt 0.515625 0.953125
vt 0.546875 0.953125
vt 0.609375 0.984375
vt 0.578125 0.984375
vt 0.578125 0.953125
vt 0.609375 0.953125
vt 0.671875 0.984375
vt 0.640625 0.984375
vt 0.640625 0.953125
vt 0.671875 0.953125
vt 0.734375 0.984375
vt 0.703125 0.984375
vt 0.703125 0.953125
vt 0.734375 0.953125
vt 0.796875 0.984375
vt 0.765625 0.984375
vt 0.765625 0.953125
vt 0.796875 0.953125
vt 0.859375 0.984375
vt 0.828125 0.984375
vt 0.828125 0.953125
vt 0.859375 0.953125
vt 0.921875 0.984375
vt 0.890625 0.984375
vt 0.890625 0.953125
vt 0.921875 0.953125
vt 0.984375 0.984375
vt 0.953125 0.984375
vt 0.953125 0.953125
vt 0.984375 0.953125
vt 0.046875 0.921875
vt 0.015625 0.921875
vt 0.015625 0.890625
vt 0.046875 0.890625
vt 0.109375 0.921875
vt 0.078125 0.921875
vt 0.078125 0.890625
vt 0.109375 0.890625
vt 0.171875 0.921875
vt 0.140625 0.921875
vt 0.140625 0.890625
vt 0.171875 0.890625
vt 0.234375 0.921875
vt 0.203125 0.921875
vt 0.203125 0.890625
vt 0.234375 0.890625
vt 0.296875 0.921875
vt 0.265625 0.921875
vt 0.265625 0.890625
vt 0.296875 0.890625
vt 0.359375 0.921875
vt 0.328125 0.921875
vt 0.328125 0.890625
vt 0.359375 0.890625
vt 0.421875 0.921875
vt 0.390625 0.921875
vt 0.390625 0.890625
vt 0.421875 0.890625
vt 0.484375 0.921875
vt 0.453125 0.921875
vt 0.453125 0.890625
vt 0.484375 0.890625
vt 0.546875 0.921875
vt 0.515625 0.921875
vt 0.515625 0.890625
vt 0.546875 0.890625
vt 0.609375 0.921875
vt 0.578125 0.921875
vt 0.578125 0.890625
vt 0.609375 0.890625
vt 0.671875 0.921875
vt 0.640625 0.921875
vt 0.640625 0.890625
vt 0.671875 0.890625
vt 0.734375 0.921875
vt 0.703125 0.921875
vt 0.703125 0.890625
vt 0.734375 0.890625
vt 0.796875 0.921875
vt 0.765625 0.921875
vt 0.765625 0.890625
vt 0.796875 0.890625
vt 0.859375 0.921875
vt 0.828125 0.921875
vt 0.828125 0.890625
vt 0.859375 0.890625
vt 0.921875 0.921875
vt 0.890625 0.921875
vt 0.890625 0.890625
vt 0.921875 0.890625
vt 0.984375 0.921875
vt 0.953125 0.921875
vt 0.953125 0.890625
vt 0.984375 0.890625
vt 0.046875 0.859375
vt 0.015625 0.859375
vt 0.015625 0.828125
vt 0.046875 0.828125
vt 0.109375 0.859375
vt 0.078125 0.859375
vt 0.078125 0.828125
vt 0.109375 0.828125
vt 0.171875 0.859375
vt 0.140625 0.859375
vt 0.140625 0.828125
vt 0.171875 0.828125
vt 0.234375 0.859375
vt 0.203125 0.859375
vt 0.203125 0.828125
vt 0.234375 0.828125
vt 0.296875 0.859375
vt 0.265625 0.859375
vt 0.265625 0.828125
vt 0.296875 0.828125
vt 0.359375 0.859375
vt 0.328125 0.859375
vt 0.328125 0.828125
vt 0.359375 0.828125
vt 0.421875 0.859375
vt 0.390625 0.859375
vt 0.390625 0.828125
vt 0.421875 0.828125
vt 0.484375 0.859375
vt 0.453125 0.859375
vt 0.453125 0.828125
vt 0.484375 0.828125
vt 0.546875 0.859375
vt 0.515625 0.859375
vt 0.515625 0.828125
vt 0.546875 0.828125
vt 0.609375 0.859375
vt 0.578125 0.859375
vt 0.578125 0.828125
vt 0.609375 0.828125
vt 0.671875 0.859375
vt 0.640625 0.859375
vt 0.640625 0.828125
vt 0.671875 0.828125
vt 0.734375 0.859375
vt 0.703125 0.859375
vt 0.703125 0.828125
vt 0.734375 0.828125
vt 0.796875 0.859375
vt 0.765625 0.859375
vt 0.765625 0.828125
vt 0.796875 0.828125
vt 0.859375 0.859375
vt 0.828125 0.859375
vt 0.828125 0.828125
vt 0.859375 0.828125
vt 0.921875 0.859375
vt 0.890625 0.859375
vt 0.890625 0.828125
vt 0.921875 0.828125
vt 0.984375 0.859375
vt 0.953125 0.859375
vt 0.953125 0.828125
vt 0.984375 0.828125
vt 0.046875 0.796875
vt 0.015625 0.796875
vt 0.015625 0.765625
vt 0.046875 0.765625
vt 0.109375 0.796875
vt 0.078125 0.796875
vt 0.078125 0.765625
vt 0.109375 0.765625
vt 0.171875 0.796875
vt 0.140625 0.796875
vt 0.140625 0.765625
vt 0.171875 0.765625
vt 0.234375 0.796875
vt 0.203125 0.796875
vt 0.203125 0.765625
vt 0.234375 0.765625
vt 0.296875 0.796875
vt 0.265625 0.796875
vt 0.265625 0.765625
vt 0.296875 0.765625
vt 0.359375 0.796875
vt 0.328125 0.796875
vt 0.328125 0.765625
vt 0.359375 0.765625
vt 0.421875 0.796875
vt 0.390625 0.796875
vt 0.390625 0.765625
vt 0.421875 0.765625
vt 0.484375 0.796875
vt 0.453125 0.796875
vt 0.453125 0.765625
vt 0.484375 0.765625
vt 0.546875 0.796875
vt 0.515625 0.796875
vt 0.515625 0.765625
vt 0.546875 0.765625
vt 0.609375 0.796875
vt 0.578125 0.796875
vt 0.578125 0.765625
vt 0.609375 0.765625
vt 0.671875 0.796875
vt 0.640625 0.796875
vt 0.640625 0.765625
vt 0.671875 0.765625
vt 0.734375 0.796875
vt 0.703125 0.796875
vt 0.703125 0.765625
vt 0.734375 0.765625
vt 0.796875 0.796875
vt 0.765625 0.796875
vt 0.765625 0.765625
vt 0.796875 0.765625
vt 0.859375 0.796875
vt 0.828125 0.796875
vt 0.828125 0.765625
vt 0.859375 0.765625
vt 0.921875 0.796875
vt 0.890625 0.796875
vt 0.890625 0.765625
vt 0.921875 0.765625
vt 0.984375 0.796875
vt 0.953125 0.796875
vt 0.953125 0.765625
vt 0.984375 0.765625
vt 0.046875 0.734375
vt 0.015625 0.734375
vt 0.015625 0.703125
vt 0.046875 0.703125
vt 0.109375 0.734375
vt 0.078125 0.734375
vt 0.078125 0.703125
vt 0.109375 0.703125
vt 0.171875 0.734375
vt 0.140625 0.734375
vt 0.140625 0.703125
vt 0.171875 0.703125
vt 0.234375 0.734375
vt 0.203125 0.734375
vt 0.203125 0.703125
vt 0.234375 0.703125
vt 0.296875 0.734375
vt 0.265625 0.734375
vt 0.265625 0.703125
vt 0.296875 0.703125
vt 0.359375 0.734375
vt 0.328125 0.734375
vt 0.328125 0.703125
vt 0.359375 0.703125
vt 0.421875 0.734375
vt 0.390625 0.734375
vt 0.390625 0.703125
vt 0.421875 0.703125
vt 0.484375 0.734375
vt 0.453125 0.734375
vt 0.453125 0.703125
vt 0.484375 0.703125
vt 0.546875 0.734375
vt 0.515625 0.734375
vt 0.515625 0.703125
vt 0.546875 0.703125
vt 0.609375 0.734375
vt 0.578125 0.734375
vt 0.578125 0.703125
vt 0.609375 0.703125
vt 0.671875 0.734375
vt 0.640625 0.734375
vt 0.640625 0.703125
vt 0.671875 0.703125
vt 0.734375 0.734375
vt 0.703125 0.734375
vt 0.703125 0.703125
vt 0.734375 0.703125
vt 0.796875 0.734375
vt 0.765625 0.734375
vt 0.765625 0.703125
vt 0.796875 0.703125
vt 0.859375 0.734375
vt 0.828125 0.734375
vt 0.828125 0.703125
vt 0.859375 0.703125
vt 0.921875 0.734375
vt 0.890625 0.734375
vt 0.890625 0.703125
vt 0.921875 0.703125
vt 0.984375 0.734375
vt 0.953125 0.734375
vt 0.953125 0.703125
vt 0.984375 0.703125
vt 0.046875 0.671875
vt 0.015625 0.671875
vt 0.015625 0.640625
vt 0.046875 0.640625
vt 0.109375 0.671875
vt 0.078125 0.671875
vt 0.078125 0.640625
vt 0.109375 0.640625
vt 0.171875 0.671875
vt 0.140625 0.671875
vt 0.140625 0.640625
vt 0.171875 0.640625
vt 0.234375 0.671875
vt 0.203125 0.671875
vt 0.203125 0.640625
vt 0.234375 0.640625
vt 0.296875 0.671875
vt 0.265625 0.671875
vt 0.265625 0.640625
vt 0.296875 0.640625
vt 0.359375 0.671875
vt 0.328125 0.671875
vt 0.328125 0.640625
vt 0.359375 0.640625
vt 0.421875 0.671875
vt 0.390625 0.671875
vt 0.390625 0.640625
vt 0.421875 0.640625
vt 0.484375 0.671875
vt 0.453125 0.671875
vt 0.453125 0.640625
vt 0.484375 0.640625
vt 0.546875 0.671875
vt 0.515625 0.671875
vt 0.515625 0.640625
vt 0.546875 0.640625
vt 0.609375 0.671875
vt 0.578125 0.671875
vt 0.578125 0.640625
vt 0.609375 0.640625
vt 0.671875 0.671875
vt 0.640625 0.671875
vt 0.640625 0.640625
vt 0.671875 0.640625
vt 0.734375 0.671875
vt 0.703125 0.671875
vt 0.703125 0.640625
vt 0.734375 0.640625
vt 0.796875 0.671875
vt 0.765625 0.671875
vt 0.765625 0.640625
vt 0.796875 0.640625
vt 0.859375 0.671875
vt 0.828125 0.671875
vt 0.828125 0.640625
vt 0.859375 0.640625
vt 0.921875 0.671875
vt 0.890625 0.671875
vt 0.890625 0.640625
vt 0.921875 0.640625
vt 0.984375 0.671875
vt 0.953125 0.671875
vt 0.953125 0.640625
vt 0.984375 0.640625
vt 0.046875 0.609375
vt 0.015625 0.609375
vt 0.015625 0.578125
vt 0.046875 0.578125
vt 0.109375 0.609375
vt 0.078125 0.609375
vt 0.078125 0.578125
vt 0.109375 0.578125
vt 0.171875 0.609375
vt 0.140625 0.609375
vt 0.140625 0.578125
vt 0.171875 0.578125
vt 0.234375 0.609375
vt 0.203125 0.609375
vt 0.203125 0.578125
vt 0.234375 0.578125
vt 0.296875 0.609375
vt 0.265625 0.609375
vt 0.265625 0.578125
vt 0.296875 0.578125
vt 0.359375 0.609375
vt 0.328125 0.609375
vt 0.328125 0.578125
vt 0.359375 0.578125
vt 0.421875 0.609375
vt 0.390625 0.609375
vt 0.390625 0.578125
vt 0.421875 0.578125
vt 0.484375 0.609375
vt 0.453125 0.609375
vt 0.453125 0.578125
vt 0.484375 0.578125
vt 0.546875 0.609375
vt 0.515625 0.609375
vt 0.515625 0.578125
vt 0.546875 0.578125
vt 0.609375 0.609375
vt 0.578125 0.609375
vt 0.578125 0.578125
vt 0.609375 0.578125
vt 0.671875 0.609375
vt 0.640625 0.609375
vt 0.640625 0.578125
vt 0.671875 0.578125
vt 0.734375 0.609375
vt 0.703125 0.609375
vt 0.703125 0.578125
vt 0.734375 0.578125
vt 0.796875 0.609375
vt 0.765625 0.609375
vt 0.765625 0.578125
vt 0.796875 0.578125
vt 0.859375 0.609375
vt 0.828125 0.609375
vt 0.828125 0.578125
vt 0.859375 0.578125
vt 0.921875 0.609375
vt 0.890625 0.609375
vt 0.890625 0.578125
vt 0.921875 0.578125
vt 0.984375 0.609375
vt 0.953125 0.609375
vt 0.953125 0.578125
vt 0.984375 0.578125
vt 0.046875 0.546875
vt 0.015625 0.546875
vt 0.015625 0.515625
vt 0.046875 0.515625
vt 0.109375 0.546875
vt 0.078125 0.546875
vt 0.078125 0.515625
vt 0.109375 0.515625
vn 0.8660254037844387 3.0331857110087213e-16 0.5000000000000002
vn 0.8660254037844388 3.845925372767129e-16 -0.5000000000000001
vn -1.0017774360549527e-16 2.2204460492503136e-16 -1
vn -0.8660254037844388 3.0331857110087213e-16 -0.5000000000000001
vn -0.8660254037844388 3.8459253727671286e-16 0.4999999999999997
vn -3.005332308164857e-16 2.2204460492503146e-16 1
vn 0 -1 0
vn 0 1 0
vn 0 -1 0
vn 0 1 0
vn 0 -1 0
vn 0 1 0
vn 0 -1 0
vn 0 1 0
vn 0 -1 0
vn 0 1 0
vn 0 -1 0
vn 0 1 0
vn 0 -1 0
vn 0 -1 0
vn -1.0255800994045646e-15 -1 -5.921189464667484e-16
vn -6.236291687659093e-32 -1 -1.2161491220977834e-16
vn -0.8540723771540092 -0.1624194398670728 -0.4941460311848776
vn 0.8649066430528254 0.039010849862328986 -0.5004144806019422
vn 0.8550919594292068 0.15509382077969827 0.494735937319571
vn 5.90053112387747e-16 0.04059022825190808 0.9991758770959487
vn 0 -1 0
vn 0 -1 0
vn -1.0255800994045676e-15 -1 5.921189464667496e-16
vn -1.0532160345268242e-16 -1 -6.080745610488913e-17
vn -0.8539792601604469 -0.16307165509098792 0.4940921558997894
vn -5.90053112387747e-16 0.040590228251907855 -0.9991758770959487
vn 0.8551720851051005 0.1545030235534702 -0.49478229613622077
vn 0.8649044049997267 0.039077023583645835 0.5004131857174748
vn 0 -1 0
vn 0 -1 0
vn -2.6295363507366984e-31 -1 1.1842378929334975e-15
vn -1.0532160345268228e-16 -1 6.080745610488918e-17
vn -2.2759420775599493e-16 -0.1643989873053573 0.9863939238321439
vn -0.8648258684472191 0.041332017821619174 -0.5003677463299439
vn 0 0.1563752564511046 -0.9876977164952095
vn 0.8648282353307104 0.04126586211032322 -0.5003691157526223
vn 0 -1 0
vn 0 -1 0
vn 1.0255800994045674e-15 -1 5.921189464667501e-16
vn 0 -1 1.2161491220977827e-16
vn 0.8540723771540091 -0.16241943986707266 0.49414603118487793
vn -0.8649066430528254 0.03901084986232911 0.5004144806019422
vn -0.8550919594292068 0.15509382077969844 -0.4947359373195714
vn 0 0.04059022825190799 -0.9991758770959487
vn 0 -1 0
vn 0 -1 0
vn 1.0255800994045676e-15 -1 -5.921189464667501e-16
vn 1.0532160345268233e-16 -1 6.080745610488908e-17
vn 0.8539792601604466 -0.16307165509098803 -0.49409215589979
vn 0 0.04059022825190795 0.9991758770959487
vn -0.8551720851051 0.15450302355347006 0.49478229613622166
vn -0.8649044049997273 0.03907702358364608 -0.5004131857174738
vn 0 -1 0
vn 0 -1 0
vn 0 -1 -1.184237892933506e-15
vn 1.0532160345268228e-16 -1 -6.080745610488918e-17
vn 0 -0.1643989873053573 -0.9863939238321439
vn 0.86482586844722 0.04133201782161896 0.5003677463299423
vn 0 0.15637525645110473 0.9876977164952095
vn -0.8648282353307104 0.041265862110323195 0.5003691157526223
vn 0 1 0
vn 0 1 0
vn 0 1 0
vn 0 1 0
vn 0.8539792601604466 0.16307165509098814 0.49409215589978994
vn 0 -0.040590228251907993 -0.9991758770959486
vn -0.8551720851051 -0.1545030235534703 -0.4947822961362214
vn -0.8649044049997284 -0.0390770235836462 0.5004131857174722
vn 0 1 0
vn 0 1 0
vn 0 1 0
vn 0 1 0
vn 0.8540723771540095 0.1624194398670728 -0.49414603118487765
vn -0.8649066430528265 -0.03901084986232954 -0.5004144806019404
vn -0.855091959429207 -0.1550938207796982 0.4947359373195708
vn 0 -0.04059022825190796 0.9991758770959486
vn 0 1 0
vn 2.1064320690536458e-16 1 -1.216149122097786e-16
vn 0 1 0
vn 0 1 0
vn 0 0.16439898730535732 -0.9863939238321439
vn -0.8648258684472191 -0.04133201782161916 0.5003677463299436
vn 0 -0.15637525645110478 0.9876977164952097
vn 0.8648282353307102 -0.041265862110323244 0.5003691157526228
vn 2.0511601988091383e-15 1 1.1842378929335022e-15
vn -1.2472583375318243e-31 1 -2.432298244195568e-16
vn 0 1 0
vn 0 1 0
vn -0.8539792601604467 0.163071655090988 -0.4940921558997897
vn 5.900531123877484e-16 -0.04059022825190809 0.9991758770959486
vn 0.8551720851050999 -0.15450302355347026 0.49478229613622166
vn 0.8649044049997262 -0.03907702358364576 -0.5004131857174756
vn 2.0511601988091257e-15 1 -1.1842378929334937e-15
vn 0 1 0
vn 0 1 0
vn 0 1 0
vn -0.8540723771540094 0.16241943986707283 0.4941460311848773
vn 0.8649066430528242 -0.03901084986232885 0.5004144806019442
vn 0.8550919594292072 -0.15509382077969827 -0.4947359373195706
vn -5.900531123877484e-16 -0.04059022825190787 -0.9991758770959486
vn 0 1 0
vn 0 1 0
vn 0 1 0
vn 0 1 0
vn -4.551884155119901e-16 0.16439898730535735 0.9863939238321439
vn 0.8648258684472201 -0.041332017821618765 -0.5003677463299419
vn 5.051307957806203e-16 -0.1563752564511046 -0.9876977164952095
vn -0.8648282353307105 -0.04126586211032314 -0.5003691157526223
usemtl m_cc202d90-e7cf-cb7e-0ce1-da5defd5378b
f 24/1/1 23/2/1 13/3/1 15/4/1
f 15/5/2 13/6/2 14/7/2 16/8/2
f 16/9/3 14/10/3 17/11/3 18/12/3
f 18/13/4 17/14/4 19/15/4 20/16/4
f 20/17/5 19/18/5 21/19/5 22/20/5
f 22/21/6 21/22/6 23/23/6 24/24/6
f 61/25/7 62/26/7 63/27/7 64/28/7
f 85/29/8 86/30/8 87/31/8 88/32/8
f 69/33/9 70/34/9 71/35/9 72/36/9
f 93/37/10 94/38/10 95/39/10 96/40/10
f 29/41/11 30/42/11 31/43/11 32/44/11
f 101/45/12 102/46/12 103/47/12 104/48/12
f 37/49/13 38/50/13 39/51/13 40/52/13
f 109/53/14 110/54/14 111/55/14 112/56/14
f 45/57/15 46/58/15 47/59/15 48/60/15
f 117/61/16 118/62/16 119/63/16 120/64/16
f 53/65/17 54/66/17 55/67/17 56/68/17
f 77/69/18 78/70/18 79/71/18 80/72/18
f 26/73/19 25/74/19 19/75/19 17/76/19
f 27/77/20 26/78/20 17/79/20 5/80/20
f 28/81/21 27/82/21 5/83/21 7/84/21
f 25/85/22 28/86/22 7/87/22 19/88/22
f 30/89/23 29/90/23 25/91/23 26/92/23
f 31/93/24 30/94/24 26/95/24 27/96/24
f 32/97/25 31/98/25 27/99/25 28/100/25
f 29/101/26 32/102/26 28/103/26 25/104/26
f 34/105/27 33/106/27 21/107/27 19/108/27
f 35/109/28 34/110/28 19/111/28 7/112/28
f 36/113/29 35/114/29 7/115/29 9/116/29
f 33/117/30 36/118/30 9/119/30 21/120/30
f 38/121/31 37/122/31 33/123/31 34/124/31
f 39/125/32 38/126/32 34/127/32 35/128/32
f 40/129/33 39/130/33 35/131/33 36/132/33
f 37/133/34 40/134/34 36/135/34 33/136/34
f 42/137/35 41/138/35 23/139/35 21/140/35
f 43/141/36 42/142/36 21/143/36 9/144/36
f 44/145/37 43/146/37 9/147/37 11/148/37
f 41/149/38 44/150/38 11/151/38 23/152/38
f 46/153/39 45/154/39 41/155/39 42/156/39
f 47/157/40 46/158/40 42/159/40 43/160/40
f 48/161/41 47/162/41 43/163/41 44/164/41
f 45/165/42 48/166/42 44/167/42 41/168/42
f 50/169/43 49/170/43 13/171/43 23/172/43
f 51/173/44 50/174/44 23/175/44 11/176/44
f 52/177/45 51/178/45 11/179/45 1/180/45
f 49/181/46 52/182/46 1/183/46 13/184/46
f 54/185/47 53/186/47 49/187/47 50/188/47
f 55/189/48 54/190/48 50/191/48 51/192/48
f 56/193/49 55/194/49 51/195/49 52/196/49
f 53/197/50 56/198/50 52/199/50 49/200/50
f 58/201/51 57/202/51 14/203/51 13/204/51
f 59/205/52 58/206/52 13/207/52 1/208/52
f 60/209/53 59/210/53 1/211/53 2/212/53
f 57/213/54 60/214/54 2/215/54 14/216/54
f 62/217/55 61/218/55 57/219/55 58/220/55
f 63/221/56 62/222/56 58/223/56 59/224/56
f 64/225/57 63/226/57 59/227/57 60/228/57
f 61/229/58 64/230/58 60/231/58 57/232/58
f 66/233/59 65/234/59 17/235/59 14/236/59
f 67/237/60 66/238/60 14/239/60 2/240/60
f 68/241/61 67/242/61 2/243/61 5/244/61
f 65/245/62 68/246/62 5/247/62 17/248/62
f 70/249/63 69/250/63 65/251/63 66/252/63
f 71/253/64 70/254/64 66/255/64 67/256/64
f 72/257/65 71/258/65 67/259/65 68/260/65
f 69/261/66 72/262/66 68/263/66 65/264/66
f 74/265/67 73/266/67 24/267/67 15/268/67
f 75/269/68 74/270/68 15/271/68 3/272/68
f 76/273/69 75/274/69 3/275/69 12/276/69
f 73/277/70 76/278/70 12/279/70 24/280/70
f 78/281/71 77/282/71 73/283/71 74/284/71
f 79/285/72 78/286/72 74/287/72 75/288/72
f 80/289/73 79/290/73 75/291/73 76/292/73
f 77/293/74 80/294/74 76/295/74 73/296/74
f 82/297/75 81/298/75 15/299/75 16/300/75
f 83/301/76 82/302/76 16/303/76 4/304/76
f 84/305/77 83/306/77 4/307/77 3/308/77
f 81/309/78 84/310/78 3/311/78 15/312/78
f 86/313/79 85/314/79 81/315/79 82/316/79
f 87/317/80 86/318/80 82/319/80 83/320/80
f 88/321/81 87/322/81 83/323/81 84/324/81
f 85/325/82 88/326/82 84/327/82 81/328/82
f 90/329/83 89/330/83 16/331/83 18/332/83
f 91/333/84 90/334/84 18/335/84 6/336/84
f 92/337/85 91/338/85 6/339/85 4/340/85
f 89/341/86 92/342/86 4/343/86 16/344/86
f 94/345/87 93/346/87 89/347/87 90/348/87
f 95/349/88 94/350/88 90/351/88 91/352/88
f 96/353/89 95/354/89 91/355/89 92/356/89
f 93/357/90 96/358/90 92/359/90 89/360/90
f 98/361/91 97/362/91 18/363/91 20/364/91
f 99/365/92 98/366/92 20/367/92 8/368/92
f 100/369/93 99/370/93 8/371/93 6/372/93
f 97/373/94 100/374/94 6/375/94 18/376/94
f 102/377/95 101/378/95 97/379/95 98/380/95
f 103/381/96 102/382/96 98/383/96 99/384/96
f 104/385/97 103/386/97 99/387/97 100/388/97
f 101/389/98 104/390/98 100/391/98 97/392/98
f 106/393/99 105/394/99 20/395/99 22/396/99
f 107/397/100 106/398/100 22/399/100 10/400/100
f 108/401/101 107/402/101 10/403/101 8/404/101
f 105/405/102 108/406/102 8/407/102 20/408/102
f 110/409/103 109/410/103 105/411/103 106/412/103
f 111/413/104 110/414/104 106/415/104 107/416/104
f 112/417/105 111/418/105 107/419/105 108/420/105
f 109/421/106 112/422/106 108/423/106 105/424/106
f 114/425/107 113/426/107 22/427/107 24/428/107
f 115/429/108 114/430/108 24/431/108 12/432/108
f 116/433/109 115/434/109 12/435/109 10/436/109
f 113/437/110 116/438/110 10/439/110 22/440/110
f 118/441/111 117/442/111 113/443/111 114/444/111
f 119/445/112 118/446/112 114/447/112 115/448/112
f 120/449/113 119/450/113 115/451/113 116/452/113
f 117/453/114 120/454/114 116/455/114 113/456/114
o eye
v -0.14062500000000008 0.23437500000000006 0.24356964481437327
v 0.14062499999999994 0.23437500000000006 0.24356964481437338
v 0 0.375 0
v -0.28124999999999994 0.23437500000000006 -5.166478683902895e-17
v -0.140625 0.23437500000000006 -0.24356964481437332
v 0.14062499999999994 0.23437500000000006 -0.24356964481437338
v 0.28124999999999994 0.23437500000000006 1.7221595613009652e-17
vt 0.046875 0.984375
vt 0.015625 0.984375
vt 0.015625 0.953125
vt 0.109375 0.984375
vt 0.078125 0.984375
vt 0.078125 0.953125
vt 0.171875 0.984375
vt 0.140625 0.984375
vt 0.140625 0.953125
vt 0.234375 0.984375
vt 0.203125 0.984375
vt 0.203125 0.953125
vt 0.296875 0.984375
vt 0.265625 0.984375
vt 0.265625 0.953125
vt 0.359375 0.984375
vt 0.328125 0.984375
vt 0.328125 0.953125
vn 0.43301270189221935 0.8660254037844388 0.25000000000000006
vn 0.43301270189221924 0.8660254037844387 -0.24999999999999992
vn -9.868649107779171e-17 0.8660254037844388 -0.5
vn -0.4330127018922192 0.8660254037844388 -0.24999999999999994
vn -0.43301270189221935 0.8660254037844387 0.24999999999999983
vn -1.973729821555834e-16 0.8660254037844388 0.5
usemtl m_2524befb-06ea-207e-ff9a-2b873360128a
f 122/457/115 127/458/115 123/459/115
f 127/460/116 126/461/116 123/462/116
f 126/463/117 125/464/117 123/465/117
f 125/466/118 124/467/118 123/468/118
f 124/469/119 121/470/119 123/471/119
f 121/472/120 122/473/120 123/474/120
o grey
v 0 -0.5 0
v 0.24999999999999994 0.25000000000000006 0.4330127018922193
v 0.24999999999999997 -0.2499999999999999 0.43301270189221935
v 0.49999999999999994 0.25000000000000006 3.0616169978683824e-17
v 0.5 -0.2499999999999999 3.061616997868383e-17
v 0.24999999999999994 0.25000000000000006 -0.4330127018922193
v 0.24999999999999997 -0.2499999999999999 -0.43301270189221935
v -0.25 0.25000000000000006 -0.43301270189221924
v -0.25000000000000006 -0.2499999999999999 -0.4330127018922193
v -0.49999999999999994 0.25000000000000006 -9.184850993605147e-17
v -0.5 -0.2499999999999999 -9.184850993605148e-17
v -0.25000000000000017 0.25000000000000006 0.43301270189221913
v -0.2500000000000002 -0.2499999999999999 0.4330127018922192
v -0.1875000000000001 0.31250000000000006 0.32475952641916433
v 0.18749999999999994 0.31250000000000006 0.3247595264191645
v -0.37499999999999994 0.31250000000000006 -6.888638245203861e-17
v -0.1875 0.31250000000000006 -0.32475952641916445
v 0.18749999999999994 0.31250000000000006 -0.3247595264191645
v 0.37499999999999994 0.31250000000000006 2.2962127484012868e-17
v -0.14062500000000008 0.23437500000000006 0.24356964481437327
v 0.14062499999999994 0.23437500000000006 0.24356964481437338
v -0.28124999999999994 0.23437500000000006 -5.166478683902895e-17
v -0.140625 0.23437500000000006 -0.24356964481437332
v 0.14062499999999994 0.23437500000000006 -0.24356964481437338
v 0.28124999999999994 0.23437500000000006 1.7221595613009652e-17
v 0.5 -0.1249999999999999 3.061616997868383e-17
v 0.24999999999999997 -0.1249999999999999 -0.43301270189221935
v 0.49999999999999994 0.12500000000000006 3.0616169978683824e-17
v 0.24999999999999994 0.12500000000000006 -0.4330127018922193
v -0.25000000000000006 -0.1249999999999999 -0.4330127018922193
v -0.25 0.12500000000000006 -0.43301270189221924
v -0.5 -0.1249999999999999 -9.184850993605148e-17
v -0.49999999999999994 0.12500000000000006 -9.184850993605147e-17
v -0.2500000000000002 -0.1249999999999999 0.4330127018922192
v -0.25000000000000017 0.12500000000000006 0.43301270189221913
v 0.24999999999999997 -0.1249999999999999 0.43301270189221935
v 0.24999999999999994 0.12500000000000006 0.4330127018922193
vt 0.046875 0.984375
vt 0.015625 0.984375
vt 0.015625 0.953125
vt 0.109375 0.984375
vt 0.078125 0.984375
vt 0.078125 0.953125
vt 0.171875 0.984375
vt 0.140625 0.984375
vt 0.140625 0.953125
vt 0.234375 0.984375
vt 0.203125 0.984375
vt 0.203125 0.953125
vt 0.296875 0.984375
vt 0.265625 0.984375
vt 0.265625 0.953125
vt 0.359375 0.984375
vt 0.328125 0.984375
vt 0.328125 0.953125
vt 0.421875 0.984375
vt 0.390625 0.984375
vt 0.390625 0.953125
vt 0.421875 0.953125
vt 0.484375 0.984375
vt 0.453125 0.984375
vt 0.453125 0.953125
vt 0.484375 0.953125
vt 0.546875 0.984375
vt 0.515625 0.984375
vt 0.515625 0.953125
vt 0.546875 0.953125
vt 0.609375 0.984375
vt 0.578125 0.984375
vt 0.578125 0.953125
vt 0.609375 0.953125
vt 0.671875 0.984375
vt 0.640625 0.984375
vt 0.640625 0.953125
vt 0.671875 0.953125
vt 0.734375 0.984375
vt 0.703125 0.984375
vt 0.703125 0.953125
vt 0.734375 0.953125
vt 0.796875 0.984375
vt 0.765625 0.984375
vt 0.765625 0.953125
vt 0.796875 0.953125
vt 0.859375 0.984375
vt 0.828125 0.984375
vt 0.828125 0.953125
vt 0.859375 0.953125
vt 0.921875 0.984375
vt 0.890625 0.984375
vt 0.890625 0.953125
vt 0.921875 0.953125
vt 0.984375 0.984375
vt 0.953125 0.984375
vt 0.953125 0.953125
vt 0.984375 0.953125
vt 0.046875 0.921875
vt 0.015625 0.921875
vt 0.015625 0.890625
vt 0.046875 0.890625
vt 0.109375 0.921875
vt 0.078125 0.921875
vt 0.078125 0.890625
vt 0.109375 0.890625
vt 0.171875 0.921875
vt 0.140625 0.921875
vt 0.140625 0.890625
vt 0.171875 0.890625
vt 0.234375 0.921875
vt 0.203125 0.921875
vt 0.203125 0.890625
vt 0.234375 0.890625
vt 0.296875 0.921875
vt 0.265625 0.921875
vt 0.265625 0.890625
vt 0.296875 0.890625
vt 0.359375 0.921875
vt 0.328125 0.921875
vt 0.328125 0.890625
vt 0.359375 0.890625
vt 0.421875 0.921875
vt 0.390625 0.921875
vt 0.390625 0.890625
vt 0.421875 0.890625
vt 0.484375 0.921875
vt 0.453125 0.921875
vt 0.453125 0.890625
vt 0.484375 0.890625
vt 0.546875 0.921875
vt 0.515625 0.921875
vt 0.515625 0.890625
vt 0.546875 0.890625
vt 0.609375 0.921875
vt 0.578125 0.921875
vt 0.578125 0.890625
vt 0.609375 0.890625
vt 0.671875 0.921875
vt 0.640625 0.921875
vt 0.640625 0.890625
vt 0.671875 0.890625
vt 0.734375 0.921875
vt 0.703125 0.921875
vt 0.703125 0.890625
vt 0.734375 0.890625
vt 0.796875 0.921875
vt 0.765625 0.921875
vt 0.765625 0.890625
vt 0.796875 0.890625
vt 0.859375 0.921875
vt 0.828125 0.921875
vt 0.828125 0.890625
vt 0.859375 0.890625
vn 0.43301270189221946 -0.8660254037844386 0.2500000000000001
vn 0.4330127018922196 -0.8660254037844387 -0.2500000000000001
vn -5.551115123125785e-17 -0.8660254037844387 -0.5000000000000002
vn -0.43301270189221946 -0.8660254037844387 -0.2500000000000001
vn -0.4330127018922195 -0.8660254037844386 0.24999999999999992
vn -1.6653345369377348e-16 -0.8660254037844386 0.5000000000000002
vn -2.2204460492503128e-16 0.8660254037844387 0.5
vn -0.43301270189221946 0.8660254037844388 0.24999999999999994
vn -0.43301270189221946 0.8660254037844388 -0.2500000000000001
vn -7.40148683083438e-17 0.8660254037844386 -0.5000000000000001
vn 0.4330127018922195 0.8660254037844387 -0.2500000000000001
vn 0.43301270189221935 0.8660254037844387 0.25
vn 2.7370707982815197e-16 0.720576692122892 -0.6933752452815366
vn 0.600480576769077 0.7205766921228922 -0.346687622640768
vn 0.6004805767690768 0.7205766921228921 0.34668762264076824
vn 1.3685353991407599e-16 0.7205766921228921 0.6933752452815365
vn -0.6004805767690768 0.7205766921228921 0.3466876226407682
vn -0.6004805767690766 0.7205766921228922 -0.3466876226407682
vn 0.8660254037844387 0 -0.49999999999999994
vn 0.8660254037844387 0 -0.5
vn -1.1102230246251565e-16 0 -1
vn -1.1102230246251568e-16 0 -1
vn -0.8660254037844386 0 -0.5000000000000001
vn -0.8660254037844386 0 -0.5000000000000001
vn -0.8660254037844388 0 0.4999999999999997
vn -0.8660254037844388 0 0.4999999999999998
vn -3.3306690738754686e-16 0 1
vn -3.330669073875469e-16 0 1
vn 0.8660254037844387 0 0.5000000000000001
vn 0.8660254037844387 0 0.5000000000000001
usemtl m_86e0a3c8-8c81-95e3-9295-a861b295bdf1
f 132/475/121 130/476/121 128/477/121
f 134/478/122 132/479/122 128/480/122
f 136/481/123 134/482/123 128/483/123
f 138/484/124 136/485/124 128/486/124
f 140/487/125 138/488/125 128/489/125
f 130/490/126 140/491/126 128/492/126
f 142/493/127 141/494/127 139/495/127 129/496/127
f 141/497/128 143/498/128 137/499/128 139/500/128
f 143/501/129 144/502/129 135/503/129 137/504/129
f 144/505/130 145/506/130 133/507/130 135/508/130
f 145/509/131 146/510/131 131/511/131 133/512/131
f 146/513/132 142/514/132 129/515/132 131/516/132
f 148/517/133 147/518/133 141/519/133 142/520/133
f 147/521/134 149/522/134 143/523/134 141/524/134
f 149/525/135 150/526/135 144/527/135 143/528/135
f 150/529/136 151/530/136 145/531/136 144/532/136
f 151/533/137 152/534/137 146/535/137 145/536/137
f 152/537/138 148/538/138 142/539/138 146/540/138
f 154/541/139 153/542/139 132/543/139 134/544/139
f 155/545/140 156/546/140 133/547/140 131/548/140
f 157/549/141 154/550/141 134/551/141 136/552/141
f 156/553/142 158/554/142 135/555/142 133/556/142
f 159/557/143 157/558/143 136/559/143 138/560/143
f 158/561/144 160/562/144 137/563/144 135/564/144
f 161/565/145 159/566/145 138/567/145 140/568/145
f 160/569/146 162/570/146 139/571/146 137/572/146
f 163/573/147 161/574/147 140/575/147 130/576/147
f 162/577/148 164/578/148 129/579/148 139/580/148
f 153/581/149 163/582/149 130/583/149 132/584/149
f 164/585/150 155/586/150 131/587/150 129/588/150