# Made in Blockbench 4.10.4
mtllib HUDmodel.mtl

o tube
v 0.13397459621556132 -0.5 -0.4999999999999999
v 0.13397459621556132 -0.5 -0.2499999999999999
v 0.10520705918813916 -0.3926380902050416 -0.4999999999999999
v 0.10520705918813916 -0.39263809020504153 -0.24999999999999992
v 0.3660254037844386 -0.36602540378443876 -0.49999999999999994
v 0.3660254037844386 -0.3660254037844387 -0.24999999999999992
v 0.28743103101690226 -0.2874310310169024 -0.49999999999999994
v 0.28743103101690226 -0.28743103101690237 -0.24999999999999994
v 0.49999999999999994 -0.13397459621556143 -0.49999999999999994
v 0.49999999999999994 -0.13397459621556138 -0.24999999999999997
v 0.3926380902050415 -0.10520705918813927 -0.5
v 0.3926380902050415 -0.10520705918813922 -0.24999999999999997
v 0.49999999999999994 0.13397459621556126 -0.5
v 0.49999999999999994 0.13397459621556132 -0.25000000000000006
v 0.3926380902050415 0.1052070591881391 -0.5
v 0.3926380902050415 0.10520705918813915 -0.25
v 0.36602540378443865 0.3660254037844385 -0.5000000000000001
v 0.36602540378443865 0.36602540378443854 -0.25000000000000006
v 0.2874310310169023 0.28743103101690215 -0.5000000000000001
v 0.2874310310169023 0.2874310310169022 -0.25000000000000006
v 0.1339745962155615 0.4999999999999998 -0.5000000000000001
v 0.1339745962155615 0.4999999999999998 -0.4375000000000001
v 0.10520705918813927 0.3926380902050413 -0.5000000000000001
v 0.10520705918813927 0.39263809020504137 -0.2500000000000001
v -0.13397459621556113 0.4999999999999999 -0.5000000000000001
v -0.13397459621556113 0.4999999999999999 -0.4375000000000001
v -0.105207059188139 0.3926380902050414 -0.5000000000000001
v -0.105207059188139 0.3926380902050415 -0.2500000000000001
v -0.3660254037844386 0.3660254037844386 -0.5000000000000001
v -0.3660254037844386 0.36602540378443865 -0.25000000000000006
v -0.28743103101690226 0.28743103101690226 -0.5000000000000001
v -0.28743103101690226 0.2874310310169023 -0.25000000000000006
v -0.49999999999999994 0.13397459621556115 -0.5
v -0.49999999999999994 0.1339745962155612 -0.25000000000000006
v -0.3926380902050415 0.10520705918813901 -0.5
v -0.3926380902050415 0.10520705918813907 -0.25
v -0.5 -0.1339745962155612 -0.49999999999999994
v -0.5 -0.13397459621556115 -0.24999999999999997
v -0.39263809020504153 -0.1052070591881391 -0.5
v -0.39263809020504153 -0.10520705918813904 -0.24999999999999997
v -0.3660254037844387 -0.36602540378443865 -0.49999999999999994
v -0.3660254037844387 -0.3660254037844386 -0.24999999999999992
v -0.28743103101690237 -0.2874310310169023 -0.49999999999999994
v -0.28743103101690237 -0.28743103101690226 -0.24999999999999994
v -0.1339745962155613 -0.5 -0.4999999999999999
v -0.1339745962155613 -0.5 -0.2499999999999999
v -0.10520705918813913 -0.3926380902050416 -0.4999999999999999
v -0.10520705918813913 -0.39263809020504153 -0.24999999999999992
v 0.2676380902050415 -0.03697852959406965 -0.375
v 0.2676380902050415 0.036978529594069526 -0.375
v 0.2676380902050415 0.0369785295940695 -0.5
v 0.2676380902050415 -0.03697852959406968 -0.5
v -0.2676380902050415 0.03697852959406952 -0.375
v -0.2676380902050415 -0.036978529594069574 -0.375
v -0.2676380902050415 -0.0369785295940696 -0.5
v -0.2676380902050415 0.03697852959406949 -0.5
v 0.19551342683327197 0.036978529594069526 -0.36205582617584076
v 0.19551342683327197 -0.03697852959406965 -0.36205582617584076
v 0.32422337788134165 -0.10520705918813922 -0.22790291308792035
v 0.32422337788134165 0.10520705918813915 -0.2279029130879204
v -0.195513426833272 -0.036978529594069574 -0.36205582617584076
v -0.195513426833272 0.03697852959406952 -0.36205582617584076
v -0.32422337788134165 0.10520705918813907 -0.2279029130879204
v -0.32422337788134176 -0.10520705918813904 -0.22790291308792035
v 0.4375 -0.13397459621556138 -0.21874999999999997
v 0.4375 0.13397459621556132 -0.21875000000000003
v -0.4374999999999999 0.1339745962155612 -0.21875000000000003
v -0.4375 -0.13397459621556115 -0.21874999999999997
v 0.28743103101690226 -0.2874310310169024 -0.5312499999999999
v 0.3926380902050415 -0.10520705918813927 -0.53125
v 0.49999999999999994 -0.13397459621556143 -0.53125
v 0.3660254037844386 -0.36602540378443876 -0.5312499999999999
v 0.3926380902050415 0.10520705918813908 -0.53125
v 0.2874310310169023 0.28743103101690215 -0.5312500000000001
v 0.36602540378443865 0.3660254037844385 -0.5312500000000001
v 0.49999999999999994 0.13397459621556126 -0.53125
v -0.28743103101690226 0.28743103101690226 -0.5312500000000001
v -0.3926380902050415 0.105207059188139 -0.53125
v -0.49999999999999994 0.13397459621556115 -0.53125
v -0.3660254037844386 0.3660254037844386 -0.5312500000000001
v -0.39263809020504153 -0.10520705918813911 -0.53125
v -0.28743103101690237 -0.2874310310169023 -0.5312499999999999
v -0.3660254037844387 -0.36602540378443865 -0.5312499999999999
v -0.5 -0.1339745962155612 -0.53125
v 0.08976297946442624 0.48228528488383166 -0.4065625000000001
v -0.08976297946442591 0.4822852848838317 -0.4065625000000001
v -0.07048872965605307 0.4103528053212096 -0.2809375000000001
v 0.07048872965605336 0.41035280532120955 -0.2809375000000001
vt 0 0.5
vt 0.26795 0.5
vt 0.26795 1
vt 0 1
vt 0.2104125 1
vt 0 1
vt 0 0.5
vt 0.2104125 0.5
vt 5.551115123125783e-17 0.9712338382135871
vt 0 0.7608192340054607
vt 0.1073608929841336 0.7320513050606374
vt 0.1073631935017324 1
vt 0 0.8926370534788388
vt 0.26794869494923834 0.8926370534788388
vt 0.23918168777008322 0.9999981934508018
vt 0.028767083569711985 1
vt 0 0.5
vt 0.26795 0.5
vt 0.26795 1
vt 0 1
vt 0.2104125 1
vt 0 1
vt 0 0.5
vt 0.2104125 0.5
vt 0 0.9712320710551766
vt 5.551115123125783e-17 0.7608174668470502
vt 0.1073631935017324 0.7320513050606374
vt 0.10736089298413354 1
vt 0 0.892637053478839
vt 0.2679486949492383 0.8926370534788388
vt 0.2391816113795264 1
vt 0.028767007179155174 0.999998193450802
vt 0 0.5
vt 0.26795 0.5
vt 0.26795 1
vt 0 1
vt 0.2302125 0.8125
vt 0.125 0.8125
vt 0.125 0.6875
vt 0.2302125 0.6875
vt 0 0.97123125
vt 0 0.76081875
vt 0.10736250000000003 0.73205
vt 0.10736250000000003 1
vt 0.10736250000000003 0.73205
vt 0.10736250000000003 1
vt 0 0.97123125
vt 0 0.76081875
vt 0 0.5
vt 0.26795 0.5
vt 0.26795 1
vt 0 1
vt 0.2104125 1
vt 0 1
vt 0 0.5
vt 0.2104125 0.5
vt 0.23918253315294977 1
vt 0.02876792894482333 1
vt 0 0.8926391070158664
vt 0.26794869493936263 0.8926368064982676
vt 0.10736294652116113 0.7320513050507615
vt 0.10736294652116107 1
vt 0.0000018065491981245074 0.9712329928208447
vt 0 0.7608183886204736
vt 0 0.5
vt 0.26795 0.5
vt 0.26795 1
vt 0 1
vt 0.2104125 1
vt 0 1
vt 0 0.5
vt 0.2104125 0.5
vt 0.23918076599453925 1
vt 0.028766161786412836 1
vt 0 0.8926368064982676
vt 0.2679486949393626 0.8926391070158665
vt 0.10736294652116124 0.7320513050507617
vt 0.10736294652116118 1
vt 0 0.971232916430288
vt 0.0000018065491982910409 0.7608183122299168
vt 0 0.5
vt 0.26795 0.5
vt 0.26795 1
vt 0 1
vt 0.2104125 1
vt 0 1
vt 0 0.5
vt 0.2104125 0.5
vt 0.23918125 1
vt 0.02876875000000001 1
vt 0 0.8926375
vt 0.26795 0.8926375
vt 0 0.5
vt 0.26795 0.5
vt 0.26795 1
vt 0 1
vt 0.2104125 1
vt 0 1
vt 0 0.5
vt 0.2104125 0.5
vt 0.1073631935017324 0.7608174668470502
vt 0.10736319350173235 0.9712320710551767
vt 0.000002300517598752272 1
vt 0 0.7320513050606373
vt 0.26794869494923834 1
vt 0 1
vt 0.02876700717915512 0.892638860028037
vt 0.23918161137952637 0.8926370534788388
vt 0 0.5
vt 0.26795 0.5
vt 0.26795 1
vt 0 1
vt 0.2104125 1
vt 0 1
vt 0 0.5
vt 0.2104125 0.5
vt 0.1073631935017324 0.7608192340054607
vt 0.10736319350173235 0.9712338382135872
vt 0 1
vt 0.000002300517598863294 0.7320513050606374
vt 0.26794869494923834 1
vt 0 1
vt 0.028767083569712013 0.8926370534788388
vt 0.23918168777008322 0.892638860028037
vt 0 0.5
vt 0.26795 0.5
vt 0.26795 1
vt 0 1
vt 0.2302125 0.8125
vt 0.125 0.8125
vt 0.125 0.6875
vt 0.2302125 0.6875
vt 0.10736250000000003 0.76081875
vt 0.10736250000000003 0.97123125
vt 0 1
vt 0 0.73205
vt 0 1
vt 0 0.73205
vt 0.10736250000000003 0.76081875
vt 0.10736250000000003 0.97123125
vt 0 0.5
vt 0.26795 0.5
vt 0.26795 1
vt 0 1
vt 0.2104125 1
vt 0 1
vt 0 0.5
vt 0.2104125 0.5
vt 0.028766161786412864 0.8926368064982677
vt 0.2391807659945393 0.8926368064982676
vt 0.26794869493936263 0.9999976994824011
vt 0 1
vt 5.551115123125783e-17 1
vt 0 0.7320513050507617
vt 0.107361139971963 0.7608183122299168
vt 0.10736294652116124 0.971232916430288
vt 0 0.5
vt 0.26795 0.5
vt 0.26795 1
vt 0 1
vt 0.2104125 1
vt 0 1
vt 0 0.5
vt 0.2104125 0.5
vt 0.028767928944823357 0.8926368064982676
vt 0.23918253315294977 0.8926368064982677
vt 0.2679486949393626 1
vt 0 0.9999976994824011
vt 0 1
vt 5.551115123125783e-17 0.7320513050507617
vt 0.10736294652116124 0.7608183886204737
vt 0.10736113997196295 0.971232992820845
vt 0 0.5
vt 0.26795 0.5
vt 0.26795 1
vt 0 1
vt 0.2104125 1
vt 0 1
vt 0 0.5
vt 0.2104125 0.5
vt 0.02876875000000001 0.8926375
vt 0.23918125 0.8926375
vt 0.26795 1
vt 0 1
vt 0 0.8926375
vt 0.26795 0.8926375
vt 0.23918125 1
vt 0.02876875000000001 1
vt 0.11510000000000001 0.9375
vt 0.2203125 0.9375
vt 0.2729125 1
vt 0.0625 1
vt 0.0526 0.6875
vt 0.0526 0.8125
vt 0 0.875
vt 0 0.625
vt 0.2203125 0.5
vt 0.11510000000000001 0.5
vt 0.0625 0.4375
vt 0.2729125 0.4375
vt 0.125 0.8125
vt 0.125 0.6875
vt 0.1776 0.625
vt 0.1776 0.875
vt 0.11510000000000001 0.9375
vt 0.2203125 0.9375
vt 0.2729125 1
vt 0.0625 1
vt 0.0526 0.6875
vt 0.0526 0.8125
vt 0 0.875
vt 0 0.625
vt 0.2203125 0.5
vt 0.11510000000000001 0.5
vt 0.0625 0.4375
vt 0.2729125 0.4375
vt 0.125 0.8125
vt 0.125 0.6875
vt 0.1776 0.625
vt 0.1776 0.875
vt 0.1364625 1
vt 0.0625 1
vt 0.0625 0.9375
vt 0.1364625 0.9375
vt 0.2727535335131488 0.990844044121572
vt 0.0625 1
vt 0.0625 0.9374985597040957
vt 0.2518523976742743 0.9374968816177667
vt 0.12445907693249186 0.789696065759935
vt 0.11642750051730849 1
vt 0.06250000000000006 0.9793605050823502
vt 0.0625 0.7900546825276147
vt 0.1364625 1
vt 0.0625 1
vt 0.0625 0.9375
vt 0.1364625 0.9375
vt 0.2727535335131488 0.990844044121572
vt 0.0625 1
vt 0.0625 0.9374985597040957
vt 0.2518523976742743 0.9374968816177667
vt 0.12445907693249186 0.789696065759935
vt 0.11642750051730849 1
vt 0.06250000000000006 0.9793605050823502
vt 0.0625 0.7900546825276147
vt 0.26795 0.9375
vt 0 0.9375
vt 0 0.875
vt 0.26795 0.875
vt 0.13261875 0.99085
vt 0 1
vt 0 0.9375
vt 0.11104375 0.9375
vt 0.13265059716627636 0.9375
vt 0 0.9288800009321203
vt 0.021370674770067988 0.8752380699464447
vt 0.13238419097980691 0.8752380699464447
vt 0.26795 0.9375
vt 0 0.9375
vt 0 0.875
vt 0.26795 0.875
vt 0.13261875 0.92835
vt 0 0.9375
vt 0 0.875
vt 0.11104375 0.875
vt 0.13265059716627636 1
vt 0 0.9913800009321203
vt 0.021370674770067988 0.9377380699464447
vt 0.13238419097980691 0.9377380699464447
vt 0 0.875
vt 0.2104125 0.875
vt 0.2104125 0.9375
vt 0 0.9375
vt 0 0.8125
vt 0.11114999999999997 0.8125
vt 0.11114999999999997 0.875
vt 0 0.875
vt 0 0.875
vt 0.26795 0.875
vt 0.26795 0.9375
vt 0 0.9375
vt 0 0.9375
vt 0.11114999999999997 0.9375
vt 0.11114999999999997 1
vt 0 1
vt 0 0.9375
vt 0.2104125 0.9375
vt 0.2104125 1
vt 0 1
vt 0 0.9375
vt 0.11114999999999997 0.9375
vt 0.11114999999999997 1
vt 0 1
vt 0 0.9375
vt 0.26795 0.9375
vt 0.26795 1
vt 0 1
vt 0.0625 0.9375
vt 0.17364999999999997 0.9375
vt 0.17364999999999997 1
vt 0.0625 1
vt 0 0.875
vt 0.2104125 0.875
vt 0.2104125 0.9375
vt 0 0.9375
vt 0 0.9375
vt 0.11114999999999997 0.9375
vt 0.11114999999999997 1
vt 0 1
vt 0 0.875
vt 0.26795 0.875
vt 0.26795 0.9375
vt 0 0.9375
vt 0 0.8125
vt 0.11114999999999997 0.8125
vt 0.11114999999999997 0.875
vt 0 0.875
vt 0 0.9375
vt 0.2104125 0.9375
vt 0.2104125 1
vt 0 1
vt 0.0625 0.9375
vt 0.17364999999999997 0.9375
vt 0.17364999999999997 1
vt 0.0625 1
vt 0 0.9375
vt 0.26795 0.9375
vt 0.26795 1
vt 0 1
vt 0 0.9375
vt 0.11114999999999997 0.9375
vt 0.11114999999999997 1
vt 0 1
vt 0.2237375 1
vt 0.044212500000000016 1
vt 0 0.96435
vt 0.26795 0.96435
vt 2.0816681711721685e-17 0.9692442033630515
vt 0 0.8232041162936102
vt 0.03912047983464585 0.7820306331551014
vt 0.039120264247435296 1
vt 0.03471875000000195 0.8393499999999992
vt 0.17569375000000192 0.8393499999999992
vt 0.21041250000000195 0.8749999999999991
vt 1.942890293094024e-15 0.8749999999999991
vt 0.2286734831385071 0.960879520165353
vt 0.3747135702079484 0.960879520165353
vt 0.4054693668448969 0.9999997844127884
vt 0.18749999999999833 0.9999999999999989
vn 0.4999999999999999 -0.8660254037844388 1.9229626863835643e-16
vn -0.5000000000000001 0.8660254037844388 -1.9229626863835643e-16
vn 0 -2.220446049250313e-16 -1
vn 0 2.220446049250313e-16 1
vn 0.8660254037844388 -0.5 1.1102230246251565e-16
vn -0.8660254037844386 0.5000000000000001 -1.1102230246251568e-16
vn 0 -2.220446049250313e-16 -1
vn 0 2.220446049250313e-16 1
vn 1 0 0
vn -1 0 0
vn 0 -2.220446049250313e-16 -1
vn -0.08053894385535289 2.2132328475793413e-16 0.9967514627642463
vn 0.8660254037844388 0.5 -1.1102230246251565e-16
vn -0.8660254037844386 -0.5000000000000001 1.1102230246251568e-16
vn 0 -2.220446049250313e-16 -1
vn 0 2.220446049250313e-16 1
vn 0.5000000000000001 0.8660254037844388 -1.9229626863835643e-16
vn -0.5000000000000001 -0.8660254037844386 1.9229626863835638e-16
vn 0 -2.220446049250313e-16 -1
vn 0.08760894745453628 0.8586138312299978 0.5050811431309361
vn 4.143408735633879e-16 1 -2.220446049250313e-16
vn -5.276371344244937e-16 -1 2.220446049250313e-16
vn 0 -2.220446049250313e-16 -1
vn -0.4999999999999996 0.8660254037844389 -1.9229626863835646e-16
vn 0.4999999999999997 -0.8660254037844389 1.9229626863835646e-16
vn 0 -2.220446049250313e-16 -1
vn 0.4148401708088874 0.4148401708088877 0.8098242188070855
vn -0.8660254037844389 0.4999999999999998 -1.110223024625156e-16
vn 0.8660254037844387 -0.4999999999999999 1.1102230246251563e-16
vn 0 -2.220446049250313e-16 -1
vn 0 2.220446049250313e-16 1
vn -1 2.0717043678169412e-16 -4.6001077787337445e-32
vn 1 0 0
vn 0 -2.220446049250313e-16 -1
vn 0.08053894385535296 1.8795270840503446e-16 0.9967514627642461
vn -0.8660254037844389 -0.4999999999999996 1.1102230246251557e-16
vn 0.8660254037844388 0.4999999999999998 -1.110223024625156e-16
vn 0 -2.220446049250313e-16 -1
vn 0 2.220446049250313e-16 1
vn -0.4999999999999999 -0.8660254037844386 1.9229626863835638e-16
vn 0.5000000000000001 0.8660254037844386 -1.9229626863835638e-16
vn 0 -2.220446049250313e-16 -1
vn 0 2.220446049250313e-16 1
vn 0 -1 2.220446049250313e-16
vn 0 1 -2.220446049250313e-16
vn 0 -2.220446049250313e-16 -1
vn 0 2.220446049250313e-16 1
vn -0.7215937886750529 1.5372518669871812e-16 0.6923166935338069
vn -0.47910490864715416 0.8777576467967695 -1.9490134990291385e-16
vn 0 -2.220446049250313e-16 -1
vn -0.47910490864715416 -0.8777576467967695 1.9490134990291385e-16
vn 0.7215937886750531 1.537251866987181e-16 0.6923166935338068
vn 0.4791049086471534 -0.8777576467967697 1.949013499029139e-16
vn 0 -2.220446049250313e-16 -1
vn 0.4791049086471538 0.8777576467967697 -1.949013499029139e-16
vn -0.17664715881004228 -2.185527849568414e-16 -0.9842742408924151
vn -0.0712524615979587 -0.9150412121077984 -0.3970172122975562
vn -0.11611285742076764 0.9258941596838854 -0.3594966055540116
vn 0.17664715881004234 -2.185527849568414e-16 -0.9842742408924151
vn 0.07125246159795859 0.9150412121077983 -0.3970172122975562
vn 0.11611285742076764 -0.9258941596838858 -0.3594966055540106
vn 0.4472135954999583 1.9860273225978183e-16 0.8944271909999159
vn -0.1964132786479534 0.8983925199231165 -0.39282655729590665
vn -0.16946932632833725 -0.8342523628790494 -0.5246933794746629
vn -0.44721359549995754 3.839016040886581e-16 0.8944271909999161
vn 0.19641327864795313 -0.8983925199231168 -0.39282655729590604
vn 0.16946932632833728 0.8342523628790491 -0.5246933794746633
vn -0.8660254037844386 0.5000000000000001 -1.1102230246251568e-16
vn 0.2588190451025207 0.9659258262890683 -2.144786184852406e-16
vn 0.8660254037844388 -0.5 1.1102230246251565e-16
vn -0.7071067811865476 -0.7071067811865476 1.5700924586837752e-16
vn -0.8660254037844386 -0.5000000000000001 1.1102230246251568e-16
vn -0.7071067811865476 0.7071067811865476 -1.5700924586837752e-16
vn 0.8660254037844388 0.5 -1.1102230246251565e-16
vn 0.25881904510252085 -0.9659258262890683 2.144786184852406e-16
vn 0.8660254037844387 -0.4999999999999999 1.1102230246251563e-16
vn -0.2588190451025206 -0.9659258262890683 2.144786184852406e-16
vn -0.8660254037844389 0.4999999999999998 -1.110223024625156e-16
vn 0.7071067811865476 0.7071067811865476 -1.5700924586837752e-16
vn 0.8660254037844388 0.4999999999999998 -1.110223024625156e-16
vn 0.7071067811865476 -0.7071067811865476 1.5700924586837752e-16
vn -0.8660254037844389 -0.4999999999999996 1.1102230246251557e-16
vn -0.25881904510252035 0.9659258262890684 -2.1447861848524062e-16
vn 2.6833397526025654e-16 0.8678060741543895 0.49690302641536255
vn 6.072884911118795e-16 0.8678060741543895 0.49690302641536277
vn 3.4170650015148636e-16 0.8678060741543896 0.49690302641536255
vn 6.072884911118792e-16 0.8678060741543892 0.4969030264153629
usemtl m_498c34ad-b726-ea85-4e2a-f2a0105815af
f 1/1/1 5/2/1 6/3/1 2/4/1
f 4/5/2 8/6/2 7/7/2 3/8/2
f 3/9/3 7/10/3 5/11/3 1/12/3
f 2/13/4 6/14/4 8/15/4 4/16/4
f 5/17/5 9/18/5 10/19/5 6/20/5
f 8/21/6 12/22/6 11/23/6 7/24/6
f 69/25/7 70/26/7 71/27/7 72/28/7
f 6/29/8 10/30/8 12/31/8 8/32/8
f 9/33/9 13/34/9 14/35/9 10/36/9
f 49/37/10 50/38/10 51/39/10 52/40/10
f 11/41/11 15/42/11 13/43/11 9/44/11
f 65/45/12 66/46/12 60/47/12 59/48/12
f 13/49/13 17/50/13 18/51/13 14/52/13
f 16/53/14 20/54/14 19/55/14 15/56/14
f 73/57/15 74/58/15 75/59/15 76/60/15
f 14/61/16 18/62/16 20/63/16 16/64/16
f 17/65/17 21/66/17 22/67/17 18/68/17
f 20/69/18 24/70/18 23/71/18 19/72/18
f 19/73/19 23/74/19 21/75/19 17/76/19
f 18/77/20 22/78/20 24/79/20 20/80/20
f 21/81/21 25/82/21 26/83/21 22/84/21
f 24/85/22 28/86/22 27/87/22 23/88/22
f 23/89/23 27/90/23 25/91/23 21/92/23
f 25/93/24 29/94/24 30/95/24 26/96/24
f 28/97/25 32/98/25 31/99/25 27/100/25
f 27/101/26 31/102/26 29/103/26 25/104/26
f 26/105/27 30/106/27 32/107/27 28/108/27
f 29/109/28 33/110/28 34/111/28 30/112/28
f 32/113/29 36/114/29 35/115/29 31/116/29
f 77/117/30 78/118/30 79/119/30 80/120/30
f 30/121/31 34/122/31 36/123/31 32/124/31
f 33/125/32 37/126/32 38/127/32 34/128/32
f 53/129/33 54/130/33 55/131/33 56/132/33
f 35/133/34 39/134/34 37/135/34 33/136/34
f 67/137/35 68/138/35 64/139/35 63/140/35
f 37/141/36 41/142/36 42/143/36 38/144/36
f 40/145/37 44/146/37 43/147/37 39/148/37
f 81/149/38 82/150/38 83/151/38 84/152/38
f 38/153/39 42/154/39 44/155/39 40/156/39
f 41/157/40 45/158/40 46/159/40 42/160/40
f 44/161/41 48/162/41 47/163/41 43/164/41
f 43/165/42 47/166/42 45/167/42 41/168/42
f 42/169/43 46/170/43 48/171/43 44/172/43
f 45/173/44 1/174/44 2/175/44 46/176/44
f 48/177/45 4/178/45 3/179/45 47/180/45
f 47/181/46 3/182/46 1/183/46 45/184/46
f 46/185/47 2/186/47 4/187/47 48/188/47
f 57/189/48 58/190/48 59/191/48 60/192/48
f 51/193/49 50/194/49 16/195/49 15/196/49
f 52/197/50 51/198/50 15/199/50 11/200/50
f 49/201/51 52/202/51 11/203/51 12/204/51
f 61/205/52 62/206/52 63/207/52 64/208/52
f 55/209/53 54/210/53 40/211/53 39/212/53
f 56/213/54 55/214/54 39/215/54 35/216/54
f 53/217/55 56/218/55 35/219/55 36/220/55
f 58/221/56 57/222/56 50/223/56 49/224/56
f 59/225/57 58/226/57 49/227/57 12/228/57
f 57/229/58 60/230/58 16/231/58 50/232/58
f 62/233/59 61/234/59 54/235/59 53/236/59
f 63/237/60 62/238/60 53/239/60 36/240/60
f 61/241/61 64/242/61 40/243/61 54/244/61
f 66/245/62 65/246/62 10/247/62 14/248/62
f 60/249/63 66/250/63 14/251/63 16/252/63
f 65/253/64 59/254/64 12/255/64 10/256/64
f 68/257/65 67/258/65 34/259/65 38/260/65
f 64/261/66 68/262/66 38/263/66 40/264/66
f 67/265/67 63/266/67 36/267/67 34/268/67
f 70/269/68 69/270/68 7/271/68 11/272/68
f 71/273/69 70/274/69 11/275/69 9/276/69
f 72/277/70 71/278/70 9/279/70 5/280/70
f 69/281/71 72/282/71 5/283/71 7/284/71
f 74/285/72 73/286/72 15/287/72 19/288/72
f 75/289/73 74/290/73 19/291/73 17/292/73
f 76/293/74 75/294/74 17/295/74 13/296/74
f 73/297/75 76/298/75 13/299/75 15/300/75
f 78/301/76 77/302/76 31/303/76 35/304/76
f 79/305/77 78/306/77 35/307/77 33/308/77
f 80/309/78 79/310/78 33/311/78 29/312/78
f 77/313/79 80/314/79 29/315/79 31/316/79
f 82/317/80 81/318/80 39/319/80 43/320/80
f 83/321/81 82/322/81 43/323/81 41/324/81
f 84/325/82 83/326/82 41/327/82 37/328/82
f 81/329/83 84/330/83 37/331/83 39/332/83
f 86/333/84 85/334/84 22/335/84 26/336/84
f 87/337/85 86/338/85 26/339/85 28/340/85
f 88/341/86 87/342/86 28/343/86 24/344/86
f 85/345/87 88/346/87 24/347/87 22/348/87
o tube_selection
v 0.08976297946442624 0.48228528488383166 -0.4065625000000001
v -0.08976297946442591 0.4822852848838317 -0.4065625000000001
v -0.07048872965605307 0.4103528053212096 -0.2809375000000001
v 0.07048872965605336 0.41035280532120955 -0.2809375000000001
vt 0.062499999999999084 0.8552375
vt 0.24202499999999907 0.8552375
vt 0.22274999999999906 1
vt 0.08177499999999908 1
vn 2.683339752602565e-16 0.8678060741543893 0.49690302641536277
usemtl m_dd59e24e-ceb5-dfe9-6960-14eb2770814f
f 89/349/88 90/350/88 91/351/88 92/352/88
o plane
v 0.15625 0.14062499999999992 -0.359375
v 0 -0.15625000000000008 -0.359375
v -0.15625 0.14062499999999992 -0.359375
vt 1 1
vt 0 1
vt 0 0
vn 0 2.220446049250313e-16 1
usemtl m_dd59e24e-ceb5-dfe9-6960-14eb2770814f
f 93/353/89 95/354/89 94/355/89
o tube
v 0.10048094716167098 -0.3750000000000001 -0.4374999999999999
v 0.10048094716167098 -0.37500000000000006 -0.3124999999999999
v 0.07890529439110436 -0.29447856765378116 -0.43749999999999994
v 0.07890529439110436 -0.2944785676537811 -0.31249999999999994
v 0.2745190528383289 -0.2745190528383291 -0.43749999999999994
v 0.2745190528383289 -0.27451905283832906 -0.31249999999999994
v 0.21557327326267664 -0.21557327326267683 -0.43749999999999994
v 0.21557327326267664 -0.21557327326267683 -0.31249999999999994
v 0.375 -0.10048094716167108 -0.4375
v 0.375 -0.10048094716167105 -0.3125
v 0.29447856765378105 -0.07890529439110446 -0.4375
v 0.29447856765378105 -0.07890529439110443 -0.3125
v 0.375 0.10048094716167096 -0.4375
v 0.375 0.10048094716167098 -0.3125
v 0.29447856765378105 0.07890529439110432 -0.4375
v 0.29447856765378105 0.07890529439110434 -0.3125
v 0.274519052838329 0.27451905283832884 -0.43750000000000006
v 0.274519052838329 0.2745190528383289 -0.31250000000000006
v 0.21557327326267675 0.2155732732626766 -0.43750000000000006
v 0.21557327326267675 0.2155732732626766 -0.31250000000000006
v 0.1004809471616711 0.3749999999999999 -0.4375000000000001
v 0.1004809471616711 0.37499999999999994 -0.3125000000000001
v 0.07890529439110444 0.29447856765378094 -0.43750000000000006
v 0.07890529439110444 0.294478567653781 -0.31250000000000006
v -0.10048094716167084 0.3749999999999999 -0.4375000000000001
v -0.10048094716167084 0.37499999999999994 -0.3125000000000001
v -0.07890529439110426 0.294478567653781 -0.43750000000000006
v -0.07890529439110426 0.29447856765378105 -0.31250000000000006
v -0.27451905283832895 0.27451905283832895 -0.43750000000000006
v -0.27451905283832895 0.274519052838329 -0.31250000000000006
v -0.2155732732626767 0.21557327326267672 -0.43750000000000006
v -0.2155732732626767 0.21557327326267672 -0.31250000000000006
v -0.375 0.10048094716167086 -0.4375
v -0.375 0.10048094716167089 -0.3125
v -0.2944785676537811 0.07890529439110425 -0.4375
v -0.2944785676537811 0.07890529439110427 -0.3125
v -0.375 -0.10048094716167091 -0.4375
v -0.375 -0.10048094716167089 -0.3125
v -0.2944785676537811 -0.07890529439110433 -0.4375
v -0.2944785676537811 -0.0789052943911043 -0.3125
v -0.27451905283832906 -0.274519052838329 -0.43749999999999994
v -0.27451905283832906 -0.27451905283832895 -0.31249999999999994
v -0.2155732732626768 -0.21557327326267672 -0.43749999999999994
v -0.2155732732626768 -0.21557327326267672 -0.31249999999999994
v -0.10048094716167098 -0.3750000000000001 -0.4374999999999999
v -0.10048094716167098 -0.37500000000000006 -0.3124999999999999
v -0.07890529439110436 -0.29447856765378116 -0.43749999999999994
v -0.07890529439110436 -0.2944785676537811 -0.31249999999999994
vt 0 0.5
vt 0.26795 0.5
vt 0.26795 1
vt 0 1
vt 0.2104125 1
vt 0 1
vt 0 0.5
vt 0.2104125 0.5
vt 5.551115123125783e-17 0.9712338382135871
vt 0 0.7608192340054607
vt 0.1073608929841336 0.7320513050606374
vt 0.1073631935017324 1
vt 0 0.8926370534788388
vt 0.26794869494923834 0.8926370534788388
vt 0.23918168777008322 0.9999981934508018
vt 0.028767083569711985 1
vt 0 0.5
vt 0.26795 0.5
vt 0.26795 1
vt 0 1
vt 0.2104125 1
vt 0 1
vt 0 0.5
vt 0.2104125 0.5
vt 0 0.9712320710551766
vt 5.551115123125783e-17 0.7608174668470502
vt 0.1073631935017324 0.7320513050606374
vt 0.10736089298413354 1
vt 0 0.892637053478839
vt 0.2679486949492383 0.8926370534788388
vt 0.2391816113795264 1
vt 0.028767007179155174 0.999998193450802
vt 0 0.5
vt 0.26795 0.5
vt 0.26795 1
vt 0 1
vt 0.2104125 1
vt 0 1
vt 0 0.5
vt 0.2104125 0.5
vt 0 0.97123125
vt 0 0.76081875
vt 0.10736250000000003 0.73205
vt 0.10736250000000003 1
vt 0.10736250000000003 0.73205
vt 0.10736250000000003 1
vt 0 0.97123125
vt 0 0.76081875
vt 0 0.5
vt 0.26795 0.5
vt 0.26795 1
vt 0 1
vt 0.2104125 1
vt 0 1
vt 0 0.5
vt 0.2104125 0.5
vt 0.23918253315294977 1
vt 0.02876792894482333 1
vt 0 0.8926391070158664
vt 0.26794869493936263 0.8926368064982676
vt 0.10736294652116113 0.7320513050507615
vt 0.10736294652116107 1
vt 0.0000018065491981245074 0.9712329928208447
vt 0 0.7608183886204736
vt 0 0.5
vt 0.26795 0.5
vt 0.26795 1
vt 0 1
vt 0.2104125 1
vt 0 1
vt 0 0.5
vt 0.2104125 0.5
vt 0.23918076599453925 1
vt 0.028766161786412836 1
vt 0 0.8926368064982676
vt 0.2679486949393626 0.8926391070158665
vt 0.10736294652116124 0.7320513050507617
vt 0.10736294652116118 1
vt 0 0.971232916430288
vt 0.0000018065491982910409 0.7608183122299168
vt 0 0.5
vt 0.26795 0.5
vt 0.26795 1
vt 0 1
vt 0.2104125 1
vt 0 1
vt 0 0.5
vt 0.2104125 0.5
vt 0.23918125 1
vt 0.02876875000000001 1
vt 0 0.8926375
vt 0.26795 0.8926375
vt 0.26795 1
vt 0 1
vt 0.02876875000000001 0.8926375
vt 0.23918125 0.8926375
vt 0 0.5
vt 0.26795 0.5
vt 0.26795 1
vt 0 1
vt 0.2104125 1
vt 0 1
vt 0 0.5
vt 0.2104125 0.5
vt 0.1073631935017324 0.7608174668470502
vt 0.10736319350173235 0.9712320710551767
vt 0.000002300517598752272 1
vt 0 0.7320513050606373
vt 0.26794869494923834 1
vt 0 1
vt 0.02876700717915512 0.892638860028037
vt 0.23918161137952637 0.8926370534788388
vt 0 0.5
vt 0.26795 0.5
vt 0.26795 1
vt 0 1
vt 0.2104125 1
vt 0 1
vt 0 0.5
vt 0.2104125 0.5
vt 0.1073631935017324 0.7608192340054607
vt 0.10736319350173235 0.9712338382135872
vt 0 1
vt 0.000002300517598863294 0.7320513050606374
vt 0.26794869494923834 1
vt 0 1
vt 0.028767083569712013 0.8926370534788388
vt 0.23918168777008322 0.892638860028037
vt 0 0.5
vt 0.26795 0.5
vt 0.26795 1
vt 0 1
vt 0.2104125 1
vt 0 1
vt 0 0.5
vt 0.2104125 0.5
vt 0.10736250000000003 0.76081875
vt 0.10736250000000003 0.97123125
vt 0 1
vt 0 0.73205
vt 0 1
vt 0 0.73205
vt 0.10736250000000003 0.76081875
vt 0.10736250000000003 0.97123125
vt 0 0.5
vt 0.26795 0.5
vt 0.26795 1
vt 0 1
vt 0.2104125 1
vt 0 1
vt 0 0.5
vt 0.2104125 0.5
vt 0.028766161786412864 0.8926368064982677
vt 0.2391807659945393 0.8926368064982676
vt 0.26794869493936263 0.9999976994824011
vt 0 1
vt 5.551115123125783e-17 1
vt 0 0.7320513050507617
vt 0.107361139971963 0.7608183122299168
vt 0.10736294652116124 0.971232916430288
vt 0 0.5
vt 0.26795 0.5
vt 0.26795 1
vt 0 1
vt 0.2104125 1
vt 0 1
vt 0 0.5
vt 0.2104125 0.5
vt 0.028767928944823357 0.8926368064982676
vt 0.23918253315294977 0.8926368064982677
vt 0.2679486949393626 1
vt 0 0.9999976994824011
vt 0 1
vt 5.551115123125783e-17 0.7320513050507617
vt 0.10736294652116124 0.7608183886204737
vt 0.10736113997196295 0.971232992820845
vt 0 0.5
vt 0.26795 0.5
vt 0.26795 1
vt 0 1
vt 0.2104125 1
vt 0 1
vt 0 0.5
vt 0.2104125 0.5
vt 0.02876875000000001 0.8926375
vt 0.23918125 0.8926375
vt 0.26795 1
vt 0 1
vt 0 0.8926375
vt 0.26795 0.8926375
vt 0.23918125 1
vt 0.02876875000000001 1
vn 0.5000000000000001 -0.8660254037844386 1.9229626863835638e-16
vn -0.49999999999999983 0.8660254037844388 -1.9229626863835643e-16
vn 0 -2.220446049250313e-16 -1
vn 0 2.220446049250313e-16 1
vn 0.8660254037844387 -0.5000000000000003 1.1102230246251573e-16
vn -0.8660254037844387 0.5000000000000001 -1.1102230246251568e-16
vn 0 -2.220446049250313e-16 -1
vn 0 2.220446049250313e-16 1
vn 1 0 0
vn -1 0 0
vn 0 -2.220446049250313e-16 -1
vn 0 2.220446049250313e-16 1
vn 0.8660254037844386 0.5000000000000001 -1.1102230246251568e-16
vn -0.8660254037844388 -0.49999999999999983 1.1102230246251562e-16
vn 0 -2.220446049250313e-16 -1
vn 0 2.220446049250313e-16 1
vn 0.5000000000000003 0.8660254037844386 -1.9229626863835638e-16
vn -0.5 -0.8660254037844387 1.922962686383564e-16
vn 0 -2.220446049250313e-16 -1
vn 0 2.220446049250313e-16 1
vn 0 1 -2.220446049250313e-16
vn -3.5175808961632904e-16 -1 2.220446049250313e-16
vn 0 -2.220446049250313e-16 -1
vn 0 2.220446049250313e-16 1
vn -0.4999999999999995 0.8660254037844392 -1.922962686383565e-16
vn 0.4999999999999994 -0.866025403784439 1.9229626863835648e-16
vn 0 -2.220446049250313e-16 -1
vn 0 2.220446049250313e-16 1
vn -0.8660254037844389 0.4999999999999999 -1.1102230246251563e-16
vn 0.8660254037844388 -0.49999999999999994 1.1102230246251564e-16
vn 0 -2.220446049250313e-16 -1
vn 0 2.220446049250313e-16 1
vn -1 0 0
vn 1 0 0
vn 0 -2.220446049250313e-16 -1
vn 0 2.220446049250313e-16 1
vn -0.8660254037844389 -0.4999999999999995 1.1102230246251554e-16
vn 0.8660254037844392 0.49999999999999956 -1.1102230246251556e-16
vn 0 -2.220446049250313e-16 -1
vn 0 2.220446049250313e-16 1
vn -0.5000000000000001 -0.8660254037844385 1.9229626863835636e-16
vn 0.49999999999999994 0.8660254037844388 -1.9229626863835643e-16
vn 0 -2.220446049250313e-16 -1
vn 0 2.220446049250313e-16 1
vn 0 -1 2.220446049250313e-16
vn 0 1 -2.220446049250313e-16
vn 0 -2.220446049250313e-16 -1
vn 0 2.220446049250313e-16 1
usemtl m_dd59e24e-ceb5-dfe9-6960-14eb2770814f
f 96/356/90 100/357/90 101/358/90 97/359/90
f 99/360/91 103/361/91 102/362/91 98/363/91
f 98/364/92 102/365/92 100/366/92 96/367/92
f 97/368/93 101/369/93 103/370/93 99/371/93
f 100/372/94 104/373/94 105/374/94 101/375/94
f 103/376/95 107/377/95 106/378/95 102/379/95
f 102/380/96 106/381/96 104/382/96 100/383/96
f 101/384/97 105/385/97 107/386/97 103/387/97
f 104/388/98 108/389/98 109/390/98 105/391/98
f 107/392/99 111/393/99 110/394/99 106/395/99
f 106/396/100 110/397/100 108/398/100 104/399/100
f 105/400/101 109/401/101 111/402/101 107/403/101
f 108/404/102 112/405/102 113/406/102 109/407/102
f 111/408/103 115/409/103 114/410/103 110/411/103
f 110/412/104 114/413/104 112/414/104 108/415/104
f 109/416/105 113/417/105 115/418/105 111/419/105
f 112/420/106 116/421/106 117/422/106 113/423/106
f 115/424/107 119/425/107 118/426/107 114/427/107
f 114/428/108 118/429/108 116/430/108 112/431/108
f 113/432/109 117/433/109 119/434/109 115/435/109
f 116/436/110 120/437/110 121/438/110 117/439/110
f 119/440/111 123/441/111 122/442/111 118/443/111
f 118/444/112 122/445/112 120/446/112 116/447/112
f 117/448/113 121/449/113 123/450/113 119/451/113
f 120/452/114 124/453/114 125/454/114 121/455/114
f 123/456/115 127/457/115 126/458/115 122/459/115
f 122/460/116 126/461/116 124/462/116 120/463/116
f 121/464/117 125/465/117 127/466/117 123/467/117
f 124/468/118 128/469/118 129/470/118 125/471/118
f 127/472/119 131/473/119 130/474/119 126/475/119
f 126/476/120 130/477/120 128/478/120 124/479/120
f 125/480/121 129/481/121 131/482/121 127/483/121
f 128/484/122 132/485/122 133/486/122 129/487/122
f 131/488/123 135/489/123 134/490/123 130/491/123
f 130/492/124 134/493/124 132/494/124 128/495/124
f 129/496/125 133/497/125 135/498/125 131/499/125
f 132/500/126 136/501/126 137/502/126 133/503/126
f 135/504/127 139/505/127 138/506/127 134/507/127
f 134/508/128 138/509/128 136/510/128 132/511/128
f 133/512/129 137/513/129 139/514/129 135/515/129
f 136/516/130 140/517/130 141/518/130 137/519/130
f 139/520/131 143/521/131 142/522/131 138/523/131
f 138/524/132 142/525/132 140/526/132 136/527/132
f 137/528/133 141/529/133 143/530/133 139/531/133
f 140/532/134 96/533/134 97/534/134 141/535/134
f 143/536/135 99/537/135 98/538/135 142/539/135
f 142/540/136 98/541/136 96/542/136 140/543/136
f 141/544/137 97/545/137 99/546/137 143/547/137