# Made in Blockbench 4.10.3
mtllib MAC.mtl

o cuboid_selection
v 1.5 -0.0625 1.5
v 1.5 -0.0625 -1.5
v -1.5 -0.0625 1.5
v -1.5 -0.0625 -1.5
vt 0 -1
vt 2 -1
vt 2 1
vt 0 1
vn 0 1 0
usemtl m_9236d4b5-29f0-0011-e47c-3a524c5d01fd
f 3/1/1 1/2/1 2/3/1 4/4/1
o cuboid
v 1.8235294117647058 0 1.8235294117647058
v 1.8235294117647058 0 -1.8235294117647058
v 1.8235294117647058 -0.5 1.8235294117647058
v 1.8235294117647058 -0.5 -1.8235294117647058
v -1.8235294117647058 0 1.8235294117647058
v -1.8235294117647058 0 -1.8235294117647058
v -1.8235294117647058 -0.5 1.8235294117647058
v -1.8235294117647058 -0.5 -1.8235294117647058
v 1.5386029411764706 0 1.5386029411764706
v 1.5386029411764706 0 -1.5386029411764706
v -1.5386029411764706 0 1.5386029411764706
v -1.5386029411764706 0 -1.5386029411764706
v 1.5386029411764706 -0.0625 1.5386029411764706
v 1.5386029411764706 -0.0625 -1.5386029411764706
v -1.5386029411764706 -0.0625 1.5386029411764706
v -1.5386029411764706 -0.0625 -1.5386029411764706
v 0.9117647058823529 -0.25 1.9375
v -0.9117647058823529 -0.25 1.9375
v 0.9117647058823529 -0.5 1.9375
v -0.9117647058823529 -0.5 1.9375
v 1.9375 -0.25 0.9117647058823529
v 1.9375 -0.5 0.9117647058823529
v 1.9375 -0.25 -0.9117647058823529
v 1.9375 -0.5 -0.9117647058823529
v 0.9117647058823529 -0.25 -1.9375
v 0.9117647058823529 -0.5 -1.9375
v -0.9117647058823529 -0.25 -1.9375
v -0.9117647058823529 -0.5 -1.9375
v -1.9375 -0.25 0.9117647058823529
v -1.9375 -0.25 -0.9117647058823529
v -1.9375 -0.5 0.9117647058823529
v -1.9375 -0.5 -0.9117647058823529
vt 2 0.875
vt 0 0.875
vt 0 0.625
vt 2 0.625
vt 2 0.625
vt 2 0.875
vt 0 0.875
vt 0 0.625
vt 1 0
vt 1 1
vt 0 1
vt 0 0
vt 2 0.625
vt 2 0.875
vt 0 0.875
vt 0 0.625
vt 2 0.875
vt 0 0.875
vt 0 0.625
vt 2 0.625
vt 3 1
vt 1 1
vt 0 0
vt 4 0
vt 0 0
vt 0 -2
vt 1 -3
vt 1 1
vt 1 0
vt 3 0
vt 4 1
vt 0 1
vt 1 -2
vt 1 0
vt 0 1
vt 0 -3
vt 3.375 0.0625
vt 0 0.0625
vt 0 0
vt 3.375 0
vt 3.375 0.5
vt 0 0.5
vt 0 0.4375
vt 3.375 0.4375
vt 3.375 1
vt 0 1
vt 0 0.9375
vt 3.375 0.9375
vt 3.375 0.5
vt 0 0.5
vt 0 0.4375
vt 3.375 0.4375
vt 0 0.875
vt 0 0.625
vt 1 0.5
vt 1 1
vt 1 0.875
vt 3 0.875
vt 4 1
vt 0 1
vt 1 0.625
vt 1 0.875
vt 0 1
vt 0 0.5
vt 3 0.5625
vt 1 0.5625
vt 0 0.4375
vt 4 0.4375
vt 1 0.875
vt 3 0.875
vt 4 1
vt 0 1
vt 1 0.625
vt 1 0.875
vt 0 1
vt 0 0.5
vt 3 0.5625
vt 1 0.5625
vt 0 0.4375
vt 4 0.4375
vt 0 0.875
vt 0 0.625
vt 1 0.5
vt 1 1
vt 1 0.875
vt 3 0.875
vt 4 1
vt 0 1
vt 1 0.625
vt 1 0.875
vt 0 1
vt 0 0.5
vt 3 0.5625
vt 1 0.5625
vt 0 0.4375
vt 4 0.4375
vt 0 0.875
vt 0 0.625
vt 1 0.5
vt 1 1
vt 0 0.875
vt 0 0.625
vt 1 0.5
vt 1 1
vt 1 0.875
vt 3 0.875
vt 4 1
vt 0 1
vt 1 0.625
vt 1 0.875
vt 0 1
vt 0 0.5
vt 3 0.5625
vt 1 0.5625
vt 0 0.4375
vt 4 0.4375
vn 1 0 0
vn -1 0 0
vn 0 -1 0
vn 0 0 1
vn 0 0 -1
vn 0 1 0
vn 0 1 0
vn 0 1 0
vn 0 1 0
vn 0 0 -1
vn -1 0 0
vn 0 0 1
vn 1 0 0
vn 0.1240347345892085 0 0.9922778767136676
vn 0 0.4148108477260769 0.9099076659797813
vn -0.1240347345892085 0 0.9922778767136676
vn 0 -1 0
vn 0.9099076659797813 0.4148108477260769 0
vn 0.9922778767136676 0 0.1240347345892085
vn 0 -1 0
vn 0.9922778767136676 0 -0.1240347345892085
vn 0 0.4148108477260769 -0.9099076659797813
vn 0.1240347345892085 0 -0.9922778767136676
vn 0 -1 0
vn -0.1240347345892085 0 -0.9922778767136676
vn -0.9922778767136676 0 0.1240347345892085
vn -0.9099076659797813 0.4148108477260769 0
vn -0.9922778767136676 0 -0.1240347345892085
vn 0 -1 0
usemtl m_46716427-2249-387d-271d-296bdd2d7816
f 27/5/2 25/6/2 26/7/2 28/8/2
f 35/9/3 33/10/3 34/11/3 36/12/3
f 8/13/4 7/14/4 11/15/4 12/16/4
f 23/17/5 21/18/5 22/19/5 24/20/5
f 31/21/6 29/22/6 30/23/6 32/24/6
f 13/25/7 15/26/7 9/27/7 5/28/7
f 14/29/8 13/30/8 5/31/8 6/32/8
f 16/33/9 14/34/9 6/35/9 10/36/9
f 15/37/10 16/38/10 10/39/10 9/40/10
f 17/41/11 19/42/11 15/43/11 13/44/11
f 18/45/12 17/46/12 13/47/12 14/48/12
f 20/49/13 18/50/13 14/51/13 16/52/13
f 19/53/14 20/54/14 16/55/14 15/56/14
f 21/57/15 23/58/15 7/59/15 5/60/15
f 22/61/16 21/62/16 5/63/16 9/64/16
f 24/65/17 22/66/17 9/67/17 11/68/17
f 23/69/18 24/70/18 11/71/18 7/72/18
f 25/73/19 27/74/19 6/75/19 5/76/19
f 26/77/20 25/78/20 5/79/20 7/80/20
f 28/81/21 26/82/21 7/83/21 8/84/21
f 27/85/22 28/86/22 8/87/22 6/88/22
f 29/89/23 31/90/23 10/91/23 6/92/23
f 30/93/24 29/94/24 6/95/24 8/96/24
f 32/97/25 30/98/25 8/99/25 12/100/25
f 31/101/26 32/102/26 12/103/26 10/104/26
f 33/105/27 35/106/27 11/107/27 9/108/27
f 34/109/28 33/110/28 9/111/28 10/112/28
f 36/113/29 34/114/29 10/115/29 12/116/29
f 35/117/30 36/118/30 12/119/30 11/120/30
o cuboid
v 0.5 0 0.5
v 0.5 0 -0.5
v 0.5 -0.5 0.5
v 0.5 -0.5 -0.5
v -0.5 0 0.5
v -0.5 0 -0.5
v -0.5 -0.5 0.5
v -0.5 -0.5 -0.5
vt 1 1
vt 0 1
vt 0 0.5
vt 1 0.5
vt 1 0.5
vt 1 1
vt 0 1
vt 0 0.5
vt 0 0
vt 1 0
vt 1 1
vt 0 1
vt 1 0
vt 1 1
vt 0 1
vt 0 0
vt 1 0.5
vt 1 1
vt 0 1
vt 0 0.5
vt 1 1
vt 0 1
vt 0 0.5
vt 1 0.5
vn 1 0 0
vn -1 0 0
vn 0 1 0
vn 0 -1 0
vn 0 0 1
vn 0 0 -1
usemtl m_c707d7aa-dbb1-3497-8983-8967456c5303
f 38/121/31 37/122/31 39/123/31 40/124/31
f 43/125/32 41/126/32 42/127/32 44/128/32
f 41/129/33 37/130/33 38/131/33 42/132/33
f 40/133/34 39/134/34 43/135/34 44/136/34
f 39/137/35 37/138/35 41/139/35 43/140/35
f 42/141/36 38/142/36 40/143/36 44/144/36
o cuboid
v 1.5 0 -0.5
v 1.5 0 -1.5
v 1.5 -0.5 -0.5
v 1.5 -0.5 -1.5
v 0.5 0 -0.5
v 0.5 0 -1.5
v 0.5 -0.5 -0.5
v 0.5 -0.5 -1.5
vt 1 1
vt 0 1
vt 0 0.5
vt 1 0.5
vt 1 0.5
vt 1 1
vt 0 1
vt 0 0.5
vt 0 0
vt 1 0
vt 1 1
vt 0 1
vt 1 0
vt 1 1
vt 0 1
vt 0 0
vt 1 0.5
vt 1 1
vt 0 1
vt 0 0.5
vt 1 1
vt 0 1
vt 0 0.5
vt 1 0.5
vn 1 0 0
vn -1 0 0
vn 0 1 0
vn 0 -1 0
vn 0 0 1
vn 0 0 -1
usemtl m_c707d7aa-dbb1-3497-8983-8967456c5303
f 46/145/37 45/146/37 47/147/37 48/148/37
f 51/149/38 49/150/38 50/151/38 52/152/38
f 49/153/39 45/154/39 46/155/39 50/156/39
f 48/157/40 47/158/40 51/159/40 52/160/40
f 47/161/41 45/162/41 49/163/41 51/164/41
f 50/165/42 46/166/42 48/167/42 52/168/42
o cuboid
v 1.5 0 1.5
v 1.5 0 0.5
v 1.5 -0.5 1.5
v 1.5 -0.5 0.5
v 0.5 0 1.5
v 0.5 0 0.5
v 0.5 -0.5 1.5
v 0.5 -0.5 0.5
vt 1 1
vt 0 1
vt 0 0.5
vt 1 0.5
vt 1 0.5
vt 1 1
vt 0 1
vt 0 0.5
vt 0 0
vt 1 0
vt 1 1
vt 0 1
vt 1 0
vt 1 1
vt 0 1
vt 0 0
vt 1 0.5
vt 1 1
vt 0 1
vt 0 0.5
vt 1 1
vt 0 1
vt 0 0.5
vt 1 0.5
vn 1 0 0
vn -1 0 0
vn 0 1 0
vn 0 -1 0
vn 0 0 1
vn 0 0 -1
usemtl m_c707d7aa-dbb1-3497-8983-8967456c5303
f 54/169/43 53/170/43 55/171/43 56/172/43
f 59/173/44 57/174/44 58/175/44 60/176/44
f 57/177/45 53/178/45 54/179/45 58/180/45
f 56/181/46 55/182/46 59/183/46 60/184/46
f 55/185/47 53/186/47 57/187/47 59/188/47
f 58/189/48 54/190/48 56/191/48 60/192/48
o cuboid
v -0.5 0 1.5
v -0.5 0 0.5
v -0.5 -0.5 1.5
v -0.5 -0.5 0.5
v -1.5 0 1.5
v -1.5 0 0.5
v -1.5 -0.5 1.5
v -1.5 -0.5 0.5
vt 1 1
vt 0 1
vt 0 0.5
vt 1 0.5
vt 1 0.5
vt 1 1
vt 0 1
vt 0 0.5
vt 0 0
vt 1 0
vt 1 1
vt 0 1
vt 1 0
vt 1 1
vt 0 1
vt 0 0
vt 1 0.5
vt 1 1
vt 0 1
vt 0 0.5
vt 1 1
vt 0 1
vt 0 0.5
vt 1 0.5
vn 1 0 0
vn -1 0 0
vn 0 1 0
vn 0 -1 0
vn 0 0 1
vn 0 0 -1
usemtl m_c707d7aa-dbb1-3497-8983-8967456c5303
f 62/193/49 61/194/49 63/195/49 64/196/49
f 67/197/50 65/198/50 66/199/50 68/200/50
f 65/201/51 61/202/51 62/203/51 66/204/51
f 64/205/52 63/206/52 67/207/52 68/208/52
f 63/209/53 61/210/53 65/211/53 67/212/53
f 66/213/54 62/214/54 64/215/54 68/216/54
o cuboid
v -0.5 0 -0.5
v -0.5 0 -1.5
v -0.5 -0.5 -0.5
v -0.5 -0.5 -1.5
v -1.5 0 -0.5
v -1.5 0 -1.5
v -1.5 -0.5 -0.5
v -1.5 -0.5 -1.5
vt 1 1
vt 0 1
vt 0 0.5
vt 1 0.5
vt 1 0.5
vt 1 1
vt 0 1
vt 0 0.5
vt 0 0
vt 1 0
vt 1 1
vt 0 1
vt 1 0
vt 1 1
vt 0 1
vt 0 0
vt 1 0.5
vt 1 1
vt 0 1
vt 0 0.5
vt 1 1
vt 0 1
vt 0 0.5
vt 1 0.5
vn 1 0 0
vn -1 0 0
vn 0 1 0
vn 0 -1 0
vn 0 0 1
vn 0 0 -1
usemtl m_c707d7aa-dbb1-3497-8983-8967456c5303
f 70/217/55 69/218/55 71/219/55 72/220/55
f 75/221/56 73/222/56 74/223/56 76/224/56
f 73/225/57 69/226/57 70/227/57 74/228/57
f 72/229/58 71/230/58 75/231/58 76/232/58
f 71/233/59 69/234/59 73/235/59 75/236/59
f 74/237/60 70/238/60 72/239/60 76/240/60