# Made in Blockbench 4.10.4
mtllib MACThand.mtl

o cuboid
v 0.5 0.5 0.125
v 0.5 0.5 -0.125
v 0.5 -0.5 0.125
v 0.5 -0.5 -0.125
v -0.5 0.5 0.125
v -0.5 0.5 -0.125
v -0.5 -0.5 0.125
v -0.5 -0.5 -0.125
v 0.5 0.5 0.10250000000000001
v 0.5 0.5 -0.10250000000000001
v -0.41000000000000003 0.5 0.10250000000000001
v -0.41000000000000003 0.5 -0.10250000000000001
v 0.5 -0.5 0.10250000000000001
v 0.5 -0.5 -0.10250000000000001
v -0.41000000000000003 -0.5 0.10250000000000001
v -0.41000000000000003 -0.5 -0.10250000000000001
v 0.49375 0.49375 0.10250000000000001
v 0.49375 0.49375 -0.10250000000000001
v -0.41000000000000003 0.4875 0.10250000000000001
v -0.41000000000000003 0.4875 -0.10250000000000001
v 0.49375 -0.49375 0.10250000000000001
v 0.49375 -0.49375 -0.10250000000000001
v -0.41000000000000003 -0.4875 0.10250000000000001
v -0.41000000000000003 -0.4875 -0.10250000000000001
v 0.44 0.44 0.125
v -0.44 0.44 0.125
v 0.44 -0.44 0.125
v -0.44 -0.44 0.125
vt 1 0.5
vt 1 1
vt 0 1
vt 0 0.5
vt 1 1
vt 0 1
vt 0 0.5
vt 1 0.5
vt 1 -8.881784197001252e-16
vt 0.09000000000000002 -8.881784197001252e-16
vt 0 -0.022500000000000853
vt 1 -0.022500000000000853
vt 0.09000000000000002 0.9775
vt 1 0.9775
vt 1 1
vt 0 1
vt 0.09000000000000002 0.39749999999999996
vt 0.09000000000000002 0.6025
vt 0 0.625
vt 0 0.375
vt 0.022500000000000006 0
vt 0.022500000000000006 1
vt 0 1
vt 0 0
vt 1.0000000000000009 1
vt 1.0000000000000009 0
vt 1.0225000000000009 0
vt 1.0225000000000009 1
vt 0.09000000000000002 0.9775
vt 1 0.9775
vt 1 1
vt 0 1
vt 0.09000000000000002 0.39749999999999996
vt 0.09000000000000002 0.6025
vt 0 0.625
vt 0 0.375
vt 1 -8.881784197001252e-16
vt 0.09000000000000002 -8.881784197001252e-16
vt 0 -0.022500000000000853
vt 1 -0.022500000000000853
vt 0.006249999999999978 0.68125
vt 0.9099999999999999 0.675
vt 0.9099999999999999 0.6875
vt 0 0.6875
vt 0 0.800000298901336
vt 0.9037716110832427 0.8000002989013353
vt 0.9100646832822942 0.8062069278009494
vt 0.00008644329943752194 0.8125000000000016
vt 0 0.7375
vt 0.20499999999999996 0.7375
vt 0.20499999999999996 0.75
vt 0 0.75
vt 0.19374999999999998 0.006249999999999978
vt 0.19374999999999998 0.99375
vt 0.1875 1
vt 0.1875 0
vt 0.31250000000000144 0.99375
vt 0.31250000000000144 0.006249999999999978
vt 0.3187500000000014 0
vt 0.3187500000000014 1
vt 0.9100646832822942 0.8125000000000027
vt 0.006293072199051508 0.8125000000000023
vt 0 0.8062933711003883
vt 0.9099782399828565 0.800000298901337
vt 0.20499999999999996 0.7499999999999971
vt 0 0.7499999999999971
vt 0 0.7374999999999972
vt 0.20499999999999996 0.7374999999999972
vt 0.90375 0.6812499999999971
vt 0 0.6874999999999971
vt 0 0.6749999999999972
vt 0.9099999999999999 0.6749999999999972
vt 0.9375000000000022 0.94
vt 0.9375000000000022 0.06000000000000005
vt 0.9975000000000023 0
vt 0.9975000000000023 1
vt 0.06 0.94
vt 0.94 0.94
vt 1 1
vt 0 1
vt 0.06 0.06000000000000005
vt 0.06 0.94
vt 0 1
vt 0 0
vt 0.94 0.5624999999999978
vt 0.06 0.5624999999999978
vt 0 0.5024999999999977
vt 1 0.5024999999999977
vn -1 0 0
vn 0 0 -1
vn 0 1 0
vn 0 1 0
vn 0 1 0
vn 1 0 0
vn 1 0 0
vn 0 -1 0
vn 0 -1 0
vn 0 -1 0
vn 0 0 -1
vn 0 0 1
vn 1 0 0
vn 0 0 -1
vn 0 0 1
vn 0 0 -1
vn 1 0 0
vn 0 0 1
vn 0 0 1
vn 0 0 1
vn 0 0 1
vn 0 0 1
usemtl m_93353bce-f513-36bb-0ccc-1edc9216a8f5
f 7/1/1 5/2/1 6/3/1 8/4/1
f 6/5/2 2/6/2 4/7/2 8/8/2
f 9/9/3 11/10/3 5/11/3 1/12/3
f 12/13/4 10/14/4 2/15/4 6/16/4
f 11/17/5 12/18/5 6/19/5 5/20/5
f 13/21/6 9/22/6 1/23/6 3/24/6
f 10/25/7 14/26/7 4/27/7 2/28/7
f 15/29/8 13/30/8 3/31/8 7/32/8
f 16/33/9 15/34/9 7/35/9 8/36/9
f 14/37/10 16/38/10 8/39/10 4/40/10
f 17/41/11 19/42/11 11/43/11 9/44/11
f 20/45/12 18/46/12 10/47/12 12/48/12
f 19/49/13 20/50/13 12/51/13 11/52/13
f 21/53/14 17/54/14 9/55/14 13/56/14
f 18/57/15 22/58/15 14/59/15 10/60/15
f 23/61/16 21/62/16 13/63/16 15/64/16
f 24/65/17 23/66/17 15/67/17 16/68/17
f 22/69/18 24/70/18 16/71/18 14/72/18
f 25/73/19 27/74/19 3/75/19 1/76/19
f 26/77/20 25/78/20 1/79/20 5/80/20
f 28/81/21 26/82/21 5/83/21 7/84/21
f 27/85/22 28/86/22 7/87/22 3/88/22
o cuboid_selection
v 0.49375 0.49375 0.10250000000000001
v 0.49375 0.49375 -0.10250000000000001
v -0.41000000000000003 0.4875 0.10250000000000001
v -0.41000000000000003 0.4875 -0.10250000000000001
v 0.49375 -0.49375 0.10250000000000001
v 0.49375 -0.49375 -0.10250000000000001
v -0.41000000000000003 -0.4875 0.10250000000000001
v -0.41000000000000003 -0.4875 -0.10250000000000001
v 0.49375 0.49375 -0.07687490391268009
v 0.49375 -0.49375 -0.07687490391268009
v 0.49375 0.49375 -0.05124982155217164
v 0.49375 -0.49375 -0.05124982155217164
v 0.49375 0.49375 -0.025624755206268002
v 0.49375 -0.49375 -0.025624755206268002
v 0.49375 0.49375 2.9192212190609634e-7
v 0.49375 -0.49375 2.9192212190609634e-7
v 0.49375 0.49375 0.02562531502863767
v 0.49375 -0.49375 0.02562531502863767
v 0.49375 0.49375 0.05125030610601792
v 0.49375 -0.49375 0.05125030610601792
v 0.49375 0.49375 0.07687524913975495
v 0.49375 -0.49375 0.07687524913975495
v -0.41000000000000003 -0.4875 -0.07687490391268009
v -0.41000000000000003 -0.4875 -0.05124982155217164
v -0.41000000000000003 -0.4875 -0.025624755206268002
v -0.41000000000000003 -0.4875 2.9192212190609634e-7
v -0.41000000000000003 -0.4875 0.02562531502863767
v -0.41000000000000003 -0.4875 0.05125030610601792
v -0.41000000000000003 -0.4875 0.07687524913975495
v -0.41000000000000003 0.4875 -0.07687490391268009
v -0.41000000000000003 0.4875 -0.05124982155217164
v -0.41000000000000003 0.4875 -0.025624755206268002
v -0.41000000000000003 0.4875 2.9192212190609634e-7
v -0.41000000000000003 0.4875 0.02562531502863767
v -0.41000000000000003 0.4875 0.05125030610601792
v -0.41000000000000003 0.4875 0.07687524913975495
v 0.49685338917514066 -0.4968749252746664 0.05125030610601792
v 0.49685338917514066 0.4968749252746664 0.05125030610601792
v 0.49685338917514066 0.4968749252746664 0.07687524913975495
v 0.49685338917514066 -0.4968749252746664 0.07687524913975495
v -0.4100432216497188 0.4937498505493328 0.05125030610601792
v -0.4100432216497188 0.4937498505493328 0.07687524913975495
v -0.4100432216497188 -0.4937498505493328 0.07687524913975495
v -0.4100432216497188 -0.4937498505493328 0.05125030610601792
v -0.40995677835028127 0.4812501494506672 2.9192212190609634e-7
v -0.40995677835028127 0.4812501494506672 0.02562531502863767
v 0.4906466108248594 0.4906250747253336 0.02562531502863767
v 0.4906466108248594 0.4906250747253336 2.9192212190609634e-7
v 0.4906466108248594 -0.4906250747253336 0.02562531502863767
v 0.4906466108248594 -0.4906250747253336 2.9192212190609634e-7
v -0.40995677835028127 -0.4812501494506672 0.02562531502863767
v -0.40995677835028127 -0.4812501494506672 2.9192212190609634e-7
v -0.4099135567005625 0.4750002989013344 -0.07687490391268009
v -0.4099135567005625 0.4750002989013344 -0.05124982155217164
v 0.4875432216497188 0.4875001494506672 -0.05124982155217164
v 0.4875432216497188 0.4875001494506672 -0.07687490391268009
v 0.4875432216497188 -0.4875001494506672 -0.05124982155217164
v 0.4875432216497188 -0.4875001494506672 -0.07687490391268009
v -0.4099135567005625 -0.4750002989013344 -0.05124982155217164
v -0.4099135567005625 -0.4750002989013344 -0.07687490391268009
v 0.375 -0.125 0.14062500000000006
v 0.375 0.375 0.14062499999999994
v -0.375 -0.125 0.14062500000000006
v -0.375 0.375 0.14062499999999994
vt 0.18749999999999958 0.5
vt 0.20031237543012212 0.5
vt 0.20031237543012212 1
vt 0.18749999999999958 1
vt 0.45499999999999996 0.7100000000000004
vt 0.45499999999999996 0.722812375430123
vt 0 0.722812375430123
vt 0 0.7100000000000004
vt 0 0.8125000000000004
vt 0 0.7996876245698779
vt 0.45499999999999996 0.7996876245698779
vt 0.45499999999999996 0.8125000000000004
vt 0.2899999999999996 1
vt 0.27718745195633965 1
vt 0.27718745195633965 0.5
vt 0.2899999999999996 0.5
vt 0.26437491077608544 1
vt 0.2515623776031336 1
vt 0.2515623776031336 0.5
vt 0.26437491077608544 0.5
vt 0.2515623776031336 1
vt 0.23874985403893864 1
vt 0.23874985403893864 0.5
vt 0.2515623776031336 0.5
vt 0.22593734248568076 1
vt 0.21312484694699063 1
vt 0.21312484694699063 0.5
vt 0.22593734248568076 0.5
vt 0.45499999999999996 0.7100000000000004
vt 0.45499999999999996 0.7228125480436604
vt 0 0.7228125480436604
vt 0 0.7100000000000004
vt 0.45499999999999996 0.7356250892239146
vt 0.45499999999999996 0.7484376223968664
vt 0 0.7484376223968664
vt 0 0.7356250892239146
vt 0.45499999999999996 0.7484376223968664
vt 0.45499999999999996 0.7612501459610613
vt 0 0.7612501459610613
vt 0 0.7484376223968664
vt 0.45499999999999996 0.7740626575143192
vt 0.45499999999999996 0.7868751530530094
vt 0 0.7868751530530094
vt 0 0.7740626575143192
vt 0 0.8125000000000004
vt 0 0.7996874519563404
vt 0.45499999999999996 0.7996874519563404
vt 0.45499999999999996 0.8125000000000004
vt 0 0.7868749107760862
vt 0 0.7740623776031343
vt 0.45499999999999996 0.7740623776031343
vt 0.45499999999999996 0.7868749107760862
vt 0 0.7740623776031343
vt 0 0.7612498540389394
vt 0.45499999999999996 0.7612498540389394
vt 0.45499999999999996 0.7740623776031343
vt 0 0.7484373424856816
vt 0 0.7356248469469915
vt 0.45499999999999996 0.7356248469469915
vt 0.45499999999999996 0.7484373424856816
vt 0.09530312500000071 0.503125
vt 0.09530312500000071 1
vt 0.09375000000000072 0.9984375
vt 0.09375000000000072 0.5046875
vt 0.09375000000000022 1
vt 0.09375000000000022 0.503125
vt 0.09530312500000021 0.5046875
vt 0.09530312500000021 0.9984375
vt 0.012812500000000001 0.875
vt 0 0.875
vt 0 0.871875
vt 0.012812500000000001 0.871875
vt 0.4534526920266876 0.875000000000001
vt 0 0.8750000000000011
vt 0.000011106795347270992 0.8718749431757623
vt 0.45189419220977967 0.8734428610093123
vt 0.12812505682423964 0.5465473079733123
vt 0.12812505682423947 1
vt 0.1265679178335508 0.998441500183092
vt 0.12500000000000072 0.5465584147686596
vt 0.12499999999999883 1
vt 0.124999999999999 0.5465473079733123
vt 0.12655713899068766 0.5481058077902203
vt 0.12812505682423775 0.9999888932046528
vt 0 0.9031249999999993
vt 0.012812500000000001 0.9031249999999993
vt 0.012812500000000001 0.9062499999999993
vt 0 0.9062499999999993
vt 0 0.8718749431757605
vt 0.4534526920266876 0.8718749431757604
vt 0.45344158523134037 0.8749999999999992
vt 0.001558499816907949 0.8734320821664492
vt 0 0.8718750000000007
vt 0.0128125 0.8718750000000007
vt 0.0128125 0.8750000000000007
vt 0 0.8750000000000007
vt 0.1250000000000006 0.9984306948263432
vt 0.12500000000000056 0.5481062976899567
vt 0.12812505839792754 0.5481169525090837
vt 0.1265462486176424 1
vt 0 0.8718749416020734
vt 0.4503243971363866 0.8718749416020734
vt 0.45189370231004333 0.8734211902197152
vt 0.000010654819127070558 0.8750000000000004
vt 0.0953031249999993 0.5078125
vt 0.0953031249999993 0.9984375
vt 0.09374999999999928 1
vt 0.09374999999999928 0.50625
vt 0.12500000000000167 0.9984375
vt 0.12500000000000167 0.5078125
vt 0.12655312500000165 0.50625
vt 0.12655312500000165 1
vt 0.45189370231004333 0.8749999999999994
vt 0.0015693051736567765 0.8749999999999994
vt 0 0.8734537513823576
vt 0.45188304749091623 0.8718749416020724
vt 0.0128125 0.8749999999999986
vt 0 0.8749999999999986
vt 0 0.8718749999999986
vt 0.0128125 0.8718749999999986
vt 0.0968750583979266 0.5496756028636135
vt 0.09687505839792668 1
vt 0.09374999999999967 0.9999893451808729
vt 0.0953288097802848 0.5481062976899567
vt 0 0.9000000000000007
vt 0.012812500000000001 0.9000000000000007
vt 0.012812500000000001 0.9062500000000007
vt 0 0.9062500000000007
vt 0.12500000000000044 0.9968536543762978
vt 0.12500000000000044 0.5480820056884428
vt 0.1312500031518281 0.5481253030861017
vt 0.12808147999861075 1
vt 0 0.8999999968481736
vt 0.448771648687855 0.8999999968481736
vt 0.4519179943115572 0.9030814768467839
vt 0.00004329739765887575 0.9062500000000012
vt 0.1281031249999993 0.5093749999999999
vt 0.1281031249999993 0.996875
vt 0.12499999999999928 1
vt 0.12499999999999928 0.50625
vt 0.1562499999999998 0.996875
vt 0.1562499999999998 0.5093749999999999
vt 0.15935312499999982 0.50625
vt 0.15935312499999982 1
vt 0.45191799431155716 0.8749999999999996
vt 0.0031463456237021126 0.8749999999999996
vt 0 0.8719185200013893
vt 0.4518746969138983 0.8687499968481719
vt 0.012812500000000001 0.8437500000000014
vt 0 0.8437500000000014
vt 0 0.8375000000000015
vt 0.012812500000000001 0.8375000000000015
vt 0.10000000315182644 0.551228351312145
vt 0.10000000315182647 1
vt 0.09374999999999878 0.9999567026023412
vt 0.09691852315321614 0.5480820056884428
vt 0.5 0.5
vt 0.5 1
vt 0 1
vt 0 0.5
vn 1 0 0
vn -0.006915463955001759 0.9999760878932491 0
vn -0.006915463955001759 -0.9999760878932491 0
vn 1 0 0
vn 1 0 0
vn 1 0 0
vn 1 0 0
vn -0.00691546395500176 -0.9999760878932492 0
vn -0.006915463955001759 -0.9999760878932491 0
vn -0.006915463955001761 -0.9999760878932492 0
vn -0.006915463955001758 -0.9999760878932491 0
vn -0.00691546395500176 0.9999760878932492 0
vn -0.006915463955001759 0.9999760878932491 0
vn -0.006915463955001761 0.9999760878932492 0
vn -0.006915463955001758 0.9999760878932491 0
vn 0 0 1
vn 0 0 -1
vn -0.9999760878932492 -0.006915463955001759 0
vn 0 0 1
vn 0 0 -1
vn 0 0 1
vn -0.9999760878932492 0.006915463955001759 0
vn 0 0 -1
vn 0.9999760878932491 0.006915463955001759 0
vn 0 0 -1
vn 0 0 1
vn 0 0 -1
vn 0 0 1
vn 0 0 -1
vn 0.9999760878932491 -0.006915463955001759 0
vn 0 0 1
vn 0.9999760878932491 0.00691546395500176 0
vn 0 0 -1
vn 0 0 1
vn 0 0 -1
vn 0 0 1
vn 0 0 -1
vn 0.9999760878932491 -0.00691546395500176 0
vn 0 0 1
vn 0 2.220446049250313e-16 1
usemtl m_4ad70368-d7dd-3d4b-db99-36e821d402c3
f 33/89/23 50/90/23 49/91/23 29/92/23
f 29/93/24 49/94/24 64/95/24 31/96/24
f 35/97/25 57/98/25 50/99/25 33/100/25
f 30/101/26 37/102/26 38/103/26 34/104/26
f 39/105/27 41/106/27 42/107/27 40/108/27
f 41/109/28 43/110/28 44/111/28 42/112/28
f 45/113/29 47/114/29 48/115/29 46/116/29
f 34/117/30 38/118/30 51/119/30 36/120/30
f 40/121/31 42/122/31 53/123/31 52/124/31
f 42/125/32 44/126/32 54/127/32 53/128/32
f 46/129/33 48/130/33 56/131/33 55/132/33
f 32/133/34 58/134/34 37/135/34 30/136/34
f 59/137/35 60/138/35 41/139/35 39/140/35
f 60/141/36 61/142/36 43/143/36 41/144/36
f 62/145/37 63/146/37 47/147/37 45/148/37
f 68/149/38 67/150/38 49/151/38 50/152/38
f 66/153/39 65/154/39 48/155/39 47/156/39
f 70/157/40 69/158/40 63/159/40 64/160/40
f 67/161/41 70/162/41 64/163/41 49/164/41
f 69/165/42 66/166/42 47/167/42 63/168/42
f 71/169/43 68/170/43 50/171/43 57/172/43
f 72/173/44 71/174/44 57/175/44 56/176/44
f 65/177/45 72/178/45 56/179/45 48/180/45
f 74/181/46 73/182/46 61/183/46 62/184/46
f 75/185/47 74/186/47 62/187/47 45/188/47
f 73/189/48 76/190/48 43/191/48 61/192/48
f 77/193/49 75/194/49 45/195/49 46/196/49
f 76/197/50 78/198/50 44/199/50 43/200/50
f 79/201/51 77/202/51 46/203/51 55/204/51
f 80/205/52 79/206/52 55/207/52 54/208/52
f 78/209/53 80/210/53 54/211/53 44/212/53
f 82/213/54 81/214/54 58/215/54 59/216/54
f 83/217/55 82/218/55 59/219/55 39/220/55
f 81/221/56 84/222/56 37/223/56 58/224/56
f 85/225/57 83/226/57 39/227/57 40/228/57
f 84/229/58 86/230/58 38/231/58 37/232/58
f 87/233/59 85/234/59 40/235/59 52/236/59
f 88/237/60 87/238/60 52/239/60 51/240/60
f 86/241/61 88/242/61 51/243/61 38/244/61
f 89/245/62 90/246/62 92/247/62 91/248/62
o cuboid_selection
v 0.44 0.44 0.125
v -0.44 0.44 0.125
v 0.44 -0.44 0.125
v -0.44 -0.44 0.125
v 0.49685338917514066 -0.4968749252746664 0.05125030610601792
v 0.49685338917514066 0.4968749252746664 0.05125030610601792
v 0.49685338917514066 0.4968749252746664 0.07687524913975495
v 0.49685338917514066 -0.4968749252746664 0.07687524913975495
v -0.4100432216497188 0.4937498505493328 0.05125030610601792
v -0.4100432216497188 0.4937498505493328 0.07687524913975495
v -0.4100432216497188 -0.4937498505493328 0.07687524913975495
v -0.4100432216497188 -0.4937498505493328 0.05125030610601792
v -0.40995677835028127 0.4812501494506672 2.9192212190609634e-7
v -0.40995677835028127 0.4812501494506672 0.02562531502863767
v 0.4906466108248594 0.4906250747253336 0.02562531502863767
v 0.4906466108248594 0.4906250747253336 2.9192212190609634e-7
v 0.4906466108248594 -0.4906250747253336 0.02562531502863767
v 0.4906466108248594 -0.4906250747253336 2.9192212190609634e-7
v -0.40995677835028127 -0.4812501494506672 0.02562531502863767
v -0.40995677835028127 -0.4812501494506672 2.9192212190609634e-7
v -0.4099135567005625 0.4750002989013344 -0.07687490391268009
v -0.4099135567005625 0.4750002989013344 -0.05124982155217164
v 0.4875432216497188 0.4875001494506672 -0.05124982155217164
v 0.4875432216497188 0.4875001494506672 -0.07687490391268009
v 0.4875432216497188 -0.4875001494506672 -0.05124982155217164
v 0.4875432216497188 -0.4875001494506672 -0.07687490391268009
v -0.4099135567005625 -0.4750002989013344 -0.05124982155217164
v -0.4099135567005625 -0.4750002989013344 -0.07687490391268009
vt 0.9424999999999977 0.1200000000000001
vt 0.9424999999999977 1
vt 0.062499999999997724 1
vt 0.062499999999997724 0.1200000000000001
vt 0.42624969389398126 1
vt 0.40062475086024424 1
vt 0.40062475086024424 0
vt 0.42624969389398126 0
vt 0.9099999999999999 0.5737503061060187
vt 0.9099999999999999 0.5993752491397557
vt 0 0.5993752491397557
vt 0 0.5737503061060187
vt 0 0.47124969389398286
vt 0 0.4456247508602459
vt 0.9099999999999999 0.4456247508602459
vt 0.9099999999999999 0.47124969389398286
vt 0.5543749039126793 1
vt 0.5287498215521709 1
vt 0.5287498215521709 0
vt 0.5543749039126793 0
vt 0.4774997080778773 1
vt 0.4518746849713615 1
vt 0.4518746849713615 0
vt 0.4774997080778773 0
vt 0.9099999999999999 0.4456250960873207
vt 0.9099999999999999 0.4712501784478291
vt 0 0.4712501784478291
vt 0 0.4456250960873207
vt 0.9099999999999999 0.5225002919221227
vt 0.9099999999999999 0.5481253150286385
vt 0 0.5481253150286385
vt 0 0.5225002919221227
vt 0 0.5993749039126809
vt 0 0.5737498215521725
vt 0.9099999999999999 0.5737498215521725
vt 0.9099999999999999 0.5993749039126809
vt 0 0.5224997080778788
vt 0 0.4968746849713631
vt 0.9099999999999999 0.4968746849713631
vt 0.9099999999999999 0.5224997080778788
vn 0 0 1
vn 1 0 0
vn -0.0034458792041764143 -0.9999940629406308 0
vn -0.0034458792041764143 0.9999940629406308 0
vn 1 0 0
vn 1 0 0
vn -0.013926730061256314 -0.9999030183921844 0
vn -0.010409040756204675 -0.9999458244677738 0
vn -0.013926730061256314 0.9999030183921844 0
vn -0.010409040756204675 0.9999458244677738 0
usemtl m_f469edc8-d471-c320-190b-a183f0220446
f 95/249/63 93/250/63 94/251/63 96/252/63
f 98/253/64 99/254/64 100/255/64 97/256/64
f 97/257/65 100/258/65 103/259/65 104/260/65
f 101/261/66 102/262/66 99/263/66 98/264/66
f 116/265/67 115/266/67 117/267/67 118/268/67
f 108/269/68 107/270/68 109/271/68 110/272/68
f 118/273/69 117/274/69 119/275/69 120/276/69
f 110/277/70 109/278/70 111/279/70 112/280/70
f 113/281/71 114/282/71 115/283/71 116/284/71
f 105/285/72 106/286/72 107/287/72 108/288/72
o plane
v 0.1875 -0.03125 0.15625000000000003
v 0.1875 0.28125 0.15624999999999997
v 0.09375 -0.03125 0.15625000000000003
v 0.09375 0.28125 0.15624999999999997
v -0.09375 -0.03125 0.15625000000000003
v -0.09375 0.21875 0.15624999999999997
v -0.1875 -0.03125 0.15625000000000003
v -0.1875 0.21875 0.15624999999999997
v 0.046875 -0.03125 0.15625
v 0.046875 0.0625 0.15625
v -0.046875 -0.03125 0.15625
v -0.046875 0.0625 0.15625
vt 1 0
vt 1 1
vt 0 1
vt 0 0
vt 1 0
vt 1 1
vt 0 1
vt 0 0
vt 1 0
vt 1 1
vt 0 1
vt 0 0
vn 0 2.220446049250313e-16 1
vn 0 2.220446049250313e-16 1
vn 0 2.220446049250313e-16 1
usemtl m_f5af9ebe-adb4-12e4-2c44-09d788a79a1c
f 121/289/73 122/290/73 124/291/73 123/292/73
f 125/293/74 126/294/74 128/295/74 127/296/74
f 129/297/75 130/298/75 132/299/75 131/300/75