# Made in Blockbench 4.10.3
mtllib MACT.mtl

o beveled_cuboid
v 0.375 0.3125 0.375
v 0.375 0.3125 -0.375
v -0.375 0.3125 0.375
v -0.375 0.3125 -0.375
v 0.375 -0.5 0.375
v 0.375 -0.5 -0.375
v -0.375 -0.5 0.375
v -0.375 -0.5 -0.375
v -0.5 -0.375 0.375
v -0.5 0.375 0.375
v -0.5 -0.375 -0.375
v -0.5 0.375 -0.375
v 0.5 -0.375 0.375
v 0.5 0.375 0.375
v 0.5 -0.375 -0.375
v 0.5 0.375 -0.375
v 0.375 -0.375 -0.5
v 0.375 0.375 -0.5
v -0.375 -0.375 -0.5
v -0.375 0.375 -0.5
v 0.375 -0.375 0.5
v 0.375 0.375 0.5
v -0.375 -0.375 0.5
v -0.375 0.375 0.5
v -0.1875 0.375 0.1875
v -0.1875 0.375 -0.1875
v -0.46875 0.421875 0.1875
v -0.46875 0.421875 -0.1875
v 0.1875 0.375 0.1875
v 0.1875 0.421875 0.46875
v -0.1875 0.421875 0.46875
v 0.1875 0.375 -0.1875
v 0.46875 0.421875 0.1875
v 0.46875 0.421875 -0.1875
v 0.1875 0.421875 -0.46875
v -0.1875 0.421875 -0.46875
v 0.1875 0.1875 -0.5
v 0.1875 -0.375 -0.5
v -0.1875 0.1875 -0.5
v -0.1875 -0.375 -0.5
v 0.1875 -0.46875 -0.40625
v -0.1875 -0.46875 -0.40625
v 0.1875 0.1875 -0.4375
v 0.1875 -0.3529029130879204 -0.4466529130879204
v -0.1875 0.1875 -0.4375
v -0.1875 -0.3529029130879204 -0.4466529130879204
v 0.1875 -0.42455582617584076 -0.36205582617584076
v -0.1875 -0.42455582617584076 -0.36205582617584076
v -0.5 -0.375 0.1875
v -0.5 0.1875 0.1875
v -0.5 0.1875 -0.1875
v -0.5 -0.375 -0.1875
v -0.40625 -0.46875 -0.1875
v -0.40625 -0.46875 0.1875
v -0.4466529130879204 -0.3529029130879204 0.1875
v -0.4375 0.1875 0.1875
v -0.4375 0.1875 -0.1875
v -0.4466529130879204 -0.3529029130879204 -0.1875
v -0.36205582617584076 -0.42455582617584076 -0.1875
v -0.36205582617584076 -0.42455582617584076 0.1875
v 0.1875 -0.375 0.5
v 0.1875 0.1875 0.5
v -0.1875 0.1875 0.5
v -0.1875 -0.375 0.5
v -0.1875 -0.46875 0.40625
v 0.1875 -0.46875 0.40625
v 0.1875 -0.3529029130879204 0.4466529130879204
v 0.1875 0.1875 0.4375
v -0.1875 0.1875 0.4375
v -0.1875 -0.3529029130879204 0.4466529130879204
v -0.1875 -0.42455582617584076 0.36205582617584076
v 0.1875 -0.42455582617584076 0.36205582617584076
v 0.5 0.1875 0.1875
v 0.5 -0.375 0.1875
v 0.5 0.1875 -0.1875
v 0.5 -0.375 -0.1875
v 0.40625 -0.46875 0.1875
v 0.40625 -0.46875 -0.1875
v 0.4375 0.1875 0.1875
v 0.4466529130879204 -0.3529029130879204 0.1875
v 0.4375 0.1875 -0.1875
v 0.4466529130879204 -0.3529029130879204 -0.1875
v 0.36205582617584076 -0.42455582617584076 0.1875
v 0.36205582617584076 -0.42455582617584076 -0.1875
vt 0 0.25
vt 0.75 0.25
vt 0.75 1
vt 0 1
vt 0.5625000000000007 0.8122148179214483
vt 0.8476336299932461 0.8122148179214482
vt 0.8810224813021061 1
vt 0.7474481794992032 0.9977457420030031
vt 0.19887499999999997 0.9999999999999967
vt 0 0.7956749999999967
vt 0.26516875 0.7956749999999967
vt 0.35355624999999996 0.8960437499999967
vt 0.1875 0.7775625000000029
vt 0.5625 0.7775625000000029
vt 0.75 0.8125000000000029
vt 0 0.8125000000000029
vt 0.5625000000000007 0.8122148179214483
vt 0.8476336299932461 0.8122148179214482
vt 0.8810224813021061 1
vt 0.7474481794992032 0.9977457420030031
vt 0.19887499999999997 0.9999999999999967
vt 0 0.7956749999999967
vt 0.26516875 0.7956749999999967
vt 0.35355624999999996 0.8960437499999967
vt 0.1875 0.7775625000000029
vt 0.5625 0.7775625000000029
vt 0.75 0.8125000000000029
vt 0 0.8125000000000029
vt 0.19887499999999997 0.9999999999999967
vt 0 0.7956749999999967
vt 0.26516875 0.7956749999999967
vt 0.35355624999999996 0.8960437499999967
vt 0.1875 0.7775625000000029
vt 0.5625 0.7775625000000029
vt 0.75 0.8125000000000029
vt 0 0.8125000000000029
vt 0.5625000000000007 0.8122148179214483
vt 0.8476336299932461 0.8122148179214482
vt 0.8810224813021061 1
vt 0.7474481794992032 0.9977457420030031
vt 0.19887499999999997 0.9999999999999967
vt 0 0.7956749999999967
vt 0.26516875 0.7956749999999967
vt 0.35355624999999996 0.8960437499999967
vt 0.1875 0.7775625000000029
vt 0.5625 0.7775625000000029
vt 0.75 0.8125000000000029
vt 0 0.8125000000000029
vt 0.5625000000000007 0.8122148179214483
vt 0.8476336299932461 0.8122148179214482
vt 0.8810224813021061 1
vt 0.7474481794992032 0.9977457420030031
vt 0.1875 0.8125
vt 0.5625 0.8125
vt 0.75 1
vt 0 1
vt 0.1875 0.25
vt 0.1875 0.8125
vt 0 1
vt 0 0.25
vt 0.6875 0.8125
vt 0.6875 0.25
vt 0.875 0.25
vt 0.875 1
vt 0.1875 0.8674124999999999
vt 0.1875 1
vt 0 1
vt 0 0.8232187499999999
vt 0.5625 0.8749999999999996
vt 0.1875 0.8749999999999996
vt 0 0.8308062499999995
vt 0.75 0.8308062499999995
vt 0.6875 1
vt 0.6875 0.8674124999999999
vt 0.875 0.8232187499999999
vt 0.875 1
vt 0.375 0.9375
vt 0 0.9375
vt 0 0.875
vt 0.375 0.875
vt 0.11585000000000001 0.4596
vt 0.125 1
vt 0.0625 1
vt 0.0625 0.4375
vt 0.24999999999999878 1
vt 0.24999999999999883 0.45952254209819254
vt 0.30296821279306796 0.4365225218045461
vt 0.31249104288478113 0.9989419077675874
vt 0.12499940062212808 0.8674174785275224
vt 0.11585120664052712 0.9779029130879204
vt 0.06250000000000211 1
vt 0.06250000000000211 0.8674174785275224
vt 0.375 1
vt 0 1
vt 0 0.9375
vt 0.375 0.9375
vt 0.36048543456039556 0.9908518060183972
vt 0.24999999999999756 0.9999999999999981
vt 0.24999999999999756 0.9375005993778722
vt 0.3825825214724752 0.9375005993778722
vt 0.6875 0.8125
vt 0.6875 0.25
vt 0.875 0.25
vt 0.875 1
vt 0.1875 0.8125
vt 0.5625 0.8125
vt 0.75 1
vt 0 1
vt 0.1875 0.25
vt 0.1875 0.8125
vt 0 1
vt 0 0.25
vt 0.5625 0.8749999999999996
vt 0.1875 0.8749999999999996
vt 0 0.8308062499999995
vt 0.75 0.8308062499999995
vt 0.6875 1
vt 0.6875 0.8674124999999999
vt 0.875 0.8232187499999999
vt 0.875 1
vt 0.1875 0.8674124999999999
vt 0.1875 1
vt 0 1
vt 0 0.8232187499999999
vt 0.24999999999999878 1
vt 0.24999999999999883 0.45952254209819254
vt 0.30296821279306796 0.4365225218045461
vt 0.31249104288478113 0.9989419077675874
vt 0.25 0.625
vt 0.25 1
vt 0.1875 1
vt 0.1875 0.625
vt 0.11585000000000001 0.4596
vt 0.125 1
vt 0.0625 1
vt 0.0625 0.4375
vt 0.375 1
vt 0 1
vt 0 0.9375
vt 0.375 0.9375
vt 0.36048543456039556 0.9908518060183972
vt 0.24999999999999756 0.9999999999999981
vt 0.24999999999999756 0.9375005993778722
vt 0.3825825214724752 0.9375005993778722
vt 0.12499940062212808 0.8674174785275224
vt 0.11585120664052712 0.9779029130879204
vt 0.06250000000000211 1
vt 0.06250000000000211 0.8674174785275224
vt 0.6875 0.8125
vt 0.6875 0.25
vt 0.875 0.25
vt 0.875 1
vt 0.1875 0.8125
vt 0.5625 0.8125
vt 0.75 1
vt 0 1
vt 0.1875 0.25
vt 0.1875 0.8125
vt 0 1
vt 0 0.25
vt 0.5625 0.8749999999999996
vt 0.1875 0.8749999999999996
vt 0 0.8308062499999995
vt 0.75 0.8308062499999995
vt 0.6875 1
vt 0.6875 0.8674124999999999
vt 0.875 0.8232187499999999
vt 0.875 1
vt 0.1875 0.8674124999999999
vt 0.1875 1
vt 0 1
vt 0 0.8232187499999999
vt 0.24999999999999878 1
vt 0.24999999999999883 0.45952254209819254
vt 0.30296821279306796 0.4365225218045461
vt 0.31249104288478113 0.9989419077675874
vt 0 0.875
vt 0.375 0.875
vt 0.375 0.9375
vt 0 0.9375
vt 0.11585000000000001 0.4596
vt 0.125 1
vt 0.0625 1
vt 0.0625 0.4375
vt 0.375 1
vt 0 1
vt 0 0.9375
vt 0.375 0.9375
vt 0.36048543456039556 0.9908518060183972
vt 0.24999999999999756 0.9999999999999981
vt 0.24999999999999756 0.9375005993778722
vt 0.3825825214724752 0.9375005993778722
vt 0.12499940062212808 0.8674174785275224
vt 0.11585120664052712 0.9779029130879204
vt 0.06250000000000211 1
vt 0.06250000000000211 0.8674174785275224
vt 0.1875 0.8125
vt 0.5625 0.8125
vt 0.75 1
vt 0 1
vt 0.1875 0.25
vt 0.1875 0.8125
vt 0 1
vt 0 0.25
vt 0.6875 0.8125
vt 0.6875 0.25
vt 0.875 0.25
vt 0.875 1
vt 0.1875 0.8674124999999999
vt 0.1875 1
vt 0 1
vt 0 0.8232187499999999
vt 0.5625 0.8749999999999996
vt 0.1875 0.8749999999999996
vt 0 0.8308062499999995
vt 0.75 0.8308062499999995
vt 0.6875 1
vt 0.6875 0.8674124999999999
vt 0.875 0.8232187499999999
vt 0.875 1
vt 0.1875 1
vt 0.1875 0.625
vt 0.25 0.625
vt 0.25 1
vt 0.11585000000000001 0.4596
vt 0.125 1
vt 0.0625 1
vt 0.0625 0.4375
vt 0.24999999999999878 1
vt 0.24999999999999883 0.45952254209819254
vt 0.30296821279306796 0.4365225218045461
vt 0.31249104288478113 0.9989419077675874
vt 0.12499940062212808 0.8674174785275224
vt 0.11585120664052712 0.9779029130879204
vt 0.06250000000000211 1
vt 0.06250000000000211 0.8674174785275224
vt 0.375 1
vt 0 1
vt 0 0.9375
vt 0.375 0.9375
vt 0.36048543456039556 0.9908518060183972
vt 0.24999999999999756 0.9999999999999981
vt 0.24999999999999756 0.9375005993778722
vt 0.3825825214724752 0.9375005993778722
vn 0 -1 0
vn 0.15855492677450703 0.9513295606470421 0.26425821129084504
vn 0.14744195615489714 0.8846517369293828 -0.4423258684646914
vn -0.8320502943378438 0.5547001962252291 0
vn 0.26425821129084504 0.9513295606470421 -0.15855492677450703
vn -0.4423258684646914 0.8846517369293828 -0.14744195615489714
vn 0 0.5547001962252291 0.8320502943378438
vn -0.14744195615489714 0.8846517369293828 0.4423258684646914
vn 0.8320502943378438 0.5547001962252291 0
vn -0.15855492677450703 0.9513295606470421 -0.26425821129084504
vn 0.4423258684646914 0.8846517369293828 0.14744195615489714
vn 0 0.5547001962252291 -0.8320502943378438
vn -0.26425821129084504 0.9513295606470421 0.15855492677450703
vn 0 0 -1
vn 0 0 -1
vn 0 0 -1
vn 0 -0.7071067811865476 -0.7071067811865476
vn 0 -0.7071067811865476 -0.7071067811865476
vn 0 -0.7071067811865476 -0.7071067811865476
vn 0 -1 0
vn -1 0 0
vn 1 0 0
vn -1 0 0
vn 0 0.7071067811865478 -0.7071067811865474
vn 1 0 0
vn -1 0 0
vn -1 0 0
vn -1 0 0
vn -0.7071067811865476 -0.7071067811865476 0
vn -0.7071067811865476 -0.7071067811865476 0
vn -0.7071067811865476 -0.7071067811865476 0
vn 0 0 -1
vn 0 -1 0
vn 0 0 1
vn -0.7071067811865474 0.7071067811865478 0
vn 0 0 -1
vn 0 0 1
vn 0 0 1
vn 0 0 1
vn 0 0 1
vn 0 -0.7071067811865476 0.7071067811865476
vn 0 -0.7071067811865476 0.7071067811865476
vn 0 -0.7071067811865476 0.7071067811865476
vn -1 0 0
vn 0 -1 0
vn 1 0 0
vn 0 0.7071067811865478 0.7071067811865474
vn -1 0 0
vn 1 0 0
vn 1 0 0
vn 1 0 0
vn 1 0 0
vn 0.7071067811865476 -0.7071067811865476 0
vn 0.7071067811865476 -0.7071067811865476 0
vn 0.7071067811865476 -0.7071067811865476 0
vn 0 -1 0
vn 0 0 -1
vn 0 0 1
vn 0 0 -1
vn 0.7071067811865474 0.7071067811865478 0
vn 0 0 1
usemtl m_180da6c7-70ce-38ec-356b-a4d21e400143
f 8/1/1 6/2/1 5/3/1 7/4/1
f 25/5/2 27/6/2 10/7/2 3/8/2
f 28/9/3 26/10/3 4/11/3 12/12/3
f 27/13/4 28/14/4 12/15/4 10/16/4
f 29/17/5 30/18/5 22/19/5 1/20/5
f 31/21/6 25/22/6 3/23/6 24/24/6
f 30/25/7 31/26/7 24/27/7 22/28/7
f 33/29/8 29/30/8 1/31/8 14/32/8
f 34/33/9 33/34/9 14/35/9 16/36/9
f 32/37/10 34/38/10 16/39/10 2/40/10
f 35/41/11 32/42/11 2/43/11 18/44/11
f 36/45/12 35/46/12 18/47/12 20/48/12
f 26/49/13 36/50/13 20/51/13 4/52/13
f 37/53/14 39/54/14 20/55/14 18/56/14
f 38/57/15 37/58/15 18/59/15 17/60/15
f 39/61/16 40/62/16 19/63/16 20/64/16
f 41/65/17 38/66/17 17/67/17 6/68/17
f 42/69/18 41/70/18 6/71/18 8/72/18
f 40/73/19 42/74/19 8/75/19 19/76/19
f 43/77/20 45/78/20 39/79/20 37/80/20
f 44/81/21 43/82/21 37/83/21 38/84/21
f 45/85/22 46/86/22 40/87/22 39/88/22
f 47/89/23 44/90/23 38/91/23 41/92/23
f 48/93/24 47/94/24 41/95/24 42/96/24
f 46/97/25 48/98/25 42/99/25 40/100/25
f 50/101/26 49/102/26 9/103/26 10/104/26
f 51/105/27 50/106/27 10/107/27 12/108/27
f 52/109/28 51/110/28 12/111/28 11/112/28
f 54/113/29 53/114/29 8/115/29 7/116/29
f 49/117/30 54/118/30 7/119/30 9/120/30
f 53/121/31 52/122/31 11/123/31 8/124/31
f 56/125/32 55/126/32 49/127/32 50/128/32
f 57/129/33 56/130/33 50/131/33 51/132/33
f 58/133/34 57/134/34 51/135/34 52/136/34
f 60/137/35 59/138/35 53/139/35 54/140/35
f 55/141/36 60/142/36 54/143/36 49/144/36
f 59/145/37 58/146/37 52/147/37 53/148/37
f 62/149/38 61/150/38 21/151/38 22/152/38
f 63/153/39 62/154/39 22/155/39 24/156/39
f 64/157/40 63/158/40 24/159/40 23/160/40
f 66/161/41 65/162/41 7/163/41 5/164/41
f 61/165/42 66/166/42 5/167/42 21/168/42
f 65/169/43 64/170/43 23/171/43 7/172/43
f 68/173/44 67/174/44 61/175/44 62/176/44
f 69/177/45 68/178/45 62/179/45 63/180/45
f 70/181/46 69/182/46 63/183/46 64/184/46
f 72/185/47 71/186/47 65/187/47 66/188/47
f 67/189/48 72/190/48 66/191/48 61/192/48
f 71/193/49 70/194/49 64/195/49 65/196/49
f 73/197/50 75/198/50 16/199/50 14/200/50
f 74/201/51 73/202/51 14/203/51 13/204/51
f 75/205/52 76/206/52 15/207/52 16/208/52
f 77/209/53 74/210/53 13/211/53 5/212/53
f 78/213/54 77/214/54 5/215/54 6/216/54
f 76/217/55 78/218/55 6/219/55 15/220/55
f 79/221/56 81/222/56 75/223/56 73/224/56
f 80/225/57 79/226/57 73/227/57 74/228/57
f 81/229/58 82/230/58 76/231/58 75/232/58
f 83/233/59 80/234/59 74/235/59 77/236/59
f 84/237/60 83/238/60 77/239/60 78/240/60
f 82/241/61 84/242/61 78/243/61 76/244/61
o beveled_cuboid_selection
v 0.1875 -0.42455582617584076 0.36205582617584076
v -0.1875 0.375 0.1875
v -0.1875 0.375 -0.1875
v -0.46875 0.421875 0.1875
v -0.46875 0.421875 -0.1875
v 0.1875 0.375 0.1875
v 0.1875 0.421875 0.46875
v -0.1875 0.421875 0.46875
v 0.1875 0.375 -0.1875
v 0.46875 0.421875 0.1875
v 0.46875 0.421875 -0.1875
v 0.1875 0.421875 -0.46875
v -0.1875 0.421875 -0.46875
v -0.1338882618181622 0.3744330801596727 -0.1338882618181622
v 0.1338882618181622 0.3744330801596727 -0.1338882618181622
v 0.13637944432214308 0.5460246202395089 -0.33347506329341514
v -0.13637944432214308 0.5460246202395089 -0.33347506329341514
v -0.1338882618181622 0.3744330801596727 0.1338882618181622
v -0.33347506329341514 0.5460246202395089 0.13637944432214308
v -0.33347506329341514 0.5460246202395089 -0.13637944432214308
v 0.1338882618181622 0.3744330801596727 0.1338882618181622
v 0.13637944432214308 0.5460246202395089 0.33347506329341514
v -0.13637944432214308 0.5460246202395089 0.33347506329341514
v 0.33347506329341514 0.5460246202395089 0.13637944432214308
v 0.33347506329341514 0.5460246202395089 -0.13637944432214308
v 0.375 0.3125 0.375
v 0.375 0.3125 -0.375
v -0.375 0.3125 0.375
v -0.375 0.3125 -0.375
v 0.375 -0.5 0.375
v 0.375 -0.5 -0.375
v -0.375 -0.5 0.375
v -0.375 -0.5 -0.375
v -0.5 -0.375 0.375
v -0.5 0.375 0.375
v -0.5 -0.375 -0.375
v -0.5 0.375 -0.375
v 0.5 -0.375 0.375
v 0.5 0.375 0.375
v 0.5 -0.375 -0.375
v 0.5 0.375 -0.375
v 0.375 -0.375 -0.5
v 0.375 0.375 -0.5
v -0.375 -0.375 -0.5
v -0.375 0.375 -0.5
v 0.375 -0.375 0.5
v 0.375 0.375 0.5
v -0.375 -0.375 0.5
v -0.375 0.375 0.5
v 0.1875 0.1875 -0.4375
v 0.1875 -0.3529029130879204 -0.4466529130879204
v -0.1875 0.1875 -0.4375
v -0.1875 -0.3529029130879204 -0.4466529130879204
v 0.1875 -0.42455582617584076 -0.36205582617584076
v -0.1875 -0.42455582617584076 -0.36205582617584076
v -0.4466529130879204 -0.3529029130879204 0.1875
v -0.4375 0.1875 0.1875
v -0.4375 0.1875 -0.1875
v -0.4466529130879204 -0.3529029130879204 -0.1875
v -0.36205582617584076 -0.42455582617584076 -0.1875
v -0.36205582617584076 -0.42455582617584076 0.1875
v 0.1875 -0.3529029130879204 0.4466529130879204
v 0.1875 0.1875 0.4375
v -0.1875 0.1875 0.4375
v -0.1875 -0.3529029130879204 0.4466529130879204
v -0.1875 -0.42455582617584076 0.36205582617584076
v 0.4375 0.1875 0.1875
v 0.4466529130879204 -0.3529029130879204 0.1875
v 0.4375 0.1875 -0.1875
v 0.4466529130879204 -0.3529029130879204 -0.1875
v 0.36205582617584076 -0.42455582617584076 0.1875
v 0.36205582617584076 -0.42455582617584076 -0.1875
v 0.09375 -0.09280218481594027 0.44436468481594027
v 0.09375 0.05239927172801995 0.4397882282719801
v -0.09375 0.05239927172801995 0.4397882282719801
v -0.09375 -0.09280218481594027 0.44436468481594027
v 0.4397882282719801 0.05239927172801995 0.09375
v 0.44436468481594027 -0.09280218481594027 0.09375
v 0.4397882282719801 0.05239927172801995 -0.09375
v 0.44436468481594027 -0.09280218481594027 -0.09375
v 0.09375 0.05239927172801995 -0.4397882282719801
v 0.09375 -0.09280218481594027 -0.44436468481594027
v -0.09375 0.05239927172801995 -0.4397882282719801
v -0.09375 -0.09280218481594027 -0.44436468481594027
v -0.44436468481594027 -0.09280218481594027 0.09375
v -0.4397882282719801 0.05239927172801995 0.09375
v -0.4397882282719801 0.05239927172801995 -0.09375
v -0.44436468481594027 -0.09280218481594027 -0.09375
vt 0.5625 0.4375
vt 0.5625 0.8125
vt 0.1875 0.8125
vt 0.1875 0.4375
vt 0.1875 0.7148749999999999
vt 0.5625 0.7148749999999999
vt 0.5625 1
vt 0.1875 1
vt 0.1875 1
vt 0.1875 0.7148749999999999
vt 0.5625 0.7148749999999999
vt 0.5625 1
vt 0.1875 1
vt 0.1875 0.7148749999999999
vt 0.5625 0.7148749999999999
vt 0.5625 1
vt 0.1875 0.7148749999999999
vt 0.5625 0.7148749999999999
vt 0.5625 1
vt 0.1875 1
vt 0.4102964991260236 0.9375000000000018
vt 0.13194595427239392 0.9375000000000018
vt 0.12499999999999722 0.87576585754831
vt 0.41010315002317455 0.8750995805888557
vt 0.375 1
vt 0 1
vt 0 0.9375
vt 0.375 0.9375
vt 0.12499393962539906 0.7216486468844636
vt 0.12499393962539873 1
vt 0.06250000000000155 0.9998127857919792
vt 0.0633618752448668 0.7147041172563009
vt 0.12499393962539906 0.7216486468844636
vt 0.12499393962539873 1
vt 0.06250000000000155 0.9998127857919792
vt 0.0633618752448668 0.7147041172563009
vt 0.4102964991260236 0.9375000000000018
vt 0.13194595427239392 0.9375000000000018
vt 0.12499999999999722 0.87576585754831
vt 0.41010315002317455 0.8750995805888557
vt 0.375 1
vt 0 1
vt 0 0.9375
vt 0.375 0.9375
vt 0.12499393962539906 0.7216486468844636
vt 0.12499393962539873 1
vt 0.06250000000000155 0.9998127857919792
vt 0.0633618752448668 0.7147041172563009
vt 0.4102964991260236 0.9375000000000018
vt 0.13194595427239392 0.9375000000000018
vt 0.12499999999999722 0.87576585754831
vt 0.41010315002317455 0.8750995805888557
vt 0.375 1
vt 0 1
vt 0 0.9375
vt 0.375 0.9375
vt 0.4102964991260236 0.9375000000000018
vt 0.13194595427239392 0.9375000000000018
vt 0.12499999999999722 0.87576585754831
vt 0.41010315002317455 0.8750995805888557
vt 0.375 1
vt 0 1
vt 0 0.9375
vt 0.375 0.9375
vt 0.12499393962539906 0.7216486468844636
vt 0.12499393962539873 1
vt 0.06250000000000155 0.9998127857919792
vt 0.0633618752448668 0.7147041172563009
vt 0 0.25
vt 0.176775 0.25
vt 0.176775 1
vt 0 1
vt 0 1
vt 0 0.25
vt 0.176775 0.25
vt 0.176775 1
vt 0 1
vt 0 0.25
vt 0.176775 0.25
vt 0.176775 1
vt 0 0.25
vt 0.176775 0.25
vt 0.176775 1
vt 0 1
vt 0.0883875 0.84690625
vt 0.176775 1
vt 0 1
vt 0.0883875 0.84690625
vt 0.176775 1
vt 0 1
vt 0.0883875 0.84690625
vt 0.176775 1
vt 0 1
vt 0.0883875 0.84690625
vt 0.176775 1
vt 0 1
vt 0.0883875 1
vt 0 0.84690625
vt 0.176775 0.84690625
vt 0.0883875 1
vt 0 0.84690625
vt 0.176775 0.84690625
vt 0.0883875 1
vt 0 0.84690625
vt 0.176775 0.84690625
vt 0.0883875 1
vt 0 0.84690625
vt 0.176775 0.84690625
vt 0.1875 1
vt 0.1875 0.8674124999999999
vt 0.5625 0.8674124999999999
vt 0.5625 1
vt 0.1875 0.8674124999999999
vt 0.5625 0.8674124999999999
vt 0.5625 1
vt 0.1875 1
vt 0.1875 0.8674124999999999
vt 0.5625 0.8674124999999999
vt 0.5625 1
vt 0.1875 1
vt 0.1875 1
vt 0.1875 0.8674124999999999
vt 0.5625 0.8674124999999999
vt 0.5625 1
vt 0.5625 0.7398812499999987
vt 0.5625 0.4696374999999987
vt 0.65625 0.33451874999999875
vt 0.65625 0.8749999999999987
vt 0.28125 0.8023812499999987
vt 0.46875 0.8023812499999987
vt 0.5625 0.9374999999999987
vt 0.1875 0.9374999999999987
vt 0.21875 0.4696374999999987
vt 0.21875 0.7398812499999987
vt 0.125 0.8749999999999987
vt 0.125 0.33451874999999875
vt 0.46875 0.3750000000000012
vt 0.28125 0.3750000000000012
vt 0.1875 0.23988125000000127
vt 0.5625 0.23988125000000127
vt 0.28125 0.8023812499999987
vt 0.46875 0.8023812499999987
vt 0.5625 0.9374999999999987
vt 0.1875 0.9374999999999987
vt 0.21875 0.4696374999999987
vt 0.21875 0.7398812499999987
vt 0.125 0.8749999999999987
vt 0.125 0.33451874999999875
vt 0.46875 0.3750000000000012
vt 0.28125 0.3750000000000012
vt 0.1875 0.23988125000000127
vt 0.5625 0.23988125000000127
vt 0.5625 0.7398812499999987
vt 0.5625 0.4696374999999987
vt 0.65625 0.33451874999999875
vt 0.65625 0.8749999999999987
vt 0.28125 0.8023812499999987
vt 0.46875 0.8023812499999987
vt 0.5625 0.9374999999999987
vt 0.1875 0.9374999999999987
vt 0.21875 0.4696374999999987
vt 0.21875 0.7398812499999987
vt 0.125 0.8749999999999987
vt 0.125 0.33451874999999875
vt 0.46875 0.3750000000000012
vt 0.28125 0.3750000000000012
vt 0.1875 0.23988125000000127
vt 0.5625 0.23988125000000127
vt 0.5625 0.7398812499999987
vt 0.5625 0.4696374999999987
vt 0.65625 0.33451874999999875
vt 0.65625 0.8749999999999987
vt 0.5625 0.7398812499999987
vt 0.5625 0.4696374999999987
vt 0.65625 0.33451874999999875
vt 0.65625 0.8749999999999987
vt 0.28125 0.8023812499999987
vt 0.46875 0.8023812499999987
vt 0.5625 0.9374999999999987
vt 0.1875 0.9374999999999987
vt 0.21875 0.4696374999999987
vt 0.21875 0.7398812499999987
vt 0.125 0.8749999999999987
vt 0.125 0.33451874999999875
vt 0.46875 0.3750000000000012
vt 0.28125 0.3750000000000012
vt 0.1875 0.23988125000000127
vt 0.5625 0.23988125000000127
vn 0 1 0
vn -0.6519232711089352 0.7582849389158577 0
vn 0.6519232711089352 0.7582849389158577 0
vn 0 0.7582849389158577 -0.6519232711089352
vn 0 0.7582849389158577 0.6519232711089352
vn 0.5441563651144138 0.6328192277929298 0.5508481417242224
vn 0 0.7367536012473344 -0.676161320284652
vn -0.9631110924407723 0.1979978572649314 0.1822467342259884
vn 0.1822467342259884 0.1979978572649314 0.9631110924407723
vn 0.5508481417242224 0.6328192277929298 -0.5441563651144138
vn -0.676161320284652 0.7367536012473344 0
vn 0.9631110924407723 0.1979978572649314 -0.1822467342259884
vn -0.5441563651144138 0.6328192277929298 -0.5508481417242224
vn 0 0.7367536012473344 0.676161320284652
vn -0.5508481417242224 0.6328192277929298 0.5441563651144138
vn 0.676161320284652 0.7367536012473344 0
vn -0.1822467342259884 0.1979978572649314 -0.9631110924407723
vn 0.7071067811865476 0 -0.7071067811865476
vn 0.7071067811865476 0 0.7071067811865476
vn -0.7071067811865476 0 -0.7071067811865476
vn -0.7071067811865476 0 0.7071067811865476
vn 0.5773502691896258 -0.5773502691896258 0.5773502691896258
vn -0.5773502691896258 -0.5773502691896258 0.5773502691896258
vn 0.5773502691896258 -0.5773502691896258 -0.5773502691896258
vn -0.5773502691896258 -0.5773502691896258 -0.5773502691896258
vn -0.4082482904638631 0.8164965809277261 -0.4082482904638631
vn 0.4082482904638631 0.8164965809277261 -0.4082482904638631
vn -0.4082482904638631 0.8164965809277261 0.4082482904638631
vn 0.4082482904638631 0.8164965809277261 0.4082482904638631
vn 0.6463141300923912 -0.763071454873602 0
vn 0 -0.763071454873602 0.6463141300923912
vn -0.6463141300923912 -0.763071454873602 0
vn 0 -0.763071454873602 -0.6463141300923912
vn 0.06287999281472258 0.031439996407361434 0.9975257556221421
vn 0 0.016934772752113362 0.9998565964536287
vn 0.020996927688864655 0.03149539153329744 0.9992833278604186
vn 0 0.008797129262446971 0.9999613045096994
vn 0.9998565964536287 0.016934772752113362 0
vn 0.9992833278604186 0.03149539153329744 -0.020996927688864655
vn 0.9999613045096994 0.008797129262446971 0
vn 0.9975257556221421 0.031439996407361434 -0.06287999281472258
vn 0 0.016934772752113362 -0.9998565964536287
vn -0.020996927688864655 0.03149539153329744 -0.9992833278604186
vn 0 0.008797129262446971 -0.9999613045096994
vn -0.06287999281472258 0.031439996407361434 -0.9975257556221421
vn -0.9975257556221421 0.031439996407361434 0.06287999281472258
vn -0.9998565964536287 0.016934772752113362 0
vn -0.9992833278604186 0.03149539153329744 0.020996927688864655
vn -0.9999613045096994 0.008797129262446971 0
usemtl m_b3273fc7-33e7-afac-c569-4c90512fe829
f 105/245/62 99/246/62 98/247/62 102/248/62
f 99/249/63 105/250/63 108/251/63 109/252/63
f 103/253/64 102/254/64 98/255/64 104/256/64
f 106/257/65 105/258/65 102/259/65 107/260/65
f 98/261/66 99/262/66 100/263/66 101/264/66
f 100/265/67 99/266/67 93/267/67 96/268/67
f 101/269/68 100/270/68 96/271/68 97/272/68
f 98/273/69 101/274/69 97/275/69 87/276/69
f 102/277/70 103/278/70 88/279/70 86/280/70
f 104/281/71 98/282/71 87/283/71 89/284/71
f 103/285/72 104/286/72 89/287/72 88/288/72
f 105/289/73 106/290/73 91/291/73 90/292/73
f 107/293/74 102/294/74 86/295/74 92/296/74
f 106/297/75 107/298/75 92/299/75 91/300/75
f 108/301/76 105/302/76 90/303/76 94/304/76
f 109/305/77 108/306/77 94/307/77 95/308/77
f 99/309/78 109/310/78 95/311/78 93/312/78
f 124/313/79 126/314/79 127/315/79 125/316/79
f 131/317/80 130/318/80 122/319/80 123/320/80
f 129/321/81 128/322/81 120/323/81 121/324/81
f 118/325/82 132/326/82 133/327/82 119/328/82
f 114/329/83 122/330/83 130/331/83
f 116/332/84 132/333/84 118/334/84
f 115/335/85 126/336/85 124/337/85
f 117/338/86 120/339/86 128/340/86
f 110/341/87 131/342/87 123/343/87
f 112/344/88 119/345/88 133/346/88
f 111/347/89 125/348/89 127/349/89
f 113/350/90 129/351/90 121/352/90
f 152/353/91 155/354/91 156/355/91 154/356/91
f 150/357/92 85/358/92 146/359/92 149/360/92
f 144/361/93 145/362/93 140/363/93 143/364/93
f 135/365/94 138/366/94 139/367/94 137/368/94
f 158/369/95 157/370/95 146/371/95 147/372/95
f 159/373/96 158/374/96 147/375/96 148/376/96
f 160/377/97 159/378/97 148/379/97 149/380/97
f 157/381/98 160/382/98 149/383/98 146/384/98
f 161/385/99 163/386/99 153/387/99 151/388/99
f 162/389/100 161/390/100 151/391/100 152/392/100
f 164/393/101 162/394/101 152/395/101 154/396/101
f 163/397/102 164/398/102 154/399/102 153/400/102
f 165/401/103 167/402/103 136/403/103 134/404/103
f 166/405/104 165/406/104 134/407/104 135/408/104
f 168/409/105 166/410/105 135/411/105 137/412/105
f 167/413/106 168/414/106 137/415/106 136/416/106
f 170/417/107 169/418/107 140/419/107 141/420/107
f 171/421/108 170/422/108 141/423/108 142/424/108
f 172/425/109 171/426/109 142/427/109 143/428/109
f 169/429/110 172/430/110 143/431/110 140/432/110
o beveled_cuboid_selection_selection
v 0.09375 -0.09280218481594027 0.44436468481594027
v 0.09375 0.05239927172801995 0.4397882282719801
v -0.09375 0.05239927172801995 0.4397882282719801
v -0.09375 -0.09280218481594027 0.44436468481594027
v 0.4397882282719801 0.05239927172801995 0.09375
v 0.44436468481594027 -0.09280218481594027 0.09375
v 0.4397882282719801 0.05239927172801995 -0.09375
v 0.44436468481594027 -0.09280218481594027 -0.09375
v 0.09375 0.05239927172801995 -0.4397882282719801
v 0.09375 -0.09280218481594027 -0.44436468481594027
v -0.09375 0.05239927172801995 -0.4397882282719801
v -0.09375 -0.09280218481594027 -0.44436468481594027
v -0.44436468481594027 -0.09280218481594027 0.09375
v -0.4397882282719801 0.05239927172801995 0.09375
v -0.4397882282719801 0.05239927172801995 -0.09375
v -0.44436468481594027 -0.09280218481594027 -0.09375
v 0.10717967697244904 0.8794095225512604 0.3999999999999999
v 0.12612654607059964 0.8415063509461098 0.47071067811865464
v 0.13397459621556132 0.75 0.5
v 0.12612654607059967 0.6584936490538904 0.47071067811865475
v 0.10717967697244904 0.6205904774487396 0.3999999999999999
v 0.08823280787429846 0.6584936490538902 0.32928932188134513
v 0.08038475772933679 0.75 0.29999999999999993
v 0.08823280787429845 0.8415063509461096 0.32928932188134513
v 0.29282032302755084 0.8794095225512604 0.2928203230275509
v 0.34458413204805494 0.8415063509461098 0.344584132048055
v 0.36602540378443854 0.75 0.3660254037844386
v 0.344584132048055 0.6584936490538904 0.34458413204805505
v 0.29282032302755084 0.6205904774487396 0.2928203230275509
v 0.2410565140070467 0.6584936490538902 0.24105651400704675
v 0.21961524227066312 0.75 0.2196152422706632
v 0.24105651400704667 0.8415063509461096 0.2410565140070467
v 0.3999999999999999 0.8794095225512604 0.10717967697244904
v 0.47071067811865464 0.8415063509461098 0.12612654607059964
v 0.5 0.75 0.13397459621556132
v 0.47071067811865475 0.6584936490538904 0.12612654607059967
v 0.3999999999999999 0.6205904774487396 0.10717967697244904
v 0.32928932188134513 0.6584936490538902 0.08823280787429846
v 0.29999999999999993 0.75 0.08038475772933679
v 0.32928932188134513 0.8415063509461096 0.08823280787429845
v 0.3999999999999999 0.8794095225512604 -0.10717967697244908
v 0.47071067811865464 0.8415063509461098 -0.12612654607059967
v 0.5 0.75 -0.13397459621556138
v 0.47071067811865475 0.6584936490538904 -0.1261265460705997
v 0.3999999999999999 0.6205904774487396 -0.10717967697244908
v 0.32928932188134513 0.6584936490538902 -0.08823280787429849
v 0.29999999999999993 0.75 -0.08038475772933683
v 0.32928932188134513 0.8415063509461096 -0.08823280787429848
v 0.2928203230275509 0.8794095225512604 -0.29282032302755084
v 0.344584132048055 0.8415063509461098 -0.34458413204805494
v 0.3660254037844386 0.75 -0.36602540378443854
v 0.34458413204805505 0.6584936490538904 -0.344584132048055
v 0.2928203230275509 0.6205904774487396 -0.29282032302755084
v 0.24105651400704675 0.6584936490538902 -0.2410565140070467
v 0.2196152422706632 0.75 -0.21961524227066312
v 0.2410565140070467 0.8415063509461096 -0.24105651400704667
v 0.10717967697244918 0.8794095225512604 -0.3999999999999999
v 0.12612654607059978 0.8415063509461098 -0.4707106781186546
v 0.13397459621556146 0.75 -0.49999999999999983
v 0.12612654607059978 0.6584936490538904 -0.47071067811865464
v 0.10717967697244918 0.6205904774487396 -0.3999999999999999
v 0.08823280787429855 0.6584936490538902 -0.32928932188134513
v 0.08038475772933687 0.75 -0.29999999999999993
v 0.08823280787429855 0.8415063509461096 -0.32928932188134513
v -0.1071796769724489 0.8794095225512604 -0.39999999999999997
v -0.12612654607059945 0.8415063509461098 -0.47071067811865464
v -0.13397459621556113 0.75 -0.5
v -0.12612654607059945 0.6584936490538904 -0.47071067811865475
v -0.1071796769724489 0.6205904774487396 -0.39999999999999997
v -0.08823280787429832 0.6584936490538902 -0.32928932188134524
v -0.08038475772933666 0.75 -0.29999999999999993
v -0.08823280787429832 0.8415063509461096 -0.32928932188134513
v -0.29282032302755084 0.8794095225512604 -0.29282032302755095
v -0.34458413204805494 0.8415063509461098 -0.34458413204805505
v -0.36602540378443854 0.75 -0.36602540378443865
v -0.344584132048055 0.6584936490538904 -0.3445841320480551
v -0.29282032302755084 0.6205904774487396 -0.29282032302755095
v -0.2410565140070467 0.6584936490538902 -0.24105651400704678
v -0.21961524227066312 0.75 -0.2196152422706632
v -0.24105651400704667 0.8415063509461096 -0.24105651400704675
v -0.3999999999999999 0.8794095225512604 -0.10717967697244901
v -0.47071067811865464 0.8415063509461098 -0.12612654607059956
v -0.5 0.75 -0.13397459621556126
v -0.47071067811865475 0.6584936490538904 -0.1261265460705996
v -0.3999999999999999 0.6205904774487396 -0.10717967697244901
v -0.32928932188134513 0.6584936490538902 -0.08823280787429844
v -0.29999999999999993 0.75 -0.08038475772933676
v -0.32928932188134513 0.8415063509461096 -0.0882328078742984
v -0.39999999999999997 0.8794095225512604 0.10717967697244886
v -0.47071067811865464 0.8415063509461098 0.12612654607059942
v -0.5 0.75 0.13397459621556107
v -0.47071067811865475 0.6584936490538904 0.12612654607059945
v -0.39999999999999997 0.6205904774487396 0.10717967697244886
v -0.32928932188134524 0.6584936490538902 0.08823280787429831
v -0.29999999999999993 0.75 0.08038475772933665
v -0.32928932188134513 0.8415063509461096 0.08823280787429828
v -0.29282032302755095 0.8794095225512604 0.2928203230275508
v -0.34458413204805505 0.8415063509461098 0.34458413204805494
v -0.36602540378443865 0.75 0.3660254037844385
v -0.3445841320480551 0.6584936490538904 0.34458413204805494
v -0.29282032302755095 0.6205904774487396 0.2928203230275508
v -0.24105651400704678 0.6584936490538902 0.24105651400704667
v -0.2196152422706632 0.75 0.2196152422706631
v -0.24105651400704675 0.8415063509461096 0.24105651400704664
v -0.10717967697244903 0.8794095225512604 0.3999999999999999
v -0.1261265460705996 0.8415063509461098 0.47071067811865464
v -0.13397459621556126 0.75 0.5
v -0.12612654607059964 0.6584936490538904 0.47071067811865475
v -0.10717967697244903 0.6205904774487396 0.3999999999999999
v -0.08823280787429844 0.6584936490538902 0.32928932188134513
v -0.08038475772933676 0.75 0.29999999999999993
v -0.08823280787429844 0.8415063509461096 0.32928932188134513
v 0 0.578125 5.551115123125783e-17
v 0 0.734375 5.551115123125783e-17
v 0.24102540378443837 0.578125 0.125
v 3.408341002099305e-17 0.578125 -0.24999999999999978
v -0.24102540378443837 0.578125 0.125
vt 0.5 0.7500000000000024
vt 0.3125 0.7500000000000024
vt 0.3125 0.47975625000000244
vt 0.5 0.47975625000000244
vt 0.5 0.47975625000000244
vt 0.5 0.7500000000000024
vt 0.3125 0.7500000000000024
vt 0.3125 0.47975625000000244
vt 0.5 0.47975625000000244
vt 0.5 0.7500000000000024
vt 0.3125 0.7500000000000024
vt 0.3125 0.47975625000000244
vt 0.5 0.7500000000000024
vt 0.3125 0.7500000000000024
vt 0.3125 0.47975625000000244
vt 0.5 0.47975625000000244
vt 0.023681249999999987 0.9999999999999973
vt 0 0.9038249999999973
vt 0.3153125 0.9038249999999973
vt 0.29163125 0.9999999999999973
vt 0.009812500000000002 1
vt 0 0.90144375
vt 0.3349375 0.90144375
vt 0.325125 1
vt 0 1
vt 0.009812500000000002 0.90144375
vt 0.325125 0.90144375
vt 0.3349375 1
vt 0 1
vt 0.023681249999999987 0.903825
vt 0.29163125 0.903825
vt 0.3153125 1
vt 0.26795 0.9038312500000001
vt 0.24426875 1
vt 0.023681250000000015 1
vt 0 0.9038312500000001
vt 0.2205875 0.9014375
vt 0.210775 1
vt 0.009812500000000002 1
vt 0 0.9014375
vt 0.210775 0.9014375
vt 0.2205875 1
vt 0 1
vt 0.009812500000000002 0.9014375
vt 0.24426875 0.9038312500000001
vt 0.26795 1
vt 0 1
vt 0.023681250000000015 0.9038312500000001
vt 0.023681249999999987 0.9999999999999973
vt 0 0.9038249999999973
vt 0.3153125 0.9038249999999973
vt 0.29163125 0.9999999999999973
vt 0.009812500000000002 1
vt 0 0.90144375
vt 0.3349375 0.90144375
vt 0.325125 1
vt 0 1
vt 0.009812500000000002 0.90144375
vt 0.325125 0.90144375
vt 0.3349375 1
vt 0 1
vt 0.023681249999999987 0.903825
vt 0.29163125 0.903825
vt 0.3153125 1
vt 0.26795 0.9038312500000001
vt 0.24426875 1
vt 0.023681250000000015 1
vt 0 0.9038312500000001
vt 0.2205875 0.9014375
vt 0.210775 1
vt 0.009812500000000002 1
vt 0 0.9014375
vt 0.210775 0.9014375
vt 0.2205875 1
vt 0 1
vt 0.009812500000000002 0.9014375
vt 0.24426875 0.9038312500000001
vt 0.26795 1
vt 0 1
vt 0.023681250000000015 0.9038312500000001
vt 0.023681249999999987 0.9999999999999973
vt 0 0.9038249999999973
vt 0.3153125 0.9038249999999973
vt 0.29163125 0.9999999999999973
vt 0.009812500000000002 1
vt 0 0.90144375
vt 0.3349375 0.90144375
vt 0.325125 1
vt 0 1
vt 0.009812500000000002 0.90144375
vt 0.325125 0.90144375
vt 0.3349375 1
vt 0 1
vt 0.023681249999999987 0.903825
vt 0.29163125 0.903825
vt 0.3153125 1
vt 0.26795 0.9038312500000001
vt 0.24426875 1
vt 0.023681250000000015 1
vt 0 0.9038312500000001
vt 0.2205875 0.9014375
vt 0.210775 1
vt 0.009812500000000002 1
vt 0 0.9014375
vt 0.210775 0.9014375
vt 0.2205875 1
vt 0 1
vt 0.009812500000000002 0.9014375
vt 0.24426875 0.9038312500000001
vt 0.26795 1
vt 0 1
vt 0.023681250000000015 0.9038312500000001
vt 0.023681249999999987 0.9999999999999973
vt 0 0.9038249999999973
vt 0.3153125 0.9038249999999973
vt 0.29163125 0.9999999999999973
vt 0.009812500000000002 1
vt 0 0.90144375
vt 0.3349375 0.90144375
vt 0.325125 1
vt 0 1
vt 0.009812500000000002 0.90144375
vt 0.325125 0.90144375
vt 0.3349375 1
vt 0 1
vt 0.023681249999999987 0.903825
vt 0.29163125 0.903825
vt 0.3153125 1
vt 0.26795 0.9038312500000001
vt 0.24426875 1
vt 0.023681250000000015 1
vt 0 0.9038312500000001
vt 0.2205875 0.9014375
vt 0.210775 1
vt 0.009812500000000002 1
vt 0 0.9014375
vt 0.210775 0.9014375
vt 0.2205875 1
vt 0 1
vt 0.009812500000000002 0.9014375
vt 0.24426875 0.9038312500000001
vt 0.26795 1
vt 0 1
vt 0.023681250000000015 0.9038312500000001
vt 0.023681249999999987 0.9999999999999973
vt 0 0.9038249999999973
vt 0.3153125 0.9038249999999973
vt 0.29163125 0.9999999999999973
vt 0.009812500000000002 1
vt 0 0.90144375
vt 0.3349375 0.90144375
vt 0.325125 1
vt 0 1
vt 0.009812500000000002 0.90144375
vt 0.325125 0.90144375
vt 0.3349375 1
vt 0 1
vt 0.023681249999999987 0.903825
vt 0.29163125 0.903825
vt 0.3153125 1
vt 0.26795 0.9038312500000001
vt 0.24426875 1
vt 0.023681250000000015 1
vt 0 0.9038312500000001
vt 0.2205875 0.9014375
vt 0.210775 1
vt 0.009812500000000002 1
vt 0 0.9014375
vt 0.210775 0.9014375
vt 0.2205875 1
vt 0 1
vt 0.009812500000000002 0.9014375
vt 0.24426875 0.9038312500000001
vt 0.26795 1
vt 0 1
vt 0.023681250000000015 0.9038312500000001
vt 0.023681249999999987 0.9999999999999973
vt 0 0.9038249999999973
vt 0.3153125 0.9038249999999973
vt 0.29163125 0.9999999999999973
vt 0.009812500000000002 1
vt 0 0.90144375
vt 0.3349375 0.90144375
vt 0.325125 1
vt 0 1
vt 0.009812500000000002 0.90144375
vt 0.325125 0.90144375
vt 0.3349375 1
vt 0 1
vt 0.023681249999999987 0.903825
vt 0.29163125 0.903825
vt 0.3153125 1
vt 0.26795 0.9038312500000001
vt 0.24426875 1
vt 0.023681250000000015 1
vt 0 0.9038312500000001
vt 0.2205875 0.9014375
vt 0.210775 1
vt 0.009812500000000002 1
vt 0 0.9014375
vt 0.210775 0.9014375
vt 0.2205875 1
vt 0 1
vt 0.009812500000000002 0.9014375
vt 0.24426875 0.9038312500000001
vt 0.26795 1
vt 0 1
vt 0.023681250000000015 0.9038312500000001
vt 0.023681249999999987 0.9999999999999973
vt 0 0.9038249999999973
vt 0.3153125 0.9038249999999973
vt 0.29163125 0.9999999999999973
vt 0.009812500000000002 1
vt 0 0.90144375
vt 0.3349375 0.90144375
vt 0.325125 1
vt 0 1
vt 0.009812500000000002 0.90144375
vt 0.325125 0.90144375
vt 0.3349375 1
vt 0 1
vt 0.023681249999999987 0.903825
vt 0.29163125 0.903825
vt 0.3153125 1
vt 0.26795 0.9038312500000001
vt 0.24426875 1
vt 0.023681250000000015 1
vt 0 0.9038312500000001
vt 0.2205875 0.9014375
vt 0.210775 1
vt 0.009812500000000002 1
vt 0 0.9014375
vt 0.210775 0.9014375
vt 0.2205875 1
vt 0 1
vt 0.009812500000000002 0.9014375
vt 0.24426875 0.9038312500000001
vt 0.26795 1
vt 0 1
vt 0.023681250000000015 0.9038312500000001
vt 0.023681249999999987 0.9999999999999973
vt 0 0.9038249999999973
vt 0.3153125 0.9038249999999973
vt 0.29163125 0.9999999999999973
vt 0.009812500000000002 1
vt 0 0.90144375
vt 0.3349375 0.90144375
vt 0.325125 1
vt 0 1
vt 0.009812500000000002 0.90144375
vt 0.325125 0.90144375
vt 0.3349375 1
vt 0 1
vt 0.023681249999999987 0.903825
vt 0.29163125 0.903825
vt 0.3153125 1
vt 0.26795 0.9038312500000001
vt 0.24426875 1
vt 0.023681250000000015 1
vt 0 0.9038312500000001
vt 0.2205875 0.9014375
vt 0.210775 1
vt 0.009812500000000002 1
vt 0 0.9014375
vt 0.210775 0.9014375
vt 0.2205875 1
vt 0 1
vt 0.009812500000000002 0.9014375
vt 0.24426875 0.9038312500000001
vt 0.26795 1
vt 0 1
vt 0.023681250000000015 0.9038312500000001
vt 0.023681249999999987 0.9999999999999973
vt 0 0.9038249999999973
vt 0.3153125 0.9038249999999973
vt 0.29163125 0.9999999999999973
vt 0.009812500000000002 1
vt 0 0.90144375
vt 0.3349375 0.90144375
vt 0.325125 1
vt 0 1
vt 0.009812500000000002 0.90144375
vt 0.325125 0.90144375
vt 0.3349375 1
vt 0 1
vt 0.023681249999999987 0.903825
vt 0.29163125 0.903825
vt 0.3153125 1
vt 0.26795 0.9038312500000001
vt 0.24426875 1
vt 0.023681250000000015 1
vt 0 0.9038312500000001
vt 0.2205875 0.9014375
vt 0.210775 1
vt 0.009812500000000002 1
vt 0 0.9014375
vt 0.210775 0.9014375
vt 0.2205875 1
vt 0 1
vt 0.009812500000000002 0.9014375
vt 0.24426875 0.9038312500000001
vt 0.26795 1
vt 0 1
vt 0.023681250000000015 0.9038312500000001
vt 0.023681249999999987 0.9999999999999973
vt 0 0.9038249999999973
vt 0.3153125 0.9038249999999973
vt 0.29163125 0.9999999999999973
vt 0.009812500000000002 1
vt 0 0.90144375
vt 0.3349375 0.90144375
vt 0.325125 1
vt 0 1
vt 0.009812500000000002 0.90144375
vt 0.325125 0.90144375
vt 0.3349375 1
vt 0 1
vt 0.023681249999999987 0.903825
vt 0.29163125 0.903825
vt 0.3153125 1
vt 0.26795 0.9038312500000001
vt 0.24426875 1
vt 0.023681250000000015 1
vt 0 0.9038312500000001
vt 0.2205875 0.9014375
vt 0.210775 1
vt 0.009812500000000002 1
vt 0 0.9014375
vt 0.210775 0.9014375
vt 0.2205875 1
vt 0 1
vt 0.009812500000000002 0.9014375
vt 0.24426875 0.9038312500000001
vt 0.26795 1
vt 0 1
vt 0.023681250000000015 0.9038312500000001
vt 0.023681249999999987 0.9999999999999973
vt 0 0.9038249999999973
vt 0.3153125 0.9038249999999973
vt 0.29163125 0.9999999999999973
vt 0.009812500000000002 1
vt 0 0.90144375
vt 0.3349375 0.90144375
vt 0.325125 1
vt 0 1
vt 0.009812500000000002 0.90144375
vt 0.325125 0.90144375
vt 0.3349375 1
vt 0 1
vt 0.023681249999999987 0.903825
vt 0.29163125 0.903825
vt 0.3153125 1
vt 0.26795 0.9038312500000001
vt 0.24426875 1
vt 0.023681250000000015 1
vt 0 0.9038312500000001
vt 0.2205875 0.9014375
vt 0.210775 1
vt 0.009812500000000002 1
vt 0 0.9014375
vt 0.210775 0.9014375
vt 0.2205875 1
vt 0 1
vt 0.009812500000000002 0.9014375
vt 0.24426875 0.9038312500000001
vt 0.26795 1
vt 0 1
vt 0.023681250000000015 0.9038312500000001
vt 0.023681249999999987 0.9999999999999973
vt 0 0.9038249999999973
vt 0.3153125 0.9038249999999973
vt 0.29163125 0.9999999999999973
vt 0.009812500000000002 1
vt 0 0.90144375
vt 0.3349375 0.90144375
vt 0.325125 1
vt 0 1
vt 0.009812500000000002 0.90144375
vt 0.325125 0.90144375
vt 0.3349375 1
vt 0 1
vt 0.023681249999999987 0.903825
vt 0.29163125 0.903825
vt 0.3153125 1
vt 0.26795 0.9038312500000001
vt 0.24426875 1
vt 0.023681250000000015 1
vt 0 0.9038312500000001
vt 0.2205875 0.9014375
vt 0.210775 1
vt 0.009812500000000002 1
vt 0 0.9014375
vt 0.210775 0.9014375
vt 0.2205875 1
vt 0 1
vt 0.009812500000000002 0.9014375
vt 0.24426875 0.9038312500000001
vt 0.26795 1
vt 0 1
vt 0.023681250000000015 0.9038312500000001
vt 0 -0.5
vt 0.866025 1
vt 0 0.5
vt 0 -0.11803125000000003
vt 1.73205 -0.11803125000000003
vt 0.866025 1
vt 0 1
vt 0.866025 -0.5
vt 0.866025 0.5
vt 0 -0.11803125000000003
vt 1.73205 -0.11803125000000003
vt 0.866025 1
vt 1.73205 1
vt 0 1
vt 0.866025 0.5
vt 0 -0.11803125000000003
vt 1.73205 -0.11803125000000003
vt 0.866025 1
vn 0.9995036782288711 0.03150233653171323 0
vn 0 0.03150233653171323 0.9995036782288711
vn -0.9995036782288711 0.03150233653171323 0
vn 0 0.03150233653171323 -0.9995036782288711
vn 0.23621941776092384 0.8813634589037379 0.40914403329625815
vn 0.4762010607084326 0.30484454910766606 0.824804431765196
vn 0.47620106070843243 -0.3048445491076657 0.824804431765196
vn 0.2362194177609245 -0.8813634589037369 0.4091440332962595
vn -0.23621941776092356 -0.8813634589037379 -0.409144033296258
vn -0.4762010607084322 -0.30484454910766473 -0.8248044317651967
vn -0.4762010607084322 0.3048445491076653 -0.8248044317651961
vn -0.2362194177609247 0.8813634589037369 -0.40914403329625987
vn 0.40914403329625837 0.8813634589037378 0.236219417760924
vn 0.824804431765196 0.30484454910766556 0.4762010607084326
vn 0.824804431765196 -0.3048445491076654 0.4762010607084325
vn 0.40914403329626 -0.8813634589037368 0.2362194177609248
vn -0.40914403329625804 -0.8813634589037378 -0.23621941776092364
vn -0.8248044317651964 -0.30484454910766495 -0.4762010607084323
vn -0.8248044317651962 0.3048445491076651 -0.4762010607084323
vn -0.4091440332962597 0.8813634589037368 -0.23621941776092467
vn 0.4724388355218477 0.8813634589037379 0
vn 0.9524021214168645 0.30484454910766623 0
vn 0.9524021214168646 -0.30484454910766584 0
vn 0.47243883552184923 -0.8813634589037369 0
vn -0.47243883552184734 -0.8813634589037379 0
vn -0.9524021214168649 -0.30484454910766456 0
vn -0.9524021214168646 0.3048445491076653 0
vn -0.4724388355218495 0.8813634589037368 0
vn 0.4091440332962581 0.8813634589037378 -0.23621941776092387
vn 0.8248044317651957 0.3048445491076662 -0.4762010607084325
vn 0.824804431765196 -0.30484454910766584 -0.4762010607084325
vn 0.4091440332962595 -0.8813634589037369 -0.23621941776092456
vn -0.409144033296258 -0.8813634589037379 0.23621941776092356
vn -0.8248044317651965 -0.3048445491076647 0.4762010607084323
vn -0.8248044317651964 0.3048445491076653 0.4762010607084323
vn -0.40914403329625976 0.8813634589037368 0.23621941776092475
vn 0.2362194177609241 0.8813634589037377 -0.40914403329625837
vn 0.47620106070843243 0.30484454910766545 -0.824804431765196
vn 0.47620106070843243 -0.3048445491076654 -0.8248044317651962
vn 0.23621941776092495 -0.8813634589037368 -0.4091440332962599
vn -0.23621941776092373 -0.8813634589037378 0.409144033296258
vn -0.4762010607084326 -0.304844549107665 0.8248044317651964
vn -0.47620106070843266 0.3048445491076652 0.8248044317651961
vn -0.23621941776092475 0.8813634589037368 0.4091440332962596
vn 1.071454686855491e-16 0.8813634589037376 -0.4724388355218479
vn 5.895966040368776e-16 0.3048445491076653 -0.9524021214168649
vn 4.1155768813986194e-16 -0.3048445491076653 -0.9524021214168646
vn 1.2608629055578953e-16 -0.8813634589037368 -0.4724388355218498
vn -2.7569108127010747e-16 -0.8813634589037381 0.47243883552184734
vn 0 -0.30484454910766456 0.9524021214168649
vn 0 0.30484454910766534 0.9524021214168646
vn -1.0086903244463154e-16 0.8813634589037367 0.4724388355218494
vn -0.23621941776092378 0.8813634589037376 -0.4091440332962585
vn -0.4762010607084321 0.3048445491076662 -0.8248044317651961
vn -0.476201060708432 -0.30484454910766595 -0.8248044317651964
vn -0.23621941776092462 -0.8813634589037368 -0.40914403329626003
vn 0.23621941776092373 -0.8813634589037379 0.40914403329625826
vn 0.4762010607084317 -0.3048445491076656 0.8248044317651965
vn 0.4762010607084317 0.3048445491076654 0.8248044317651966
vn 0.23621941776092448 0.881363458903737 0.4091440332962597
vn -0.40914403329625837 0.8813634589037377 -0.23621941776092387
vn -0.8248044317651961 0.3048445491076655 -0.4762010607084325
vn -0.8248044317651964 -0.30484454910766545 -0.47620106070843243
vn -0.40914403329626 -0.8813634589037368 -0.23621941776092475
vn 0.4091440332962581 -0.8813634589037378 0.23621941776092356
vn 0.8248044317651964 -0.3048445491076651 0.4762010607084322
vn 0.8248044317651965 0.30484454910766545 0.47620106070843216
vn 0.40914403329625976 0.8813634589037368 0.23621941776092456
vn -0.4724388355218477 0.8813634589037378 0
vn -0.9524021214168644 0.30484454910766623 0
vn -0.9524021214168645 -0.3048445491076658 0
vn -0.4724388355218492 -0.881363458903737 -1.008690324446316e-16
vn 0.4724388355218474 -0.8813634589037381 2.7569108127010767e-16
vn 0.952402121416865 -0.3048445491076646 0
vn 0.9524021214168646 0.30484454910766534 0
vn 0.4724388355218494 0.8813634589037368 1.0086903244463164e-16
vn -0.4091440332962584 0.8813634589037377 0.2362194177609237
vn -0.8248044317651962 0.30484454910766595 0.4762010607084321
vn -0.8248044317651962 -0.3048445491076656 0.476201060708432
vn -0.40914403329625987 -0.8813634589037367 0.23621941776092456
vn 0.4091440332962583 -0.8813634589037377 -0.23621941776092378
vn 0.8248044317651965 -0.3048445491076656 -0.4762010607084318
vn 0.8248044317651967 0.3048445491076653 -0.4762010607084318
vn 0.4091440332962597 0.881363458903737 -0.23621941776092448
vn -0.23621941776092387 0.8813634589037378 0.4091440332962582
vn -0.47620106070843277 0.30484454910766506 0.8248044317651961
vn -0.4762010607084325 -0.3048445491076654 0.824804431765196
vn -0.23621941776092487 -0.8813634589037368 0.4091440332962599
vn 0.23621941776092376 -0.8813634589037379 -0.4091440332962582
vn 0.4762010607084323 -0.3048445491076651 -0.8248044317651962
vn 0.47620106070843227 0.30484454910766534 -0.8248044317651962
vn 0.2362194177609247 0.8813634589037368 -0.4091440332962598
vn 0 0.8813634589037378 0.4724388355218476
vn 0 0.3048445491076662 0.9524021214168644
vn 0 -0.30484454910766584 0.9524021214168646
vn 0 -0.8813634589037369 0.47243883552184923
vn 0 -0.8813634589037379 -0.47243883552184734
vn 0 -0.30484454910766456 -0.9524021214168649
vn 0 0.3048445491076653 -0.9524021214168646
vn 0 0.8813634589037368 -0.4724388355218495
vn 0 -1 0
vn 0.6361994126305154 0.6542516066845545 -0.4089072541778468
vn 0 -1 0
vn -0.6361994126305154 0.6542516066845545 -0.40890725417784696
vn 0 -1 0
vn 0 0.6246950475544241 0.7808688094430305
usemtl m_05d2ee76-ee10-7245-894e-15d840734d98
f 179/433/111 177/434/111 178/435/111 180/436/111
f 173/437/112 174/438/112 175/439/112 176/440/112
f 185/441/113 186/442/113 187/443/113 188/444/113
f 183/445/114 181/446/114 182/447/114 184/448/114
f 189/449/115 190/450/115 198/451/115 197/452/115
f 190/453/116 191/454/116 199/455/116 198/456/116
f 191/457/117 192/458/117 200/459/117 199/460/117
f 192/461/118 193/462/118 201/463/118 200/464/118
f 193/465/119 194/466/119 202/467/119 201/468/119
f 194/469/120 195/470/120 203/471/120 202/472/120
f 195/473/121 196/474/121 204/475/121 203/476/121
f 196/477/122 189/478/122 197/479/122 204/480/122
f 197/481/123 198/482/123 206/483/123 205/484/123
f 198/485/124 199/486/124 207/487/124 206/488/124
f 199/489/125 200/490/125 208/491/125 207/492/125
f 200/493/126 201/494/126 209/495/126 208/496/126
f 201/497/127 202/498/127 210/499/127 209/500/127
f 202/501/128 203/502/128 211/503/128 210/504/128
f 203/505/129 204/506/129 212/507/129 211/508/129
f 204/509/130 197/510/130 205/511/130 212/512/130
f 205/513/131 206/514/131 214/515/131 213/516/131
f 206/517/132 207/518/132 215/519/132 214/520/132
f 207/521/133 208/522/133 216/523/133 215/524/133
f 208/525/134 209/526/134 217/527/134 216/528/134
f 209/529/135 210/530/135 218/531/135 217/532/135
f 210/533/136 211/534/136 219/535/136 218/536/136
f 211/537/137 212/538/137 220/539/137 219/540/137
f 212/541/138 205/542/138 213/543/138 220/544/138
f 213/545/139 214/546/139 222/547/139 221/548/139
f 214/549/140 215/550/140 223/551/140 222/552/140
f 215/553/141 216/554/141 224/555/141 223/556/141
f 216/557/142 217/558/142 225/559/142 224/560/142
f 217/561/143 218/562/143 226/563/143 225/564/143
f 218/565/144 219/566/144 227/567/144 226/568/144
f 219/569/145 220/570/145 228/571/145 227/572/145
f 220/573/146 213/574/146 221/575/146 228/576/146
f 221/577/147 222/578/147 230/579/147 229/580/147
f 222/581/148 223/582/148 231/583/148 230/584/148
f 223/585/149 224/586/149 232/587/149 231/588/149
f 224/589/150 225/590/150 233/591/150 232/592/150
f 225/593/151 226/594/151 234/595/151 233/596/151
f 226/597/152 227/598/152 235/599/152 234/600/152
f 227/601/153 228/602/153 236/603/153 235/604/153
f 228/605/154 221/606/154 229/607/154 236/608/154
f 229/609/155 230/610/155 238/611/155 237/612/155
f 230/613/156 231/614/156 239/615/156 238/616/156
f 231/617/157 232/618/157 240/619/157 239/620/157
f 232/621/158 233/622/158 241/623/158 240/624/158
f 233/625/159 234/626/159 242/627/159 241/628/159
f 234/629/160 235/630/160 243/631/160 242/632/160
f 235/633/161 236/634/161 244/635/161 243/636/161
f 236/637/162 229/638/162 237/639/162 244/640/162
f 237/641/163 238/642/163 246/643/163 245/644/163
f 238/645/164 239/646/164 247/647/164 246/648/164
f 239/649/165 240/650/165 248/651/165 247/652/165
f 240/653/166 241/654/166 249/655/166 248/656/166
f 241/657/167 242/658/167 250/659/167 249/660/167
f 242/661/168 243/662/168 251/663/168 250/664/168
f 243/665/169 244/666/169 252/667/169 251/668/169
f 244/669/170 237/670/170 245/671/170 252/672/170
f 245/673/171 246/674/171 254/675/171 253/676/171
f 246/677/172 247/678/172 255/679/172 254/680/172
f 247/681/173 248/682/173 256/683/173 255/684/173
f 248/685/174 249/686/174 257/687/174 256/688/174
f 249/689/175 250/690/175 258/691/175 257/692/175
f 250/693/176 251/694/176 259/695/176 258/696/176
f 251/697/177 252/698/177 260/699/177 259/700/177
f 252/701/178 245/702/178 253/703/178 260/704/178
f 253/705/179 254/706/179 262/707/179 261/708/179
f 254/709/180 255/710/180 263/711/180 262/712/180
f 255/713/181 256/714/181 264/715/181 263/716/181
f 256/717/182 257/718/182 265/719/182 264/720/182
f 257/721/183 258/722/183 266/723/183 265/724/183
f 258/725/184 259/726/184 267/727/184 266/728/184
f 259/729/185 260/730/185 268/731/185 267/732/185
f 260/733/186 253/734/186 261/735/186 268/736/186
f 261/737/187 262/738/187 270/739/187 269/740/187
f 262/741/188 263/742/188 271/743/188 270/744/188
f 263/745/189 264/746/189 272/747/189 271/748/189
f 264/749/190 265/750/190 273/751/190 272/752/190
f 265/753/191 266/754/191 274/755/191 273/756/191
f 266/757/192 267/758/192 275/759/192 274/760/192
f 267/761/193 268/762/193 276/763/193 275/764/193
f 268/765/194 261/766/194 269/767/194 276/768/194
f 269/769/195 270/770/195 278/771/195 277/772/195
f 270/773/196 271/774/196 279/775/196 278/776/196
f 271/777/197 272/778/197 280/779/197 279/780/197
f 272/781/198 273/782/198 281/783/198 280/784/198
f 273/785/199 274/786/199 282/787/199 281/788/199
f 274/789/200 275/790/200 283/791/200 282/792/200
f 275/793/201 276/794/201 284/795/201 283/796/201
f 276/797/202 269/798/202 277/799/202 284/800/202
f 277/801/203 278/802/203 190/803/203 189/804/203
f 278/805/204 279/806/204 191/807/204 190/808/204
f 279/809/205 280/810/205 192/811/205 191/812/205
f 280/813/206 281/814/206 193/815/206 192/816/206
f 281/817/207 282/818/207 194/819/207 193/820/207
f 282/821/208 283/822/208 195/823/208 194/824/208
f 283/825/209 284/826/209 196/827/209 195/828/209
f 284/829/210 277/830/210 189/831/210 196/832/210
f 288/833/211 287/834/211 285/835/211
f 287/836/212 288/837/212 286/838/212
f 289/839/213 288/840/213 285/841/213
f 288/842/214 289/843/214 286/844/214
f 287/845/215 289/846/215 285/847/215
f 289/848/216 287/849/216 286/850/216