# Made in Blockbench 4.10.3
mtllib MAG.mtl

o plane
v 0.234375 0 0.21875
v 0.234375 0 -0.1875
v -0.234375 0 0.21875
v -0.234375 0 -0.1875
v 0.20833333333333337 0 -0.375
v 0.11458333333333337 0 0.25
v 0.11979166666666673 0 -0.375
v 0.06956845238095244 0 0.375
v 5.551115123125783e-17 0 -0.1875
v 5.551115123125783e-17 0 0.375
v -0.11979166666666659 0 -0.375
v -0.06956845238095233 0 0.375
v -0.20833333333333331 0 -0.375
v -0.11458333333333331 0 0.25
v -0.1666665099045257 0 0.04166823428807609
v -0.3020834117144038 0 0.03645935228724945
v -0.1874997648561988 0 -0.1666643152286547
v -0.22916678423856723 0 -0.05208180489862557
v -0.0937499608094647 0 0.12500188114569122
v -0.09895827454738297 0 -0.12499717827438572
v 5.551115123125783e-17 0 0.18750141085926847
v 5.551115123125783e-17 0 0.0000021162942107633143
v 0.09374996080946484 0 0.12500188114569122
v 0.09895827454738311 0 -0.12499717827438572
v 0.16666650990452575 0 0.04166823428807609
v 0.18749976485619885 0 -0.1666643152286547
v 0.3020834117144038 0 0.03645935228724945
v 0.22916678423856723 0 -0.05208180489862557
vt 0 1
vt 0 0.6666629043658476
vt 0.16666666666666669 0.6666629043658476
vt 0.16666666666666669 1
vt 0.8333333333333334 1
vt 0.8333333333333334 0.6666629043658476
vt 1 0.6666629043658476
vt 1 1
vt 0.6666666666666667 1
vt 0.6666666666666667 0.6666629043658476
vt 0.8333333333333334 0.6666629043658476
vt 0.8333333333333334 1
vt 0.5 1
vt 0.5 0.6666629043658476
vt 0.6666666666666667 0.6666629043658476
vt 0.6666666666666667 1
vt 0.33333333333333337 1
vt 0.33333333333333337 0.6666629043658476
vt 0.5 0.6666629043658476
vt 0.5 1
vt 0.16666666666666669 1
vt 0.16666666666666669 0.6666629043658476
vt 0.33333333333333337 0.6666629043658476
vt 0.33333333333333337 1
vt 0.16666666666666669 0
vt 0.16666666666666669 0.3333308251390783
vt 0 0.3333308251390783
vt 0 0
vt 0.16666666666666669 0.3333308251390783
vt 0.16666666666666669 0.6666629043658476
vt 0 0.6666629043658476
vt 0.33333333333333337 0
vt 0.33333333333333337 0.3333308251390783
vt 0.16666666666666669 0.3333308251390783
vt 0.16666666666666669 0
vt 0.33333333333333337 0.3333308251390783
vt 0.33333333333333337 0.6666629043658476
vt 0.16666666666666669 0.6666629043658476
vt 0.16666666666666669 0.3333308251390783
vt 0.5 0
vt 0.5 0.3333308251390783
vt 0.33333333333333337 0.3333308251390783
vt 0.33333333333333337 0
vt 0.5 0.3333308251390783
vt 0.5 0.6666629043658476
vt 0.33333333333333337 0.6666629043658476
vt 0.33333333333333337 0.3333308251390783
vt 0.6666666666666667 0
vt 0.6666666666666667 0.3333308251390783
vt 0.5 0.3333308251390783
vt 0.5 0
vt 0.6666666666666667 0.3333308251390783
vt 0.6666666666666667 0.6666629043658476
vt 0.5 0.6666629043658476
vt 0.5 0.3333308251390783
vt 0.8333333333333334 0
vt 0.8333333333333334 0.3333308251390783
vt 0.6666666666666667 0.3333308251390783
vt 0.6666666666666667 0
vt 0.8333333333333334 0.3333308251390783
vt 0.8333333333333334 0.6666629043658476
vt 0.6666666666666667 0.6666629043658476
vt 0.6666666666666667 0.3333308251390783
vt 1 0
vt 1 0.3333308251390783
vt 0.8333333333333334 0.3333308251390783
vt 0.8333333333333334 0
vt 1 0.3333308251390783
vt 1 0.6666629043658476
vt 0.8333333333333334 0.3333308251390783
vt 0.16666666666666669 0.3333308251390783
vt 0 0.6666629043658476
vt 0 0.3333308251390783
vt 1 0.6666629043658476
vt 0.8333333333333334 0.6666629043658476
vt 0.8333333333333334 0.3333308251390783
vn 0 1 0
vn 0 1 0
vn 0 1 0
vn 0 1 0
vn 0 1 0
vn 0 1 0
vn 0 1 0
vn 0 1 0
vn 0 1 0
vn 0 1 0
vn 0 1 0
vn 0 1 0
vn 0 1 0
vn 0 1 0
vn 0 1 0
vn 0 1 0
vn 0 1 0
vn 0 1 0
vn 0 1 0
vn 0 1 0
usemtl m_8174f8f3-cc96-0361-99ad-aeb45b5a4692
f 4/1/1 18/2/1 17/3/1 13/4/1
f 5/5/2 26/6/2 28/7/2 2/8/2
f 7/9/3 24/10/3 26/11/3 5/12/3
f 9/13/4 22/14/4 24/15/4 7/16/4
f 11/17/5 20/18/5 22/19/5 9/20/5
f 13/21/6 17/22/6 20/23/6 11/24/6
f 14/25/7 15/26/7 16/27/7 3/28/7
f 15/29/8 17/30/8 18/31/8
f 12/32/9 19/33/9 15/34/9 14/35/9
f 19/36/10 20/37/10 17/38/10 15/39/10
f 10/40/11 21/41/11 19/42/11 12/43/11
f 21/44/12 22/45/12 20/46/12 19/47/12
f 8/48/13 23/49/13 21/50/13 10/51/13
f 23/52/14 24/53/14 22/54/14 21/55/14
f 6/56/15 25/57/15 23/58/15 8/59/15
f 25/60/16 26/61/16 24/62/16 23/63/16
f 1/64/17 27/65/17 25/66/17 6/67/17
f 27/68/18 28/69/18 25/70/18
f 15/71/19 18/72/19 16/73/19
f 28/74/20 26/75/20 25/76/20
o tube_selection
v -0.49999999999999994 0.5 -0.13397459621556126
v 0.13397459621556132 0.5 0.49999999999999994
v 0.10520705918813916 0.5 0.3926380902050415
v 0.49999999999999994 0.5 0.13397459621556132
v 0.3926380902050415 0.5 0.10520705918813916
v 0.49999999999999994 0.5 -0.13397459621556138
v 0.3926380902050415 0.5 -0.1052070591881392
v 0.1339745962155615 0.5 -0.4999999999999999
v 0.10520705918813927 0.5 -0.3926380902050414
v -0.13397459621556113 0.5 -0.5
v -0.105207059188139 0.5 -0.39263809020504153
v -0.3926380902050415 0.5 -0.10520705918813912
v -0.5 0.5 0.1339745962155611
v -0.39263809020504153 0.5 0.10520705918813898
v -0.1339745962155613 0.5 0.49999999999999994
v -0.10520705918813913 0.5 0.3926380902050415
v 0.3660254037844386 -0.16666666666666674 0.36602540378443865
v 0.13397459621556132 -0.16666666666666674 0.49999999999999994
v 0.3660254037844386 0.16666666666666663 0.36602540378443865
v 0.13397459621556132 0.16666666666666663 0.49999999999999994
v -0.1339745962155613 -0.16666666666666674 0.49999999999999994
v -0.1339745962155613 0.16666666666666663 0.49999999999999994
v -0.3660254037844387 -0.16666666666666674 0.36602540378443854
v -0.3660254037844387 0.16666666666666663 0.36602540378443854
v -0.5 -0.16666666666666674 0.1339745962155611
v -0.5 0.16666666666666663 0.1339745962155611
v -0.49999999999999994 -0.16666666666666674 -0.13397459621556126
v -0.49999999999999994 0.16666666666666663 -0.13397459621556126
v -0.3660254037844386 -0.16666666666666674 -0.3660254037844387
v -0.3660254037844386 0.16666666666666663 -0.3660254037844387
v -0.13397459621556113 -0.16666666666666674 -0.5
v -0.13397459621556113 0.16666666666666663 -0.5
v 0.1339745962155615 -0.16666666666666674 -0.4999999999999999
v 0.1339745962155615 0.16666666666666663 -0.4999999999999999
v 0.36602540378443865 -0.16666666666666674 -0.3660254037844386
v 0.36602540378443865 0.16666666666666663 -0.3660254037844386
v 0.49999999999999994 -0.16666666666666674 -0.13397459621556138
v 0.49999999999999994 0.16666666666666663 -0.13397459621556138
v 0.49999999999999994 -0.16666666666666674 0.13397459621556132
v 0.49999999999999994 0.16666666666666663 0.13397459621556132
v -0.3856642657461433 -0.08854166666666673 -0.38566426574614343
v -0.3856642657461433 0.08854166666666662 -0.38566426574614343
v -0.15590674584345213 0.08854166666666662 -0.5228765877365273
v -0.15590674584345213 -0.08854166666666673 -0.5228765877365273
v -0.5228765877365273 -0.08854166666666673 -0.15590674584345224
v -0.5228765877365273 0.08854166666666662 -0.15590674584345224
v 0.1559067458434525 -0.08854166666666673 -0.5228765877365273
v 0.1559067458434525 0.08854166666666662 -0.5228765877365273
v 0.38566426574614343 0.08854166666666662 -0.3856642657461434
v 0.38566426574614343 -0.08854166666666673 -0.3856642657461434
v 0.5228765877365273 0.08854166666666662 -0.15590674584345238
v 0.5228765877365273 -0.08854166666666673 -0.15590674584345238
v -0.3856642657461435 -0.08854166666666673 0.38566426574614326
v -0.3856642657461435 0.08854166666666662 0.38566426574614326
v -0.5228765877365273 0.08854166666666662 0.15590674584345207
v -0.5228765877365273 -0.08854166666666673 0.15590674584345207
v -0.1559067458434523 -0.08854166666666673 0.5228765877365273
v -0.1559067458434523 0.08854166666666662 0.5228765877365273
v 0.3856642657461434 -0.08854166666666673 0.38566426574614343
v 0.3856642657461434 0.08854166666666662 0.38566426574614343
v 0.15590674584345232 0.08854166666666662 0.5228765877365273
v 0.15590674584345232 -0.08854166666666673 0.5228765877365273
v 0.5228765877365273 -0.08854166666666673 0.15590674584345232
v 0.5228765877365273 0.08854166666666662 0.15590674584345232
vt 0.10736250000000003 0.73205
vt 0.10736250000000003 1
vt 0 0.97123125
vt 0 0.76081875
vt 0.26795 1
vt 0 1
vt 0.02876875000000001 0.8926375
vt 0.23918125 0.8926375
vt 0 1
vt 0 0.73205
vt 0.10736250000000003 0.76081875
vt 0.10736250000000003 0.97123125
vt 0 0.8926375
vt 0.26795 0.8926375
vt 0.23918125 1
vt 0.02876875000000001 1
vt 0.26795 0.33333333333333326
vt 0.26795 0.6666666666666666
vt 0 0.6666666666666666
vt 0 0.33333333333333326
vt 0.26795 0.33333333333333326
vt 0.26795 0.6666666666666666
vt 0 0.6666666666666666
vt 0 0.33333333333333326
vt 0.26795 0.33333333333333326
vt 0.26795 0.6666666666666666
vt 0 0.6666666666666666
vt 0 0.33333333333333326
vt 0.26795 0.33333333333333326
vt 0.26795 0.6666666666666666
vt 0 0.6666666666666666
vt 0 0.33333333333333326
vt 0.26795 0.33333333333333326
vt 0.26795 0.6666666666666666
vt 0 0.6666666666666666
vt 0 0.33333333333333326
vt 0.26795 0.33333333333333326
vt 0.26795 0.6666666666666666
vt 0 0.6666666666666666
vt 0 0.33333333333333326
vt 0.26795 0.33333333333333326
vt 0.26795 0.6666666666666666
vt 0 0.6666666666666666
vt 0 0.33333333333333326
vt 0.26795 0.33333333333333326
vt 0.26795 0.6666666666666666
vt 0 0.6666666666666666
vt 0 0.33333333333333326
vt 0.2836035222145522 0.8749999999999987
vt 0 0.8749999999999986
vt 0.014762075343100894 0.8164634606073713
vt 0.2826815760220004 0.8125081754129535
vt 0.0625 0.6041625000000005
vt 0.0625 0.9375000000000006
vt 0 0.9375000000000006
vt 0 0.6041625000000005
vt 0.06250000000000144 0.8125000000000002
vt 0.06250000000000133 0.5288964777854481
vt 0.12499182458704661 0.5298184239779999
vt 0.1210365393926287 0.7977379246568994
vt 0.125 0.9375000000000006
vt 0.125 0.6041625000000005
vt 0.1875 0.6041625000000005
vt 0.1875 0.9375000000000006
vt 0.28360352221455215 0.8749999999999986
vt 0 0.8749999999999987
vt 0.0009219461925518146 0.8125081754129534
vt 0.2688414468714513 0.8164634606073713
vt 0.06250000000000133 0.8125000000000036
vt 0.06250000000000144 0.5288964777854513
vt 0.1210365393926287 0.5436585531285523
vt 0.1249918245870465 0.8115780538074517
vt 0.125 0.9375000000000006
vt 0.125 0.6041625000000005
vt 0.1875 0.6041625000000005
vt 0.1875 0.9375000000000006
vt 0.1249918245870476 0.6538964777854448
vt 0.1249918245870475 0.937499999999997
vt 0.06250000000000222 0.9365780538074451
vt 0.06645528519442023 0.6686585531285456
vt 0 0.6250081754129525
vt 0.28360352221455215 0.6250081754129524
vt 0.26884144687145134 0.6835447148055798
vt 0.0009219461925518702 0.6874999999999978
vt 0.1249918245870476 0.6538964777854479
vt 0.1249918245870476 0.9375
vt 0.06645528519442023 0.9227379246568992
vt 0.06250000000000233 0.6548184239779997
vt 0.0625 0.6041625000000005
vt 0.0625 0.9375000000000006
vt 0 0.9375000000000006
vt 0 0.6041625000000005
vt 0 0.6250081754129525
vt 0.28360352221455215 0.6250081754129524
vt 0.28268157602200034 0.6874999999999977
vt 0.014762075343100867 0.6835447148055798
vt 0.06250000000000133 0.9375000000000036
vt 0.06250000000000144 0.6538964777854513
vt 0.1210365393926287 0.6686585531285523
vt 0.1249918245870465 0.9365780538074517
vt 0.0625 0.6041625000000005
vt 0.0625 0.9375000000000006
vt 0 0.9375000000000006
vt 0 0.6041625000000005
vt 0.28360352221455215 0.6874999999999986
vt 0 0.6874999999999987
vt 0.0009219461925518146 0.6250081754129534
vt 0.2688414468714513 0.6289634606073713
vt 0.125 0.9375000000000006
vt 0.125 0.6041625000000005
vt 0.1875 0.6041625000000005
vt 0.1875 0.9375000000000006
vt 0.06250000000000144 0.9375000000000002
vt 0.06250000000000133 0.6538964777854481
vt 0.12499182458704661 0.6548184239779999
vt 0.1210365393926287 0.9227379246568994
vt 0.2836035222145522 0.6874999999999987
vt 0 0.6874999999999986
vt 0.014762075343100894 0.6289634606073713
vt 0.2826815760220004 0.6250081754129535
vt 0 0.8125081754129525
vt 0.28360352221455215 0.8125081754129524
vt 0.26884144687145134 0.8710447148055798
vt 0.0009219461925518702 0.8749999999999978
vt 0.0625 0.6041625000000005
vt 0.0625 0.9375000000000006
vt 0 0.9375000000000006
vt 0 0.6041625000000005
vt 0.1249918245870476 0.5288964777854448
vt 0.1249918245870475 0.812499999999997
vt 0.06250000000000222 0.8115780538074451
vt 0.06645528519442023 0.5436585531285456
vt 0.125 0.9375000000000006
vt 0.125 0.6041625000000005
vt 0.1875 0.6041625000000005
vt 0.1875 0.9375000000000006
vt 0 0.8125081754129525
vt 0.28360352221455215 0.8125081754129524
vt 0.28268157602200034 0.8749999999999977
vt 0.014762075343100867 0.8710447148055798
vt 0.1249918245870476 0.5288964777854479
vt 0.1249918245870476 0.8125
vt 0.06645528519442023 0.7977379246568992
vt 0.06250000000000233 0.5298184239779997
vn 0 1 0
vn 0 1 0
vn 0 1 0
vn 0 1 0
vn 0.5127301714693291 0 0.8585498070962642
vn -0.5127301714693294 0 0.8585498070962642
vn -0.8585498070962644 0 0.5127301714693289
vn -0.8585498070962642 0 -0.5127301714693293
vn -0.5127301714693289 0 -0.8585498070962643
vn 0.5127301714693294 0 -0.8585498070962639
vn 0.858549807096264 0 -0.5127301714693292
vn 0.8585498070962642 0 0.5127301714693292
vn -0.484738987362906 0.3258903490788769 -0.8116794900129191
vn 0.7218502184591918 0 -0.6920493205765158
vn -0.4768203031951585 -0.36765206329404543 -0.7984199138401474
vn -0.6920493205765145 0 0.7218502184591931
vn -0.7984199138401473 0.36765206329404565 -0.47682030319515883
vn -0.8116794900129188 -0.32589034907887665 -0.4847389873629062
vn -0.7218502184591935 0 -0.692049320576514
vn 0.4768203031951589 0.3676520632940465 -0.7984199138401468
vn 0.48473898736290644 -0.32589034907887765 -0.8116794900129185
vn 0.8116794900129187 0.3258903490788775 -0.4847389873629062
vn 0.6920493205765149 0 0.7218502184591926
vn 0.7984199138401469 -0.36765206329404615 -0.47682030319515867
vn -0.811679490012919 0.3258903490788773 0.48473898736290577
vn -0.6920493205765154 0 -0.7218502184591923
vn -0.7984199138401477 -0.3676520632940451 0.4768203031951585
vn 0.7218502184591926 0 0.6920493205765149
vn -0.47682030319515895 0.36765206329404587 0.7984199138401471
vn -0.4847389873629064 -0.32589034907887704 0.8116794900129187
vn 0.48473898736290605 0.32589034907887743 0.8116794900129187
vn -0.7218502184591926 0 0.6920493205765149
vn 0.47682030319515867 -0.3676520632940458 0.7984199138401472
vn 0.6920493205765149 0 -0.7218502184591926
vn 0.798419913840147 0.367652063294046 0.47682030319515867
vn 0.8116794900129186 -0.3258903490788775 0.48473898736290616
usemtl m_b7f2d180-448b-0454-5ae6-259eeb91ccc3
f 32/77/21 34/78/21 35/79/21 33/80/21
f 36/81/22 38/82/22 39/83/22 37/84/22
f 29/85/23 41/86/23 42/87/23 40/88/23
f 43/89/24 30/90/24 31/91/24 44/92/24
f 87/93/25 88/94/25 89/95/25 90/96/25
f 85/97/26 86/98/26 82/99/26 81/100/26
f 81/101/27 82/102/27 83/103/27 84/104/27
f 73/105/28 74/106/28 70/107/28 69/108/28
f 69/109/29 70/110/29 71/111/29 72/112/29
f 75/113/30 76/114/30 77/115/30 78/116/30
f 78/117/31 77/118/31 79/119/31 80/120/31
f 91/121/32 92/122/32 88/123/32 87/124/32
f 71/125/33 70/126/33 58/127/33 60/128/33
f 72/129/34 71/130/34 60/131/34 59/132/34
f 69/133/35 72/134/35 59/135/35 57/136/35
f 74/137/36 73/138/36 55/139/36 56/140/36
f 70/141/37 74/142/37 56/143/37 58/144/37
f 73/145/38 69/146/38 57/147/38 55/148/38
f 76/149/39 75/150/39 61/151/39 62/152/39
f 77/153/40 76/154/40 62/155/40 64/156/40
f 75/157/41 78/158/41 63/159/41 61/160/41
f 79/161/42 77/162/42 64/163/42 66/164/42
f 80/165/43 79/166/43 66/167/43 65/168/43
f 78/169/44 80/170/44 65/171/44 63/172/44
f 83/173/45 82/174/45 52/175/45 54/176/45
f 84/177/46 83/178/46 54/179/46 53/180/46
f 81/181/47 84/182/47 53/183/47 51/184/47
f 86/185/48 85/186/48 49/187/48 50/188/48
f 82/189/49 86/190/49 50/191/49 52/192/49
f 85/193/50 81/194/50 51/195/50 49/196/50
f 89/197/51 88/198/51 47/199/51 48/200/51
f 90/201/52 89/202/52 48/203/52 46/204/52
f 87/205/53 90/206/53 46/207/53 45/208/53
f 92/209/54 91/210/54 67/211/54 68/212/54
f 88/213/55 92/214/55 68/215/55 47/216/55
f 91/217/56 87/218/56 45/219/56 67/220/56
o tube
v 0.13397459621556132 -0.5 0.49999999999999994
v 0.13397459621556132 0.5 0.49999999999999994
v 0.10520705918813916 -0.5 0.3926380902050415
v 0.10520705918813916 0.5 0.3926380902050415
v 0.3660254037844386 -0.5 0.36602540378443865
v 0.3660254037844386 0.5 0.36602540378443865
v 0.28743103101690226 -0.5 0.2874310310169023
v 0.28743103101690226 0.5 0.2874310310169023
v 0.49999999999999994 -0.5 0.13397459621556132
v 0.49999999999999994 0.5 0.13397459621556132
v 0.3926380902050415 -0.5 0.10520705918813916
v 0.3926380902050415 0.5 0.10520705918813916
v 0.49999999999999994 -0.5 -0.13397459621556138
v 0.49999999999999994 0.5 -0.13397459621556138
v 0.3926380902050415 -0.5 -0.1052070591881392
v 0.3926380902050415 0.5 -0.1052070591881392
v 0.36602540378443865 -0.5 -0.3660254037844386
v 0.36602540378443865 0.5 -0.3660254037844386
v 0.2874310310169023 -0.5 -0.28743103101690226
v 0.2874310310169023 0.5 -0.28743103101690226
v 0.1339745962155615 -0.5 -0.4999999999999999
v 0.1339745962155615 0.5 -0.4999999999999999
v 0.10520705918813927 -0.5 -0.3926380902050414
v 0.10520705918813927 0.5 -0.3926380902050414
v -0.13397459621556113 -0.5 -0.5
v -0.13397459621556113 0.5 -0.5
v -0.105207059188139 -0.5 -0.39263809020504153
v -0.105207059188139 0.5 -0.39263809020504153
v -0.3660254037844386 -0.5 -0.3660254037844387
v -0.3660254037844386 0.5 -0.3660254037844387
v -0.28743103101690226 -0.5 -0.28743103101690237
v -0.28743103101690226 0.5 -0.28743103101690237
v -0.49999999999999994 -0.5 -0.13397459621556126
v -0.49999999999999994 0.5 -0.13397459621556126
v -0.3926380902050415 -0.5 -0.10520705918813912
v -0.3926380902050415 0.5 -0.10520705918813912
v -0.5 -0.5 0.1339745962155611
v -0.5 0.5 0.1339745962155611
v -0.39263809020504153 -0.5 0.10520705918813898
v -0.39263809020504153 0.5 0.10520705918813898
v -0.3660254037844387 -0.5 0.36602540378443854
v -0.3660254037844387 0.5 0.36602540378443854
v -0.28743103101690237 -0.5 0.2874310310169022
v -0.28743103101690237 0.5 0.2874310310169022
v -0.1339745962155613 -0.5 0.49999999999999994
v -0.1339745962155613 0.5 0.49999999999999994
v -0.10520705918813913 -0.5 0.3926380902050415
v -0.10520705918813913 0.5 0.3926380902050415
v 0.3660254037844386 -0.16666666666666674 0.36602540378443865
v 0.13397459621556132 -0.16666666666666674 0.49999999999999994
v 0.3660254037844386 0.16666666666666663 0.36602540378443865
v 0.13397459621556132 0.16666666666666663 0.49999999999999994
v -0.1339745962155613 -0.16666666666666674 0.49999999999999994
v -0.1339745962155613 0.16666666666666663 0.49999999999999994
v -0.3660254037844387 -0.16666666666666674 0.36602540378443854
v -0.3660254037844387 0.16666666666666663 0.36602540378443854
v -0.5 -0.16666666666666674 0.1339745962155611
v -0.5 0.16666666666666663 0.1339745962155611
v -0.49999999999999994 -0.16666666666666674 -0.13397459621556126
v -0.49999999999999994 0.16666666666666663 -0.13397459621556126
v -0.3660254037844386 -0.16666666666666674 -0.3660254037844387
v -0.3660254037844386 0.16666666666666663 -0.3660254037844387
v -0.13397459621556113 -0.16666666666666674 -0.5
v -0.13397459621556113 0.16666666666666663 -0.5
v 0.1339745962155615 -0.16666666666666674 -0.4999999999999999
v 0.1339745962155615 0.16666666666666663 -0.4999999999999999
v 0.36602540378443865 -0.16666666666666674 -0.3660254037844386
v 0.36602540378443865 0.16666666666666663 -0.3660254037844386
v 0.49999999999999994 -0.16666666666666674 -0.13397459621556138
v 0.49999999999999994 0.16666666666666663 -0.13397459621556138
v 0.49999999999999994 -0.16666666666666674 0.13397459621556132
v 0.49999999999999994 0.16666666666666663 0.13397459621556132
v -0.105207059188139 0.16666666666666674 -0.39263809020504153
v 0.10520705918813927 0.16666666666666674 -0.3926380902050414
v -0.105207059188139 -0.16666666666666663 -0.39263809020504153
v 0.10520705918813927 -0.16666666666666663 -0.3926380902050414
v 0.2874310310169023 0.16666666666666674 -0.28743103101690226
v 0.2874310310169023 -0.16666666666666663 -0.28743103101690226
v 0.3926380902050415 0.16666666666666674 -0.1052070591881392
v 0.3926380902050415 -0.16666666666666663 -0.1052070591881392
v 0.3926380902050415 0.16666666666666674 0.10520705918813916
v 0.3926380902050415 -0.16666666666666663 0.10520705918813916
v 0.28743103101690226 0.16666666666666674 0.2874310310169023
v 0.28743103101690226 -0.16666666666666663 0.2874310310169023
v 0.10520705918813916 0.16666666666666674 0.3926380902050415
v 0.10520705918813916 -0.16666666666666663 0.3926380902050415
v -0.10520705918813913 0.16666666666666674 0.3926380902050415
v -0.10520705918813913 -0.16666666666666663 0.3926380902050415
v -0.28743103101690237 0.16666666666666674 0.2874310310169022
v -0.28743103101690237 -0.16666666666666663 0.2874310310169022
v -0.39263809020504153 0.16666666666666674 0.10520705918813898
v -0.39263809020504153 -0.16666666666666663 0.10520705918813898
v -0.3926380902050415 0.16666666666666674 -0.10520705918813912
v -0.3926380902050415 -0.16666666666666663 -0.10520705918813912
v -0.28743103101690226 0.16666666666666674 -0.28743103101690237
v -0.28743103101690226 -0.16666666666666663 -0.28743103101690237
v 0.06537256935284129 -0.5 -0.20513809020504137
v -0.06537256935284115 -0.29166666666666663 -0.20513809020504148
v 0.06537256935284129 -0.29166666666666663 -0.20513809020504137
v -0.06537256935284115 -0.5 -0.20513809020504148
v -0.20513809020504148 -0.5 -0.06537256935284119
v -0.20513809020504148 -0.29166666666666663 0.06537256935284115
v -0.20513809020504148 -0.29166666666666663 -0.06537256935284119
v -0.20513809020504148 -0.5 0.06537256935284115
v 0.20513809020504148 -0.5 0.06537256935284125
v 0.20513809020504148 -0.29166666666666663 -0.06537256935284125
v 0.20513809020504148 -0.29166666666666663 0.06537256935284125
v 0.20513809020504148 -0.5 -0.06537256935284125
v -0.06537256935284122 -0.5 0.20513809020504148
v 0.06537256935284123 -0.29166666666666663 0.20513809020504148
v -0.06537256935284122 -0.29166666666666663 0.20513809020504148
v 0.06537256935284123 -0.5 0.20513809020504148
vt 0 1
vt 0 0.6666666666666666
vt 0.26795 0.6666666666666666
vt 0.26795 1
vt 0.2104125 0
vt 0.2104125 0.33333333333333337
vt 0 0.33333333333333337
vt 0 0
vt 5.551115123125783e-17 0.9712338382135871
vt 0 0.7608192340054607
vt 0.1073608929841336 0.7320513050606374
vt 0.1073631935017324 1
vt 0 0.8926370534788388
vt 0.26794869494923834 0.8926370534788388
vt 0.23918168777008322 0.9999981934508018
vt 0.028767083569711985 1
vt 0 1
vt 0 0.6666666666666666
vt 0.26795 0.6666666666666666
vt 0.26795 1
vt 0.2104125 0
vt 0.2104125 0.33333333333333337
vt 0 0.33333333333333337
vt 0 0
vt 0 0.9712320710551766
vt 5.551115123125783e-17 0.7608174668470502
vt 0.1073631935017324 0.7320513050606374
vt 0.10736089298413354 1
vt 0 0.892637053478839
vt 0.2679486949492383 0.8926370534788388
vt 0.2391816113795264 1
vt 0.028767007179155174 0.999998193450802
vt 0 1
vt 0 0.6666666666666666
vt 0.26795 0.6666666666666666
vt 0.26795 1
vt 0.2104125 0
vt 0.2104125 0.33333333333333337
vt 0 0.33333333333333337
vt 0 0
vt 0 0.97123125
vt 0 0.76081875
vt 0.10736250000000003 0.73205
vt 0.10736250000000003 1
vt 0 1
vt 0 0.6666666666666666
vt 0.26795 0.6666666666666666
vt 0.26795 1
vt 0.2104125 0
vt 0.2104125 0.33333333333333337
vt 0 0.33333333333333337
vt 0 0
vt 0.23918253315294977 1
vt 0.02876792894482333 1
vt 0 0.8926391070158664
vt 0.26794869493936263 0.8926368064982676
vt 0.10736294652116113 0.7320513050507615
vt 0.10736294652116107 1
vt 0.0000018065491981245074 0.9712329928208447
vt 0 0.7608183886204736
vt 0 1
vt 0 0.6666666666666666
vt 0.26795 0.6666666666666666
vt 0.26795 1
vt 0.2104125 0
vt 0.2104125 0.33333333333333337
vt 0 0.33333333333333337
vt 0 0
vt 0.23918076599453925 1
vt 0.028766161786412836 1
vt 0 0.8926368064982676
vt 0.2679486949393626 0.8926391070158665
vt 0.10736294652116124 0.7320513050507617
vt 0.10736294652116118 1
vt 0 0.971232916430288
vt 0.0000018065491982910409 0.7608183122299168
vt 0 1
vt 0 0.6666666666666666
vt 0.26795 0.6666666666666666
vt 0.26795 1
vt 0.23918125 1
vt 0.02876875000000001 1
vt 0 0.8926375
vt 0.26795 0.8926375
vt 0 1
vt 0 0.6666666666666666
vt 0.26795 0.6666666666666666
vt 0.26795 1
vt 0.2104125 0
vt 0.2104125 0.33333333333333337
vt 0 0.33333333333333337
vt 0 0
vt 0.1073631935017324 0.7608174668470502
vt 0.10736319350173235 0.9712320710551767
vt 0.000002300517598752272 1
vt 0 0.7320513050606373
vt 0.26794869494923834 1
vt 0 1
vt 0.02876700717915512 0.892638860028037
vt 0.23918161137952637 0.8926370534788388
vt 0 1
vt 0 0.6666666666666666
vt 0.26795 0.6666666666666666
vt 0.26795 1
vt 0.2104125 0
vt 0.2104125 0.33333333333333337
vt 0 0.33333333333333337
vt 0 0
vt 0.1073631935017324 0.7608192340054607
vt 0.10736319350173235 0.9712338382135872
vt 0 1
vt 0.000002300517598863294 0.7320513050606374
vt 0.26794869494923834 1
vt 0 1
vt 0.028767083569712013 0.8926370534788388
vt 0.23918168777008322 0.892638860028037
vt 0 1
vt 0 0.6666666666666666
vt 0.26795 0.6666666666666666
vt 0.26795 1
vt 0.2104125 0
vt 0.2104125 0.33333333333333337
vt 0 0.33333333333333337
vt 0 0
vt 0.10736250000000003 0.76081875
vt 0.10736250000000003 0.97123125
vt 0 1
vt 0 0.73205
vt 0 1
vt 0 0.6666666666666666
vt 0.26795 0.6666666666666666
vt 0.26795 1
vt 0.2104125 0
vt 0.2104125 0.33333333333333337
vt 0 0.33333333333333337
vt 0 0
vt 0.028766161786412864 0.8926368064982677
vt 0.2391807659945393 0.8926368064982676
vt 0.26794869493936263 0.9999976994824011
vt 0 1
vt 5.551115123125783e-17 1
vt 0 0.7320513050507617
vt 0.107361139971963 0.7608183122299168
vt 0.10736294652116124 0.971232916430288
vt 0 1
vt 0 0.6666666666666666
vt 0.26795 0.6666666666666666
vt 0.26795 1
vt 0.2104125 0
vt 0.2104125 0.33333333333333337
vt 0 0.33333333333333337
vt 0 0
vt 0.028767928944823357 0.8926368064982676
vt 0.23918253315294977 0.8926368064982677
vt 0.2679486949393626 1
vt 0 0.9999976994824011
vt 0 1
vt 5.551115123125783e-17 0.7320513050507617
vt 0.10736294652116124 0.7608183886204737
vt 0.10736113997196295 0.971232992820845
vt 0 1
vt 0 0.6666666666666666
vt 0.26795 0.6666666666666666
vt 0.26795 1
vt 0.2104125 0
vt 0.2104125 0.33333333333333337
vt 0 0.33333333333333337
vt 0 0
vt 0.02876875000000001 0.8926375
vt 0.23918125 0.8926375
vt 0.26795 1
vt 0 1
vt 0.26795 0
vt 0.26795 0.33333333333333326
vt 0 0.33333333333333326
vt 0 0
vt 0.26795 0
vt 0.26795 0.33333333333333326
vt 0 0.33333333333333326
vt 0 0
vt 0.26795 0.33333333333333326
vt 0.26795 0.6666666666666666
vt 0 0.6666666666666666
vt 0 0.33333333333333326
vt 0.26795 0
vt 0.26795 0.33333333333333326
vt 0 0.33333333333333326
vt 0 0
vt 0.26795 0
vt 0.26795 0.33333333333333326
vt 0 0.33333333333333326
vt 0 0
vt 0.26795 0
vt 0.26795 0.33333333333333326
vt 0 0.33333333333333326
vt 0 0
vt 0.26795 0.33333333333333326
vt 0.26795 0.6666666666666666
vt 0 0.6666666666666666
vt 0 0.33333333333333326
vt 0.26795 0
vt 0.26795 0.33333333333333326
vt 0 0.33333333333333326
vt 0 0
vt 0.26795 0
vt 0.26795 0.33333333333333326
vt 0 0.33333333333333326
vt 0 0
vt 0.26795 0
vt 0.26795 0.33333333333333326
vt 0 0.33333333333333326
vt 0 0
vt 0.26795 0.33333333333333326
vt 0.26795 0.6666666666666666
vt 0 0.6666666666666666
vt 0 0.33333333333333326
vt 0.26795 0
vt 0.26795 0.33333333333333326
vt 0 0.33333333333333326
vt 0 0
vt 0.26795 0
vt 0.26795 0.33333333333333326
vt 0 0.33333333333333326
vt 0 0
vt 0.26795 0
vt 0.26795 0.33333333333333326
vt 0 0.33333333333333326
vt 0 0
vt 0.26795 0.33333333333333326
vt 0.26795 0.6666666666666666
vt 0 0.6666666666666666
vt 0 0.33333333333333326
vt 0.26795 0
vt 0.26795 0.33333333333333326
vt 0 0.33333333333333326
vt 0 0
vt 0.2104125 0
vt 0.2104125 0.33333333333333337
vt 0 0.33333333333333337
vt 0 0
vt 0 1
vt 0 0.6666666666666667
vt 0.2104125 0.6666666666666667
vt 0.2104125 1
vt 0 0.6666666666666667
vt 0 0.33333333333333337
vt 0.2104125 0.33333333333333337
vt 0.2104125 0.6666666666666667
vt 0 1
vt 0 0.6666666666666667
vt 0.2104125 0.6666666666666667
vt 0.2104125 1
vt 0 0.6666666666666667
vt 0 0.33333333333333337
vt 0.2104125 0.33333333333333337
vt 0.2104125 0.6666666666666667
vt 0 1
vt 0 0.6666666666666667
vt 0.2104125 0.6666666666666667
vt 0.2104125 1
vt 0 0.6666666666666667
vt 0 0.33333333333333337
vt 0.2104125 0.33333333333333337
vt 0.2104125 0.6666666666666667
vt 0 1
vt 0 0.6666666666666667
vt 0.2104125 0.6666666666666667
vt 0.2104125 1
vt 0 0.6666666666666667
vt 0 0.33333333333333337
vt 0.2104125 0.33333333333333337
vt 0.2104125 0.6666666666666667
vt 0 1
vt 0 0.6666666666666667
vt 0.2104125 0.6666666666666667
vt 0.2104125 1
vt 0 0.6666666666666667
vt 0 0.33333333333333337
vt 0.2104125 0.33333333333333337
vt 0.2104125 0.6666666666666667
vt 0 1
vt 0 0.6666666666666667
vt 0.2104125 0.6666666666666667
vt 0.2104125 1
vt 0 0.6666666666666667
vt 0 0.33333333333333337
vt 0.2104125 0.33333333333333337
vt 0.2104125 0.6666666666666667
vt 0 1
vt 0 0.6666666666666667
vt 0.2104125 0.6666666666666667
vt 0.2104125 1
vt 0 0.6666666666666667
vt 0 0.33333333333333337
vt 0.2104125 0.33333333333333337
vt 0.2104125 0.6666666666666667
vt 0 1
vt 0 0.6666666666666667
vt 0.2104125 0.6666666666666667
vt 0.2104125 1
vt 0 0.6666666666666667
vt 0 0.33333333333333337
vt 0.2104125 0.33333333333333337
vt 0.2104125 0.6666666666666667
vt 0 1
vt 0 0.6666666666666667
vt 0.2104125 0.6666666666666667
vt 0.2104125 1
vt 0 0.6666666666666667
vt 0 0.33333333333333337
vt 0.2104125 0.33333333333333337
vt 0.2104125 0.6666666666666667
vt 0 1
vt 0 0.6666666666666667
vt 0.2104125 0.6666666666666667
vt 0.2104125 1
vt 0 0.6666666666666667
vt 0 0.33333333333333337
vt 0.2104125 0.33333333333333337
vt 0.2104125 0.6666666666666667
vt 0 1
vt 0 0.6666666666666667
vt 0.2104125 0.6666666666666667
vt 0.2104125 1
vt 0 0.6666666666666667
vt 0 0.33333333333333337
vt 0.2104125 0.33333333333333337
vt 0.2104125 0.6666666666666667
vt 0 1
vt 0 0.6666666666666667
vt 0.2104125 0.6666666666666667
vt 0.2104125 1
vt 0 0.6666666666666667
vt 0 0.33333333333333337
vt 0.2104125 0.33333333333333337
vt 0.2104125 0.6666666666666667
vt 0.06250000000000067 0.7499999999999994
vt 0.06250000000000067 0.4166687499999995
vt 0.12500000000000067 0.4166687499999995
vt 0.12500000000000067 0.7499999999999994
vt 0 0.6250000000000007
vt 0.2104125 0.6250000000000007
vt 0.2104125 0.6875000000000007
vt 0 0.6875000000000007
vt 0.0625 0.4166687499999995
vt 0.0625 0.7499999999999994
vt 0 0.7499999999999994
vt 0 0.4166687499999995
vt 0.2104125 0.5624999999999993
vt 0 0.5624999999999993
vt 0 0.49999999999999933
vt 0.2104125 0.49999999999999933
vt 0.06250000000000067 0.7499999999999994
vt 0.06250000000000067 0.4166687499999995
vt 0.12500000000000067 0.4166687499999995
vt 0.12500000000000067 0.7499999999999994
vt 0.12499999999999933 0.6020874999999981
vt 0.12499999999999933 0.812499999999998
vt 0.062499999999999334 0.812499999999998
vt 0.062499999999999334 0.6020874999999981
vt 0.0625 0.4166687499999995
vt 0.0625 0.7499999999999994
vt 0 0.7499999999999994
vt 0 0.4166687499999995
vt 0.12499999999999933 0.4145874999999981
vt 0.12499999999999933 0.624999999999998
vt 0.062499999999999334 0.624999999999998
vt 0.062499999999999334 0.4145874999999981
vt 0.06250000000000067 0.7499999999999994
vt 0.06250000000000067 0.4166687499999995
vt 0.12500000000000067 0.4166687499999995
vt 0.12500000000000067 0.7499999999999994
vt 6.661338147750939e-16 0.812499999999998
vt 6.661338147750939e-16 0.6020874999999981
vt 0.06250000000000067 0.6020874999999981
vt 0.06250000000000067 0.812499999999998
vt 0.0625 0.4166687499999995
vt 0.0625 0.7499999999999994
vt 0 0.7499999999999994
vt 0 0.4166687499999995
vt 6.661338147750939e-16 0.624999999999998
vt 6.661338147750939e-16 0.4145874999999981
vt 0.06250000000000067 0.4145874999999981
vt 0.06250000000000067 0.624999999999998
vt 0.06250000000000067 0.7499999999999994
vt 0.06250000000000067 0.4166687499999995
vt 0.12500000000000067 0.4166687499999995
vt 0.12500000000000067 0.7499999999999994
vt 0.2104125 0.6874999999999993
vt 0 0.6874999999999993
vt 0 0.6249999999999993
vt 0.2104125 0.6249999999999993
vt 0.0625 0.4166687499999995
vt 0.0625 0.7499999999999994
vt 0 0.7499999999999994
vt 0 0.4166687499999995
vt 0 0.43750000000000067
vt 0.2104125 0.43750000000000067
vt 0.2104125 0.5000000000000007
vt 0 0.5000000000000007
vn 0.49999999999999983 0 0.8660254037844388
vn -0.5000000000000001 0 -0.8660254037844388
vn 0 -1 0
vn 0 1 0
vn 0.8660254037844387 0 0.49999999999999994
vn -0.8660254037844386 0 -0.5000000000000001
vn 0 -1 0
vn 0 1 0
vn 1 0 0
vn -1 0 0
vn 0 -1 0
vn 0.8660254037844387 0 -0.5
vn -0.8660254037844387 0 0.5000000000000002
vn 0 -1 0
vn 0 1 0
vn 0.5000000000000001 0 -0.8660254037844388
vn -0.5000000000000002 0 0.8660254037844387
vn 0 -1 0
vn 0 1 0
vn 4.143408735633879e-16 0 -1
vn 0 -1 0
vn -0.49999999999999967 0 -0.866025403784439
vn 0.4999999999999997 0 0.8660254037844389
vn 0 -1 0
vn 0 1 0
vn -0.8660254037844389 0 -0.4999999999999998
vn 0.8660254037844387 0 0.4999999999999999
vn 0 -1 0
vn 0 1 0
vn -1 0 -2.0717043678169412e-16
vn 1 0 0
vn 0 -1 0
vn -0.866025403784439 0 0.49999999999999967
vn 0.8660254037844388 0 -0.4999999999999998
vn 0 -1 0
vn 0 1 0
vn -0.49999999999999994 0 0.8660254037844388
vn 0.5000000000000002 0 -0.8660254037844386
vn 0 -1 0
vn 0 1 0
vn 0 0 1
vn 0 0 -1
vn 0 -1 0
vn 0.49999999999999983 0 0.8660254037844387
vn 0 0 1
vn 0 0 1
vn -0.49999999999999994 0 0.8660254037844387
vn -0.866025403784439 0 0.49999999999999967
vn -1 0 -2.071704367816941e-16
vn -1 0 -2.0717043678169412e-16
vn -0.8660254037844388 0 -0.4999999999999998
vn -0.49999999999999967 0 -0.866025403784439
vn 4.143408735633879e-16 0 -1
vn 4.143408735633879e-16 0 -1
vn 0.5000000000000001 0 -0.8660254037844387
vn 0.8660254037844387 0 -0.5
vn 1 0 0
vn 1 0 0
vn 0.8660254037844388 0 0.5
vn -8.491505195649038e-16 0 1
vn -5.276371344244937e-16 0 1
vn -5.276371344244936e-16 0 1
vn -0.5000000000000002 0 0.8660254037844386
vn -0.5000000000000002 0 0.8660254037844387
vn -0.8660254037844386 0 0.5000000000000002
vn -0.8660254037844387 0 0.5000000000000002
vn -1 0 0
vn -1 0 0
vn -0.8660254037844386 0 -0.5000000000000001
vn -0.8660254037844386 0 -0.5000000000000001
vn -0.5000000000000001 0 -0.8660254037844387
vn -0.5000000000000001 0 -0.8660254037844388
vn 0 0 -1
vn 0 0 -1
vn 0.5000000000000002 0 -0.8660254037844387
vn 0.5000000000000002 0 -0.8660254037844386
vn 0.8660254037844389 0 -0.4999999999999999
vn 0.8660254037844388 0 -0.4999999999999998
vn 1 0 2.6381856721224704e-16
vn 1 0 2.6381856721224704e-16
vn 0.8660254037844388 0 0.4999999999999999
vn 0.8660254037844387 0 0.4999999999999999
vn 0.4999999999999997 0 0.8660254037844388
vn 0.4999999999999997 0 0.8660254037844389
vn 0.9781686720286565 0 0.2078125334567063
vn -4.710239598274073e-16 0.8320502943378439 0.554700196225229
vn -0.9781686720286568 0 0.20781253345670564
vn 0 -1 0
vn 0.20781253345670608 0 -0.9781686720286565
vn 0.5547001962252291 0.8320502943378437 0
vn 0.20781253345670558 0 0.9781686720286568
vn 0 -1 0
vn -0.20781253345670603 0 0.9781686720286565
vn -0.5547001962252293 0.8320502943378438 0
vn -0.20781253345670625 0 -0.9781686720286565
vn 0 -1 0
vn -0.9781686720286565 0 -0.20781253345670603
vn 0 0.8320502943378437 -0.5547001962252291
vn 0.9781686720286565 0 -0.20781253345670608
vn 0 -1 0
usemtl m_43dd29cc-e91e-2ef9-5f80-4e5e7f5b8f72
f 94/221/57 144/222/57 143/223/57 98/224/57
f 95/225/58 178/226/58 176/227/58 99/228/58
f 95/229/59 99/230/59 97/231/59 93/232/59
f 94/233/60 98/234/60 100/235/60 96/236/60
f 98/237/61 143/238/61 164/239/61 102/240/61
f 99/241/62 176/242/62 174/243/62 103/244/62
f 99/245/63 103/246/63 101/247/63 97/248/63
f 98/249/64 102/250/64 104/251/64 100/252/64
f 102/253/65 164/254/65 162/255/65 106/256/65
f 197/257/66 199/258/66 198/259/66 200/260/66
f 103/261/67 107/262/67 105/263/67 101/264/67
f 106/265/68 162/266/68 160/267/68 110/268/68
f 107/269/69 172/270/69 170/271/69 111/272/69
f 107/273/70 111/274/70 109/275/70 105/276/70
f 106/277/71 110/278/71 112/279/71 108/280/71
f 110/281/72 160/282/72 158/283/72 114/284/72
f 111/285/73 170/286/73 168/287/73 115/288/73
f 111/289/74 115/290/74 113/291/74 109/292/74
f 110/293/75 114/294/75 116/295/75 112/296/75
f 114/297/76 158/298/76 156/299/76 118/300/76
f 115/301/77 119/302/77 117/303/77 113/304/77
f 118/305/78 156/306/78 154/307/78 122/308/78
f 119/309/79 167/310/79 188/311/79 123/312/79
f 119/313/80 123/314/80 121/315/80 117/316/80
f 118/317/81 122/318/81 124/319/81 120/320/81
f 122/321/82 154/322/82 152/323/82 126/324/82
f 123/325/83 188/326/83 186/327/83 127/328/83
f 123/329/84 127/330/84 125/331/84 121/332/84
f 122/333/85 126/334/85 128/335/85 124/336/85
f 126/337/86 152/338/86 150/339/86 130/340/86
f 193/341/87 195/342/87 194/343/87 196/344/87
f 127/345/88 131/346/88 129/347/88 125/348/88
f 130/349/89 150/350/89 148/351/89 134/352/89
f 131/353/90 184/354/90 182/355/90 135/356/90
f 131/357/91 135/358/91 133/359/91 129/360/91
f 130/361/92 134/362/92 136/363/92 132/364/92
f 134/365/93 148/366/93 146/367/93 138/368/93
f 135/369/94 182/370/94 180/371/94 139/372/94
f 135/373/95 139/374/95 137/375/95 133/376/95
f 134/377/96 138/378/96 140/379/96 136/380/96
f 138/381/97 146/382/97 144/383/97 94/384/97
f 201/385/98 203/386/98 202/387/98 204/388/98
f 139/389/99 95/390/99 93/391/99 137/392/99
f 97/393/100 141/394/100 142/395/100 93/396/100
f 93/397/101 142/398/101 145/399/101 137/400/101
f 142/401/102 144/402/102 146/403/102 145/404/102
f 137/405/103 145/406/103 147/407/103 133/408/103
f 133/409/104 147/410/104 149/411/104 129/412/104
f 129/413/105 149/414/105 151/415/105 125/416/105
f 149/417/106 150/418/106 152/419/106 151/420/106
f 125/421/107 151/422/107 153/423/107 121/424/107
f 121/425/108 153/426/108 155/427/108 117/428/108
f 117/429/109 155/430/109 157/431/109 113/432/109
f 155/433/110 156/434/110 158/435/110 157/436/110
f 113/437/111 157/438/111 159/439/111 109/440/111
f 109/441/112 159/442/112 161/443/112 105/444/112
f 105/445/113 161/446/113 163/447/113 101/448/113
f 161/449/114 162/450/114 164/451/114 163/452/114
f 101/453/115 163/454/115 141/455/115 97/456/115
f 189/457/116 191/458/116 190/459/116 192/460/116
f 120/461/117 165/462/117 166/463/117 116/464/117
f 165/465/118 167/466/118 168/467/118 166/468/118
f 116/469/119 166/470/119 169/471/119 112/472/119
f 166/473/120 168/474/120 170/475/120 169/476/120
f 112/477/121 169/478/121 171/479/121 108/480/121
f 169/481/122 170/482/122 172/483/122 171/484/122
f 108/485/123 171/486/123 173/487/123 104/488/123
f 171/489/124 172/490/124 174/491/124 173/492/124
f 104/493/125 173/494/125 175/495/125 100/496/125
f 173/497/126 174/498/126 176/499/126 175/500/126
f 100/501/127 175/502/127 177/503/127 96/504/127
f 175/505/128 176/506/128 178/507/128 177/508/128
f 96/509/129 177/510/129 179/511/129 140/512/129
f 177/513/130 178/514/130 180/515/130 179/516/130
f 140/517/131 179/518/131 181/519/131 136/520/131
f 179/521/132 180/522/132 182/523/132 181/524/132
f 136/525/133 181/526/133 183/527/133 132/528/133
f 181/529/134 182/530/134 184/531/134 183/532/134
f 132/533/135 183/534/135 185/535/135 128/536/135
f 183/537/136 184/538/136 186/539/136 185/540/136
f 128/541/137 185/542/137 187/543/137 124/544/137
f 185/545/138 186/546/138 188/547/138 187/548/138
f 124/549/139 187/550/139 165/551/139 120/552/139
f 187/553/140 188/554/140 167/555/140 165/556/140
f 191/557/141 189/558/141 115/559/141 168/560/141
f 190/561/142 191/562/142 168/563/142 167/564/142
f 192/565/143 190/566/143 167/567/143 119/568/143
f 189/569/144 192/570/144 119/571/144 115/572/144
f 195/573/145 193/574/145 127/575/145 186/576/145
f 194/577/146 195/578/146 186/579/146 184/580/146
f 196/581/147 194/582/147 184/583/147 131/584/147
f 193/585/148 196/586/148 131/587/148 127/588/148
f 199/589/149 197/590/149 103/591/149 174/592/149
f 198/593/150 199/594/150 174/595/150 172/596/150
f 200/597/151 198/598/151 172/599/151 107/600/151
f 197/601/152 200/602/152 107/603/152 103/604/152
f 203/605/153 201/606/153 139/607/153 180/608/153
f 202/609/154 203/610/154 180/611/154 178/612/154
f 204/613/155 202/614/155 178/615/155 95/616/155
f 201/617/156 204/618/156 95/619/156 139/620/156