# Made in Blockbench 4.10.4
mtllib MAG2.mtl

o beveled_cuboid
v 0.375 0 0.375
v 0.375 0 -0.375
v -0.375 0 0.375
v -0.375 0 -0.375
v 0.375 -0.5 0.375
v 0.375 -0.5 -0.375
v -0.375 -0.5 0.375
v -0.375 -0.5 -0.375
v -0.5 -0.375 0.375
v -0.5 0 0.375
v -0.5 -0.375 -0.375
v -0.5 0 -0.375
v 0.5 -0.375 0.375
v 0.5 0 0.375
v 0.5 -0.375 -0.375
v 0.5 0 -0.375
v 0.375 -0.375 -0.5
v 0.375 0 -0.5
v -0.375 -0.375 -0.5
v -0.375 0 -0.5
v 0.375 -0.375 0.5
v 0.375 0 0.5
v -0.375 -0.375 0.5
v -0.375 0 0.5
v 0.25 -0.34375 0.5
v 0.25 -0.03125 0.5
v -0.25 -0.03125 0.5
v -0.25 -0.34375 0.5
v 0.5 -0.03125 0.25
v 0.5 -0.34375 0.25
v 0.5 -0.03125 -0.25
v 0.5 -0.34375 -0.25
v 0.25 -0.03125 -0.5
v 0.25 -0.34375 -0.5
v -0.25 -0.03125 -0.5
v -0.25 -0.34375 -0.5
v -0.5 -0.34375 0.25
v -0.5 -0.03125 0.25
v -0.5 -0.03125 -0.25
v -0.5 -0.34375 -0.25
vt 0.75 0.25
vt 0.75 1
vt 0 1
vt 0 0.25
vt 0 0.25
vt 0.75 0.25
vt 0.75 1
vt 0 1
vt 0.75 1
vt 0 1
vt 0 0.823225
vt 0.75 0.823225
vt 0.75 0.823225
vt 0.75 1
vt 0 1
vt 0 0.823225
vt 0.75 0.823225
vt 0.75 1
vt 0 1
vt 0 0.823225
vt 0.75 1
vt 0 1
vt 0 0.823225
vt 0.75 0.823225
vt 0 1
vt 0 0.82321875
vt 0.75 0.82321875
vt 0.75 1
vt 0 0.82321875
vt 0.75 0.82321875
vt 0.75 1
vt 0 1
vt 0 0.82321875
vt 0.75 0.82321875
vt 0.75 1
vt 0 1
vt 0 1
vt 0 0.82321875
vt 0.75 0.82321875
vt 0.75 1
vt 0.6875 0.90625
vt 0.6875 0.71875
vt 0.875 0.625
vt 0.875 1
vt 0.1875 0.90625
vt 0.5625 0.90625
vt 0.75 1
vt 0 1
vt 0.1875 0.71875
vt 0.1875 0.90625
vt 0 1
vt 0 0.625
vt 0.5625 0.75
vt 0.1875 0.75
vt 0 0.65625
vt 0.75 0.65625
vt 0.1875 0.90625
vt 0.5625 0.90625
vt 0.75 1
vt 0 1
vt 0.1875 0.71875
vt 0.1875 0.90625
vt 0 1
vt 0 0.625
vt 0.5625 0.75
vt 0.1875 0.75
vt 0 0.65625
vt 0.75 0.65625
vt 0.6875 0.90625
vt 0.6875 0.71875
vt 0.875 0.625
vt 0.875 1
vt 0.1875 0.90625
vt 0.5625 0.90625
vt 0.75 1
vt 0 1
vt 0.1875 0.71875
vt 0.1875 0.90625
vt 0 1
vt 0 0.625
vt 0.5625 0.75
vt 0.1875 0.75
vt 0 0.65625
vt 0.75 0.65625
vt 0.6875 0.90625
vt 0.6875 0.71875
vt 0.875 0.625
vt 0.875 1
vt 0.6875 0.90625
vt 0.6875 0.71875
vt 0.875 0.625
vt 0.875 1
vt 0.1875 0.90625
vt 0.5625 0.90625
vt 0.75 1
vt 0 1
vt 0.1875 0.71875
vt 0.1875 0.90625
vt 0 1
vt 0 0.625
vt 0.5625 0.75
vt 0.1875 0.75
vt 0 0.65625
vt 0.75 0.65625
vn 0 1 0
vn 0 -1 0
vn 0 1 0
vn 0 1 0
vn 0 1 0
vn 0 1 0
vn 0.7071067811865476 -0.7071067811865476 0
vn -0.7071067811865476 -0.7071067811865476 0
vn 0 -0.7071067811865476 0.7071067811865476
vn 0 -0.7071067811865476 -0.7071067811865476
vn 0 0 1
vn 0 0 1
vn 0 0 1
vn 0 0 1
vn 1 0 0
vn 1 0 0
vn 1 0 0
vn 1 0 0
vn 0 0 -1
vn 0 0 -1
vn 0 0 -1
vn 0 0 -1
vn -1 0 0
vn -1 0 0
vn -1 0 0
vn -1 0 0
usemtl m_2d3bc462-14d0-9be1-07c7-f0385d1e0a58
f 1/1/1 2/2/1 4/3/1 3/4/1
f 8/5/2 6/6/2 5/7/2 7/8/2
f 2/9/3 1/10/3 14/11/3 16/12/3
f 10/13/4 3/14/4 4/15/4 12/16/4
f 22/17/5 1/18/5 3/19/5 24/20/5
f 4/21/6 2/22/6 18/23/6 20/24/6
f 13/25/7 5/26/7 6/27/7 15/28/7
f 8/29/8 7/30/8 9/31/8 11/32/8
f 7/33/9 5/34/9 21/35/9 23/36/9
f 17/37/10 6/38/10 8/39/10 19/40/10
f 26/41/11 25/42/11 21/43/11 22/44/11
f 27/45/12 26/46/12 22/47/12 24/48/12
f 28/49/13 27/50/13 24/51/13 23/52/13
f 25/53/14 28/54/14 23/55/14 21/56/14
f 29/57/15 31/58/15 16/59/15 14/60/15
f 30/61/16 29/62/16 14/63/16 13/64/16
f 32/65/17 30/66/17 13/67/17 15/68/17
f 31/69/18 32/70/18 15/71/18 16/72/18
f 33/73/19 35/74/19 20/75/19 18/76/19
f 34/77/20 33/78/20 18/79/20 17/80/20
f 36/81/21 34/82/21 17/83/21 19/84/21
f 35/85/22 36/86/22 19/87/22 20/88/22
f 38/89/23 37/90/23 9/91/23 10/92/23
f 39/93/24 38/94/24 10/95/24 12/96/24
f 40/97/25 39/98/25 12/99/25 11/100/25
f 37/101/26 40/102/26 11/103/26 9/104/26
o cylinder
v 0.13397459621556132 0.0625 0.49999999999999994
v 0.13397459621556132 0.4375 0.49999999999999994
v 0.3660254037844386 0.0625 0.36602540378443865
v 0.3660254037844386 0.4375 0.36602540378443865
v 0.49999999999999994 0.0625 0.13397459621556132
v 0.49999999999999994 0.4375 0.13397459621556132
v 0.49999999999999994 0.0625 -0.13397459621556138
v 0.49999999999999994 0.4375 -0.13397459621556138
v 0.36602540378443865 0.0625 -0.3660254037844386
v 0.36602540378443865 0.4375 -0.3660254037844386
v 0.1339745962155615 0.0625 -0.4999999999999999
v 0.1339745962155615 0.4375 -0.4999999999999999
v -0.13397459621556113 0.0625 -0.5
v -0.13397459621556113 0.4375 -0.5
v -0.3660254037844386 0.0625 -0.3660254037844387
v -0.3660254037844386 0.4375 -0.3660254037844387
v -0.49999999999999994 0.0625 -0.13397459621556126
v -0.49999999999999994 0.4375 -0.13397459621556126
v -0.5 0.0625 0.1339745962155611
v -0.5 0.4375 0.1339745962155611
v -0.3660254037844387 0.0625 0.36602540378443854
v -0.3660254037844387 0.4375 0.36602540378443854
v -0.1339745962155613 0.0625 0.49999999999999994
v -0.1339745962155613 0.4375 0.49999999999999994
v 0.37499999999999994 0.5 -0.10048094716167102
v 0.274519052838329 0.5 -0.27451905283832895
v 0.10048094716167111 0.5 -0.3749999999999999
v -0.10048094716167084 0.5 -0.375
v -0.27451905283832895 0.5 -0.274519052838329
v -0.37499999999999994 0.5 -0.10048094716167094
v -0.375 0.5 0.10048094716167083
v -0.274519052838329 0.5 0.2745190528383289
v -0.10048094716167097 0.5 0.37499999999999994
v 0.100480947161671 0.5 0.37499999999999994
v 0.27451905283832895 0.5 0.274519052838329
v 0.37499999999999994 0.5 0.100480947161671
v 0.10048094716167111 0 -0.3749999999999999
v 0.274519052838329 0 -0.27451905283832895
v 0 0 0
v -0.10048094716167084 0 -0.375
v -0.27451905283832895 0 -0.274519052838329
v -0.37499999999999994 0 -0.10048094716167094
v -0.375 0 0.10048094716167083
v -0.274519052838329 0 0.2745190528383289
v -0.10048094716167097 0 0.37499999999999994
v 0.100480947161671 0 0.37499999999999994
v 0.27451905283832895 0 0.274519052838329
v 0.37499999999999994 0 0.100480947161671
v 0.37499999999999994 0 -0.10048094716167102
v 0.35524862872442925 -0.11840169943749473 0.08858578835863093
v 0.35524862872442925 -0.11840169943749473 -0.08858578835863097
v 0.4654508497187473 -0.05590169943749474 -0.11811438447817464
v 0.4654508497187473 -0.05590169943749474 0.11811438447817457
v 0.08858578835863104 -0.11840169943749473 -0.3552486287244292
v -0.0885857883586308 -0.11840169943749473 -0.3552486287244293
v -0.11811438447817439 -0.055901699437494734 -0.4654508497187474
v 0.11811438447817474 -0.055901699437494734 -0.4654508497187474
v -0.35524862872442925 -0.11840169943749473 -0.08858578835863092
v -0.3552486287244293 -0.11840169943749473 0.08858578835863078
v -0.4654508497187474 -0.05590169943749474 0.11811438447817438
v -0.4654508497187474 -0.05590169943749474 -0.11811438447817453
v -0.08858578835863093 -0.11840169943749475 0.35524862872442925
v 0.08858578835863093 -0.11840169943749475 0.35524862872442925
v 0.11811438447817457 -0.05590169943749475 0.4654508497187473
v -0.11811438447817456 -0.05590169943749475 0.4654508497187473
v -0.050240473580835346 0.484375 -0.40625
v 0.05024047358083563 0.484375 -0.4062499999999999
v 0.06698729810778084 0.4375 -0.4999999999999999
v -0.06698729810778048 0.4375 -0.5
v 0.06698729810778084 0.15625 -0.49999999999999994
v -0.06698729810778048 0.15625 -0.5
v -0.40625 0.484375 0.05024047358083538
v -0.40625 0.484375 -0.050240473580835505
v -0.49999999999999994 0.4375 -0.06698729810778067
v -0.5 0.4375 0.06698729810778051
v -0.5 0.15625 -0.06698729810778067
v -0.5 0.15625 0.06698729810778051
v 0.050240473580835505 0.484375 0.40624999999999994
v -0.05024047358083548 0.484375 0.40624999999999994
v -0.06698729810778065 0.4375 0.49999999999999994
v 0.06698729810778067 0.4375 0.49999999999999994
v -0.06698729810778065 0.15625 0.49999999999999994
v 0.06698729810778067 0.15625 0.49999999999999994
v 0.40624999999999994 0.484375 -0.050240473580835526
v 0.40624999999999994 0.484375 0.050240473580835485
v 0.49999999999999994 0.4375 0.06698729810778065
v 0.49999999999999994 0.4375 -0.0669872981077807
v 0.49999999999999994 0.15625 0.06698729810778065
v 0.49999999999999994 0.15625 -0.0669872981077807
vt 0.4507281393757091 0.7433859303121437
vt 0.3987160162020561 0.9374999999999983
vt 0.0625 0.7433859303121437
vt 0 0.5
vt 0.26795 0.5
vt 0.26795 1
vt 0 1
vt 0.45072864603421847 0.7433861836410713
vt 0.39871557742272506 0.9375000000000018
vt 0.0625 0.7433861836410713
vt 0 0.5
vt 0.26795 0.5
vt 0.26795 1
vt 0 1
vt 0.4375 0.7990374999999986
vt 0.4375 0.9999999999999986
vt 0.0625 0.8995187499999986
vt 2.7755575615628914e-17 0.5492718606242909
vt 0.19411406968785458 0.6012839837979439
vt 0 0.9375
vt 0 0.5
vt 0.26795 0.5
vt 0.26795 1
vt 0 1
vt 0 0.5492713539657815
vt 0.19411381635893044 0.6012844225772749
vt 6.938893903907228e-17 0.9375
vt 0 0.5
vt 0.26795 0.5
vt 0.26795 1
vt 0 1
vt 1.4155343563970746e-15 0.5625
vt 0.2009625000000014 0.5625
vt 0.10048125000000141 0.9375
vt 0.06250000000000344 1
vt 0.11451212317365644 0.8058859303121454
vt 0.45072813937571254 1
vt 0 0.5
vt 0.26795 0.5
vt 0.26795 1
vt 0 1
vt 0.062500000000003 1
vt 0.1145130686114964 0.8058861836410696
vt 0.45072864603422147 0.9999999999999999
vt 0 0.5
vt 0.26795 0.5
vt 0.26795 1
vt 0 1
vt 0.0625 0.9999999999999986
vt 0.0625 0.7990374999999986
vt 0.4375 0.8995187499999986
vt 0.25661406968785627 0.9374999999999966
vt 0.0625000000000017 0.8854878768263436
vt 0.25661406968785627 0.5492718606242875
vt 0 0.5
vt 0.26795 0.5
vt 0.26795 1
vt 0 1
vt 0.25661381635892855 0.937499999999997
vt 0.06249999999999811 0.8854869313885035
vt 0.25661381635892866 0.5492713539657785
vt 0 0.5
vt 0.26795 0.5
vt 0.26795 1
vt 0 1
vt 0.2009625000000014 0.9375
vt 1.4155343563970746e-15 0.9375
vt 0.10048125000000141 0.5625
vt 0.43750000000000233 0.9665067393948301
vt 0.4375000000000023 0.7655452181829014
vt 0.5624999562886314 0.7320513050507617
vt 0.5624999562886315 1
vt 0.4375000000000022 0.9665060868678571
vt 0.43750000000000233 0.7655445656559283
vt 0.5624999562886314 0.7320513050507585
vt 0.5624999562886313 0.9999999999999969
vt 0.03349326060516983 0.8750000437113693
vt 0.23445478181709856 0.8750000437113692
vt 0.26794869494923834 0.9999999999999983
vt 0 0.9999999999999984
vt 0.03349391313213963 0.8750000437113694
vt 0.2344554343440684 0.8750000437113692
vt 0.2679486949492383 0.9999999999999982
vt 0 0.9999999999999984
vt 0.12499995628863075 0.7655445656559281
vt 0.1249999562886307 0.9665060868678569
vt 1.609823385706477e-15 0.9999999999999967
vt 1.6653345369377348e-15 0.7320513050507582
vt 0.12499995628863081 0.7655452181829014
vt 0.1249999562886307 0.9665067393948302
vt 1.6653345369377348e-15 1
vt 1.7208456881689926e-15 0.7320513050507617
vt 0.23445543434407168 0.5624999999999977
vt 0.033493913132142936 0.5624999999999978
vt 3.164135620181696e-15 0.43750004371136864
vt 0.2679486949492415 0.4375000437113685
vt 0.23445478181709853 0.5624999999999978
vt 0.0334932606051698 0.5624999999999977
vt 0 0.43750004371136864
vt 0.26794869494923834 0.43750004371136875
vt 0.23445543434407168 0.5624999999999977
vt 0.033493913132142936 0.5624999999999978
vt 3.164135620181696e-15 0.43750004371136864
vt 0.2679486949492415 0.4375000437113685
vt 0.23445625 0.5625
vt 0.03349375000000002 0.5625
vt 0 0.4375
vt 0.26795 0.4375
vt 0.12499995628863081 0.7655452181829014
vt 0.1249999562886307 0.9665067393948302
vt 1.6653345369377348e-15 1
vt 1.7208456881689926e-15 0.7320513050507617
vt 0.12499995628863075 0.7655445656559281
vt 0.1249999562886307 0.9665060868678569
vt 1.609823385706477e-15 0.9999999999999967
vt 1.6653345369377348e-15 0.7320513050507582
vt 0.125 0.76554375
vt 0.125 0.96650625
vt 0 1
vt 0 0.73205
vt 0.03349391313213963 0.8750000437113694
vt 0.2344554343440684 0.8750000437113692
vt 0.2679486949492383 0.9999999999999982
vt 0 0.9999999999999984
vt 0.03349326060516983 0.8750000437113693
vt 0.23445478181709856 0.8750000437113692
vt 0.26794869494923834 0.9999999999999983
vt 0 0.9999999999999984
vt 0.03349375000000002 0.875
vt 0.23445625 0.875
vt 0.26795 1
vt 0 1
vt 0.4375000000000022 0.9665060868678571
vt 0.43750000000000233 0.7655445656559283
vt 0.5624999562886314 0.7320513050507585
vt 0.5624999562886313 0.9999999999999969
vt 0.43750000000000233 0.9665067393948301
vt 0.4375000000000023 0.7655452181829014
vt 0.5624999562886314 0.7320513050507617
vt 0.5624999562886315 1
vt 0.4375 0.96650625
vt 0.4375 0.76554375
vt 0.5625 0.73205
vt 0.5625 1
vt 0.23445478181709853 0.5624999999999978
vt 0.0334932606051698 0.5624999999999977
vt 0 0.43750004371136864
vt 0.26794869494923834 0.43750004371136875
vt 0.12500000000000142 0.875000000000002
vt 0.3259625000000014 0.875000000000002
vt 0.3259625000000014 0.937500000000002
vt 0.12500000000000142 0.937500000000002
vt 0.18750000000000006 0.9374999999999967
vt 0.18750000000000006 0.7937874959228461
vt 0.2500047388655912 0.7937889645124365
vt 0.24999911810598727 0.9374987355397385
vt 0.1874999999999995 0.875000000000002
vt 0.4554499999999995 0.875000000000002
vt 0.4554499999999995 0.937500000000002
vt 0.1874999999999995 0.937500000000002
vt 0.18749999999999667 0.9374952611344085
vt 0.3312125040771472 0.9374952611344085
vt 0.33121123961688903 0.9999943792403958
vt 0.18750146858958705 0.9999999999999997
vt 0 0.750000000000002
vt 0.2009625 0.750000000000002
vt 0.2009625 0.812500000000002
vt 0 0.812500000000002
vt 0 0.8124999999999967
vt 0 0.6687874959228461
vt 0.06250473886559116 0.6687889645124365
vt 0.06249911810598721 0.8124987355397385
vt 0 0.687500000000002
vt 0.26795 0.687500000000002
vt 0.26795 0.750000000000002
vt 0 0.750000000000002
vt 0.06249999999999667 0.6874952611344085
vt 0.2062125040771472 0.6874952611344085
vt 0.20621123961688903 0.7499943792403958
vt 0.06250146858958705 0.7499999999999997
vt 0 0.875000000000002
vt 0.2009625 0.875000000000002
vt 0.2009625 0.937500000000002
vt 0 0.937500000000002
vt 5.551115123125783e-17 1
vt 5.551115123125783e-17 0.8562874959228495
vt 0.06250473886559121 0.8562889645124399
vt 0.06249911810598727 0.999998735539742
vt 0 0.875000000000002
vt 0.26795 0.875000000000002
vt 0.26795 0.937500000000002
vt 0 0.937500000000002
vt 0 0.8124952611344085
vt 0.14371250407715053 0.8124952611344085
vt 0.14371123961689236 0.8749943792403958
vt 0.0000014685895903809865 0.8749999999999997
vt 0 0.875000000000002
vt 0.2009625 0.875000000000002
vt 0.2009625 0.937500000000002
vt 0 0.937500000000002
vt 0.06250000000000006 1
vt 0.06250000000000006 0.8562874959228495
vt 0.12500473886559121 0.8562889645124399
vt 0.12499911810598727 0.999998735539742
vt 0 0.9375
vt 0.26795 0.9375
vt 0.26795 1
vt 0 1
vt 0 0.9374952611344085
vt 0.14371250407715053 0.9374952611344085
vt 0.14371123961689236 0.9999943792403958
vt 0.0000014685895903809865 0.9999999999999997
vt 0.05024375000000142 0.8400625000000008
vt 0.1507187500000014 0.8400625000000008
vt 0.2009625000000014 0.8750000000000008
vt 1.4155343563970746e-15 0.8750000000000008
vt 0.25448749999999953 0.86025
vt 0.2712374999999995 0.9650624999999999
vt 0.22099374999999952 1
vt 0.1874999999999995 0.86025
vt 0 0.9650624999999999
vt 0.016750000000000008 0.86025
vt 0.08373750000000002 0.86025
vt 0.05024375 1
vt 0.20096250000000002 0.5
vt 0.0669875 0.5
vt 0 0.40625
vt 0.26795 0.40625
vt 0.2499999999999967 0.9375
vt 0.2499999999999967 0.65625
vt 0.3169874999999967 0.5625
vt 0.3169874999999967 0.9375
vt 0.0669875 0.65625
vt 0.0669875 0.9375
vt 0 0.9375
vt 0 0.5625
vt 0.05024375000000142 0.8400625000000008
vt 0.1507187500000014 0.8400625000000008
vt 0.2009625000000014 0.8750000000000008
vt 1.4155343563970746e-15 0.8750000000000008
vt 0.0669875 0.86025
vt 0.08373750000000002 0.9650624999999999
vt 0.03349375000000002 1
vt 0 0.86025
vt 0.06249999999999851 0.7775625000000008
vt 0.07924999999999852 0.6727500000000008
vt 0.14623749999999852 0.6727500000000008
vt 0.1127437499999985 0.8125000000000008
vt 0.20096250000000002 0.5
vt 0.0669875 0.5
vt 0 0.40625
vt 0.26795 0.40625
vt 0.2499999999999967 0.9375
vt 0.2499999999999967 0.65625
vt 0.3169874999999967 0.5625
vt 0.3169874999999967 0.9375
vt 0.0669875 0.65625
vt 0.0669875 0.9375
vt 0 0.9375
vt 0 0.5625
vt 0.05024375000000142 0.5275625000000008
vt 0.1507187500000014 0.5275625000000008
vt 0.2009625000000014 0.5625000000000008
vt 1.4155343563970746e-15 0.5625000000000008
vt 0.0669875 0.42275000000000085
vt 0.08373750000000002 0.5275625000000008
vt 0.03349375000000002 0.5625000000000008
vt 0 0.42275000000000085
vt 0.2499999999999985 0.5275625000000008
vt 0.2667499999999985 0.42275000000000085
vt 0.3337374999999985 0.42275000000000085
vt 0.3002437499999985 0.5625000000000008
vt 0.20096250000000002 0.5
vt 0.0669875 0.5
vt 0 0.40625
vt 0.26795 0.40625
vt 0.2499999999999967 0.9375
vt 0.2499999999999967 0.65625
vt 0.3169874999999967 0.5625
vt 0.3169874999999967 0.9375
vt 0.0669875 0.65625
vt 0.0669875 0.9375
vt 0 0.9375
vt 0 0.5625
vt 0.3627437500000014 0.8400625000000008
vt 0.4632187500000014 0.8400625000000008
vt 0.5134625000000014 0.8750000000000008
vt 0.31250000000000144 0.8750000000000008
vt 0.5044874999999995 0.6727500000000008
vt 0.5212374999999995 0.7775625000000008
vt 0.47099374999999954 0.8125000000000008
vt 0.4374999999999995 0.6727500000000008
vt 0.4999999999999985 0.9650624999999999
vt 0.5167499999999985 0.86025
vt 0.5837374999999985 0.86025
vt 0.5502437499999985 1
vt 0.20096250000000002 0.5
vt 0.0669875 0.5
vt 0 0.40625
vt 0.26795 0.40625
vt 0.2499999999999967 0.9375
vt 0.2499999999999967 0.65625
vt 0.3169874999999967 0.5625
vt 0.3169874999999967 0.9375
vt 0.0669875 0.65625
vt 0.0669875 0.9375
vt 0 0.9375
vt 0 0.5625
vn 0 -1 0
vn 0.4999999999999999 0 0.8660254037844387
vn 0 -1 0
vn 0.8660254037844387 0 0.49999999999999994
vn 0 -1 0
vn 0 -1 0
vn 0.8660254037844387 0 -0.49999999999999994
vn 0 -1 0
vn 0.5000000000000001 0 -0.8660254037844386
vn 0 -1 0
vn 0 -1 0
vn -0.4999999999999995 0 -0.8660254037844389
vn 0 -1 0
vn -0.8660254037844388 0 -0.4999999999999997
vn 0 -1 0
vn 0 -1 0
vn -0.8660254037844389 0 0.4999999999999996
vn 0 -1 0
vn -0.49999999999999994 0 0.8660254037844387
vn 0 -1 0
vn 0.3872983346207417 0.894427190999916 -0.22360679774997888
vn 0.22360679774997896 0.8944271909999159 -0.3872983346207418
vn -0.22360679774997885 0.8944271909999161 -0.38729833462074187
vn -0.38729833462074187 0.8944271909999161 -0.2236067977499789
vn -0.3872983346207418 0.8944271909999159 0.2236067977499789
vn -0.22360679774997896 0.8944271909999159 0.3872983346207417
vn 0.22360679774997888 0.894427190999916 0.38729833462074176
vn 0.38729833462074187 0.8944271909999161 0.223606797749979
vn 0.22360679774997896 -0.8944271909999161 -0.3872983346207418
vn 3.091349674361629e-16 -0.8698458240044654 -0.49332366906726965
vn -0.22360679774997885 -0.8944271909999161 -0.38729833462074187
vn -0.38729833462074187 -0.8944271909999161 -0.2236067977499789
vn -0.49332366906726954 -0.8698458240044653 -1.5456748371808158e-16
vn -0.3872983346207418 -0.8944271909999161 0.22360679774997888
vn -0.22360679774997896 -0.8944271909999159 0.3872983346207417
vn 0 -0.8698458240044653 0.4933236690672698
vn 0.2236067977499789 -0.8944271909999159 0.3872983346207418
vn 0.3872983346207418 -0.8944271909999161 0.22360679774997896
vn 0.4933236690672696 -0.8698458240044652 0
vn 0.38729833462074187 -0.8944271909999161 -0.22360679774997896
vn -0.9863699280526756 0.16454289724372706 0
vn -0.22653044163815814 -0.05987863198405927 -0.9721617707166532
vn 0.9599666027091932 -0.28011447960248337 0
vn -0.2237202643979404 -0.06498609946969151 0.9724844729729268
vn -6.180960993926994e-16 0.16454289724372712 0.9863699280526756
vn -0.9721617707166536 -0.059878631984059294 0.22653044163815736
vn 0 -0.2801144796024829 -0.9599666027091933
vn 0.9724844729729268 -0.06498609946969187 0.22372026439794038
vn 0.9863699280526756 0.16454289724372706 3.0904804969635e-16
vn 0.22653044163815741 -0.059878631984059405 0.9721617707166536
vn -0.9599666027091933 -0.2801144796024829 0
vn 0.22372026439793974 -0.06498609946969185 -0.9724844729729268
vn 0 0.16454289724372703 -0.9863699280526756
vn 0.9721617707166533 -0.059878631984059426 -0.22653044163815783
vn 0 -0.2801144796024833 0.9599666027091932
vn -0.9724844729729268 -0.06498609946969153 -0.22372026439794035
vn 4.941303248770024e-16 0.8944271909999162 -0.44721359549995726
vn 0 0.8944271909999161 -0.44721359549995804
vn 0 0.8944271909999161 -0.44721359549995804
vn 4.143408735633878e-16 -2.960594732333751e-16 -1
vn 0 0 -1
vn 0 1.973729821555834e-16 -1
vn -0.44721359549995804 0.8944271909999161 0
vn -0.44721359549995815 0.894427190999916 -5.929563898524045e-16
vn -0.44721359549995804 0.8944271909999161 0
vn -1 -5.921189464667501e-16 0
vn -1 0 0
vn -1 1.9737298215558337e-16 0
vn 0 0.894427190999916 0.447213595499958
vn 0 0.8944271909999161 0.44721359549995804
vn 0 0.894427190999916 0.447213595499958
vn 0 0 1
vn 0 0 1
vn 0 0 1
vn 0.44721359549995804 0.8944271909999161 0
vn 0.447213595499958 0.894427190999916 0
vn 0.44721359549995804 0.8944271909999161 0
vn 1 0 0
vn 1 0 0
vn 1 0 0
usemtl m_2d3bc462-14d0-9be1-07c7-f0385d1e0a58
f 87/105/27 86/106/27 79/107/27
f 41/108/28 43/109/28 44/110/28 42/111/28
f 88/112/29 87/113/29 79/114/29
f 43/115/30 45/116/30 46/117/30 44/118/30
f 89/119/31 88/120/31 79/121/31
f 78/122/32 89/123/32 79/124/32
f 47/125/33 49/126/33 50/127/33 48/128/33
f 77/129/34 78/130/34 79/131/34
f 49/132/35 51/133/35 52/134/35 50/135/35
f 80/136/36 77/137/36 79/138/36
f 81/139/37 80/140/37 79/141/37
f 53/142/38 55/143/38 56/144/38 54/145/38
f 82/146/39 81/147/39 79/148/39
f 55/149/40 57/150/40 58/151/40 56/152/40
f 83/153/41 82/154/41 79/155/41
f 84/156/42 83/157/42 79/158/42
f 59/159/43 61/160/43 62/161/43 60/162/43
f 85/163/44 84/164/44 79/165/44
f 61/166/45 63/167/45 64/168/45 62/169/45
f 86/170/46 85/171/46 79/172/46
f 66/173/47 65/174/47 48/175/47 50/176/47
f 67/177/48 66/178/48 50/179/48 52/180/48
f 69/181/49 68/182/49 54/183/49 56/184/49
f 70/185/50 69/186/50 56/187/50 58/188/50
f 72/189/51 71/190/51 60/191/51 62/192/51
f 73/193/52 72/194/52 62/195/52 64/196/52
f 75/197/53 74/198/53 42/199/53 44/200/53
f 76/201/54 75/202/54 44/203/54 46/204/54
f 78/205/55 77/206/55 51/207/55 49/208/55
f 94/209/56 95/210/56 96/211/56 97/212/56
f 80/213/57 81/214/57 55/215/57 53/216/57
f 81/217/58 82/218/58 57/219/58 55/220/58
f 98/221/59 99/222/59 100/223/59 101/224/59
f 83/225/60 84/226/60 61/227/60 59/228/60
f 84/229/61 85/230/61 63/231/61 61/232/61
f 102/233/62 103/234/62 104/235/62 105/236/62
f 86/237/63 87/238/63 43/239/63 41/240/63
f 87/241/64 88/242/64 45/243/64 43/244/64
f 90/245/65 91/246/65 92/247/65 93/248/65
f 89/249/66 78/250/66 49/251/66 47/252/66
f 91/253/67 90/254/67 88/255/67 89/256/67
f 92/257/68 91/258/68 89/259/68 47/260/68
f 93/261/69 92/262/69 47/263/69 45/264/69
f 90/265/70 93/266/70 45/267/70 88/268/70
f 95/269/71 94/270/71 77/271/71 80/272/71
f 96/273/72 95/274/72 80/275/72 53/276/72
f 97/277/73 96/278/73 53/279/73 51/280/73
f 94/281/74 97/282/74 51/283/74 77/284/74
f 99/285/75 98/286/75 82/287/75 83/288/75
f 100/289/76 99/290/76 83/291/76 59/292/76
f 101/293/77 100/294/77 59/295/77 57/296/77
f 98/297/78 101/298/78 57/299/78 82/300/78
f 103/301/79 102/302/79 85/303/79 86/304/79
f 104/305/80 103/306/80 86/307/80 41/308/80
f 105/309/81 104/310/81 41/311/81 63/312/81
f 102/313/82 105/314/82 63/315/82 85/316/82
f 107/317/83 106/318/83 68/319/83 67/320/83
f 108/321/84 107/322/84 67/323/84 52/324/84
f 106/325/85 109/326/85 54/327/85 68/328/85
f 111/329/86 110/330/86 51/331/86 53/332/86
f 109/333/87 111/334/87 53/335/87 54/336/87
f 110/337/88 108/338/88 52/339/88 51/340/88
f 113/341/89 112/342/89 71/343/89 70/344/89
f 114/345/90 113/346/90 70/347/90 58/348/90
f 112/349/91 115/350/91 60/351/91 71/352/91
f 117/353/92 116/354/92 57/355/92 59/356/92
f 115/357/93 117/358/93 59/359/93 60/360/93
f 116/361/94 114/362/94 58/363/94 57/364/94
f 119/365/95 118/366/95 74/367/95 73/368/95
f 120/369/96 119/370/96 73/371/96 64/372/96
f 118/373/97 121/374/97 42/375/97 74/376/97
f 123/377/98 122/378/98 63/379/98 41/380/98
f 121/381/99 123/382/99 41/383/99 42/384/99
f 122/385/100 120/386/100 64/387/100 63/388/100
f 125/389/101 124/390/101 65/391/101 76/392/101
f 126/393/102 125/394/102 76/395/102 46/396/102
f 124/397/103 127/398/103 48/399/103 65/400/103
f 129/401/104 128/402/104 45/403/104 47/404/104
f 127/405/105 129/406/105 47/407/105 48/408/105
f 128/409/106 126/410/106 46/411/106 45/412/106
o cylinder_selection
v -0.050240473580835346 0.484375 -0.40625
v 0.05024047358083563 0.484375 -0.4062499999999999
v 0.06698729810778084 0.4375 -0.4999999999999999
v -0.06698729810778048 0.4375 -0.5
v 0.06698729810778084 0.15625 -0.49999999999999994
v -0.06698729810778048 0.15625 -0.5
v -0.40625 0.484375 0.05024047358083538
v -0.40625 0.484375 -0.050240473580835505
v -0.49999999999999994 0.4375 -0.06698729810778067
v -0.5 0.4375 0.06698729810778051
v -0.5 0.15625 -0.06698729810778067
v -0.5 0.15625 0.06698729810778051
v 0.050240473580835505 0.484375 0.40624999999999994
v -0.05024047358083548 0.484375 0.40624999999999994
v -0.06698729810778065 0.4375 0.49999999999999994
v 0.06698729810778067 0.4375 0.49999999999999994
v -0.06698729810778065 0.15625 0.49999999999999994
v 0.06698729810778067 0.15625 0.49999999999999994
v 0.40624999999999994 0.484375 -0.050240473580835526
v 0.40624999999999994 0.484375 0.050240473580835485
v 0.49999999999999994 0.4375 0.06698729810778065
v 0.49999999999999994 0.4375 -0.0669872981077807
v 0.49999999999999994 0.15625 0.06698729810778065
v 0.49999999999999994 0.15625 -0.0669872981077807
vt 0.0625000000000033 0.59375
vt 0.1964750000000033 0.59375
vt 0.1964750000000033 0.875
vt 0.0625000000000033 0.875
vt 0.0625000000000033 0.59375
vt 0.1964750000000033 0.59375
vt 0.1964750000000033 0.875
vt 0.0625000000000033 0.875
vt 0.0625000000000033 0.59375
vt 0.1964750000000033 0.59375
vt 0.1964750000000033 0.875
vt 0.0625000000000033 0.875
vt 0.0625000000000033 0.59375
vt 0.1964750000000033 0.59375
vt 0.1964750000000033 0.875
vt 0.0625000000000033 0.875
vt 0.1797250000000033 0.9999999999999989
vt 0.07925000000000332 0.9999999999999989
vt 0.0625000000000033 0.8951874999999989
vt 0.1964750000000033 0.8951874999999989
vt 0.1172250000000033 0.9374999999999989
vt 0.01675000000000331 0.9374999999999989
vt 3.3029134982598407e-15 0.8326874999999989
vt 0.1339750000000033 0.8326874999999989
vt 0.1797250000000033 0.5624999999999989
vt 0.07925000000000332 0.5624999999999989
vt 0.0625000000000033 0.4576874999999989
vt 0.1964750000000033 0.4576874999999989
vt 0.5547250000000034 0.9374999999999989
vt 0.4542500000000033 0.9374999999999989
vt 0.43750000000000333 0.8326874999999989
vt 0.5714750000000033 0.8326874999999989
vn 1 0 0
vn 4.143408735633878e-16 0 -1
vn -1 0 0
vn 0 0 1
vn 4.941303248770031e-16 0.8944271909999161 -0.44721359549995787
vn -0.4472135954999582 0.894427190999916 0
vn 0 0.8944271909999161 0.44721359549995804
vn 0.44721359549995804 0.8944271909999161 0
usemtl m_bfe2821a-3de6-a226-2632-a1565385cb76
f 152/413/107 153/414/107 151/415/107 150/416/107
f 134/417/108 135/418/108 133/419/108 132/420/108
f 140/421/109 141/422/109 139/423/109 138/424/109
f 146/425/110 147/426/110 145/427/110 144/428/110
f 130/429/111 131/430/111 132/431/111 133/432/111
f 136/433/112 137/434/112 138/435/112 139/436/112
f 142/437/113 143/438/113 144/439/113 145/440/113
f 148/441/114 149/442/114 150/443/114 151/444/114
o beveled_cuboid_selection
v 0.25 -0.34375 0.5
v 0.25 -0.03125 0.5
v -0.25 -0.03125 0.5
v -0.25 -0.34375 0.5
v 0.5 -0.03125 0.25
v 0.5 -0.34375 0.25
v 0.5 -0.03125 -0.25
v 0.5 -0.34375 -0.25
v 0.25 -0.03125 -0.5
v 0.25 -0.34375 -0.5
v -0.25 -0.03125 -0.5
v -0.25 -0.34375 -0.5
v -0.5 -0.34375 0.25
v -0.5 -0.03125 0.25
v -0.5 -0.03125 -0.25
v -0.5 -0.34375 -0.25
vt 0.5625 0.9375
vt 0.1875 0.9375
vt 0.1875 0.75
vt 0.5625 0.75
vt 0.5625 0.75
vt 0.5625 0.9375
vt 0.1875 0.9375
vt 0.1875 0.75
vt 0.5625 0.75
vt 0.5625 0.9375
vt 0.1875 0.9375
vt 0.1875 0.75
vt 0.5625 0.9375
vt 0.1875 0.9375
vt 0.1875 0.75
vt 0.5625 0.75
vn 1 0 0
vn -1 0 0
vn 0 0 1
vn 0 0 -1
usemtl m_4d6ce8c0-31a4-2ed2-b7bf-410164b655bc
f 160/445/115 158/446/115 159/447/115 161/448/115
f 166/449/116 167/450/116 168/451/116 169/452/116
f 154/453/117 155/454/117 156/455/117 157/456/117
f 164/457/118 162/458/118 163/459/118 165/460/118
o cylinder_selection
v 0.37499999999999994 0.5 -0.10048094716167102
v 0.274519052838329 0.5 -0.27451905283832895
v 0.10048094716167111 0.5 -0.3749999999999999
v -0.10048094716167084 0.5 -0.375
v -0.27451905283832895 0.5 -0.274519052838329
v -0.37499999999999994 0.5 -0.10048094716167094
v -0.375 0.5 0.10048094716167083
v -0.274519052838329 0.5 0.2745190528383289
v -0.10048094716167097 0.5 0.37499999999999994
v 0.100480947161671 0.5 0.37499999999999994
v 0.27451905283832895 0.5 0.274519052838329
v 0.37499999999999994 0.5 0.100480947161671
v 0 0.5 0
vt 0 0.5492713539657815
vt 0.19411381635893044 0.6012844225772749
vt 6.938893903907228e-17 0.9375
vt 2.7755575615628914e-17 0.5492718606242909
vt 0.19411406968785458 0.6012839837979439
vt 0 0.9375
vt 0.4375 0.7990374999999986
vt 0.4375 0.9999999999999986
vt 0.0625 0.8995187499999986
vt 0.45072864603421847 0.7433861836410713
vt 0.39871557742272506 0.9375000000000018
vt 0.0625 0.7433861836410713
vt 0.4507281393757091 0.7433859303121437
vt 0.3987160162020561 0.9374999999999983
vt 0.0625 0.7433859303121437
vt 0.2009625000000014 0.9375
vt 1.4155343563970746e-15 0.9375
vt 0.10048125000000141 0.5625
vt 0.25661381635892855 0.937499999999997
vt 0.06249999999999811 0.8854869313885035
vt 0.25661381635892866 0.5492713539657785
vt 0.25661406968785627 0.9374999999999966
vt 0.0625000000000017 0.8854878768263436
vt 0.25661406968785627 0.5492718606242875
vt 0.0625 0.9999999999999986
vt 0.0625 0.7990374999999986
vt 0.4375 0.8995187499999986
vt 0.062500000000003 1
vt 0.1145130686114964 0.8058861836410696
vt 0.45072864603422147 0.9999999999999999
vt 0.06250000000000344 1
vt 0.11451212317365644 0.8058859303121454
vt 0.45072813937571254 1
vt 1.4155343563970746e-15 0.5625
vt 0.2009625000000014 0.5625
vt 0.10048125000000141 0.9375
vn 0 1 0
vn 0 1 0
vn 0 1 0
vn 0 1 0
vn 0 1 0
vn 0 1 0
vn 0 1 0
vn 0 1 0
vn 0 1 0
vn 0 1 0
vn 0 1 0
vn 0 1 0
usemtl m_4d6ce8c0-31a4-2ed2-b7bf-410164b655bc
f 179/461/119 180/462/119 182/463/119
f 180/464/120 181/465/120 182/466/120
f 181/467/121 170/468/121 182/469/121
f 170/470/122 171/471/122 182/472/122
f 171/473/123 172/474/123 182/475/123
f 172/476/124 173/477/124 182/478/124
f 173/479/125 174/480/125 182/481/125
f 174/482/126 175/483/126 182/484/126
f 175/485/127 176/486/127 182/487/127
f 176/488/128 177/489/128 182/490/128
f 177/491/129 178/492/129 182/493/129
f 178/494/130 179/495/130 182/496/130
o beveled_cuboid_selection
v 0.375 0 0.375
v 0.375 0 -0.375
v -0.375 0 0.375
v -0.375 0 -0.375
v 0.375 -0.5 0.375
v 0.375 -0.5 -0.375
v -0.375 -0.5 0.375
v -0.375 -0.5 -0.375
v -0.5 -0.375 0.375
v -0.5 0 0.375
v -0.5 -0.375 -0.375
v -0.5 0 -0.375
v 0.5 -0.375 0.375
v 0.5 0 0.375
v 0.5 -0.375 -0.375
v 0.5 0 -0.375
v 0.375 -0.375 -0.5
v 0.375 0 -0.5
v -0.375 -0.375 -0.5
v -0.375 0 -0.5
v 0.375 -0.375 0.5
v 0.375 0 0.5
v -0.375 -0.375 0.5
v -0.375 0 0.5
vt 0 0.75
vt 0.176775 0.75
vt 0.176775 1
vt 0 1
vt 0 1
vt 0 0.75
vt 0.176775 0.75
vt 0.176775 1
vt 0 1
vt 0 0.75
vt 0.176775 0.75
vt 0.176775 1
vt 0 0.75
vt 0.176775 0.75
vt 0.176775 1
vt 0 1
vt 0.0883875 0.84690625
vt 0.176775 1
vt 0 1
vt 0.0883875 0.84690625
vt 0.176775 1
vt 0 1
vt 0.0883875 0.84690625
vt 0.176775 1
vt 0 1
vt 0.0883875 0.84690625
vt 0.176775 1
vt 0 1
vt 0.0883875 1
vt 0 0.84690625
vt 0.176775 0.84690625
vt 0.0883875 1
vt 0 0.84690625
vt 0.176775 0.84690625
vt 0.0883875 1
vt 0 0.84690625
vt 0.176775 0.84690625
vt 0.0883875 1
vt 0 0.84690625
vt 0.176775 0.84690625
vn 0.7071067811865476 0 -0.7071067811865476
vn 0.7071067811865476 0 0.7071067811865476
vn -0.7071067811865476 0 -0.7071067811865476
vn -0.7071067811865476 0 0.7071067811865476
vn 0.5773502691896258 -0.5773502691896258 0.5773502691896258
vn -0.5773502691896258 -0.5773502691896258 0.5773502691896258
vn 0.5773502691896258 -0.5773502691896258 -0.5773502691896258
vn -0.5773502691896258 -0.5773502691896258 -0.5773502691896258
vn 0 1 0
vn 0 1 0
vn 0 1 0
vn 0 1 0
usemtl m_4d6ce8c0-31a4-2ed2-b7bf-410164b655bc
f 197/497/131 199/498/131 200/499/131 198/500/131
f 204/501/132 203/502/132 195/503/132 196/504/132
f 202/505/133 201/506/133 193/507/133 194/508/133
f 191/509/134 205/510/134 206/511/134 192/512/134
f 187/513/135 195/514/135 203/515/135
f 189/516/136 205/517/136 191/518/136
f 188/519/137 199/520/137 197/521/137
f 190/522/138 193/523/138 201/524/138
f 183/525/139 204/526/139 196/527/139
f 185/528/140 192/529/140 206/530/140
f 184/531/141 198/532/141 200/533/141
f 186/534/142 202/535/142 194/536/142