# Made in Blockbench 4.10.4
mtllib MAGgun.mtl

o cuboid
v 0.375 0.5625 0.625
v 0.375 0.5625 -0.8125
v 0.375 -0.4375 0.875
v 0.375 -0.4375 -0.8125
v -0.375 0.5625 0.625
v -0.375 0.5625 -0.8125
v -0.375 -0.4375 0.875
v -0.375 -0.4375 -0.8125
v 0.28125 0.4375 -0.8125
v 0.28125 -0.3125 -0.8125
v -0.28125 0.4375 -0.8125
v -0.28125 -0.3125 -0.8125
v 0.28125 0.4375 -0.3125
v 0.28125 -0.3125 -0.3125
v -0.28125 0.4375 -0.3125
v -0.28125 -0.3125 -0.3125
v 0.375 0.0625 0.9375
v -0.375 0.0625 0.9375
v -0.375 0.0625 -0.8125
v -0.28125 0.0625 -0.8125
v -0.28125 0.0625 -0.3125
v 0.28125 0.0625 -0.3125
v 0.28125 0.0625 -0.8125
v 0.375 0.0625 -0.8125
v 0.625 0.17187500000000022 0.24969940802395563
v 0.625 0.17187500000000022 0.37530059197604426
v 0.625 0.10907440802395585 0.14092559197604435
v 0.625 0.0003005919760445397 0.078125
v 0.625 -0.12530059197604415 0.07812500000000006
v 0.625 -0.2340744080239554 0.14092559197604437
v 0.625 -0.2968749999999998 0.24969940802395557
v 0.625 -0.2968749999999998 0.3753005919760444
v 0.625 -0.23407440802395532 0.4840744080239556
v 0.625 -0.1253005919760441 0.546875
v 0.625 0.0003005919760445952 0.546875
v 0.625 0.10907440802395585 0.48407440802395557
v 0.75 0.17187500000000022 0.24969940802395563
v 0.75 0.17187500000000022 0.37530059197604426
v 0.75 -0.06249999999999972 0.3125
v 0.75 0.10907440802395585 0.14092559197604435
v 0.75 0.0003005919760445397 0.078125
v 0.75 -0.12530059197604415 0.07812500000000006
v 0.75 -0.2340744080239554 0.14092559197604437
v 0.75 -0.2968749999999997 0.24969940802395557
v 0.75 -0.2968749999999997 0.3753005919760444
v 0.75 -0.2340744080239553 0.4840744080239556
v 0.75 -0.1253005919760441 0.546875
v 0.75 0.0003005919760446507 0.546875
v 0.75 0.10907440802395585 0.48407440802395557
v -0.625 0.171875 0.37530059197604426
v -0.625 0.1718749999999999 0.24969940802395563
v -0.625 0.10907440802395563 0.48407440802395557
v -0.625 0.00030059197604437315 0.546875
v -0.625 -0.12530059197604437 0.546875
v -0.625 -0.296875 0.3753005919760444
v -0.625 -0.2340744080239556 0.4840744080239556
v -0.625 -0.296875 0.24969940802395557
v -0.625 -0.23407440802395568 0.14092559197604437
v -0.625 -0.12530059197604448 0.07812500000000006
v -0.625 0.00030059197604426213 0.078125
v -0.625 0.10907440802395563 0.14092559197604435
v -0.6875 0.171875 0.37530059197604426
v -0.6875 0.1718749999999999 0.24969940802395563
v -0.6875 -0.0625 0.3125
v -0.6875 0.10907440802395563 0.48407440802395557
v -0.6875 0.00030059197604431764 0.546875
v -0.6875 -0.12530059197604437 0.546875
v -0.6875 -0.29687500000000006 0.3753005919760444
v -0.6875 -0.23407440802395563 0.4840744080239556
v -0.6875 -0.29687500000000006 0.24969940802395557
v -0.6875 -0.23407440802395568 0.14092559197604437
v -0.6875 -0.12530059197604448 0.07812500000000006
v -0.6875 0.00030059197604426213 0.078125
v -0.6875 0.10907440802395563 0.14092559197604435
vt 0 1
vt 0 0.5
vt 1 0.5
vt 1 1
vt 0 1
vt 0 0.5
vt 1 0.5
vt 1 1
vt 0 0
vt 1 0
vt 1 1
vt 0 1
vt 1 0
vt 1 1
vt 0 1
vt 0 0
vt 0 1
vt 0 0.5
vt 1 0.5
vt 1 1
vt 0.25 0.875
vt 0.25 0.5
vt 0.8125 0.5
vt 0.8125 0.875
vt 0.21875 0.875
vt 0.78125 0.875
vt 0.875 1
vt 0.125 1
vt 0 1
vt 0 0.5
vt 0.09375 0.5
vt 0.09375 0.875
vt 0.78125 0.125
vt 0.21875 0.125
vt 0.125 0
vt 0.875 0
vt 0.9375 0.875
vt 0.9375 0.5
vt 1.03125 0.5
vt 1.03125 1
vt 0.5625 0.9375
vt 0 0.9375
vt 0 0.875
vt 0.5625 0.875
vt 0.125 1
vt 0.125 0.625
vt 0.1875 0.625
vt 0.1875 1
vt 0 0.5
vt 0.5625 0.5
vt 0.5625 0.5625
vt 0 0.5625
vt 0.375 1
vt 0.375 0.625
vt 0.4375 0.625
vt 0.4375 1
vt 1 0
vt 1 0.5
vt 0 0.5
vt 0 0
vt 1 0
vt 1 0.5
vt 0 0.5
vt 0 0
vt 1.03125 0
vt 1.03125 0.5
vt 0.9375 0.5
vt 0.9375 0.125
vt 0.4375 0.25
vt 0.4375 0.625
vt 0.375 0.625
vt 0.375 0.25
vt 0.8125 0.125
vt 0.8125 0.5
vt 0.25 0.5
vt 0.25 0.125
vt 0.1875 0.25
vt 0.1875 0.625
vt 0.125 0.625
vt 0.125 0.25
vt 0.09375 0.125
vt 0.09375 0.5
vt 0 0.5
vt 0 0
vt 1 0
vt 1 0.5
vt 0 0.5
vt 0 0
vt 0.06249999999999999 0.5698572984303876
vt 0.1838223411813788 0.6023646845952135
vt 0.0625 0.8125
vt 0.06250000000000001 0.5698563080358362
vt 0.1838218459820819 0.6023655423008878
vt 0.0625 0.8125
vt 0.421875 0.8118999999999972
vt 0.421875 0.9374999999999971
vt 0.1875 0.8746999999999971
vt 0.43014270156961243 0.8161776588186243
vt 0.3976353154047865 0.9375000000000031
vt 0.1875 0.8161776588186243
vt 0.4301436919641638 0.8161781540179192
vt 0.3976344576991122 0.9375000000000011
vt 0.1875 0.8161781540179192
vt 0.18810000000000285 0.9375
vt 0.06250000000000286 0.9375
vt 0.12530000000000285 0.703125
vt 0.18382234118137575 0.8749999999999976
vt 0.06249999999999695 0.8424926138351716
vt 0.18382234118137575 0.6323572984303851
vt 0.18382184598208084 0.8750000000000021
vt 0.062499999999998945 0.8424907657349505
vt 0.18382184598208084 0.6323563080358383
vt 0.0625 0.9374999999999971
vt 0.0625 0.8118999999999972
vt 0.296875 0.8746999999999971
vt 0.12500000000000244 0.9375
vt 0.15750738616482834 0.8161776588186211
vt 0.36764270156961487 0.9375
vt 0.12499999999999789 0.9375
vt 0.15750923426504945 0.816178154017918
vt 0.3676436919641617 0.9375
vt 0.06250000000000286 0.578125
vt 0.18810000000000285 0.578125
vt 0.12530000000000285 0.8125
vt 0.12560000000000285 0.9375
vt 2.858824288409778e-15 0.9375
vt 2.858824288409778e-15 0.875
vt 0.12560000000000285 0.875
vt 0.12560000000000285 0.9375
vt 2.858824288409778e-15 0.9375
vt 2.858824288409778e-15 0.875
vt 0.12560000000000285 0.875
vt 0.12560000000000285 0.9375
vt 2.858824288409778e-15 0.9375
vt 2.858824288409778e-15 0.875
vt 0.12560000000000285 0.875
vt 0.12560000000000285 1
vt 2.858824288409778e-15 1
vt 2.858824288409778e-15 0.9375
vt 0.12560000000000285 0.9375
vt 0.2506000000000028 1
vt 0.12500000000000286 1
vt 0.12500000000000286 0.9375
vt 0.2506000000000028 0.9375
vt 0.2506000000000028 1
vt 0.12500000000000286 1
vt 0.12500000000000286 0.9375
vt 0.2506000000000028 0.9375
vt 0.2506000000000028 0.9375
vt 0.12500000000000286 0.9375
vt 0.12500000000000286 0.875
vt 0.2506000000000028 0.875
vt 0.12560000000000285 0.8125
vt 2.858824288409778e-15 0.8125
vt 2.858824288409778e-15 0.75
vt 0.12560000000000285 0.75
vt 0.12560000000000285 0.8125
vt 2.858824288409778e-15 0.8125
vt 2.858824288409778e-15 0.75
vt 0.12560000000000285 0.75
vt 0.12560000000000285 0.8125
vt 2.858824288409778e-15 0.8125
vt 2.858824288409778e-15 0.75
vt 0.12560000000000285 0.75
vt 0.12560000000000285 1
vt 2.858824288409778e-15 1
vt 2.858824288409778e-15 0.9375
vt 0.12560000000000285 0.9375
vt 0.12560000000000285 1
vt 2.858824288409778e-15 1
vt 2.858824288409778e-15 0.9375
vt 0.12560000000000285 0.9375
vt 0.4301436919641638 0.8161781540179192
vt 0.3976344576991122 0.9375000000000011
vt 0.1875 0.8161781540179192
vt 0.43014270156961243 0.8161776588186243
vt 0.3976353154047865 0.9375000000000031
vt 0.1875 0.8161776588186243
vt 0.421875 0.8118999999999972
vt 0.421875 0.9374999999999971
vt 0.1875 0.8746999999999971
vt 0.06250000000000001 0.5698563080358362
vt 0.1838218459820819 0.6023655423008878
vt 0.0625 0.8125
vt 0.06249999999999999 0.5698572984303876
vt 0.1838223411813788 0.6023646845952135
vt 0.0625 0.8125
vt 0.06250000000000286 0.578125
vt 0.18810000000000285 0.578125
vt 0.12530000000000285 0.8125
vt 0.12499999999999789 0.9375
vt 0.15750923426504945 0.816178154017918
vt 0.3676436919641617 0.9375
vt 0.12500000000000244 0.9375
vt 0.15750738616482834 0.8161776588186211
vt 0.36764270156961487 0.9375
vt 0.0625 0.9374999999999971
vt 0.0625 0.8118999999999972
vt 0.296875 0.8746999999999971
vt 0.18382184598208084 0.8750000000000021
vt 0.062499999999998945 0.8424907657349505
vt 0.18382184598208084 0.6323563080358383
vt 0.18382234118137575 0.8749999999999976
vt 0.06249999999999695 0.8424926138351716
vt 0.18382234118137575 0.6323572984303851
vt 0.18810000000000285 0.9375
vt 0.06250000000000286 0.9375
vt 0.12530000000000285 0.703125
vt 2.858824288409778e-15 0.875
vt 0.12560000000000285 0.875
vt 0.12560000000000285 0.9375
vt 2.858824288409778e-15 0.9375
vt 2.858824288409778e-15 0.875
vt 0.12560000000000285 0.875
vt 0.12560000000000285 0.9375
vt 2.858824288409778e-15 0.9375
vt 2.858824288409778e-15 0.875
vt 0.12560000000000285 0.875
vt 0.12560000000000285 0.9375
vt 2.858824288409778e-15 0.9375
vt 2.858824288409778e-15 0.9375
vt 0.12560000000000285 0.9375
vt 0.12560000000000285 1
vt 2.858824288409778e-15 1
vt 0.12500000000000286 0.9375
vt 0.2506000000000028 0.9375
vt 0.2506000000000028 1
vt 0.12500000000000286 1
vt 0.12500000000000286 0.9375
vt 0.2506000000000028 0.9375
vt 0.2506000000000028 1
vt 0.12500000000000286 1
vt 0.12500000000000286 0.875
vt 0.2506000000000028 0.875
vt 0.2506000000000028 0.9375
vt 0.12500000000000286 0.9375
vt 2.858824288409778e-15 0.75
vt 0.12560000000000285 0.75
vt 0.12560000000000285 0.8125
vt 2.858824288409778e-15 0.8125
vt 2.858824288409778e-15 0.75
vt 0.12560000000000285 0.75
vt 0.12560000000000285 0.8125
vt 2.858824288409778e-15 0.8125
vt 2.858824288409778e-15 0.75
vt 0.12560000000000285 0.75
vt 0.12560000000000285 0.8125
vt 2.858824288409778e-15 0.8125
vt 2.858824288409778e-15 0.9375
vt 0.12560000000000285 0.9375
vt 0.12560000000000285 1
vt 2.858824288409778e-15 1
vt 2.858824288409778e-15 0.9375
vt 0.12560000000000285 0.9375
vt 0.12560000000000285 1
vt 2.858824288409778e-15 1
vn 1 0 0
vn -1 0 0
vn 0 1 0
vn 0 -1 0
vn 0 0.52999894000318 0.847998304005088
vn 0 0 -1
vn 0 0 -1
vn 0 0 -1
vn 0 0 -1
vn 0 0 -1
vn 0 -1 0
vn -1 0 0
vn 0 1 0
vn 1 0 0
vn 0 -0.12403473458920847 0.9922778767136677
vn -1 0 0
vn 0 0 -1
vn 1 0 0
vn 0 0 -1
vn -1 0 0
vn 0 0 -1
vn 1 0 0
vn 1 0 0
vn 1 0 0
vn 1 0 0
vn 1 0 0
vn 1 0 0
vn 1 0 0
vn 1 0 0
vn 1 0 0
vn 1 0 0
vn 1 0 0
vn 1 0 0
vn 1 0 0
vn 0 1 0
vn 0 0.8660254037844388 -0.4999999999999998
vn 0 0.49999999999999956 -0.866025403784439
vn 0 -4.419635984676138e-16 -1
vn 0 -0.49999999999999956 -0.8660254037844389
vn 3.867181486591621e-16 -0.8660254037844389 -0.4999999999999998
vn 4.440892098500626e-16 -1 0
vn 1.6573634942535504e-16 -0.8660254037844386 0.5000000000000002
vn 0 -0.5000000000000001 0.8660254037844387
vn 0 0 1
vn 0 0.5000000000000004 0.8660254037844386
vn 0 0.8660254037844388 0.49999999999999967
vn -1 0 0
vn -1 0 0
vn -1 0 0
vn -1 0 0
vn -1 0 0
vn -1 0 0
vn -1 0 0
vn -1 0 0
vn -1 0 0
vn -1 0 0
vn -1 0 0
vn -1 0 0
vn 0 1 -8.83927196935228e-16
vn 0 0.8660254037844388 0.49999999999999967
vn -4.419635984676132e-16 0.5 0.8660254037844387
vn 0 0 1
vn 7.734362973183235e-16 -0.8660254037844386 0.5000000000000002
vn 2.2098179923380676e-16 -0.4999999999999999 0.8660254037844388
vn 8.881784197001252e-16 -1 0
vn 0 -0.8660254037844387 -0.5000000000000001
vn 0 -0.4999999999999998 -0.8660254037844389
vn 0 -4.419635984676136e-16 -1
vn 0 0.49999999999999933 -0.8660254037844392
vn 0 0.8660254037844392 -0.4999999999999991
usemtl m_0f724e49-6262-6a0f-b72e-e79af80427eb
f 1/1/1 17/2/1 24/3/1 2/4/1
f 6/5/2 19/6/2 18/7/2 5/8/2
f 5/9/3 1/10/3 2/11/3 6/12/3
f 4/13/4 3/14/4 7/15/4 8/16/4
f 5/17/5 18/18/5 17/19/5 1/20/5
f 13/21/6 22/22/6 21/23/6 15/24/6
f 9/25/7 11/26/7 6/27/7 2/28/7
f 2/29/8 24/30/8 23/31/8 9/32/8
f 12/33/9 10/34/9 4/35/9 8/36/9
f 11/37/10 20/38/10 19/39/10 6/40/10
f 13/41/11 15/42/11 11/43/11 9/44/11
f 9/45/12 23/46/12 22/47/12 13/48/12
f 16/49/13 14/50/13 10/51/13 12/52/13
f 15/53/14 21/54/14 20/55/14 11/56/14
f 3/57/15 17/58/15 18/59/15 7/60/15
f 7/61/16 18/62/16 19/63/16 8/64/16
f 8/65/17 19/66/17 20/67/17 12/68/17
f 12/69/18 20/70/18 21/71/18 16/72/18
f 16/73/19 21/74/19 22/75/19 14/76/19
f 14/77/20 22/78/20 23/79/20 10/80/20
f 10/81/21 23/82/21 24/83/21 4/84/21
f 4/85/22 24/86/22 17/87/22 3/88/22
f 47/89/23 46/90/23 39/91/23
f 46/92/24 45/93/24 39/94/24
f 45/95/25 44/96/25 39/97/25
f 44/98/26 43/99/26 39/100/26
f 43/101/27 42/102/27 39/103/27
f 42/104/28 41/105/28 39/106/28
f 41/107/29 40/108/29 39/109/29
f 40/110/30 37/111/30 39/112/30
f 37/113/31 38/114/31 39/115/31
f 38/116/32 49/117/32 39/118/32
f 49/119/33 48/120/33 39/121/33
f 48/122/34 47/123/34 39/124/34
f 38/125/35 37/126/35 25/127/35 26/128/35
f 37/129/36 40/130/36 27/131/36 25/132/36
f 40/133/37 41/134/37 28/135/37 27/136/37
f 41/137/38 42/138/38 29/139/38 28/140/38
f 42/141/39 43/142/39 30/143/39 29/144/39
f 43/145/40 44/146/40 31/147/40 30/148/40
f 44/149/41 45/150/41 32/151/41 31/152/41
f 45/153/42 46/154/42 33/155/42 32/156/42
f 46/157/43 47/158/43 34/159/43 33/160/43
f 47/161/44 48/162/44 35/163/44 34/164/44
f 48/165/45 49/166/45 36/167/45 35/168/45
f 49/169/46 38/170/46 26/171/46 36/172/46
f 69/173/47 67/174/47 64/175/47
f 68/176/48 69/177/48 64/178/48
f 70/179/49 68/180/49 64/181/49
f 71/182/50 70/183/50 64/184/50
f 72/185/51 71/186/51 64/187/51
f 73/188/52 72/189/52 64/190/52
f 74/191/53 73/192/53 64/193/53
f 63/194/54 74/195/54 64/196/54
f 62/197/55 63/198/55 64/199/55
f 65/200/56 62/201/56 64/202/56
f 66/203/57 65/204/57 64/205/57
f 67/206/58 66/207/58 64/208/58
f 63/209/59 62/210/59 50/211/59 51/212/59
f 62/213/60 65/214/60 52/215/60 50/216/60
f 65/217/61 66/218/61 53/219/61 52/220/61
f 66/221/62 67/222/62 54/223/62 53/224/62
f 69/225/63 68/226/63 55/227/63 56/228/63
f 67/229/64 69/230/64 56/231/64 54/232/64
f 68/233/65 70/234/65 57/235/65 55/236/65
f 70/237/66 71/238/66 58/239/66 57/240/66
f 71/241/67 72/242/67 59/243/67 58/244/67
f 72/245/68 73/246/68 60/247/68 59/248/68
f 73/249/69 74/250/69 61/251/69 60/252/69
f 74/253/70 63/254/70 51/255/70 61/256/70
o plane
v 0.14062499999999822 0.10937499999999817 -0.5625
v -0.14062499999999822 0.10937499999999817 -0.5625
v 0.1874999999999979 0.062499999999998994 -0.5625
v -0.1874999999999979 0.062499999999998994 -0.5625
v 0.14062499999999822 0.015624999999999986 -0.5624999999999999
v -0.14062499999999822 0.015624999999999986 -0.5624999999999999
v 0.046874999999998876 0.10937499999999817 -0.5625
v 0.046874999999998876 0.20312499999999714 -0.5625000000000001
v -6.036837696399245e-16 0.10937499999999817 -0.5625
v -6.036837696399245e-16 0.2499999999999966 -0.5625000000000001
v -0.046875 0.10937499999999817 -0.5625
v -0.046875 0.20312499999999714 -0.5625000000000001
v 0.046874999999998876 0.062499999999998994 -0.5625
v -6.036837696399245e-16 0.062499999999998994 -0.5625
v -0.046875 0.062499999999998994 -0.5625
v 0.046874999999998876 0.015624999999999986 -0.5624999999999999
v -6.036837696399245e-16 0.015624999999999986 -0.5624999999999999
v -0.046875 0.015624999999999986 -0.5624999999999999
v 0.046874999999998876 -0.07812499999999714 -0.5624999999999999
v -6.036837696399245e-16 -0.12499999999999661 -0.5624999999999999
v -0.046875 -0.07812499999999714 -0.5624999999999999
v 0.0803847577293368 -0.2375 -0.5580904774487395
v 0.09459490955294975 -0.29053300858899106 -0.5776878228780495
v 0.10048094716167101 -0.3125 -0.6249999999999999
v 0.09459490955294975 -0.2905330085889911 -0.6723121771219503
v 0.0803847577293368 -0.2375 -0.6919095225512603
v 0.06617460590572385 -0.18446699141100892 -0.6723121771219503
v 0.060288568297002604 -0.16250000000000003 -0.625
v 0.06617460590572385 -0.18446699141100892 -0.5776878228780495
v 0.21961524227066317 -0.15711524227066317 -0.5580904774487396
v 0.25843809903604126 -0.1959380990360413 -0.5776878228780495
v 0.27451905283832895 -0.212019052838329 -0.6249999999999999
v 0.2584380990360413 -0.19593809903604137 -0.6723121771219503
v 0.21961524227066317 -0.15711524227066323 -0.6919095225512604
v 0.18079238550528506 -0.11829238550528509 -0.6723121771219503
v 0.16471143170299737 -0.1022114317029974 -0.625
v 0.18079238550528504 -0.11829238550528506 -0.5776878228780495
v 0.3 -0.017884757729336787 -0.5580904774487396
v 0.35303300858899106 -0.03209490955294973 -0.5776878228780495
v 0.375 -0.03798094716167101 -0.625
v 0.3530330085889911 -0.03209490955294976 -0.6723121771219505
v 0.3 -0.017884757729336814 -0.6919095225512604
v 0.24696699141100892 -0.0036746059057238684 -0.6723121771219505
v 0.22500000000000003 0.0022114317029973962 -0.625
v 0.24696699141100892 -0.0036746059057238406 -0.5776878228780495
v 0.3 0.14288475772933684 -0.5580904774487396
v 0.35303300858899106 0.1570949095529498 -0.5776878228780495
v 0.375 0.16298094716167102 -0.625
v 0.3530330085889911 0.1570949095529498 -0.6723121771219505
v 0.3 0.14288475772933681 -0.6919095225512604
v 0.24696699141100892 0.12867460590572388 -0.6723121771219505
v 0.22500000000000003 0.12278856829700263 -0.625
v 0.24696699141100892 0.12867460590572388 -0.5776878228780495
v 0.2196152422706632 0.2821152422706632 -0.5580904774487396
v 0.2584380990360413 0.32093809903604126 -0.5776878228780497
v 0.274519052838329 0.33701905283832895 -0.6250000000000001
v 0.25843809903604137 0.3209380990360413 -0.6723121771219505
v 0.2196152422706632 0.28211524227066315 -0.6919095225512604
v 0.1807923855052851 0.24329238550528506 -0.6723121771219505
v 0.1647114317029974 0.22721143170299737 -0.625
v 0.18079238550528506 0.24329238550528504 -0.5776878228780497
v 0.0803847577293369 0.36249999999999993 -0.5580904774487397
v 0.09459490955294983 0.415533008588991 -0.5776878228780497
v 0.10048094716167111 0.43749999999999994 -0.6250000000000001
v 0.09459490955294986 0.41553300858899106 -0.6723121771219505
v 0.0803847577293369 0.36249999999999993 -0.6919095225512605
v 0.06617460590572392 0.3094669914110089 -0.6723121771219505
v 0.06028856829700267 0.2875 -0.6250000000000001
v 0.06617460590572391 0.30946699141100886 -0.5776878228780497
v -0.08038475772933668 0.36250000000000004 -0.5580904774487397
v -0.09459490955294958 0.41553300858899106 -0.5776878228780497
v -0.10048094716167086 0.4375 -0.6250000000000001
v -0.09459490955294961 0.4155330085889911 -0.6723121771219505
v -0.08038475772933668 0.36250000000000004 -0.6919095225512605
v -0.06617460590572376 0.309466991411009 -0.6723121771219505
v -0.06028856829700251 0.28750000000000003 -0.6250000000000001
v -0.06617460590572374 0.3094669914110089 -0.5776878228780497
v -0.21961524227066317 0.2821152422706632 -0.5580904774487396
v -0.25843809903604126 0.3209380990360413 -0.5776878228780497
v -0.27451905283832895 0.337019052838329 -0.6250000000000001
v -0.2584380990360413 0.32093809903604137 -0.6723121771219505
v -0.21961524227066317 0.2821152422706632 -0.6919095225512604
v -0.18079238550528506 0.24329238550528512 -0.6723121771219505
v -0.16471143170299737 0.2272114317029974 -0.625
v -0.18079238550528504 0.2432923855052851 -0.5776878228780497
v -0.3 0.1428847577293368 -0.5580904774487396
v -0.35303300858899106 0.1570949095529497 -0.5776878228780495
v -0.375 0.16298094716167094 -0.625
v -0.3530330085889911 0.1570949095529497 -0.6723121771219505
v -0.3 0.14288475772933673 -0.6919095225512604
v -0.24696699141100892 0.12867460590572383 -0.6723121771219505
v -0.22500000000000003 0.12278856829700258 -0.625
v -0.24696699141100892 0.12867460590572383 -0.5776878228780495
v -0.30000000000000004 -0.017884757729336648 -0.5580904774487396
v -0.35303300858899106 -0.032094909552949566 -0.5776878228780495
v -0.375 -0.03798094716167083 -0.625
v -0.3530330085889911 -0.032094909552949594 -0.6723121771219505
v -0.30000000000000004 -0.017884757729336676 -0.6919095225512604
v -0.24696699141100897 -0.0036746059057237573 -0.6723121771219505
v -0.22500000000000003 0.0022114317029974934 -0.625
v -0.24696699141100892 -0.0036746059057237157 -0.5776878228780495
v -0.2196152422706632 -0.15711524227066312 -0.5580904774487396
v -0.2584380990360413 -0.1959380990360412 -0.5776878228780495
v -0.274519052838329 -0.2120190528383289 -0.6249999999999999
v -0.25843809903604137 -0.19593809903604126 -0.6723121771219503
v -0.2196152422706632 -0.15711524227066317 -0.6919095225512604
v -0.18079238550528512 -0.11829238550528504 -0.6723121771219503
v -0.1647114317029974 -0.10221143170299735 -0.625
v -0.1807923855052851 -0.11829238550528498 -0.5776878228780495
v -0.08038475772933679 -0.2375 -0.5580904774487395
v -0.09459490955294972 -0.29053300858899106 -0.5776878228780495
v -0.10048094716167097 -0.3125 -0.6249999999999999
v -0.09459490955294975 -0.2905330085889911 -0.6723121771219503
v -0.08038475772933679 -0.2375 -0.6919095225512603
v -0.06617460590572384 -0.18446699141100892 -0.6723121771219503
v -0.06028856829700259 -0.16250000000000003 -0.625
v -0.06617460590572383 -0.18446699141100892 -0.5776878228780495
v 0.2578125 0.7487278794850326 0.7075720264191645
v -0.2578125 0.7487278794850326 0.7075720264191645
v 0.2578125 0.342778471461077 0.9419470264191645
v -0.2578125 0.342778471461077 0.9419470264191645
vt 0 0.2500000000000018
vt 0.24999999999999806 0.2500000000000018
vt 0.24999999999999806 0.5000000000000029
vt 0 0.5000000000000029
vt 0 0.5000000000000029
vt 0.24999999999999806 0.5000000000000029
vt 0.24999999999999806 0.7500000000000031
vt 0 0.7500000000000031
vt 0.7499999999999989 0.2500000000000018
vt 0.4999999999999982 0.2500000000000018
vt 0.4999999999999982 0
vt 0.7499999999999989 0
vt 0.4999999999999982 0.2500000000000018
vt 0.24999999999999806 0.2500000000000018
vt 0.24999999999999806 0
vt 0.4999999999999982 0
vt 1 0.5000000000000029
vt 0.7499999999999989 0.5000000000000029
vt 0.7499999999999989 0.2500000000000018
vt 1 0.2500000000000018
vt 0.7499999999999989 0.5000000000000029
vt 0.4999999999999982 0.5000000000000029
vt 0.4999999999999982 0.2500000000000018
vt 0.7499999999999989 0.2500000000000018
vt 0.4999999999999982 0.5000000000000029
vt 0.24999999999999806 0.5000000000000029
vt 0.24999999999999806 0.2500000000000018
vt 0.4999999999999982 0.2500000000000018
vt 1 0.7500000000000031
vt 0.7499999999999989 0.7500000000000031
vt 0.7499999999999989 0.5000000000000029
vt 1 0.5000000000000029
vt 0.7499999999999989 0.7500000000000031
vt 0.4999999999999982 0.7500000000000031
vt 0.4999999999999982 0.5000000000000029
vt 0.7499999999999989 0.5000000000000029
vt 0.4999999999999982 0.7500000000000031
vt 0.24999999999999806 0.7500000000000031
vt 0.24999999999999806 0.5000000000000029
vt 0.4999999999999982 0.5000000000000029
vt 0.7499999999999989 1
vt 0.4999999999999982 1
vt 0.4999999999999982 0.7500000000000031
vt 0.7499999999999989 0.7500000000000031
vt 0.4999999999999982 1
vt 0.24999999999999806 1
vt 0.24999999999999806 0.7500000000000031
vt 0.4999999999999982 0.7500000000000031
vt 0.023681249999999987 0.9999999999999973
vt 0 0.9038249999999973
vt 0.3153125 0.9038249999999973
vt 0.29163125 0.9999999999999973
vt 0.009812500000000002 1
vt 0 0.90144375
vt 0.3349375 0.90144375
vt 0.325125 1
vt 0 1
vt 0.009812500000000002 0.90144375
vt 0.325125 0.90144375
vt 0.3349375 1
vt 0 1
vt 0.023681249999999987 0.903825
vt 0.29163125 0.903825
vt 0.3153125 1
vt 0.26795 0.9038312500000001
vt 0.24426875 1
vt 0.023681250000000015 1
vt 0 0.9038312500000001
vt 0.2205875 0.9014375
vt 0.210775 1
vt 0.009812500000000002 1
vt 0 0.9014375
vt 0.210775 0.9014375
vt 0.2205875 1
vt 0 1
vt 0.009812500000000002 0.9014375
vt 0.24426875 0.9038312500000001
vt 0.26795 1
vt 0 1
vt 0.023681250000000015 0.9038312500000001
vt 0.023681249999999987 0.9999999999999973
vt 0 0.9038249999999973
vt 0.3153125 0.9038249999999973
vt 0.29163125 0.9999999999999973
vt 0.009812500000000002 1
vt 0 0.90144375
vt 0.3349375 0.90144375
vt 0.325125 1
vt 0 1
vt 0.009812500000000002 0.90144375
vt 0.325125 0.90144375
vt 0.3349375 1
vt 0 1
vt 0.023681249999999987 0.903825
vt 0.29163125 0.903825
vt 0.3153125 1
vt 0.26795 0.9038312500000001
vt 0.24426875 1
vt 0.023681250000000015 1
vt 0 0.9038312500000001
vt 0.2205875 0.9014375
vt 0.210775 1
vt 0.009812500000000002 1
vt 0 0.9014375
vt 0.210775 0.9014375
vt 0.2205875 1
vt 0 1
vt 0.009812500000000002 0.9014375
vt 0.24426875 0.9038312500000001
vt 0.26795 1
vt 0 1
vt 0.023681250000000015 0.9038312500000001
vt 0.023681249999999987 0.9999999999999973
vt 0 0.9038249999999973
vt 0.3153125 0.9038249999999973
vt 0.29163125 0.9999999999999973
vt 0.009812500000000002 1
vt 0 0.90144375
vt 0.3349375 0.90144375
vt 0.325125 1
vt 0 1
vt 0.009812500000000002 0.90144375
vt 0.325125 0.90144375
vt 0.3349375 1
vt 0 1
vt 0.023681249999999987 0.903825
vt 0.29163125 0.903825
vt 0.3153125 1
vt 0.26795 0.9038312500000001
vt 0.24426875 1
vt 0.023681250000000015 1
vt 0 0.9038312500000001
vt 0.2205875 0.9014375
vt 0.210775 1
vt 0.009812500000000002 1
vt 0 0.9014375
vt 0.210775 0.9014375
vt 0.2205875 1
vt 0 1
vt 0.009812500000000002 0.9014375
vt 0.24426875 0.9038312500000001
vt 0.26795 1
vt 0 1
vt 0.023681250000000015 0.9038312500000001
vt 0.023681249999999987 0.9999999999999973
vt 0 0.9038249999999973
vt 0.3153125 0.9038249999999973
vt 0.29163125 0.9999999999999973
vt 0.009812500000000002 1
vt 0 0.90144375
vt 0.3349375 0.90144375
vt 0.325125 1
vt 0 1
vt 0.009812500000000002 0.90144375
vt 0.325125 0.90144375
vt 0.3349375 1
vt 0 1
vt 0.023681249999999987 0.903825
vt 0.29163125 0.903825
vt 0.3153125 1
vt 0.26795 0.9038312500000001
vt 0.24426875 1
vt 0.023681250000000015 1
vt 0 0.9038312500000001
vt 0.2205875 0.9014375
vt 0.210775 1
vt 0.009812500000000002 1
vt 0 0.9014375
vt 0.210775 0.9014375
vt 0.2205875 1
vt 0 1
vt 0.009812500000000002 0.9014375
vt 0.24426875 0.9038312500000001
vt 0.26795 1
vt 0 1
vt 0.023681250000000015 0.9038312500000001
vt 0.023681249999999987 0.9999999999999973
vt 0 0.9038249999999973
vt 0.3153125 0.9038249999999973
vt 0.29163125 0.9999999999999973
vt 0.009812500000000002 1
vt 0 0.90144375
vt 0.3349375 0.90144375
vt 0.325125 1
vt 0 1
vt 0.009812500000000002 0.90144375
vt 0.325125 0.90144375
vt 0.3349375 1
vt 0 1
vt 0.023681249999999987 0.903825
vt 0.29163125 0.903825
vt 0.3153125 1
vt 0.26795 0.9038312500000001
vt 0.24426875 1
vt 0.023681250000000015 1
vt 0 0.9038312500000001
vt 0.2205875 0.9014375
vt 0.210775 1
vt 0.009812500000000002 1
vt 0 0.9014375
vt 0.210775 0.9014375
vt 0.2205875 1
vt 0 1
vt 0.009812500000000002 0.9014375
vt 0.24426875 0.9038312500000001
vt 0.26795 1
vt 0 1
vt 0.023681250000000015 0.9038312500000001
vt 0.023681249999999987 0.9999999999999973
vt 0 0.9038249999999973
vt 0.3153125 0.9038249999999973
vt 0.29163125 0.9999999999999973
vt 0.009812500000000002 1
vt 0 0.90144375
vt 0.3349375 0.90144375
vt 0.325125 1
vt 0 1
vt 0.009812500000000002 0.90144375
vt 0.325125 0.90144375
vt 0.3349375 1
vt 0 1
vt 0.023681249999999987 0.903825
vt 0.29163125 0.903825
vt 0.3153125 1
vt 0.26795 0.9038312500000001
vt 0.24426875 1
vt 0.023681250000000015 1
vt 0 0.9038312500000001
vt 0.2205875 0.9014375
vt 0.210775 1
vt 0.009812500000000002 1
vt 0 0.9014375
vt 0.210775 0.9014375
vt 0.2205875 1
vt 0 1
vt 0.009812500000000002 0.9014375
vt 0.24426875 0.9038312500000001
vt 0.26795 1
vt 0 1
vt 0.023681250000000015 0.9038312500000001
vt 0.023681249999999987 0.9999999999999973
vt 0 0.9038249999999973
vt 0.3153125 0.9038249999999973
vt 0.29163125 0.9999999999999973
vt 0.009812500000000002 1
vt 0 0.90144375
vt 0.3349375 0.90144375
vt 0.325125 1
vt 0 1
vt 0.009812500000000002 0.90144375
vt 0.325125 0.90144375
vt 0.3349375 1
vt 0 1
vt 0.023681249999999987 0.903825
vt 0.29163125 0.903825
vt 0.3153125 1
vt 0.26795 0.9038312500000001
vt 0.24426875 1
vt 0.023681250000000015 1
vt 0 0.9038312500000001
vt 0.2205875 0.9014375
vt 0.210775 1
vt 0.009812500000000002 1
vt 0 0.9014375
vt 0.210775 0.9014375
vt 0.2205875 1
vt 0 1
vt 0.009812500000000002 0.9014375
vt 0.24426875 0.9038312500000001
vt 0.26795 1
vt 0 1
vt 0.023681250000000015 0.9038312500000001
vt 0.023681249999999987 0.9999999999999973
vt 0 0.9038249999999973
vt 0.3153125 0.9038249999999973
vt 0.29163125 0.9999999999999973
vt 0.009812500000000002 1
vt 0 0.90144375
vt 0.3349375 0.90144375
vt 0.325125 1
vt 0 1
vt 0.009812500000000002 0.90144375
vt 0.325125 0.90144375
vt 0.3349375 1
vt 0 1
vt 0.023681249999999987 0.903825
vt 0.29163125 0.903825
vt 0.3153125 1
vt 0.26795 0.9038312500000001
vt 0.24426875 1
vt 0.023681250000000015 1
vt 0 0.9038312500000001
vt 0.2205875 0.9014375
vt 0.210775 1
vt 0.009812500000000002 1
vt 0 0.9014375
vt 0.210775 0.9014375
vt 0.2205875 1
vt 0 1
vt 0.009812500000000002 0.9014375
vt 0.24426875 0.9038312500000001
vt 0.26795 1
vt 0 1
vt 0.023681250000000015 0.9038312500000001
vt 0.023681249999999987 0.9999999999999973
vt 0 0.9038249999999973
vt 0.3153125 0.9038249999999973
vt 0.29163125 0.9999999999999973
vt 0.009812500000000002 1
vt 0 0.90144375
vt 0.3349375 0.90144375
vt 0.325125 1
vt 0 1
vt 0.009812500000000002 0.90144375
vt 0.325125 0.90144375
vt 0.3349375 1
vt 0 1
vt 0.023681249999999987 0.903825
vt 0.29163125 0.903825
vt 0.3153125 1
vt 0.26795 0.9038312500000001
vt 0.24426875 1
vt 0.023681250000000015 1
vt 0 0.9038312500000001
vt 0.2205875 0.9014375
vt 0.210775 1
vt 0.009812500000000002 1
vt 0 0.9014375
vt 0.210775 0.9014375
vt 0.2205875 1
vt 0 1
vt 0.009812500000000002 0.9014375
vt 0.24426875 0.9038312500000001
vt 0.26795 1
vt 0 1
vt 0.023681250000000015 0.9038312500000001
vt 0.023681249999999987 0.9999999999999973
vt 0 0.9038249999999973
vt 0.3153125 0.9038249999999973
vt 0.29163125 0.9999999999999973
vt 0.009812500000000002 1
vt 0 0.90144375
vt 0.3349375 0.90144375
vt 0.325125 1
vt 0 1
vt 0.009812500000000002 0.90144375
vt 0.325125 0.90144375
vt 0.3349375 1
vt 0 1
vt 0.023681249999999987 0.903825
vt 0.29163125 0.903825
vt 0.3153125 1
vt 0.26795 0.9038312500000001
vt 0.24426875 1
vt 0.023681250000000015 1
vt 0 0.9038312500000001
vt 0.2205875 0.9014375
vt 0.210775 1
vt 0.009812500000000002 1
vt 0 0.9014375
vt 0.210775 0.9014375
vt 0.2205875 1
vt 0 1
vt 0.009812500000000002 0.9014375
vt 0.24426875 0.9038312500000001
vt 0.26795 1
vt 0 1
vt 0.023681250000000015 0.9038312500000001
vt 0.023681249999999987 0.9999999999999973
vt 0 0.9038249999999973
vt 0.3153125 0.9038249999999973
vt 0.29163125 0.9999999999999973
vt 0.009812500000000002 1
vt 0 0.90144375
vt 0.3349375 0.90144375
vt 0.325125 1
vt 0 1
vt 0.009812500000000002 0.90144375
vt 0.325125 0.90144375
vt 0.3349375 1
vt 0 1
vt 0.023681249999999987 0.903825
vt 0.29163125 0.903825
vt 0.3153125 1
vt 0.26795 0.9038312500000001
vt 0.24426875 1
vt 0.023681250000000015 1
vt 0 0.9038312500000001
vt 0.2205875 0.9014375
vt 0.210775 1
vt 0.009812500000000002 1
vt 0 0.9014375
vt 0.210775 0.9014375
vt 0.2205875 1
vt 0 1
vt 0.009812500000000002 0.9014375
vt 0.24426875 0.9038312500000001
vt 0.26795 1
vt 0 1
vt 0.023681250000000015 0.9038312500000001
vt 0.023681249999999987 0.9999999999999973
vt 0 0.9038249999999973
vt 0.3153125 0.9038249999999973
vt 0.29163125 0.9999999999999973
vt 0.009812500000000002 1
vt 0 0.90144375
vt 0.3349375 0.90144375
vt 0.325125 1
vt 0 1
vt 0.009812500000000002 0.90144375
vt 0.325125 0.90144375
vt 0.3349375 1
vt 0 1
vt 0.023681249999999987 0.903825
vt 0.29163125 0.903825
vt 0.3153125 1
vt 0.26795 0.9038312500000001
vt 0.24426875 1
vt 0.023681250000000015 1
vt 0 0.9038312500000001
vt 0.2205875 0.9014375
vt 0.210775 1
vt 0.009812500000000002 1
vt 0 0.9014375
vt 0.210775 0.9014375
vt 0.2205875 1
vt 0 1
vt 0.009812500000000002 0.9014375
vt 0.24426875 0.9038312500000001
vt 0.26795 1
vt 0 1
vt 0.023681250000000015 0.9038312500000001
vt 0.765625 0.28125
vt 0.765625 0.75
vt 0.25 0.75
vt 0.25 0.28125
vn 0 -1.1842378929335267e-15 -1
vn 0 -1.1842378929335269e-15 -1
vn 0 -3.947459643111739e-16 -1
vn 0 -5.921189464667609e-16 -1
vn 0 -1.1842378929335265e-15 -1
vn 0 -1.1842378929335265e-15 -1
vn 0 -1.1842378929335265e-15 -1
vn 0 -1.1842378929335265e-15 -1
vn 0 -1.1842378929335265e-15 -1
vn 0 -1.1842378929335265e-15 -1
vn 3.947459643111713e-16 -3.9474596431117133e-16 -1
vn -5.921189464667618e-16 -5.921189464667608e-16 -1
vn 0.17331098757355173 -0.30018343598732994 0.9380049074205962
vn 0.4535022012749042 -0.7854888539524614 0.42112113905058884
vn 0.4535022012749043 -0.7854888539524619 -0.42112113905058723
vn 0.17331098757355 -0.30018343598732844 -0.938004907420597
vn -0.17331098757355082 0.30018343598732844 -0.9380049074205966
vn -0.4535022012749046 0.7854888539524616 -0.4211211390505879
vn -0.4535022012749046 0.7854888539524619 0.4211211390505871
vn -0.1733109875735511 0.30018343598733016 0.9380049074205961
vn 0.3001834359873285 -0.17331098757355093 0.9380049074205966
vn 0.7854888539524613 -0.453502201274904 0.4211211390505888
vn 0.7854888539524619 -0.45350220127490487 -0.4211211390505868
vn 0.3001834359873298 -0.17331098757355162 -0.9380049074205962
vn -0.3001834359873305 0.1733109875735511 -0.938004907420596
vn -0.785488853952461 0.4535022012749044 -0.4211211390505888
vn -0.7854888539524618 0.4535022012749046 0.42112113905058746
vn -0.3001834359873284 0.17331098757355082 0.9380049074205968
vn 0.3466219751471017 0 0.9380049074205968
vn 0.9070044025498087 0 0.4211211390505879
vn 0.9070044025498092 0 -0.42112113905058696
vn 0.34662197514710136 0 -0.9380049074205967
vn -0.34662197514710175 0 -0.9380049074205966
vn -0.9070044025498092 0 -0.42112113905058707
vn -0.9070044025498091 0 0.42112113905058696
vn -0.3466219751471017 0 0.9380049074205966
vn 0.30018343598732816 0.1733109875735514 0.9380049074205966
vn 0.7854888539524616 0.45350220127490465 0.4211211390505876
vn 0.7854888539524619 0.45350220127490454 -0.42112113905058696
vn 0.3001834359873281 0.17331098757355068 -0.9380049074205968
vn -0.3001834359873285 -0.17331098757355087 -0.9380049074205966
vn -0.7854888539524618 -0.45350220127490487 -0.421121139050587
vn -0.785488853952462 -0.45350220127490437 0.4211211390505871
vn -0.3001834359873284 -0.17331098757355082 0.9380049074205966
vn 0.1733109875735519 0.30018343598733016 0.938004907420596
vn 0.4535022012749044 0.7854888539524616 0.42112113905058796
vn 0.4535022012749045 0.7854888539524619 -0.4211211390505877
vn 0.1733109875735512 0.30018343598732766 -0.9380049074205968
vn -0.173310987573551 -0.30018343598732855 -0.9380049074205967
vn -0.45350220127490415 -0.7854888539524617 -0.42112113905058796
vn -0.45350220127490426 -0.7854888539524615 0.4211211390505881
vn -0.17331098757355198 -0.3001834359873292 0.9380049074205962
vn 1.0136110961021233e-16 0.3466219751471017 0.9380049074205968
vn 2.4822428081626084e-16 0.9070044025498089 0.42112113905058807
vn 2.636696938853914e-16 0.9070044025498087 -0.4211211390505879
vn 2.3855878319741127e-16 0.34662197514710313 -0.9380049074205962
vn -1.4489311820647067e-16 -0.34662197514710374 -0.9380049074205958
vn -4.1370713469376883e-16 -0.9070044025498084 -0.4211211390505888
vn -3.7690909531786323e-16 -0.9070044025498092 0.4211211390505871
vn -2.385587831974116e-16 -0.3466219751471017 0.9380049074205968
vn -0.17331098757355093 0.3001834359873289 0.9380049074205966
vn -0.4535022012749041 0.7854888539524618 0.42112113905058823
vn -0.453502201274904 0.7854888539524619 -0.421121139050588
vn -0.1733109875735523 0.30018343598732977 -0.938004907420596
vn 0.17331098757355162 -0.30018343598733005 -0.938004907420596
vn 0.45350220127490365 -0.7854888539524616 -0.4211211390505887
vn 0.4535022012749041 -0.7854888539524622 0.42112113905058707
vn 0.17331098757355132 -0.3001834359873281 0.9380049074205967
vn -0.30018343598732977 0.17331098757355223 0.938004907420596
vn -0.7854888539524616 0.4535022012749045 0.42112113905058796
vn -0.7854888539524619 0.4535022012749044 -0.4211211390505877
vn -0.30018343598732833 0.17331098757355068 -0.9380049074205967
vn 0.3001834359873286 -0.17331098757355082 -0.9380049074205966
vn 0.7854888539524615 -0.4535022012749044 -0.42112113905058823
vn 0.7854888539524616 -0.45350220127490387 0.4211211390505884
vn 0.3001834359873299 -0.1733109875735517 0.9380049074205962
vn -0.34662197514710175 0 0.9380049074205966
vn -0.9070044025498087 0 0.42112113905058796
vn -0.9070044025498092 0 -0.42112113905058696
vn -0.34662197514710136 1.1927939159870583e-16 -0.9380049074205968
vn 0.34662197514710175 -1.4489311820647075e-16 -0.9380049074205967
vn 0.9070044025498091 0 -0.421121139050587
vn 0.9070044025498091 0 0.421121139050587
vn 0.3466219751471017 -1.192793915987059e-16 0.9380049074205966
vn -0.3001834359873288 -0.17331098757355093 0.9380049074205965
vn -0.7854888539524618 -0.45350220127490387 0.421121139050588
vn -0.7854888539524622 -0.45350220127490454 -0.4211211390505871
vn -0.3001834359873285 -0.17331098757355082 -0.9380049074205967
vn 0.30018343598732883 0.17331098757355007 -0.9380049074205968
vn 0.7854888539524618 0.4535022012749044 -0.4211211390505879
vn 0.7854888539524623 0.45350220127490426 0.42112113905058685
vn 0.3001834359873282 0.17331098757355068 0.9380049074205967
vn -0.17331098757355098 -0.3001834359873285 0.9380049074205966
vn -0.4535022012749044 -0.7854888539524613 0.4211211390505889
vn -0.45350220127490487 -0.7854888539524622 -0.4211211390505869
vn -0.17331098757355126 -0.3001834359873305 -0.938004907420596
vn 0.17331098757355168 0.30018343598733 -0.938004907420596
vn 0.4535022012749044 0.7854888539524609 -0.42112113905058907
vn 0.4535022012749047 0.7854888539524617 0.42112113905058723
vn 0.1733109875735504 0.3001834359873288 0.9380049074205967
vn 0 -0.3466219751471034 0.938004907420596
vn 0 -0.9070044025498083 0.42112113905058873
vn 0 -0.9070044025498091 -0.421121139050587
vn 0 -0.34662197514710136 -0.9380049074205967
vn 0 0.3466219751471017 -0.9380049074205966
vn 0 0.9070044025498087 -0.42112113905058784
vn 0 0.9070044025498091 0.421121139050587
vn 0 0.3466219751471034 0.938004907420596
vn 0 0.5 0.8660254037844387
usemtl m_06f9274d-b3aa-5480-b43b-0e1c3f3d94ae
f 76/257/71 85/258/71 89/259/71 78/260/71
f 78/261/72 89/262/72 92/263/72 80/264/72
f 81/265/73 83/266/73 84/267/73 82/268/73
f 83/269/74 85/270/74 86/271/74 84/272/74
f 77/273/75 87/274/75 81/275/75 75/276/75
f 87/277/76 88/278/76 83/279/76 81/280/76
f 88/281/77 89/282/77 85/283/77 83/284/77
f 79/285/78 90/286/78 87/287/78 77/288/78
f 90/289/79 91/290/79 88/291/79 87/292/79
f 91/293/80 92/294/80 89/295/80 88/296/80
f 93/297/81 94/298/81 91/299/81 90/300/81
f 94/301/82 95/302/82 92/303/82 91/304/82
f 96/305/83 97/306/83 105/307/83 104/308/83
f 97/309/84 98/310/84 106/311/84 105/312/84
f 98/313/85 99/314/85 107/315/85 106/316/85
f 99/317/86 100/318/86 108/319/86 107/320/86
f 100/321/87 101/322/87 109/323/87 108/324/87
f 101/325/88 102/326/88 110/327/88 109/328/88
f 102/329/89 103/330/89 111/331/89 110/332/89
f 103/333/90 96/334/90 104/335/90 111/336/90
f 104/337/91 105/338/91 113/339/91 112/340/91
f 105/341/92 106/342/92 114/343/92 113/344/92
f 106/345/93 107/346/93 115/347/93 114/348/93
f 107/349/94 108/350/94 116/351/94 115/352/94
f 108/353/95 109/354/95 117/355/95 116/356/95
f 109/357/96 110/358/96 118/359/96 117/360/96
f 110/361/97 111/362/97 119/363/97 118/364/97
f 111/365/98 104/366/98 112/367/98 119/368/98
f 112/369/99 113/370/99 121/371/99 120/372/99
f 113/373/100 114/374/100 122/375/100 121/376/100
f 114/377/101 115/378/101 123/379/101 122/380/101
f 115/381/102 116/382/102 124/383/102 123/384/102
f 116/385/103 117/386/103 125/387/103 124/388/103
f 117/389/104 118/390/104 126/391/104 125/392/104
f 118/393/105 119/394/105 127/395/105 126/396/105
f 119/397/106 112/398/106 120/399/106 127/400/106
f 120/401/107 121/402/107 129/403/107 128/404/107
f 121/405/108 122/406/108 130/407/108 129/408/108
f 122/409/109 123/410/109 131/411/109 130/412/109
f 123/413/110 124/414/110 132/415/110 131/416/110
f 124/417/111 125/418/111 133/419/111 132/420/111
f 125/421/112 126/422/112 134/423/112 133/424/112
f 126/425/113 127/426/113 135/427/113 134/428/113
f 127/429/114 120/430/114 128/431/114 135/432/114
f 128/433/115 129/434/115 137/435/115 136/436/115
f 129/437/116 130/438/116 138/439/116 137/440/116
f 130/441/117 131/442/117 139/443/117 138/444/117
f 131/445/118 132/446/118 140/447/118 139/448/118
f 132/449/119 133/450/119 141/451/119 140/452/119
f 133/453/120 134/454/120 142/455/120 141/456/120
f 134/457/121 135/458/121 143/459/121 142/460/121
f 135/461/122 128/462/122 136/463/122 143/464/122
f 136/465/123 137/466/123 145/467/123 144/468/123
f 137/469/124 138/470/124 146/471/124 145/472/124
f 138/473/125 139/474/125 147/475/125 146/476/125
f 139/477/126 140/478/126 148/479/126 147/480/126
f 140/481/127 141/482/127 149/483/127 148/484/127
f 141/485/128 142/486/128 150/487/128 149/488/128
f 142/489/129 143/490/129 151/491/129 150/492/129
f 143/493/130 136/494/130 144/495/130 151/496/130
f 144/497/131 145/498/131 153/499/131 152/500/131
f 145/501/132 146/502/132 154/503/132 153/504/132
f 146/505/133 147/506/133 155/507/133 154/508/133
f 147/509/134 148/510/134 156/511/134 155/512/134
f 148/513/135 149/514/135 157/515/135 156/516/135
f 149/517/136 150/518/136 158/519/136 157/520/136
f 150/521/137 151/522/137 159/523/137 158/524/137
f 151/525/138 144/526/138 152/527/138 159/528/138
f 152/529/139 153/530/139 161/531/139 160/532/139
f 153/533/140 154/534/140 162/535/140 161/536/140
f 154/537/141 155/538/141 163/539/141 162/540/141
f 155/541/142 156/542/142 164/543/142 163/544/142
f 156/545/143 157/546/143 165/547/143 164/548/143
f 157/549/144 158/550/144 166/551/144 165/552/144
f 158/553/145 159/554/145 167/555/145 166/556/145
f 159/557/146 152/558/146 160/559/146 167/560/146
f 160/561/147 161/562/147 169/563/147 168/564/147
f 161/565/148 162/566/148 170/567/148 169/568/148
f 162/569/149 163/570/149 171/571/149 170/572/149
f 163/573/150 164/574/150 172/575/150 171/576/150
f 164/577/151 165/578/151 173/579/151 172/580/151
f 165/581/152 166/582/152 174/583/152 173/584/152
f 166/585/153 167/586/153 175/587/153 174/588/153
f 167/589/154 160/590/154 168/591/154 175/592/154
f 168/593/155 169/594/155 177/595/155 176/596/155
f 169/597/156 170/598/156 178/599/156 177/600/156
f 170/601/157 171/602/157 179/603/157 178/604/157
f 171/605/158 172/606/158 180/607/158 179/608/158
f 172/609/159 173/610/159 181/611/159 180/612/159
f 173/613/160 174/614/160 182/615/160 181/616/160
f 174/617/161 175/618/161 183/619/161 182/620/161
f 175/621/162 168/622/162 176/623/162 183/624/162
f 176/625/163 177/626/163 185/627/163 184/628/163
f 177/629/164 178/630/164 186/631/164 185/632/164
f 178/633/165 179/634/165 187/635/165 186/636/165
f 179/637/166 180/638/166 188/639/166 187/640/166
f 180/641/167 181/642/167 189/643/167 188/644/167
f 181/645/168 182/646/168 190/647/168 189/648/168
f 182/649/169 183/650/169 191/651/169 190/652/169
f 183/653/170 176/654/170 184/655/170 191/656/170
f 184/657/171 185/658/171 97/659/171 96/660/171
f 185/661/172 186/662/172 98/663/172 97/664/172
f 186/665/173 187/666/173 99/667/173 98/668/173
f 187/669/174 188/670/174 100/671/174 99/672/174
f 188/673/175 189/674/175 101/675/175 100/676/175
f 189/677/176 190/678/176 102/679/176 101/680/176
f 190/681/177 191/682/177 103/683/177 102/684/177
f 191/685/178 184/686/178 96/687/178 103/688/178
f 194/689/179 192/690/179 193/691/179 195/692/179
o cylinder
v -1.734723475976807e-17 -1.125 0.625
v -1.734723475976807e-17 -0.14019224698779198 0.45135182233306964
v 0.05024047358083548 -1.0924409666874506 0.809651453689789
v 0.05024047358083548 -0.10763321367524248 0.6360032760228587
v 0.13725952641916445 -1.1011651333698862 0.7601742457923771
v 0.13725952641916445 -0.11635738035767829 0.5865260681254468
v 0.18749999999999997 -1.1162758333175644 0.6744772078974118
v 0.18749999999999997 -0.1314680803053564 0.5008290302304814
v 0.18749999999999997 -1.1337241666824356 0.5755227921025882
v 0.18749999999999997 -0.14891641367022768 0.40187461443565786
v 0.13725952641916447 -1.1488348666301138 0.4898257542076228
v 0.13725952641916447 -0.16402711361790578 0.31617757654069245
v 0.05024047358083554 -1.1575590333125494 0.44034854631021103
v 0.05024047358083554 -0.17275128030034137 0.2667003686432807
v -0.05024047358083544 -1.1575590333125494 0.440348546310211
v -0.05024047358083544 -0.17275128030034137 0.2667003686432806
v -0.1372595264191645 -1.1488348666301138 0.48982575420762275
v -0.1372595264191645 -0.16402711361790578 0.31617757654069245
v -0.18749999999999997 -1.1337241666824356 0.5755227921025882
v -0.18749999999999997 -0.14891641367022768 0.40187461443565786
v -0.18750000000000003 -1.1162758333175644 0.6744772078974117
v -0.18750000000000003 -0.1314680803053564 0.5008290302304814
v -0.13725952641916453 -1.1011651333698862 0.7601742457923771
v -0.13725952641916453 -0.11635738035767829 0.5865260681254468
v -0.0502404735808355 -1.0924409666874506 0.809651453689789
v -0.0502404735808355 -0.10763321367524248 0.6360032760228587
v 0.34375 0.8476361141556923 0.7226361141556921
v 0.34375 0.41013611415569207 -0.035136114155692066
v 0.34375 0.30637023679041797 1.035136114155692
v 0.34375 -0.13112976320958192 0.27736388584430804
v -0.34375 0.8476361141556923 0.7226361141556921
v -0.34375 0.41013611415569207 -0.035136114155692066
v -0.34375 0.30637023679041797 1.035136114155692
v -0.34375 -0.13112976320958192 0.27736388584430804
v 0.34375 0.1897436490538904 1.003886114155692
v -0.34375 0.1897436490538904 1.003886114155692
v 0.34375 -0.2477563509461096 0.246113885844308
v -0.34375 -0.2477563509461096 0.246113885844308
v 0.34375 0.7767627018922194 0.44138611415569184
v 0.34375 0.3392627018922194 -0.3163861141556922
v -0.34375 0.7767627018922194 0.44138611415569184
v -0.34375 0.3392627018922194 -0.3163861141556922
v 0.2578125 0.7799778794850327 0.761698614155692
v -0.2578125 0.7799778794850327 0.761698614155692
v 0.2578125 0.3740284714610773 0.9960736141556922
v -0.2578125 0.3740284714610773 0.9960736141556922
v 0.2578125 0.7487278794850329 0.7075720264191645
v -0.2578125 0.7487278794850329 0.7075720264191645
v 0.2578125 0.3427784714610771 0.9419470264191645
v -0.2578125 0.3427784714610771 0.9419470264191645
v -0.625 -0.14623412263472568 0.625
v 0.625 -0.14623412263472546 0.625
v -0.625 -0.2912658773652739 0.5412658773652742
v 0.625 -0.29126587736527365 0.5412658773652742
v -0.6249999999999999 -0.3749999999999999 0.3962341226347258
v 0.625 -0.37499999999999967 0.3962341226347258
v -0.6249999999999999 -0.3749999999999999 0.2287658773652741
v 0.625 -0.37499999999999967 0.2287658773652741
v -0.625 -0.291265877365274 0.0837341226347258
v 0.625 -0.29126587736527376 0.0837341226347258
v -0.625 -0.14623412263472557 0
v 0.625 -0.14623412263472535 0
v -0.625 0.021234122634726127 -1.1102230246251565e-16
v 0.625 0.02123412263472635 -1.1102230246251565e-16
v -0.625 0.16626587736527432 0.0837341226347258
v 0.625 0.16626587736527476 0.08373412263472568
v -0.625 0.2500000000000002 0.22876587736527415
v 0.625 0.25000000000000044 0.2287658773652742
v -0.625 0.2500000000000002 0.3962341226347256
v 0.625 0.2500000000000002 0.3962341226347257
v -0.625 0.16626587736527454 0.5412658773652741
v 0.625 0.16626587736527476 0.5412658773652741
v -0.625 0.021234122634725905 0.6250000000000001
v 0.625 0.02123412263472635 0.625
v 0.625 0.17187500000000044 0.24969940802395557
v 0.625 0.17187500000000067 0.37530059197604426
v 0.625 0.10907440802395607 0.14092559197604426
v 0.625 0.00030059197604481724 0.078125
v 0.625 -0.12530059197604404 0.078125
v 0.625 -0.2340744080239553 0.14092559197604437
v 0.625 -0.29687499999999956 0.24969940802395552
v 0.625 -0.29687499999999956 0.3753005919760443
v 0.625 -0.23407440802395518 0.4840744080239556
v 0.625 -0.12530059197604393 0.546875
v 0.625 0.00030059197604481724 0.546875
v 0.625 0.10907440802395607 0.4840744080239555
v -0.625 0.17187500000000044 0.37530059197604426
v -0.625 0.171875 0.24969940802395563
v -0.625 0.10907440802395585 0.48407440802395557
v -0.625 0.0003005919760445952 0.546875
v -0.625 -0.12530059197604415 0.5468750000000001
v -0.625 -0.2968749999999998 0.3753005919760444
v -0.625 -0.2340744080239554 0.4840744080239556
v -0.625 -0.2968749999999998 0.24969940802395552
v -0.625 -0.23407440802395552 0.14092559197604426
v -0.625 -0.12530059197604448 0.078125
v -0.625 0.00030059197604437315 0.078125
v -0.625 0.10907440802395585 0.14092559197604426
vt 0.5176375191676121 0.7411812404161939
vt 0.44828802160274145 1
vt 0 0.7411812404161939
vt 0 0
vt 0.26795 0
vt 0.26795 1
vt 0 1
vt 0 0.48236180528770867
vt 0.2588184218119073 0.5517125634363665
vt 8.326672684688674e-17 1
vt 0.5176381947122913 0.7411815781880927
vt 0.44828743656363346 1
vt 0 0.7411815781880928
vt 0 0
vt 0.26795 0
vt 0.26795 1
vt 0 1
vt 5.551115123125783e-17 0.48236248083238786
vt 0.25881875958380607 0.5517119783972586
vt 0 1
vt 0.5 0.73205
vt 0.5 1
vt 0 0.866025
vt 0 0
vt 0.26795 0
vt 0.26795 1
vt 0 1
vt 0.5 0.73205
vt 0.5 1
vt 0 0.866025
vt 5.551115123125783e-17 0.48236248083238786
vt 0.25881875958380607 0.5517119783972586
vt 0 1
vt 0 0
vt 0.26795 0
vt 0.26795 1
vt 0 1
vt 0.5176381947122913 0.7411815781880927
vt 0.44828743656363346 1
vt 0 0.7411815781880928
vt 0 0.48236180528770867
vt 0.2588184218119073 0.5517125634363665
vt 8.326672684688674e-17 1
vt 0 0
vt 0.26795 0
vt 0.26795 1
vt 0 1
vt 0.5176375191676121 0.7411812404161939
vt 0.44828802160274145 1
vt 0 0.7411812404161939
vt 0 0.5
vt 0.26795 0.5
vt 0.133975 1
vt 0 0
vt 0.26795 0
vt 0.26795 1
vt 0 1
vt 0.26795 1
vt 0 1
vt 0.133975 0.5
vt 0 1
vt 0.06934949756487069 0.7411812404161939
vt 0.5176375191676121 1
vt 0 0
vt 0.26795 0
vt 0.26795 1
vt 0 1
vt 0.2588184218119073 1
vt 0 0.9306492418513421
vt 0.2588184218119072 0.48236180528770867
vt 0 1
vt 0.06935075814865788 0.7411815781880927
vt 0.5176381947122913 0.9999999999999999
vt 0 0
vt 0.26795 0
vt 0.26795 1
vt 0 1
vt 0.258818759583806 1
vt 0 0.9306505024351293
vt 0.25881875958380607 0.48236248083238786
vt 0 1
vt 0 0.73205
vt 0.5 0.866025
vt 0 0
vt 0.26795 0
vt 0.26795 1
vt 0 1
vt 0 1
vt 0 0.73205
vt 0.5 0.866025
vt 0.258818759583806 1
vt 0 0.9306505024351293
vt 0.25881875958380607 0.48236248083238786
vt 0 0
vt 0.26795 0
vt 0.26795 1
vt 0 1
vt 0 1
vt 0.06935075814865788 0.7411815781880927
vt 0.5176381947122913 0.9999999999999999
vt 0.2588184218119073 1
vt 0 0.9306492418513421
vt 0.2588184218119072 0.48236180528770867
vt 0 0
vt 0.26795 0
vt 0.26795 1
vt 0 1
vt 0 1
vt 0.06934949756487069 0.7411812404161939
vt 0.5176375191676121 1
vt 0.26795 1
vt 0 1
vt 0.133975 0.5
vt 0 0
vt 0.26795 0
vt 0.26795 1
vt 0 1
vt 0 0.5
vt 0.26795 0.5
vt 0.133975 1
vt 1 1
vt 0 1
vt 0 0
vt 1 0
vt 1 0
vt 1 1
vt 0 1
vt 0 0
vt 0 0
vt 1 0
vt 1 1
vt 0 1
vt 1 0
vt 1 1
vt 0 1
vt 0 0
vt 1 1
vt 0 1
vt 0 0
vt 1 0
vt 0.0625 0.6875
vt 0.9375 0.6875
vt 0.9375 0.75
vt 0.0625 0.75
vt 0 0.9375
vt 0.6875 0.9375
vt 0.6875 1
vt 0 1
vt 0 0.6875
vt 0.875 0.6875
vt 0.875 0.75
vt 0 0.75
vt 0 0.4375
vt 0.6875 0.4375
vt 0.6875 0.5
vt 0 0.5
vt 0.6875 0.5
vt 0 0.5
vt 0 0.4375
vt 0.6875 0.4375
vt 0.9375 0.75
vt 0.0625 0.75
vt 0.0625 0.6875
vt 0.9375 0.6875
vt 0.6875 1
vt 0 1
vt 0 0.9375
vt 0.6875 0.9375
vt 0.875 0.75
vt 0 0.75
vt 0 0.6875
vt 0.875 0.6875
vt 0.9375 0.734375
vt 0.9375 0.265625
vt 1.0234375 0.1875
vt 1.0234375 0.8125
vt 0.2734375 0.921875
vt 0.7890625 0.921875
vt 0.875 1
vt 0.1875 1
vt 0.0859375 0.265625
vt 0.0859375 0.734375
vt 0 0.8125
vt 0 0.1875
vt 0.7890625 0.0625
vt 0.2734375 0.0625
vt 0.1875 -0.015625
vt 0.875 -0.015625
vt 0.375 1
vt 0.375 0.53125
vt 0.4375 0.53125
vt 0.4375 1
vt 0 0.8125
vt 0.515625 0.8125
vt 0.515625 0.875
vt 0 0.875
vt 0.1875 0.53125
vt 0.1875 1
vt 0.125 1
vt 0.125 0.53125
vt 0.515625 0.6875
vt 0 0.6875
vt 0 0.625
vt 0.515625 0.625
vt 0 0
vt 0.26795 0
vt 0.26795 1
vt 0 1
vt 0 0
vt 0.26795 0
vt 0.26795 1
vt 0 1
vt 0 0
vt 0.26795 0
vt 0.26795 1
vt 0 1
vt 0 0
vt 0.26795 0
vt 0.26795 1
vt 0 1
vt 0 0
vt 0.26795 0
vt 0.26795 1
vt 0 1
vt 0 0
vt 0.26795 0
vt 0.26795 1
vt 0 1
vt 0 0
vt 0.26795 0
vt 0.26795 1
vt 0 1
vt 0 0
vt 0.26795 0
vt 0.26795 1
vt 0 1
vt 0 0
vt 0.26795 0
vt 0.26795 1
vt 0 1
vt 0 0
vt 0.26795 0
vt 0.26795 1
vt 0 1
vt 0 0
vt 0.26795 0
vt 0.26795 1
vt 0 1
vt 0 0
vt 0.26795 0
vt 0.26795 1
vt 0 1
vt 0.078125 0.7909687500000004
vt 0.078125 0.9165687500000004
vt 0 0.9375000000000004
vt 0 0.7700375000000004
vt 0.08343481868335778 0.9218720686786542
vt 0.20903673198486764 0.9218720686786541
vt 0.22997178454205186 1
vt 0.06249999999999947 0.9999961124696499
vt 0.08343505255718406 0.9218720686786541
vt 0.2090369658586939 0.9218720686786542
vt 0.22997178454205222 0.9999961124696499
vt 0.06249999999999985 1
vt 0.0834312499999996 0.921875
vt 0.20903124999999959 0.921875
vt 0.22996249999999957 1
vt 0.0624999999999996 1
vt 0.437499999999998 0.9165651813166422
vt 0.4374999999999979 0.7909632680151324
vt 0.5156279313213438 0.7700282154579481
vt 0.5156240437909936 0.9375000000000006
vt 0.4374999999999979 0.9165649474428159
vt 0.437499999999998 0.7909630341413061
vt 0.5156240437909936 0.7700282154579478
vt 0.5156279313213438 0.9375000000000001
vt 0.5 0.9165687500000004
vt 0.5 0.7909687500000004
vt 0.578125 0.7700375000000004
vt 0.578125 0.9375000000000004
vt 0.2090369658586939 0.562500000000002
vt 0.08343505255718406 0.5625000000000021
vt 0.06249999999999983 0.48437206867865623
vt 0.22997178454205222 0.4843759562090064
vt 0.20903673198486764 0.5625000000000021
vt 0.08343481868335777 0.562500000000002
vt 0.06249999999999947 0.4843759562090064
vt 0.22997178454205186 0.48437206867865623
vt 0.20903124999999959 0.5
vt 0.0834312499999996 0.5
vt 0.0624999999999996 0.421875
vt 0.22996249999999957 0.421875
vt 0.0781279313213458 0.7909630341413061
vt 0.07812793132134585 0.9165649474428159
vt 0 0.9375000000000002
vt 0.000003887530350132895 0.7700282154579478
vt 0.07812793132134585 0.7909632680151324
vt 0.0781279313213458 0.9165651813166422
vt 0.000003887530350132895 0.9375000000000006
vt 0 0.7700282154579481
vt 0.078125 0.7909687500000004
vt 0.078125 0.9165687500000004
vt 0 0.9375000000000004
vt 0 0.7700375000000004
vt 0.08343481868335778 0.9218720686786542
vt 0.20903673198486764 0.9218720686786541
vt 0.22997178454205186 1
vt 0.06249999999999947 0.9999961124696499
vt 0.08343505255718406 0.9218720686786541
vt 0.2090369658586939 0.9218720686786542
vt 0.22997178454205222 0.9999961124696499
vt 0.06249999999999985 1
vt 0.0834312499999996 0.921875
vt 0.20903124999999959 0.921875
vt 0.22996249999999957 1
vt 0.0624999999999996 1
vt 0.4374999999999979 0.9165649474428159
vt 0.437499999999998 0.7909630341413061
vt 0.5156240437909936 0.7700282154579478
vt 0.5156279313213438 0.9375000000000001
vt 0.437499999999998 0.9165651813166422
vt 0.4374999999999979 0.7909632680151324
vt 0.5156279313213438 0.7700282154579481
vt 0.5156240437909936 0.9375000000000006
vt 0.5 0.9165687500000004
vt 0.5 0.7909687500000004
vt 0.578125 0.7700375000000004
vt 0.578125 0.9375000000000004
vt 0.2090369658586939 0.562500000000002
vt 0.08343505255718406 0.5625000000000021
vt 0.06249999999999983 0.48437206867865623
vt 0.22997178454205222 0.4843759562090064
vt 0.20903673198486764 0.5625000000000021
vt 0.08343481868335777 0.562500000000002
vt 0.06249999999999947 0.4843759562090064
vt 0.22997178454205186 0.48437206867865623
vt 0.20903124999999959 0.5
vt 0.0834312499999996 0.5
vt 0.0624999999999996 0.421875
vt 0.22996249999999957 0.421875
vt 0.0781279313213458 0.7909630341413061
vt 0.07812793132134585 0.9165649474428159
vt 0 0.9375000000000002
vt 0.000003887530350132895 0.7700282154579478
vt 0.07812793132134585 0.7909632680151324
vt 0.0781279313213458 0.9165651813166422
vt 0.000003887530350132895 0.9375000000000006
vt 0 0.7700282154579481
vn 0 -0.984807753012208 0.17364817766693033
vn 0.5 0.15038373318043533 0.8528685319524434
vn 0 0.984807753012208 -0.17364817766693033
vn 0 -0.984807753012208 0.17364817766693033
vn 0.8660254037844386 0.0868240888334652 0.49240387650610423
vn 0 0.984807753012208 -0.17364817766693033
vn 0 -0.984807753012208 0.17364817766693033
vn 1 0 0
vn 0 0.984807753012208 -0.17364817766693033
vn 0 -0.984807753012208 0.17364817766693033
vn 0.8660254037844387 -0.08682408883346518 -0.4924038765061041
vn 0 0.984807753012208 -0.17364817766693033
vn 0 -0.984807753012208 0.17364817766693033
vn 0.49999999999999994 -0.1503837331804353 -0.8528685319524433
vn 0 0.984807753012208 -0.17364817766693033
vn 0 -0.984807753012208 0.17364817766693033
vn 5.524544980845171e-16 -0.17364817766693033 -0.984807753012208
vn 0 0.984807753012208 -0.17364817766693033
vn 0 -0.984807753012208 0.17364817766693033
vn -0.49999999999999956 -0.15038373318043533 -0.8528685319524434
vn 0 0.984807753012208 -0.17364817766693033
vn 0 -0.984807753012208 0.17364817766693033
vn -0.8660254037844389 -0.0868240888334651 -0.4924038765061036
vn 0 0.984807753012208 -0.17364817766693033
vn 0 -0.984807753012208 0.17364817766693033
vn -1 -9.593271683627516e-17 -5.440614729001011e-16
vn 0 0.984807753012208 -0.17364817766693033
vn 0 -0.984807753012208 0.17364817766693033
vn -0.8660254037844389 0.08682408883346512 0.4924038765061038
vn 0 0.984807753012208 -0.17364817766693033
vn 0 -0.984807753012208 0.17364817766693033
vn -0.49999999999999994 0.15038373318043533 0.8528685319524434
vn 0 0.984807753012208 -0.17364817766693033
vn 0 -0.984807753012208 0.17364817766693033
vn 0 0.17364817766693033 0.984807753012208
vn 0 0.984807753012208 -0.17364817766693033
vn 1 0 0
vn -1 0 0
vn 0 0.8660254037844386 -0.5
vn 0 -0.8660254037844386 0.5
vn 0 -0.5000000000000001 -0.8660254037844387
vn 1 0 0
vn 0 -0.25881904510252046 0.9659258262890684
vn -1 0 0
vn 0 0.2588190451025209 -0.9659258262890682
vn 0 0.9696857580380494 -0.2443553368727066
vn 1 0 0
vn 0 -0.9696857580380494 0.24435533687270664
vn -1 0 0
vn 2.411538981973673e-15 0.5000000000000003 0.8660254037844384
vn 0 0.4999999999999986 0.8660254037844396
vn 2.067033413120291e-15 0.5000000000000003 0.8660254037844384
vn 0 0.49999999999999817 0.8660254037844397
vn -1 0 0
vn 0 -0.8660254037844385 0.5000000000000003
vn 1 0 0
vn 0 0.8660254037844392 -0.4999999999999993
vn 8.286817471267753e-17 -0.5000000000000001 0.8660254037844385
vn 1.5744953195408714e-16 -0.8660254037844385 0.5000000000000001
vn 1.7402316689662281e-16 -1 4.440892098500625e-16
vn 1.6573634942535496e-16 -0.8660254037844384 -0.5000000000000003
vn 5.800772229887429e-17 -0.4999999999999997 -0.8660254037844389
vn 1.2430226206901631e-17 -4.440892098500625e-16 -1
vn -1.9888361931042607e-16 0.5000000000000001 -0.8660254037844385
vn -1.5744953195408716e-16 0.8660254037844385 -0.5000000000000002
vn -8.286817471267764e-18 1 -9.436895709313829e-16
vn -1.3258907954028388e-16 0.8660254037844388 0.4999999999999998
vn -1.1601544459774838e-16 0.5000000000000001 0.8660254037844387
vn 2.9003861149437156e-17 -3.3306690738754686e-16 1
vn 1 0 0
vn 1 0 0
vn 1 0 0
vn 1 0 0
vn 1 0 0
vn 1 0 0
vn 1 0 0
vn 1 0 0
vn 1 0 0
vn 1 0 0
vn 1 0 0
vn 1 0 0
vn -1 0 0
vn -1 0 0
vn -1 0 0
vn -1 0 0
vn -1 -1.2306961192854811e-15 7.105427357600998e-16
vn -1 0 0
vn -1 -1.4210854715201993e-15 5.423418723394456e-31
vn -1 0 0
vn -1 0 0
vn -1 0 0
vn -1 0 0
vn -1 0 0
usemtl m_7b23a268-b227-0eb7-84e9-69f9d78311a5
f 200/693/180 198/694/180 196/695/180
f 198/696/181 200/697/181 201/698/181 199/699/181
f 199/700/182 201/701/182 197/702/182
f 202/703/183 200/704/183 196/705/183
f 200/706/184 202/707/184 203/708/184 201/709/184
f 201/710/185 203/711/185 197/712/185
f 204/713/186 202/714/186 196/715/186
f 202/716/187 204/717/187 205/718/187 203/719/187
f 203/720/188 205/721/188 197/722/188
f 206/723/189 204/724/189 196/725/189
f 204/726/190 206/727/190 207/728/190 205/729/190
f 205/730/191 207/731/191 197/732/191
f 208/733/192 206/734/192 196/735/192
f 206/736/193 208/737/193 209/738/193 207/739/193
f 207/740/194 209/741/194 197/742/194
f 210/743/195 208/744/195 196/745/195
f 208/746/196 210/747/196 211/748/196 209/749/196
f 209/750/197 211/751/197 197/752/197
f 212/753/198 210/754/198 196/755/198
f 210/756/199 212/757/199 213/758/199 211/759/199
f 211/760/200 213/761/200 197/762/200
f 214/763/201 212/764/201 196/765/201
f 212/766/202 214/767/202 215/768/202 213/769/202
f 213/770/203 215/771/203 197/772/203
f 216/773/204 214/774/204 196/775/204
f 214/776/205 216/777/205 217/778/205 215/779/205
f 215/780/206 217/781/206 197/782/206
f 218/783/207 216/784/207 196/785/207
f 216/786/208 218/787/208 219/788/208 217/789/208
f 217/790/209 219/791/209 197/792/209
f 220/793/210 218/794/210 196/795/210
f 218/796/211 220/797/211 221/798/211 219/799/211
f 219/800/212 221/801/212 197/802/212
f 198/803/213 220/804/213 196/805/213
f 220/806/214 198/807/214 199/808/214 221/809/214
f 221/810/215 199/811/215 197/812/215
f 223/813/216 222/814/216 224/815/216 225/816/216
f 228/817/217 226/818/217 227/819/217 229/820/217
f 236/821/218 234/822/218 235/823/218 237/824/218
f 232/825/219 230/826/219 231/827/219 233/828/219
f 227/829/220 223/830/220 225/831/220 229/832/220
f 230/833/221 232/834/221 225/835/221 224/836/221
f 231/837/222 230/838/222 224/839/222 228/840/222
f 233/841/223 231/842/223 228/843/223 229/844/223
f 232/845/224 233/846/224 229/847/224 225/848/224
f 234/849/225 236/850/225 226/851/225 222/852/225
f 235/853/226 234/854/226 222/855/226 223/856/226
f 237/857/227 235/858/227 223/859/227 227/860/227
f 236/861/228 237/862/228 227/863/228 226/864/228
f 238/865/229 240/866/229 224/867/229 222/868/229
f 239/869/230 238/870/230 222/871/230 226/872/230
f 241/873/231 239/874/231 226/875/231 228/876/231
f 240/877/232 241/878/232 228/879/232 224/880/232
f 242/881/233 244/882/233 240/883/233 238/884/233
f 243/885/234 242/886/234 238/887/234 239/888/234
f 245/889/235 243/890/235 239/891/235 241/892/235
f 244/893/236 245/894/236 241/895/236 240/896/236
f 246/897/237 248/898/237 249/899/237 247/900/237
f 248/901/238 250/902/238 251/903/238 249/904/238
f 250/905/239 252/906/239 253/907/239 251/908/239
f 252/909/240 254/910/240 255/911/240 253/912/240
f 254/913/241 256/914/241 257/915/241 255/916/241
f 256/917/242 258/918/242 259/919/242 257/920/242
f 258/921/243 260/922/243 261/923/243 259/924/243
f 260/925/244 262/926/244 263/927/244 261/928/244
f 262/929/245 264/930/245 265/931/245 263/932/245
f 264/933/246 266/934/246 267/935/246 265/936/246
f 266/937/247 268/938/247 269/939/247 267/940/247
f 268/941/248 246/942/248 247/943/248 269/944/248
f 271/945/249 270/946/249 263/947/249 265/948/249
f 270/949/250 272/950/250 261/951/250 263/952/250
f 272/953/251 273/954/251 259/955/251 261/956/251
f 273/957/252 274/958/252 257/959/252 259/960/252
f 274/961/253 275/962/253 255/963/253 257/964/253
f 275/965/254 276/966/254 253/967/254 255/968/254
f 276/969/255 277/970/255 251/971/255 253/972/255
f 277/973/256 278/974/256 249/975/256 251/976/256
f 278/977/257 279/978/257 247/979/257 249/980/257
f 279/981/258 280/982/258 269/983/258 247/984/258
f 280/985/259 281/986/259 267/987/259 269/988/259
f 281/989/260 271/990/260 265/991/260 267/992/260
f 283/993/261 282/994/261 264/995/261 262/996/261
f 282/997/262 284/998/262 266/999/262 264/1000/262
f 284/1001/263 285/1002/263 268/1003/263 266/1004/263
f 285/1005/264 286/1006/264 246/1007/264 268/1008/264
f 288/1009/265 287/1010/265 250/1011/265 248/1012/265
f 286/1013/266 288/1014/266 248/1015/266 246/1016/266
f 287/1017/267 289/1018/267 252/1019/267 250/1020/267
f 289/1021/268 290/1022/268 254/1023/268 252/1024/268
f 290/1025/269 291/1026/269 256/1027/269 254/1028/269
f 291/1029/270 292/1030/270 258/1031/270 256/1032/270
f 292/1033/271 293/1034/271 260/1035/271 258/1036/271
f 293/1037/272 283/1038/272 262/1039/272 260/1040/272