# Made in Blockbench 4.10.4
mtllib MAGpainter.mtl

o plane
v 0.233752087340923 -0.7313249790565293 1.918406646913858
v 0.5746658314001969 1.2834822894659577 1.3353504833923304
v -1.699665831400197 -0.6584822894659575 1.0396495166076696
v -1.358752087340923 1.3563249790565293 0.456593353086142
vt 0.6875 0.3125
vt 0.6875 1
vt 0 1
vt 0 0.3125
vn -0.38268343236508845 0.3159854101251633 0.868162779195991
usemtl m_2edbf1ae-9420-c5e1-43f4-e7db338bce4b
f 1/1/1 2/2/1 4/3/1 3/4/1
o cuboid
v 0.375 0.5625 0.625
v 0.375 0.5625 -0.8125
v 0.375 -0.4375 0.875
v 0.375 -0.4375 -0.8125
v -0.375 0.5625 0.625
v -0.375 0.5625 -0.8125
v -0.375 -0.4375 0.875
v -0.375 -0.4375 -0.8125
v 0.28125 0.4375 -0.8125
v 0.28125 -0.3125 -0.8125
v -0.28125 0.4375 -0.8125
v -0.28125 -0.3125 -0.8125
v 0.28125 0.4375 -0.3125
v 0.28125 -0.3125 -0.3125
v -0.28125 0.4375 -0.3125
v -0.28125 -0.3125 -0.3125
v 0.375 0.0625 0.9375
v -0.375 0.0625 0.9375
v -0.375 0.0625 -0.8125
v -0.28125 0.0625 -0.8125
v -0.28125 0.0625 -0.3125
v 0.28125 0.0625 -0.3125
v 0.28125 0.0625 -0.8125
v 0.375 0.0625 -0.8125
v 0.625 0.17187500000000022 0.24969940802395563
v 0.625 0.17187500000000022 0.37530059197604426
v 0.625 0.10907440802395585 0.14092559197604435
v 0.625 0.0003005919760445397 0.078125
v 0.625 -0.12530059197604415 0.07812500000000006
v 0.625 -0.2340744080239554 0.14092559197604437
v 0.625 -0.2968749999999998 0.24969940802395557
v 0.625 -0.2968749999999998 0.3753005919760444
v 0.625 -0.23407440802395532 0.4840744080239556
v 0.625 -0.1253005919760441 0.546875
v 0.625 0.0003005919760445952 0.546875
v 0.625 0.10907440802395585 0.48407440802395557
v 0.75 0.17187500000000022 0.24969940802395563
v 0.75 0.17187500000000022 0.37530059197604426
v 0.75 -0.06249999999999972 0.3125
v 0.75 0.10907440802395585 0.14092559197604435
v 0.75 0.0003005919760445397 0.078125
v 0.75 -0.12530059197604415 0.07812500000000006
v 0.75 -0.2340744080239554 0.14092559197604437
v 0.75 -0.2968749999999997 0.24969940802395557
v 0.75 -0.2968749999999997 0.3753005919760444
v 0.75 -0.2340744080239553 0.4840744080239556
v 0.75 -0.1253005919760441 0.546875
v 0.75 0.0003005919760446507 0.546875
v 0.75 0.10907440802395585 0.48407440802395557
v -0.625 0.171875 0.37530059197604426
v -0.625 0.1718749999999999 0.24969940802395563
v -0.625 0.10907440802395563 0.48407440802395557
v -0.625 0.00030059197604437315 0.546875
v -0.625 -0.12530059197604437 0.546875
v -0.625 -0.296875 0.3753005919760444
v -0.625 -0.2340744080239556 0.4840744080239556
v -0.625 -0.296875 0.24969940802395557
v -0.625 -0.23407440802395568 0.14092559197604437
v -0.625 -0.12530059197604448 0.07812500000000006
v -0.625 0.00030059197604426213 0.078125
v -0.625 0.10907440802395563 0.14092559197604435
v -0.6875 0.171875 0.37530059197604426
v -0.6875 0.1718749999999999 0.24969940802395563
v -0.6875 -0.0625 0.3125
v -0.6875 0.10907440802395563 0.48407440802395557
v -0.6875 0.00030059197604431764 0.546875
v -0.6875 -0.12530059197604437 0.546875
v -0.6875 -0.29687500000000006 0.3753005919760444
v -0.6875 -0.23407440802395563 0.4840744080239556
v -0.6875 -0.29687500000000006 0.24969940802395557
v -0.6875 -0.23407440802395568 0.14092559197604437
v -0.6875 -0.12530059197604448 0.07812500000000006
v -0.6875 0.00030059197604426213 0.078125
v -0.6875 0.10907440802395563 0.14092559197604435
vt 0 1
vt 0 0.5
vt 1 0.5
vt 1 1
vt 0 1
vt 0 0.5
vt 1 0.5
vt 1 1
vt 0 0
vt 1 0
vt 1 1
vt 0 1
vt 1 0
vt 1 1
vt 0 1
vt 0 0
vt 0 1
vt 0 0.5
vt 1 0.5
vt 1 1
vt 0.25 0.875
vt 0.25 0.5
vt 0.8125 0.5
vt 0.8125 0.875
vt 0.21875 0.875
vt 0.78125 0.875
vt 0.875 1
vt 0.125 1
vt 0 1
vt 0 0.5
vt 0.09375 0.5
vt 0.09375 0.875
vt 0.78125 0.125
vt 0.21875 0.125
vt 0.125 0
vt 0.875 0
vt 0.9375 0.875
vt 0.9375 0.5
vt 1.03125 0.5
vt 1.03125 1
vt 0.5625 0.9375
vt 0 0.9375
vt 0 0.875
vt 0.5625 0.875
vt 0.125 1
vt 0.125 0.625
vt 0.1875 0.625
vt 0.1875 1
vt 0 0.5
vt 0.5625 0.5
vt 0.5625 0.5625
vt 0 0.5625
vt 0.375 1
vt 0.375 0.625
vt 0.4375 0.625
vt 0.4375 1
vt 1 0
vt 1 0.5
vt 0 0.5
vt 0 0
vt 1 0
vt 1 0.5
vt 0 0.5
vt 0 0
vt 1.03125 0
vt 1.03125 0.5
vt 0.9375 0.5
vt 0.9375 0.125
vt 0.4375 0.25
vt 0.4375 0.625
vt 0.375 0.625
vt 0.375 0.25
vt 0.8125 0.125
vt 0.8125 0.5
vt 0.25 0.5
vt 0.25 0.125
vt 0.1875 0.25
vt 0.1875 0.625
vt 0.125 0.625
vt 0.125 0.25
vt 0.09375 0.125
vt 0.09375 0.5
vt 0 0.5
vt 0 0
vt 1 0
vt 1 0.5
vt 0 0.5
vt 0 0
vt 0.06249999999999999 0.5698572984303876
vt 0.1838223411813788 0.6023646845952135
vt 0.0625 0.8125
vt 0.06250000000000001 0.5698563080358362
vt 0.1838218459820819 0.6023655423008878
vt 0.0625 0.8125
vt 0.421875 0.8118999999999972
vt 0.421875 0.9374999999999971
vt 0.1875 0.8746999999999971
vt 0.43014270156961243 0.8161776588186243
vt 0.3976353154047865 0.9375000000000031
vt 0.1875 0.8161776588186243
vt 0.4301436919641638 0.8161781540179192
vt 0.3976344576991122 0.9375000000000011
vt 0.1875 0.8161781540179192
vt 0.18810000000000285 0.9375
vt 0.06250000000000286 0.9375
vt 0.12530000000000285 0.703125
vt 0.18382234118137575 0.8749999999999976
vt 0.06249999999999695 0.8424926138351716
vt 0.18382234118137575 0.6323572984303851
vt 0.18382184598208084 0.8750000000000021
vt 0.062499999999998945 0.8424907657349505
vt 0.18382184598208084 0.6323563080358383
vt 0.0625 0.9374999999999971
vt 0.0625 0.8118999999999972
vt 0.296875 0.8746999999999971
vt 0.12500000000000244 0.9375
vt 0.15750738616482834 0.8161776588186211
vt 0.36764270156961487 0.9375
vt 0.12499999999999789 0.9375
vt 0.15750923426504945 0.816178154017918
vt 0.3676436919641617 0.9375
vt 0.06250000000000286 0.578125
vt 0.18810000000000285 0.578125
vt 0.12530000000000285 0.8125
vt 0.12560000000000285 0.9375
vt 2.858824288409778e-15 0.9375
vt 2.858824288409778e-15 0.875
vt 0.12560000000000285 0.875
vt 0.12560000000000285 0.9375
vt 2.858824288409778e-15 0.9375
vt 2.858824288409778e-15 0.875
vt 0.12560000000000285 0.875
vt 0.12560000000000285 0.9375
vt 2.858824288409778e-15 0.9375
vt 2.858824288409778e-15 0.875
vt 0.12560000000000285 0.875
vt 0.12560000000000285 1
vt 2.858824288409778e-15 1
vt 2.858824288409778e-15 0.9375
vt 0.12560000000000285 0.9375
vt 0.2506000000000028 1
vt 0.12500000000000286 1
vt 0.12500000000000286 0.9375
vt 0.2506000000000028 0.9375
vt 0.2506000000000028 1
vt 0.12500000000000286 1
vt 0.12500000000000286 0.9375
vt 0.2506000000000028 0.9375
vt 0.2506000000000028 0.9375
vt 0.12500000000000286 0.9375
vt 0.12500000000000286 0.875
vt 0.2506000000000028 0.875
vt 0.12560000000000285 0.8125
vt 2.858824288409778e-15 0.8125
vt 2.858824288409778e-15 0.75
vt 0.12560000000000285 0.75
vt 0.12560000000000285 0.8125
vt 2.858824288409778e-15 0.8125
vt 2.858824288409778e-15 0.75
vt 0.12560000000000285 0.75
vt 0.12560000000000285 0.8125
vt 2.858824288409778e-15 0.8125
vt 2.858824288409778e-15 0.75
vt 0.12560000000000285 0.75
vt 0.12560000000000285 1
vt 2.858824288409778e-15 1
vt 2.858824288409778e-15 0.9375
vt 0.12560000000000285 0.9375
vt 0.12560000000000285 1
vt 2.858824288409778e-15 1
vt 2.858824288409778e-15 0.9375
vt 0.12560000000000285 0.9375
vt 0.4301436919641638 0.8161781540179192
vt 0.3976344576991122 0.9375000000000011
vt 0.1875 0.8161781540179192
vt 0.43014270156961243 0.8161776588186243
vt 0.3976353154047865 0.9375000000000031
vt 0.1875 0.8161776588186243
vt 0.421875 0.8118999999999972
vt 0.421875 0.9374999999999971
vt 0.1875 0.8746999999999971
vt 0.06250000000000001 0.5698563080358362
vt 0.1838218459820819 0.6023655423008878
vt 0.0625 0.8125
vt 0.06249999999999999 0.5698572984303876
vt 0.1838223411813788 0.6023646845952135
vt 0.0625 0.8125
vt 0.06250000000000286 0.578125
vt 0.18810000000000285 0.578125
vt 0.12530000000000285 0.8125
vt 0.12499999999999789 0.9375
vt 0.15750923426504945 0.816178154017918
vt 0.3676436919641617 0.9375
vt 0.12500000000000244 0.9375
vt 0.15750738616482834 0.8161776588186211
vt 0.36764270156961487 0.9375
vt 0.0625 0.9374999999999971
vt 0.0625 0.8118999999999972
vt 0.296875 0.8746999999999971
vt 0.18382184598208084 0.8750000000000021
vt 0.062499999999998945 0.8424907657349505
vt 0.18382184598208084 0.6323563080358383
vt 0.18382234118137575 0.8749999999999976
vt 0.06249999999999695 0.8424926138351716
vt 0.18382234118137575 0.6323572984303851
vt 0.18810000000000285 0.9375
vt 0.06250000000000286 0.9375
vt 0.12530000000000285 0.703125
vt 2.858824288409778e-15 0.875
vt 0.12560000000000285 0.875
vt 0.12560000000000285 0.9375
vt 2.858824288409778e-15 0.9375
vt 2.858824288409778e-15 0.875
vt 0.12560000000000285 0.875
vt 0.12560000000000285 0.9375
vt 2.858824288409778e-15 0.9375
vt 2.858824288409778e-15 0.875
vt 0.12560000000000285 0.875
vt 0.12560000000000285 0.9375
vt 2.858824288409778e-15 0.9375
vt 2.858824288409778e-15 0.9375
vt 0.12560000000000285 0.9375
vt 0.12560000000000285 1
vt 2.858824288409778e-15 1
vt 0.12500000000000286 0.9375
vt 0.2506000000000028 0.9375
vt 0.2506000000000028 1
vt 0.12500000000000286 1
vt 0.12500000000000286 0.9375
vt 0.2506000000000028 0.9375
vt 0.2506000000000028 1
vt 0.12500000000000286 1
vt 0.12500000000000286 0.875
vt 0.2506000000000028 0.875
vt 0.2506000000000028 0.9375
vt 0.12500000000000286 0.9375
vt 2.858824288409778e-15 0.75
vt 0.12560000000000285 0.75
vt 0.12560000000000285 0.8125
vt 2.858824288409778e-15 0.8125
vt 2.858824288409778e-15 0.75
vt 0.12560000000000285 0.75
vt 0.12560000000000285 0.8125
vt 2.858824288409778e-15 0.8125
vt 2.858824288409778e-15 0.75
vt 0.12560000000000285 0.75
vt 0.12560000000000285 0.8125
vt 2.858824288409778e-15 0.8125
vt 2.858824288409778e-15 0.9375
vt 0.12560000000000285 0.9375
vt 0.12560000000000285 1
vt 2.858824288409778e-15 1
vt 2.858824288409778e-15 0.9375
vt 0.12560000000000285 0.9375
vt 0.12560000000000285 1
vt 2.858824288409778e-15 1
vn 1 0 0
vn -1 0 0
vn 0 1 0
vn 0 -1 0
vn 0 0.52999894000318 0.847998304005088
vn 0 0 -1
vn 0 0 -1
vn 0 0 -1
vn 0 0 -1
vn 0 0 -1
vn 0 -1 0
vn -1 0 0
vn 0 1 0
vn 1 0 0
vn 0 -0.12403473458920847 0.9922778767136677
vn -1 0 0
vn 0 0 -1
vn 1 0 0
vn 0 0 -1
vn -1 0 0
vn 0 0 -1
vn 1 0 0
vn 1 0 0
vn 1 0 0
vn 1 0 0
vn 1 0 0
vn 1 0 0
vn 1 0 0
vn 1 0 0
vn 1 0 0
vn 1 0 0
vn 1 0 0
vn 1 0 0
vn 1 0 0
vn 0 1 0
vn 0 0.8660254037844388 -0.4999999999999998
vn 0 0.49999999999999956 -0.866025403784439
vn 0 -4.419635984676138e-16 -1
vn 0 -0.49999999999999956 -0.8660254037844389
vn 3.867181486591621e-16 -0.8660254037844389 -0.4999999999999998
vn 4.440892098500626e-16 -1 0
vn 1.6573634942535504e-16 -0.8660254037844386 0.5000000000000002
vn 0 -0.5000000000000001 0.8660254037844387
vn 0 0 1
vn 0 0.5000000000000004 0.8660254037844386
vn 0 0.8660254037844388 0.49999999999999967
vn -1 0 0
vn -1 0 0
vn -1 0 0
vn -1 0 0
vn -1 0 0
vn -1 0 0
vn -1 0 0
vn -1 0 0
vn -1 0 0
vn -1 0 0
vn -1 0 0
vn -1 0 0
vn 0 1 -8.83927196935228e-16
vn 0 0.8660254037844388 0.49999999999999967
vn -4.419635984676132e-16 0.5 0.8660254037844387
vn 0 0 1
vn 7.734362973183235e-16 -0.8660254037844386 0.5000000000000002
vn 2.2098179923380676e-16 -0.4999999999999999 0.8660254037844388
vn 8.881784197001252e-16 -1 0
vn 0 -0.8660254037844387 -0.5000000000000001
vn 0 -0.4999999999999998 -0.8660254037844389
vn 0 -4.419635984676136e-16 -1
vn 0 0.49999999999999933 -0.8660254037844392
vn 0 0.8660254037844392 -0.4999999999999991
usemtl m_0f724e49-6262-6a0f-b72e-e79af80427eb
f 5/5/2 21/6/2 28/7/2 6/8/2
f 10/9/3 23/10/3 22/11/3 9/12/3
f 9/13/4 5/14/4 6/15/4 10/16/4
f 8/17/5 7/18/5 11/19/5 12/20/5
f 9/21/6 22/22/6 21/23/6 5/24/6
f 17/25/7 26/26/7 25/27/7 19/28/7
f 13/29/8 15/30/8 10/31/8 6/32/8
f 6/33/9 28/34/9 27/35/9 13/36/9
f 16/37/10 14/38/10 8/39/10 12/40/10
f 15/41/11 24/42/11 23/43/11 10/44/11
f 17/45/12 19/46/12 15/47/12 13/48/12
f 13/49/13 27/50/13 26/51/13 17/52/13
f 20/53/14 18/54/14 14/55/14 16/56/14
f 19/57/15 25/58/15 24/59/15 15/60/15
f 7/61/16 21/62/16 22/63/16 11/64/16
f 11/65/17 22/66/17 23/67/17 12/68/17
f 12/69/18 23/70/18 24/71/18 16/72/18
f 16/73/19 24/74/19 25/75/19 20/76/19
f 20/77/20 25/78/20 26/79/20 18/80/20
f 18/81/21 26/82/21 27/83/21 14/84/21
f 14/85/22 27/86/22 28/87/22 8/88/22
f 8/89/23 28/90/23 21/91/23 7/92/23
f 51/93/24 50/94/24 43/95/24
f 50/96/25 49/97/25 43/98/25
f 49/99/26 48/100/26 43/101/26
f 48/102/27 47/103/27 43/104/27
f 47/105/28 46/106/28 43/107/28
f 46/108/29 45/109/29 43/110/29
f 45/111/30 44/112/30 43/113/30
f 44/114/31 41/115/31 43/116/31
f 41/117/32 42/118/32 43/119/32
f 42/120/33 53/121/33 43/122/33
f 53/123/34 52/124/34 43/125/34
f 52/126/35 51/127/35 43/128/35
f 42/129/36 41/130/36 29/131/36 30/132/36
f 41/133/37 44/134/37 31/135/37 29/136/37
f 44/137/38 45/138/38 32/139/38 31/140/38
f 45/141/39 46/142/39 33/143/39 32/144/39
f 46/145/40 47/146/40 34/147/40 33/148/40
f 47/149/41 48/150/41 35/151/41 34/152/41
f 48/153/42 49/154/42 36/155/42 35/156/42
f 49/157/43 50/158/43 37/159/43 36/160/43
f 50/161/44 51/162/44 38/163/44 37/164/44
f 51/165/45 52/166/45 39/167/45 38/168/45
f 52/169/46 53/170/46 40/171/46 39/172/46
f 53/173/47 42/174/47 30/175/47 40/176/47
f 73/177/48 71/178/48 68/179/48
f 72/180/49 73/181/49 68/182/49
f 74/183/50 72/184/50 68/185/50
f 75/186/51 74/187/51 68/188/51
f 76/189/52 75/190/52 68/191/52
f 77/192/53 76/193/53 68/194/53
f 78/195/54 77/196/54 68/197/54
f 67/198/55 78/199/55 68/200/55
f 66/201/56 67/202/56 68/203/56
f 69/204/57 66/205/57 68/206/57
f 70/207/58 69/208/58 68/209/58
f 71/210/59 70/211/59 68/212/59
f 67/213/60 66/214/60 54/215/60 55/216/60
f 66/217/61 69/218/61 56/219/61 54/220/61
f 69/221/62 70/222/62 57/223/62 56/224/62
f 70/225/63 71/226/63 58/227/63 57/228/63
f 73/229/64 72/230/64 59/231/64 60/232/64
f 71/233/65 73/234/65 60/235/65 58/236/65
f 72/237/66 74/238/66 61/239/66 59/240/66
f 74/241/67 75/242/67 62/243/67 61/244/67
f 75/245/68 76/246/68 63/247/68 62/248/68
f 76/249/69 77/250/69 64/251/69 63/252/69
f 77/253/70 78/254/70 65/255/70 64/256/70
f 78/257/71 67/258/71 55/259/71 65/260/71
o plane
v 0.14062499999999822 0.10937499999999817 -0.5625
v -0.14062499999999822 0.10937499999999817 -0.5625
v 0.1874999999999979 0.062499999999998994 -0.5625
v -0.1874999999999979 0.062499999999998994 -0.5625
v 0.14062499999999822 0.015624999999999986 -0.5624999999999999
v -0.14062499999999822 0.015624999999999986 -0.5624999999999999
v 0.046874999999998876 0.10937499999999817 -0.5625
v 0.046874999999998876 0.20312499999999714 -0.5625000000000001
v -6.036837696399245e-16 0.10937499999999817 -0.5625
v -6.036837696399245e-16 0.2499999999999966 -0.5625000000000001
v -0.046875 0.10937499999999817 -0.5625
v -0.046875 0.20312499999999714 -0.5625000000000001
v 0.046874999999998876 0.062499999999998994 -0.5625
v -6.036837696399245e-16 0.062499999999998994 -0.5625
v -0.046875 0.062499999999998994 -0.5625
v 0.046874999999998876 0.015624999999999986 -0.5624999999999999
v -6.036837696399245e-16 0.015624999999999986 -0.5624999999999999
v -0.046875 0.015624999999999986 -0.5624999999999999
v 0.046874999999998876 -0.07812499999999714 -0.5624999999999999
v -6.036837696399245e-16 -0.12499999999999661 -0.5624999999999999
v -0.046875 -0.07812499999999714 -0.5624999999999999
v 0.0803847577293368 -0.2375 -0.5580904774487395
v 0.09459490955294975 -0.29053300858899106 -0.5776878228780495
v 0.10048094716167101 -0.3125 -0.6249999999999999
v 0.09459490955294975 -0.2905330085889911 -0.6723121771219503
v 0.0803847577293368 -0.2375 -0.6919095225512603
v 0.06617460590572385 -0.18446699141100892 -0.6723121771219503
v 0.060288568297002604 -0.16250000000000003 -0.625
v 0.06617460590572385 -0.18446699141100892 -0.5776878228780495
v 0.21961524227066317 -0.15711524227066317 -0.5580904774487396
v 0.25843809903604126 -0.1959380990360413 -0.5776878228780495
v 0.27451905283832895 -0.212019052838329 -0.6249999999999999
v 0.2584380990360413 -0.19593809903604137 -0.6723121771219503
v 0.21961524227066317 -0.15711524227066323 -0.6919095225512604
v 0.18079238550528506 -0.11829238550528509 -0.6723121771219503
v 0.16471143170299737 -0.1022114317029974 -0.625
v 0.18079238550528504 -0.11829238550528506 -0.5776878228780495
v 0.3 -0.017884757729336787 -0.5580904774487396
v 0.35303300858899106 -0.03209490955294973 -0.5776878228780495
v 0.375 -0.03798094716167101 -0.625
v 0.3530330085889911 -0.03209490955294976 -0.6723121771219505
v 0.3 -0.017884757729336814 -0.6919095225512604
v 0.24696699141100892 -0.0036746059057238684 -0.6723121771219505
v 0.22500000000000003 0.0022114317029973962 -0.625
v 0.24696699141100892 -0.0036746059057238406 -0.5776878228780495
v 0.3 0.14288475772933684 -0.5580904774487396
v 0.35303300858899106 0.1570949095529498 -0.5776878228780495
v 0.375 0.16298094716167102 -0.625
v 0.3530330085889911 0.1570949095529498 -0.6723121771219505
v 0.3 0.14288475772933681 -0.6919095225512604
v 0.24696699141100892 0.12867460590572388 -0.6723121771219505
v 0.22500000000000003 0.12278856829700263 -0.625
v 0.24696699141100892 0.12867460590572388 -0.5776878228780495
v 0.2196152422706632 0.2821152422706632 -0.5580904774487396
v 0.2584380990360413 0.32093809903604126 -0.5776878228780497
v 0.274519052838329 0.33701905283832895 -0.6250000000000001
v 0.25843809903604137 0.3209380990360413 -0.6723121771219505
v 0.2196152422706632 0.28211524227066315 -0.6919095225512604
v 0.1807923855052851 0.24329238550528506 -0.6723121771219505
v 0.1647114317029974 0.22721143170299737 -0.625
v 0.18079238550528506 0.24329238550528504 -0.5776878228780497
v 0.0803847577293369 0.36249999999999993 -0.5580904774487397
v 0.09459490955294983 0.415533008588991 -0.5776878228780497
v 0.10048094716167111 0.43749999999999994 -0.6250000000000001
v 0.09459490955294986 0.41553300858899106 -0.6723121771219505
v 0.0803847577293369 0.36249999999999993 -0.6919095225512605
v 0.06617460590572392 0.3094669914110089 -0.6723121771219505
v 0.06028856829700267 0.2875 -0.6250000000000001
v 0.06617460590572391 0.30946699141100886 -0.5776878228780497
v -0.08038475772933668 0.36250000000000004 -0.5580904774487397
v -0.09459490955294958 0.41553300858899106 -0.5776878228780497
v -0.10048094716167086 0.4375 -0.6250000000000001
v -0.09459490955294961 0.4155330085889911 -0.6723121771219505
v -0.08038475772933668 0.36250000000000004 -0.6919095225512605
v -0.06617460590572376 0.309466991411009 -0.6723121771219505
v -0.06028856829700251 0.28750000000000003 -0.6250000000000001
v -0.06617460590572374 0.3094669914110089 -0.5776878228780497
v -0.21961524227066317 0.2821152422706632 -0.5580904774487396
v -0.25843809903604126 0.3209380990360413 -0.5776878228780497
v -0.27451905283832895 0.337019052838329 -0.6250000000000001
v -0.2584380990360413 0.32093809903604137 -0.6723121771219505
v -0.21961524227066317 0.2821152422706632 -0.6919095225512604
v -0.18079238550528506 0.24329238550528512 -0.6723121771219505
v -0.16471143170299737 0.2272114317029974 -0.625
v -0.18079238550528504 0.2432923855052851 -0.5776878228780497
v -0.3 0.1428847577293368 -0.5580904774487396
v -0.35303300858899106 0.1570949095529497 -0.5776878228780495
v -0.375 0.16298094716167094 -0.625
v -0.3530330085889911 0.1570949095529497 -0.6723121771219505
v -0.3 0.14288475772933673 -0.6919095225512604
v -0.24696699141100892 0.12867460590572383 -0.6723121771219505
v -0.22500000000000003 0.12278856829700258 -0.625
v -0.24696699141100892 0.12867460590572383 -0.5776878228780495
v -0.30000000000000004 -0.017884757729336648 -0.5580904774487396
v -0.35303300858899106 -0.032094909552949566 -0.5776878228780495
v -0.375 -0.03798094716167083 -0.625
v -0.3530330085889911 -0.032094909552949594 -0.6723121771219505
v -0.30000000000000004 -0.017884757729336676 -0.6919095225512604
v -0.24696699141100897 -0.0036746059057237573 -0.6723121771219505
v -0.22500000000000003 0.0022114317029974934 -0.625
v -0.24696699141100892 -0.0036746059057237157 -0.5776878228780495
v -0.2196152422706632 -0.15711524227066312 -0.5580904774487396
v -0.2584380990360413 -0.1959380990360412 -0.5776878228780495
v -0.274519052838329 -0.2120190528383289 -0.6249999999999999
v -0.25843809903604137 -0.19593809903604126 -0.6723121771219503
v -0.2196152422706632 -0.15711524227066317 -0.6919095225512604
v -0.18079238550528512 -0.11829238550528504 -0.6723121771219503
v -0.1647114317029974 -0.10221143170299735 -0.625
v -0.1807923855052851 -0.11829238550528498 -0.5776878228780495
v -0.08038475772933679 -0.2375 -0.5580904774487395
v -0.09459490955294972 -0.29053300858899106 -0.5776878228780495
v -0.10048094716167097 -0.3125 -0.6249999999999999
v -0.09459490955294975 -0.2905330085889911 -0.6723121771219503
v -0.08038475772933679 -0.2375 -0.6919095225512603
v -0.06617460590572384 -0.18446699141100892 -0.6723121771219503
v -0.06028856829700259 -0.16250000000000003 -0.625
v -0.06617460590572383 -0.18446699141100892 -0.5776878228780495
v 0.2578125 0.7487278794850326 0.7075720264191645
v -0.2578125 0.7487278794850326 0.7075720264191645
v 0.2578125 0.342778471461077 0.9419470264191645
v -0.2578125 0.342778471461077 0.9419470264191645
vt 0 0.2500000000000018
vt 0.24999999999999806 0.2500000000000018
vt 0.24999999999999806 0.5000000000000029
vt 0 0.5000000000000029
vt 0 0.5000000000000029
vt 0.24999999999999806 0.5000000000000029
vt 0.24999999999999806 0.7500000000000031
vt 0 0.7500000000000031
vt 0.7499999999999989 0.2500000000000018
vt 0.4999999999999982 0.2500000000000018
vt 0.4999999999999982 0
vt 0.7499999999999989 0
vt 0.4999999999999982 0.2500000000000018
vt 0.24999999999999806 0.2500000000000018
vt 0.24999999999999806 0
vt 0.4999999999999982 0
vt 1 0.5000000000000029
vt 0.7499999999999989 0.5000000000000029
vt 0.7499999999999989 0.2500000000000018
vt 1 0.2500000000000018
vt 0.7499999999999989 0.5000000000000029
vt 0.4999999999999982 0.5000000000000029
vt 0.4999999999999982 0.2500000000000018
vt 0.7499999999999989 0.2500000000000018
vt 0.4999999999999982 0.5000000000000029
vt 0.24999999999999806 0.5000000000000029
vt 0.24999999999999806 0.2500000000000018
vt 0.4999999999999982 0.2500000000000018
vt 1 0.7500000000000031
vt 0.7499999999999989 0.7500000000000031
vt 0.7499999999999989 0.5000000000000029
vt 1 0.5000000000000029
vt 0.7499999999999989 0.7500000000000031
vt 0.4999999999999982 0.7500000000000031
vt 0.4999999999999982 0.5000000000000029
vt 0.7499999999999989 0.5000000000000029
vt 0.4999999999999982 0.7500000000000031
vt 0.24999999999999806 0.7500000000000031
vt 0.24999999999999806 0.5000000000000029
vt 0.4999999999999982 0.5000000000000029
vt 0.7499999999999989 1
vt 0.4999999999999982 1
vt 0.4999999999999982 0.7500000000000031
vt 0.7499999999999989 0.7500000000000031
vt 0.4999999999999982 1
vt 0.24999999999999806 1
vt 0.24999999999999806 0.7500000000000031
vt 0.4999999999999982 0.7500000000000031
vt 0.023681249999999987 0.9999999999999973
vt 0 0.9038249999999973
vt 0.3153125 0.9038249999999973
vt 0.29163125 0.9999999999999973
vt 0.009812500000000002 1
vt 0 0.90144375
vt 0.3349375 0.90144375
vt 0.325125 1
vt 0 1
vt 0.009812500000000002 0.90144375
vt 0.325125 0.90144375
vt 0.3349375 1
vt 0 1
vt 0.023681249999999987 0.903825
vt 0.29163125 0.903825
vt 0.3153125 1
vt 0.26795 0.9038312500000001
vt 0.24426875 1
vt 0.023681250000000015 1
vt 0 0.9038312500000001
vt 0.2205875 0.9014375
vt 0.210775 1
vt 0.009812500000000002 1
vt 0 0.9014375
vt 0.210775 0.9014375
vt 0.2205875 1
vt 0 1
vt 0.009812500000000002 0.9014375
vt 0.24426875 0.9038312500000001
vt 0.26795 1
vt 0 1
vt 0.023681250000000015 0.9038312500000001
vt 0.023681249999999987 0.9999999999999973
vt 0 0.9038249999999973
vt 0.3153125 0.9038249999999973
vt 0.29163125 0.9999999999999973
vt 0.009812500000000002 1
vt 0 0.90144375
vt 0.3349375 0.90144375
vt 0.325125 1
vt 0 1
vt 0.009812500000000002 0.90144375
vt 0.325125 0.90144375
vt 0.3349375 1
vt 0 1
vt 0.023681249999999987 0.903825
vt 0.29163125 0.903825
vt 0.3153125 1
vt 0.26795 0.9038312500000001
vt 0.24426875 1
vt 0.023681250000000015 1
vt 0 0.9038312500000001
vt 0.2205875 0.9014375
vt 0.210775 1
vt 0.009812500000000002 1
vt 0 0.9014375
vt 0.210775 0.9014375
vt 0.2205875 1
vt 0 1
vt 0.009812500000000002 0.9014375
vt 0.24426875 0.9038312500000001
vt 0.26795 1
vt 0 1
vt 0.023681250000000015 0.9038312500000001
vt 0.023681249999999987 0.9999999999999973
vt 0 0.9038249999999973
vt 0.3153125 0.9038249999999973
vt 0.29163125 0.9999999999999973
vt 0.009812500000000002 1
vt 0 0.90144375
vt 0.3349375 0.90144375
vt 0.325125 1
vt 0 1
vt 0.009812500000000002 0.90144375
vt 0.325125 0.90144375
vt 0.3349375 1
vt 0 1
vt 0.023681249999999987 0.903825
vt 0.29163125 0.903825
vt 0.3153125 1
vt 0.26795 0.9038312500000001
vt 0.24426875 1
vt 0.023681250000000015 1
vt 0 0.9038312500000001
vt 0.2205875 0.9014375
vt 0.210775 1
vt 0.009812500000000002 1
vt 0 0.9014375
vt 0.210775 0.9014375
vt 0.2205875 1
vt 0 1
vt 0.009812500000000002 0.9014375
vt 0.24426875 0.9038312500000001
vt 0.26795 1
vt 0 1
vt 0.023681250000000015 0.9038312500000001
vt 0.023681249999999987 0.9999999999999973
vt 0 0.9038249999999973
vt 0.3153125 0.9038249999999973
vt 0.29163125 0.9999999999999973
vt 0.009812500000000002 1
vt 0 0.90144375
vt 0.3349375 0.90144375
vt 0.325125 1
vt 0 1
vt 0.009812500000000002 0.90144375
vt 0.325125 0.90144375
vt 0.3349375 1
vt 0 1
vt 0.023681249999999987 0.903825
vt 0.29163125 0.903825
vt 0.3153125 1
vt 0.26795 0.9038312500000001
vt 0.24426875 1
vt 0.023681250000000015 1
vt 0 0.9038312500000001
vt 0.2205875 0.9014375
vt 0.210775 1
vt 0.009812500000000002 1
vt 0 0.9014375
vt 0.210775 0.9014375
vt 0.2205875 1
vt 0 1
vt 0.009812500000000002 0.9014375
vt 0.24426875 0.9038312500000001
vt 0.26795 1
vt 0 1
vt 0.023681250000000015 0.9038312500000001
vt 0.023681249999999987 0.9999999999999973
vt 0 0.9038249999999973
vt 0.3153125 0.9038249999999973
vt 0.29163125 0.9999999999999973
vt 0.009812500000000002 1
vt 0 0.90144375
vt 0.3349375 0.90144375
vt 0.325125 1
vt 0 1
vt 0.009812500000000002 0.90144375
vt 0.325125 0.90144375
vt 0.3349375 1
vt 0 1
vt 0.023681249999999987 0.903825
vt 0.29163125 0.903825
vt 0.3153125 1
vt 0.26795 0.9038312500000001
vt 0.24426875 1
vt 0.023681250000000015 1
vt 0 0.9038312500000001
vt 0.2205875 0.9014375
vt 0.210775 1
vt 0.009812500000000002 1
vt 0 0.9014375
vt 0.210775 0.9014375
vt 0.2205875 1
vt 0 1
vt 0.009812500000000002 0.9014375
vt 0.24426875 0.9038312500000001
vt 0.26795 1
vt 0 1
vt 0.023681250000000015 0.9038312500000001
vt 0.023681249999999987 0.9999999999999973
vt 0 0.9038249999999973
vt 0.3153125 0.9038249999999973
vt 0.29163125 0.9999999999999973
vt 0.009812500000000002 1
vt 0 0.90144375
vt 0.3349375 0.90144375
vt 0.325125 1
vt 0 1
vt 0.009812500000000002 0.90144375
vt 0.325125 0.90144375
vt 0.3349375 1
vt 0 1
vt 0.023681249999999987 0.903825
vt 0.29163125 0.903825
vt 0.3153125 1
vt 0.26795 0.9038312500000001
vt 0.24426875 1
vt 0.023681250000000015 1
vt 0 0.9038312500000001
vt 0.2205875 0.9014375
vt 0.210775 1
vt 0.009812500000000002 1
vt 0 0.9014375
vt 0.210775 0.9014375
vt 0.2205875 1
vt 0 1
vt 0.009812500000000002 0.9014375
vt 0.24426875 0.9038312500000001
vt 0.26795 1
vt 0 1
vt 0.023681250000000015 0.9038312500000001
vt 0.023681249999999987 0.9999999999999973
vt 0 0.9038249999999973
vt 0.3153125 0.9038249999999973
vt 0.29163125 0.9999999999999973
vt 0.009812500000000002 1
vt 0 0.90144375
vt 0.3349375 0.90144375
vt 0.325125 1
vt 0 1
vt 0.009812500000000002 0.90144375
vt 0.325125 0.90144375
vt 0.3349375 1
vt 0 1
vt 0.023681249999999987 0.903825
vt 0.29163125 0.903825
vt 0.3153125 1
vt 0.26795 0.9038312500000001
vt 0.24426875 1
vt 0.023681250000000015 1
vt 0 0.9038312500000001
vt 0.2205875 0.9014375
vt 0.210775 1
vt 0.009812500000000002 1
vt 0 0.9014375
vt 0.210775 0.9014375
vt 0.2205875 1
vt 0 1
vt 0.009812500000000002 0.9014375
vt 0.24426875 0.9038312500000001
vt 0.26795 1
vt 0 1
vt 0.023681250000000015 0.9038312500000001
vt 0.023681249999999987 0.9999999999999973
vt 0 0.9038249999999973
vt 0.3153125 0.9038249999999973
vt 0.29163125 0.9999999999999973
vt 0.009812500000000002 1
vt 0 0.90144375
vt 0.3349375 0.90144375
vt 0.325125 1
vt 0 1
vt 0.009812500000000002 0.90144375
vt 0.325125 0.90144375
vt 0.3349375 1
vt 0 1
vt 0.023681249999999987 0.903825
vt 0.29163125 0.903825
vt 0.3153125 1
vt 0.26795 0.9038312500000001
vt 0.24426875 1
vt 0.023681250000000015 1
vt 0 0.9038312500000001
vt 0.2205875 0.9014375
vt 0.210775 1
vt 0.009812500000000002 1
vt 0 0.9014375
vt 0.210775 0.9014375
vt 0.2205875 1
vt 0 1
vt 0.009812500000000002 0.9014375
vt 0.24426875 0.9038312500000001
vt 0.26795 1
vt 0 1
vt 0.023681250000000015 0.9038312500000001
vt 0.023681249999999987 0.9999999999999973
vt 0 0.9038249999999973
vt 0.3153125 0.9038249999999973
vt 0.29163125 0.9999999999999973
vt 0.009812500000000002 1
vt 0 0.90144375
vt 0.3349375 0.90144375
vt 0.325125 1
vt 0 1
vt 0.009812500000000002 0.90144375
vt 0.325125 0.90144375
vt 0.3349375 1
vt 0 1
vt 0.023681249999999987 0.903825
vt 0.29163125 0.903825
vt 0.3153125 1
vt 0.26795 0.9038312500000001
vt 0.24426875 1
vt 0.023681250000000015 1
vt 0 0.9038312500000001
vt 0.2205875 0.9014375
vt 0.210775 1
vt 0.009812500000000002 1
vt 0 0.9014375
vt 0.210775 0.9014375
vt 0.2205875 1
vt 0 1
vt 0.009812500000000002 0.9014375
vt 0.24426875 0.9038312500000001
vt 0.26795 1
vt 0 1
vt 0.023681250000000015 0.9038312500000001
vt 0.023681249999999987 0.9999999999999973
vt 0 0.9038249999999973
vt 0.3153125 0.9038249999999973
vt 0.29163125 0.9999999999999973
vt 0.009812500000000002 1
vt 0 0.90144375
vt 0.3349375 0.90144375
vt 0.325125 1
vt 0 1
vt 0.009812500000000002 0.90144375
vt 0.325125 0.90144375
vt 0.3349375 1
vt 0 1
vt 0.023681249999999987 0.903825
vt 0.29163125 0.903825
vt 0.3153125 1
vt 0.26795 0.9038312500000001
vt 0.24426875 1
vt 0.023681250000000015 1
vt 0 0.9038312500000001
vt 0.2205875 0.9014375
vt 0.210775 1
vt 0.009812500000000002 1
vt 0 0.9014375
vt 0.210775 0.9014375
vt 0.2205875 1
vt 0 1
vt 0.009812500000000002 0.9014375
vt 0.24426875 0.9038312500000001
vt 0.26795 1
vt 0 1
vt 0.023681250000000015 0.9038312500000001
vt 0.023681249999999987 0.9999999999999973
vt 0 0.9038249999999973
vt 0.3153125 0.9038249999999973
vt 0.29163125 0.9999999999999973
vt 0.009812500000000002 1
vt 0 0.90144375
vt 0.3349375 0.90144375
vt 0.325125 1
vt 0 1
vt 0.009812500000000002 0.90144375
vt 0.325125 0.90144375
vt 0.3349375 1
vt 0 1
vt 0.023681249999999987 0.903825
vt 0.29163125 0.903825
vt 0.3153125 1
vt 0.26795 0.9038312500000001
vt 0.24426875 1
vt 0.023681250000000015 1
vt 0 0.9038312500000001
vt 0.2205875 0.9014375
vt 0.210775 1
vt 0.009812500000000002 1
vt 0 0.9014375
vt 0.210775 0.9014375
vt 0.2205875 1
vt 0 1
vt 0.009812500000000002 0.9014375
vt 0.24426875 0.9038312500000001
vt 0.26795 1
vt 0 1
vt 0.023681250000000015 0.9038312500000001
vt 0.023681249999999987 0.9999999999999973
vt 0 0.9038249999999973
vt 0.3153125 0.9038249999999973
vt 0.29163125 0.9999999999999973
vt 0.009812500000000002 1
vt 0 0.90144375
vt 0.3349375 0.90144375
vt 0.325125 1
vt 0 1
vt 0.009812500000000002 0.90144375
vt 0.325125 0.90144375
vt 0.3349375 1
vt 0 1
vt 0.023681249999999987 0.903825
vt 0.29163125 0.903825
vt 0.3153125 1
vt 0.26795 0.9038312500000001
vt 0.24426875 1
vt 0.023681250000000015 1
vt 0 0.9038312500000001
vt 0.2205875 0.9014375
vt 0.210775 1
vt 0.009812500000000002 1
vt 0 0.9014375
vt 0.210775 0.9014375
vt 0.2205875 1
vt 0 1
vt 0.009812500000000002 0.9014375
vt 0.24426875 0.9038312500000001
vt 0.26795 1
vt 0 1
vt 0.023681250000000015 0.9038312500000001
vt 0.765625 0.28125
vt 0.765625 0.75
vt 0.25 0.75
vt 0.25 0.28125
vn 0 -1.1842378929335267e-15 -1
vn 0 -1.1842378929335269e-15 -1
vn 0 -3.947459643111739e-16 -1
vn 0 -5.921189464667609e-16 -1
vn 0 -1.1842378929335265e-15 -1
vn 0 -1.1842378929335265e-15 -1
vn 0 -1.1842378929335265e-15 -1
vn 0 -1.1842378929335265e-15 -1
vn 0 -1.1842378929335265e-15 -1
vn 0 -1.1842378929335265e-15 -1
vn 3.947459643111713e-16 -3.9474596431117133e-16 -1
vn -5.921189464667618e-16 -5.921189464667608e-16 -1
vn 0.17331098757355173 -0.30018343598732994 0.9380049074205962
vn 0.4535022012749042 -0.7854888539524614 0.42112113905058884
vn 0.4535022012749043 -0.7854888539524619 -0.42112113905058723
vn 0.17331098757355 -0.30018343598732844 -0.938004907420597
vn -0.17331098757355082 0.30018343598732844 -0.9380049074205966
vn -0.4535022012749046 0.7854888539524616 -0.4211211390505879
vn -0.4535022012749046 0.7854888539524619 0.4211211390505871
vn -0.1733109875735511 0.30018343598733016 0.9380049074205961
vn 0.3001834359873285 -0.17331098757355093 0.9380049074205966
vn 0.7854888539524613 -0.453502201274904 0.4211211390505888
vn 0.7854888539524619 -0.45350220127490487 -0.4211211390505868
vn 0.3001834359873298 -0.17331098757355162 -0.9380049074205962
vn -0.3001834359873305 0.1733109875735511 -0.938004907420596
vn -0.785488853952461 0.4535022012749044 -0.4211211390505888
vn -0.7854888539524618 0.4535022012749046 0.42112113905058746
vn -0.3001834359873284 0.17331098757355082 0.9380049074205968
vn 0.3466219751471017 0 0.9380049074205968
vn 0.9070044025498087 0 0.4211211390505879
vn 0.9070044025498092 0 -0.42112113905058696
vn 0.34662197514710136 0 -0.9380049074205967
vn -0.34662197514710175 0 -0.9380049074205966
vn -0.9070044025498092 0 -0.42112113905058707
vn -0.9070044025498091 0 0.42112113905058696
vn -0.3466219751471017 0 0.9380049074205966
vn 0.30018343598732816 0.1733109875735514 0.9380049074205966
vn 0.7854888539524616 0.45350220127490465 0.4211211390505876
vn 0.7854888539524619 0.45350220127490454 -0.42112113905058696
vn 0.3001834359873281 0.17331098757355068 -0.9380049074205968
vn -0.3001834359873285 -0.17331098757355087 -0.9380049074205966
vn -0.7854888539524618 -0.45350220127490487 -0.421121139050587
vn -0.785488853952462 -0.45350220127490437 0.4211211390505871
vn -0.3001834359873284 -0.17331098757355082 0.9380049074205966
vn 0.1733109875735519 0.30018343598733016 0.938004907420596
vn 0.4535022012749044 0.7854888539524616 0.42112113905058796
vn 0.4535022012749045 0.7854888539524619 -0.4211211390505877
vn 0.1733109875735512 0.30018343598732766 -0.9380049074205968
vn -0.173310987573551 -0.30018343598732855 -0.9380049074205967
vn -0.45350220127490415 -0.7854888539524617 -0.42112113905058796
vn -0.45350220127490426 -0.7854888539524615 0.4211211390505881
vn -0.17331098757355198 -0.3001834359873292 0.9380049074205962
vn 1.0136110961021233e-16 0.3466219751471017 0.9380049074205968
vn 2.4822428081626084e-16 0.9070044025498089 0.42112113905058807
vn 2.636696938853914e-16 0.9070044025498087 -0.4211211390505879
vn 2.3855878319741127e-16 0.34662197514710313 -0.9380049074205962
vn -1.4489311820647067e-16 -0.34662197514710374 -0.9380049074205958
vn -4.1370713469376883e-16 -0.9070044025498084 -0.4211211390505888
vn -3.7690909531786323e-16 -0.9070044025498092 0.4211211390505871
vn -2.385587831974116e-16 -0.3466219751471017 0.9380049074205968
vn -0.17331098757355093 0.3001834359873289 0.9380049074205966
vn -0.4535022012749041 0.7854888539524618 0.42112113905058823
vn -0.453502201274904 0.7854888539524619 -0.421121139050588
vn -0.1733109875735523 0.30018343598732977 -0.938004907420596
vn 0.17331098757355162 -0.30018343598733005 -0.938004907420596
vn 0.45350220127490365 -0.7854888539524616 -0.4211211390505887
vn 0.4535022012749041 -0.7854888539524622 0.42112113905058707
vn 0.17331098757355132 -0.3001834359873281 0.9380049074205967
vn -0.30018343598732977 0.17331098757355223 0.938004907420596
vn -0.7854888539524616 0.4535022012749045 0.42112113905058796
vn -0.7854888539524619 0.4535022012749044 -0.4211211390505877
vn -0.30018343598732833 0.17331098757355068 -0.9380049074205967
vn 0.3001834359873286 -0.17331098757355082 -0.9380049074205966
vn 0.7854888539524615 -0.4535022012749044 -0.42112113905058823
vn 0.7854888539524616 -0.45350220127490387 0.4211211390505884
vn 0.3001834359873299 -0.1733109875735517 0.9380049074205962
vn -0.34662197514710175 0 0.9380049074205966
vn -0.9070044025498087 0 0.42112113905058796
vn -0.9070044025498092 0 -0.42112113905058696
vn -0.34662197514710136 1.1927939159870583e-16 -0.9380049074205968
vn 0.34662197514710175 -1.4489311820647075e-16 -0.9380049074205967
vn 0.9070044025498091 0 -0.421121139050587
vn 0.9070044025498091 0 0.421121139050587
vn 0.3466219751471017 -1.192793915987059e-16 0.9380049074205966
vn -0.3001834359873288 -0.17331098757355093 0.9380049074205965
vn -0.7854888539524618 -0.45350220127490387 0.421121139050588
vn -0.7854888539524622 -0.45350220127490454 -0.4211211390505871
vn -0.3001834359873285 -0.17331098757355082 -0.9380049074205967
vn 0.30018343598732883 0.17331098757355007 -0.9380049074205968
vn 0.7854888539524618 0.4535022012749044 -0.4211211390505879
vn 0.7854888539524623 0.45350220127490426 0.42112113905058685
vn 0.3001834359873282 0.17331098757355068 0.9380049074205967
vn -0.17331098757355098 -0.3001834359873285 0.9380049074205966
vn -0.4535022012749044 -0.7854888539524613 0.4211211390505889
vn -0.45350220127490487 -0.7854888539524622 -0.4211211390505869
vn -0.17331098757355126 -0.3001834359873305 -0.938004907420596
vn 0.17331098757355168 0.30018343598733 -0.938004907420596
vn 0.4535022012749044 0.7854888539524609 -0.42112113905058907
vn 0.4535022012749047 0.7854888539524617 0.42112113905058723
vn 0.1733109875735504 0.3001834359873288 0.9380049074205967
vn 0 -0.3466219751471034 0.938004907420596
vn 0 -0.9070044025498083 0.42112113905058873
vn 0 -0.9070044025498091 -0.421121139050587
vn 0 -0.34662197514710136 -0.9380049074205967
vn 0 0.3466219751471017 -0.9380049074205966
vn 0 0.9070044025498087 -0.42112113905058784
vn 0 0.9070044025498091 0.421121139050587
vn 0 0.3466219751471034 0.938004907420596
vn 0 0.5 0.8660254037844387
usemtl m_06f9274d-b3aa-5480-b43b-0e1c3f3d94ae
f 80/261/72 89/262/72 93/263/72 82/264/72
f 82/265/73 93/266/73 96/267/73 84/268/73
f 85/269/74 87/270/74 88/271/74 86/272/74
f 87/273/75 89/274/75 90/275/75 88/276/75
f 81/277/76 91/278/76 85/279/76 79/280/76
f 91/281/77 92/282/77 87/283/77 85/284/77
f 92/285/78 93/286/78 89/287/78 87/288/78
f 83/289/79 94/290/79 91/291/79 81/292/79
f 94/293/80 95/294/80 92/295/80 91/296/80
f 95/297/81 96/298/81 93/299/81 92/300/81
f 97/301/82 98/302/82 95/303/82 94/304/82
f 98/305/83 99/306/83 96/307/83 95/308/83
f 100/309/84 101/310/84 109/311/84 108/312/84
f 101/313/85 102/314/85 110/315/85 109/316/85
f 102/317/86 103/318/86 111/319/86 110/320/86
f 103/321/87 104/322/87 112/323/87 111/324/87
f 104/325/88 105/326/88 113/327/88 112/328/88
f 105/329/89 106/330/89 114/331/89 113/332/89
f 106/333/90 107/334/90 115/335/90 114/336/90
f 107/337/91 100/338/91 108/339/91 115/340/91
f 108/341/92 109/342/92 117/343/92 116/344/92
f 109/345/93 110/346/93 118/347/93 117/348/93
f 110/349/94 111/350/94 119/351/94 118/352/94
f 111/353/95 112/354/95 120/355/95 119/356/95
f 112/357/96 113/358/96 121/359/96 120/360/96
f 113/361/97 114/362/97 122/363/97 121/364/97
f 114/365/98 115/366/98 123/367/98 122/368/98
f 115/369/99 108/370/99 116/371/99 123/372/99
f 116/373/100 117/374/100 125/375/100 124/376/100
f 117/377/101 118/378/101 126/379/101 125/380/101
f 118/381/102 119/382/102 127/383/102 126/384/102
f 119/385/103 120/386/103 128/387/103 127/388/103
f 120/389/104 121/390/104 129/391/104 128/392/104
f 121/393/105 122/394/105 130/395/105 129/396/105
f 122/397/106 123/398/106 131/399/106 130/400/106
f 123/401/107 116/402/107 124/403/107 131/404/107
f 124/405/108 125/406/108 133/407/108 132/408/108
f 125/409/109 126/410/109 134/411/109 133/412/109
f 126/413/110 127/414/110 135/415/110 134/416/110
f 127/417/111 128/418/111 136/419/111 135/420/111
f 128/421/112 129/422/112 137/423/112 136/424/112
f 129/425/113 130/426/113 138/427/113 137/428/113
f 130/429/114 131/430/114 139/431/114 138/432/114
f 131/433/115 124/434/115 132/435/115 139/436/115
f 132/437/116 133/438/116 141/439/116 140/440/116
f 133/441/117 134/442/117 142/443/117 141/444/117
f 134/445/118 135/446/118 143/447/118 142/448/118
f 135/449/119 136/450/119 144/451/119 143/452/119
f 136/453/120 137/454/120 145/455/120 144/456/120
f 137/457/121 138/458/121 146/459/121 145/460/121
f 138/461/122 139/462/122 147/463/122 146/464/122
f 139/465/123 132/466/123 140/467/123 147/468/123
f 140/469/124 141/470/124 149/471/124 148/472/124
f 141/473/125 142/474/125 150/475/125 149/476/125
f 142/477/126 143/478/126 151/479/126 150/480/126
f 143/481/127 144/482/127 152/483/127 151/484/127
f 144/485/128 145/486/128 153/487/128 152/488/128
f 145/489/129 146/490/129 154/491/129 153/492/129
f 146/493/130 147/494/130 155/495/130 154/496/130
f 147/497/131 140/498/131 148/499/131 155/500/131
f 148/501/132 149/502/132 157/503/132 156/504/132
f 149/505/133 150/506/133 158/507/133 157/508/133
f 150/509/134 151/510/134 159/511/134 158/512/134
f 151/513/135 152/514/135 160/515/135 159/516/135
f 152/517/136 153/518/136 161/519/136 160/520/136
f 153/521/137 154/522/137 162/523/137 161/524/137
f 154/525/138 155/526/138 163/527/138 162/528/138
f 155/529/139 148/530/139 156/531/139 163/532/139
f 156/533/140 157/534/140 165/535/140 164/536/140
f 157/537/141 158/538/141 166/539/141 165/540/141
f 158/541/142 159/542/142 167/543/142 166/544/142
f 159/545/143 160/546/143 168/547/143 167/548/143
f 160/549/144 161/550/144 169/551/144 168/552/144
f 161/553/145 162/554/145 170/555/145 169/556/145
f 162/557/146 163/558/146 171/559/146 170/560/146
f 163/561/147 156/562/147 164/563/147 171/564/147
f 164/565/148 165/566/148 173/567/148 172/568/148
f 165/569/149 166/570/149 174/571/149 173/572/149
f 166/573/150 167/574/150 175/575/150 174/576/150
f 167/577/151 168/578/151 176/579/151 175/580/151
f 168/581/152 169/582/152 177/583/152 176/584/152
f 169/585/153 170/586/153 178/587/153 177/588/153
f 170/589/154 171/590/154 179/591/154 178/592/154
f 171/593/155 164/594/155 172/595/155 179/596/155
f 172/597/156 173/598/156 181/599/156 180/600/156
f 173/601/157 174/602/157 182/603/157 181/604/157
f 174/605/158 175/606/158 183/607/158 182/608/158
f 175/609/159 176/610/159 184/611/159 183/612/159
f 176/613/160 177/614/160 185/615/160 184/616/160
f 177/617/161 178/618/161 186/619/161 185/620/161
f 178/621/162 179/622/162 187/623/162 186/624/162
f 179/625/163 172/626/163 180/627/163 187/628/163
f 180/629/164 181/630/164 189/631/164 188/632/164
f 181/633/165 182/634/165 190/635/165 189/636/165
f 182/637/166 183/638/166 191/639/166 190/640/166
f 183/641/167 184/642/167 192/643/167 191/644/167
f 184/645/168 185/646/168 193/647/168 192/648/168
f 185/649/169 186/650/169 194/651/169 193/652/169
f 186/653/170 187/654/170 195/655/170 194/656/170
f 187/657/171 180/658/171 188/659/171 195/660/171
f 188/661/172 189/662/172 101/663/172 100/664/172
f 189/665/173 190/666/173 102/667/173 101/668/173
f 190/669/174 191/670/174 103/671/174 102/672/174
f 191/673/175 192/674/175 104/675/175 103/676/175
f 192/677/176 193/678/176 105/679/176 104/680/176
f 193/681/177 194/682/177 106/683/177 105/684/177
f 194/685/178 195/686/178 107/687/178 106/688/178
f 195/689/179 188/690/179 100/691/179 107/692/179
f 198/693/180 196/694/180 197/695/180 199/696/180
o cylinder
v -1.734723475976807e-17 -1.125 0.625
v -1.734723475976807e-17 -0.14019224698779198 0.45135182233306964
v 0.05024047358083548 -1.0924409666874506 0.809651453689789
v 0.05024047358083548 -0.10763321367524248 0.6360032760228587
v 0.13725952641916445 -1.1011651333698862 0.7601742457923771
v 0.13725952641916445 -0.11635738035767829 0.5865260681254468
v 0.18749999999999997 -1.1162758333175644 0.6744772078974118
v 0.18749999999999997 -0.1314680803053564 0.5008290302304814
v 0.18749999999999997 -1.1337241666824356 0.5755227921025882
v 0.18749999999999997 -0.14891641367022768 0.40187461443565786
v 0.13725952641916447 -1.1488348666301138 0.4898257542076228
v 0.13725952641916447 -0.16402711361790578 0.31617757654069245
v 0.05024047358083554 -1.1575590333125494 0.44034854631021103
v 0.05024047358083554 -0.17275128030034137 0.2667003686432807
v -0.05024047358083544 -1.1575590333125494 0.440348546310211
v -0.05024047358083544 -0.17275128030034137 0.2667003686432806
v -0.1372595264191645 -1.1488348666301138 0.48982575420762275
v -0.1372595264191645 -0.16402711361790578 0.31617757654069245
v -0.18749999999999997 -1.1337241666824356 0.5755227921025882
v -0.18749999999999997 -0.14891641367022768 0.40187461443565786
v -0.18750000000000003 -1.1162758333175644 0.6744772078974117
v -0.18750000000000003 -0.1314680803053564 0.5008290302304814
v -0.13725952641916453 -1.1011651333698862 0.7601742457923771
v -0.13725952641916453 -0.11635738035767829 0.5865260681254468
v -0.0502404735808355 -1.0924409666874506 0.809651453689789
v -0.0502404735808355 -0.10763321367524248 0.6360032760228587
v 0.34375 0.8476361141556923 0.7226361141556921
v 0.34375 0.41013611415569207 -0.035136114155692066
v 0.34375 0.30637023679041797 1.035136114155692
v 0.34375 -0.13112976320958192 0.27736388584430804
v -0.34375 0.8476361141556923 0.7226361141556921
v -0.34375 0.41013611415569207 -0.035136114155692066
v -0.34375 0.30637023679041797 1.035136114155692
v -0.34375 -0.13112976320958192 0.27736388584430804
v 0.34375 0.1897436490538904 1.003886114155692
v -0.34375 0.1897436490538904 1.003886114155692
v 0.34375 -0.2477563509461096 0.246113885844308
v -0.34375 -0.2477563509461096 0.246113885844308
v 0.34375 0.7767627018922194 0.44138611415569184
v 0.34375 0.3392627018922194 -0.3163861141556922
v -0.34375 0.7767627018922194 0.44138611415569184
v -0.34375 0.3392627018922194 -0.3163861141556922
v 0.2578125 0.7799778794850327 0.761698614155692
v -0.2578125 0.7799778794850327 0.761698614155692
v 0.2578125 0.3740284714610773 0.9960736141556922
v -0.2578125 0.3740284714610773 0.9960736141556922
v 0.2578125 0.7487278794850329 0.7075720264191645
v -0.2578125 0.7487278794850329 0.7075720264191645
v 0.2578125 0.3427784714610771 0.9419470264191645
v -0.2578125 0.3427784714610771 0.9419470264191645
v -0.625 -0.14623412263472568 0.625
v 0.625 -0.14623412263472546 0.625
v -0.625 -0.2912658773652739 0.5412658773652742
v 0.625 -0.29126587736527365 0.5412658773652742
v -0.6249999999999999 -0.3749999999999999 0.3962341226347258
v 0.625 -0.37499999999999967 0.3962341226347258
v -0.6249999999999999 -0.3749999999999999 0.2287658773652741
v 0.625 -0.37499999999999967 0.2287658773652741
v -0.625 -0.291265877365274 0.0837341226347258
v 0.625 -0.29126587736527376 0.0837341226347258
v -0.625 -0.14623412263472557 0
v 0.625 -0.14623412263472535 0
v -0.625 0.021234122634726127 -1.1102230246251565e-16
v 0.625 0.02123412263472635 -1.1102230246251565e-16
v -0.625 0.16626587736527432 0.0837341226347258
v 0.625 0.16626587736527476 0.08373412263472568
v -0.625 0.2500000000000002 0.22876587736527415
v 0.625 0.25000000000000044 0.2287658773652742
v -0.625 0.2500000000000002 0.3962341226347256
v 0.625 0.2500000000000002 0.3962341226347257
v -0.625 0.16626587736527454 0.5412658773652741
v 0.625 0.16626587736527476 0.5412658773652741
v -0.625 0.021234122634725905 0.6250000000000001
v 0.625 0.02123412263472635 0.625
v 0.625 0.17187500000000044 0.24969940802395557
v 0.625 0.17187500000000067 0.37530059197604426
v 0.625 0.10907440802395607 0.14092559197604426
v 0.625 0.00030059197604481724 0.078125
v 0.625 -0.12530059197604404 0.078125
v 0.625 -0.2340744080239553 0.14092559197604437
v 0.625 -0.29687499999999956 0.24969940802395552
v 0.625 -0.29687499999999956 0.3753005919760443
v 0.625 -0.23407440802395518 0.4840744080239556
v 0.625 -0.12530059197604393 0.546875
v 0.625 0.00030059197604481724 0.546875
v 0.625 0.10907440802395607 0.4840744080239555
v -0.625 0.17187500000000044 0.37530059197604426
v -0.625 0.171875 0.24969940802395563
v -0.625 0.10907440802395585 0.48407440802395557
v -0.625 0.0003005919760445952 0.546875
v -0.625 -0.12530059197604415 0.5468750000000001
v -0.625 -0.2968749999999998 0.3753005919760444
v -0.625 -0.2340744080239554 0.4840744080239556
v -0.625 -0.2968749999999998 0.24969940802395552
v -0.625 -0.23407440802395552 0.14092559197604426
v -0.625 -0.12530059197604448 0.078125
v -0.625 0.00030059197604437315 0.078125
v -0.625 0.10907440802395585 0.14092559197604426
vt 0.5176375191676121 0.7411812404161939
vt 0.44828802160274145 1
vt 0 0.7411812404161939
vt 0 0
vt 0.26795 0
vt 0.26795 1
vt 0 1
vt 0 0.48236180528770867
vt 0.2588184218119073 0.5517125634363665
vt 8.326672684688674e-17 1
vt 0.5176381947122913 0.7411815781880927
vt 0.44828743656363346 1
vt 0 0.7411815781880928
vt 0 0
vt 0.26795 0
vt 0.26795 1
vt 0 1
vt 5.551115123125783e-17 0.48236248083238786
vt 0.25881875958380607 0.5517119783972586
vt 0 1
vt 0.5 0.73205
vt 0.5 1
vt 0 0.866025
vt 0 0
vt 0.26795 0
vt 0.26795 1
vt 0 1
vt 0.5 0.73205
vt 0.5 1
vt 0 0.866025
vt 5.551115123125783e-17 0.48236248083238786
vt 0.25881875958380607 0.5517119783972586
vt 0 1
vt 0 0
vt 0.26795 0
vt 0.26795 1
vt 0 1
vt 0.5176381947122913 0.7411815781880927
vt 0.44828743656363346 1
vt 0 0.7411815781880928
vt 0 0.48236180528770867
vt 0.2588184218119073 0.5517125634363665
vt 8.326672684688674e-17 1
vt 0 0
vt 0.26795 0
vt 0.26795 1
vt 0 1
vt 0.5176375191676121 0.7411812404161939
vt 0.44828802160274145 1
vt 0 0.7411812404161939
vt 0 0.5
vt 0.26795 0.5
vt 0.133975 1
vt 0 0
vt 0.26795 0
vt 0.26795 1
vt 0 1
vt 0.26795 1
vt 0 1
vt 0.133975 0.5
vt 0 1
vt 0.06934949756487069 0.7411812404161939
vt 0.5176375191676121 1
vt 0 0
vt 0.26795 0
vt 0.26795 1
vt 0 1
vt 0.2588184218119073 1
vt 0 0.9306492418513421
vt 0.2588184218119072 0.48236180528770867
vt 0 1
vt 0.06935075814865788 0.7411815781880927
vt 0.5176381947122913 0.9999999999999999
vt 0 0
vt 0.26795 0
vt 0.26795 1
vt 0 1
vt 0.258818759583806 1
vt 0 0.9306505024351293
vt 0.25881875958380607 0.48236248083238786
vt 0 1
vt 0 0.73205
vt 0.5 0.866025
vt 0 0
vt 0.26795 0
vt 0.26795 1
vt 0 1
vt 0 1
vt 0 0.73205
vt 0.5 0.866025
vt 0.258818759583806 1
vt 0 0.9306505024351293
vt 0.25881875958380607 0.48236248083238786
vt 0 0
vt 0.26795 0
vt 0.26795 1
vt 0 1
vt 0 1
vt 0.06935075814865788 0.7411815781880927
vt 0.5176381947122913 0.9999999999999999
vt 0.2588184218119073 1
vt 0 0.9306492418513421
vt 0.2588184218119072 0.48236180528770867
vt 0 0
vt 0.26795 0
vt 0.26795 1
vt 0 1
vt 0 1
vt 0.06934949756487069 0.7411812404161939
vt 0.5176375191676121 1
vt 0.26795 1
vt 0 1
vt 0.133975 0.5
vt 0 0
vt 0.26795 0
vt 0.26795 1
vt 0 1
vt 0 0.5
vt 0.26795 0.5
vt 0.133975 1
vt 1 1
vt 0 1
vt 0 0
vt 1 0
vt 1 0
vt 1 1
vt 0 1
vt 0 0
vt 0 0
vt 1 0
vt 1 1
vt 0 1
vt 1 0
vt 1 1
vt 0 1
vt 0 0
vt 1 1
vt 0 1
vt 0 0
vt 1 0
vt 0.0625 0.6875
vt 0.9375 0.6875
vt 0.9375 0.75
vt 0.0625 0.75
vt 0 0.9375
vt 0.6875 0.9375
vt 0.6875 1
vt 0 1
vt 0 0.6875
vt 0.875 0.6875
vt 0.875 0.75
vt 0 0.75
vt 0 0.4375
vt 0.6875 0.4375
vt 0.6875 0.5
vt 0 0.5
vt 0.6875 0.5
vt 0 0.5
vt 0 0.4375
vt 0.6875 0.4375
vt 0.9375 0.75
vt 0.0625 0.75
vt 0.0625 0.6875
vt 0.9375 0.6875
vt 0.6875 1
vt 0 1
vt 0 0.9375
vt 0.6875 0.9375
vt 0.875 0.75
vt 0 0.75
vt 0 0.6875
vt 0.875 0.6875
vt 0.9375 0.734375
vt 0.9375 0.265625
vt 1.0234375 0.1875
vt 1.0234375 0.8125
vt 0.2734375 0.921875
vt 0.7890625 0.921875
vt 0.875 1
vt 0.1875 1
vt 0.0859375 0.265625
vt 0.0859375 0.734375
vt 0 0.8125
vt 0 0.1875
vt 0.7890625 0.0625
vt 0.2734375 0.0625
vt 0.1875 -0.015625
vt 0.875 -0.015625
vt 0.375 1
vt 0.375 0.53125
vt 0.4375 0.53125
vt 0.4375 1
vt 0 0.8125
vt 0.515625 0.8125
vt 0.515625 0.875
vt 0 0.875
vt 0.1875 0.53125
vt 0.1875 1
vt 0.125 1
vt 0.125 0.53125
vt 0.515625 0.6875
vt 0 0.6875
vt 0 0.625
vt 0.515625 0.625
vt 0 0
vt 0.26795 0
vt 0.26795 1
vt 0 1
vt 0 0
vt 0.26795 0
vt 0.26795 1
vt 0 1
vt 0 0
vt 0.26795 0
vt 0.26795 1
vt 0 1
vt 0 0
vt 0.26795 0
vt 0.26795 1
vt 0 1
vt 0 0
vt 0.26795 0
vt 0.26795 1
vt 0 1
vt 0 0
vt 0.26795 0
vt 0.26795 1
vt 0 1
vt 0 0
vt 0.26795 0
vt 0.26795 1
vt 0 1
vt 0 0
vt 0.26795 0
vt 0.26795 1
vt 0 1
vt 0 0
vt 0.26795 0
vt 0.26795 1
vt 0 1
vt 0 0
vt 0.26795 0
vt 0.26795 1
vt 0 1
vt 0 0
vt 0.26795 0
vt 0.26795 1
vt 0 1
vt 0 0
vt 0.26795 0
vt 0.26795 1
vt 0 1
vt 0.078125 0.7909687500000004
vt 0.078125 0.9165687500000004
vt 0 0.9375000000000004
vt 0 0.7700375000000004
vt 0.08343481868335778 0.9218720686786542
vt 0.20903673198486764 0.9218720686786541
vt 0.22997178454205186 1
vt 0.06249999999999947 0.9999961124696499
vt 0.08343505255718406 0.9218720686786541
vt 0.2090369658586939 0.9218720686786542
vt 0.22997178454205222 0.9999961124696499
vt 0.06249999999999985 1
vt 0.0834312499999996 0.921875
vt 0.20903124999999959 0.921875
vt 0.22996249999999957 1
vt 0.0624999999999996 1
vt 0.437499999999998 0.9165651813166422
vt 0.4374999999999979 0.7909632680151324
vt 0.5156279313213438 0.7700282154579481
vt 0.5156240437909936 0.9375000000000006
vt 0.4374999999999979 0.9165649474428159
vt 0.437499999999998 0.7909630341413061
vt 0.5156240437909936 0.7700282154579478
vt 0.5156279313213438 0.9375000000000001
vt 0.5 0.9165687500000004
vt 0.5 0.7909687500000004
vt 0.578125 0.7700375000000004
vt 0.578125 0.9375000000000004
vt 0.2090369658586939 0.562500000000002
vt 0.08343505255718406 0.5625000000000021
vt 0.06249999999999983 0.48437206867865623
vt 0.22997178454205222 0.4843759562090064
vt 0.20903673198486764 0.5625000000000021
vt 0.08343481868335777 0.562500000000002
vt 0.06249999999999947 0.4843759562090064
vt 0.22997178454205186 0.48437206867865623
vt 0.20903124999999959 0.5
vt 0.0834312499999996 0.5
vt 0.0624999999999996 0.421875
vt 0.22996249999999957 0.421875
vt 0.0781279313213458 0.7909630341413061
vt 0.07812793132134585 0.9165649474428159
vt 0 0.9375000000000002
vt 0.000003887530350132895 0.7700282154579478
vt 0.07812793132134585 0.7909632680151324
vt 0.0781279313213458 0.9165651813166422
vt 0.000003887530350132895 0.9375000000000006
vt 0 0.7700282154579481
vt 0.078125 0.7909687500000004
vt 0.078125 0.9165687500000004
vt 0 0.9375000000000004
vt 0 0.7700375000000004
vt 0.08343481868335778 0.9218720686786542
vt 0.20903673198486764 0.9218720686786541
vt 0.22997178454205186 1
vt 0.06249999999999947 0.9999961124696499
vt 0.08343505255718406 0.9218720686786541
vt 0.2090369658586939 0.9218720686786542
vt 0.22997178454205222 0.9999961124696499
vt 0.06249999999999985 1
vt 0.0834312499999996 0.921875
vt 0.20903124999999959 0.921875
vt 0.22996249999999957 1
vt 0.0624999999999996 1
vt 0.4374999999999979 0.9165649474428159
vt 0.437499999999998 0.7909630341413061
vt 0.5156240437909936 0.7700282154579478
vt 0.5156279313213438 0.9375000000000001
vt 0.437499999999998 0.9165651813166422
vt 0.4374999999999979 0.7909632680151324
vt 0.5156279313213438 0.7700282154579481
vt 0.5156240437909936 0.9375000000000006
vt 0.5 0.9165687500000004
vt 0.5 0.7909687500000004
vt 0.578125 0.7700375000000004
vt 0.578125 0.9375000000000004
vt 0.2090369658586939 0.562500000000002
vt 0.08343505255718406 0.5625000000000021
vt 0.06249999999999983 0.48437206867865623
vt 0.22997178454205222 0.4843759562090064
vt 0.20903673198486764 0.5625000000000021
vt 0.08343481868335777 0.562500000000002
vt 0.06249999999999947 0.4843759562090064
vt 0.22997178454205186 0.48437206867865623
vt 0.20903124999999959 0.5
vt 0.0834312499999996 0.5
vt 0.0624999999999996 0.421875
vt 0.22996249999999957 0.421875
vt 0.0781279313213458 0.7909630341413061
vt 0.07812793132134585 0.9165649474428159
vt 0 0.9375000000000002
vt 0.000003887530350132895 0.7700282154579478
vt 0.07812793132134585 0.7909632680151324
vt 0.0781279313213458 0.9165651813166422
vt 0.000003887530350132895 0.9375000000000006
vt 0 0.7700282154579481
vn 0 -0.984807753012208 0.17364817766693033
vn 0.5 0.15038373318043533 0.8528685319524434
vn 0 0.984807753012208 -0.17364817766693033
vn 0 -0.984807753012208 0.17364817766693033
vn 0.8660254037844386 0.0868240888334652 0.49240387650610423
vn 0 0.984807753012208 -0.17364817766693033
vn 0 -0.984807753012208 0.17364817766693033
vn 1 0 0
vn 0 0.984807753012208 -0.17364817766693033
vn 0 -0.984807753012208 0.17364817766693033
vn 0.8660254037844387 -0.08682408883346518 -0.4924038765061041
vn 0 0.984807753012208 -0.17364817766693033
vn 0 -0.984807753012208 0.17364817766693033
vn 0.49999999999999994 -0.1503837331804353 -0.8528685319524433
vn 0 0.984807753012208 -0.17364817766693033
vn 0 -0.984807753012208 0.17364817766693033
vn 5.524544980845171e-16 -0.17364817766693033 -0.984807753012208
vn 0 0.984807753012208 -0.17364817766693033
vn 0 -0.984807753012208 0.17364817766693033
vn -0.49999999999999956 -0.15038373318043533 -0.8528685319524434
vn 0 0.984807753012208 -0.17364817766693033
vn 0 -0.984807753012208 0.17364817766693033
vn -0.8660254037844389 -0.0868240888334651 -0.4924038765061036
vn 0 0.984807753012208 -0.17364817766693033
vn 0 -0.984807753012208 0.17364817766693033
vn -1 -9.593271683627516e-17 -5.440614729001011e-16
vn 0 0.984807753012208 -0.17364817766693033
vn 0 -0.984807753012208 0.17364817766693033
vn -0.8660254037844389 0.08682408883346512 0.4924038765061038
vn 0 0.984807753012208 -0.17364817766693033
vn 0 -0.984807753012208 0.17364817766693033
vn -0.49999999999999994 0.15038373318043533 0.8528685319524434
vn 0 0.984807753012208 -0.17364817766693033
vn 0 -0.984807753012208 0.17364817766693033
vn 0 0.17364817766693033 0.984807753012208
vn 0 0.984807753012208 -0.17364817766693033
vn 1 0 0
vn -1 0 0
vn 0 0.8660254037844386 -0.5
vn 0 -0.8660254037844386 0.5
vn 0 -0.5000000000000001 -0.8660254037844387
vn 1 0 0
vn 0 -0.25881904510252046 0.9659258262890684
vn -1 0 0
vn 0 0.2588190451025209 -0.9659258262890682
vn 0 0.9696857580380494 -0.2443553368727066
vn 1 0 0
vn 0 -0.9696857580380494 0.24435533687270664
vn -1 0 0
vn 2.411538981973673e-15 0.5000000000000003 0.8660254037844384
vn 0 0.4999999999999986 0.8660254037844396
vn 2.067033413120291e-15 0.5000000000000003 0.8660254037844384
vn 0 0.49999999999999817 0.8660254037844397
vn -1 0 0
vn 0 -0.8660254037844385 0.5000000000000003
vn 1 0 0
vn 0 0.8660254037844392 -0.4999999999999993
vn 8.286817471267753e-17 -0.5000000000000001 0.8660254037844385
vn 1.5744953195408714e-16 -0.8660254037844385 0.5000000000000001
vn 1.7402316689662281e-16 -1 4.440892098500625e-16
vn 1.6573634942535496e-16 -0.8660254037844384 -0.5000000000000003
vn 5.800772229887429e-17 -0.4999999999999997 -0.8660254037844389
vn 1.2430226206901631e-17 -4.440892098500625e-16 -1
vn -1.9888361931042607e-16 0.5000000000000001 -0.8660254037844385
vn -1.5744953195408716e-16 0.8660254037844385 -0.5000000000000002
vn -8.286817471267764e-18 1 -9.436895709313829e-16
vn -1.3258907954028388e-16 0.8660254037844388 0.4999999999999998
vn -1.1601544459774838e-16 0.5000000000000001 0.8660254037844387
vn 2.9003861149437156e-17 -3.3306690738754686e-16 1
vn 1 0 0
vn 1 0 0
vn 1 0 0
vn 1 0 0
vn 1 0 0
vn 1 0 0
vn 1 0 0
vn 1 0 0
vn 1 0 0
vn 1 0 0
vn 1 0 0
vn 1 0 0
vn -1 0 0
vn -1 0 0
vn -1 0 0
vn -1 0 0
vn -1 -1.2306961192854811e-15 7.105427357600998e-16
vn -1 0 0
vn -1 -1.4210854715201993e-15 5.423418723394456e-31
vn -1 0 0
vn -1 0 0
vn -1 0 0
vn -1 0 0
vn -1 0 0
usemtl m_7b23a268-b227-0eb7-84e9-69f9d78311a5
f 204/697/181 202/698/181 200/699/181
f 202/700/182 204/701/182 205/702/182 203/703/182
f 203/704/183 205/705/183 201/706/183
f 206/707/184 204/708/184 200/709/184
f 204/710/185 206/711/185 207/712/185 205/713/185
f 205/714/186 207/715/186 201/716/186
f 208/717/187 206/718/187 200/719/187
f 206/720/188 208/721/188 209/722/188 207/723/188
f 207/724/189 209/725/189 201/726/189
f 210/727/190 208/728/190 200/729/190
f 208/730/191 210/731/191 211/732/191 209/733/191
f 209/734/192 211/735/192 201/736/192
f 212/737/193 210/738/193 200/739/193
f 210/740/194 212/741/194 213/742/194 211/743/194
f 211/744/195 213/745/195 201/746/195
f 214/747/196 212/748/196 200/749/196
f 212/750/197 214/751/197 215/752/197 213/753/197
f 213/754/198 215/755/198 201/756/198
f 216/757/199 214/758/199 200/759/199
f 214/760/200 216/761/200 217/762/200 215/763/200
f 215/764/201 217/765/201 201/766/201
f 218/767/202 216/768/202 200/769/202
f 216/770/203 218/771/203 219/772/203 217/773/203
f 217/774/204 219/775/204 201/776/204
f 220/777/205 218/778/205 200/779/205
f 218/780/206 220/781/206 221/782/206 219/783/206
f 219/784/207 221/785/207 201/786/207
f 222/787/208 220/788/208 200/789/208
f 220/790/209 222/791/209 223/792/209 221/793/209
f 221/794/210 223/795/210 201/796/210
f 224/797/211 222/798/211 200/799/211
f 222/800/212 224/801/212 225/802/212 223/803/212
f 223/804/213 225/805/213 201/806/213
f 202/807/214 224/808/214 200/809/214
f 224/810/215 202/811/215 203/812/215 225/813/215
f 225/814/216 203/815/216 201/816/216
f 227/817/217 226/818/217 228/819/217 229/820/217
f 232/821/218 230/822/218 231/823/218 233/824/218
f 240/825/219 238/826/219 239/827/219 241/828/219
f 236/829/220 234/830/220 235/831/220 237/832/220
f 231/833/221 227/834/221 229/835/221 233/836/221
f 234/837/222 236/838/222 229/839/222 228/840/222
f 235/841/223 234/842/223 228/843/223 232/844/223
f 237/845/224 235/846/224 232/847/224 233/848/224
f 236/849/225 237/850/225 233/851/225 229/852/225
f 238/853/226 240/854/226 230/855/226 226/856/226
f 239/857/227 238/858/227 226/859/227 227/860/227
f 241/861/228 239/862/228 227/863/228 231/864/228
f 240/865/229 241/866/229 231/867/229 230/868/229
f 242/869/230 244/870/230 228/871/230 226/872/230
f 243/873/231 242/874/231 226/875/231 230/876/231
f 245/877/232 243/878/232 230/879/232 232/880/232
f 244/881/233 245/882/233 232/883/233 228/884/233
f 246/885/234 248/886/234 244/887/234 242/888/234
f 247/889/235 246/890/235 242/891/235 243/892/235
f 249/893/236 247/894/236 243/895/236 245/896/236
f 248/897/237 249/898/237 245/899/237 244/900/237
f 250/901/238 252/902/238 253/903/238 251/904/238
f 252/905/239 254/906/239 255/907/239 253/908/239
f 254/909/240 256/910/240 257/911/240 255/912/240
f 256/913/241 258/914/241 259/915/241 257/916/241
f 258/917/242 260/918/242 261/919/242 259/920/242
f 260/921/243 262/922/243 263/923/243 261/924/243
f 262/925/244 264/926/244 265/927/244 263/928/244
f 264/929/245 266/930/245 267/931/245 265/932/245
f 266/933/246 268/934/246 269/935/246 267/936/246
f 268/937/247 270/938/247 271/939/247 269/940/247
f 270/941/248 272/942/248 273/943/248 271/944/248
f 272/945/249 250/946/249 251/947/249 273/948/249
f 275/949/250 274/950/250 267/951/250 269/952/250
f 274/953/251 276/954/251 265/955/251 267/956/251
f 276/957/252 277/958/252 263/959/252 265/960/252
f 277/961/253 278/962/253 261/963/253 263/964/253
f 278/965/254 279/966/254 259/967/254 261/968/254
f 279/969/255 280/970/255 257/971/255 259/972/255
f 280/973/256 281/974/256 255/975/256 257/976/256
f 281/977/257 282/978/257 253/979/257 255/980/257
f 282/981/258 283/982/258 251/983/258 253/984/258
f 283/985/259 284/986/259 273/987/259 251/988/259
f 284/989/260 285/990/260 271/991/260 273/992/260
f 285/993/261 275/994/261 269/995/261 271/996/261
f 287/997/262 286/998/262 268/999/262 266/1000/262
f 286/1001/263 288/1002/263 270/1003/263 268/1004/263
f 288/1005/264 289/1006/264 272/1007/264 270/1008/264
f 289/1009/265 290/1010/265 250/1011/265 272/1012/265
f 292/1013/266 291/1014/266 254/1015/266 252/1016/266
f 290/1017/267 292/1018/267 252/1019/267 250/1020/267
f 291/1021/268 293/1022/268 256/1023/268 254/1024/268
f 293/1025/269 294/1026/269 258/1027/269 256/1028/269
f 294/1029/270 295/1030/270 260/1031/270 258/1032/270
f 295/1033/271 296/1034/271 262/1035/271 260/1036/271
f 296/1037/272 297/1038/272 264/1039/272 262/1040/272
f 297/1041/273 287/1042/273 266/1043/273 264/1044/273