# Made in Blockbench 4.8.1
mtllib Mcannon.mtl

o tube
v 0.20710678118654754 0 0.5
v 0.20710678118654754 1.5 0.5
v 0.17239406928734569 0 0.416196100146197
v 0.17239406928734569 1.5 0.416196100146197
v 0.5 0 0.20710678118654757
v 0.5 1.375 0.20710678118654757
v 0.416196100146197 -0.125 0.1723940692873457
v 0.416196100146197 1.375 0.1723940692873457
v 0.5 0 -0.20710678118654752
v 0.5 1.375 -0.20710678118654752
v 0.416196100146197 -0.125 -0.17239406928734566
v 0.416196100146197 1.375 -0.17239406928734566
v 0.2071067811865476 0 -0.5
v 0.2071067811865476 1.5 -0.5
v 0.17239406928734574 0 -0.416196100146197
v 0.17239406928734574 1.5 -0.416196100146197
v -0.2071067811865475 0 -0.5000000000000001
v -0.2071067811865475 1.5 -0.5000000000000001
v -0.17239406928734566 0 -0.41619610014619707
v -0.17239406928734566 1.5 -0.41619610014619707
v -0.4999999999999999 0 -0.20710678118654785
v -0.4999999999999999 1.375 -0.20710678118654785
v -0.4161961001461969 -0.125 -0.17239406928734594
v -0.4161961001461969 1.375 -0.17239406928734594
v -0.49999999999999994 0 0.20710678118654766
v -0.49999999999999994 1.375 0.20710678118654766
v -0.41619610014619696 -0.125 0.1723940692873458
v -0.41619610014619696 1.375 0.1723940692873458
v -0.20710678118654788 0 0.4999999999999999
v -0.20710678118654788 1.5 0.4999999999999999
v -0.17239406928734596 0 0.4161961001461969
v -0.17239406928734596 1.5 0.4161961001461969
v 0.20710678118654763 0 -0.5625
v -0.20710678118654746 0 -0.5625000000000001
v -0.20710678118654746 1.375 -0.5625000000000001
v 0.20710678118654763 1.375 -0.5625
v -0.5624999999999999 0 -0.20710678118654785
v -0.5625 0 0.20710678118654766
v -0.5625 1.25 0.20710678118654766
v -0.5624999999999999 1.25 -0.20710678118654785
v -0.2071067811865479 0 0.5624999999999999
v 0.20710678118654752 0 0.5625
v 0.20710678118654752 1.375 0.5625
v -0.2071067811865479 1.375 0.5624999999999999
v 0.5625 0 0.20710678118654757
v 0.5625 0 -0.20710678118654752
v 0.5625 1.25 -0.20710678118654752
v 0.5625 1.25 0.20710678118654757
v 0.5 0.5000210147686042 0.20710678118654757
v 0.20710678118654754 0.5000210147686042 0.5
v 0.5 1.0000315217112856 0.20710678118654757
v 0.20710678118654754 1.0000315217112856 0.5
v 0.20710678118654752 0.45835259687122054 0.5625
v 0.20710678118654752 0.9166955615686787 0.5625
v -0.2071067811865479 0.45835259687122054 0.5624999999999999
v -0.2071067811865479 0.9166955615686787 0.5624999999999999
v -0.20710678118654788 0.5000210147686042 0.4999999999999999
v -0.20710678118654788 1.0000315217112856 0.4999999999999999
v -0.49999999999999994 0.5000210147686042 0.20710678118654766
v -0.49999999999999994 1.0000315217112856 0.20710678118654766
v -0.5625 0.45835259687122054 0.20710678118654766
v -0.5625 0.7916955615686787 0.20710678118654766
v -0.5624999999999999 0.45835259687122054 -0.20710678118654785
v -0.5624999999999999 0.7916955615686787 -0.20710678118654785
v -0.4999999999999999 0.5000210147686042 -0.20710678118654785
v -0.4999999999999999 1.0000315217112856 -0.20710678118654785
v -0.2071067811865475 0.5000210147686042 -0.5000000000000001
v -0.2071067811865475 1.0000315217112856 -0.5000000000000001
v -0.20710678118654746 0.45835259687122054 -0.5625000000000001
v -0.20710678118654746 0.9166955615686787 -0.5625000000000001
v 0.20710678118654763 0.45835259687122054 -0.5625
v 0.20710678118654763 0.9166955615686787 -0.5625
v 0.2071067811865476 0.5000210147686042 -0.5
v 0.2071067811865476 1.0000315217112856 -0.5
v 0.5 0.5000210147686042 -0.20710678118654752
v 0.5 1.0000315217112856 -0.20710678118654752
v 0.5625 0.45835259687122054 -0.20710678118654752
v 0.5625 0.7916955615686787 -0.20710678118654752
v 0.5625 0.45835259687122054 0.20710678118654757
v 0.5625 0.7916955615686787 0.20710678118654757
vt 0 0.965285476461123
vt 5.551115123125783e-17 0.6205002099545623
vt 0.08380541182275314 0.5857856864156853
vt 0.08380541182275314 1
vt 0 1
vt 0 0.00006304342257146267
vt 0.4142125 0.00006304342257146267
vt 0.4142125 1
vt 0.3447875 1
vt 0 1
vt 0 -2
vt 0.3447875 -2
vt 0 0.9652875000000001
vt 0 0.6205
vt 0.08380625000000003 0.5857875
vt 0.08380625000000003 1
vt 0.08380625000000003 0.5857875
vt 0.08380625000000003 1
vt 0 0.9652875000000001
vt 0 0.6205
vt 0.37949979004543766 1
vt 0.03471452353887708 1
vt 0 0.9161945881772469
vt 0.4142143135843147 0.9161945881772469
vt 0 1
vt 0 0.00006304342257146267
vt 0.4142125 0.00006304342257146267
vt 0.4142125 1
vt 0.3447875 1
vt 0 1
vt 0 -2
vt 0.3447875 -2
vt 0.3795 1
vt 0.03471249999999998 1
vt 0 0.9161937499999999
vt 0.4142125 0.9161937499999999
vt 0.4142125 1
vt 0 1
vt 0.03471249999999998 0.9161937499999999
vt 0.3795 0.9161937499999999
vt 0.08380541182275314 0.6205002099545623
vt 0.08380541182275308 0.965285476461123
vt 0 1
vt 0 0.5857856864156853
vt 0 1
vt 0 0.00006304342257146267
vt 0.4142125 0.00006304342257146267
vt 0.4142125 1
vt 0.3447875 1
vt 0 1
vt 0 -2
vt 0.3447875 -2
vt 0.08380625000000003 0.6205
vt 0.08380625000000003 0.9652875000000001
vt 0 1
vt 0 0.5857875
vt 0 1
vt 0 0.5857875
vt 0.08380625000000003 0.6205
vt 0.08380625000000003 0.9652875000000001
vt 0.03471452353887711 0.9161945881772469
vt 0.37949979004543766 0.9161945881772469
vt 0.4142143135843147 1
vt 0 1
vt 0 1
vt 0 0.00006304342257146267
vt 0.4142125 0.00006304342257146267
vt 0.4142125 1
vt 0.3447875 1
vt 0 1
vt 0 -2
vt 0.3447875 -2
vt 0.03471249999999998 0.9161937499999999
vt 0.3795 0.9161937499999999
vt 0.4142125 1
vt 0 1
vt 0 0.9161937499999999
vt 0.4142125 0.9161937499999999
vt 0.3795 1
vt 0.03471249999999998 1
vt 0 0
vt 0.4142125 0
vt 0.4142125 0.0625
vt 0 0.0625
vt 0.1875 1.5
vt 0.1875 1.0000315217112856
vt 0.25 1.0000315217112856
vt 0.25 1.5
vt 0.4142125 1
vt 0 1
vt 0 0.9375
vt 0.4142125 0.9375
vt 0 1.5
vt 0 1.0000315217112856
vt 0.0625 1.0000315217112856
vt 0.0625 1.5
vt 0.0625 0.4375
vt 0.0625 0.023287499999999905
vt 0.125 0.023287499999999905
vt 0.125 0.4375
vt 0.1875 1.5
vt 0.1875 1.0000315217112856
vt 0.25 1.0000315217112856
vt 0.25 1.5
vt 0.0625 1
vt 0.0625 0.5857875
vt 0.125 0.5857875
vt 0.125 1
vt 0 1.5
vt 0 1.0000315217112856
vt 0.0625 1.0000315217112856
vt 0.0625 1.5
vt 0.4142125 0.0625
vt 0 0.0625
vt 0 0
vt 0.4142125 0
vt 0.1875 1.5
vt 0.1875 1.0000315217112856
vt 0.25 1.0000315217112856
vt 0.25 1.5
vt 0 0.9375
vt 0.4142125 0.9375
vt 0.4142125 1
vt 0 1
vt 0 1.5
vt 0 1.0000315217112856
vt 0.0625 1.0000315217112856
vt 0.0625 1.5
vt 0.125 0.023287499999999905
vt 0.125 0.4375
vt 0.0625 0.4375
vt 0.0625 0.023287499999999905
vt 0.1875 1.5
vt 0.1875 1.0000315217112856
vt 0.25 1.0000315217112856
vt 0.25 1.5
vt 0.125 0.5857875
vt 0.125 1
vt 0.0625 1
vt 0.0625 0.5857875
vt 0 1.5
vt 0 1.0000315217112856
vt 0.0625 1.0000315217112856
vt 0.0625 1.5
vt 0.4142125 -2
vt 0.4142125 -0.9999579704627917
vt 0 -0.9999579704627917
vt 0 -2
vt 0.4142125 -0.9999579704627917
vt 0.4142125 0.00006304342257146267
vt 0 0.00006304342257146267
vt 0 -0.9999579704627917
vt 0.25 0
vt 0.25 0.5000210147686042
vt 0.1875 0.5000210147686042
vt 0.1875 0
vt 0.25 0.5000210147686042
vt 0.25 1.0000315217112856
vt 0.1875 1.0000315217112856
vt 0.1875 0.5000210147686042
vt 0.4142125 -2
vt 0.4142125 -0.9999579704627917
vt 0 -0.9999579704627917
vt 0 -2
vt 0.4142125 -0.9999579704627917
vt 0.4142125 0.00006304342257146267
vt 0 0.00006304342257146267
vt 0 -0.9999579704627917
vt 0.0625 0
vt 0.0625 0.5000210147686042
vt 0 0.5000210147686042
vt 0 0
vt 0.0625 0.5000210147686042
vt 0.0625 1.0000315217112856
vt 0 1.0000315217112856
vt 0 0.5000210147686042
vt 0.4142125 -2
vt 0.4142125 -0.9999579704627917
vt 0 -0.9999579704627917
vt 0 -2
vt 0.4142125 -0.9999579704627917
vt 0.4142125 0.00006304342257146267
vt 0 0.00006304342257146267
vt 0 -0.9999579704627917
vt 0.25 0
vt 0.25 0.5000210147686042
vt 0.1875 0.5000210147686042
vt 0.1875 0
vt 0.25 0.5000210147686042
vt 0.25 1.0000315217112856
vt 0.1875 1.0000315217112856
vt 0.1875 0.5000210147686042
vt 0.4142125 -2
vt 0.4142125 -0.9999579704627917
vt 0 -0.9999579704627917
vt 0 -2
vt 0.4142125 -0.9999579704627917
vt 0.4142125 0.00006304342257146267
vt 0 0.00006304342257146267
vt 0 -0.9999579704627917
vt 0.0625 0
vt 0.0625 0.5000210147686042
vt 0 0.5000210147686042
vt 0 0
vt 0.0625 0.5000210147686042
vt 0.0625 1.0000315217112856
vt 0 1.0000315217112856
vt 0 0.5000210147686042
vt 0.4142125 -2
vt 0.4142125 -0.9999579704627917
vt 0 -0.9999579704627917
vt 0 -2
vt 0.4142125 -0.9999579704627917
vt 0.4142125 0.00006304342257146267
vt 0 0.00006304342257146267
vt 0 -0.9999579704627917
vt 0.25 0
vt 0.25 0.5000210147686042
vt 0.1875 0.5000210147686042
vt 0.1875 0
vt 0.25 0.5000210147686042
vt 0.25 1.0000315217112856
vt 0.1875 1.0000315217112856
vt 0.1875 0.5000210147686042
vt 0.4142125 -2
vt 0.4142125 -0.9999579704627917
vt 0 -0.9999579704627917
vt 0 -2
vt 0.4142125 -0.9999579704627917
vt 0.4142125 0.00006304342257146267
vt 0 0.00006304342257146267
vt 0 -0.9999579704627917
vt 0.0625 0
vt 0.0625 0.5000210147686042
vt 0 0.5000210147686042
vt 0 0
vt 0.0625 0.5000210147686042
vt 0.0625 1.0000315217112856
vt 0 1.0000315217112856
vt 0 0.5000210147686042
vt 0.4142125 -2
vt 0.4142125 -0.9999579704627917
vt 0 -0.9999579704627917
vt 0 -2
vt 0.4142125 -0.9999579704627917
vt 0.4142125 0.00006304342257146267
vt 0 0.00006304342257146267
vt 0 -0.9999579704627917
vt 0.25 0
vt 0.25 0.5000210147686042
vt 0.1875 0.5000210147686042
vt 0.1875 0
vt 0.25 0.5000210147686042
vt 0.25 1.0000315217112856
vt 0.1875 1.0000315217112856
vt 0.1875 0.5000210147686042
vt 0.4142125 -2
vt 0.4142125 -0.9999579704627917
vt 0 -0.9999579704627917
vt 0 -2
vt 0.4142125 -0.9999579704627917
vt 0.4142125 0.00006304342257146267
vt 0 0.00006304342257146267
vt 0 -0.9999579704627917
vt 0.0625 0
vt 0.0625 0.5000210147686042
vt 0 0.5000210147686042
vt 0 0
vt 0.0625 0.5000210147686042
vt 0.0625 1.0000315217112856
vt 0 1.0000315217112856
vt 0 0.5000210147686042
vn 0.462390783387367 -0.5111917707232482 0.7244844628998245
vn 1 0 0
vn -1 0 0
vn 0.8306043229608626 -0.5568630519963838 0
vn 0 1 0
vn -0.3374871139957825 -0.9308924306204046 -0.13979173974320805
vn 2.6803154833089315e-16 0 -1
vn -1.6100075675669585e-16 0 1
vn 0 -1 0
vn 0 1 0
vn -0.4623907833873668 -0.5111917707232482 -0.7244844628998246
vn -1 0 -2.6803154833089285e-16
vn 1 0 1.6100075675669568e-16
vn -0.8306043229608626 -0.5568630519963836 -1.3372792456208175e-16
vn 0 1 0
vn 0.3374871139957828 -0.9308924306204045 0.13979173974320835
vn -2.680315483308929e-16 0 1
vn 3.220015135133914e-16 0 -1
vn 0 -1 0
vn 0 1 0
vn 0 -1 0
vn -1 0 -4.440892098500626e-16
vn 2.3973470487295897e-16 0.44721359549995804 -0.8944271909999161
vn 1 0 4.440892098500626e-16
vn 0 -1 0
vn 0 0 1
vn -0.8944271909999159 0.4472135954999583 -2.397347048729587e-16
vn 0 0 -1
vn 0 -1 0
vn 1 0 4.440892098500626e-16
vn -2.397347048729588e-16 0.447213595499958 0.894427190999916
vn -1 0 -4.440892098500626e-16
vn 0 -1 0
vn 0 0 -1
vn 0.8944271909999161 0.44721359549995804 0
vn 0 0 1
vn 0.7071067811865476 0 0.7071067811865476
vn 0.7071067811865476 0 0.7071067811865476
vn 1 0 4.440892098500626e-16
vn 1 0 4.440892098500626e-16
vn -2.6803154833089295e-16 0 1
vn -2.680315483308929e-16 0 1
vn -1 0 -4.440892098500626e-16
vn -1 0 -4.440892098500626e-16
vn -0.7071067811865477 0 0.7071067811865475
vn -0.7071067811865477 0 0.7071067811865475
vn 0 0 1
vn 0 0 1
vn -1 0 -2.680315483308929e-16
vn -1 0 -2.680315483308929e-16
vn 0 0 -1
vn 0 0 -1
vn -0.7071067811865474 0 -0.7071067811865478
vn -0.7071067811865474 0 -0.7071067811865478
vn -1 0 -4.440892098500626e-16
vn -1 0 -4.440892098500626e-16
vn 2.680315483308931e-16 0 -1
vn 2.6803154833089315e-16 0 -1
vn 1 0 4.440892098500626e-16
vn 1 0 4.440892098500626e-16
vn 0.7071067811865476 0 -0.7071067811865475
vn 0.7071067811865476 0 -0.7071067811865475
vn 0 0 -1
vn 0 0 -1
vn 1 0 0
vn 1 0 0
vn 0 0 1
vn 0 0 1
usemtl m_6eed72ca-db34-11cd-0f93-163afa102959
f 3/1/1 7/2/1 5/3/1 1/4/1
f 48/5/2 80/6/2 78/7/2 47/8/2
f 8/9/3 12/10/3 11/11/3 7/12/3
f 7/13/4 11/14/4 9/15/4 5/16/4
f 6/17/5 10/18/5 12/19/5 8/20/5
f 11/21/6 15/22/6 13/23/6 9/24/6
f 36/25/7 72/26/7 70/27/7 35/28/7
f 16/29/8 20/30/8 19/31/8 15/32/8
f 15/33/9 19/34/9 17/35/9 13/36/9
f 14/37/10 18/38/10 20/39/10 16/40/10
f 19/41/11 23/42/11 21/43/11 17/44/11
f 40/45/12 64/46/12 62/47/12 39/48/12
f 24/49/13 28/50/13 27/51/13 23/52/13
f 23/53/14 27/54/14 25/55/14 21/56/14
f 22/57/15 26/58/15 28/59/15 24/60/15
f 27/61/16 31/62/16 29/63/16 25/64/16
f 44/65/17 56/66/17 54/67/17 43/68/17
f 32/69/18 4/70/18 3/71/18 31/72/18
f 31/73/19 3/74/19 1/75/19 29/76/19
f 30/77/20 2/78/20 4/79/20 32/80/20
f 34/81/21 33/82/21 13/83/21 17/84/21
f 35/85/22 70/86/22 68/87/22 18/88/22
f 36/89/23 35/90/23 18/91/23 14/92/23
f 14/93/24 74/94/24 72/95/24 36/96/24
f 38/97/25 37/98/25 21/99/25 25/100/25
f 39/101/26 62/102/26 60/103/26 26/104/26
f 40/105/27 39/106/27 26/107/27 22/108/27
f 22/109/28 66/110/28 64/111/28 40/112/28
f 42/113/29 41/114/29 29/115/29 1/116/29
f 43/117/30 54/118/30 52/119/30 2/120/30
f 44/121/31 43/122/31 2/123/31 30/124/31
f 30/125/32 58/126/32 56/127/32 44/128/32
f 46/129/33 45/130/33 5/131/33 9/132/33
f 47/133/34 78/134/34 76/135/34 10/136/34
f 48/137/35 47/138/35 10/139/35 6/140/35
f 6/141/36 51/142/36 80/143/36 48/144/36
f 5/145/37 49/146/37 50/147/37 1/148/37
f 49/149/38 51/150/38 52/151/38 50/152/38
f 1/153/39 50/154/39 53/155/39 42/156/39
f 50/157/40 52/158/40 54/159/40 53/160/40
f 42/161/41 53/162/41 55/163/41 41/164/41
f 53/165/42 54/166/42 56/167/42 55/168/42
f 41/169/43 55/170/43 57/171/43 29/172/43
f 55/173/44 56/174/44 58/175/44 57/176/44
f 29/177/45 57/178/45 59/179/45 25/180/45
f 57/181/46 58/182/46 60/183/46 59/184/46
f 25/185/47 59/186/47 61/187/47 38/188/47
f 59/189/48 60/190/48 62/191/48 61/192/48
f 38/193/49 61/194/49 63/195/49 37/196/49
f 61/197/50 62/198/50 64/199/50 63/200/50
f 37/201/51 63/202/51 65/203/51 21/204/51
f 63/205/52 64/206/52 66/207/52 65/208/52
f 21/209/53 65/210/53 67/211/53 17/212/53
f 65/213/54 66/214/54 68/215/54 67/216/54
f 17/217/55 67/218/55 69/219/55 34/220/55
f 67/221/56 68/222/56 70/223/56 69/224/56
f 34/225/57 69/226/57 71/227/57 33/228/57
f 69/229/58 70/230/58 72/231/58 71/232/58
f 33/233/59 71/234/59 73/235/59 13/236/59
f 71/237/60 72/238/60 74/239/60 73/240/60
f 13/241/61 73/242/61 75/243/61 9/244/61
f 73/245/62 74/246/62 76/247/62 75/248/62
f 9/249/63 75/250/63 77/251/63 46/252/63
f 75/253/64 76/254/64 78/255/64 77/256/64
f 46/257/65 77/258/65 79/259/65 45/260/65
f 77/261/66 78/262/66 80/263/66 79/264/66
f 45/265/67 79/266/67 49/267/67 5/268/67
f 79/269/68 80/270/68 51/271/68 49/272/68
o tube
v -0.26960678118654735 -1.125 -0.5625000000000001
v 0.2696067811865476 -1.5 0.5
v 0.2696067811865476 0 0.5
v 0.12061737399070882 -1.5 0.291196100146197
v 0.12061737399070882 0 0.291196100146197
v 0.5 -1.5 0.2696067811865476
v 0.5 0 0.2696067811865476
v 0.291196100146197 -1.5 0.12061737399070883
v 0.291196100146197 0 0.12061737399070883
v 0.5 -1.5 -0.2696067811865474
v 0.5 0 -0.2696067811865474
v 0.291196100146197 -1.5 -0.1206173739907088
v 0.291196100146197 0 -0.1206173739907088
v 0.2696067811865476 -1.5 -0.5
v 0.2696067811865476 0 -0.5
v 0.12061737399070886 -1.5 -0.291196100146197
v 0.12061737399070886 0 -0.291196100146197
v -0.26960678118654735 -1.5 -0.5000000000000001
v -0.26960678118654735 0 -0.5000000000000001
v -0.12061737399070879 -1.5 -0.29119610014619707
v -0.12061737399070879 0 -0.29119610014619707
v -0.4999999999999999 -1.5 -0.26960678118654785
v -0.4999999999999999 0 -0.26960678118654785
v -0.29119610014619696 -1.5 -0.120617373990709
v -0.29119610014619696 0 -0.120617373990709
v -0.49999999999999994 -1.5 0.26960678118654763
v -0.49999999999999994 0 0.26960678118654763
v -0.291196100146197 -1.5 0.12061737399070889
v -0.291196100146197 0 0.12061737399070889
v -0.2696067811865479 -1.5 0.4999999999999999
v -0.2696067811865479 0 0.4999999999999999
v -0.12061737399070901 -1.5 0.29119610014619696
v -0.12061737399070901 0 0.29119610014619696
v 0.5625 -1.5 0.2696067811865476
v 0.5625 -1.5 -0.2696067811865474
v 0.5625 0 -0.2696067811865474
v 0.5625 0 0.2696067811865476
v 0.2696067811865476 -1.5 -0.5625
v -0.26960678118654735 -1.5 -0.5625000000000001
v -0.26960678118654735 0 -0.5625000000000001
v 0.2696067811865476 0 -0.5625
v -0.5624999999999999 -1.5 -0.26960678118654785
v -0.5625 -1.5 0.26960678118654763
v -0.5625 0 0.26960678118654763
v -0.5624999999999999 0 -0.26960678118654785
v -0.2696067811865479 -1.5 0.5624999999999999
v 0.2696067811865476 -1.5 0.5625
v 0.2696067811865476 0 0.5625
v -0.2696067811865479 0 0.5624999999999999
v 0.5 -1.125 0.2696067811865476
v 0.2696067811865476 -1.125 0.5
v 0.5 -0.7500000000000001 0.2696067811865476
v 0.2696067811865476 -0.7500000000000001 0.5
v 0.5 -0.37500000000000006 0.2696067811865476
v 0.2696067811865476 -0.37500000000000006 0.5
v 0.2696067811865476 -1.125 0.5625
v 0.2696067811865476 -0.7500000000000001 0.5625
v 0.2696067811865476 -0.37500000000000006 0.5625
v -0.2696067811865479 -1.125 0.5624999999999999
v -0.2696067811865479 -0.7500000000000001 0.5624999999999999
v -0.2696067811865479 -0.37500000000000006 0.5624999999999999
v -0.2696067811865479 -1.125 0.4999999999999999
v -0.2696067811865479 -0.7500000000000001 0.4999999999999999
v -0.2696067811865479 -0.37500000000000006 0.4999999999999999
v -0.49999999999999994 -1.125 0.26960678118654763
v -0.49999999999999994 -0.7500000000000001 0.26960678118654763
v -0.49999999999999994 -0.37500000000000006 0.26960678118654763
v -0.5625 -1.125 0.26960678118654763
v -0.5625 -0.7500000000000001 0.26960678118654763
v -0.5625 -0.37500000000000006 0.26960678118654763
v -0.5624999999999999 -1.125 -0.26960678118654785
v -0.5624999999999999 -0.7500000000000001 -0.26960678118654785
v -0.5624999999999999 -0.37500000000000006 -0.26960678118654785
v -0.4999999999999999 -1.125 -0.26960678118654785
v -0.4999999999999999 -0.7500000000000001 -0.26960678118654785
v -0.4999999999999999 -0.37500000000000006 -0.26960678118654785
v -0.26960678118654735 -1.125 -0.5000000000000001
v -0.26960678118654735 -0.7500000000000001 -0.5000000000000001
v -0.26960678118654735 -0.37500000000000006 -0.5000000000000001
v -0.26960678118654735 -0.7500000000000001 -0.5625000000000001
v -0.26960678118654735 -0.37500000000000006 -0.5625000000000001
v 0.2696067811865476 -1.125 -0.5625
v 0.2696067811865476 -0.7500000000000001 -0.5625
v 0.2696067811865476 -0.37500000000000006 -0.5625
v 0.2696067811865476 -1.125 -0.5
v 0.2696067811865476 -0.7500000000000001 -0.5
v 0.2696067811865476 -0.37500000000000006 -0.5
v 0.5 -1.125 -0.2696067811865474
v 0.5 -0.7500000000000001 -0.2696067811865474
v 0.5 -0.37500000000000006 -0.2696067811865474
v 0.5625 -1.125 -0.2696067811865474
v 0.5625 -0.7500000000000001 -0.2696067811865474
v 0.5625 -0.37500000000000006 -0.2696067811865474
v 0.5625 -1.125 0.2696067811865476
v 0.5625 -0.7500000000000001 0.2696067811865476
v 0.5625 -0.37500000000000006 0.2696067811865476
v 0.03222902634239039 0 0.20280775249787858
v 0.20280775249787858 0 0.0322290263423904
v 0.20280775249787858 -1.5 0.0322290263423904
v 0.03222902634239039 -1.5 0.20280775249787858
v -0.20280775249787855 0 0.03222902634239047
v -0.032229026342390554 0 0.20280775249787852
v -0.032229026342390554 -1.5 0.20280775249787852
v -0.20280775249787855 -1.5 0.03222902634239047
v -0.032229026342390374 0 -0.2028077524978786
v -0.20280775249787852 0 -0.03222902634239054
v -0.20280775249787852 -1.5 -0.03222902634239054
v -0.032229026342390374 -1.5 -0.2028077524978786
v 0.20280775249787858 0 -0.032229026342390374
v 0.032229026342390416 0 -0.20280775249787858
v 0.032229026342390416 -1.5 -0.20280775249787858
v 0.20280775249787858 -1.5 -0.032229026342390374
vt 0.2412375 1
vt 0 1
vt 0 -0.5
vt 0.2412375 -0.5
vt 0 0.913507582408738
vt 1.1102230246251565e-16 0.6722781040069473
vt 0.20880421306700514 0.5857856864156853
vt 0.20880421306700514 1
vt 0 1
vt 0 0.625
vt 0.4142125 0.625
vt 0.4142125 1
vt 0.2412375 1
vt 0 1
vt 0 -0.5
vt 0.2412375 -0.5
vt 0 0.9135125
vt 0 0.672275
vt 0.20880625000000003 0.5857875
vt 0.20880625000000003 1
vt 0.20880625000000003 0.5857875
vt 0.20880625000000003 1
vt 0 0.9135125
vt 0 0.672275
vt 0.2412375 1
vt 0 1
vt 0 -0.5
vt 0.2412375 -0.5
vt 0.3277218959930527 1
vt 0.08649241759126203 0.9999999999999999
vt 0 0.7911957869329949
vt 0.4142143135843147 0.7911957869329949
vt 0 1
vt 0 0.625
vt 0.4142125 0.625
vt 0.4142125 1
vt 0.2412375 1
vt 0 1
vt 0 -0.5
vt 0.2412375 -0.5
vt 0.327725 1
vt 0.0864875 1
vt 0 0.7911937499999999
vt 0.4142125 0.7911937499999999
vt 0.4142125 1
vt 0 1
vt 0.0864875 0.7911937499999999
vt 0.327725 0.7911937499999999
vt 0.2412375 1
vt 0 1
vt 0 -0.5
vt 0.2412375 -0.5
vt 0.20880421306700514 0.6722781040069473
vt 0.20880421306700503 0.913507582408738
vt 0 1
vt 0 0.5857856864156853
vt 0 1
vt 0 0.625
vt 0.4142125 0.625
vt 0.4142125 1
vt 0.2412375 1
vt 0 1
vt 0 -0.5
vt 0.2412375 -0.5
vt 0.20880625000000003 0.672275
vt 0.20880625000000003 0.9135125
vt 0 1
vt 0 0.5857875
vt 0 1
vt 0 0.5857875
vt 0.20880625000000003 0.672275
vt 0.20880625000000003 0.9135125
vt 0.2412375 1
vt 0 1
vt 0 -0.5
vt 0.2412375 -0.5
vt 0.08649241759126206 0.7911957869329949
vt 0.3277218959930527 0.791195786932995
vt 0.4142143135843147 1
vt 0 1
vt 0 1
vt 0 0.625
vt 0.4142125 0.625
vt 0.4142125 1
vt 0.2412375 1
vt 0 1
vt 0 -0.5
vt 0.2412375 -0.5
vt 0.0864875 0.7911937499999999
vt 0.327725 0.7911937499999999
vt 0.4142125 1
vt 0 1
vt 0 0.7911937499999999
vt 0.4142125 0.7911937499999999
vt 0.327725 1
vt 0.0864875 1
vt 0.125 0.023287499999999905
vt 0.125 0.5625
vt 0.0625 0.5625
vt 0.0625 0.023287499999999905
vt 0.1875 1
vt 0.1875 0.625
vt 0.25 0.625
vt 0.25 1
vt 0.125 0.4607875
vt 0.125 1
vt 0.0625 1
vt 0.0625 0.4607875
vt 0 1
vt 0 0.625
vt 0.0625 0.625
vt 0.0625 1
vt 0 0.1875
vt 0.5392125 0.1875
vt 0.5392125 0.25
vt 0 0.25
vt 0.1875 1
vt 0.1875 0.625
vt 0.25 0.625
vt 0.25 1
vt 0.5392125 1
vt 0 1
vt 0 0.9375
vt 0.5392125 0.9375
vt 0 1
vt 0 0.625
vt 0.0625 0.625
vt 0.0625 1
vt 0.0625 0.5625
vt 0.0625 0.023287499999999905
vt 0.125 0.023287499999999905
vt 0.125 0.5625
vt 0.1875 1
vt 0.1875 0.625
vt 0.25 0.625
vt 0.25 1
vt 0.0625 1
vt 0.0625 0.4607875
vt 0.125 0.4607875
vt 0.125 1
vt 0 1
vt 0 0.625
vt 0.0625 0.625
vt 0.0625 1
vt 0.5392125 0.25
vt 0 0.25
vt 0 0.1875
vt 0.5392125 0.1875
vt 0.1875 1
vt 0.1875 0.625
vt 0.25 0.625
vt 0.25 1
vt 0 0.9375
vt 0.5392125 0.9375
vt 0.5392125 1
vt 0 1
vt 0 1
vt 0 0.625
vt 0.0625 0.625
vt 0.0625 1
vt 0.4142125 -0.5
vt 0.4142125 -0.125
vt 0 -0.125
vt 0 -0.5
vt 0.4142125 -0.125
vt 0.4142125 0.2499999999999999
vt 0 0.2499999999999999
vt 0 -0.125
vt 0.4142125 0.2499999999999999
vt 0.4142125 0.625
vt 0 0.625
vt 0 0.2499999999999999
vt 0.25 -0.5
vt 0.25 -0.125
vt 0.1875 -0.125
vt 0.1875 -0.5
vt 0.25 -0.125
vt 0.25 0.2499999999999999
vt 0.1875 0.2499999999999999
vt 0.1875 -0.125
vt 0.25 0.2499999999999999
vt 0.25 0.625
vt 0.1875 0.625
vt 0.1875 0.2499999999999999
vt 0.4142125 -0.5
vt 0.4142125 -0.125
vt 0 -0.125
vt 0 -0.5
vt 0.4142125 -0.125
vt 0.4142125 0.2499999999999999
vt 0 0.2499999999999999
vt 0 -0.125
vt 0.4142125 0.2499999999999999
vt 0.4142125 0.625
vt 0 0.625
vt 0 0.2499999999999999
vt 0.0625 -0.5
vt 0.0625 -0.125
vt 0 -0.125
vt 0 -0.5
vt 0.0625 -0.125
vt 0.0625 0.2499999999999999
vt 0 0.2499999999999999
vt 0 -0.125
vt 0.0625 0.2499999999999999
vt 0.0625 0.625
vt 0 0.625
vt 0 0.2499999999999999
vt 0.4142125 -0.5
vt 0.4142125 -0.125
vt 0 -0.125
vt 0 -0.5
vt 0.4142125 -0.125
vt 0.4142125 0.2499999999999999
vt 0 0.2499999999999999
vt 0 -0.125
vt 0.4142125 0.2499999999999999
vt 0.4142125 0.625
vt 0 0.625
vt 0 0.2499999999999999
vt 0.25 -0.5
vt 0.25 -0.125
vt 0.1875 -0.125
vt 0.1875 -0.5
vt 0.25 -0.125
vt 0.25 0.2499999999999999
vt 0.1875 0.2499999999999999
vt 0.1875 -0.125
vt 0.25 0.2499999999999999
vt 0.25 0.625
vt 0.1875 0.625
vt 0.1875 0.2499999999999999
vt 0.4142125 -0.5
vt 0.4142125 -0.125
vt 0 -0.125
vt 0 -0.5
vt 0.4142125 -0.125
vt 0.4142125 0.2499999999999999
vt 0 0.2499999999999999
vt 0 -0.125
vt 0.4142125 0.2499999999999999
vt 0.4142125 0.625
vt 0 0.625
vt 0 0.2499999999999999
vt 0.0625 -0.5
vt 0.0625 -0.125
vt 0 -0.125
vt 0 -0.5
vt 0.0625 -0.125
vt 0.0625 0.2499999999999999
vt 0 0.2499999999999999
vt 0 -0.125
vt 0.0625 0.2499999999999999
vt 0.0625 0.625
vt 0 0.625
vt 0 0.2499999999999999
vt 0.4142125 -0.5
vt 0.4142125 -0.125
vt 0 -0.125
vt 0 -0.5
vt 0.4142125 -0.125
vt 0.4142125 0.2499999999999999
vt 0 0.2499999999999999
vt 0 -0.125
vt 0.4142125 0.2499999999999999
vt 0.4142125 0.625
vt 0 0.625
vt 0 0.2499999999999999
vt 0.25 -0.5
vt 0.25 -0.125
vt 0.1875 -0.125
vt 0.1875 -0.5
vt 0.25 -0.125
vt 0.25 0.2499999999999999
vt 0.1875 0.2499999999999999
vt 0.1875 -0.125
vt 0.25 0.2499999999999999
vt 0.25 0.625
vt 0.1875 0.625
vt 0.1875 0.2499999999999999
vt 0.4142125 -0.5
vt 0.4142125 -0.125
vt 0 -0.125
vt 0 -0.5
vt 0.4142125 -0.125
vt 0.4142125 0.2499999999999999
vt 0 0.2499999999999999
vt 0 -0.125
vt 0.4142125 0.2499999999999999
vt 0.4142125 0.625
vt 0 0.625
vt 0 0.2499999999999999
vt 0.0625 -0.5
vt 0.0625 -0.125
vt 0 -0.125
vt 0 -0.5
vt 0.0625 -0.125
vt 0.0625 0.2499999999999999
vt 0 0.2499999999999999
vt 0 -0.125
vt 0.0625 0.2499999999999999
vt 0.0625 0.625
vt 0 0.625
vt 0 0.2499999999999999
vt 0.4142125 -0.5
vt 0.4142125 -0.125
vt 0 -0.125
vt 0 -0.5
vt 0.4142125 -0.125
vt 0.4142125 0.2499999999999999
vt 0 0.2499999999999999
vt 0 -0.125
vt 0.4142125 0.2499999999999999
vt 0.4142125 0.625
vt 0 0.625
vt 0 0.2499999999999999
vt 0.25 -0.5
vt 0.25 -0.125
vt 0.1875 -0.125
vt 0.1875 -0.5
vt 0.25 -0.125
vt 0.25 0.2499999999999999
vt 0.1875 0.2499999999999999
vt 0.1875 -0.125
vt 0.25 0.2499999999999999
vt 0.25 0.625
vt 0.1875 0.625
vt 0.1875 0.2499999999999999
vt 0.4142125 -0.5
vt 0.4142125 -0.125
vt 0 -0.125
vt 0 -0.5
vt 0.4142125 -0.125
vt 0.4142125 0.2499999999999999
vt 0 0.2499999999999999
vt 0 -0.125
vt 0.4142125 0.2499999999999999
vt 0.4142125 0.625
vt 0 0.625
vt 0 0.2499999999999999
vt 0.0625 -0.5
vt 0.0625 -0.125
vt 0 -0.125
vt 0 -0.5
vt 0.0625 -0.125
vt 0.0625 0.2499999999999999
vt 0 0.2499999999999999
vt 0 -0.125
vt 0.0625 0.2499999999999999
vt 0.0625 0.625
vt 0 0.625
vt 0 0.2499999999999999
vt 0.24122947840179065 1
vt 0 1
vt 1.3877787807814457e-17 0.875001198755748
vt 0.24122947840179065 0.8750011987557481
vt 0.12499999999999997 -0.5
vt 0.12499999999999997 1
vt 0 1
vt 0 -0.5
vt 0 0.3125
vt 2.7755575615628914e-17 0.07127052159820935
vt 0.124998801244252 0.07127052159820935
vt 0.12499880124425189 0.3125
vt 0 1
vt 0 -0.5
vt 0.12499999999999997 -0.5
vt 0.12499999999999997 1
vt 0.187498801244252 0.7587705215982093
vt 0.18749880124425197 1
vt 0.0625 1
vt 0.06250000000000011 0.7587705215982093
vt 0.12499999999999997 -0.5
vt 0.12499999999999997 1
vt 0 1
vt 0 -0.5
vt 0 0.125001198755748
vt 0.24122947840179065 0.125001198755748
vt 0.24122947840179065 0.25
vt 0 0.2499999999999999
vt 0 1
vt 0 -0.5
vt 0.12499999999999997 -0.5
vt 0.12499999999999997 1
vt 0 0.875001198755748
vt 0.24122947840179065 0.875001198755748
vt 0.24122947840179065 1
vt 0 0.9999999999999999
vt 0.12499999999999997 -0.5
vt 0.12499999999999997 1
vt 0 1
vt 0 -0.5
vt 0.187498801244252 0.07127052159820935
vt 0.18749880124425197 0.3125
vt 0.0625 0.3125
vt 0.06250000000000011 0.07127052159820935
vt 0 1
vt 0 -0.5
vt 0.12499999999999997 -0.5
vt 0.12499999999999997 1
vt 0 1
vt 2.7755575615628914e-17 0.7587705215982093
vt 0.124998801244252 0.7587705215982093
vt 0.12499880124425189 1
vt 0.12499999999999997 -0.5
vt 0.12499999999999997 1
vt 0 1
vt 0 -0.5
vt 0.24122947840179065 0.375
vt 0 0.375
vt 1.3877787807814457e-17 0.250001198755748
vt 0.24122947840179065 0.2500011987557481
vt 0 1
vt 0 -0.5
vt 0.12499999999999997 -0.5
vt 0.12499999999999997 1
vn -0.7071067811865476 0 -0.7071067811865476
vn 0 -1 0
vn 1 0 0
vn -1 0 0
vn 0 -1 0
vn 0 1 0
vn -0.7071067811865476 0 0.7071067811865475
vn 0 -1 0
vn 2.0589671738578532e-16 0 -1
vn -2.3011258409395424e-16 0 1
vn 0 -1 0
vn 0 1 0
vn 0.7071067811865474 0 0.7071067811865477
vn 0 -1 0
vn -1 0 -2.058967173857851e-16
vn 1 0 2.30112584093954e-16
vn 0 -1 0
vn 0 1 0
vn 0.7071067811865477 0 -0.7071067811865475
vn 0 -1 0
vn -2.058967173857851e-16 0 1
vn 2.301125840939541e-16 0 -1
vn 0 -1 0
vn 0 1 0
vn 0 -1 0
vn 0 0 -1
vn 0 1 0
vn 0 0 1
vn 0 -1 0
vn -1 0 0
vn 0 1 0
vn 1 0 0
vn 0 -1 0
vn 0 0 1
vn 0 1 0
vn 0 0 -1
vn 0 -1 0
vn 1 0 0
vn 0 1 0
vn -1 0 0
vn 0.7071067811865476 0 0.7071067811865476
vn 0.7071067811865476 0 0.7071067811865476
vn 0.7071067811865476 0 0.7071067811865476
vn 1 0 0
vn 1 0 0
vn 1 0 0
vn -2.058967173857851e-16 0 1
vn -2.0589671738578512e-16 0 1
vn -2.058967173857851e-16 0 1
vn -1 0 0
vn -1 0 0
vn -1 0 0
vn -0.7071067811865479 0 0.7071067811865472
vn -0.7071067811865479 0 0.7071067811865472
vn -0.7071067811865479 0 0.7071067811865471
vn 0 0 1
vn 0 0 1
vn 0 0 1
vn -1 0 -2.058967173857851e-16
vn -1 0 -2.0589671738578512e-16
vn -1 0 -2.058967173857851e-16
vn 0 0 -1
vn 0 0 -1
vn 0 0 -1
vn -0.7071067811865471 0 -0.707106781186548
vn -0.7071067811865471 0 -0.707106781186548
vn -0.707106781186547 0 -0.707106781186548
vn -1 0 0
vn -1 0 0
vn -1 0 0
vn 2.0589671738578532e-16 0 -1
vn 2.0589671738578532e-16 0 -1
vn 2.0589671738578532e-16 0 -1
vn 1 0 0
vn 1 0 0
vn 1 0 0
vn 0.7071067811865478 0 -0.7071067811865472
vn 0.7071067811865478 0 -0.7071067811865472
vn 0.7071067811865478 0 -0.7071067811865474
vn 0 0 -1
vn 0 0 -1
vn 0 0 -1
vn 1 0 0
vn 1 0 0
vn 1 0 0
vn 0 0 1
vn 0 0 1
vn 0 0 1
vn 0 1 0
vn 0.7071067811865476 0 -0.7071067811865476
vn 0 -1 0
vn -0.7071067811865476 0 0.7071067811865476
vn 0 1 0
vn 0.7071067811865475 0 0.7071067811865476
vn 0 -1 0
vn -0.7071067811865475 0 -0.7071067811865477
vn 0 1 0
vn -0.7071067811865476 0 0.7071067811865475
vn 0 -1 0
vn 0.7071067811865477 0 -0.7071067811865475
vn 0 1 0
vn -0.7071067811865475 0 -0.7071067811865476
vn 0 -1 0
vn 0.7071067811865476 0 0.7071067811865476
usemtl m_7e484ef9-2dc4-5ed5-c72e-b5ee9473ca8f
f 177/273/69 178/274/69 179/275/69 180/276/69
f 84/277/70 88/278/70 86/279/70 82/280/70
f 117/281/71 176/282/71 173/283/71 116/284/71
f 89/285/72 93/286/72 92/287/72 88/288/72
f 88/289/73 92/290/73 90/291/73 86/292/73
f 87/293/74 91/294/74 93/295/74 89/296/74
f 189/297/75 190/298/75 191/299/75 192/300/75
f 92/301/76 96/302/76 94/303/76 90/304/76
f 121/305/77 164/306/77 161/307/77 120/308/77
f 97/309/78 101/310/78 100/311/78 96/312/78
f 96/313/79 100/314/79 98/315/79 94/316/79
f 95/317/80 99/318/80 101/319/80 97/320/80
f 185/321/81 186/322/81 187/323/81 188/324/81
f 100/325/82 104/326/82 102/327/82 98/328/82
f 125/329/83 153/330/83 150/331/83 124/332/83
f 105/333/84 109/334/84 108/335/84 104/336/84
f 104/337/85 108/338/85 106/339/85 102/340/85
f 103/341/86 107/342/86 109/343/86 105/344/86
f 181/345/87 182/346/87 183/347/87 184/348/87
f 108/349/88 112/350/88 110/351/88 106/352/88
f 129/353/89 141/354/89 138/355/89 128/356/89
f 113/357/90 85/358/90 84/359/90 112/360/90
f 112/361/91 84/362/91 82/363/91 110/364/91
f 111/365/92 83/366/92 85/367/92 113/368/92
f 115/369/93 114/370/93 86/371/93 90/372/93
f 116/373/94 173/374/94 170/375/94 91/376/94
f 117/377/95 116/378/95 91/379/95 87/380/95
f 87/381/96 134/382/96 176/383/96 117/384/96
f 119/385/97 118/386/97 94/387/97 98/388/97
f 120/389/98 161/390/98 159/391/98 99/392/98
f 121/393/99 120/394/99 99/395/99 95/396/99
f 95/397/100 167/398/100 164/399/100 121/400/100
f 123/401/101 122/402/101 102/403/101 106/404/101
f 124/405/102 150/406/102 147/407/102 107/408/102
f 125/409/103 124/410/103 107/411/103 103/412/103
f 103/413/104 156/414/104 153/415/104 125/416/104
f 127/417/105 126/418/105 110/419/105 82/420/105
f 128/421/106 138/422/106 135/423/106 83/424/106
f 129/425/107 128/426/107 83/427/107 111/428/107
f 111/429/108 144/430/108 141/431/108 129/432/108
f 86/433/109 130/434/109 131/435/109 82/436/109
f 130/437/110 132/438/110 133/439/110 131/440/110
f 132/441/111 134/442/111 135/443/111 133/444/111
f 82/445/112 131/446/112 136/447/112 127/448/112
f 131/449/113 133/450/113 137/451/113 136/452/113
f 133/453/114 135/454/114 138/455/114 137/456/114
f 127/457/115 136/458/115 139/459/115 126/460/115
f 136/461/116 137/462/116 140/463/116 139/464/116
f 137/465/117 138/466/117 141/467/117 140/468/117
f 126/469/118 139/470/118 142/471/118 110/472/118
f 139/473/119 140/474/119 143/475/119 142/476/119
f 140/477/120 141/478/120 144/479/120 143/480/120
f 110/481/121 142/482/121 145/483/121 106/484/121
f 142/485/122 143/486/122 146/487/122 145/488/122
f 143/489/123 144/490/123 147/491/123 146/492/123
f 106/493/124 145/494/124 148/495/124 123/496/124
f 145/497/125 146/498/125 149/499/125 148/500/125
f 146/501/126 147/502/126 150/503/126 149/504/126
f 123/505/127 148/506/127 151/507/127 122/508/127
f 148/509/128 149/510/128 152/511/128 151/512/128
f 149/513/129 150/514/129 153/515/129 152/516/129
f 122/517/130 151/518/130 154/519/130 102/520/130
f 151/521/131 152/522/131 155/523/131 154/524/131
f 152/525/132 153/526/132 156/527/132 155/528/132
f 102/529/133 154/530/133 157/531/133 98/532/133
f 154/533/134 155/534/134 158/535/134 157/536/134
f 155/537/135 156/538/135 159/539/135 158/540/135
f 98/541/136 157/542/136 81/543/136 119/544/136
f 157/545/137 158/546/137 160/547/137 81/548/137
f 158/549/138 159/550/138 161/551/138 160/552/138
f 119/553/139 81/554/139 162/555/139 118/556/139
f 81/557/140 160/558/140 163/559/140 162/560/140
f 160/561/141 161/562/141 164/563/141 163/564/141
f 118/565/142 162/566/142 165/567/142 94/568/142
f 162/569/143 163/570/143 166/571/143 165/572/143
f 163/573/144 164/574/144 167/575/144 166/576/144
f 94/577/145 165/578/145 168/579/145 90/580/145
f 165/581/146 166/582/146 169/583/146 168/584/146
f 166/585/147 167/586/147 170/587/147 169/588/147
f 90/589/148 168/590/148 171/591/148 115/592/148
f 168/593/149 169/594/149 172/595/149 171/596/149
f 169/597/150 170/598/150 173/599/150 172/600/150
f 115/601/151 171/602/151 174/603/151 114/604/151
f 171/605/152 172/606/152 175/607/152 174/608/152
f 172/609/153 173/610/153 176/611/153 175/612/153
f 114/613/154 174/614/154 130/615/154 86/616/154
f 174/617/155 175/618/155 132/619/155 130/620/155
f 175/621/156 176/622/156 134/623/156 132/624/156
f 178/625/157 177/626/157 85/627/157 89/628/157
f 179/629/158 178/630/158 89/631/158 88/632/158
f 180/633/159 179/634/159 88/635/159 84/636/159
f 177/637/160 180/638/160 84/639/160 85/640/160
f 182/641/161 181/642/161 109/643/161 113/644/161
f 183/645/162 182/646/162 113/647/162 112/648/162
f 184/649/163 183/650/163 112/651/163 108/652/163
f 181/653/164 184/654/164 108/655/164 109/656/164
f 186/657/165 185/658/165 101/659/165 105/660/165
f 187/661/166 186/662/166 105/663/166 104/664/166
f 188/665/167 187/666/167 104/667/167 100/668/167
f 185/669/168 188/670/168 100/671/168 101/672/168
f 190/673/169 189/674/169 93/675/169 97/676/169
f 191/677/170 190/678/170 97/679/170 96/680/170
f 192/681/171 191/682/171 96/683/171 92/684/171
f 189/685/172 192/686/172 92/687/172 93/688/172
o tube_selection
v 0.2696067811865476 0 0.5
v 0.12061737399070882 0 0.291196100146197
v 0.5 0 0.2696067811865476
v 0.291196100146197 0 0.12061737399070883
v 0.5 0 -0.2696067811865474
v 0.291196100146197 0 -0.1206173739907088
v 0.2696067811865476 0 -0.5
v 0.12061737399070886 0 -0.291196100146197
v -0.26960678118654735 0 -0.5000000000000001
v -0.12061737399070879 0 -0.29119610014619707
v -0.4999999999999999 0 -0.26960678118654785
v -0.29119610014619696 0 -0.120617373990709
v -0.49999999999999994 0 0.26960678118654763
v -0.291196100146197 0 0.12061737399070889
v -0.2696067811865479 0 0.4999999999999999
v -0.12061737399070901 0 0.29119610014619696
v 0.5 -0.37500000000000006 0.2696067811865476
v 0.2696067811865476 -0.37500000000000006 0.5
v -0.2696067811865479 -0.37500000000000006 0.4999999999999999
v -0.49999999999999994 -0.37500000000000006 0.26960678118654763
v -0.4999999999999999 -0.37500000000000006 -0.26960678118654785
v -0.26960678118654735 -0.37500000000000006 -0.5000000000000001
v 0.2696067811865476 -0.37500000000000006 -0.5
v 0.5 -0.37500000000000006 -0.2696067811865474
v 0.2917038680986272 0.21875 0.5220970869120796
v 0.5441941738241592 -0.18750000000000006 0.3138009550107068
v 0.3138009550107068 -0.18750000000000006 0.5441941738241592
v 0.5220970869120796 0.21875 0.2917038680986272
v 0.291196100146197 0.25 0.12061737399070883
v 0.12061737399070882 0.25 0.291196100146197
v 0.5220970869120796 0.21875 -0.29170386809862703
v 0.2917038680986272 0.21875 -0.5220970869120796
v 0.12061737399070886 0.25 -0.291196100146197
v 0.291196100146197 0.25 -0.1206173739907088
v 0.3138009550107068 -0.18750000000000006 -0.5441941738241592
v 0.5441941738241592 -0.18750000000000006 -0.3138009550107066
v -0.2917038680986269 0.21875 -0.5220970869120798
v -0.5220970869120795 0.21875 -0.2917038680986275
v -0.29119610014619696 0.25 -0.120617373990709
v -0.12061737399070879 0.25 -0.29119610014619707
v -0.5441941738241591 -0.18750000000000006 -0.3138009550107071
v -0.31380095501070654 -0.18750000000000006 -0.5441941738241594
v -0.5220970869120796 0.21875 0.29170386809862725
v -0.29170386809862753 0.21875 0.5220970869120795
v -0.12061737399070901 0.25 0.29119610014619696
v -0.291196100146197 0.25 0.12061737399070889
v -0.31380095501070715 -0.18750000000000006 0.5441941738241591
v -0.5441941738241591 -0.18750000000000006 0.3138009550107068
vt 0 1
vt 0 0.625
vt 0.4142125 0.625
vt 0.4142125 1
vt 0 0.7911957869329949
vt 0.4142143135843147 0.7911957869329949
vt 0.3277218959930527 1
vt 0.08649241759126203 0.9999999999999999
vt 0 1
vt 0 0.625
vt 0.4142125 0.625
vt 0.4142125 1
vt 0.20880421306700514 0.5857856864156853
vt 0.20880421306700514 1
vt 0 0.913507582408738
vt 1.1102230246251565e-16 0.6722781040069473
vt 0 1
vt 0 0.625
vt 0.4142125 0.625
vt 0.4142125 1
vt 0.4142143135843147 1
vt 0 1
vt 0.08649241759126206 0.7911957869329949
vt 0.3277218959930527 0.791195786932995
vt 0 1
vt 0 0.625
vt 0.4142125 0.625
vt 0.4142125 1
vt 0 1
vt 0 0.5857856864156853
vt 0.20880421306700514 0.6722781040069473
vt 0.20880421306700503 0.913507582408738
vt 0.0625 0.59375
vt 0.03125 1
vt 0 0.96875
vt 0 0.59375
vt 0.062499400622126 0.6116740340640037
vt 0.062499400622126 0.9375
vt 0 0.9375
vt 0 0.6116740340640037
vt 0.21875 1
vt 0.1875 0.59375
vt 0.25 0.59375
vt 0.25 0.96875
vt 0.34997562937501836 0.9375
vt 0.0625 0.9072011748660187
vt 0.09334022373329898 0.8755443138390617
vt 0.3497113068640316 0.8755443138390617
vt 0.3037375 1
vt 0.0625 1
vt 0.0625 0.9375
vt 0.3037375 0.9375
vt 0.28738125000000003 0.96875
vt 0 1
vt 0 0.9375
vt 0.25646875 0.9375
vt 0.28747562937501836 0.9375
vt 0 0.9072011748660187
vt 0.030840223733298977 0.8755443138390617
vt 0.2872113068640316 0.8755443138390617
vt 0.2412375 0.9375
vt 0 0.9375
vt 0 0.875
vt 0.2412375 0.875
vt 0.28738125000000003 0.84375
vt 0 0.875
vt 0 0.8125
vt 0.25646875 0.8125
vt 0.0625 0.59375
vt 0.03125 1
vt 0 0.96875
vt 0 0.59375
vt 0 0.812500599377874
vt 0.3258259659359962 0.812500599377874
vt 0.3258259659359963 0.875
vt 0 0.875
vt 0.21875 1
vt 0.1875 0.59375
vt 0.25 0.59375
vt 0.25 0.96875
vt 0.28747562937501836 0.9375
vt 0 0.9072011748660187
vt 0.030840223733298977 0.8755443138390617
vt 0.2872113068640316 0.8755443138390617
vt 0.3037375 0.9375
vt 0.0625 0.9375
vt 0.0625 0.875
vt 0.3037375 0.875
vt 0.28738125000000003 0.96875
vt 0 1
vt 0 0.9375
vt 0.25646875 0.9375
vt 0.0625 0.59375
vt 0.03125 1
vt 0 0.96875
vt 0 0.59375
vt 0.125 0.9375
vt 0.125 0.6116740340640038
vt 0.187499400622126 0.6116740340640037
vt 0.187499400622126 0.9375
vt 0.21875 1
vt 0.1875 0.59375
vt 0.25 0.59375
vt 0.25 0.96875
vt 0.28747562937501836 0.8125
vt 0 0.7822011748660187
vt 0.030840223733298977 0.7505443138390617
vt 0.2872113068640316 0.7505443138390617
vt 0.3037375 0.9375
vt 0.0625 0.9375
vt 0.0625 0.875
vt 0.3037375 0.875
vt 0.28738125000000003 0.96875
vt 0 1
vt 0 0.9375
vt 0.25646875 0.9375
vt 0.0625 0.59375
vt 0.03125 1
vt 0 0.96875
vt 0 0.59375
vt 0.3258259659359963 0.8125
vt 2.7755575615628914e-17 0.8125
vt 0 0.750000599377874
vt 0.3258259659359963 0.750000599377874
vt 0.21875 1
vt 0.1875 0.59375
vt 0.25 0.59375
vt 0.25 0.96875
vn 0.7050239879106326 0.07669649888473716 0.7050239879106326
vn 0.07727315620153252 0.9940109248198971 0.07727315620153252
vn 0.7050239879106329 0.07669649888473708 -0.7050239879106323
vn 0.07727315620153256 0.9940109248198971 -0.07727315620153251
vn -0.7050239879106321 0.076696498884737 -0.7050239879106331
vn -0.07727315620153247 0.9940109248198971 -0.07727315620153254
vn -0.7050239879106331 0.0766964988847369 0.7050239879106321
vn -0.07727315620153252 0.9940109248198971 0.07727315620153247
vn -0.7071067811865474 1.2212453270876718e-16 0.7071067811865478
vn 0.6708203932499369 -0.31622776601683805 0.6708203932499369
vn 0.7071067811865474 7.806255641895626e-17 -0.7071067811865478
vn 0.5970167399855737 0.020702557713094014 -0.8019616052412573
vn -0.7071067811865476 0 -0.7071067811865476
vn -0.8034760881125154 0 0.5953370270959212
vn -0.8019616052412571 0.020702557713094125 -0.5970167399855736
vn -0.7071067811865477 0 0.7071067811865475
vn 0.5953370270959208 0 0.8034760881125157
vn 0.7071067811865475 1.9428902930940244e-16 0.7071067811865477
vn 0.6708203932499373 -0.3162277660168379 -0.6708203932499366
vn -0.7071067811865478 7.806255641895626e-17 -0.7071067811865474
vn -0.597016739985574 0.020702557713093907 0.8019616052412571
vn 0.7071067811865474 0 0.7071067811865477
vn 0.8034760881125159 0 -0.5953370270959203
vn 0.7071067811865485 -1.8873791418627658e-16 -0.7071067811865467
vn -0.6708203932499364 -0.31622776601683794 -0.6708203932499375
vn -0.7071067811865474 7.806255641895626e-17 0.7071067811865478
vn 0.8019616052412569 0.020702557713093903 0.597016739985574
vn 0.7071067811865477 0 -0.7071067811865474
vn -0.5953370270959212 0 -0.8034760881125154
vn -0.7071067811865476 0 -0.7071067811865476
vn -0.6708203932499375 -0.31622776601683783 0.6708203932499365
vn 0.7071067811865478 7.806255641895626e-17 0.7071067811865474
usemtl m_804728a2-0508-b5d1-5c7c-05a8dfddc343
f 217/689/173 219/690/173 218/691/173 220/692/173
f 217/693/174 220/694/174 221/695/174 222/696/174
f 223/697/175 228/698/175 227/699/175 224/700/175
f 223/701/176 224/702/176 225/703/176 226/704/176
f 229/705/177 234/706/177 233/707/177 230/708/177
f 229/709/178 230/710/178 231/711/178 232/712/178
f 235/713/179 240/714/179 239/715/179 236/716/179
f 235/717/180 236/718/180 237/719/180 238/720/180
f 219/721/181 217/722/181 193/723/181 210/724/181
f 218/725/182 219/726/182 210/727/182 209/728/182
f 220/729/183 218/730/183 209/731/183 195/732/183
f 221/733/184 220/734/184 195/735/184 196/736/184
f 222/737/185 221/738/185 196/739/185 194/740/185
f 217/741/186 222/742/186 194/743/186 193/744/186
f 225/745/187 224/746/187 199/747/187 200/748/187
f 226/749/188 225/750/188 200/751/188 198/752/188
f 223/753/189 226/754/189 198/755/189 197/756/189
f 228/757/190 223/758/190 197/759/190 216/760/190
f 227/761/191 228/762/191 216/763/191 215/764/191
f 224/765/192 227/766/192 215/767/192 199/768/192
f 231/769/193 230/770/193 203/771/193 204/772/193
f 232/773/194 231/774/194 204/775/194 202/776/194
f 229/777/195 232/778/195 202/779/195 201/780/195
f 234/781/196 229/782/196 201/783/196 214/784/196
f 233/785/197 234/786/197 214/787/197 213/788/197
f 230/789/198 233/790/198 213/791/198 203/792/198
f 237/793/199 236/794/199 207/795/199 208/796/199
f 238/797/200 237/798/200 208/799/200 206/800/200
f 235/801/201 238/802/201 206/803/201 205/804/201
f 240/805/202 235/806/202 205/807/202 212/808/202
f 239/809/203 240/810/203 212/811/203 211/812/203
f 236/813/204 239/814/204 211/815/204 207/816/204
o tube_selection
v 0.20710678118654754 1.5 0.5
v 0.17239406928734569 0 0.416196100146197
v 0.17239406928734569 1.5 0.416196100146197
v 0.5 1.375 0.20710678118654757
v 0.416196100146197 -0.125 0.1723940692873457
v 0.416196100146197 1.375 0.1723940692873457
v 0.5 1.375 -0.20710678118654752
v 0.416196100146197 -0.125 -0.17239406928734566
v 0.416196100146197 1.375 -0.17239406928734566
v 0.2071067811865476 1.5 -0.5
v 0.17239406928734574 0 -0.416196100146197
v 0.17239406928734574 1.5 -0.416196100146197
v -0.2071067811865475 1.5 -0.5000000000000001
v -0.17239406928734566 0 -0.41619610014619707
v -0.17239406928734566 1.5 -0.41619610014619707
v -0.4999999999999999 1.375 -0.20710678118654785
v -0.4161961001461969 -0.125 -0.17239406928734594
v -0.4161961001461969 1.375 -0.17239406928734594
v -0.49999999999999994 1.375 0.20710678118654766
v -0.41619610014619696 -0.125 0.1723940692873458
v -0.41619610014619696 1.375 0.1723940692873458
v -0.20710678118654788 1.5 0.4999999999999999
v -0.17239406928734596 0 0.4161961001461969
v -0.17239406928734596 1.5 0.4161961001461969
v 0.5 1.0000315217112856 0.20710678118654757
v 0.20710678118654754 1.0000315217112856 0.5
v -0.20710678118654788 1.0000315217112856 0.4999999999999999
v -0.49999999999999994 1.0000315217112856 0.20710678118654766
v -0.4999999999999999 1.0000315217112856 -0.20710678118654785
v -0.2071067811865475 1.0000315217112856 -0.5000000000000001
v 0.2071067811865476 1.0000315217112856 -0.5
v 0.5 1.0000315217112856 -0.20710678118654752
v -0.12819989546318644 1.5 -0.3720019263220378
v -0.3720019263220377 1.375 -0.12819989546318672
v -0.3720019263220377 -0.125 -0.12819989546318672
v -0.12819989546318644 0 -0.3720019263220378
v 0.37200192632203777 1.375 -0.12819989546318644
v 0.1281998954631865 1.5 -0.3720019263220378
v 0.1281998954631865 0 -0.3720019263220378
v 0.37200192632203777 -0.125 -0.12819989546318644
v -0.3720019263220377 1.375 0.12819989546318658
v -0.12819989546318672 1.5 0.3720019263220377
v -0.12819989546318672 0 0.3720019263220377
v -0.3720019263220377 -0.125 0.12819989546318658
v 0.12819989546318647 1.5 0.37200192632203777
v 0.37200192632203777 1.375 0.1281998954631865
v 0.37200192632203777 -0.125 0.1281998954631865
v 0.12819989546318647 0 0.37200192632203777
v -0.11313788890261278 1.21875 -0.18605141860732505
v -0.18605141860732494 1.15625 -0.11313788890261292
v -0.18605141860732494 0.40625 -0.11313788890261292
v -0.11313788890261278 0.46875 -0.18605141860732505
v 0.18605141860732496 1.15625 -0.11313788890261278
v 0.11313788890261277 1.21875 -0.18605141860732502
v 0.11313788890261277 0.46875 -0.18605141860732502
v 0.18605141860732496 0.40625 -0.11313788890261278
v -0.18605141860732502 1.15625 0.11313788890261281
v -0.1131378889026129 1.21875 0.18605141860732494
v -0.1131378889026129 0.46875 0.18605141860732494
v -0.18605141860732502 0.40625 0.11313788890261281
v 0.11313788890261275 1.21875 0.18605141860732494
v 0.18605141860732496 1.15625 0.11313788890261275
v 0.18605141860732496 0.40625 0.11313788890261275
v 0.11313788890261275 0.46875 0.18605141860732494
vt 0 1
vt 0 0.00006304342257146267
vt 0.4142125 0.00006304342257146267
vt 0.4142125 1
vt 0.2974 0.8125
vt 0.125 0.75
vt 0.125 0
vt 0.2974 0.0625
vt 0 0.9161945881772469
vt 0.4142143135843147 0.9161945881772469
vt 0.37949979004543766 1
vt 0.03471452353887708 1
vt 0 1
vt 0 0.00006304342257146267
vt 0.4142125 0.00006304342257146267
vt 0.4142125 1
vt 0.2974 0.75
vt 0.125 0.8125
vt 0.125 0.0625
vt 0.2974 0
vt 0.08380541182275314 0.5857856864156853
vt 0.08380541182275314 1
vt 0 0.965285476461123
vt 5.551115123125783e-17 0.6205002099545623
vt 0 1
vt 0 0.00006304342257146267
vt 0.4142125 0.00006304342257146267
vt 0.4142125 1
vt 0.2974 0.8125
vt 0.125 0.75
vt 0.125 0
vt 0.2974 0.0625
vt 0.4142143135843147 1
vt 0 1
vt 0.03471452353887711 0.9161945881772469
vt 0.37949979004543766 0.9161945881772469
vt 0 1
vt 0 0.00006304342257146267
vt 0.4142125 0.00006304342257146267
vt 0.4142125 1
vt 0.2974 0.75
vt 0.125 0.8125
vt 0.125 0.0625
vt 0.2974 0
vt 0 1
vt 0 0.5857856864156853
vt 0.08380541182275314 0.6205002099545623
vt 0.08380541182275308 0.965285476461123
vt 0.1875 0.6332500000000001
vt 0.1875 1
vt 0.125 1
vt 0.125 0.6332500000000001
vt 0.0625 0
vt 0.0625 1.5
vt 0 1.5
vt 0 0
vt 0 0.375
vt 0 0.008256250000000076
vt 0.0625 0.008256250000000076
vt 0.0625 0.375
vt 0.125 1.5
vt 0.125 0
vt 0.1875 0
vt 0.1875 1.5
vt 0 1
vt 0 0.6332500000000001
vt 0.0625 0.6332500000000001
vt 0.0625 1
vt 0.0625 0
vt 0.0625 1.5
vt 0 1.5
vt 0 0
vt 0.1875 0.008256250000000076
vt 0.1875 0.375
vt 0.125 0.375
vt 0.125 0.008256250000000076
vt 0.125 1.5
vt 0.125 0
vt 0.1875 0
vt 0.1875 1.5
vt 0 1
vt 0 0.6332500000000001
vt 0.0625 0.6332500000000001
vt 0.0625 1
vt 0.0625 0
vt 0.0625 1.5
vt 0 1.5
vt 0 0
vt 0.1875 0.008256250000000076
vt 0.1875 0.375
vt 0.125 0.375
vt 0.125 0.008256250000000076
vt 0.125 1.5
vt 0.125 0
vt 0.1875 0
vt 0.1875 1.5
vt 0.1875 0.6332500000000001
vt 0.1875 1
vt 0.125 1
vt 0.125 0.6332500000000001
vt 0.0625 0
vt 0.0625 1.5
vt 0 1.5
vt 0 0
vt 0 0.375
vt 0 0.008256250000000076
vt 0.0625 0.008256250000000076
vt 0.0625 0.375
vt 0.125 1.5
vt 0.125 0
vt 0.1875 0
vt 0.1875 1.5
vt 0 0.647450121505086
vt 0.18337941542059732 0.6474501215050857
vt 0.4028720308141083 1
vt 0.036124951564525276 0.9999957397072177
vt 0.08619375000000001 0.40625
vt 0.08619375000000001 1.15625
vt 0 1.5
vt 0 0
vt 0.40287203081410794 0.375
vt 0.21949261539351062 0.375
vt 0 0.02245012150508563
vt 0.36674707924958305 0.022454381797868184
vt 0.25 1.09375
vt 0.25 0.34375
vt 0.33619375 0
vt 0.33619375 1.5
vt 0 0.7805073846064894
vt 0 0.5971279691858921
vt 0.3525456182021316 0.633252920750417
vt 0.3525498784949146 1
vt 0.08619375000000001 0.34375
vt 0.08619375000000001 1.09375
vt 0 1.5
vt 0 0
vt 0.41504987849491415 0.19162058457940256
vt 0.41504987849491404 0.375
vt 0.06250426029278235 0.33887504843547456
vt 0.0625 -0.027872030814108495
vt 0.25 1.15625
vt 0.25 0.40625
vt 0.33619375 0
vt 0.33619375 1.5
vt 0 0.7805073846064894
vt 0 0.5971279691858921
vt 0.3525456182021316 0.633252920750417
vt 0.3525498784949146 1
vt 0.08619375000000001 0.34375
vt 0.08619375000000001 1.09375
vt 0 1.5
vt 0 0
vt 0.41504987849491415 0.19162058457940256
vt 0.41504987849491404 0.375
vt 0.06250426029278235 0.33887504843547456
vt 0.0625 -0.027872030814108495
vt 0.25 1.15625
vt 0.25 0.40625
vt 0.33619375 0
vt 0.33619375 1.5
vt 0 0.647450121505086
vt 0.18337941542059732 0.6474501215050857
vt 0.4028720308141083 1
vt 0.036124951564525276 0.9999957397072177
vt 0.08619375000000001 0.40625
vt 0.08619375000000001 1.15625
vt 0 1.5
vt 0 0
vt 0.40287203081410794 0.375
vt 0.21949261539351062 0.375
vt 0 0.02245012150508563
vt 0.36674707924958305 0.022454381797868184
vt 0.25 1.09375
vt 0.25 0.34375
vt 0.33619375 0
vt 0.33619375 1.5
vn 0.7071067811865476 0 0.7071067811865476
vn -0.7071067811865475 0 -0.7071067811865477
vn 0.11882182027294191 0.9505745621835338 -0.2868612500087942
vn 0.7071067811865477 0 -0.7071067811865475
vn -0.7071067811865478 0 0.7071067811865474
vn 0.28686125000879437 0.9505745621835339 0.11882182027294175
vn -0.7071067811865474 0 -0.7071067811865478
vn 0.7071067811865475 0 0.7071067811865477
vn -0.11882182027294201 0.9505745621835336 0.2868612500087942
vn -0.7071067811865477 0 0.7071067811865475
vn 0.7071067811865476 0 -0.7071067811865476
vn -0.2868612500087944 0.9505745621835338 -0.11882182027294201
vn -0.24100588105014195 0.9401235719832206 0.2410058810501418
vn -0.7071067811865478 0 0.7071067811865474
vn 0.24100588105014187 -0.9401235719832206 -0.24100588105014173
vn 0.7071067811865478 0 -0.7071067811865474
vn 0.24100588105014153 0.9401235719832208 0.2410058810501417
vn -0.7071067811865471 0 -0.707106781186548
vn -0.24100588105014165 -0.9401235719832208 -0.24100588105014192
vn 0.7071067811865474 0 0.7071067811865478
vn -0.2410058810501418 0.9401235719832206 -0.24100588105014195
vn 0.7071067811865471 0 0.707106781186548
vn 0.2410058810501418 -0.9401235719832206 0.24100588105014195
vn -0.7071067811865474 0 -0.7071067811865478
vn 0.24100588105014173 0.9401235719832207 -0.2410058810501416
vn 0.7071067811865474 0 -0.7071067811865478
vn -0.2410058810501416 -0.9401235719832207 0.2410058810501419
vn -0.7071067811865478 0 0.7071067811865474
vn 0.32361910165927094 0.5338346824048948 0.7812113727429421
vn -0.08073566213528811 0 0.9967355481067066
vn 0.7897222381191573 -0.2917226654645738 0.5396634813236056
vn 0.9967355481067066 0 -0.08073566213528736
vn -0.43320840020383516 0.42305027186001953 0.795838519721179
vn -0.9967355481067066 0 -0.08073566213528773
vn -0.7834917816651897 -0.2507257921443061 0.5685747138386624
vn 0.08073566213528735 0 0.9967355481067066
vn 0.4332084002038347 0.4230502718600194 -0.7958385197211792
vn 0.9967355481067066 0 0.08073566213528825
vn 0.7834917816651897 -0.2507257921443063 -0.5685747138386623
vn -0.08073566213528799 0 -0.9967355481067066
vn -0.32361910165927094 0.5338346824048948 -0.7812113727429417
vn 0.0807356621352878 0 -0.9967355481067066
vn -0.7897222381191573 -0.2917226654645737 -0.5396634813236058
vn -0.9967355481067066 0 0.08073566213528763
usemtl m_7e484ef9-2dc4-5ed5-c72e-b5ee9473ca8f
f 241/817/205 266/818/205 265/819/205 244/820/205
f 301/821/206 302/822/206 303/823/206 304/824/206
f 241/825/207 244/826/207 246/827/207 243/828/207
f 247/829/208 272/830/208 271/831/208 250/832/208
f 293/833/209 294/834/209 295/835/209 296/836/209
f 247/837/210 250/838/210 252/839/210 249/840/210
f 253/841/211 270/842/211 269/843/211 256/844/211
f 289/845/212 290/846/212 291/847/212 292/848/212
f 253/849/213 256/850/213 258/851/213 255/852/213
f 259/853/214 268/854/214 267/855/214 262/856/214
f 297/857/215 298/858/215 299/859/215 300/860/215
f 259/861/216 262/862/216 264/863/216 261/864/216
f 274/865/217 273/866/217 255/867/217 258/868/217
f 275/869/218 274/870/218 258/871/218 257/872/218
f 276/873/219 275/874/219 257/875/219 254/876/219
f 273/877/220 276/878/220 254/879/220 255/880/220
f 278/881/221 277/882/221 249/883/221 252/884/221
f 279/885/222 278/886/222 252/887/222 251/888/222
f 280/889/223 279/890/223 251/891/223 248/892/223
f 277/893/224 280/894/224 248/895/224 249/896/224
f 282/897/225 281/898/225 261/899/225 264/900/225
f 283/901/226 282/902/226 264/903/226 263/904/226
f 284/905/227 283/906/227 263/907/227 260/908/227
f 281/909/228 284/910/228 260/911/228 261/912/228
f 286/913/229 285/914/229 243/915/229 246/916/229
f 287/917/230 286/918/230 246/919/230 245/920/230
f 288/921/231 287/922/231 245/923/231 242/924/231
f 285/925/232 288/926/232 242/927/232 243/928/232
f 290/929/233 289/930/233 273/931/233 274/932/233
f 291/933/234 290/934/234 274/935/234 275/936/234
f 292/937/235 291/938/235 275/939/235 276/940/235
f 289/941/236 292/942/236 276/943/236 273/944/236
f 294/945/237 293/946/237 277/947/237 278/948/237
f 295/949/238 294/950/238 278/951/238 279/952/238
f 296/953/239 295/954/239 279/955/239 280/956/239
f 293/957/240 296/958/240 280/959/240 277/960/240
f 298/961/241 297/962/241 281/963/241 282/964/241
f 299/965/242 298/966/242 282/967/242 283/968/242
f 300/969/243 299/970/243 283/971/243 284/972/243
f 297/973/244 300/974/244 284/975/244 281/976/244
f 302/977/245 301/978/245 285/979/245 286/980/245
f 303/981/246 302/982/246 286/983/246 287/984/246
f 304/985/247 303/986/247 287/987/247 288/988/247
f 301/989/248 304/990/248 288/991/248 285/992/248
o sphere
v 1.0408340855860843e-17 -1 -2.0816681711721685e-17
v 1.0408340855860843e-17 0.5 -2.0816681711721685e-17
v 0.09152913087920392 0.28033008588991093 0.2209708691207961
v 0.12944173824159222 -0.25 0.31249999999999994
v 0.09152913087920393 -0.7803300858899105 0.22097086912079614
v 0.2209708691207961 0.28033008588991093 0.09152913087920389
v 0.3125 -0.25 0.12944173824159222
v 0.2209708691207962 -0.7803300858899105 0.09152913087920392
v 0.2209708691207961 0.28033008588991093 -0.0915291308792039
v 0.3125 -0.25 -0.12944173824159222
v 0.2209708691207962 -0.7803300858899105 -0.09152913087920392
v 0.09152913087920395 0.28033008588991093 -0.22097086912079614
v 0.12944173824159225 -0.25 -0.3125
v 0.09152913087920395 -0.7803300858899105 -0.22097086912079617
v -0.09152913087920388 0.28033008588991093 -0.22097086912079614
v -0.12944173824159216 -0.25 -0.31250000000000006
v -0.09152913087920388 -0.7803300858899105 -0.22097086912079617
v -0.22097086912079605 0.28033008588991093 -0.09152913087920406
v -0.3124999999999999 -0.25 -0.12944173824159244
v -0.22097086912079605 -0.7803300858899105 -0.09152913087920408
v -0.22097086912079605 0.28033008588991093 0.09152913087920393
v -0.3125 -0.25 0.12944173824159227
v -0.22097086912079614 -0.7803300858899105 0.09152913087920395
v -0.09152913087920404 0.28033008588991093 0.22097086912079603
v -0.1294417382415924 -0.25 0.3124999999999999
v -0.09152913087920404 -0.7803300858899105 0.22097086912079605
vt 0 0.6173124999999999
vt 0.2928875 0.6173124999999999
vt 0.14644375 1
vt 0.06066249999999998 1
vt 0 0.6173124999999999
vt 0.4142125 0.6173124999999999
vt 0.35355000000000003 1
vt 0 1
vt 0.06066249999999998 0.6173124999999999
vt 0.35355000000000003 0.6173124999999999
vt 0.4142125 1
vt 0.2928875 1
vt 0 1
vt 0.14644375 0.6173124999999999
vt 0 0.6173124999999999
vt 0.2928875 0.6173124999999999
vt 0.14644375 1
vt 0.06066249999999998 1
vt 0 0.6173124999999999
vt 0.4142125 0.6173124999999999
vt 0.35355000000000003 1
vt 0 1
vt 0.06066249999999998 0.6173124999999999
vt 0.35355000000000003 0.6173124999999999
vt 0.4142125 1
vt 0.2928875 1
vt 0 1
vt 0.14644375 0.6173124999999999
vt 0 0.6173124999999999
vt 0.2928875 0.6173124999999999
vt 0.14644375 1
vt 0.06066249999999998 1
vt 0 0.6173124999999999
vt 0.4142125 0.6173124999999999
vt 0.35355000000000003 1
vt 0 1
vt 0.06066249999999998 0.6173124999999999
vt 0.35355000000000003 0.6173124999999999
vt 0.4142125 1
vt 0.2928875 1
vt 0 1
vt 0.14644375 0.6173124999999999
vt 0 0.6173124999999999
vt 0.2928875 0.6173124999999999
vt 0.14644375 1
vt 0.06066249999999998 1
vt 0 0.6173124999999999
vt 0.4142125 0.6173124999999999
vt 0.35355000000000003 1
vt 0 1
vt 0.06066249999999998 0.6173124999999999
vt 0.35355000000000003 0.6173124999999999
vt 0.4142125 1
vt 0.2928875 1
vt 0 1
vt 0.14644375 0.6173124999999999
vt 0 0.6173124999999999
vt 0.2928875 0.6173124999999999
vt 0.14644375 1
vt 0.06066249999999998 1
vt 0 0.6173124999999999
vt 0.4142125 0.6173124999999999
vt 0.35355000000000003 1
vt 0 1
vt 0.06066249999999998 0.6173124999999999
vt 0.35355000000000003 0.6173124999999999
vt 0.4142125 1
vt 0.2928875 1
vt 0 1
vt 0.14644375 0.6173124999999999
vt 0 0.6173124999999999
vt 0.2928875 0.6173124999999999
vt 0.14644375 1
vt 0.06066249999999998 1
vt 0 0.6173124999999999
vt 0.4142125 0.6173124999999999
vt 0.35355000000000003 1
vt 0 1
vt 0.06066249999999998 0.6173124999999999
vt 0.35355000000000003 0.6173124999999999
vt 0.4142125 1
vt 0.2928875 1
vt 0 1
vt 0.14644375 0.6173124999999999
vt 0 0.6173124999999999
vt 0.2928875 0.6173124999999999
vt 0.14644375 1
vt 0.06066249999999998 1
vt 0 0.6173124999999999
vt 0.4142125 0.6173124999999999
vt 0.35355000000000003 1
vt 0 1
vt 0.06066249999999998 0.6173124999999999
vt 0.35355000000000003 0.6173124999999999
vt 0.4142125 1
vt 0.2928875 1
vt 0 1
vt 0.14644375 0.6173124999999999
vt 0 0.6173124999999999
vt 0.2928875 0.6173124999999999
vt 0.14644375 1
vt 0.06066249999999998 1
vt 0 0.6173124999999999
vt 0.4142125 0.6173124999999999
vt 0.35355000000000003 1
vt 0 1
vt 0.06066249999999998 0.6173124999999999
vt 0.35355000000000003 0.6173124999999999
vt 0.4142125 1
vt 0.2928875 1
vt 0 1
vt 0.14644375 0.6173124999999999
vn 0.4985216191305101 0.7091913638214934 0.4985216191305099
vn 0.6968050806833122 0.1700745691390855 0.6968050806833124
vn 0.6968050806833122 -0.17007456913908553 0.6968050806833123
vn 0.4985216191305103 -0.7091913638214927 0.4985216191305105
vn 0.7050160349105618 0.7091913638214933 0
vn 0.9854311954328189 0.17007456913908553 0
vn 0.9854311954328189 -0.1700745691390855 0
vn 0.7050160349105623 -0.7091913638214927 0
vn 0.49852161913051 0.7091913638214933 -0.4985216191305098
vn 0.6968050806833124 0.17007456913908556 -0.6968050806833122
vn 0.6968050806833122 -0.17007456913908556 -0.6968050806833122
vn 0.49852161913051046 -0.7091913638214927 -0.49852161913051046
vn 0 0.7091913638214933 -0.7050160349105616
vn 1.992167943044064e-16 0.1700745691390855 -0.9854311954328189
vn 0 -0.17007456913908556 -0.9854311954328189
vn 0 -0.7091913638214926 -0.7050160349105625
vn -0.49852161913050974 0.7091913638214934 -0.49852161913051013
vn -0.696805080683312 0.17007456913908559 -0.6968050806833125
vn -0.6968050806833119 -0.1700745691390857 -0.6968050806833125
vn -0.49852161913051024 -0.7091913638214926 -0.4985216191305106
vn -0.7050160349105618 0.7091913638214932 0
vn -0.9854311954328189 0.17007456913908545 -4.482377871849138e-16
vn -0.985431195432819 -0.1700745691390856 -4.226026385366739e-16
vn -0.7050160349105624 -0.7091913638214926 -3.2068685148473845e-16
vn -0.4985216191305101 0.7091913638214933 0.49852161913050963
vn -0.6968050806833123 0.17007456913908564 0.6968050806833122
vn -0.6968050806833124 -0.1700745691390857 0.6968050806833122
vn -0.4985216191305103 -0.7091913638214927 0.4985216191305103
vn -3.2068685148473825e-16 0.7091913638214933 0.7050160349105618
vn -1.9921679430440621e-16 0.1700745691390855 0.9854311954328189
vn -4.2260263853667404e-16 -0.17007456913908559 0.9854311954328189
vn -3.206868514847385e-16 -0.7091913638214926 0.7050160349105624
usemtl m_804728a2-0508-b5d1-5c7c-05a8dfddc343
f 307/993/249 310/994/249 306/995/249
f 307/996/250 308/997/250 311/998/250 310/999/250
f 308/1000/251 309/1001/251 312/1002/251 311/1003/251
f 312/1004/252 309/1005/252 305/1006/252
f 310/1007/253 313/1008/253 306/1009/253
f 310/1010/254 311/1011/254 314/1012/254 313/1013/254
f 311/1014/255 312/1015/255 315/1016/255 314/1017/255
f 315/1018/256 312/1019/256 305/1020/256
f 313/1021/257 316/1022/257 306/1023/257
f 313/1024/258 314/1025/258 317/1026/258 316/1027/258
f 314/1028/259 315/1029/259 318/1030/259 317/1031/259
f 318/1032/260 315/1033/260 305/1034/260
f 316/1035/261 319/1036/261 306/1037/261
f 316/1038/262 317/1039/262 320/1040/262 319/1041/262
f 317/1042/263 318/1043/263 321/1044/263 320/1045/263
f 321/1046/264 318/1047/264 305/1048/264
f 319/1049/265 322/1050/265 306/1051/265
f 319/1052/266 320/1053/266 323/1054/266 322/1055/266
f 320/1056/267 321/1057/267 324/1058/267 323/1059/267
f 324/1060/268 321/1061/268 305/1062/268
f 322/1063/269 325/1064/269 306/1065/269
f 322/1066/270 323/1067/270 326/1068/270 325/1069/270
f 323/1070/271 324/1071/271 327/1072/271 326/1073/271
f 327/1074/272 324/1075/272 305/1076/272
f 325/1077/273 328/1078/273 306/1079/273
f 325/1080/274 326/1081/274 329/1082/274 328/1083/274
f 326/1084/275 327/1085/275 330/1086/275 329/1087/275
f 330/1088/276 327/1089/276 305/1090/276
f 328/1091/277 307/1092/277 306/1093/277
f 328/1094/278 329/1095/278 308/1096/278 307/1097/278
f 329/1098/279 330/1099/279 309/1100/279 308/1101/279
f 309/1102/280 330/1103/280 305/1104/280