# Made in Blockbench 4.10.4
mtllib MCBK.mtl

o beveled_cuboid
v -1.125 -1.5 -1.125
v 1.125 -1.5 -1.125
v 1.125 -1.5 1.125
v -1.125 -1.5 1.125
v 1.125 1.5 -1.125
v 1.125 1.5 1.125
v 1.5 1.125 1.125
v 1.5 1.125 -1.125
v -1.5 1.125 1.125
v -1.125 1.5 1.125
v -1.125 1.5 -1.125
v -1.5 1.125 -1.125
v 0.8035714285714284 1.5 1.125
v 0.8035714285714284 1.3749982018606297 1.2500017981393703
v 1.125 1.3749982018606297 1.2500017981393703
v 0.8035714285714284 1.125 -1.5
v 0.8035714285714284 1.2500017981393703 -1.3749982018606297
v 1.125 1.2500017981393703 -1.3749982018606297
v 1.125 1.125 -1.5
v 1.125 -1.125 -1.5
v 1.125 0.75 -1.5
v 1.5 0.75 -1.125
v 1.5 -1.125 -1.125
v 1.5 -1.125 1.125
v 1.5 0.75 1.125
v 1.125 0.75 1.5
v 1.125 -1.125 1.5
v -1.5 -1.125 -1.125
v -1.5 0.75 -1.125
v -1.125 0.75 -1.5
v -1.125 -1.125 -1.5
v -1.125 -1.125 1.5
v -1.125 0.75 1.5
v -1.5 0.75 1.125
v -1.5 -1.125 1.125
v 1.125 1.249998801244252 1.375001198755748
v 1.125 1.125 1.5
v -1.125 1.249998801244252 1.375001198755748
v 1.125 1.375001198755748 -1.249998801244252
v -1.125 1.375001198755748 -1.249998801244252
v -1.125 1.125 -1.5
v -0.5625 0.28125 -1.5
v -0.5625 -1.125 -1.5
v 0.5625 0.28125 -1.5
v 0.5625 -1.125 -1.5
v 0.5625 -1.40625 -1.21875
v -0.5625 -1.40625 -1.21875
v -1.5 0.28125 0.5625
v -1.5 -1.125 0.5625
v -1.5 0.28125 -0.5625
v -1.5 -1.125 -0.5625
v -1.21875 -1.40625 0.5625
v -1.21875 -1.40625 -0.5625
v 0.5625 0.28125 1.5
v 0.5625 -1.125 1.5
v -0.5625 0.28125 1.5
v -0.5625 -1.125 1.5
v 0.5625 -1.40625 1.21875
v -0.5625 -1.40625 1.21875
v 1.5 0.28125 -0.5625
v 1.5 -1.125 -0.5625
v 1.5 0.28125 0.5625
v 1.5 -1.125 0.5625
v 1.21875 -1.40625 0.5625
v 1.21875 -1.40625 -0.5625
v 1.5 0.84375 1.125
v 1.5 0.84375 -1.125
v 1.125 0.84375 -1.5
v 0.8035714285714284 0.84375 -1.5
v -1.125 0.84375 -1.5
v -1.5 0.84375 -1.125
v -1.5 0.84375 1.125
v -1.125 0.84375 1.5
v -1.125 1.125 1.5
v 0.8035714285714284 1.125 1.5
v 0.8035714285714284 0.84375 1.5
v 1.125 0.84375 1.5
v -1.0918543696318808 0.84375 -1.4199793696318808
v -1.4199793696318808 0.84375 -1.0918543696318808
v -1.4199793696318808 0.75 -1.0918543696318808
v -1.0918543696318808 0.75 -1.4199793696318808
v 1.0918543696318808 0.84375 -1.4199793696318808
v 0.779895978308486 0.84375 -1.4199793696318808
v 1.0918543696318808 0.75 -1.4199793696318808
v -1.4199793696318808 0.84375 1.0918543696318808
v -1.4199793696318808 0.75 1.0918543696318808
v -1.0918543696318808 0.84375 1.4199793696318808
v -1.0918543696318808 0.75 1.4199793696318808
v 0.779895978308486 0.84375 1.4199793696318808
v 1.0918543696318808 0.84375 1.4199793696318808
v 1.0918543696318808 0.75 1.4199793696318808
v 1.4199793696318808 0.84375 1.0918543696318808
v 1.4199793696318808 0.75 1.0918543696318808
v 1.4199793696318808 0.84375 -1.0918543696318808
v 1.4199793696318808 0.75 -1.0918543696318808
v -1.125 1.2500017981393703 -1.3749982018606297
v -0.8035714285714287 1.2500017981393703 -1.3749982018606297
v -0.8035714285714287 1.125 -1.5
v -0.48214285714285743 1.2500017981393703 -1.3749982018606297
v -0.48214285714285743 1.125 -1.5
v -0.16071428571428598 1.2500017981393703 -1.3749982018606297
v -0.16071428571428598 1.125 -1.5
v 0.16071428571428548 1.2500017981393703 -1.3749982018606297
v 0.16071428571428548 1.125 -1.5
v 0.48214285714285693 1.2500017981393703 -1.3749982018606297
v 0.48214285714285693 1.125 -1.5
v -0.8035714285714287 0.84375 -1.5
v -0.48214285714285743 0.84375 -1.5
v -0.16071428571428598 0.84375 -1.5
v 0.16071428571428548 0.84375 -1.5
v 0.48214285714285693 0.84375 -1.5
v -0.7798959783084862 0.84375 -1.4199793696318808
v -0.4679375869850918 0.84375 -1.4199793696318808
v -0.15597919566169738 0.84375 -1.4199793696318808
v 0.15597919566169705 0.84375 -1.4199793696318808
v 0.4679375869850916 0.84375 -1.4199793696318808
v -1.125 1.3749982018606297 1.2500017981393703
v -0.8035714285714287 1.3749982018606297 1.2500017981393703
v -0.8035714285714287 1.5 1.125
v -0.48214285714285743 1.3749982018606297 1.2500017981393703
v -0.48214285714285743 1.5 1.125
v -0.16071428571428598 1.3749982018606297 1.2500017981393703
v -0.16071428571428598 1.5 1.125
v 0.16071428571428548 1.3749982018606297 1.2500017981393703
v 0.16071428571428548 1.5 1.125
v 0.48214285714285693 1.3749982018606297 1.2500017981393703
v 0.48214285714285693 1.5 1.125
v -0.8035714285714287 0.84375 1.5
v -0.8035714285714287 1.125 1.5
v -0.48214285714285743 0.84375 1.5
v -0.48214285714285743 1.125 1.5
v -0.16071428571428598 0.84375 1.5
v -0.16071428571428598 1.125 1.5
v 0.16071428571428548 0.84375 1.5
v 0.16071428571428548 1.125 1.5
v 0.48214285714285693 0.84375 1.5
v 0.48214285714285693 1.125 1.5
v -0.7798959783084862 0.84375 1.4199793696318808
v -0.4679375869850918 0.84375 1.4199793696318808
v -0.15597919566169738 0.84375 1.4199793696318808
v 0.15597919566169705 0.84375 1.4199793696318808
v 0.4679375869850916 0.84375 1.4199793696318808
v 0.8035714285714284 1.5 -1.125
v 0.8035714285714284 1.375001198755748 -1.249998801244252
v 0.48214285714285693 1.375001198755748 -1.249998801244252
v 0.48214285714285693 1.5 -1.125
v 0.16071428571428548 1.375001198755748 -1.249998801244252
v 0.16071428571428548 1.5 -1.125
v -0.16071428571428598 1.375001198755748 -1.249998801244252
v -0.16071428571428598 1.5 -1.125
v -0.48214285714285743 1.375001198755748 -1.249998801244252
v -0.48214285714285743 1.5 -1.125
v -0.8035714285714287 1.375001198755748 -1.249998801244252
v -0.8035714285714287 1.5 -1.125
v -0.8035714285714287 1.249998801244252 1.375001198755748
v -0.48214285714285743 1.249998801244252 1.375001198755748
v -0.16071428571428598 1.249998801244252 1.375001198755748
v 0.16071428571428548 1.249998801244252 1.375001198755748
v 0.48214285714285693 1.249998801244252 1.375001198755748
v 0.8035714285714284 1.249998801244252 1.375001198755748
v -0.8035714285714287 1.5 0.5625
v -1.0446428571428572 1.5 0.5625
v -1.0446428571428572 1.5 -0.5625
v -0.8035714285714287 1.5 -0.5625
v 0.8035714285714284 1.5 -0.5625
v 1.0446428571428572 1.5 -0.5625
v 1.0446428571428572 1.5 0.5625
v 0.8035714285714284 1.5 0.5625
v 0.48214285714285693 1.5 0.5625
v 0.48214285714285693 1.5 -0.5625
v 0.16071428571428548 1.5 0.5625
v 0.16071428571428548 1.5 -0.5625
v -0.16071428571428598 1.5 0.5625
v -0.16071428571428598 1.5 -0.5625
v -0.48214285714285743 1.5 0.5625
v -0.48214285714285743 1.5 -0.5625
v 1.339958739263761 -1.058708739263761 0.5625
v 1.0861674785275222 -1.2736674785275222 0.5625
v 1.0861674785275222 -1.2736674785275222 -0.5625
v 1.339958739263761 -1.058708739263761 -0.5625
v -1.0861674785275222 -1.2736674785275222 -0.5625
v -1.0861674785275222 -1.2736674785275222 0.5625
v -1.339958739263761 -1.058708739263761 0.5625
v -1.339958739263761 -1.058708739263761 -0.5625
v -0.5625 -1.2736674785275222 1.0861674785275222
v 0.5625 -1.2736674785275222 1.0861674785275222
v 0.5625 -1.058708739263761 1.339958739263761
v -0.5625 -1.058708739263761 1.339958739263761
v 0.5625 -1.058708739263761 -1.339958739263761
v 0.5625 -1.2736674785275222 -1.0861674785275222
v -0.5625 -1.2736674785275222 -1.0861674785275222
v -0.5625 -1.058708739263761 -1.339958739263761
v 1.3125 0.28125 -0.5625
v 1.5 -1.125 -0.5625
v 1.5 0.28125 -0.5625
v 1.3125 0.28125 0.5625
v 1.5 0.28125 0.5625
v 1.5 -1.125 0.5625
v 1.21875 -1.40625 0.5625
v 1.21875 -1.40625 -0.5625
v -0.5625 0.28125 -1.3125
v -0.5625 -1.125 -1.5
v -0.5625 0.28125 -1.5
v 0.5625 0.28125 -1.3125
v 0.5625 0.28125 -1.5
v 0.5625 -1.125 -1.5
v 0.5625 -1.40625 -1.21875
v -0.5625 -1.40625 -1.21875
v -1.3125 0.28125 0.5625
v -1.5 -1.125 0.5625
v -1.5 0.28125 0.5625
v -1.3125 0.28125 -0.5625
v -1.5 0.28125 -0.5625
v -1.5 -1.125 -0.5625
v -1.21875 -1.40625 -0.5625
v -1.21875 -1.40625 0.5625
v 0.5625 0.28125 1.3125
v 0.5625 -1.125 1.5
v 0.5625 0.28125 1.5
v -0.5625 0.28125 1.3125
v -0.5625 0.28125 1.5
v -0.5625 -1.125 1.5
v -0.5625 -1.40625 1.21875
v 0.5625 -1.40625 1.21875
vt 0 0.25
vt 0.75 0.25
vt 0.75 1
vt 0 1
vt 0.75 1
vt 0 1
vt 0 0.82321875
vt 0.75 0.82321875
vt 0.75 0.82321875
vt 0.75 1
vt 0 1
vt 0 0.82321875
vt 0.6428571428571428 1
vt 0.6428571428571428 0.9410720689937986
vt 0.75 0.9410720689937986
vt 0.75 1
vt 0.10714285714285718 0.82321875
vt 0.10714285714285718 0.8821466810062014
vt 0 0.8821466810062014
vt 0 0.82321875
vt 0.6875 0.78125
vt 0.6875 0.3125
vt 0.875 0.3125
vt 0.875 0.9375
vt 0.1875 0.78125
vt 0.5625 0.78125
vt 0.75 0.9375
vt 0 0.9375
vt 0.1875 0.3125
vt 0.1875 0.78125
vt 0 0.9375
vt 0 0.3125
vt 0.1875 0.8674124999999999
vt 0.1875 1
vt 0 1
vt 0 0.8232187499999999
vt 0.5625 0.8749999999999996
vt 0.1875 0.8749999999999996
vt 0 0.8308062499999995
vt 0.75 0.8308062499999995
vt 0.6875 1
vt 0.6875 0.8674124999999999
vt 0.875 0.8232187499999999
vt 0.875 1
vt 0.6875 0.78125
vt 0.6875 0.3125
vt 0.875 0.3125
vt 0.875 0.9375
vt 0.1875 0.78125
vt 0.5625 0.78125
vt 0.75 0.9375
vt 0 0.9375
vt 0.1875 0.3125
vt 0.1875 0.78125
vt 0 0.9375
vt 0 0.3125
vt 0.5625 0.8749999999999996
vt 0.1875 0.8749999999999996
vt 0 0.8308062499999995
vt 0.75 0.8308062499999995
vt 0.6875 1
vt 0.6875 0.8674124999999999
vt 0.875 0.8232187499999999
vt 0.875 1
vt 0.1875 0.8674124999999999
vt 0.1875 1
vt 0 1
vt 0 0.8232187499999999
vt 0.6875 0.78125
vt 0.6875 0.3125
vt 0.875 0.3125
vt 0.875 0.9375
vt 0.1875 0.78125
vt 0.5625 0.78125
vt 0.75 0.9375
vt 0 0.9375
vt 0.1875 0.3125
vt 0.1875 0.78125
vt 0 0.9375
vt 0 0.3125
vt 0.5625 0.8749999999999996
vt 0.1875 0.8749999999999996
vt 0 0.8308062499999995
vt 0.75 0.8308062499999995
vt 0.6875 1
vt 0.6875 0.8674124999999999
vt 0.875 0.8232187499999999
vt 0.875 1
vt 0.1875 0.8674124999999999
vt 0.1875 1
vt 0 1
vt 0 0.8232187499999999
vt 0.6875 0.78125
vt 0.6875 0.3125
vt 0.875 0.3125
vt 0.875 0.9375
vt 0.1875 0.78125
vt 0.5625 0.78125
vt 0.75 0.9375
vt 0 0.9375
vt 0.1875 0.3125
vt 0.1875 0.78125
vt 0 0.9375
vt 0 0.3125
vt 0.1875 0.8674124999999999
vt 0.1875 1
vt 0 1
vt 0 0.8232187499999999
vt 0.5625 0.8749999999999996
vt 0.1875 0.8749999999999996
vt 0 0.8308062499999995
vt 0.75 0.8308062499999995
vt 0.6875 1
vt 0.6875 0.8674124999999999
vt 0.875 0.8232187499999999
vt 0.875 1
vt 0 1
vt 0 0.90625
vt 0.75 0.90625
vt 0.75 1
vt 0 0.90625
vt 0.10714285714285718 0.90625
vt 0.10714285714285718 1
vt 0 1
vt 0 1
vt 0 0.90625
vt 0.75 0.90625
vt 0.75 1
vt 0.75 1
vt 0.6428571428571428 1
vt 0.6428571428571428 0.90625
vt 0.75 0.90625
vt 0.73895 0.9375000000000027
vt 0.6349642857142856 0.9375000000000027
vt 0.6428571428571428 0.9108250000000027
vt 0.75 0.9108250000000027
vt 0.011050000000000004 0.910825
vt 0.73895 0.910825
vt 0.75 0.9375
vt 0 0.9375
vt 0.214175 0.26105
vt 0.214175 0.98895
vt 0.1875 1
vt 0.1875 0.25
vt 0.214175 0.26105
vt 0.214175 0.98895
vt 0.1875 1
vt 0.1875 0.25
vt 0.75 0.9375
vt 0.6428571428571428 0.9375
vt 0.6349642857142856 0.910825
vt 0.73895 0.910825
vt 0.73895 0.9375000000000027
vt 0.011050000000000004 0.9375000000000027
vt 0 0.9108250000000027
vt 0.75 0.9108250000000027
vt 0.18749999999999734 0.98895
vt 0.18749999999999734 0.26105
vt 0.21417499999999734 0.25
vt 0.21417499999999734 1
vt 0.18749999999999734 0.98895
vt 0.18749999999999734 0.26105
vt 0.21417499999999734 0.25
vt 0.21417499999999734 1
vt 0.75 0.82321875
vt 0.75 0.8821466810062014
vt 0.6428571428571429 0.8821466810062014
vt 0.6428571428571429 0.82321875
vt 0.6428571428571429 0.82321875
vt 0.6428571428571429 0.8821466810062014
vt 0.5357142857142858 0.8821466810062014
vt 0.5357142857142858 0.82321875
vt 0.5357142857142858 0.82321875
vt 0.5357142857142858 0.8821466810062014
vt 0.42857142857142866 0.8821466810062014
vt 0.42857142857142866 0.82321875
vt 0.42857142857142866 0.82321875
vt 0.42857142857142866 0.8821466810062014
vt 0.3214285714285715 0.8821466810062014
vt 0.3214285714285715 0.82321875
vt 0.3214285714285715 0.82321875
vt 0.3214285714285715 0.8821466810062014
vt 0.21428571428571436 0.8821466810062014
vt 0.21428571428571436 0.82321875
vt 0.21428571428571436 0.82321875
vt 0.21428571428571436 0.8821466810062014
vt 0.10714285714285718 0.8821466810062014
vt 0.10714285714285718 0.82321875
vt 0.75 1
vt 0.6428571428571429 1
vt 0.6428571428571429 0.90625
vt 0.75 0.90625
vt 0.6428571428571429 1
vt 0.5357142857142858 1
vt 0.5357142857142858 0.90625
vt 0.6428571428571429 0.90625
vt 0.5357142857142858 1
vt 0.42857142857142866 1
vt 0.42857142857142866 0.90625
vt 0.5357142857142858 0.90625
vt 0.42857142857142866 1
vt 0.3214285714285715 1
vt 0.3214285714285715 0.90625
vt 0.42857142857142866 0.90625
vt 0.3214285714285715 1
vt 0.21428571428571436 1
vt 0.21428571428571436 0.90625
vt 0.3214285714285715 0.90625
vt 0.21428571428571436 1
vt 0.10714285714285718 1
vt 0.10714285714285718 0.90625
vt 0.21428571428571436 0.90625
vt 0 0.9108250000000027
vt 0.1071428571428571 0.9108250000000027
vt 0.11503571428571424 0.9375000000000027
vt 0.011050000000000004 0.9375000000000027
vt 0.1071428571428571 0.9108250000000027
vt 0.2142857142857142 0.9108250000000027
vt 0.21902142857142848 0.9375000000000027
vt 0.11503571428571424 0.9375000000000027
vt 0.2142857142857142 0.9108250000000027
vt 0.32142857142857134 0.9108250000000027
vt 0.32300714285714277 0.9375000000000027
vt 0.21902142857142848 0.9375000000000027
vt 0.32142857142857134 0.9108250000000027
vt 0.4285714285714285 0.9108250000000027
vt 0.42699285714285706 0.9375000000000027
vt 0.32300714285714277 0.9375000000000027
vt 0.4285714285714285 0.9108250000000027
vt 0.5357142857142856 0.9108250000000027
vt 0.5309785714285713 0.9375000000000027
vt 0.42699285714285706 0.9375000000000027
vt 0.5357142857142856 0.9108250000000027
vt 0.6428571428571428 0.9108250000000027
vt 0.6349642857142856 0.9375000000000027
vt 0.5309785714285713 0.9375000000000027
vt 0 1
vt 0 0.9410720689937986
vt 0.1071428571428571 0.9410720689937986
vt 0.1071428571428571 1
vt 0.1071428571428571 1
vt 0.1071428571428571 0.9410720689937986
vt 0.2142857142857142 0.9410720689937986
vt 0.2142857142857142 1
vt 0.2142857142857142 1
vt 0.2142857142857142 0.9410720689937986
vt 0.32142857142857134 0.9410720689937986
vt 0.32142857142857134 1
vt 0.32142857142857134 1
vt 0.32142857142857134 0.9410720689937986
vt 0.4285714285714285 0.9410720689937986
vt 0.4285714285714285 1
vt 0.4285714285714285 1
vt 0.4285714285714285 0.9410720689937986
vt 0.5357142857142856 0.9410720689937986
vt 0.5357142857142856 1
vt 0.5357142857142856 1
vt 0.5357142857142856 0.9410720689937986
vt 0.6428571428571428 0.9410720689937986
vt 0.6428571428571428 1
vt 0 0.90625
vt 0.1071428571428571 0.90625
vt 0.1071428571428571 1
vt 0 1
vt 0.1071428571428571 0.90625
vt 0.2142857142857142 0.90625
vt 0.2142857142857142 1
vt 0.1071428571428571 1
vt 0.2142857142857142 0.90625
vt 0.32142857142857134 0.90625
vt 0.32142857142857134 1
vt 0.2142857142857142 1
vt 0.32142857142857134 0.90625
vt 0.4285714285714285 0.90625
vt 0.4285714285714285 1
vt 0.32142857142857134 1
vt 0.4285714285714285 0.90625
vt 0.5357142857142856 0.90625
vt 0.5357142857142856 1
vt 0.4285714285714285 1
vt 0.5357142857142856 0.90625
vt 0.6428571428571428 0.90625
vt 0.6428571428571428 1
vt 0.5357142857142856 1
vt 0.011050000000000004 0.910825
vt 0.11503571428571424 0.910825
vt 0.1071428571428571 0.9375
vt 0 0.9375
vt 0.11503571428571424 0.910825
vt 0.21902142857142848 0.910825
vt 0.2142857142857142 0.9375
vt 0.1071428571428571 0.9375
vt 0.21902142857142848 0.910825
vt 0.32300714285714277 0.910825
vt 0.32142857142857134 0.9375
vt 0.2142857142857142 0.9375
vt 0.32300714285714277 0.910825
vt 0.42699285714285706 0.910825
vt 0.4285714285714285 0.9375
vt 0.32142857142857134 0.9375
vt 0.42699285714285706 0.910825
vt 0.5309785714285713 0.910825
vt 0.5357142857142856 0.9375
vt 0.4285714285714285 0.9375
vt 0.5309785714285713 0.910825
vt 0.6349642857142856 0.910825
vt 0.6428571428571428 0.9375
vt 0.5357142857142856 0.9375
vt 0.10714285714285718 1
vt 0.10714285714285718 0.9410734817801056
vt 0.21428571428571436 0.9410734817801056
vt 0.21428571428571436 1
vt 0.21428571428571436 1
vt 0.21428571428571436 0.9410734817801056
vt 0.3214285714285715 0.9410734817801056
vt 0.3214285714285715 1
vt 0.21428571428571436 0.9410734817801056
vt 0.21428571428571436 0.8821466810062014
vt 0.3214285714285715 0.8821466810062014
vt 0.3214285714285715 0.9410734817801056
vt 0.3214285714285715 1
vt 0.3214285714285715 0.9410734817801056
vt 0.42857142857142866 0.9410734817801056
vt 0.42857142857142866 1
vt 0.3214285714285715 0.9410734817801056
vt 0.3214285714285715 0.8821466810062014
vt 0.42857142857142866 0.8821466810062014
vt 0.42857142857142866 0.9410734817801056
vt 0.42857142857142866 1
vt 0.42857142857142866 0.9410734817801056
vt 0.5357142857142858 0.9410734817801056
vt 0.5357142857142858 1
vt 0.42857142857142866 0.9410734817801056
vt 0.42857142857142866 0.8821466810062014
vt 0.5357142857142858 0.8821466810062014
vt 0.5357142857142858 0.9410734817801056
vt 0.5357142857142858 1
vt 0.5357142857142858 0.9410734817801056
vt 0.6428571428571429 0.9410734817801056
vt 0.6428571428571429 1
vt 0.6428571428571429 1
vt 0.6428571428571429 0.9410734817801056
vt 0.75 0.9410734817801056
vt 0.75 1
vt 0.6428571428571429 0.9410734817801056
vt 0.6428571428571429 0.8821466810062014
vt 0.75 0.8821466810062014
vt 0.75 0.9410734817801056
vt 0 1
vt 0 0.9410734817801056
vt 0.10714285714285718 0.9410734817801056
vt 0.10714285714285718 1
vt 0 0.9410734817801056
vt 0 0.8821466810062014
vt 0.10714285714285718 0.8821466810062014
vt 0.10714285714285718 0.9410734817801056
vt 0.1071428571428571 0.82321875
vt 0.1071428571428571 0.8821452682198944
vt 0 0.8821452682198944
vt 0 0.82321875
vt 0.1071428571428571 0.8821452682198944
vt 0.1071428571428571 0.9410720689937986
vt 0 0.9410720689937986
vt 0 0.8821452682198944
vt 0.2142857142857142 0.82321875
vt 0.2142857142857142 0.8821452682198944
vt 0.1071428571428571 0.8821452682198944
vt 0.1071428571428571 0.82321875
vt 0.32142857142857134 0.82321875
vt 0.32142857142857134 0.8821452682198944
vt 0.2142857142857142 0.8821452682198944
vt 0.2142857142857142 0.82321875
vt 0.32142857142857134 0.8821452682198944
vt 0.32142857142857134 0.9410720689937986
vt 0.2142857142857142 0.9410720689937986
vt 0.2142857142857142 0.8821452682198944
vt 0.4285714285714285 0.82321875
vt 0.4285714285714285 0.8821452682198944
vt 0.32142857142857134 0.8821452682198944
vt 0.32142857142857134 0.82321875
vt 0.4285714285714285 0.8821452682198944
vt 0.4285714285714285 0.9410720689937986
vt 0.32142857142857134 0.9410720689937986
vt 0.32142857142857134 0.8821452682198944
vt 0.5357142857142856 0.82321875
vt 0.5357142857142856 0.8821452682198944
vt 0.4285714285714285 0.8821452682198944
vt 0.4285714285714285 0.82321875
vt 0.5357142857142856 0.8821452682198944
vt 0.5357142857142856 0.9410720689937986
vt 0.4285714285714285 0.9410720689937986
vt 0.4285714285714285 0.8821452682198944
vt 0.6428571428571428 0.82321875
vt 0.6428571428571428 0.8821452682198944
vt 0.5357142857142856 0.8821452682198944
vt 0.5357142857142856 0.82321875
vt 0.75 0.82321875
vt 0.75 0.8821452682198944
vt 0.6428571428571428 0.8821452682198944
vt 0.6428571428571428 0.82321875
vt 0.75 0.8821452682198944
vt 0.75 0.9410720689937986
vt 0.6428571428571428 0.9410720689937986
vt 0.6428571428571428 0.8821452682198944
vt 0.10714374999999998 0.3125
vt 0.02678750000000002 0.3125
vt 0 0.125
vt 0.10714374999999998 0.125
vt 0.02678750000000002 0.8125
vt 0.10714374999999998 0.8125
vt 0.10714374999999998 1
vt 0 1
vt 0.02678750000000002 0.4375
vt 0.02678750000000002 0.8125
vt 0 1
vt 0 0.25
vt 0.6249999999999988 0.8125
vt 0.7053562499999988 0.8125
vt 0.7321437499999988 1
vt 0.6249999999999988 1
vt 0.7053562499999988 0.3125
vt 0.6249999999999988 0.3125
vt 0.6249999999999988 0.125
vt 0.7321437499999988 0.125
vt 0.7499999999999976 0.8125
vt 0.7499999999999976 0.4375
vt 0.7767874999999975 0.25
vt 0.7767874999999975 1
vt 0.6696437499999975 0.3125
vt 0.5624999999999976 0.3125
vt 0.5624999999999976 0.125
vt 0.6696437499999975 0.125
vt 0.5624999999999976 0.8125
vt 0.6696437499999975 0.8125
vt 0.6696437499999975 1
vt 0.5624999999999976 1
vt 0.5446437500000034 0.3125
vt 0.4375000000000034 0.3125
vt 0.4375000000000034 0.125
vt 0.5446437500000034 0.125
vt 0.4375000000000034 0.8125
vt 0.5446437500000034 0.8125
vt 0.5446437500000034 1
vt 0.4375000000000034 1
vt 0.4196374999999966 0.3125
vt 0.3124999999999966 0.3125
vt 0.3124999999999966 0.125
vt 0.4196374999999966 0.125
vt 0.3124999999999966 0.8125
vt 0.4196374999999966 0.8125
vt 0.4196374999999966 1
vt 0.3124999999999966 1
vt 0.2946437500000025 0.3125
vt 0.18750000000000247 0.3125
vt 0.18750000000000247 0.125
vt 0.2946437500000025 0.125
vt 0.18750000000000247 0.8125
vt 0.2946437500000025 0.8125
vt 0.2946437500000025 1
vt 0.18750000000000247 1
vt 0.23214375000000123 0.3125
vt 0.12500000000000122 0.3125
vt 0.12500000000000122 0.125
vt 0.23214375000000123 0.125
vt 0.12500000000000122 0.8125
vt 0.23214375000000123 0.8125
vt 0.23214375000000123 1
vt 0.12500000000000122 1
vt 0.25 0.9375
vt 0.25915 0.49085
vt 0.3125 0.46875
vt 0.3125 0.9375
vt 0.1875 1
vt 0.1875 0.625
vt 0.25 0.625
vt 0.25 1
vt 0.11585000000000001 0.49085
vt 0.125 0.9375
vt 0.0625 0.9375
vt 0.0625 0.46875
vt 0.12499940062212808 0.8674174785275224
vt 0.11585120664052712 0.9779029130879204
vt 0.06250000000000211 1
vt 0.06250000000000211 0.8674174785275224
vt 0.375 1
vt 0 1
vt 0 0.9375
vt 0.375 0.9375
vt 0.36048543456039556 0.9908518060183972
vt 0.24999999999999756 0.9999999999999981
vt 0.24999999999999756 0.9375005993778722
vt 0.3825825214724752 0.9375005993778722
vt 0.25 0.9375
vt 0.25915 0.49085
vt 0.3125 0.46875
vt 0.3125 0.9375
vt 0.375 0.875
vt 0 0.875
vt 0 0.8125
vt 0.375 0.8125
vt 0.11585000000000001 0.49085
vt 0.125 0.9375
vt 0.0625 0.9375
vt 0.0625 0.46875
vt 0.12499940062212808 0.8674174785275224
vt 0.11585120664052712 0.9779029130879204
vt 0.06250000000000211 1
vt 0.06250000000000211 0.8674174785275224
vt 0.375 1
vt 0 1
vt 0 0.9375
vt 0.375 0.9375
vt 0.36048543456039556 0.9908518060183972
vt 0.24999999999999756 0.9999999999999981
vt 0.24999999999999756 0.9375005993778722
vt 0.3825825214724752 0.9375005993778722
vt 0.25 0.9375
vt 0.25915 0.49085
vt 0.3125 0.46875
vt 0.3125 0.9375
vt 0.25 0.625
vt 0.25 1
vt 0.1875 1
vt 0.1875 0.625
vt 0.11585000000000001 0.49085
vt 0.125 0.9375
vt 0.0625 0.9375
vt 0.0625 0.46875
vt 0.375 1
vt 0 1
vt 0 0.9375
vt 0.375 0.9375
vt 0.36048543456039556 0.9908518060183972
vt 0.24999999999999756 0.9999999999999981
vt 0.24999999999999756 0.9375005993778722
vt 0.3825825214724752 0.9375005993778722
vt 0.12499940062212808 0.8674174785275224
vt 0.11585120664052712 0.9779029130879204
vt 0.06250000000000211 1
vt 0.06250000000000211 0.8674174785275224
vt 0.25 0.9375
vt 0.25915 0.49085
vt 0.3125 0.46875
vt 0.3125 0.9375
vt 0 0.8125
vt 0.375 0.8125
vt 0.375 0.875
vt 0 0.875
vt 0.11585000000000001 0.49085
vt 0.125 0.9375
vt 0.0625 0.9375
vt 0.0625 0.46875
vt 0.375 1
vt 0 1
vt 0 0.9375
vt 0.375 0.9375
vt 0.36048543456039556 0.9908518060183972
vt 0.24999999999999756 0.9999999999999981
vt 0.24999999999999756 0.9375005993778722
vt 0.3825825214724752 0.9375005993778722
vt 0.12499940062212808 0.8674174785275224
vt 0.11585120664052712 0.9779029130879204
vt 0.06250000000000211 1
vt 0.06250000000000211 0.8674174785275224
vn 0 -1 0
vn 0.7071067811865476 0.7071067811865476 0
vn -0.7071067811865476 0.7071067811865476 0
vn 0 0.7071067811865476 0.7071067811865476
vn 0 0.7071067811865476 -0.7071067811865476
vn 0 0 -1
vn 0 0 -1
vn 0 0 -1
vn 0 -0.7071067811865476 -0.7071067811865476
vn 0 -0.7071067811865476 -0.7071067811865476
vn 0 -0.7071067811865476 -0.7071067811865476
vn -1 0 0
vn -1 0 0
vn -1 0 0
vn -0.7071067811865476 -0.7071067811865476 0
vn -0.7071067811865476 -0.7071067811865476 0
vn -0.7071067811865476 -0.7071067811865476 0
vn 0 0 1
vn 0 0 1
vn 0 0 1
vn 0 -0.7071067811865476 0.7071067811865476
vn 0 -0.7071067811865476 0.7071067811865476
vn 0 -0.7071067811865476 0.7071067811865476
vn 1 0 0
vn 1 0 0
vn 1 0 0
vn 0.7071067811865476 -0.7071067811865476 0
vn 0.7071067811865476 -0.7071067811865476 0
vn 0.7071067811865476 -0.7071067811865476 0
vn 1 0 0
vn 0 0 -1
vn -1 0 0
vn 0 0 1
vn 0 -1 0
vn 0 1 0
vn 0 -1 0
vn 0 1 0
vn 0 -1 0
vn 0 1 0
vn 0 -1 0
vn 0 1 0
vn 0 0.7071067811865476 -0.7071067811865476
vn 0 0.7071067811865476 -0.7071067811865476
vn 0 0.7071067811865476 -0.7071067811865476
vn 0 0.7071067811865476 -0.7071067811865476
vn 0 0.7071067811865476 -0.7071067811865476
vn 0 0.7071067811865476 -0.7071067811865476
vn 0 0 -1
vn 0 0 -1
vn 0 0 -1
vn 0 0 -1
vn 0 0 -1
vn 0 0 -1
vn 0 -1 0
vn 0 -1 0
vn 0 -1 0
vn 0 -1 0
vn 0 -1 0
vn 0 -1 0
vn 0 0.7071067811865476 0.7071067811865476
vn 0 0.7071067811865476 0.7071067811865476
vn 0 0.7071067811865476 0.7071067811865476
vn 0 0.7071067811865476 0.7071067811865476
vn 0 0.7071067811865476 0.7071067811865476
vn 0 0.7071067811865476 0.7071067811865476
vn 0 0 1
vn 0 0 1
vn 0 0 1
vn 0 0 1
vn 0 0 1
vn 0 0 1
vn 0 -1 0
vn 0 -1 0
vn 0 -1 0
vn 0 -1 0
vn 0 -1 0
vn 0 -1 0
vn 0 0.7071067811865476 -0.7071067811865476
vn 0 0.7071067811865476 -0.7071067811865476
vn 0 0.7071067811865476 -0.7071067811865476
vn 0 0.7071067811865476 -0.7071067811865476
vn 0 0.7071067811865476 -0.7071067811865476
vn 0 0.7071067811865476 -0.7071067811865476
vn 0 0.7071067811865476 -0.7071067811865476
vn 0 0.7071067811865476 -0.7071067811865476
vn 0 0.7071067811865476 -0.7071067811865476
vn 0 0.7071067811865476 -0.7071067811865476
vn 0 0.7071067811865476 -0.7071067811865476
vn 0 0.7071067811865476 -0.7071067811865476
vn 0 0.7071067811865476 0.7071067811865476
vn 0 0.7071067811865476 0.7071067811865476
vn 0 0.7071067811865476 0.7071067811865476
vn 0 0.7071067811865476 0.7071067811865476
vn 0 0.7071067811865476 0.7071067811865476
vn 0 0.7071067811865476 0.7071067811865476
vn 0 0.7071067811865476 0.7071067811865476
vn 0 0.7071067811865476 0.7071067811865476
vn 0 0.7071067811865476 0.7071067811865476
vn 0 0.7071067811865476 0.7071067811865476
vn 0 0.7071067811865476 0.7071067811865476
vn 0 0.7071067811865476 0.7071067811865476
vn 0 1 0
vn 0 1 0
vn 0 1 0
vn 0 1 0
vn 0 1 0
vn 0 1 0
vn 0 1 0
vn 0 1 0
vn 0 1 0
vn 0 1 0
vn 0 1 0
vn 0 1 0
vn 0 1 0
vn 0 1 0
vn 0 1 0
vn 0 1 0
vn 0 0 1
vn 0 -1 0
vn 0 0 -1
vn 0 0 -1
vn 0.7071067811865476 0.7071067811865476 0
vn 0 0 1
vn 1 0 0
vn 0 -1 0
vn -1 0 0
vn -1 0 0
vn 0 0.7071067811865476 -0.7071067811865476
vn 1 0 0
vn 0 0 -1
vn 0 -1 0
vn 0 0 1
vn -0.7071067811865476 0.7071067811865476 0
vn 0 0 -1
vn 0 0 1
vn -1 0 0
vn 0 -1 0
vn 1 0 0
vn 0 0.7071067811865476 0.7071067811865476
vn -1 0 0
vn 1 0 0
usemtl m_f3606f37-935f-fe1d-086d-9f549830ee87
f 1/1/1 2/2/1 3/3/1 4/4/1
f 5/5/2 6/6/2 7/7/2 8/8/2
f 9/9/3 10/10/3 11/11/3 12/12/3
f 13/13/4 14/14/4 15/15/4 6/16/4
f 16/17/5 17/18/5 18/19/5 19/20/5
f 42/21/6 43/22/6 31/23/6 30/24/6
f 44/25/7 42/26/7 30/27/7 21/28/7
f 45/29/8 44/30/8 21/31/8 20/32/8
f 46/33/9 45/34/9 20/35/9 2/36/9
f 47/37/10 46/38/10 2/39/10 1/40/10
f 43/41/11 47/42/11 1/43/11 31/44/11
f 48/45/12 49/46/12 35/47/12 34/48/12
f 50/49/13 48/50/13 34/51/13 29/52/13
f 51/53/14 50/54/14 29/55/14 28/56/14
f 52/57/15 53/58/15 1/59/15 4/60/15
f 49/61/16 52/62/16 4/63/16 35/64/16
f 53/65/17 51/66/17 28/67/17 1/68/17
f 54/69/18 55/70/18 27/71/18 26/72/18
f 56/73/19 54/74/19 26/75/19 33/76/19
f 57/77/20 56/78/20 33/79/20 32/80/20
f 58/81/21 59/82/21 4/83/21 3/84/21
f 55/85/22 58/86/22 3/87/22 27/88/22
f 59/89/23 57/90/23 32/91/23 4/92/23
f 60/93/24 61/94/24 23/95/24 22/96/24
f 62/97/25 60/98/25 22/99/25 25/100/25
f 63/101/26 62/102/26 25/103/26 24/104/26
f 64/105/27 63/106/27 24/107/27 3/108/27
f 65/109/28 64/110/28 3/111/28 2/112/28
f 61/113/29 65/114/29 2/115/29 23/116/29
f 7/117/30 66/118/30 67/119/30 8/120/30
f 68/121/31 69/122/31 16/123/31 19/124/31
f 12/125/32 71/126/32 72/127/32 9/128/32
f 37/129/33 75/130/33 76/131/33 77/132/33
f 82/133/34 83/134/34 69/135/34 68/136/34
f 81/137/35 84/138/35 21/139/35 30/140/35
f 79/141/36 85/142/36 72/143/36 71/144/36
f 86/145/37 80/146/37 29/147/37 34/148/37
f 77/149/38 76/150/38 89/151/38 90/152/38
f 91/153/39 88/154/39 33/155/39 26/156/39
f 92/157/40 94/158/40 67/159/40 66/160/40
f 95/161/41 93/162/41 25/163/41 22/164/41
f 41/165/42 96/166/42 97/167/42 98/168/42
f 98/169/43 97/170/43 99/171/43 100/172/43
f 100/173/44 99/174/44 101/175/44 102/176/44
f 102/177/45 101/178/45 103/179/45 104/180/45
f 104/181/46 103/182/46 105/183/46 106/184/46
f 106/185/47 105/186/47 17/187/47 16/188/47
f 41/189/48 98/190/48 107/191/48 70/192/48
f 98/193/49 100/194/49 108/195/49 107/196/49
f 100/197/50 102/198/50 109/199/50 108/200/50
f 102/201/51 104/202/51 110/203/51 109/204/51
f 104/205/52 106/206/52 111/207/52 110/208/52
f 106/209/53 16/210/53 69/211/53 111/212/53
f 70/213/54 107/214/54 112/215/54 78/216/54
f 107/217/55 108/218/55 113/219/55 112/220/55
f 108/221/56 109/222/56 114/223/56 113/224/56
f 109/225/57 110/226/57 115/227/57 114/228/57
f 110/229/58 111/230/58 116/231/58 115/232/58
f 111/233/59 69/234/59 83/235/59 116/236/59
f 10/237/60 117/238/60 118/239/60 119/240/60
f 119/241/61 118/242/61 120/243/61 121/244/61
f 121/245/62 120/246/62 122/247/62 123/248/62
f 123/249/63 122/250/63 124/251/63 125/252/63
f 125/253/64 124/254/64 126/255/64 127/256/64
f 127/257/65 126/258/65 14/259/65 13/260/65
f 73/261/66 128/262/66 129/263/66 74/264/66
f 128/265/67 130/266/67 131/267/67 129/268/67
f 130/269/68 132/270/68 133/271/68 131/272/68
f 132/273/69 134/274/69 135/275/69 133/276/69
f 134/277/70 136/278/70 137/279/70 135/280/70
f 136/281/71 76/282/71 75/283/71 137/284/71
f 87/285/72 138/286/72 128/287/72 73/288/72
f 138/289/73 139/290/73 130/291/73 128/292/73
f 139/293/74 140/294/74 132/295/74 130/296/74
f 140/297/75 141/298/75 134/299/75 132/300/75
f 141/301/76 142/302/76 136/303/76 134/304/76
f 142/305/77 89/306/77 76/307/77 136/308/77
f 143/309/78 144/310/78 145/311/78 146/312/78
f 146/313/79 145/314/79 147/315/79 148/316/79
f 145/317/80 105/318/80 103/319/80 147/320/80
f 148/321/81 147/322/81 149/323/81 150/324/81
f 147/325/82 103/326/82 101/327/82 149/328/82
f 150/329/83 149/330/83 151/331/83 152/332/83
f 149/333/84 101/334/84 99/335/84 151/336/84
f 152/337/85 151/338/85 153/339/85 154/340/85
f 154/341/86 153/342/86 40/343/86 11/344/86
f 153/345/87 97/346/87 96/347/87 40/348/87
f 5/349/88 39/350/88 144/351/88 143/352/88
f 39/353/89 18/354/89 17/355/89 144/356/89
f 129/357/90 155/358/90 38/359/90 74/360/90
f 155/361/91 118/362/91 117/363/91 38/364/91
f 131/365/92 156/366/92 155/367/92 129/368/92
f 133/369/93 157/370/93 156/371/93 131/372/93
f 157/373/94 122/374/94 120/375/94 156/376/94
f 135/377/95 158/378/95 157/379/95 133/380/95
f 158/381/96 124/382/96 122/383/96 157/384/96
f 137/385/97 159/386/97 158/387/97 135/388/97
f 159/389/98 126/390/98 124/391/98 158/392/98
f 75/393/99 160/394/99 159/395/99 137/396/99
f 37/397/100 36/398/100 160/399/100 75/400/100
f 36/401/101 15/402/101 14/403/101 160/404/101
f 161/405/102 162/406/102 10/407/102 119/408/102
f 163/409/103 164/410/103 154/411/103 11/412/103
f 162/413/104 163/414/104 11/415/104 10/416/104
f 165/417/105 166/418/105 5/419/105 143/420/105
f 167/421/106 168/422/106 13/423/106 6/424/106
f 166/425/107 167/426/107 6/427/107 5/428/107
f 168/429/108 169/430/108 127/431/108 13/432/108
f 170/433/109 165/434/109 143/435/109 146/436/109
f 169/437/110 171/438/110 125/439/110 127/440/110
f 172/441/111 170/442/111 146/443/111 148/444/111
f 171/445/112 173/446/112 123/447/112 125/448/112
f 174/449/113 172/450/113 148/451/113 150/452/113
f 173/453/114 175/454/114 121/455/114 123/456/114
f 176/457/115 174/458/115 150/459/115 152/460/115
f 175/461/116 161/462/116 119/463/116 121/464/116
f 164/465/117 176/466/117 152/467/117 154/468/117
f 193/469/118 180/470/118 194/471/118 195/472/118
f 196/473/119 193/474/119 195/475/119 197/476/119
f 177/477/120 196/478/120 197/479/120 198/480/120
f 178/481/121 177/482/121 198/483/121 199/484/121
f 179/485/122 178/486/122 199/487/122 200/488/122
f 180/489/123 179/490/123 200/491/123 194/492/123
f 201/493/124 192/494/124 202/495/124 203/496/124
f 204/497/125 201/498/125 203/499/125 205/500/125
f 189/501/126 204/502/126 205/503/126 206/504/126
f 190/505/127 189/506/127 206/507/127 207/508/127
f 191/509/128 190/510/128 207/511/128 208/512/128
f 192/513/129 191/514/129 208/515/129 202/516/129
f 209/517/130 183/518/130 210/519/130 211/520/130
f 212/521/131 209/522/131 211/523/131 213/524/131
f 184/525/132 212/526/132 213/527/132 214/528/132
f 182/529/133 181/530/133 215/531/133 216/532/133
f 183/533/134 182/534/134 216/535/134 210/536/134
f 181/537/135 184/538/135 214/539/135 215/540/135
f 217/541/136 187/542/136 218/543/136 219/544/136
f 220/545/137 217/546/137 219/547/137 221/548/137
f 188/549/138 220/550/138 221/551/138 222/552/138
f 186/553/139 185/554/139 223/555/139 224/556/139
f 187/557/140 186/558/140 224/559/140 218/560/140
f 185/561/141 188/562/141 222/563/141 223/564/141
o beveled_cuboid_selection
v 0.48214285714285693 1.6401632448055852 1.5151668410843255
v -0.48214285714285743 1.5151638441892077 1.6401662417007032
v -0.48214285714285743 1.6401632448055852 1.5151668410843255
v -0.8035714285714287 1.6401632448055852 1.5151668410843255
v -0.8035714285714287 1.5151638441892077 1.6401662417007032
v 0.8035714285714284 1.5151638441892077 1.6401662417007032
v 0.8035714285714284 1.6401632448055852 1.5151668410843255
v 0.48214285714285693 1.5151638441892077 1.6401662417007032
v -0.48214285714285743 1.507580723333107 1.3825843196118481
v -0.48214285714285743 1.3825813227167296 1.5075837202282258
v -0.48214285714285743 1.249998801244252 1.375001198755748
v -0.48214285714285743 1.3749982018606297 1.2500017981393703
v -0.8035714285714287 1.507580723333107 1.3825843196118481
v -0.8035714285714287 1.3749982018606297 1.2500017981393703
v -0.8035714285714287 1.3825813227167296 1.5075837202282258
v -0.8035714285714287 1.249998801244252 1.375001198755748
v 0.8035714285714284 1.507580723333107 1.3825843196118481
v 0.8035714285714284 1.3825813227167296 1.5075837202282258
v 0.8035714285714284 1.249998801244252 1.375001198755748
v 0.8035714285714284 1.3749982018606297 1.2500017981393703
v 0.48214285714285693 1.507580723333107 1.3825843196118481
v 0.48214285714285693 1.3749982018606297 1.2500017981393703
v 0.48214285714285693 1.3825813227167296 1.5075837202282258
v 0.48214285714285693 1.249998801244252 1.375001198755748
v -0.8035714285714287 2.0379108092230176 1.1174192766668913
v -0.48214285714285743 2.0379108092230176 1.1174192766668913
v -0.48214285714285743 1.9053282877505393 0.9848367551944139
v -0.8035714285714287 1.9053282877505393 0.9848367551944139
v 0.48214285714285693 2.0379108092230176 1.1174192766668913
v 0.8035714285714284 2.0379108092230176 1.1174192766668913
v 0.8035714285714284 1.9053282877505393 0.9848367551944139
v 0.48214285714285693 1.9053282877505393 0.9848367551944139
v 0.8035714285714284 1.90532828775054 1.2500017981393694
v 0.48214285714285693 1.90532828775054 1.2500017981393694
v 0.8035714285714284 1.772745766278062 1.117419276666892
v 0.48214285714285693 1.772745766278062 1.117419276666892
v -0.48214285714285743 1.90532828775054 1.2500017981393694
v -0.8035714285714287 1.90532828775054 1.2500017981393694
v -0.48214285714285743 1.772745766278062 1.117419276666892
v -0.8035714285714287 1.772745766278062 1.117419276666892
v -0.502232142857143 2.0379108092230176 1.1174192766668913
v -0.502232142857143 1.9053282877505393 0.9848367551944139
v -0.502232142857143 1.772745766278062 1.117419276666892
v -0.502232142857143 1.90532828775054 1.2500017981393694
v 0.8035714285714284 1.6401662417007032 -1.5151638441892072
v 0.8035714285714284 1.5151668410843258 -1.6401632448055852
v 0.48214285714285693 1.5151668410843258 -1.6401632448055852
v 0.48214285714285693 1.6401662417007032 -1.5151638441892072
v -0.48214285714285743 1.6401662417007032 -1.5151638441892072
v -0.48214285714285743 1.5151668410843258 -1.6401632448055852
v -0.8035714285714287 1.5151668410843258 -1.6401632448055852
v -0.8035714285714287 1.6401662417007032 -1.5151638441892072
v 0.8035714285714284 1.3825843196118481 -1.5075807233331076
v 0.8035714285714284 1.5075837202282258 -1.3825813227167296
v 0.8035714285714284 1.375001198755748 -1.249998801244252
v 0.8035714285714284 1.2500017981393703 -1.3749982018606297
v 0.48214285714285693 1.3825843196118481 -1.5075807233331076
v 0.48214285714285693 1.2500017981393703 -1.3749982018606297
v 0.48214285714285693 1.5075837202282258 -1.3825813227167296
v 0.48214285714285693 1.375001198755748 -1.249998801244252
v -0.48214285714285743 1.3825843196118481 -1.5075807233331076
v -0.48214285714285743 1.5075837202282258 -1.3825813227167296
v -0.48214285714285743 1.375001198755748 -1.249998801244252
v -0.48214285714285743 1.2500017981393703 -1.3749982018606297
v -0.8035714285714287 1.3825843196118481 -1.5075807233331076
v -0.8035714285714287 1.2500017981393703 -1.3749982018606297
v -0.8035714285714287 1.5075837202282258 -1.3825813227167296
v -0.8035714285714287 1.375001198755748 -1.249998801244252
v 0.8035714285714284 2.0379138061181368 -1.1174162797717748
v 0.48214285714285693 2.0379138061181368 -1.1174162797717748
v 0.48214285714285693 1.9053312846456594 -0.9848337582992971
v 0.8035714285714284 1.9053312846456594 -0.9848337582992971
v -0.48214285714285743 2.0379138061181368 -1.1174162797717748
v -0.8035714285714287 2.0379138061181368 -1.1174162797717748
v -0.8035714285714287 1.9053312846456594 -0.9848337582992971
v -0.48214285714285743 1.9053312846456594 -0.9848337582992971
v 0.48214285714285693 1.9053312846456587 -1.2499988012442524
v 0.8035714285714284 1.9053312846456587 -1.2499988012442524
v 0.48214285714285693 1.7727487631731813 -1.1174162797717746
v 0.8035714285714284 1.7727487631731813 -1.1174162797717746
v -0.8035714285714287 1.9053312846456587 -1.2499988012442524
v -0.48214285714285743 1.9053312846456587 -1.2499988012442524
v -0.8035714285714287 1.7727487631731813 -1.1174162797717746
v -0.48214285714285743 1.7727487631731813 -1.1174162797717746
v 0.5022321428571426 2.0379138061181368 -1.1174162797717748
v 0.5022321428571426 1.9053312846456594 -0.9848337582992971
v 0.5022321428571426 1.7727487631731813 -1.1174162797717746
v 0.5022321428571426 1.9053312846456587 -1.2499988012442524
v 1.339958739263761 -1.058708739263761 0.5625
v 1.0861674785275222 -1.2736674785275222 0.5625
v 1.0861674785275222 -1.2736674785275222 -0.5625
v 1.339958739263761 -1.058708739263761 -0.5625
v -1.0861674785275222 -1.2736674785275222 -0.5625
v -1.0861674785275222 -1.2736674785275222 0.5625
v -1.339958739263761 -1.058708739263761 0.5625
v -1.339958739263761 -1.058708739263761 -0.5625
v -0.5625 -1.2736674785275222 1.0861674785275222
v 0.5625 -1.2736674785275222 1.0861674785275222
v 0.5625 -1.058708739263761 1.339958739263761
v -0.5625 -1.058708739263761 1.339958739263761
v 0.5625 -1.058708739263761 -1.339958739263761
v 0.5625 -1.2736674785275222 -1.0861674785275222
v -0.5625 -1.2736674785275222 -1.0861674785275222
v -0.5625 -1.058708739263761 -1.339958739263761
v 1.3125 0.28125 -0.5625
v 1.3125 0.28125 0.5625
v -0.5625 0.28125 -1.3125
v 0.5625 0.28125 -1.3125
v -1.3125 0.28125 0.5625
v -1.3125 0.28125 -0.5625
v 0.5625 0.28125 1.3125
v -0.5625 0.28125 1.3125
v -1.3193646848159404 -0.053739684815940325 0.28125
v -1.333094054447821 -0.3955940544478208 0.28125
v -1.3193646848159404 -0.053739684815940325 -0.28125
v -1.333094054447821 -0.3955940544478208 -0.28125
v 0.28125 -0.053739684815940325 1.3193646848159404
v 0.28125 -0.3955940544478208 1.333094054447821
v -0.28125 -0.053739684815940325 1.3193646848159404
v -0.28125 -0.3955940544478208 1.333094054447821
v 1.3193646848159404 -0.053739684815940325 -0.28125
v 1.333094054447821 -0.3955940544478208 -0.28125
v 1.3193646848159404 -0.053739684815940325 0.28125
v 1.333094054447821 -0.3955940544478208 0.28125
v -0.28125 -0.053739684815940325 -1.3193646848159404
v -0.28125 -0.3955940544478208 -1.333094054447821
v 0.28125 -0.053739684815940325 -1.3193646848159404
v 0.28125 -0.3955940544478208 -1.333094054447821
v 1.0446428571428572 1.5 -0.5625
v 0.8035714285714284 1.5 -0.5625
v 0.8035714285714284 1.5 0.5625
v 1.0446428571428572 1.5 0.5625
v -1.0446428571428572 1.5 0.5625
v -0.8035714285714287 1.5 0.5625
v -0.8035714285714287 1.5 -0.5625
v -1.0446428571428572 1.5 -0.5625
v -0.8035714285714287 1.59375 0.5625
v -0.48214285714285743 1.59375 0.5625
v -0.48214285714285743 1.59375 -0.5625
v -0.8035714285714287 1.59375 -0.5625
v -0.48214285714285743 1.5 0.5625
v -0.16071428571428598 1.5 0.5625
v -0.16071428571428598 1.5 -0.5625
v -0.48214285714285743 1.5 -0.5625
v -0.16071428571428598 1.59375 0.5625
v 0.16071428571428548 1.59375 0.5625
v 0.16071428571428548 1.59375 -0.5625
v -0.16071428571428598 1.59375 -0.5625
v 0.16071428571428548 1.5 0.5625
v 0.48214285714285693 1.5 0.5625
v 0.48214285714285693 1.5 -0.5625
v 0.16071428571428548 1.5 -0.5625
v 0.48214285714285693 1.59375 0.5625
v 0.8035714285714284 1.59375 0.5625
v 0.8035714285714284 1.59375 -0.5625
v 0.48214285714285693 1.59375 -0.5625
v -1.125 -1.5 -1.125
v 1.125 -1.5 -1.125
v 1.125 -1.5 1.125
v -1.125 -1.5 1.125
v 1.125 1.5 -1.125
v 1.125 1.5 1.125
v 1.5 1.125 1.125
v 1.5 1.125 -1.125
v -1.5 1.125 1.125
v -1.125 1.5 1.125
v -1.125 1.5 -1.125
v -1.5 1.125 -1.125
v 1.125 1.125 -1.5
v 1.125 -1.125 -1.5
v 1.125 0.75 -1.5
v 1.5 0.75 -1.125
v 1.5 -1.125 -1.125
v 1.5 -1.125 1.125
v 1.5 0.75 1.125
v 1.125 0.75 1.5
v 1.125 -1.125 1.5
v -1.5 -1.125 -1.125
v -1.5 0.75 -1.125
v -1.125 0.75 -1.5
v -1.125 -1.125 -1.5
v -1.125 -1.125 1.5
v -1.125 0.75 1.5
v -1.5 0.75 1.125
v -1.5 -1.125 1.125
v 1.125 1.249998801244252 1.375001198755748
v 1.125 1.125 1.5
v -1.125 1.249998801244252 1.375001198755748
v 1.125 1.375001198755748 -1.249998801244252
v -1.125 1.375001198755748 -1.249998801244252
v -1.125 1.125 -1.5
v 1.5 0.84375 1.125
v 1.5 0.84375 -1.125
v 1.125 0.84375 -1.5
v -1.125 0.84375 -1.5
v -1.5 0.84375 -1.125
v -1.5 0.84375 1.125
v -1.125 0.84375 1.5
v -1.125 1.125 1.5
v 1.125 0.84375 1.5
v -1.0918543696318808 0.84375 -1.4199793696318808
v -1.4199793696318808 0.84375 -1.0918543696318808
v -1.4199793696318808 0.75 -1.0918543696318808
v -1.0918543696318808 0.75 -1.4199793696318808
v 1.0918543696318808 0.84375 -1.4199793696318808
v 1.0918543696318808 0.75 -1.4199793696318808
v -1.4199793696318808 0.84375 1.0918543696318808
v -1.4199793696318808 0.75 1.0918543696318808
v -1.0918543696318808 0.84375 1.4199793696318808
v -1.0918543696318808 0.75 1.4199793696318808
v 1.0918543696318808 0.84375 1.4199793696318808
v 1.0918543696318808 0.75 1.4199793696318808
v 1.4199793696318808 0.84375 1.0918543696318808
v 1.4199793696318808 0.75 1.0918543696318808
v 1.4199793696318808 0.84375 -1.0918543696318808
v 1.4199793696318808 0.75 -1.0918543696318808
vt 0.2142857142857142 0.8821452682198944
vt 0.2142857142857142 0.9410720689937986
vt 0.1071428571428571 0.9410720689937986
vt 0.1071428571428571 0.8821452682198944
vt 0.6428571428571428 0.8821452682198944
vt 0.6428571428571428 0.9410720689937986
vt 0.5357142857142856 0.9410720689937986
vt 0.5357142857142856 0.8821452682198944
vt 0.12141967254236635 1
vt 0.062499999999997224 0.9999999999999998
vt 0.062499999999997335 0.937500599377874
vt 0.12141967254236641 0.937500599377874
vt 0.16964374999999754 1
vt 0.06249999999999753 1
vt 0.06249999999999753 0.9375
vt 0.16964374999999754 0.9375
vt 0.12499940062212556 0.9410803274576309
vt 0.12499940062212556 1
vt 0.062499999999999556 1
vt 0.062499999999999556 0.9410803274576309
vt 0.16964375000000123 1
vt 0.06250000000000122 1
vt 0.06250000000000122 0.9375
vt 0.16964375000000123 0.9375
vt 0.30891967254236635 1
vt 0.24999999999999722 0.9999999999999998
vt 0.24999999999999734 0.937500599377874
vt 0.3089196725423664 0.937500599377874
vt 0.3571437500000012 1
vt 0.2500000000000012 1
vt 0.2500000000000012 0.9375
vt 0.3571437500000012 0.9375
vt 0.31249940062212556 0.9410803274576309
vt 0.31249940062212556 1
vt 0.24999999999999956 1
vt 0.24999999999999956 0.9410803274576309
vt 0.35714374999999754 1
vt 0.24999999999999753 1
vt 0.24999999999999753 0.9375
vt 0.35714374999999754 0.9375
vt 0.12142409149997752 0.999991414274783
vt 0.06249999999999917 0.9999999999999967
vt 0.06249999999999922 0.9374961798042478
vt 0.12141967239508722 0.9374920138088865
vt 0.16964374999999754 1
vt 0.06249999999999753 1
vt 0.06249999999999753 0.9375
vt 0.16964374999999754 0.9375
vt 0.12500382003951005 0.9410759080402457
vt 0.12499940062212733 0.9999999999999971
vt 0.06250000000000155 0.9999999999999971
vt 0.06250000000000178 0.941080327457628
vt 0.16964375000000123 1
vt 0.06250000000000122 1
vt 0.06250000000000122 0.9375
vt 0.16964375000000123 0.9375
vt 0.3089240914999775 0.999991414274783
vt 0.24999999999999917 0.9999999999999967
vt 0.24999999999999922 0.9374961798042478
vt 0.3089196723950872 0.9374920138088865
vt 0.3571437500000012 1
vt 0.2500000000000012 1
vt 0.2500000000000012 0.9375
vt 0.3571437500000012 0.9375
vt 0.31250382003951005 0.9410759080402457
vt 0.31249940062212733 0.9999999999999971
vt 0.25000000000000155 0.9999999999999971
vt 0.2500000000000018 0.941080327457628
vt 0.35714374999999754 1
vt 0.24999999999999753 1
vt 0.24999999999999753 0.9375
vt 0.35714374999999754 0.9375
vt 0.23214374999999754 1
vt 0.12499999999999753 1
vt 0.12499999999999753 0.875
vt 0.23214374999999754 0.875
vt 0.18750322003668662 0.9374961798042512
vt 0.1875032200366865 1
vt 0.06250000000000294 0.9999867420603665
vt 0.06250441910489352 0.9374873415944702
vt 0.23214375000000123 1
vt 0.12500000000000122 1
vt 0.12500000000000122 0.875
vt 0.23214375000000123 0.875
vt 0.2500038200395096 1
vt 0.18750000000000133 0.9999955805826173
vt 0.18750000000000155 0.8749967793383655
vt 0.24999940062212733 0.8749967793383655
vt 0.10714375000000123 1
vt 1.2212453270876722e-15 1
vt 1.2212453270876722e-15 0.875
vt 0.10714375000000123 0.875
vt 0.12500322003668368 0.9374961798042512
vt 0.12500322003668357 1
vt 0 0.9999867420603665
vt 0.000004419104890573955 0.9374873415944702
vt 0.16964374999999754 1
vt 0.06249999999999753 1
vt 0.06249999999999753 0.875
vt 0.16964374999999754 0.875
vt 0.1250038200395096 1
vt 0.06250000000000133 0.9999955805826173
vt 0.06250000000000155 0.8749967793383655
vt 0.12499940062212733 0.8749967793383655
vt 0.23214374999999754 1
vt 0.12499999999999753 1
vt 0.12499999999999753 0.9375
vt 0.23214374999999754 0.9375
vt 0.1250038200395085 0.9375005993778742
vt 0.1250038200395085 1
vt 0.0625044194173825 1
vt 0.0625 0.9374961799604917
vt 0.23214375000000123 1
vt 0.12500000000000122 1
vt 0.12500000000000122 0.9375
vt 0.23214375000000123 0.9375
vt 0.24999940046589608 1
vt 0.18749999999999956 0.9999955808951095
vt 0.18749999999999956 0.9374917606993607
vt 0.25000381957078677 0.9375005995341035
vt 0.10714375000000123 1
vt 1.2212453270876722e-15 1
vt 1.2212453270876722e-15 0.9375
vt 0.10714375000000123 0.9375
vt 0.0625038200395085 0.9375005993778742
vt 0.0625038200395085 1
vt 0.000004419417382495183 1
vt 0 0.9374961799604917
vt 0.16964374999999754 1
vt 0.06249999999999753 1
vt 0.06249999999999753 0.9375
vt 0.16964374999999754 0.9375
vt 0.12499940046589608 1
vt 0.062499999999999556 0.9999955808951095
vt 0.062499999999999556 0.9374917606993607
vt 0.12500381957078677 0.9375005995341035
vt 0.328125 0.9375
vt 0.328125 1
vt 0 1
vt 0 0.9375
vt 0.328125 0.9375
vt 0.328125 1
vt 0 1
vt 0 0.9375
vt 0 1
vt 0 0.9375
vt 0.328125 0.9375
vt 0.328125 1
vt 0 1
vt 0 0.9375
vt 0.328125 0.9375
vt 0.328125 1
vt 0.10714285714285718 0.9410734817801056
vt 0.10714285714285718 0.8821466810062014
vt 0.21428571428571436 0.8821466810062014
vt 0.21428571428571436 0.9410734817801056
vt 0.5357142857142858 0.9410734817801056
vt 0.5357142857142858 0.8821466810062014
vt 0.6428571428571429 0.8821466810062014
vt 0.6428571428571429 0.9410734817801056
vt 0.12499940062212556 0.9410803274576309
vt 0.12499940062212556 1
vt 0.062499999999999556 1
vt 0.062499999999999556 0.9410803274576309
vt 0.16964375000000123 1
vt 0.06250000000000122 1
vt 0.06250000000000122 0.9375
vt 0.16964375000000123 0.9375
vt 0.12141967254236635 1
vt 0.062499999999997224 0.9999999999999998
vt 0.062499999999997335 0.937500599377874
vt 0.12141967254236641 0.937500599377874
vt 0.16964374999999754 1
vt 0.06249999999999753 1
vt 0.06249999999999753 0.9375
vt 0.16964374999999754 0.9375
vt 0.31249940062212556 0.9410803274576309
vt 0.31249940062212556 1
vt 0.24999999999999956 1
vt 0.24999999999999956 0.9410803274576309
vt 0.35714374999999754 1
vt 0.24999999999999753 1
vt 0.24999999999999753 0.9375
vt 0.35714374999999754 0.9375
vt 0.30891967254236635 1
vt 0.24999999999999722 0.9999999999999998
vt 0.24999999999999734 0.937500599377874
vt 0.3089196725423664 0.937500599377874
vt 0.3571437500000012 1
vt 0.2500000000000012 1
vt 0.2500000000000012 0.9375
vt 0.3571437500000012 0.9375
vt 0.12500381953224293 0.9410759078745152
vt 0.12500381953224293 0.999999999999999
vt 0.06250000000000022 0.9999908926789418
vt 0.06250441908590543 0.9410712203022925
vt 0.16964375000000123 1
vt 0.06250000000000122 1
vt 0.06250000000000122 0.9375
vt 0.16964375000000123 0.9375
vt 0.12142877969770799 0.9999999999999969
vt 0.06250468757222422 0.9999999999999969
vt 0.0625000000000015 0.9375005995536592
vt 0.12141967237665074 0.937496180467754
vt 0.16964374999999754 1
vt 0.06249999999999753 1
vt 0.06249999999999753 0.9375
vt 0.16964374999999754 0.9375
vt 0.31250381953224293 0.9410759078745152
vt 0.31250381953224293 0.999999999999999
vt 0.2500000000000002 0.9999908926789418
vt 0.2500044190859054 0.9410712203022925
vt 0.35714374999999754 1
vt 0.24999999999999753 1
vt 0.24999999999999753 0.9375
vt 0.35714374999999754 0.9375
vt 0.308928779697708 0.9999999999999969
vt 0.2500046875722242 0.9999999999999969
vt 0.2500000000000015 0.9375005995536592
vt 0.30891967237665074 0.937496180467754
vt 0.3571437500000012 1
vt 0.2500000000000012 1
vt 0.2500000000000012 0.9375
vt 0.3571437500000012 0.9375
vt 0.10714375000000123 1
vt 1.2212453270876722e-15 1
vt 1.2212453270876722e-15 0.875
vt 0.10714375000000123 0.875
vt 0.12500322066163427 0.937500599377874
vt 0.12500322066163427 1
vt 0.000004419417382273139 0.9999999999999998
vt 0 0.9374961799604915
vt 0.16964374999999754 1
vt 0.06249999999999753 1
vt 0.06249999999999753 0.875
vt 0.16964374999999754 0.875
vt 0.1249994005830628 1
vt 0.06249999999999689 0.9999977903694333
vt 0.06249999999999689 0.8749945696296759
vt 0.12500381984419628 0.8750011988338683
vt 0.23214374999999754 1
vt 0.12499999999999753 1
vt 0.12499999999999753 0.875
vt 0.23214374999999754 0.875
vt 0.18750322066163538 0.937500599377874
vt 0.18750322066163538 1
vt 0.06250441941738338 0.9999999999999998
vt 0.06250000000000111 0.9374961799604915
vt 0.23214375000000123 1
vt 0.12500000000000122 1
vt 0.12500000000000122 0.875
vt 0.23214375000000123 0.875
vt 0.2499994005830628 1
vt 0.1874999999999969 0.9999977903694333
vt 0.1874999999999969 0.8749945696296759
vt 0.2500038198441963 0.8750011988338683
vt 0.10714375000000123 1
vt 1.2212453270876722e-15 1
vt 1.2212453270876722e-15 0.9375
vt 0.10714375000000123 0.9375
vt 0.06250381957078799 0.9374917606993607
vt 0.06250381957078788 0.9999955808951098
vt 0.000004419104891351111 1
vt 8.881784197001252e-16 0.9375005995341035
vt 0.16964374999999754 1
vt 0.06249999999999753 1
vt 0.06249999999999753 0.9375
vt 0.16964374999999754 0.9375
vt 0.12500382019575174 1
vt 0.06250000000000289 1
vt 0.06250883883474567 0.937496180429213
vt 0.1250082393006422 0.9375005995341035
vt 0.23214374999999754 1
vt 0.12499999999999753 1
vt 0.12499999999999753 0.9375
vt 0.23214374999999754 0.9375
vt 0.125003819570788 0.9374917606993607
vt 0.12500381957078788 0.9999955808951098
vt 0.06250441910489135 1
vt 0.06250000000000089 0.9375005995341035
vt 0.23214375000000123 1
vt 0.12500000000000122 1
vt 0.12500000000000122 0.9375
vt 0.23214375000000123 0.9375
vt 0.25000382019575174 1
vt 0.1875000000000029 1
vt 0.18750883883474567 0.937496180429213
vt 0.2500082393006422 0.9375005995341035
vt 0.328125 0.9375
vt 0.328125 1
vt 0 1
vt 0 0.9375
vt 0.328125 0.9375
vt 0.328125 1
vt 0 1
vt 0 0.9375
vt 0 1
vt 0 0.9375
vt 0.328125 0.9375
vt 0.328125 1
vt 0 1
vt 0 0.9375
vt 0.328125 0.9375
vt 0.328125 1
vt 0.1875 1
vt 0.1875 0.8674124999999999
vt 0.5625 0.8674124999999999
vt 0.5625 1
vt 0.1875 0.8674124999999999
vt 0.5625 0.8674124999999999
vt 0.5625 1
vt 0.1875 1
vt 0.1875 0.8674124999999999
vt 0.5625 0.8674124999999999
vt 0.5625 1
vt 0.1875 1
vt 0.1875 1
vt 0.1875 0.8674124999999999
vt 0.5625 0.8674124999999999
vt 0.5625 1
vt 0.5625 0.5758124999999996
vt 0.5625 0.35243749999999974
vt 0.65625 0.2407499999999997
vt 0.65625 0.6874999999999997
vt 0.28125 0.7008124999999996
vt 0.46875 0.7008124999999996
vt 0.5625 0.8124999999999997
vt 0.1875 0.8124999999999997
vt 0.21875 0.35243749999999974
vt 0.21875 0.5758124999999996
vt 0.125 0.6874999999999997
vt 0.125 0.2407499999999997
vt 0.46875 0.3124999999999991
vt 0.28125 0.3124999999999991
vt 0.1875 0.20081249999999906
vt 0.5625 0.20081249999999906
vt 0.5625 0.5758124999999996
vt 0.5625 0.35243749999999974
vt 0.65625 0.2407499999999997
vt 0.65625 0.6874999999999997
vt 0.28125 0.7008124999999996
vt 0.46875 0.7008124999999996
vt 0.5625 0.8124999999999997
vt 0.1875 0.8124999999999997
vt 0.21875 0.35243749999999974
vt 0.21875 0.5758124999999996
vt 0.125 0.6874999999999997
vt 0.125 0.2407499999999997
vt 0.46875 0.3124999999999991
vt 0.28125 0.3124999999999991
vt 0.1875 0.20081249999999906
vt 0.5625 0.20081249999999906
vt 0.5625 0.5758124999999996
vt 0.5625 0.35243749999999974
vt 0.65625 0.2407499999999997
vt 0.65625 0.6874999999999997
vt 0.28125 0.7008124999999996
vt 0.46875 0.7008124999999996
vt 0.5625 0.8124999999999997
vt 0.1875 0.8124999999999997
vt 0.21875 0.35243749999999974
vt 0.21875 0.5758124999999996
vt 0.125 0.6874999999999997
vt 0.125 0.2407499999999997
vt 0.46875 0.3124999999999991
vt 0.28125 0.3124999999999991
vt 0.1875 0.20081249999999906
vt 0.5625 0.20081249999999906
vt 0.5625 0.5758124999999996
vt 0.5625 0.35243749999999974
vt 0.65625 0.2407499999999997
vt 0.65625 0.6874999999999997
vt 0.28125 0.7008124999999996
vt 0.46875 0.7008124999999996
vt 0.5625 0.8124999999999997
vt 0.1875 0.8124999999999997
vt 0.21875 0.35243749999999974
vt 0.21875 0.5758124999999996
vt 0.125 0.6874999999999997
vt 0.125 0.2407499999999997
vt 0.46875 0.3124999999999991
vt 0.28125 0.3124999999999991
vt 0.1875 0.20081249999999906
vt 0.5625 0.20081249999999906
vt 0.7053562499999988 0.8125
vt 0.6249999999999988 0.8125
vt 0.6249999999999988 0.4375
vt 0.7053562499999988 0.4375
vt 2.4980018054066022e-15 0.4375
vt 0.08035625000000246 0.4375
vt 0.08035625000000246 0.8125
vt 2.4980018054066022e-15 0.8125
vt 0.12500000000000122 0.4375
vt 0.23214375000000123 0.4375
vt 0.23214375000000123 0.8125
vt 0.12500000000000122 0.8125
vt 0.18750000000000247 0.4375
vt 0.2946437500000025 0.4375
vt 0.2946437500000025 0.8125
vt 0.18750000000000247 0.8125
vt 0.3124999999999966 0.4375
vt 0.4196374999999966 0.4375
vt 0.4196374999999966 0.8125
vt 0.3124999999999966 0.8125
vt 0.4375000000000034 0.4375
vt 0.5446437500000034 0.4375
vt 0.5446437500000034 0.8125
vt 0.4375000000000034 0.8125
vt 0.5624999999999976 0.4375
vt 0.6696437499999975 0.4375
vt 0.6696437499999975 0.8125
vt 0.5624999999999976 0.8125
vt 0.16964375000000123 0.6875
vt 0.06250000000000122 0.6875
vt 0.06250000000000122 0.65625
vt 0.16964375000000123 0.65625
vt 0.375 0.8125
vt 0 0.8125
vt 0 0.78125
vt 0.375 0.78125
vt 0.16964374999999754 0.875
vt 0.06249999999999753 0.875
vt 0.06249999999999753 0.84375
vt 0.16964374999999754 0.84375
vt 0.375 0.8125
vt 0 0.8125
vt 0 0.78125
vt 0.375 0.78125
vt 0.41964374999999754 0.6875
vt 0.31249999999999756 0.6875
vt 0.31249999999999756 0.65625
vt 0.41964374999999754 0.65625
vt 0.5 0.8125
vt 0.125 0.8125
vt 0.125 0.78125
vt 0.5 0.78125
vt 0.3571437500000012 0.875
vt 0.2500000000000012 0.875
vt 0.2500000000000012 0.84375
vt 0.3571437500000012 0.84375
vt 0.4375 0.8125
vt 0.0625 0.8125
vt 0.0625 0.78125
vt 0.4375 0.78125
vt 0.2321374999999966 0.6875
vt 0.12499999999999661 0.6875
vt 0.12499999999999661 0.65625
vt 0.2321374999999966 0.65625
vt 0.375 0.8125
vt 0 0.8125
vt 0 0.78125
vt 0.375 0.78125
vt 0.2321374999999966 0.875
vt 0.12499999999999661 0.875
vt 0.12499999999999661 0.84375
vt 0.2321374999999966 0.84375
vt 0.375 0.8125
vt 0 0.8125
vt 0 0.78125
vt 0.375 0.78125
vt 0.176775 0.25
vt 0.176775 0.875
vt 0 0.875
vt 0 0.25
vt 0.176775 0.25
vt 0.176775 0.875
vt 0 0.875
vt 0 0.25
vt 0.176775 0.25
vt 0.176775 0.875
vt 0 0.875
vt 0 0.25
vt 0.176775 0.25
vt 0.176775 0.875
vt 0 0.875
vt 0 0.25
vt 0.0883875 0.84690625
vt 0.176775 1
vt 0 1
vt 0.0883875 0.84690625
vt 0.176775 1
vt 0 1
vt 0.0883875 0.84690625
vt 0.176775 1
vt 0 1
vt 0.0883875 0.84690625
vt 0.176775 1
vt 0 1
vt 0.176775 0.84690625
vt 0.058925282546729824 0.9489692393920341
vt 0 0.84690625
vt 0 0.84690625
vt 0.1473127825467298 0.8979370106079658
vt 0.0883875 1
vt 0.11784971745327016 0.9489692393920341
vt 0 0.84690625
vt 0.176775 0.84690625
vt 0.176775 0.84690625
vt 0.058925282546729824 0.9489692393920341
vt 0 0.84690625
vt 0 1
vt 0 0.90625
vt 0.176775 0.90625
vt 0.176775 1
vt 0 1
vt 0 0.90625
vt 0.176775 0.90625
vt 0.176775 1
vt 0 1
vt 0 0.90625
vt 0.176775 0.90625
vt 0.176775 1
vt 0 1
vt 0 0.90625
vt 0.176775 0.90625
vt 0.176775 1
vt 0.02667560332026253 0.8342718481594021
vt 0.02667560332026253 0.9889514565439594
vt 0 0.9999999999999992
vt 0 0.8232233047033624
vt 0.01104854345604045 0.9108243966797396
vt 0.16572815184059775 0.9108243966797396
vt 0.17677669529663753 0.9375000000000021
vt 6.661338147750939e-16 0.9375000000000021
vt 0.01104854345604045 0.9733243966797375
vt 0.16572815184059775 0.9733243966797375
vt 0.17677669529663753 1
vt 6.661338147750939e-16 1
vt 0.02667560332026253 0.8342718481594021
vt 0.02667560332026253 0.9889514565439594
vt 0 0.9999999999999992
vt 0 0.8232233047033624
vt 3.552713678800501e-15 0.9889514565439596
vt 3.552713678800501e-15 0.8342718481594023
vt 0.026675603320266084 0.8232233047033625
vt 0.026675603320266084 0.9999999999999993
vt 0.16572815184059786 0.9999999999999964
vt 0.01104854345604056 0.9999999999999964
vt 7.771561172376096e-16 0.9733243966797339
vt 0.17677669529663764 0.9733243966797339
vt 0.16572815184059786 0.9999999999999964
vt 0.01104854345604056 0.9999999999999964
vt 7.771561172376096e-16 0.9733243966797339
vt 0.17677669529663764 0.9733243966797339
vt 3.552713678800501e-15 0.9889514565439596
vt 3.552713678800501e-15 0.8342718481594023
vt 0.026675603320266084 0.8232233047033625
vt 0.026675603320266084 0.9999999999999993
vt 0.0883875 1
vt 0.058925282546729824 0.9489692393920341
vt 0.176775 0.84690625
vt 0.11784971745327016 0.9489692393920341
vt 0.0883875 1
vt 0 0.84690625
vt 0.176775 0.84690625
vt 0.1473127825467298 0.8979370106079658
vt 0 0.84690625
vt 0.0883875 1
vt 0.058925282546729824 0.9489692393920341
vt 0.176775 0.84690625
vn 0 0.7071067811865481 0.7071067811865469
vn 0 0.7071067811865481 0.7071067811865469
vn 1 0 0
vn 0 0.7071067811865488 -0.7071067811865464
vn -1 0 0
vn 0 -0.7071067811865481 0.7071067811865469
vn 1 0 0
vn 0 0.7071067811865487 -0.7071067811865464
vn -1 0 0
vn 0 -0.7071067811865481 0.7071067811865469
vn 1 0 0
vn 0 0.7071067811865451 -0.7071067811865499
vn -1 0 0
vn 0 -0.7071067811865458 0.7071067811865493
vn 1 0 0
vn 0 0.7071067811865451 -0.7071067811865499
vn -1 0 0
vn 0 -0.7071067811865458 0.7071067811865493
vn 0 0.7071067811865493 0.7071067811865458
vn 1 0 0
vn 0 -0.7071067811865493 -0.7071067811865458
vn -1 0 0
vn 0 0.7071067811865493 0.7071067811865458
vn 1 0 0
vn 0 -0.7071067811865493 -0.7071067811865458
vn -1 0 0
vn 0 0.7071067811865488 0.7071067811865464
vn 1 0 0
vn 0 -0.7071067811865493 -0.7071067811865458
vn -1 0 0
vn 0 0.7071067811865487 0.7071067811865464
vn 1 0 0
vn 0 -0.7071067811865493 -0.7071067811865458
vn -1 0 0
vn 0 0.7071067811865452 -0.7071067811865499
vn 0 -0.7071067811865493 -0.7071067811865458
vn 0 -0.7071067811865458 0.7071067811865493
vn 0 0.7071067811865487 0.7071067811865465
vn 0 0.7071067811865488 -0.7071067811865464
vn 0 0.7071067811865488 -0.7071067811865464
vn 1 0 0
vn 0 -0.7071067811865476 -0.7071067811865476
vn -1 0 0
vn 0 0.7071067811865469 0.7071067811865481
vn 1 0 0
vn 0 -0.7071067811865476 -0.7071067811865476
vn -1 0 0
vn 0 0.7071067811865469 0.7071067811865481
vn 1 0 0
vn 0 -0.7071067811865476 -0.7071067811865476
vn -1 0 0
vn 0 0.7071067811865485 0.7071067811865467
vn 1 0 0
vn 0 -0.7071067811865476 -0.7071067811865476
vn -1 0 0
vn 0 0.7071067811865485 0.7071067811865467
vn 0 0.7071067811865467 -0.7071067811865485
vn -1 0 0
vn 0 -0.7071067811865469 0.7071067811865481
vn 1 0 0
vn 0 0.7071067811865467 -0.7071067811865485
vn -1 0 0
vn 0 -0.7071067811865469 0.7071067811865481
vn 1 0 0
vn 0 0.7071067811865464 -0.7071067811865488
vn -1 0 0
vn 0 -0.707106781186546 0.707106781186549
vn 1 0 0
vn 0 0.7071067811865464 -0.7071067811865487
vn -1 0 0
vn 0 -0.707106781186546 0.707106781186549
vn 1 0 0
vn 0 0.7071067811865485 0.7071067811865467
vn 0 -0.7071067811865461 0.707106781186549
vn 0 -0.7071067811865488 -0.7071067811865465
vn 0 0.7071067811865465 -0.7071067811865487
vn 0.6463141300923911 -0.7630714548736023 0
vn -0.6463141300923911 -0.7630714548736023 0
vn 0 -0.7630714548736023 0.6463141300923911
vn 0 -0.7630714548736023 -0.6463141300923911
vn -0.9967397239478367 0.04003051975493084 0.07005340957112938
vn -0.9997901004122458 0.020487926143751122 0
vn -0.9989208537606085 0.040118117106536746 0.023402234978812723
vn -0.9999464204561431 0.010351628709842728 0
vn 0.07005340957112938 0.04003051975493085 0.9967397239478368
vn 0 0.020487926143751122 0.9997901004122458
vn 0.023402234978812723 0.040118117106536746 0.9989208537606085
vn 0 0.010351628709842728 0.9999464204561431
vn 0.9967397239478367 0.04003051975493084 -0.07005340957112938
vn 0.9997901004122458 0.020487926143751122 0
vn 0.9989208537606085 0.040118117106536746 -0.023402234978812723
vn 0.9999464204561431 0.010351628709842728 0
vn -0.07005340957112938 0.04003051975493085 -0.9967397239478368
vn 0 0.020487926143751122 -0.9997901004122458
vn -0.023402234978812723 0.040118117106536746 -0.9989208537606085
vn 0 0.010351628709842728 -0.9999464204561431
vn 0 1 0
vn 0 1 0
vn 0 1 0
vn 0 1 0
vn 0 1 0
vn 0 1 0
vn 0 1 0
vn 0 0 1
vn 1 0 0
vn 0 0 -1
vn -1 0 0
vn 0 0 1
vn 1 0 0
vn 0 0 -1
vn -1 0 0
vn 0 0 1
vn 1 0 0
vn 0 0 -1
vn -1 0 0
vn 0.7071067811865476 0 -0.7071067811865476
vn 0.7071067811865476 0 0.7071067811865476
vn -0.7071067811865476 0 -0.7071067811865476
vn -0.7071067811865476 0 0.7071067811865476
vn 0.5773502691896257 -0.5773502691896257 0.5773502691896257
vn -0.5773502691896257 -0.5773502691896257 0.5773502691896257
vn 0.5773502691896257 -0.5773502691896257 -0.5773502691896257
vn -0.5773502691896257 -0.5773502691896257 -0.5773502691896257
vn 0.5773502691896257 0.5773502691896257 0.5773502691896257
vn -0.5773502691896257 0.5773502691896257 0.5773502691896257
vn 0.5773502691896257 0.5773502691896257 -0.5773502691896257
vn -0.5773502691896257 0.5773502691896257 -0.5773502691896257
vn 0.7071067811865476 0 -0.7071067811865476
vn -0.7071067811865476 0 -0.7071067811865476
vn -0.7071067811865476 0 0.7071067811865476
vn 0.7071067811865476 0 0.7071067811865476
vn 0 -1 0
vn 0 1 0
vn 0 -1 0
vn 0 1 0
vn 0 -1 0
vn 0 1 0
vn 0 -1 0
vn 0 1 0
vn -0.5773502691896257 0.5773502691896257 -0.5773502691896257
vn 0.5773502691896257 0.5773502691896257 -0.5773502691896257
vn -0.5773502691896257 0.5773502691896257 0.5773502691896257
vn 0.5773502691896257 0.5773502691896257 0.5773502691896257
usemtl m_a7caaada-8079-63d7-f41b-88d4bc5e2448
f 226/565/142 227/566/142 228/567/142 229/568/142
f 230/569/143 231/570/143 225/571/143 232/572/143
f 233/573/144 234/574/144 235/575/144 236/576/144
f 237/577/145 233/578/145 236/579/145 238/580/145
f 239/581/146 237/582/146 238/583/146 240/584/146
f 234/585/147 239/586/147 240/587/147 235/588/147
f 241/589/148 242/590/148 243/591/148 244/592/148
f 245/593/149 241/594/149 244/595/149 246/596/149
f 247/597/150 245/598/150 246/599/150 248/600/150
f 242/601/151 247/602/151 248/603/151 243/604/151
f 227/605/152 226/606/152 234/607/152 233/608/152
f 249/609/153 250/610/153 251/611/153 252/612/153
f 229/613/154 228/614/154 237/615/154 239/616/154
f 226/617/155 229/618/155 239/619/155 234/620/155
f 231/621/156 230/622/156 242/623/156 241/624/156
f 253/625/157 254/626/157 255/627/157 256/628/157
f 232/629/158 225/630/158 245/631/158 247/632/158
f 230/633/159 232/634/159 247/635/159 242/636/159
f 257/637/160 258/638/160 225/639/160 231/640/160
f 259/641/161 257/642/161 231/643/161 241/644/161
f 260/645/162 259/646/162 241/647/162 245/648/162
f 258/649/163 260/650/163 245/651/163 225/652/163
f 261/653/164 262/654/164 228/655/164 227/656/164
f 263/657/165 261/658/165 227/659/165 233/660/165
f 264/661/166 263/662/166 233/663/166 237/664/166
f 262/665/167 264/666/167 237/667/167 228/668/167
f 254/669/168 253/670/168 258/671/168 257/672/168
f 255/673/169 254/674/169 257/675/169 259/676/169
f 256/677/170 255/678/170 259/679/170 260/680/170
f 265/681/171 266/682/171 267/683/171 268/684/171
f 250/685/172 249/686/172 262/687/172 261/688/172
f 251/689/173 250/690/173 261/691/173 263/692/173
f 252/693/174 251/694/174 263/695/174 264/696/174
f 249/697/175 252/698/175 264/699/175 262/700/175
f 266/701/176 265/702/176 253/703/176 256/704/176
f 267/705/177 266/706/177 256/707/177 260/708/177
f 268/709/178 267/710/178 260/711/178 258/712/178
f 265/713/179 268/714/179 258/715/179 253/716/179
f 269/717/180 270/718/180 271/719/180 272/720/180
f 273/721/181 274/722/181 275/723/181 276/724/181
f 277/725/182 278/726/182 279/727/182 280/728/182
f 281/729/183 277/730/183 280/731/183 282/732/183
f 283/733/184 281/734/184 282/735/184 284/736/184
f 278/737/185 283/738/185 284/739/185 279/740/185
f 285/741/186 286/742/186 287/743/186 288/744/186
f 289/745/187 285/746/187 288/747/187 290/748/187
f 291/749/188 289/750/188 290/751/188 292/752/188
f 286/753/189 291/754/189 292/755/189 287/756/189
f 270/757/190 269/758/190 278/759/190 277/760/190
f 271/761/191 270/762/191 277/763/191 281/764/191
f 272/765/192 271/766/192 281/767/192 283/768/192
f 293/769/193 294/770/193 295/771/193 296/772/193
f 274/773/194 273/774/194 286/775/194 285/776/194
f 275/777/195 274/778/195 285/779/195 289/780/195
f 276/781/196 275/782/196 289/783/196 291/784/196
f 297/785/197 298/786/197 299/787/197 300/788/197
f 301/789/198 302/790/198 269/791/198 272/792/198
f 303/793/199 301/794/199 272/795/199 283/796/199
f 304/797/200 303/798/200 283/799/200 278/800/200
f 302/801/201 304/802/201 278/803/201 269/804/201
f 305/805/202 306/806/202 273/807/202 276/808/202
f 307/809/203 305/810/203 276/811/203 291/812/203
f 308/813/204 307/814/204 291/815/204 286/816/204
f 306/817/205 308/818/205 286/819/205 273/820/205
f 294/821/206 293/822/206 302/823/206 301/824/206
f 295/825/207 294/826/207 301/827/207 303/828/207
f 296/829/208 295/830/208 303/831/208 304/832/208
f 293/833/209 296/834/209 304/835/209 302/836/209
f 298/837/210 297/838/210 306/839/210 305/840/210
f 299/841/211 298/842/211 305/843/211 307/844/211
f 300/845/212 299/846/212 307/847/212 308/848/212
f 309/849/213 310/850/213 311/851/213 312/852/213
f 310/853/214 309/854/214 297/855/214 300/856/214
f 311/857/215 310/858/215 300/859/215 308/860/215
f 312/861/216 311/862/216 308/863/216 306/864/216
f 309/865/217 312/866/217 306/867/217 297/868/217
f 313/869/218 314/870/218 315/871/218 316/872/218
f 317/873/219 318/874/219 319/875/219 320/876/219
f 321/877/220 322/878/220 323/879/220 324/880/220
f 325/881/221 326/882/221 327/883/221 328/884/221
f 337/885/222 338/886/222 319/887/222 333/888/222
f 339/889/223 337/890/223 333/891/223 334/892/223
f 340/893/224 339/894/224 334/895/224 320/896/224
f 338/897/225 340/898/225 320/899/225 319/900/225
f 341/901/226 342/902/226 323/903/226 335/904/226
f 343/905/227 341/906/227 335/907/227 336/908/227
f 344/909/228 343/910/228 336/911/228 324/912/228
f 342/913/229 344/914/229 324/915/229 323/916/229
f 345/917/230 346/918/230 316/919/230 329/920/230
f 347/921/231 345/922/231 329/923/231 330/924/231
f 348/925/232 347/926/232 330/927/232 313/928/232
f 346/929/233 348/930/233 313/931/233 316/932/233
f 349/933/234 350/934/234 328/935/234 331/936/234
f 351/937/235 349/938/235 331/939/235 332/940/235
f 352/941/236 351/942/236 332/943/236 325/944/236
f 350/945/237 352/946/237 325/947/237 328/948/237
f 353/949/238 354/950/238 355/951/238 356/952/238
f 357/953/239 358/954/239 359/955/239 360/956/239
f 361/957/240 362/958/240 363/959/240 364/960/240
f 365/961/241 366/962/241 367/963/241 368/964/241
f 369/965/242 370/966/242 371/967/242 372/968/242
f 373/969/243 374/970/243 375/971/243 376/972/243
f 377/973/244 378/974/244 379/975/244 380/976/244
f 362/977/245 361/978/245 358/979/245 365/980/245
f 363/981/246 362/982/246 365/983/246 368/984/246
f 364/985/247 363/986/247 368/987/247 359/988/247
f 361/989/248 364/990/248 359/991/248 358/992/248
f 378/993/249 377/994/249 374/995/249 355/996/249
f 379/997/250 378/998/250 355/999/250 354/1000/250
f 380/1001/251 379/1002/251 354/1003/251 375/1004/251
f 377/1005/252 380/1006/252 375/1007/252 374/1008/252
f 370/1009/253 369/1010/253 366/1011/253 373/1012/253
f 371/1013/254 370/1014/254 373/1015/254 376/1016/254
f 372/1017/255 371/1018/255 376/1019/255 367/1020/255
f 369/1021/256 372/1022/256 367/1023/256 366/1024/256
f 394/1025/257 395/1026/257 396/1027/257 397/1028/257
f 398/1029/258 399/1030/258 400/1031/258 401/1032/258
f 402/1033/259 403/1034/259 404/1035/259 405/1036/259
f 406/1037/260 407/1038/260 408/1039/260 409/1040/260
f 383/1041/261 398/1042/261 401/1043/261
f 384/1044/262 406/1045/262 409/1046/262
f 382/1047/263 394/1048/263 397/1049/263
f 381/1050/264 402/1051/264 405/1052/264
f 387/1053/265 410/1054/265 411/1055/265
f 389/1056/266 412/1057/266 390/1058/266
f 413/1059/267 388/1060/267 393/1061/267
f 392/1062/268 414/1063/268 415/1064/268
f 388/1065/269 417/1066/269 418/1067/269 393/1068/269
f 415/1069/270 419/1070/270 420/1071/270 392/1072/270
f 389/1073/271 421/1074/271 422/1075/271 423/1076/271
f 411/1077/272 424/1078/272 416/1079/272 387/1080/272
f 425/1081/273 426/1082/273 420/1083/273 419/1084/273
f 427/1085/274 428/1086/274 404/1087/274 403/1088/274
f 431/1089/275 433/1090/275 422/1091/275 421/1092/275
f 434/1093/276 432/1094/276 408/1095/276 407/1096/276
f 435/1097/277 437/1098/277 416/1099/277 424/1100/277
f 438/1101/278 436/1102/278 400/1103/278 399/1104/278
f 439/1105/279 429/1106/279 418/1107/279 417/1108/279
f 430/1109/280 440/1110/280 396/1111/280 395/1112/280
f 391/1113/281 414/1114/281 392/1115/281
f 413/1116/282 385/1117/282 388/1118/282
f 423/1119/283 412/1120/283 389/1121/283
f 386/1122/284 410/1123/284 387/1124/284
o beveled_cuboid_selection_selection
v 1.333094054447821 -0.3955940544478208 -0.28125
v 1.3193646848159404 -0.053739684815940325 -0.28125
v 1.3193646848159404 -0.053739684815940325 0.28125
v 1.333094054447821 -0.3955940544478208 0.28125
v -1.333094054447821 -0.3955940544478208 0.28125
v -1.3193646848159404 -0.053739684815940325 0.28125
v -1.3193646848159404 -0.053739684815940325 -0.28125
v -1.333094054447821 -0.3955940544478208 -0.28125
v 0.28125 -0.3955940544478208 1.333094054447821
v 0.28125 -0.053739684815940325 1.3193646848159404
v -0.28125 -0.053739684815940325 1.3193646848159404
v -0.28125 -0.3955940544478208 1.333094054447821
v -0.28125 -0.3955940544478208 -1.333094054447821
v -0.28125 -0.053739684815940325 -1.3193646848159404
v 0.28125 -0.053739684815940325 -1.3193646848159404
v 0.28125 -0.3955940544478208 -1.333094054447821
v -1.0918543696318808 0.75 -1.4199793696318808
v -1.0918543696318808 0.84375 -1.4199793696318808
v 1.0918543696318808 0.84375 -1.4199793696318808
v 1.0918543696318808 0.75 -1.4199793696318808
v -1.4199793696318808 0.75 -1.0918543696318808
v -1.4199793696318808 0.84375 -1.0918543696318808
v -1.4199793696318808 0.75 1.0918543696318808
v -1.4199793696318808 0.84375 1.0918543696318808
v -1.0918543696318808 0.75 1.4199793696318808
v -1.0918543696318808 0.84375 1.4199793696318808
v 1.0918543696318808 0.75 1.4199793696318808
v 1.0918543696318808 0.84375 1.4199793696318808
v 1.4199793696318808 0.75 1.0918543696318808
v 1.4199793696318808 0.84375 1.0918543696318808
v 1.4199793696318808 0.75 -1.0918543696318808
v 1.4199793696318808 0.84375 -1.0918543696318808
vt 0.5 0.4016250000000019
vt 0.5 0.6250000000000018
vt 0.3125 0.6250000000000018
vt 0.3125 0.4016250000000019
vt 0.5 0.4016250000000019
vt 0.5 0.6250000000000018
vt 0.3125 0.6250000000000018
vt 0.3125 0.4016250000000019
vt 0.5 0.4016250000000019
vt 0.5 0.6250000000000018
vt 0.3125 0.6250000000000018
vt 0.3125 0.4016250000000019
vt 0.5 0.4016250000000019
vt 0.5 0.6250000000000018
vt 0.3125 0.6250000000000018
vt 0.3125 0.4016250000000019
vt 0.75 0.875
vt 0.75 0.90625
vt 0 0.90625
vt 0 0.875
vt 0.176775 0.875
vt 0.176775 0.90625
vt 0 0.90625
vt 0 0.875
vt 0.75 0.875
vt 0.75 0.90625
vt 0 0.90625
vt 0 0.875
vt 0.176775 0.875
vt 0.176775 0.90625
vt 0 0.90625
vt 0 0.875
vt 0.75 0.875
vt 0.75 0.90625
vt 0 0.90625
vt 0 0.875
vt 0.176775 0.875
vt 0.176775 0.90625
vt 0 0.90625
vt 0 0.875
vt 0.75 0.875
vt 0.75 0.90625
vt 0 0.90625
vt 0 0.875
vt 0.176775 0.875
vt 0.176775 0.90625
vt 0 0.90625
vt 0 0.875
vn 0.9991945029626296 0.04012910725724935 0
vn -0.9991945029626296 0.04012910725724935 0
vn 0 0.04012910725724935 0.9991945029626296
vn 0 0.04012910725724935 -0.9991945029626296
vn 0 0 -1
vn -0.7071067811865476 0 -0.7071067811865476
vn -1 0 0
vn -0.7071067811865476 0 0.7071067811865476
vn 0 0 1
vn 0.7071067811865476 0 0.7071067811865476
vn 1 0 0
vn 0.7071067811865476 0 -0.7071067811865476
usemtl m_1dd51b65-ce08-e59a-4b4f-5e049537f9e5
f 441/1125/285 442/1126/285 443/1127/285 444/1128/285
f 445/1129/286 446/1130/286 447/1131/286 448/1132/286
f 449/1133/287 450/1134/287 451/1135/287 452/1136/287
f 453/1137/288 454/1138/288 455/1139/288 456/1140/288
f 457/1141/289 458/1142/289 459/1143/289 460/1144/289
f 461/1145/290 462/1146/290 458/1147/290 457/1148/290
f 463/1149/291 464/1150/291 462/1151/291 461/1152/291
f 465/1153/292 466/1154/292 464/1155/292 463/1156/292
f 467/1157/293 468/1158/293 466/1159/293 465/1160/293
f 469/1161/294 470/1162/294 468/1163/294 467/1164/294
f 471/1165/295 472/1166/295 470/1167/295 469/1168/295
f 460/1169/296 459/1170/296 472/1171/296 471/1172/296