# Made in Blockbench 4.7.4
mtllib Mchip.mtl

o cylinder
v 0 -0.4375 0
v 0.39460678118654746 -0.5 0.5
v 0.39460678118654746 -0.4375 0.5
v 0.5 -0.5 0.39460678118654746
v 0.5 -0.4375 0.39460678118654746
v 0.5 -0.5 -0.39460678118654713
v 0.5 -0.4375 -0.39460678118654713
v 0.3946067811865476 -0.5 -0.5
v 0.3946067811865476 -0.4375 -0.5
v -0.39460678118654713 -0.5 -0.5000000000000001
v -0.39460678118654713 -0.4375 -0.5000000000000001
v -0.4999999999999999 -0.5 -0.3946067811865478
v -0.4999999999999999 -0.4375 -0.3946067811865478
v -0.5 -0.5 0.3946067811865476
v -0.5 -0.4375 0.3946067811865476
v -0.3946067811865478 -0.5 0.4999999999999999
v -0.3946067811865478 -0.4375 0.4999999999999999
v -0.5 -0.25 0.3946067811865476
v -0.3946067811865478 -0.25 0.4999999999999999
v 0 -0.25 0
v -0.39460678118654713 -0.25 -0.5000000000000001
v -0.4999999999999999 -0.25 -0.3946067811865478
v 0.5 -0.25 -0.39460678118654713
v 0.3946067811865476 -0.25 -0.5
v 0.39460678118654746 -0.25 0.5
v 0.5 -0.25 0.39460678118654746
v -0.33660113019775795 0 0.292156910570756
v -0.29215691057075616 0 0.3366011301977579
v 0 0 -8.69315241035392e-18
v -0.2921569105707557 0 -0.33660113019775806
v -0.3366011301977578 0 -0.2921569105707562
v 0.29215691057075593 0 0.33660113019775795
v 0.33660113019775795 0 0.292156910570756
v 0.33660113019775795 0 -0.2921569105707558
v 0.29215691057075593 0 -0.3366011301977579
v 0.19730339059327387 -0.375 -0.41666666666666663
v -0.19730339059327348 -0.375 -0.41666666666666674
v 7.401486830834377e-17 -0.375 -0.16666666666666666
v -0.41666666666666663 -0.375 -0.19730339059327393
v -0.41666666666666663 -0.375 0.19730339059327376
v -0.16666666666666666 -0.375 -3.700743415417188e-17
v -0.19730339059327395 -0.375 0.41666666666666663
v 0.19730339059327368 -0.375 0.41666666666666663
v -5.551115123125783e-17 -0.375 0.16666666666666666
v 0.41666666666666663 -0.375 0.1973033905932738
v 0.41666666666666663 -0.375 -0.1973033905932735
v 0.16666666666666666 -0.375 5.551115123125783e-17
v 0.375 -0.5 -0.2959550858899104
v 0.375 -0.5 0.2959550858899106
v 0.2959550858899106 -0.5 0.375
v -0.2959550858899108 -0.5 0.3749999999999999
v -0.375 -0.5 0.2959550858899107
v -0.3749999999999999 -0.5 -0.2959550858899108
v -0.2959550858899104 -0.5 -0.3750000000000001
v 0.2959550858899107 -0.5 -0.375
v 0 0.4375 0
v 0.39460678118654746 0.4375 0.5
v 0.39460678118654746 0.5 0.5
v 0.5 0.4375 0.39460678118654746
v 0.5 0.5 0.39460678118654746
v 0.5 0.4375 -0.39460678118654713
v 0.5 0.5 -0.39460678118654713
v 0.3946067811865476 0.4375 -0.5
v 0.3946067811865476 0.5 -0.5
v -0.39460678118654713 0.4375 -0.5000000000000001
v -0.39460678118654713 0.5 -0.5000000000000001
v -0.4999999999999999 0.4375 -0.3946067811865478
v -0.4999999999999999 0.5 -0.3946067811865478
v -0.5 0.4375 0.3946067811865476
v -0.5 0.5 0.3946067811865476
v -0.3946067811865478 0.4375 0.4999999999999999
v -0.3946067811865478 0.5 0.4999999999999999
v 0.3946067811865476 0.25 -0.5
v 0.5 0.25 -0.39460678118654713
v -0.4999999999999999 0.25 -0.3946067811865478
v -0.39460678118654713 0.25 -0.5000000000000001
v -0.3946067811865478 0.25 0.4999999999999999
v -0.5 0.25 0.3946067811865476
v 0.5 0.25 0.39460678118654746
v 0.39460678118654746 0.25 0.5
v 0.29215691057075593 0 -0.3366011301977579
v 0.33660113019775795 0 -0.2921569105707558
v 0 0 -8.69315241035392e-18
v -0.3366011301977578 0 -0.2921569105707562
v -0.2921569105707557 0 -0.33660113019775806
v -0.29215691057075616 0 0.3366011301977579
v -0.33660113019775795 0 0.292156910570756
v 0.33660113019775795 0 0.292156910570756
v 0.29215691057075593 0 0.33660113019775795
v 0 0.25 0
v -0.19730339059327348 0.375 -0.41666666666666674
v 0.19730339059327387 0.375 -0.41666666666666663
v 7.401486830834377e-17 0.375 -0.16666666666666666
v -0.41666666666666663 0.375 0.19730339059327376
v -0.41666666666666663 0.375 -0.19730339059327393
v -0.16666666666666666 0.375 -3.700743415417188e-17
v 0.19730339059327368 0.375 0.41666666666666663
v -0.19730339059327395 0.375 0.41666666666666663
v -5.551115123125783e-17 0.375 0.16666666666666666
v 0.41666666666666663 0.375 -0.1973033905932735
v 0.41666666666666663 0.375 0.1973033905932738
v 0.16666666666666666 0.375 5.551115123125783e-17
v 0.2959550858899107 0.5 -0.375
v -0.2959550858899104 0.5 -0.3750000000000001
v -0.3749999999999999 0.5 -0.2959550858899108
v -0.375 0.5 0.2959550858899107
v -0.2959550858899108 0.5 0.3749999999999999
v 0.2959550858899106 0.5 0.375
v 0.375 0.5 0.2959550858899106
v 0.375 0.5 -0.2959550858899104
vt 0 0
vt 0.4142125 0
vt 0.4142125 1
vt 0 1
vt 0.12500000000000028 0.4715323093707029
vt 0.1993347619116676 0.47678642677143945
vt 0.125 1
vt 0 0
vt 0.4142125 0
vt 0.4142125 1
vt 0 1
vt 0.375 0.6053875
vt 0.375 1
vt 0.125 0.80269375
vt 0 0
vt 0.4142125 0
vt 0.4142125 1
vt 0 1
vt 0.5284676906292971 0.7381652380883327
vt 0.5232135732285605 0.8125
vt 0 0.7381652380883323
vt 0 0
vt 0.4142125 0
vt 0.4142125 1
vt 0 1
vt 0.3946125 0.875
vt 0 0.875
vt 0.19730625 0.625
vt 0 0
vt 0.4142125 0
vt 0.4142125 1
vt 0 1
vt 0.2618347619116673 0.9375
vt 0.1875 0.9322458825992634
vt 0.2618347619116676 0.4090323093707029
vt 0 0
vt 0.4142125 0
vt 0.4142125 1
vt 0 1
vt 0.125 1
vt 0.125 0.6053875
vt 0.375 0.80269375
vt 0 0
vt 0.4142125 0
vt 0.4142125 1
vt 0 1
vt 0.0625 0.8749999999999998
vt 0.06775411740073656 0.8006652380883323
vt 0.5909676906292971 0.875
vt 0 0
vt 0.4142125 0
vt 0.4142125 1
vt 0 1
vt 0 0.625
vt 0.3946125 0.625
vt 0.19730625 0.875
vt 0.14905 0.9375
vt 0 0.9375
vt 0 0.875
vt 0.14905 0.875
vt 0.63695625 0.9375
vt 0 0.9375
vt 0 0.875
vt 0.63695625 0.875
vt 0.63695625 1
vt 0 1
vt 0 0.9375
vt 0.63695625 0.9375
vt 0.21155 1
vt 0.0625 1
vt 0.0625 0.9375
vt 0.21155 0.9375
vt 0.63695625 0.875
vt 0 0.875
vt 0 0.8125
vt 0.63695625 0.8125
vt 0.63695625 0.875
vt 0 0.875
vt 0 0.8125
vt 0.63695625 0.8125
vt 0.33655 0.9375
vt 0.1875 0.9375
vt 0.1875 0.875
vt 0.33655 0.875
vt 0.63695625 0.9375
vt 0 0.9375
vt 0 0.875
vt 0.63695625 0.875
vt 0.63695625 0.8125
vt 0 0.8125
vt 0 0.75
vt 0.63695625 0.75
vt 0.21155 0.8125
vt 0.0625 0.8125
vt 0.0625 0.75
vt 0.21155 0.75
vt 0.63695625 0.9375
vt 0 0.9375
vt 0 0.875
vt 0.63695625 0.875
vt 0.63695625 0.875
vt 0 0.875
vt 0 0.8125
vt 0.63695625 0.8125
vt 0.16792962107491427 0.7632152567291717
vt 0.16792962107491427 0.837735472631469
vt 0.0625 0.875
vt 0.0625 0.7259507293606406
vt 0.58210625 0.5
vt 0.23569999999999997 0.8991
vt 0.1875 1
vt 0.58210625 0.5
vt 0.10089999999999999 0.65359375
vt 0.5 1
vt 0.5 1
vt 0 0.60539375
vt 0.1622645273685311 0.8320703789250857
vt 0.2367847432708283 0.8320703789250857
vt 0.27404927063935935 0.9375
vt 0.125 0.9375
vt 0.5 0.41789374999999995
vt 0.10089999999999999 0.7643
vt 0 0.8125
vt 0.5 0.41789374999999995
vt 0.23569999999999997 0.8991
vt 0.58210625 0.5
vt 0.58210625 0.5
vt 0.1875 1
vt 0.23678474327082827 0.625
vt 0.16226452736853106 0.625
vt 0.125 0.5195703789250857
vt 0.27404927063935935 0.5195703789250857
vt 0 1
vt 0.3991 0.65359375
vt 0.5 0.60539375
vt 0 1
vt 0.34640625 0.5384
vt 0 0.9375
vt 0 0.9375
vt 0.39460625 0.4375
vt 0.375 0.837735472631469
vt 0.375 0.7632152567291717
vt 0.48042962107491427 0.7259507293606406
vt 0.48042962107491427 0.875
vt 0 1
vt 0.34640625 0.6009
vt 0.39460625 0.5
vt 0 1
vt 0.4616 0.7643
vt 0.0625 0.41789374999999995
vt 0.0625 0.41789374999999995
vt 0.5625 0.8125
vt 0.1973 0.9166687499999999
vt 0.5919125 0.9166687499999999
vt 0.7892125 1
vt 0 1
vt 0.16575529450678272 0.49387435150778636
vt 0.16575529450678259 0.8123547375428803
vt 0.0625049061106066 1
vt 0.0625 0.36304309995495565
vt 0.44931163758792464 0.7499999999999999
vt 0.1308312515528307 0.75
vt 0 0.6467447054932173
vt 0.6369569000450443 0.6467496116038238
vt 0.08333125000000002 0.40808750000000005
vt 0.08333125000000002 0.8027
vt 0 1
vt 0 0.21078750000000002
vt 0.5061256484922136 0.6875
vt 0.1876452624571197 0.6874999999999999
vt 0 0.5842496116038238
vt 0.6369569000450443 0.5842447054932173
vt 0.2500000000000001 0.8123547375428803
vt 0.25 0.49387435150778636
vt 0.3532552945067827 0.36304309995495565
vt 0.3532503883961761 1
vt 0.5919125 0.5625
vt 0.1973 0.5625
vt 0 0.4791687499999999
vt 0.7892125 0.4791687499999999
vt 0.3125 0.8691687484471693
vt 0.3125000000000001 0.5506883624120753
vt 0.4157503883961761 0.36304309995495565
vt 0.4157552945067827 1
vt 0.1876452624571197 0.7092447054932174
vt 0.5061256484922136 0.7092447054932173
vt 0.6369569000450443 0.8125
vt 0 0.8124950938893933
vt 0.4375 0.8027
vt 0.4375 0.40808750000000005
vt 0.5208312500000001 0.21078750000000002
vt 0.5208312500000001 1
vt 0.1308312515528306 0.8342447054932172
vt 0.4493116375879246 0.8342447054932169
vt 0.6369569000450443 0.9374950938893928
vt 0 0.9375
vt 0.29075529450678284 0.5506883624120753
vt 0.2907552945067828 0.8691687484471693
vt 0.1875 1
vt 0.18750490611060688 0.36304309995495565
vt 0.4375 0.90135
vt 0.4375 0.30943750000000003
vt 0.5625 0.21078750000000002
vt 0.5625 1
vt 0.375 0.8563677363157345
vt 0.375 0.7445829930449062
vt 0.5331444316123715 0.7259507293606406
vt 0.5331444316123715 0.875
vt 0.09865000000000002 0.875
vt 0.6905625 0.875
vt 0.7892125 1
vt 0 1
vt 0.1436322636842655 0.8418555683876285
vt 0.25541700695509384 0.8418555683876285
vt 0.27404927063935935 1
vt 0.125 1
vt 0.125 0.30943750000000003
vt 0.125 0.90135
vt 0 1
vt 0 0.21078750000000002
vt 0.15814443161237146 0.7445829930449062
vt 0.15814443161237146 0.8563677363157345
vt 0 0.875
vt 0 0.7259507293606406
vt 0.6905625 0.5625
vt 0.09865000000000002 0.5625
vt 0 0.4375
vt 0.7892125 0.4375
vt 0.25541700695509384 0.625
vt 0.1436322636842655 0.625
vt 0.125 0.46685556838762854
vt 0.27404927063935935 0.46685556838762854
vt 0.5284676906292971 0.7381652380883327
vt 0.5232135732285605 0.8125
vt 0 0.7381652380883323
vt 0 0
vt 0.4142125 0
vt 0.4142125 1
vt 0 1
vt 0.375 0.6053875
vt 0.375 1
vt 0.125 0.80269375
vt 0 0
vt 0.4142125 0
vt 0.4142125 1
vt 0 1
vt 0.12500000000000028 0.4715323093707029
vt 0.1993347619116676 0.47678642677143945
vt 0.125 1
vt 0 0
vt 0.4142125 0
vt 0.4142125 1
vt 0 1
vt 0 0.625
vt 0.3946125 0.625
vt 0.19730625 0.875
vt 0 0
vt 0.4142125 0
vt 0.4142125 1
vt 0 1
vt 0.0625 0.8749999999999998
vt 0.06775411740073656 0.8006652380883323
vt 0.5909676906292971 0.875
vt 0 0
vt 0.4142125 0
vt 0.4142125 1
vt 0 1
vt 0.125 1
vt 0.125 0.6053875
vt 0.375 0.80269375
vt 0 0
vt 0.4142125 0
vt 0.4142125 1
vt 0 1
vt 0.2618347619116673 0.9375
vt 0.1875 0.9322458825992634
vt 0.2618347619116676 0.4090323093707029
vt 0 0
vt 0.4142125 0
vt 0.4142125 1
vt 0 1
vt 0.3946125 0.875
vt 0 0.875
vt 0.19730625 0.625
vt 0 0
vt 0.4142125 0
vt 0.4142125 1
vt 0 1
vt 0.0625 0.75
vt 0.21155 0.75
vt 0.21155 0.8125
vt 0.0625 0.8125
vt 0 0.875
vt 0.63695625 0.875
vt 0.63695625 0.9375
vt 0 0.9375
vt 0 0.8125
vt 0.63695625 0.8125
vt 0.63695625 0.875
vt 0 0.875
vt 0 0.875
vt 0.14905 0.875
vt 0.14905 0.9375
vt 0 0.9375
vt 0 0.875
vt 0.63695625 0.875
vt 0.63695625 0.9375
vt 0 0.9375
vt 0 0.9375
vt 0.63695625 0.9375
vt 0.63695625 1
vt 0 1
vt 0.0625 0.9375
vt 0.21155 0.9375
vt 0.21155 1
vt 0.0625 1
vt 0 0.8125
vt 0.63695625 0.8125
vt 0.63695625 0.875
vt 0 0.875
vt 0 0.8125
vt 0.63695625 0.8125
vt 0.63695625 0.875
vt 0 0.875
vt 0.1875 0.875
vt 0.33655 0.875
vt 0.33655 0.9375
vt 0.1875 0.9375
vt 0 0.875
vt 0.63695625 0.875
vt 0.63695625 0.9375
vt 0 0.9375
vt 0 0.75
vt 0.63695625 0.75
vt 0.63695625 0.8125
vt 0 0.8125
vt 0.23678474327082827 0.625
vt 0.16226452736853106 0.625
vt 0.125 0.5195703789250857
vt 0.27404927063935935 0.5195703789250857
vt 0 1
vt 0.3991 0.65359375
vt 0.5 0.60539375
vt 0 1
vt 0.34640625 0.8991
vt 0 0.5
vt 0 0.5
vt 0.39460625 1
vt 0.16792962107491427 0.7632152567291717
vt 0.16792962107491427 0.837735472631469
vt 0.0625 0.875
vt 0.0625 0.7259507293606406
vt 0.58210625 1
vt 0.23569999999999997 0.6009
vt 0.1875 0.5
vt 0.58210625 1
vt 0.10089999999999999 0.9518
vt 0.5 0.60539375
vt 0.5 0.60539375
vt 0 1
vt 0.1622645273685311 0.8320703789250857
vt 0.2367847432708283 0.8320703789250857
vt 0.27404927063935935 0.9375
vt 0.125 0.9375
vt 0.5 0.41789374999999995
vt 0.10089999999999999 0.7643
vt 0 0.8125
vt 0.5 0.41789374999999995
vt 0.23569999999999997 0.5384
vt 0.58210625 0.9375
vt 0.58210625 0.9375
vt 0.1875 0.4375
vt 0.375 0.837735472631469
vt 0.375 0.7632152567291717
vt 0.48042962107491427 0.7259507293606406
vt 0.48042962107491427 0.875
vt 0 0.5
vt 0.34640625 0.8991
vt 0.39460625 1
vt 0 0.5
vt 0.4616 0.46609375
vt 0.0625 0.8125
vt 0.0625 0.8125
vt 0.5625 0.41789374999999995
vt 0.5919125 0.5625
vt 0.1973 0.5625
vt 0 0.4791687499999999
vt 0.7892125 0.4791687499999999
vt 0.3125 0.8691687484471693
vt 0.3125000000000001 0.5506883624120753
vt 0.4157503883961761 0.36304309995495565
vt 0.4157552945067827 1
vt 0.1876452624571197 0.7092447054932174
vt 0.5061256484922136 0.7092447054932173
vt 0.6369569000450443 0.8125
vt 0 0.8124950938893933
vt 0.08333125000000002 0.40808750000000005
vt 0.08333125000000002 0.8027
vt 0 1
vt 0 0.21078750000000002
vt 0.5061256484922136 0.6875
vt 0.1876452624571197 0.6874999999999999
vt 0 0.5842496116038238
vt 0.6369569000450443 0.5842447054932173
vt 0.2500000000000001 0.8123547375428803
vt 0.25 0.49387435150778636
vt 0.3532552945067827 0.36304309995495565
vt 0.3532503883961761 1
vt 0.1973 0.9166687499999999
vt 0.5919125 0.9166687499999999
vt 0.7892125 1
vt 0 1
vt 0.16575529450678272 0.49387435150778636
vt 0.16575529450678259 0.8123547375428803
vt 0.0625049061106066 1
vt 0.0625 0.36304309995495565
vt 0.44931163758792464 0.7499999999999999
vt 0.1308312515528307 0.75
vt 0 0.6467447054932173
vt 0.6369569000450443 0.6467496116038238
vt 0.4375 0.8027
vt 0.4375 0.40808750000000005
vt 0.5208312500000001 0.21078750000000002
vt 0.5208312500000001 1
vt 0.1308312515528306 0.8342447054932172
vt 0.4493116375879246 0.8342447054932169
vt 0.6369569000450443 0.9374950938893928
vt 0 0.9375
vt 0.29075529450678284 0.5506883624120753
vt 0.2907552945067828 0.8691687484471693
vt 0.1875 1
vt 0.18750490611060688 0.36304309995495565
vt 0.09865000000000002 0.875
vt 0.6905625 0.875
vt 0.7892125 1
vt 0 1
vt 0.1436322636842655 0.8418555683876285
vt 0.25541700695509384 0.8418555683876285
vt 0.27404927063935935 1
vt 0.125 1
vt 0.125 0.30943750000000003
vt 0.125 0.90135
vt 0 1
vt 0 0.21078750000000002
vt 0.15814443161237146 0.7445829930449062
vt 0.15814443161237146 0.8563677363157345
vt 0 0.875
vt 0 0.7259507293606406
vt 0.6905625 0.5625
vt 0.09865000000000002 0.5625
vt 0 0.4375
vt 0.7892125 0.4375
vt 0.25541700695509384 0.625
vt 0.1436322636842655 0.625
vt 0.125 0.46685556838762854
vt 0.27404927063935935 0.46685556838762854
vt 0.4375 0.90135
vt 0.4375 0.30943750000000003
vt 0.5625 0.21078750000000002
vt 0.5625 1
vt 0.375 0.8563677363157345
vt 0.375 0.7445829930449062
vt 0.5331444316123715 0.7259507293606406
vt 0.5331444316123715 0.875
vn 0.7071067811865476 0 0.7071067811865476
vn 0 1 0
vn 1 0 0
vn 0 1 0
vn 0.7071067811865491 0 -0.7071067811865461
vn 0 1 0
vn 1.4067460033084265e-16 0 -1
vn 0 1 0
vn -0.707106781186546 0 -0.707106781186549
vn 0 1 0
vn -1 0 -1.4067460033084253e-16
vn 0 1 0
vn -0.7071067811865479 0 0.7071067811865471
vn 0 1 0
vn -1.4067460033084256e-16 0 1
vn 0 1 0
vn -0.7071067811865479 0 0.7071067811865471
vn 0.7849820633517065 0 0.6195184906167834
vn -0.6195184906167832 0 -0.7849820633517068
vn -0.707106781186546 0 -0.707106781186549
vn -0.6195184906167834 0 0.7849820633517065
vn 0.7849820633517073 0 -0.6195184906167827
vn 0.707106781186549 0 -0.707106781186546
vn -0.7849820633517068 0 -0.6195184906167832
vn 0.6195184906167828 0 0.7849820633517072
vn 0.7071067811865476 0 0.7071067811865476
vn 0.619518490616783 0 -0.7849820633517067
vn -0.7849820633517067 0 0.619518490616783
vn -0.5651604001968916 0.6009887221059813 0.5651604001968903
vn 0.7499188102844714 0.11810951463887456 0.6509008530746387
vn -0.6554888982578191 0 -0.7552048094793561
vn -0.5651604001968895 0.6009887221059811 -0.5651604001968924
vn -0.6509008530746389 0.11810951463887531 0.7499188102844712
vn 0.7552048094793565 0 -0.6554888982578185
vn 0.5651604001968906 0.6009887221059811 0.5651604001968914
vn 0.6509008530746385 0.11810951463887509 -0.7499188102844716
vn -0.7552048094793562 0 0.655488898257819
vn 0.5651604001968916 0.6009887221059808 -0.5651604001968908
vn -0.7499188102844717 0.1181095146388746 -0.6509008530746385
vn 0.6554888982578189 0 0.7552048094793563
vn 1.6880952039701108e-16 0.8000000000000003 -0.5999999999999996
vn -0.40648825257031196 0.8554827783302136 0.3208060418738298
vn 0.4064882525703118 0.8554827783302134 0.3208060418738302
vn -0.6000000000000003 0.7999999999999997 0
vn 0.3208060418738301 0.8554827783302134 0.4064882525703116
vn 0.32080604187383016 0.8554827783302135 -0.40648825257031146
vn 0 0.7999999999999998 0.6000000000000003
vn 0.4064882525703118 0.8554827783302134 -0.3208060418738301
vn -0.4064882525703115 0.8554827783302134 -0.3208060418738302
vn 0.5999999999999999 0.8000000000000002 0
vn -0.3208060418738301 0.8554827783302132 -0.40648825257031207
vn -0.32080604187383016 0.8554827783302134 0.40648825257031185
vn 0 -1 0
vn 0 -1 0
vn 0 -1 0
vn 0 -1 0
vn 0 -1 0
vn 0 -1 0
vn 0 -1 0
vn 0 -1 0
vn 0 -1 0
vn 0.7071067811865476 0 0.7071067811865476
vn 0 -1 0
vn 1 0 0
vn 0 -1 0
vn 0.7071067811865491 0 -0.7071067811865461
vn 0 -1 0
vn 1.4067460033084265e-16 0 -1
vn 0 -1 0
vn -0.707106781186546 0 -0.707106781186549
vn 0 -1 0
vn -1 0 -1.4067460033084253e-16
vn 0 -1 0
vn -0.7071067811865479 0 0.7071067811865471
vn 0 -1 0
vn -1.4067460033084256e-16 0 1
vn 0.707106781186549 0 -0.707106781186546
vn 0.6195184906167828 0 0.7849820633517072
vn -0.7849820633517068 0 -0.6195184906167832
vn -0.707106781186546 0 -0.707106781186549
vn 0.7849820633517073 0 -0.6195184906167827
vn -0.6195184906167834 0 0.7849820633517065
vn -0.7071067811865479 0 0.7071067811865471
vn -0.6195184906167832 0 -0.7849820633517068
vn 0.7849820633517065 0 0.6195184906167834
vn 0.7071067811865476 0 0.7071067811865476
vn -0.7849820633517067 0 0.619518490616783
vn 0.619518490616783 0 -0.7849820633517067
vn 0.5651604001968913 -0.6009887221059813 -0.5651604001968906
vn 0.6509008530746383 -0.11810951463887537 0.7499188102844718
vn -0.7552048094793563 0 -0.6554888982578191
vn -0.5651604001968896 -0.600988722105981 -0.5651604001968925
vn 0.749918810284472 -0.1181095146388746 -0.6509008530746381
vn -0.6554888982578195 0 0.7552048094793558
vn -0.5651604001968917 -0.6009887221059811 0.5651604001968904
vn -0.6509008530746385 -0.11810951463887458 -0.7499188102844716
vn 0.7552048094793559 0 0.6554888982578193
vn 0.5651604001968906 -0.6009887221059809 0.5651604001968914
vn -0.7499188102844716 -0.11810951463887483 0.6509008530746384
vn 0.6554888982578191 0 -0.7552048094793561
vn 1.688095203970112e-16 -0.7999999999999999 -0.6000000000000001
vn 0.40648825257031185 -0.8554827783302131 0.32080604187383027
vn -0.406488252570312 -0.8554827783302134 0.3208060418738299
vn -0.5999999999999999 -0.8000000000000002 0
vn 0.32080604187383016 -0.8554827783302135 -0.40648825257031146
vn 0.32080604187383 -0.8554827783302135 0.40648825257031146
vn 0 -0.8000000000000002 0.5999999999999999
vn -0.40648825257031146 -0.8554827783302135 -0.32080604187383016
vn 0.4064882525703116 -0.8554827783302136 -0.32080604187383
vn 0.5999999999999999 -0.8000000000000002 0
vn -0.3208060418738304 -0.8554827783302132 0.40648825257031207
vn -0.32080604187382994 -0.8554827783302132 -0.40648825257031185
vn 0 1 0
vn 0 1 0
vn 0 1 0
vn 0 1 0
vn 0 1 0
vn 0 1 0
vn 0 1 0
vn 0 1 0
usemtl m_816cf091-a515-4a04-4fa9-467340826f0a
f 2/1/1 4/2/1 5/3/1 3/4/1
f 32/5/2 33/6/2 29/7/2
f 4/8/3 6/9/3 7/10/3 5/11/3
f 45/12/4 46/13/4 47/14/4
f 6/15/5 8/16/5 9/17/5 7/18/5
f 34/19/6 35/20/6 29/21/6
f 8/22/7 10/23/7 11/24/7 9/25/7
f 36/26/8 37/27/8 38/28/8
f 10/29/9 12/30/9 13/31/9 11/32/9
f 30/33/10 31/34/10 29/35/10
f 12/36/11 14/37/11 15/38/11 13/39/11
f 39/40/12 40/41/12 41/42/12
f 14/43/13 16/44/13 17/45/13 15/46/13
f 27/47/14 28/48/14 29/49/14
f 16/50/15 2/51/15 3/52/15 17/53/15
f 42/54/16 43/55/16 44/56/16
f 19/57/17 18/58/17 15/59/17 17/60/17
f 20/61/18 19/62/18 17/63/18 1/64/18
f 18/65/19 20/66/19 1/67/19 15/68/19
f 22/69/20 21/70/20 11/71/20 13/72/20
f 20/73/21 22/74/21 13/75/21 1/76/21
f 21/77/22 20/78/22 1/79/22 11/80/22
f 24/81/23 23/82/23 7/83/23 9/84/23
f 20/85/24 24/86/24 9/87/24 1/88/24
f 23/89/25 20/90/25 1/91/25 7/92/25
f 26/93/26 25/94/26 3/95/26 5/96/26
f 20/97/27 26/98/27 5/99/27 1/100/27
f 25/101/28 20/102/28 1/103/28 3/104/28
f 28/105/29 27/106/29 18/107/29 19/108/29
f 29/109/30 28/110/30 19/111/30 20/112/30
f 27/113/31 29/114/31 20/115/31 18/116/31
f 31/117/32 30/118/32 21/119/32 22/120/32
f 29/121/33 31/122/33 22/123/33 20/124/33
f 30/125/34 29/126/34 20/127/34 21/128/34
f 33/129/35 32/130/35 25/131/35 26/132/35
f 29/133/36 33/134/36 26/135/36 20/136/36
f 32/137/37 29/138/37 20/139/37 25/140/37
f 35/141/38 34/142/38 23/143/38 24/144/38
f 29/145/39 35/146/39 24/147/39 20/148/39
f 34/149/40 29/150/40 20/151/40 23/152/40
f 37/153/41 36/154/41 9/155/41 11/156/41
f 38/157/42 37/158/42 11/159/42 1/160/42
f 36/161/43 38/162/43 1/163/43 9/164/43
f 40/165/44 39/166/44 13/167/44 15/168/44
f 41/169/45 40/170/45 15/171/45 1/172/45
f 39/173/46 41/174/46 1/175/46 13/176/46
f 43/177/47 42/178/47 17/179/47 3/180/47
f 44/181/48 43/182/48 3/183/48 1/184/48
f 42/185/49 44/186/49 1/187/49 17/188/49
f 46/189/50 45/190/50 5/191/50 7/192/50
f 47/193/51 46/194/51 7/195/51 1/196/51
f 45/197/52 47/198/52 1/199/52 5/200/52
f 49/201/53 48/202/53 6/203/53 4/204/53
f 50/205/54 49/206/54 4/207/54 2/208/54
f 51/209/55 50/210/55 2/211/55 16/212/55
f 52/213/56 51/214/56 16/215/56 14/216/56
f 53/217/57 52/218/57 14/219/57 12/220/57
f 54/221/58 53/222/58 12/223/58 10/224/58
f 55/225/59 54/226/59 10/227/59 8/228/59
f 48/229/60 55/230/60 8/231/60 6/232/60
f 88/233/61 89/234/61 83/235/61
f 57/236/62 59/237/62 60/238/62 58/239/62
f 100/240/63 101/241/63 102/242/63
f 59/243/64 61/244/64 62/245/64 60/246/64
f 81/247/65 82/248/65 83/249/65
f 61/250/66 63/251/66 64/252/66 62/253/66
f 91/254/67 92/255/67 93/256/67
f 63/257/68 65/258/68 66/259/68 64/260/68
f 84/261/69 85/262/69 83/263/69
f 65/264/70 67/265/70 68/266/70 66/267/70
f 94/268/71 95/269/71 96/270/71
f 67/271/72 69/272/72 70/273/72 68/274/72
f 86/275/73 87/276/73 83/277/73
f 69/278/74 71/279/74 72/280/74 70/281/74
f 97/282/75 98/283/75 99/284/75
f 71/285/76 57/286/76 58/287/76 72/288/76
f 74/289/77 73/290/77 63/291/77 61/292/77
f 90/293/78 74/294/78 61/295/78 56/296/78
f 73/297/79 90/298/79 56/299/79 63/300/79
f 76/301/80 75/302/80 67/303/80 65/304/80
f 90/305/81 76/306/81 65/307/81 56/308/81
f 75/309/82 90/310/82 56/311/82 67/312/82
f 78/313/83 77/314/83 71/315/83 69/316/83
f 90/317/84 78/318/84 69/319/84 56/320/84
f 77/321/85 90/322/85 56/323/85 71/324/85
f 80/325/86 79/326/86 59/327/86 57/328/86
f 90/329/87 80/330/87 57/331/87 56/332/87
f 79/333/88 90/334/88 56/335/88 59/336/88
f 82/337/89 81/338/89 73/339/89 74/340/89
f 83/341/90 82/342/90 74/343/90 90/344/90
f 81/345/91 83/346/91 90/347/91 73/348/91
f 85/349/92 84/350/92 75/351/92 76/352/92
f 83/353/93 85/354/93 76/355/93 90/356/93
f 84/357/94 83/358/94 90/359/94 75/360/94
f 87/361/95 86/362/95 77/363/95 78/364/95
f 83/365/96 87/366/96 78/367/96 90/368/96
f 86/369/97 83/370/97 90/371/97 77/372/97
f 89/373/98 88/374/98 79/375/98 80/376/98
f 83/377/99 89/378/99 80/379/99 90/380/99
f 88/381/100 83/382/100 90/383/100 79/384/100
f 92/385/101 91/386/101 65/387/101 63/388/101
f 93/389/102 92/390/102 63/391/102 56/392/102
f 91/393/103 93/394/103 56/395/103 65/396/103
f 95/397/104 94/398/104 69/399/104 67/400/104
f 96/401/105 95/402/105 67/403/105 56/404/105
f 94/405/106 96/406/106 56/407/106 69/408/106
f 98/409/107 97/410/107 57/411/107 71/412/107
f 99/413/108 98/414/108 71/415/108 56/416/108
f 97/417/109 99/418/109 56/419/109 57/420/109
f 101/421/110 100/422/110 61/423/110 59/424/110
f 102/425/111 101/426/111 59/427/111 56/428/111
f 100/429/112 102/430/112 56/431/112 61/432/112
f 104/433/113 103/434/113 64/435/113 66/436/113
f 105/437/114 104/438/114 66/439/114 68/440/114
f 106/441/115 105/442/115 68/443/115 70/444/115
f 107/445/116 106/446/116 70/447/116 72/448/116
f 108/449/117 107/450/117 72/451/117 58/452/117
f 109/453/118 108/454/118 58/455/118 60/456/118
f 110/457/119 109/458/119 60/459/119 62/460/119
f 103/461/120 110/462/120 62/463/120 64/464/120
o sphere
v 2.9738116731030977e-18 -0.3125 -1.3877787807814457e-17
v 2.9738116731030996e-18 0.3125 -1.3877787807814457e-17
v 0.10983495705504467 0.22097086912079614 0.2651650429449553
v 0.15533008588991065 1.9135106236677392e-17 0.37499999999999994
v 0.1098349570550447 -0.22097086912079608 0.26516504294495535
v 0.26516504294495524 0.22097086912079614 0.10983495705504469
v 0.375 1.9135106236677392e-17 0.15533008588991065
v 0.26516504294495535 -0.22097086912079608 0.10983495705504472
v 0.26516504294495524 0.22097086912079614 -0.10983495705504467
v 0.375 1.9135106236677392e-17 -0.15533008588991065
v 0.26516504294495535 -0.22097086912079608 -0.10983495705504467
v 0.1098349570550447 0.22097086912079614 -0.2651650429449553
v 0.1553300858899107 1.9135106236677392e-17 -0.375
v 0.10983495705504472 -0.22097086912079608 -0.26516504294495535
v -0.10983495705504465 0.22097086912079614 -0.2651650429449553
v -0.15533008588991062 1.9135106236677392e-17 -0.37500000000000006
v -0.10983495705504465 -0.22097086912079608 -0.26516504294495535
v -0.26516504294495524 0.22097086912079614 -0.10983495705504484
v -0.3749999999999999 1.9135106236677392e-17 -0.15533008588991087
v -0.26516504294495524 -0.22097086912079608 -0.10983495705504487
v -0.26516504294495524 0.22097086912079614 0.10983495705504472
v -0.375 1.9135106236677392e-17 0.15533008588991074
v -0.26516504294495535 -0.22097086912079608 0.10983495705504473
v -0.10983495705504487 0.22097086912079614 0.2651650429449552
v -0.1553300858899109 1.9135106236677392e-17 0.3749999999999999
v -0.10983495705504487 -0.22097086912079608 0.26516504294495524
v -0.05491747852752231 -0.23622572426733007 -0.2209708691207961
v 0.05491747852752237 -0.23622572426733007 -0.2209708691207961
v 1.354736428858078e-17 -0.2819902897069321 -0.08838834764831845
v -0.05491747852752231 -0.2953051532174289 -0.2413637863944533
v 0.05491747852752237 -0.2953051532174289 -0.2413637863944533
v 1.354736428858078e-17 -0.3410697186570309 -0.10878126492197562
v -0.05491747852752231 -0.3543845821675277 -0.2617567036681105
v 0.05491747852752237 -0.3543845821675277 -0.2617567036681105
v 1.354736428858078e-17 -0.4001491476071297 -0.12917418219563281
v -0.05491747852752231 -0.41346401111762654 -0.28214962094176765
v 0.05491747852752237 -0.41346401111762654 -0.28214962094176765
v 1.354736428858078e-17 -0.45922857655722854 -0.14956709946929
v 0.05491747852752236 0.23622572426733013 -0.22097086912079608
v -0.054917478527522316 0.23622572426733013 -0.22097086912079608
v 1.1234399653945038e-17 0.2819902897069321 -0.08838834764831845
v 0.05491747852752236 0.29530515321742895 -0.24136378639445324
v -0.054917478527522316 0.29530515321742895 -0.24136378639445324
v 1.1234399653945038e-17 0.3410697186570309 -0.10878126492197562
v 0.05491747852752236 0.3543845821675278 -0.26175670366811044
v -0.054917478527522316 0.3543845821675278 -0.26175670366811044
v 1.1234399653945038e-17 0.4001491476071297 -0.1291741821956328
v 0.05491747852752236 0.4134640111176266 -0.2821496209417676
v -0.054917478527522316 0.4134640111176266 -0.2821496209417676
v 1.1234399653945038e-17 0.45922857655722854 -0.14956709946928995
v -0.22097086912079605 0.23622572426733013 -0.05491747852752244
v -0.22097086912079605 0.23622572426733013 0.05491747852752234
v -0.08838834764831842 0.2819902897069321 -3.006854025026466e-17
v -0.24136378639445322 0.29530515321742895 -0.05491747852752244
v -0.24136378639445322 0.29530515321742895 0.05491747852752234
v -0.1087812649219756 0.3410697186570309 -3.006854025026466e-17
v -0.2617567036681104 0.3543845821675278 -0.05491747852752244
v -0.2617567036681104 0.3543845821675278 0.05491747852752234
v -0.12917418219563276 0.4001491476071297 -3.006854025026466e-17
v -0.28214962094176754 0.4134640111176266 -0.05491747852752244
v -0.28214962094176754 0.4134640111176266 0.05491747852752234
v -0.14956709946928992 0.45922857655722854 -3.006854025026466e-17
v -0.2209708691207961 -0.23622572426733007 0.05491747852752234
v -0.22097086912079605 -0.23622572426733007 -0.05491747852752246
v -0.08838834764831843 -0.2819902897069321 -3.2381504884900395e-17
v -0.2413637863944533 -0.2953051532174289 0.05491747852752233
v -0.24136378639445324 -0.2953051532174289 -0.05491747852752247
v -0.10878126492197562 -0.3410697186570309 -4.268818998022196e-17
v -0.2617567036681105 -0.3543845821675277 0.05491747852752232
v -0.26175670366811044 -0.3543845821675277 -0.054917478527522476
v -0.12917418219563281 -0.4001491476071297 -5.2994875075543523e-17
v -0.28214962094176765 -0.41346401111762654 0.054917478527522316
v -0.2821496209417676 -0.41346401111762654 -0.05491747852752248
v -0.14956709946929 -0.45922857655722854 -6.330156017086508e-17
v -0.05491747852752247 0.23622572426733013 0.220970869120796
v 0.0549174785275223 0.23622572426733013 0.22097086912079605
v -3.039896376949833e-17 0.2819902897069321 0.08838834764831842
v -0.054917478527522476 0.29530515321742895 0.24136378639445316
v 0.054917478527522295 0.29530515321742895 0.24136378639445322
v -4.070564886481989e-17 0.3410697186570309 0.1087812649219756
v -0.05491747852752248 0.3543845821675278 0.2617567036681103
v 0.05491747852752229 0.3543845821675278 0.2617567036681104
v -5.1012333960141447e-17 0.4001491476071297 0.12917418219563276
v -0.05491747852752249 0.4134640111176266 0.2821496209417675
v 0.05491747852752228 0.4134640111176266 0.28214962094176754
v -6.1319019055463e-17 0.45922857655722854 0.14956709946928992
v 0.05491747852752232 -0.23622572426733007 0.2209708691207961
v -0.05491747852752246 -0.23622572426733007 0.22097086912079605
v -2.5773034500226852e-17 -0.2819902897069321 0.08838834764831842
v 0.054917478527522316 -0.2953051532174289 0.2413637863944533
v -0.05491747852752247 -0.2953051532174289 0.24136378639445324
v -3.6079719595548413e-17 -0.3410697186570309 0.10878126492197561
v 0.05491747852752231 -0.3543845821675277 0.2617567036681105
v -0.054917478527522476 -0.3543845821675277 0.26175670366811044
v -4.638640469086998e-17 -0.4001491476071297 0.1291741821956328
v 0.0549174785275223 -0.41346401111762654 0.28214962094176765
v -0.05491747852752248 -0.41346401111762654 0.2821496209417676
v -5.669308978619154e-17 -0.45922857655722854 0.14956709946928998
v 0.22097086912079605 0.23622572426733013 0.054917478527522344
v 0.22097086912079605 0.23622572426733013 -0.05491747852752234
v 0.08838834764831842 0.2819902897069321 -6.938893903907228e-18
v 0.24136378639445322 0.29530515321742895 0.054917478527522344
v 0.24136378639445322 0.29530515321742895 -0.05491747852752234
v 0.1087812649219756 0.3410697186570309 -6.938893903907228e-18
v 0.2617567036681104 0.3543845821675278 0.054917478527522344
v 0.2617567036681104 0.3543845821675278 -0.05491747852752234
v 0.12917418219563276 0.4001491476071297 -6.938893903907228e-18
v 0.28214962094176754 0.4134640111176266 0.054917478527522344
v 0.28214962094176754 0.4134640111176266 -0.05491747852752234
v 0.14956709946928992 0.45922857655722854 -6.938893903907228e-18
v 0.2209708691207961 -0.23622572426733007 -0.05491747852752233
v 0.2209708691207961 -0.23622572426733007 0.054917478527522365
v 0.08838834764831845 -0.2819902897069321 -2.312964634635744e-18
v 0.2413637863944533 -0.2953051532174289 -0.05491747852752233
v 0.2413637863944533 -0.2953051532174289 0.054917478527522365
v 0.10878126492197562 -0.3410697186570309 -2.312964634635744e-18
v 0.2617567036681105 -0.3543845821675277 -0.05491747852752233
v 0.2617567036681105 -0.3543845821675277 0.054917478527522365
v 0.12917418219563281 -0.4001491476071297 -2.312964634635744e-18
v 0.28214962094176765 -0.41346401111762654 -0.05491747852752233
v 0.28214962094176765 -0.41346401111762654 0.054917478527522365
v 0.14956709946929 -0.45922857655722854 -2.312964634635744e-18
vt 0 0.6173124999999999
vt 0.2928875 0.6173124999999999
vt 0.14644375 1
vt 0.06066249999999998 1
vt 0 0.6173124999999999
vt 0.4142125 0.6173124999999999
vt 0.35355000000000003 1
vt 0 1
vt 0.06066249999999998 0.6173124999999999
vt 0.35355000000000003 0.6173124999999999
vt 0.4142125 1
vt 0.2928875 1
vt 0 1
vt 0.14644375 0.6173124999999999
vt 0.125 0.67224375
vt 0.2348375 0.67224375
vt 0.17991875000000002 0.8125
vt 0.06066249999999998 1
vt 0 0.6173124999999999
vt 0.4142125 0.6173124999999999
vt 0.35355000000000003 1
vt 0 1
vt 0.06066249999999998 0.6173124999999999
vt 0.35355000000000003 0.6173124999999999
vt 0.4142125 1
vt 0.2348375 0.9375
vt 0.125 0.9375
vt 0.17991875000000002 0.79724375
vt 0 0.6173124999999999
vt 0.2928875 0.6173124999999999
vt 0.14644375 1
vt 0.06066249999999998 1
vt 0 0.6173124999999999
vt 0.4142125 0.6173124999999999
vt 0.35355000000000003 1
vt 0 1
vt 0.06066249999999998 0.6173124999999999
vt 0.35355000000000003 0.6173124999999999
vt 0.4142125 1
vt 0.2928875 1
vt 0 1
vt 0.14644375 0.6173124999999999
vt 0.125 0.67224375
vt 0.2348375 0.67224375
vt 0.17991875000000002 0.8125
vt 0.06066249999999998 1
vt 0 0.6173124999999999
vt 0.4142125 0.6173124999999999
vt 0.35355000000000003 1
vt 0 1
vt 0.06066249999999998 0.6173124999999999
vt 0.35355000000000003 0.6173124999999999
vt 0.4142125 1
vt 0.2348375 0.9375
vt 0.125 0.9375
vt 0.17991875000000002 0.79724375
vt 0 0.6173124999999999
vt 0.2928875 0.6173124999999999
vt 0.14644375 1
vt 0.06066249999999998 1
vt 0 0.6173124999999999
vt 0.4142125 0.6173124999999999
vt 0.35355000000000003 1
vt 0 1
vt 0.06066249999999998 0.6173124999999999
vt 0.35355000000000003 0.6173124999999999
vt 0.4142125 1
vt 0.2928875 1
vt 0 1
vt 0.14644375 0.6173124999999999
vt 0.125 0.67224375
vt 0.2348375 0.67224375
vt 0.17991875000000002 0.8125
vt 0.06066249999999998 1
vt 0 0.6173124999999999
vt 0.4142125 0.6173124999999999
vt 0.35355000000000003 1
vt 0 1
vt 0.06066249999999998 0.6173124999999999
vt 0.35355000000000003 0.6173124999999999
vt 0.4142125 1
vt 0.2348375 0.9375
vt 0.125 0.9375
vt 0.17991875000000002 0.79724375
vt 0 0.6173124999999999
vt 0.2928875 0.6173124999999999
vt 0.14644375 1
vt 0.06066249999999998 1
vt 0 0.6173124999999999
vt 0.4142125 0.6173124999999999
vt 0.35355000000000003 1
vt 0 1
vt 0.06066249999999998 0.6173124999999999
vt 0.35355000000000003 0.6173124999999999
vt 0.4142125 1
vt 0.2928875 1
vt 0 1
vt 0.14644375 0.6173124999999999
vt 0.125 0.67224375
vt 0.2348375 0.67224375
vt 0.17991875000000002 0.8125
vt 0.06066249999999998 1
vt 0 0.6173124999999999
vt 0.4142125 0.6173124999999999
vt 0.35355000000000003 1
vt 0 1
vt 0.06066249999999998 0.6173124999999999
vt 0.35355000000000003 0.6173124999999999
vt 0.4142125 1
vt 0.2348375 0.9375
vt 0.125 0.9375
vt 0.17991875000000002 0.79724375
vt 0.11741875 0.95325
vt 0.22725625 0.95325
vt 0.282175 1
vt 0.0625 1
vt 0.09659292634225417 0.7233195006105034
vt 0.09659292634225417 0.8739444811602948
vt 0.0625 0.9375
vt 0.06250000000000001 0.6362500389004174
vt 0.36269444225987724 0.8125
vt 0.212069461710086 0.8125
vt 0.125 0.7784070736577458
vt 0.4262499610995825 0.7784070736577459
vt 0.0625 0.9375
vt 0.1723375 0.9375
vt 0.1723375 1
vt 0.0625 1
vt 0.0000021161953030895964 0.9374959248206892
vt 0.15062621007224564 0.9374959248206891
vt 0.1506260062328451 1
vt 0 0.999994049756736
vt 0.12500000000000006 1
vt 0.125 0.8493759061230575
vt 0.18749812493604678 0.8493737899277543
vt 0.18750407517931095 0.9999997961605994
vt 0.0625 0.9375
vt 0.1723375 0.9375
vt 0.1723375 1
vt 0.0625 1
vt 0 0.9374959248614062
vt 0.15062600635037274 0.9374959248614063
vt 0.15062635904511168 0.9999940498322852
vt 0.000002265285695163266 1
vt 0.125 0.999999647305261
vt 0.125 0.8493736409548884
vt 0.1875040751385938 0.8493759062405835
vt 0.18749812497087903 1
vt 0.0625 0.9375
vt 0.1723375 0.9375
vt 0.1723375 1
vt 0.0625 1
vt 0 0.937501875029121
vt 0.1506260063503727 0.9375018750291211
vt 0.15062635904511174 1
vt 3.526947389975721e-7 1
vt 0.125 0.999999647305261
vt 0.125 0.8493736409548883
vt 0.18749812497087898 0.8493739936496274
vt 0.18749812497087898 1
vt 0.22725625 0.625
vt 0.11741875 0.625
vt 0.0625 0.57825
vt 0.282175 0.57825
vt 0.18750000000000008 0.850430538289914
vt 0.1875 0.6998055577401228
vt 0.22159292634225414 0.6362500389004175
vt 0.22159292634225428 0.9375
vt 0.06355551883970528 0.7784070736577458
vt 0.21418049938949654 0.7784070736577458
vt 0.3012499610995826 0.8124999999999998
vt 0 0.8125
vt 0.1723375 0.8125
vt 0.0625 0.8125
vt 0.0625 0.75
vt 0.1723375 0.75
vt 0.21312409387694253 0.875
vt 0.0625 0.875
vt 0.06250020383940053 0.8124959248206891
vt 0.21312621007224566 0.8125018750639532
vt 0.06250407517931089 0.7868737899277544
vt 0.06250407517931078 0.9374978838046969
vt 0.000005950243263996846 0.9375
vt 0 0.7868739937671549
vt 0.1723375 0.8125
vt 0.0625 0.8125
vt 0.0625 0.75
vt 0.1723375 0.75
vt 0.21312635904511168 0.875
vt 0.06250035269473894 0.875
vt 0.0625 0.812501875029121
vt 0.21312409375941652 0.8124959248614062
vt 0.0625040751385938 0.7868739936496274
vt 0.0625040751385938 0.9375
vt 0 0.9374977347143049
vt 0.00000595016771476331 0.7868736409548884
vt 0.1723375 0.8125
vt 0.0625 0.8125
vt 0.0625 0.75
vt 0.1723375 0.75
vt 0.21312635904511174 0.875
vt 0.06250035269473903 0.875
vt 0.0625 0.812501875029121
vt 0.21312600635037274 0.8125018750291211
vt 0.06249812497087898 0.7868739936496274
vt 0.06249812497087898 0.9375
vt 0 0.937499647305261
vt 0 0.7868736409548883
vt 0.22725625 0.625
vt 0.11741875 0.625
vt 0.0625 0.57825
vt 0.282175 0.57825
vt 0.18750000000000008 0.850430538289914
vt 0.1875 0.6998055577401228
vt 0.22159292634225414 0.6362500389004175
vt 0.22159292634225428 0.9375
vt 0.06355551883970528 0.7784070736577458
vt 0.21418049938949654 0.7784070736577458
vt 0.3012499610995826 0.8124999999999998
vt 0 0.8125
vt 0.1723375 0.8125
vt 0.0625 0.8125
vt 0.0625 0.75
vt 0.1723375 0.75
vt 0.21312409387694253 0.875
vt 0.0625 0.875
vt 0.06250020383940053 0.8124959248206891
vt 0.21312621007224566 0.8125018750639532
vt 0.06250407517931089 0.7868737899277544
vt 0.06250407517931078 0.9374978838046969
vt 0.000005950243263996846 0.9375
vt 0 0.7868739937671549
vt 0.1723375 0.8125
vt 0.0625 0.8125
vt 0.0625 0.75
vt 0.1723375 0.75
vt 0.21312635904511168 0.875
vt 0.06250035269473894 0.875
vt 0.0625 0.812501875029121
vt 0.21312409375941652 0.8124959248614062
vt 0.0625040751385938 0.7868739936496274
vt 0.0625040751385938 0.9375
vt 0 0.9374977347143049
vt 0.00000595016771476331 0.7868736409548884
vt 0.1723375 0.8125
vt 0.0625 0.8125
vt 0.0625 0.75
vt 0.1723375 0.75
vt 0.21312635904511174 0.875
vt 0.06250035269473903 0.875
vt 0.0625 0.812501875029121
vt 0.21312600635037274 0.8125018750291211
vt 0.06249812497087898 0.7868739936496274
vt 0.06249812497087898 0.9375
vt 0 0.937499647305261
vt 0 0.7868736409548883
vt 0.11741875 0.95325
vt 0.22725625 0.95325
vt 0.282175 1
vt 0.0625 1
vt 0.09659292634225417 0.7233195006105034
vt 0.09659292634225417 0.8739444811602948
vt 0.0625 0.9375
vt 0.06250000000000001 0.6362500389004174
vt 0.36269444225987724 0.8125
vt 0.212069461710086 0.8125
vt 0.125 0.7784070736577458
vt 0.4262499610995825 0.7784070736577459
vt 0.0625 0.9375
vt 0.1723375 0.9375
vt 0.1723375 1
vt 0.0625 1
vt 0.0000021161953030895964 0.9374959248206892
vt 0.15062621007224564 0.9374959248206891
vt 0.1506260062328451 1
vt 0 0.999994049756736
vt 0.12500000000000006 1
vt 0.125 0.8493759061230575
vt 0.18749812493604678 0.8493737899277543
vt 0.18750407517931095 0.9999997961605994
vt 0.0625 0.9375
vt 0.1723375 0.9375
vt 0.1723375 1
vt 0.0625 1
vt 0 0.9374959248614062
vt 0.15062600635037274 0.9374959248614063
vt 0.15062635904511168 0.9999940498322852
vt 0.000002265285695163266 1
vt 0.125 0.999999647305261
vt 0.125 0.8493736409548884
vt 0.1875040751385938 0.8493759062405835
vt 0.18749812497087903 1
vt 0.0625 0.9375
vt 0.1723375 0.9375
vt 0.1723375 1
vt 0.0625 1
vt 0 0.937501875029121
vt 0.1506260063503727 0.9375018750291211
vt 0.15062635904511174 1
vt 3.526947389975721e-7 1
vt 0.125 0.999999647305261
vt 0.125 0.8493736409548883
vt 0.18749812497087898 0.8493739936496274
vt 0.18749812497087898 1
vt 0.22725625 0.625
vt 0.11741875 0.625
vt 0.0625 0.57825
vt 0.282175 0.57825
vt 0.18750000000000008 0.850430538289914
vt 0.1875 0.6998055577401228
vt 0.22159292634225414 0.6362500389004175
vt 0.22159292634225428 0.9375
vt 0.06355551883970528 0.7784070736577458
vt 0.21418049938949654 0.7784070736577458
vt 0.3012499610995826 0.8124999999999998
vt 0 0.8125
vt 0.1723375 0.8125
vt 0.0625 0.8125
vt 0.0625 0.75
vt 0.1723375 0.75
vt 0.21312409387694253 0.875
vt 0.0625 0.875
vt 0.06250020383940053 0.8124959248206891
vt 0.21312621007224566 0.8125018750639532
vt 0.06250407517931089 0.7868737899277544
vt 0.06250407517931078 0.9374978838046969
vt 0.000005950243263996846 0.9375
vt 0 0.7868739937671549
vt 0.1723375 0.8125
vt 0.0625 0.8125
vt 0.0625 0.75
vt 0.1723375 0.75
vt 0.21312635904511168 0.875
vt 0.06250035269473894 0.875
vt 0.0625 0.812501875029121
vt 0.21312409375941652 0.8124959248614062
vt 0.0625040751385938 0.7868739936496274
vt 0.0625040751385938 0.9375
vt 0 0.9374977347143049
vt 0.00000595016771476331 0.7868736409548884
vt 0.1723375 0.8125
vt 0.0625 0.8125
vt 0.0625 0.75
vt 0.1723375 0.75
vt 0.21312635904511174 0.875
vt 0.06250035269473903 0.875
vt 0.0625 0.812501875029121
vt 0.21312600635037274 0.8125018750291211
vt 0.06249812497087898 0.7868739936496274
vt 0.06249812497087898 0.9375
vt 0 0.937499647305261
vt 0 0.7868736409548883
vt 0.11741875 0.95325
vt 0.22725625 0.95325
vt 0.282175 1
vt 0.0625 1
vt 0.09659292634225417 0.7233195006105034
vt 0.09659292634225417 0.8739444811602948
vt 0.0625 0.9375
vt 0.06250000000000001 0.6362500389004174
vt 0.36269444225987724 0.8125
vt 0.212069461710086 0.8125
vt 0.125 0.7784070736577458
vt 0.4262499610995825 0.7784070736577459
vt 0.0625 0.9375
vt 0.1723375 0.9375
vt 0.1723375 1
vt 0.0625 1
vt 0.0000021161953030895964 0.9374959248206892
vt 0.15062621007224564 0.9374959248206891
vt 0.1506260062328451 1
vt 0 0.999994049756736
vt 0.12500000000000006 1
vt 0.125 0.8493759061230575
vt 0.18749812493604678 0.8493737899277543
vt 0.18750407517931095 0.9999997961605994
vt 0.0625 0.9375
vt 0.1723375 0.9375
vt 0.1723375 1
vt 0.0625 1
vt 0 0.9374959248614062
vt 0.15062600635037274 0.9374959248614063
vt 0.15062635904511168 0.9999940498322852
vt 0.000002265285695163266 1
vt 0.125 0.999999647305261
vt 0.125 0.8493736409548884
vt 0.1875040751385938 0.8493759062405835
vt 0.18749812497087903 1
vt 0.0625 0.9375
vt 0.1723375 0.9375
vt 0.1723375 1
vt 0.0625 1
vt 0 0.937501875029121
vt 0.1506260063503727 0.9375018750291211
vt 0.15062635904511174 1
vt 3.526947389975721e-7 1
vt 0.125 0.999999647305261
vt 0.125 0.8493736409548883
vt 0.18749812497087898 0.8493739936496274
vt 0.18749812497087898 1
vt 0.22725625 0.625
vt 0.11741875 0.625
vt 0.0625 0.57825
vt 0.282175 0.57825
vt 0.18750000000000008 0.850430538289914
vt 0.1875 0.6998055577401228
vt 0.22159292634225414 0.6362500389004175
vt 0.22159292634225428 0.9375
vt 0.06355551883970528 0.7784070736577458
vt 0.21418049938949654 0.7784070736577458
vt 0.3012499610995826 0.8124999999999998
vt 0 0.8125
vt 0.1723375 0.8125
vt 0.0625 0.8125
vt 0.0625 0.75
vt 0.1723375 0.75
vt 0.21312409387694253 0.875
vt 0.0625 0.875
vt 0.06250020383940053 0.8124959248206891
vt 0.21312621007224566 0.8125018750639532
vt 0.06250407517931089 0.7868737899277544
vt 0.06250407517931078 0.9374978838046969
vt 0.000005950243263996846 0.9375
vt 0 0.7868739937671549
vt 0.1723375 0.8125
vt 0.0625 0.8125
vt 0.0625 0.75
vt 0.1723375 0.75
vt 0.21312635904511168 0.875
vt 0.06250035269473894 0.875
vt 0.0625 0.812501875029121
vt 0.21312409375941652 0.8124959248614062
vt 0.0625040751385938 0.7868739936496274
vt 0.0625040751385938 0.9375
vt 0 0.9374977347143049
vt 0.00000595016771476331 0.7868736409548884
vt 0.1723375 0.8125
vt 0.0625 0.8125
vt 0.0625 0.75
vt 0.1723375 0.75
vt 0.21312635904511174 0.875
vt 0.06250035269473903 0.875
vt 0.0625 0.812501875029121
vt 0.21312600635037274 0.8125018750291211
vt 0.06249812497087898 0.7868739936496274
vt 0.06249812497087898 0.9375
vt 0 0.937499647305261
vt 0 0.7868736409548883
vt 0.11741875 0.95325
vt 0.22725625 0.95325
vt 0.282175 1
vt 0.0625 1
vt 0.09659292634225417 0.7233195006105034
vt 0.09659292634225417 0.8739444811602948
vt 0.0625 0.9375
vt 0.06250000000000001 0.6362500389004174
vt 0.36269444225987724 0.8125
vt 0.212069461710086 0.8125
vt 0.125 0.7784070736577458
vt 0.4262499610995825 0.7784070736577459
vt 0.0625 0.9375
vt 0.1723375 0.9375
vt 0.1723375 1
vt 0.0625 1
vt 0.0000021161953030895964 0.9374959248206892
vt 0.15062621007224564 0.9374959248206891
vt 0.1506260062328451 1
vt 0 0.999994049756736
vt 0.12500000000000006 1
vt 0.125 0.8493759061230575
vt 0.18749812493604678 0.8493737899277543
vt 0.18750407517931095 0.9999997961605994
vt 0.0625 0.9375
vt 0.1723375 0.9375
vt 0.1723375 1
vt 0.0625 1
vt 0 0.9374959248614062
vt 0.15062600635037274 0.9374959248614063
vt 0.15062635904511168 0.9999940498322852
vt 0.000002265285695163266 1
vt 0.125 0.999999647305261
vt 0.125 0.8493736409548884
vt 0.1875040751385938 0.8493759062405835
vt 0.18749812497087903 1
vt 0.0625 0.9375
vt 0.1723375 0.9375
vt 0.1723375 1
vt 0.0625 1
vt 0 0.937501875029121
vt 0.1506260063503727 0.9375018750291211
vt 0.15062635904511174 1
vt 3.526947389975721e-7 1
vt 0.125 0.999999647305261
vt 0.125 0.8493736409548883
vt 0.18749812497087898 0.8493739936496274
vt 0.18749812497087898 1
vn 0.23071952147806818 0.9452708632015813 0.23071952147806815
vn 0.6331993600791692 0.445103516938095 0.6331993600791695
vn 0.6331993600791694 -0.44510351693809475 0.6331993600791694
vn 0.23071952147806818 -0.9452708632015813 0.23071952147806818
vn 0.3262866763785147 0.9452708632015812 0
vn 0.895479122709926 0.4451035169380952 0
vn 0.8954791227099262 -0.44510351693809486 0
vn 0.32628667637851494 -0.9452708632015812 0
vn 0.2307195214780682 0.9452708632015813 -0.2307195214780681
vn 0.6331993600791694 0.4451035169380953 -0.6331993600791691
vn 0.6331993600791694 -0.44510351693809486 -0.6331993600791694
vn 0.2307195214780682 -0.9452708632015813 -0.23071952147806818
vn 0 0.9452708632015814 -0.3262866763785147
vn 1.3577392390732035e-16 0.445103516938095 -0.8954791227099262
vn 0 -0.44510351693809486 -0.8954791227099262
vn 0 -0.9452708632015813 -0.32628667637851505
vn -0.23071952147806804 0.9452708632015813 -0.23071952147806823
vn -0.6331993600791691 0.44510351693809513 -0.6331993600791694
vn -0.6331993600791691 -0.44510351693809513 -0.6331993600791695
vn -0.23071952147806818 -0.9452708632015814 -0.23071952147806835
vn -0.3262866763785147 0.9452708632015812 0
vn -0.8954791227099264 0.4451035169380949 -3.168058224504139e-16
vn -0.8954791227099262 -0.4451035169380949 -4.480310907481381e-16
vn -0.32628667637851505 -0.9452708632015813 -1.6490696152514505e-16
vn -0.23071952147806815 0.9452708632015813 0.23071952147806798
vn -0.6331993600791693 0.44510351693809536 0.6331993600791692
vn -0.6331993600791693 -0.445103516938095 0.6331993600791693
vn -0.23071952147806823 -0.9452708632015813 0.23071952147806818
vn -1.6490696152514493e-16 0.9452708632015813 0.3262866763785148
vn -1.3577392390732026e-16 0.4451035169380951 0.8954791227099261
vn -4.480310907481382e-16 -0.4451035169380949 0.8954791227099261
vn -1.6490696152514503e-16 -0.9452708632015812 0.326286676378515
vn 0 -0.9452708632015814 -0.32628667637851466
vn -3.378165507413331e-16 -0.9452708632015812 -0.3262866763785151
vn -1.6890827537066654e-15 -0.9452708632015815 -0.32628667637851433
vn 0 0.32628667637851505 -0.9452708632015813
vn 0.9311670291358455 -0.11896179712398593 0.34463902082520376
vn -0.9311670291358456 -0.11896179712398579 0.34463902082520365
vn 0 0.32628667637851505 -0.9452708632015813
vn 0.9311670291358455 -0.11896179712398593 0.34463902082520376
vn -0.9311670291358455 -0.11896179712398593 0.34463902082520353
vn 0 0.32628667637851466 -0.9452708632015814
vn 0.9311670291358454 -0.11896179712398587 0.34463902082520387
vn -0.9311670291358456 -0.11896179712398597 0.34463902082520365
vn 0 0.9452708632015812 -0.3262866763785148
vn 3.3781655074133323e-16 0.9452708632015814 -0.32628667637851466
vn 1.0134496522239995e-15 0.9452708632015813 -0.3262866763785144
vn 0 -0.32628667637851466 -0.9452708632015814
vn -0.9311670291358454 0.11896179712398583 0.3446390208252039
vn 0.9311670291358454 0.11896179712398583 0.344639020825204
vn 0 -0.32628667637851505 -0.9452708632015813
vn -0.9311670291358456 0.1189617971239859 0.3446390208252038
vn 0.9311670291358454 0.1189617971239858 0.3446390208252039
vn 0 -0.32628667637851466 -0.9452708632015814
vn -0.9311670291358456 0.11896179712398572 0.3446390208252038
vn 0.9311670291358454 0.1189617971239858 0.3446390208252039
vn -0.326286676378515 0.9452708632015812 0
vn -0.3262866763785145 0.9452708632015814 3.378165507413328e-16
vn -0.3262866763785144 0.9452708632015814 -1.0134496522239983e-15
vn -0.9452708632015814 -0.32628667637851466 0
vn 0.3446390208252041 0.11896179712398591 0.9311670291358454
vn 0.3446390208252043 0.11896179712398598 -0.9311670291358453
vn -0.9452708632015814 -0.32628667637851466 0
vn 0.3446390208252041 0.11896179712398591 0.9311670291358454
vn 0.3446390208252043 0.11896179712398598 -0.9311670291358453
vn -0.9452708632015814 -0.32628667637851466 0
vn 0.3446390208252041 0.11896179712398591 0.9311670291358454
vn 0.3446390208252043 0.11896179712398598 -0.9311670291358453
vn -0.32628667637851483 -0.9452708632015812 -1.6490696152514493e-16
vn -0.3262866763785151 -0.945270863201581 0
vn -0.32628667637851433 -0.9452708632015814 1.6890827537066629e-15
vn -0.9452708632015813 0.32628667637851505 -4.777447476524913e-16
vn 0.3446390208252043 -0.11896179712398594 -0.9311670291358453
vn 0.3446390208252038 -0.11896179712398611 0.9311670291358455
vn -0.9452708632015813 0.32628667637851505 -4.777447476524913e-16
vn 0.34463902082520426 -0.11896179712398594 -0.9311670291358453
vn 0.3446390208252038 -0.11896179712398629 0.9311670291358455
vn -0.9452708632015813 0.3262866763785146 -4.777447476524913e-16
vn 0.34463902082520437 -0.1189617971239859 -0.9311670291358453
vn 0.34463902082520387 -0.11896179712398613 0.9311670291358455
vn -1.6490696152514495e-16 0.9452708632015812 0.32628667637851483
vn -3.378165507413329e-16 0.9452708632015814 0.32628667637851466
vn -1.3512662029653306e-15 0.9452708632015814 0.3262866763785142
vn -4.777447476524915e-16 -0.32628667637851466 0.9452708632015814
vn 0.9311670291358456 0.11896179712398594 -0.34463902082520387
vn -0.9311670291358451 0.11896179712398584 -0.34463902082520464
vn -4.777447476524915e-16 -0.32628667637851466 0.9452708632015814
vn 0.9311670291358456 0.11896179712398594 -0.34463902082520387
vn -0.9311670291358451 0.11896179712398594 -0.3446390208252046
vn -4.777447476524915e-16 -0.32628667637851466 0.9452708632015814
vn 0.9311670291358454 0.11896179712398591 -0.3446390208252039
vn -0.9311670291358451 0.11896179712398594 -0.3446390208252046
vn -1.6490696152514495e-16 -0.9452708632015812 0.32628667637851483
vn 0 -0.945270863201581 0.3262866763785151
vn 1.6890827537066635e-15 -0.9452708632015814 0.32628667637851433
vn -4.777447476524914e-16 0.32628667637851505 0.9452708632015813
vn -0.9311670291358453 -0.11896179712398604 -0.3446390208252044
vn 0.9311670291358455 -0.1189617971239862 -0.34463902082520376
vn -4.777447476524914e-16 0.32628667637851505 0.9452708632015813
vn -0.9311670291358453 -0.11896179712398604 -0.3446390208252043
vn 0.9311670291358455 -0.11896179712398618 -0.34463902082520365
vn -4.777447476524915e-16 0.32628667637851466 0.9452708632015814
vn -0.9311670291358453 -0.11896179712398586 -0.3446390208252043
vn 0.9311670291358455 -0.11896179712398611 -0.34463902082520376
vn 0.326286676378515 0.9452708632015812 0
vn 0.3262866763785146 0.9452708632015814 -3.37816550741333e-16
vn 0.32628667637851433 0.9452708632015815 1.0134496522239993e-15
vn 0.9452708632015814 -0.32628667637851466 0
vn -0.3446390208252039 0.11896179712398583 -0.9311670291358454
vn -0.344639020825204 0.11896179712398591 0.9311670291358454
vn 0.9452708632015814 -0.32628667637851466 0
vn -0.3446390208252039 0.11896179712398583 -0.9311670291358454
vn -0.344639020825204 0.11896179712398591 0.9311670291358454
vn 0.9452708632015814 -0.32628667637851466 0
vn -0.3446390208252039 0.11896179712398583 -0.9311670291358454
vn -0.344639020825204 0.11896179712398591 0.9311670291358454
vn 0.32628667637851466 -0.9452708632015814 0
vn 0.32628667637851516 -0.9452708632015812 -3.378165507413331e-16
vn 0.32628667637851433 -0.9452708632015815 -1.6890827537066652e-15
vn 0.9452708632015813 0.32628667637851505 0
vn -0.34463902082520376 -0.11896179712398593 0.9311670291358455
vn -0.3446390208252037 -0.11896179712398589 -0.9311670291358456
vn 0.9452708632015813 0.32628667637851505 0
vn -0.34463902082520376 -0.11896179712398593 0.9311670291358455
vn -0.3446390208252036 -0.11896179712398583 -0.9311670291358455
vn 0.9452708632015814 0.3262866763785146 0
vn -0.3446390208252039 -0.11896179712398587 0.9311670291358454
vn -0.3446390208252037 -0.11896179712398607 -0.9311670291358456
usemtl m_b7f2aeb7-df59-2a2d-9e79-afbcb2919ef7
f 113/465/121 116/466/121 112/467/121
f 113/468/122 114/469/122 117/470/122 116/471/122
f 114/472/123 115/473/123 118/474/123 117/475/123
f 118/476/124 115/477/124 111/478/124
f 218/479/125 219/480/125 220/481/125
f 116/482/126 117/483/126 120/484/126 119/485/126
f 117/486/127 118/487/127 121/488/127 120/489/127
f 230/490/128 231/491/128 232/492/128
f 119/493/129 122/494/129 112/495/129
f 119/496/130 120/497/130 123/498/130 122/499/130
f 120/500/131 121/501/131 124/502/131 123/503/131
f 124/504/132 121/505/132 111/506/132
f 158/507/133 159/508/133 160/509/133
f 122/510/134 123/511/134 126/512/134 125/513/134
f 123/514/135 124/515/135 127/516/135 126/517/135
f 146/518/136 147/519/136 148/520/136
f 125/521/137 128/522/137 112/523/137
f 125/524/138 126/525/138 129/526/138 128/527/138
f 126/528/139 127/529/139 130/530/139 129/531/139
f 130/532/140 127/533/140 111/534/140
f 170/535/141 171/536/141 172/537/141
f 128/538/142 129/539/142 132/540/142 131/541/142
f 129/542/143 130/543/143 133/544/143 132/545/143
f 182/546/144 183/547/144 184/548/144
f 131/549/145 134/550/145 112/551/145
f 131/552/146 132/553/146 135/554/146 134/555/146
f 132/556/147 133/557/147 136/558/147 135/559/147
f 136/560/148 133/561/148 111/562/148
f 194/563/149 195/564/149 196/565/149
f 134/566/150 135/567/150 114/568/150 113/569/150
f 135/570/151 136/571/151 115/572/151 114/573/151
f 206/574/152 207/575/152 208/576/152
f 138/577/153 137/578/153 127/579/153 124/580/153
f 139/581/154 138/582/154 124/583/154 111/584/154
f 137/585/155 139/586/155 111/587/155 127/588/155
f 141/589/156 140/590/156 137/591/156 138/592/156
f 142/593/157 141/594/157 138/595/157 139/596/157
f 140/597/158 142/598/158 139/599/158 137/600/158
f 144/601/159 143/602/159 140/603/159 141/604/159
f 145/605/160 144/606/160 141/607/160 142/608/160
f 143/609/161 145/610/161 142/611/161 140/612/161
f 147/613/162 146/614/162 143/615/162 144/616/162
f 148/617/163 147/618/163 144/619/163 145/620/163
f 146/621/164 148/622/164 145/623/164 143/624/164
f 150/625/165 149/626/165 122/627/165 125/628/165
f 151/629/166 150/630/166 125/631/166 112/632/166
f 149/633/167 151/634/167 112/635/167 122/636/167
f 153/637/168 152/638/168 149/639/168 150/640/168
f 154/641/169 153/642/169 150/643/169 151/644/169
f 152/645/170 154/646/170 151/647/170 149/648/170
f 156/649/171 155/650/171 152/651/171 153/652/171
f 157/653/172 156/654/172 153/655/172 154/656/172
f 155/657/173 157/658/173 154/659/173 152/660/173
f 159/661/174 158/662/174 155/663/174 156/664/174
f 160/665/175 159/666/175 156/667/175 157/668/175
f 158/669/176 160/670/176 157/671/176 155/672/176
f 162/673/177 161/674/177 128/675/177 131/676/177
f 163/677/178 162/678/178 131/679/178 112/680/178
f 161/681/179 163/682/179 112/683/179 128/684/179
f 165/685/180 164/686/180 161/687/180 162/688/180
f 166/689/181 165/690/181 162/691/181 163/692/181
f 164/693/182 166/694/182 163/695/182 161/696/182
f 168/697/183 167/698/183 164/699/183 165/700/183
f 169/701/184 168/702/184 165/703/184 166/704/184
f 167/705/185 169/706/185 166/707/185 164/708/185
f 171/709/186 170/710/186 167/711/186 168/712/186
f 172/713/187 171/714/187 168/715/187 169/716/187
f 170/717/188 172/718/188 169/719/188 167/720/188
f 174/721/189 173/722/189 133/723/189 130/724/189
f 175/725/190 174/726/190 130/727/190 111/728/190
f 173/729/191 175/730/191 111/731/191 133/732/191
f 177/733/192 176/734/192 173/735/192 174/736/192
f 178/737/193 177/738/193 174/739/193 175/740/193
f 176/741/194 178/742/194 175/743/194 173/744/194
f 180/745/195 179/746/195 176/747/195 177/748/195
f 181/749/196 180/750/196 177/751/196 178/752/196
f 179/753/197 181/754/197 178/755/197 176/756/197
f 183/757/198 182/758/198 179/759/198 180/760/198
f 184/761/199 183/762/199 180/763/199 181/764/199
f 182/765/200 184/766/200 181/767/200 179/768/200
f 186/769/201 185/770/201 134/771/201 113/772/201
f 187/773/202 186/774/202 113/775/202 112/776/202
f 185/777/203 187/778/203 112/779/203 134/780/203
f 189/781/204 188/782/204 185/783/204 186/784/204
f 190/785/205 189/786/205 186/787/205 187/788/205
f 188/789/206 190/790/206 187/791/206 185/792/206
f 192/793/207 191/794/207 188/795/207 189/796/207
f 193/797/208 192/798/208 189/799/208 190/800/208
f 191/801/209 193/802/209 190/803/209 188/804/209
f 195/805/210 194/806/210 191/807/210 192/808/210
f 196/809/211 195/810/211 192/811/211 193/812/211
f 194/813/212 196/814/212 193/815/212 191/816/212
f 198/817/213 197/818/213 115/819/213 136/820/213
f 199/821/214 198/822/214 136/823/214 111/824/214
f 197/825/215 199/826/215 111/827/215 115/828/215
f 201/829/216 200/830/216 197/831/216 198/832/216
f 202/833/217 201/834/217 198/835/217 199/836/217
f 200/837/218 202/838/218 199/839/218 197/840/218
f 204/841/219 203/842/219 200/843/219 201/844/219
f 205/845/220 204/846/220 201/847/220 202/848/220
f 203/849/221 205/850/221 202/851/221 200/852/221
f 207/853/222 206/854/222 203/855/222 204/856/222
f 208/857/223 207/858/223 204/859/223 205/860/223
f 206/861/224 208/862/224 205/863/224 203/864/224
f 210/865/225 209/866/225 116/867/225 119/868/225
f 211/869/226 210/870/226 119/871/226 112/872/226
f 209/873/227 211/874/227 112/875/227 116/876/227
f 213/877/228 212/878/228 209/879/228 210/880/228
f 214/881/229 213/882/229 210/883/229 211/884/229
f 212/885/230 214/886/230 211/887/230 209/888/230
f 216/889/231 215/890/231 212/891/231 213/892/231
f 217/893/232 216/894/232 213/895/232 214/896/232
f 215/897/233 217/898/233 214/899/233 212/900/233
f 219/901/234 218/902/234 215/903/234 216/904/234
f 220/905/235 219/906/235 216/907/235 217/908/235
f 218/909/236 220/910/236 217/911/236 215/912/236
f 222/913/237 221/914/237 121/915/237 118/916/237
f 223/917/238 222/918/238 118/919/238 111/920/238
f 221/921/239 223/922/239 111/923/239 121/924/239
f 225/925/240 224/926/240 221/927/240 222/928/240
f 226/929/241 225/930/241 222/931/241 223/932/241
f 224/933/242 226/934/242 223/935/242 221/936/242
f 228/937/243 227/938/243 224/939/243 225/940/243
f 229/941/244 228/942/244 225/943/244 226/944/244
f 227/945/245 229/946/245 226/947/245 224/948/245
f 231/949/246 230/950/246 227/951/246 228/952/246
f 232/953/247 231/954/247 228/955/247 229/956/247
f 230/957/248 232/958/248 229/959/248 227/960/248
o cylinder_selection
v 0.2959550858899107 0.5 -0.375
v -0.2959550858899104 0.5 -0.3750000000000001
v -0.3749999999999999 0.5 -0.2959550858899108
v -0.375 0.5 0.2959550858899107
v -0.2959550858899108 0.5 0.3749999999999999
v 0.2959550858899106 0.5 0.375
v 0.375 0.5 0.2959550858899106
v 0.375 0.5 -0.2959550858899104
v -0.2959550858899104 0.5625 -0.3750000000000001
v -0.3749999999999999 0.5625 -0.2959550858899108
v 0 0.5625 0
v 0.2959550858899107 0.5625 -0.375
v 0.375 0.5625 -0.2959550858899104
v 0.375 0.5625 0.2959550858899106
v 0.2959550858899106 0.5625 0.375
v -0.2959550858899108 0.5625 0.3749999999999999
v -0.375 0.5625 0.2959550858899107
v 0.375 -0.5 -0.2959550858899104
v 0.375 -0.5 0.2959550858899106
v 0.2959550858899106 -0.5 0.375
v -0.2959550858899108 -0.5 0.3749999999999999
v -0.375 -0.5 0.2959550858899107
v -0.3749999999999999 -0.5 -0.2959550858899108
v -0.2959550858899104 -0.5 -0.3750000000000001
v 0.2959550858899107 -0.5 -0.375
v 0.375 -0.5625 -0.2959550858899104
v 0.375 -0.5625 0.2959550858899106
v 0 -0.5625 0
v 0.2959550858899106 -0.5625 0.375
v -0.2959550858899108 -0.5625 0.3749999999999999
v -0.375 -0.5625 0.2959550858899107
v -0.3749999999999999 -0.5625 -0.2959550858899108
v -0.2959550858899104 -0.5625 -0.3750000000000001
v 0.2959550858899107 -0.5625 -0.375
vt 0.06250000000000025 0.5222813569536328
vt 0.17351701568048303 0.5353600058717912
vt 0.0625 1
vt 0.4375 0.40808750000000005
vt 0.4375 1
vt 0.0625 0.7040437500000001
vt 0.4777186430463673 0.6389829843195172
vt 0.4646399941282089 0.75
vt 0 0.6389829843195174
vt 0.5919125 0.9375
vt 0 0.9375
vt 0.29595625 0.5625
vt 0.3610170156804828 0.875
vt 0.25 0.8619213510818415
vt 0.3610170156804828 0.39728135695363265
vt 0.0625 1
vt 0.0625 0.40808750000000005
vt 0.4375 0.7040437500000001
vt 0.125 0.9374999999999998
vt 0.13807864891815846 0.826482984319517
vt 0.6027186430463672 0.9375
vt 0 0.5625
vt 0.5919125 0.5625
vt 0.29595625 0.9375
vt 0.23678749999999998 0.9375
vt 0.125 0.9375
vt 0.125 0.875
vt 0.23678749999999998 0.875
vt 0.5919125 1
vt 0 1
vt 0 0.9375
vt 0.5919125 0.9375
vt 0.3617875 0.875
vt 0.25 0.875
vt 0.25 0.8125
vt 0.3617875 0.8125
vt 0.5919125 0.875
vt 0 0.875
vt 0 0.8125
vt 0.5919125 0.8125
vt 0.17428749999999998 0.8125
vt 0.0625 0.8125
vt 0.0625 0.75
vt 0.17428749999999998 0.75
vt 0.5919125 0.8125
vt 0 0.8125
vt 0 0.75
vt 0.5919125 0.75
vt 0.17428749999999998 1
vt 0.0625 1
vt 0.0625 0.9375
vt 0.17428749999999998 0.9375
vt 0.5919125 0.875
vt 0 0.875
vt 0 0.8125
vt 0.5919125 0.8125
vt 0.4777186430463673 0.6389829843195172
vt 0.4646399941282089 0.75
vt 0 0.6389829843195174
vt 0.4375 0.40808750000000005
vt 0.4375 1
vt 0.0625 0.7040437500000001
vt 0.06250000000000025 0.5222813569536328
vt 0.17351701568048303 0.5353600058717912
vt 0.0625 1
vt 0 0.5625
vt 0.5919125 0.5625
vt 0.29595625 0.9375
vt 0.125 0.9374999999999998
vt 0.13807864891815846 0.826482984319517
vt 0.6027186430463672 0.9375
vt 0.0625 1
vt 0.0625 0.40808750000000005
vt 0.4375 0.7040437500000001
vt 0.3610170156804828 0.875
vt 0.25 0.8619213510818415
vt 0.3610170156804828 0.39728135695363265
vt 0.5919125 0.9375
vt 0 0.9375
vt 0.29595625 0.5625
vt 0 0.8125
vt 0.5919125 0.8125
vt 0.5919125 0.875
vt 0 0.875
vt 0.25 0.8125
vt 0.3617875 0.8125
vt 0.3617875 0.875
vt 0.25 0.875
vt 0 0.9375
vt 0.5919125 0.9375
vt 0.5919125 1
vt 0 1
vt 0.125 0.875
vt 0.23678749999999998 0.875
vt 0.23678749999999998 0.9375
vt 0.125 0.9375
vt 0 0.8125
vt 0.5919125 0.8125
vt 0.5919125 0.875
vt 0 0.875
vt 0.0625 0.9375
vt 0.17428749999999998 0.9375
vt 0.17428749999999998 1
vt 0.0625 1
vt 0 0.75
vt 0.5919125 0.75
vt 0.5919125 0.8125
vt 0 0.8125
vt 0.0625 0.75
vt 0.17428749999999998 0.75
vt 0.17428749999999998 0.8125
vt 0.0625 0.8125
vn 0 1 0
vn 0 1 0
vn 0 1 0
vn 0 1 0
vn 0 1 0
vn 0 1 0
vn 0 1 0
vn 0 1 0
vn -0.7071067811865466 0 -0.7071067811865486
vn 1.8756613377445685e-16 0 -1
vn 0.707106781186549 0 -0.707106781186546
vn 1 0 0
vn 0.7071067811865476 0 0.7071067811865476
vn -1.8756613377445675e-16 0 1
vn -0.7071067811865476 0 0.7071067811865476
vn -1 0 -1.875661337744567e-16
vn 0 -1 0
vn 0 -1 0
vn 0 -1 0
vn 0 -1 0
vn 0 -1 0
vn 0 -1 0
vn 0 -1 0
vn 0 -1 0
vn 1 0 0
vn 0.7071067811865476 0 0.7071067811865476
vn -1.8756613377445675e-16 0 1
vn -0.7071067811865476 0 0.7071067811865476
vn -1 0 -1.875661337744567e-16
vn -0.7071067811865466 0 -0.7071067811865486
vn 1.8756613377445685e-16 0 -1
vn 0.707106781186549 0 -0.707106781186546
usemtl m_fa202c05-4d41-265e-168c-7a24f230fa2a
f 247/961/249 246/962/249 243/963/249
f 246/964/250 245/965/250 243/966/250
f 245/967/251 244/968/251 243/969/251
f 244/970/252 241/971/252 243/972/252
f 241/973/253 242/974/253 243/975/253
f 242/976/254 249/977/254 243/978/254
f 249/979/255 248/980/255 243/981/255
f 248/982/256 247/983/256 243/984/256
f 242/985/257 241/986/257 234/987/257 235/988/257
f 241/989/258 244/990/258 233/991/258 234/992/258
f 244/993/259 245/994/259 240/995/259 233/996/259
f 245/997/260 246/998/260 239/999/260 240/1000/260
f 246/1001/261 247/1002/261 238/1003/261 239/1004/261
f 247/1005/262 248/1006/262 237/1007/262 238/1008/262
f 248/1009/263 249/1010/263 236/1011/263 237/1012/263
f 249/1013/264 242/1014/264 235/1015/264 236/1016/264
f 259/1017/265 261/1018/265 260/1019/265
f 258/1020/266 259/1021/266 260/1022/266
f 266/1023/267 258/1024/267 260/1025/267
f 265/1026/268 266/1027/268 260/1028/268
f 264/1029/269 265/1030/269 260/1031/269
f 263/1032/270 264/1033/270 260/1034/270
f 262/1035/271 263/1036/271 260/1037/271
f 261/1038/272 262/1039/272 260/1040/272
f 259/1041/273 258/1042/273 250/1043/273 251/1044/273
f 261/1045/274 259/1046/274 251/1047/274 252/1048/274
f 262/1049/275 261/1050/275 252/1051/275 253/1052/275
f 263/1053/276 262/1054/276 253/1055/276 254/1056/276
f 264/1057/277 263/1058/277 254/1059/277 255/1060/277
f 265/1061/278 264/1062/278 255/1063/278 256/1064/278
f 266/1065/279 265/1066/279 256/1067/279 257/1068/279
f 258/1069/280 266/1070/280 257/1071/280 250/1072/280
o sphere
v 6.938893903907228e-18 -0.5 -1.3877787807814457e-17
v 6.938893903907228e-18 0.5 -1.3877787807814457e-17
v 0.10983495705504469 0.3535533905932738 0.2651650429449553
v 0.15533008588991068 3.061616997868383e-17 0.37499999999999994
v 0.1098349570550447 -0.35355339059327373 0.26516504294495535
v 0.26516504294495535 0.3535533905932738 0.10983495705504469
v 0.375 3.061616997868383e-17 0.15533008588991065
v 0.26516504294495535 -0.35355339059327373 0.1098349570550447
v 0.26516504294495535 0.3535533905932738 -0.10983495705504467
v 0.375 3.061616997868383e-17 -0.15533008588991065
v 0.26516504294495535 -0.35355339059327373 -0.1098349570550447
v 0.10983495705504473 0.3535533905932738 -0.26516504294495535
v 0.1553300858899107 3.061616997868383e-17 -0.375
v 0.10983495705504473 -0.35355339059327373 -0.2651650429449554
v -0.10983495705504465 0.3535533905932738 -0.26516504294495535
v -0.15533008588991062 3.061616997868383e-17 -0.37500000000000006
v -0.10983495705504465 -0.35355339059327373 -0.2651650429449554
v -0.26516504294495524 0.3535533905932738 -0.10983495705504487
v -0.3749999999999999 3.061616997868383e-17 -0.1553300858899109
v -0.26516504294495524 -0.35355339059327373 -0.10983495705504488
v -0.26516504294495524 0.3535533905932738 0.10983495705504473
v -0.375 3.061616997868383e-17 0.15533008588991074
v -0.26516504294495535 -0.35355339059327373 0.10983495705504476
v -0.10983495705504487 0.3535533905932738 0.26516504294495524
v -0.1553300858899109 3.061616997868383e-17 0.3749999999999999
v -0.10983495705504487 -0.35355339059327373 0.2651650429449553
vt 0 0.6173124999999999
vt 0.2928875 0.6173124999999999
vt 0.14644375 1
vt 0.06066249999999998 1
vt 0 0.6173124999999999
vt 0.4142125 0.6173124999999999
vt 0.35355000000000003 1
vt 0 1
vt 0.06066249999999998 0.6173124999999999
vt 0.35355000000000003 0.6173124999999999
vt 0.4142125 1
vt 0.2928875 1
vt 0 1
vt 0.14644375 0.6173124999999999
vt 0 0.6173124999999999
vt 0.2928875 0.6173124999999999
vt 0.14644375 1
vt 0.06066249999999998 1
vt 0 0.6173124999999999
vt 0.4142125 0.6173124999999999
vt 0.35355000000000003 1
vt 0 1
vt 0.06066249999999998 0.6173124999999999
vt 0.35355000000000003 0.6173124999999999
vt 0.4142125 1
vt 0.2928875 1
vt 0 1
vt 0.14644375 0.6173124999999999
vt 0 0.6173124999999999
vt 0.2928875 0.6173124999999999
vt 0.14644375 1
vt 0.06066249999999998 1
vt 0 0.6173124999999999
vt 0.4142125 0.6173124999999999
vt 0.35355000000000003 1
vt 0 1
vt 0.06066249999999998 0.6173124999999999
vt 0.35355000000000003 0.6173124999999999
vt 0.4142125 1
vt 0.2928875 1
vt 0 1
vt 0.14644375 0.6173124999999999
vt 0 0.6173124999999999
vt 0.2928875 0.6173124999999999
vt 0.14644375 1
vt 0.06066249999999998 1
vt 0 0.6173124999999999
vt 0.4142125 0.6173124999999999
vt 0.35355000000000003 1
vt 0 1
vt 0.06066249999999998 0.6173124999999999
vt 0.35355000000000003 0.6173124999999999
vt 0.4142125 1
vt 0.2928875 1
vt 0 1
vt 0.14644375 0.6173124999999999
vt 0 0.6173124999999999
vt 0.2928875 0.6173124999999999
vt 0.14644375 1
vt 0.06066249999999998 1
vt 0 0.6173124999999999
vt 0.4142125 0.6173124999999999
vt 0.35355000000000003 1
vt 0 1
vt 0.06066249999999998 0.6173124999999999
vt 0.35355000000000003 0.6173124999999999
vt 0.4142125 1
vt 0.2928875 1
vt 0 1
vt 0.14644375 0.6173124999999999
vt 0 0.6173124999999999
vt 0.2928875 0.6173124999999999
vt 0.14644375 1
vt 0.06066249999999998 1
vt 0 0.6173124999999999
vt 0.4142125 0.6173124999999999
vt 0.35355000000000003 1
vt 0 1
vt 0.06066249999999998 0.6173124999999999
vt 0.35355000000000003 0.6173124999999999
vt 0.4142125 1
vt 0.2928875 1
vt 0 1
vt 0.14644375 0.6173124999999999
vt 0 0.6173124999999999
vt 0.2928875 0.6173124999999999
vt 0.14644375 1
vt 0.06066249999999998 1
vt 0 0.6173124999999999
vt 0.4142125 0.6173124999999999
vt 0.35355000000000003 1
vt 0 1
vt 0.06066249999999998 0.6173124999999999
vt 0.35355000000000003 0.6173124999999999
vt 0.4142125 1
vt 0.2928875 1
vt 0 1
vt 0.14644375 0.6173124999999999
vt 0 0.6173124999999999
vt 0.2928875 0.6173124999999999
vt 0.14644375 1
vt 0.06066249999999998 1
vt 0 0.6173124999999999
vt 0.4142125 0.6173124999999999
vt 0.35355000000000003 1
vt 0 1
vt 0.06066249999999998 0.6173124999999999
vt 0.35355000000000003 0.6173124999999999
vt 0.4142125 1
vt 0.2928875 1
vt 0 1
vt 0.14644375 0.6173124999999999
vn 0.3418532620943642 0.8753700328380473 0.3418532620943643
vn 0.675272019683647 0.29667389312970666 0.675272019683647
vn 0.675272019683647 -0.2966738931297065 0.6752720196836471
vn 0.3418532620943643 -0.8753700328380472 0.3418532620943643
vn 0.4834535195953342 0.8753700328380474 0
vn 0.9549788485276853 0.2966738931297066 0
vn 0.9549788485276853 -0.29667389312970655 0
vn 0.48345351959533434 -0.8753700328380472 0
vn 0.34185326209436434 0.8753700328380473 -0.3418532620943642
vn 0.6752720196836471 0.2966738931297066 -0.6752720196836468
vn 0.6752720196836473 -0.29667389312970655 -0.6752720196836467
vn 0.3418532620943644 -0.8753700328380474 -0.34185326209436423
vn 0 0.8753700328380473 -0.4834535195953342
vn 1.2066280332022487e-16 0.2966738931297066 -0.9549788485276853
vn 0 -0.2966738931297064 -0.9549788485276852
vn 0 -0.8753700328380472 -0.4834535195953342
vn -0.3418532620943641 0.8753700328380474 -0.3418532620943644
vn -0.6752720196836468 0.29667389312970677 -0.6752720196836471
vn -0.6752720196836469 -0.29667389312970655 -0.675272019683647
vn -0.34185326209436423 -0.8753700328380472 -0.3418532620943644
vn -0.48345351959533445 0.8753700328380473 0
vn -0.9549788485276853 0.29667389312970666 -3.016570083005619e-16
vn -0.9549788485276853 -0.29667389312970666 -4.266074323235477e-16
vn -0.48345351959533445 -0.8753700328380472 -2.4433989104298403e-16
vn -0.3418532620943644 0.8753700328380472 0.34185326209436406
vn -0.675272019683647 0.2966738931297068 0.6752720196836468
vn -0.6752720196836471 -0.29667389312970655 0.6752720196836469
vn -0.34185326209436434 -0.8753700328380472 0.34185326209436423
vn -1.2216994552149201e-16 0.8753700328380473 0.48345351959533434
vn -1.2066280332022474e-16 0.29667389312970666 0.9549788485276853
vn -2.5596445939412875e-16 -0.29667389312970643 0.9549788485276853
vn -1.2216994552149204e-16 -0.8753700328380473 0.48345351959533445
usemtl m_1ac8c34b-c646-518d-8070-660921547cd4
f 269/1073/281 272/1074/281 268/1075/281
f 269/1076/282 270/1077/282 273/1078/282 272/1079/282
f 270/1080/283 271/1081/283 274/1082/283 273/1083/283
f 274/1084/284 271/1085/284 267/1086/284
f 272/1087/285 275/1088/285 268/1089/285
f 272/1090/286 273/1091/286 276/1092/286 275/1093/286
f 273/1094/287 274/1095/287 277/1096/287 276/1097/287
f 277/1098/288 274/1099/288 267/1100/288
f 275/1101/289 278/1102/289 268/1103/289
f 275/1104/290 276/1105/290 279/1106/290 278/1107/290
f 276/1108/291 277/1109/291 280/1110/291 279/1111/291
f 280/1112/292 277/1113/292 267/1114/292
f 278/1115/293 281/1116/293 268/1117/293
f 278/1118/294 279/1119/294 282/1120/294 281/1121/294
f 279/1122/295 280/1123/295 283/1124/295 282/1125/295
f 283/1126/296 280/1127/296 267/1128/296
f 281/1129/297 284/1130/297 268/1131/297
f 281/1132/298 282/1133/298 285/1134/298 284/1135/298
f 282/1136/299 283/1137/299 286/1138/299 285/1139/299
f 286/1140/300 283/1141/300 267/1142/300
f 284/1143/301 287/1144/301 268/1145/301
f 284/1146/302 285/1147/302 288/1148/302 287/1149/302
f 285/1150/303 286/1151/303 289/1152/303 288/1153/303
f 289/1154/304 286/1155/304 267/1156/304
f 287/1157/305 290/1158/305 268/1159/305
f 287/1160/306 288/1161/306 291/1162/306 290/1163/306
f 288/1164/307 289/1165/307 292/1166/307 291/1167/307
f 292/1168/308 289/1169/308 267/1170/308
f 290/1171/309 269/1172/309 268/1173/309
f 290/1174/310 291/1175/310 270/1176/310 269/1177/310
f 291/1178/311 292/1179/311 271/1180/311 270/1181/311
f 271/1182/312 292/1183/312 267/1184/312