# Made in Blockbench 4.7.4
mtllib MDS.mtl

o cylinder
v 1.625 4.163336342344337e-17 -3.585095183685401e-16
v -1.625 4.163336342344337e-17 3.6313544763781163e-16
v 1.625 -0.12499999999999993 0.05177669529663656
v -1.625 -0.12499999999999993 0.05177669529663728
v 1.625 -0.051776695296636824 0.12499999999999965
v -1.625 -0.051776695296636824 0.12500000000000036
v 1.625 0.05177669529663695 0.12499999999999963
v -1.625 0.05177669529663695 0.12500000000000036
v 1.625 0.12500000000000003 0.05177669529663652
v -1.625 0.12500000000000003 0.05177669529663724
v 1.625 0.12500000000000006 -0.05177669529663726
v -1.625 0.12500000000000006 -0.05177669529663654
v 1.625 0.051776695296636976 -0.12500000000000033
v -1.625 0.051776695296636976 -0.12499999999999963
v 1.625 -0.0517766952966369 -0.12500000000000036
v -1.625 -0.0517766952966369 -0.12499999999999963
v 1.625 -0.12499999999999993 -0.051776695296637296
v -1.625 -0.12499999999999993 -0.051776695296636574
vt 0.5411958968701283 0.6173160173447557
vt 0.38268259459790344 1
vt 0 0.6173160173447558
vt 0 0
vt 0.4142125 0
vt 0.4142125 1
vt 0 1
vt 0 0.45880410312987174
vt 0.3826839826552443 0.6173174054020966
vt 1.1102230246251565e-16 1
vt 0.5 0.5857875
vt 0.5 1
vt 0 0.79289375
vt 0 0
vt 0.4142125 0
vt 0.4142125 1
vt 0 1
vt 0.5 0.5857875
vt 0.5 1
vt 0 0.79289375
vt 0 0.45880410312987174
vt 0.3826839826552443 0.6173174054020966
vt 1.1102230246251565e-16 1
vt 0 0
vt 0.4142125 0
vt 0.4142125 1
vt 0 1
vt 0.5411958968701283 0.6173160173447557
vt 0.38268259459790344 1
vt 0 0.6173160173447558
vt 0 0.5
vt 0.4142125 0.5
vt 0.20710625 1
vt 0 0
vt 0.4142125 0
vt 0.4142125 1
vt 0 1
vt 0.4142125 1
vt 0 1
vt 0.20710625 0.5
vt 0 1
vt 0.15851330227222482 0.6173160173447557
vt 0.5411958968701283 0.9999999999999999
vt 0 0
vt 0.4142125 0
vt 0.4142125 1
vt 0 1
vt 0.3826839826552442 1
vt 0 0.841486697727775
vt 0.3826839826552444 0.45880410312987174
vt 0 1
vt 0 0.5857875
vt 0.5 0.79289375
vt 0 0
vt 0.4142125 0
vt 0.4142125 1
vt 0 1
vt 0 1
vt 0 0.5857875
vt 0.5 0.79289375
vt 0.3826839826552442 1
vt 0 0.841486697727775
vt 0.3826839826552444 0.45880410312987174
vt 0 0
vt 0.4142125 0
vt 0.4142125 1
vt 0 1
vt 0 1
vt 0.15851330227222482 0.6173160173447557
vt 0.5411958968701283 0.9999999999999999
vt 0.4142125 1
vt 0 1
vt 0.20710625 0.5
vt 0 0
vt 0.4142125 0
vt 0.4142125 1
vt 0 1
vt 0 0.5
vt 0.4142125 0.5
vt 0.20710625 1
vn 1 -4.930380657631324e-32 -2.220446049250313e-16
vn 1.5700924586837752e-16 -0.7071067811865476 0.7071067811865476
vn -1 4.930380657631324e-32 2.220446049250313e-16
vn 1 -4.930380657631324e-32 -2.220446049250313e-16
vn 2.220446049250313e-16 2.220446049250313e-16 1
vn -1 4.930380657631324e-32 2.220446049250313e-16
vn 1 -4.930380657631324e-32 -2.220446049250313e-16
vn 1.5700924586837752e-16 0.7071067811865476 0.7071067811865476
vn -1 4.930380657631324e-32 2.220446049250313e-16
vn 1 -4.930380657631324e-32 -2.220446049250313e-16
vn 1.0211152680264355e-32 1 4.598694340586179e-17
vn -1 4.930380657631324e-32 2.220446049250313e-16
vn 1 -4.930380657631324e-32 -2.220446049250313e-16
vn -1.5700924586837747e-16 0.7071067811865478 -0.7071067811865474
vn -1 4.930380657631324e-32 2.220446049250313e-16
vn 1 -4.930380657631324e-32 -2.220446049250313e-16
vn -2.220446049250313e-16 4.598694340586159e-17 -1
vn -1 4.930380657631324e-32 2.220446049250313e-16
vn 1 -4.930380657631324e-32 -2.220446049250313e-16
vn -1.570092458683775e-16 -0.7071067811865476 -0.7071067811865475
vn -1 4.930380657631324e-32 2.220446049250313e-16
vn 1 -4.930380657631324e-32 -2.220446049250313e-16
vn -1.0211152680264322e-32 -1 -4.598694340586164e-17
vn -1 4.930380657631324e-32 2.220446049250313e-16
usemtl m_c5d5ad0d-80a9-6421-ef0a-797985170764
f 5/1/1 3/2/1 1/3/1
f 3/4/2 5/5/2 6/6/2 4/7/2
f 4/8/3 6/9/3 2/10/3
f 7/11/4 5/12/4 1/13/4
f 5/14/5 7/15/5 8/16/5 6/17/5
f 6/18/6 8/19/6 2/20/6
f 9/21/7 7/22/7 1/23/7
f 7/24/8 9/25/8 10/26/8 8/27/8
f 8/28/9 10/29/9 2/30/9
f 11/31/10 9/32/10 1/33/10
f 9/34/11 11/35/11 12/36/11 10/37/11
f 10/38/12 12/39/12 2/40/12
f 13/41/13 11/42/13 1/43/13
f 11/44/14 13/45/14 14/46/14 12/47/14
f 12/48/15 14/49/15 2/50/15
f 15/51/16 13/52/16 1/53/16
f 13/54/17 15/55/17 16/56/17 14/57/17
f 14/58/18 16/59/18 2/60/18
f 17/61/19 15/62/19 1/63/19
f 15/64/20 17/65/20 18/66/20 16/67/20
f 16/68/21 18/69/21 2/70/21
f 3/71/22 17/72/22 1/73/22
f 17/74/23 3/75/23 4/76/23 18/77/23
f 18/78/24 4/79/24 2/80/24
o sphere
v 0.9375 -2.0122792321330962e-16 -1.3877787807814457e-17
v -0.9375 2.1510571102112408e-16 -1.3877787807814457e-17
v -0.6629126073623883 0.10983495705504484 0.2651650429449553
v 0.6629126073623882 0.10983495705504455 0.26516504294495535
v -0.6629126073623882 0.2651650429449555 0.10983495705504469
v 0.6629126073623883 0.2651650429449552 0.1098349570550447
v -0.6629126073623882 0.2651650429449555 -0.10983495705504467
v 0.6629126073623883 0.2651650429449552 -0.1098349570550447
v -0.6629126073623883 0.10983495705504488 -0.26516504294495535
v 0.6629126073623882 0.10983495705504458 -0.2651650429449554
v -0.6629126073623883 -0.1098349570550445 -0.26516504294495535
v 0.6629126073623882 -0.1098349570550448 -0.2651650429449554
v -0.6629126073623884 -0.2651650429449551 -0.10983495705504487
v 0.6629126073623881 -0.2651650429449554 -0.10983495705504488
v -0.6629126073623884 -0.2651650429449551 0.10983495705504473
v 0.6629126073623881 -0.2651650429449555 0.10983495705504476
v -0.6629126073623883 -0.10983495705504472 0.26516504294495524
v 0.6629126073623882 -0.10983495705504502 0.2651650429449553
v 0.3314563036811941 0.1325825214724776 0.3200825214724776
v 0.3314563036811941 0.3200825214724776 0.13258252147247768
v 0.331456303681194 -0.13258252147247798 0.3200825214724776
v -0.33145630368119416 0.13258252147247776 0.3200825214724776
v -0.33145630368119416 0.32008252147247773 0.13258252147247768
v -0.3314563036811943 -0.13258252147247782 0.32008252147247757
v 0.331456303681194 -0.32008252147247773 0.13258252147247773
v -0.3314563036811943 -0.32008252147247757 0.13258252147247773
v 0.3314563036811941 0.3200825214724776 -0.13258252147247768
v 0.3314563036811941 0.13258252147247765 -0.32008252147247773
v -0.33145630368119416 0.32008252147247773 -0.13258252147247768
v -0.33145630368119416 0.13258252147247782 -0.3200825214724777
v -0.3314563036811943 -0.13258252147247754 -0.32008252147247773
v 0.331456303681194 -0.1325825214724777 -0.32008252147247773
v 0.331456303681194 -0.3200825214724776 -0.1325825214724779
v -0.3314563036811943 -0.3200825214724775 -0.1325825214724779
vt 0 0.6173124999999999
vt 0.2928875 0.6173124999999999
vt 0.14644375 1
vt 0.2928875 1
vt 0 1
vt 0.14644375 0.6173124999999999
vt 0 0.6173124999999999
vt 0.2928875 0.6173124999999999
vt 0.14644375 1
vt 0.2928875 1
vt 0 1
vt 0.14644375 0.6173124999999999
vt 0 0.6173124999999999
vt 0.2928875 0.6173124999999999
vt 0.14644375 1
vt 0.2928875 1
vt 0 1
vt 0.14644375 0.6173124999999999
vt 0 0.6173124999999999
vt 0.2928875 0.6173124999999999
vt 0.14644375 1
vt 0.2928875 1
vt 0 1
vt 0.14644375 0.6173124999999999
vt 0 0.6173124999999999
vt 0.2928875 0.6173124999999999
vt 0.14644375 1
vt 0.2928875 1
vt 0 1
vt 0.14644375 0.6173124999999999
vt 0 0.6173124999999999
vt 0.2928875 0.6173124999999999
vt 0.14644375 1
vt 0.2928875 1
vt 0 1
vt 0.14644375 0.6173124999999999
vt 0 0.6173124999999999
vt 0.2928875 0.6173124999999999
vt 0.14644375 1
vt 0.2928875 1
vt 0 1
vt 0.14644375 0.6173124999999999
vt 0 0.6173124999999999
vt 0.2928875 0.6173124999999999
vt 0.14644375 1
vt 0.2928875 1
vt 0 1
vt 0.14644375 0.6173124999999999
vt 0.3276625 0.8125
vt 0.0625 0.8125
vt 0.08524375000000001 0.476525
vt 0.30491875 0.476525
vt 0.3276625 0.8125
vt 0.0625 0.8125
vt 0.08524375000000001 0.476525
vt 0.30491875 0.476525
vt 0.0625 0.664025
vt 0.3276625 0.664025
vt 0.30491875 1
vt 0.08524375000000001 1
vt 0.0625 0.664025
vt 0.3276625 0.664025
vt 0.30491875 1
vt 0.08524375000000001 1
vt 0.3276625 0.8125
vt 0.0625 0.8125
vt 0.08524375000000001 0.476525
vt 0.30491875 0.476525
vt 0.0625 0.664025
vt 0.3276625 0.664025
vt 0.30491875 1
vt 0.08524375000000001 1
vt 0.3276625 0.8125
vt 0.0625 0.8125
vt 0.08524375000000001 0.476525
vt 0.30491875 0.476525
vt 0.3276625 0.8125
vt 0.0625 0.8125
vt 0.08524375000000001 0.476525
vt 0.30491875 0.476525
vt 0.0625 0.664025
vt 0.3276625 0.664025
vt 0.30491875 1
vt 0.08524375000000001 1
vt 0.0625 0.664025
vt 0.3276625 0.664025
vt 0.30491875 1
vt 0.08524375000000001 1
vt 0.0625 0.664025
vt 0.3276625 0.664025
vt 0.30491875 1
vt 0.08524375000000001 1
vt 0.3276625 0.8125
vt 0.0625 0.8125
vt 0.08524375000000001 0.476525
vt 0.30491875 0.476525
vt 0.3276625 0.8125
vt 0.0625 0.8125
vt 0.08524375000000001 0.476525
vt 0.30491875 0.476525
vt 0.0625 0.664025
vt 0.3276625 0.664025
vt 0.30491875 1
vt 0.08524375000000001 1
vt 0.0625 0.664025
vt 0.3276625 0.664025
vt 0.30491875 1
vt 0.08524375000000001 1
vt 0.3276625 0.8125
vt 0.0625 0.8125
vt 0.08524375000000001 0.476525
vt 0.30491875 0.476525
vn -0.6946571235644176 0.5086509022311912 0.5086509022311912
vn 0.6946571235644177 0.508650902231191 0.5086509022311911
vn -0.6946571235644176 0.7193410044486618 0
vn 0.6946571235644177 0.7193410044486617 0
vn -0.6946571235644176 0.5086509022311912 -0.508650902231191
vn 0.6946571235644177 0.5086509022311911 -0.508650902231191
vn -0.6946571235644177 1.5424486656021978e-16 -0.7193410044486617
vn 0.6946571235644176 -1.5424486656021975e-16 -0.7193410044486617
vn -0.6946571235644178 -0.5086509022311907 -0.5086509022311912
vn 0.6946571235644174 -0.5086509022311912 -0.5086509022311912
vn -0.6946571235644177 -0.7193410044486617 0
vn 0.6946571235644173 -0.7193410044486619 -3.6355863702648475e-16
vn -0.6946571235644178 -0.5086509022311911 0.5086509022311909
vn 0.6946571235644176 -0.5086509022311914 0.5086509022311911
vn -0.6946571235644176 -2.753445195302262e-17 0.7193410044486617
vn 0.6946571235644176 -3.360241850734622e-16 0.7193410044486618
vn 0.16345703125896527 0.6975965162370027 0.6975965162370029
vn 0.1634570312589652 -3.6294751928115424e-17 0.9865504543265923
vn -0.16345703125896513 0.6975965162370027 0.6975965162370029
vn -0.16345703125896527 -1.7023530519844902e-16 0.9865504543265924
vn 0.16345703125896505 -0.697596516237003 0.6975965162370025
vn -0.16345703125896552 -0.6975965162370029 0.6975965162370025
vn 0.16345703125896544 0.9865504543265923 0
vn 0.16345703125896544 0.6975965162370029 -0.6975965162370025
vn -0.16345703125896505 0.9865504543265924 0
vn -0.16345703125896513 0.6975965162370029 -0.6975965162370027
vn -0.1634570312589654 2.4282480905468006e-16 -0.9865504543265924
vn 0.1634570312589652 -3.6294751928115424e-17 -0.9865504543265923
vn 0.16345703125896505 -0.6975965162370026 -0.6975965162370029
vn -0.16345703125896546 -0.6975965162370026 -0.6975965162370029
vn -0.1634570312589656 -0.9865504543265923 -2.0653005712656436e-16
vn 0.16345703125896505 -0.9865504543265925 -4.130601142531288e-16
usemtl m_2aea69f6-10e8-1196-1026-7efa91f5c6d3
f 21/81/25 23/82/25 20/83/25
f 24/84/26 22/85/26 19/86/26
f 23/87/27 25/88/27 20/89/27
f 26/90/28 24/91/28 19/92/28
f 25/93/29 27/94/29 20/95/29
f 28/96/30 26/97/30 19/98/30
f 27/99/31 29/100/31 20/101/31
f 30/102/32 28/103/32 19/104/32
f 29/105/33 31/106/33 20/107/33
f 32/108/34 30/109/34 19/110/34
f 31/111/35 33/112/35 20/113/35
f 34/114/36 32/115/36 19/116/36
f 33/117/37 35/118/37 20/119/37
f 36/120/38 34/121/38 19/122/38
f 35/123/39 21/124/39 20/125/39
f 22/126/40 36/127/40 19/128/40
f 38/129/41 37/130/41 22/131/41 24/132/41
f 37/133/42 39/134/42 36/135/42 22/136/42
f 40/137/43 41/138/43 23/139/43 21/140/43
f 42/141/44 40/142/44 21/143/44 35/144/44
f 39/145/45 43/146/45 34/147/45 36/148/45
f 44/149/46 42/150/46 35/151/46 33/152/46
f 45/153/47 38/154/47 24/155/47 26/156/47
f 46/157/48 45/158/48 26/159/48 28/160/48
f 41/161/49 47/162/49 25/163/49 23/164/49
f 47/165/50 48/166/50 27/167/50 25/168/50
f 48/169/51 49/170/51 29/171/51 27/172/51
f 50/173/52 46/174/52 28/175/52 30/176/52
f 51/177/53 50/178/53 30/179/53 32/180/53
f 49/181/54 52/182/54 31/183/54 29/184/54
f 52/185/55 44/186/55 33/187/55 31/188/55
f 43/189/56 51/190/56 32/191/56 34/192/56
o torus
v -0.1352990250365492 0.16568542494923807 0.39999999999999997
v -0.09567085809127242 0.19497474683058333 0.47071067811865475
v 3.7702267508923483e-17 0.20710678118654757 0.49999999999999994
v 0.09567085809127249 0.1949747468305833 0.47071067811865475
v 0.13529902503654925 0.16568542494923802 0.39999999999999997
v 0.0956708580912725 0.13639610306789277 0.32928932188134524
v 5.244619373433226e-17 0.12426406871192856 0.30000000000000004
v -0.09567085809127238 0.13639610306789282 0.32928932188134524
v -0.13529902503654914 0.4000000000000001 0.16568542494923805
v -0.09567085809127235 0.4707106781186547 0.1949747468305833
v 1.0273762656557727e-16 0.5 0.20710678118654754
v 0.09567085809127256 0.47071067811865486 0.19497474683058333
v 0.1352990250365493 0.39999999999999997 0.16568542494923805
v 0.09567085809127254 0.3292893218813453 0.1363961030678928
v 9.146740916832455e-17 0.3000000000000001 0.12426406871192854
v -0.09567085809127233 0.3292893218813453 0.1363961030678928
v -0.13529902503654914 0.4000000000000001 -0.16568542494923805
v -0.09567085809127235 0.4707106781186547 -0.19497474683058327
v 1.0273762656557727e-16 0.5 -0.20710678118654752
v 0.09567085809127256 0.47071067811865486 -0.1949747468305833
v 0.1352990250365493 0.39999999999999997 -0.16568542494923805
v 0.09567085809127254 0.3292893218813453 -0.13639610306789277
v 9.146740916832455e-17 0.3000000000000001 -0.12426406871192854
v -0.09567085809127233 0.3292893218813453 -0.13639610306789277
v -0.1352990250365492 0.16568542494923813 -0.4
v -0.09567085809127242 0.19497474683058338 -0.4707106781186547
v 3.7702267508923496e-17 0.20710678118654763 -0.5
v 0.09567085809127249 0.19497474683058336 -0.47071067811865486
v 0.13529902503654925 0.16568542494923807 -0.4
v 0.0956708580912725 0.13639610306789282 -0.3292893218813453
v 5.244619373433226e-17 0.12426406871192858 -0.3000000000000001
v -0.09567085809127238 0.13639610306789288 -0.3292893218813453
v -0.13529902503654925 -0.16568542494923796 -0.4000000000000001
v -0.0956708580912725 -0.1949747468305832 -0.47071067811865486
v -5.427161930280022e-17 -0.20710678118654746 -0.5
v 0.0956708580912724 -0.19497474683058327 -0.47071067811865486
v 0.1352990250365492 -0.16568542494923802 -0.4000000000000001
v 0.09567085809127245 -0.13639610306789277 -0.32928932188134535
v -2.7381383527019656e-18 -0.1242640687119285 -0.3000000000000001
v -0.09567085809127243 -0.1363961030678927 -0.32928932188134535
v -0.1352990250365493 -0.39999999999999986 -0.1656854249492383
v -0.09567085809127257 -0.4707106781186546 -0.19497474683058358
v -1.1930697835945403e-16 -0.49999999999999994 -0.20710678118654785
v 0.09567085809127233 -0.47071067811865475 -0.1949747468305836
v 0.13529902503654914 -0.39999999999999997 -0.1656854249492383
v 0.0956708580912724 -0.3292893218813452 -0.136396103067893
v -4.175935378669425e-17 -0.3 -0.12426406871192874
v -0.09567085809127247 -0.3292893218813452 -0.136396103067893
v -0.1352990250365493 -0.3999999999999999 0.16568542494923813
v -0.09567085809127257 -0.47071067811865475 0.19497474683058338
v -1.1930697835945403e-16 -0.49999999999999994 0.20710678118654763
v 0.09567085809127233 -0.47071067811865475 0.1949747468305834
v 0.13529902503654914 -0.4 0.16568542494923813
v 0.0956708580912724 -0.32928932188134524 0.13639610306789285
v -4.175935378669425e-17 -0.3 0.1242640687119286
v -0.09567085809127247 -0.32928932188134524 0.13639610306789285
v -0.13529902503654925 -0.16568542494923827 0.3999999999999999
v -0.0956708580912725 -0.19497474683058355 0.4707106781186546
v -5.4271619302800304e-17 -0.20710678118654785 0.49999999999999994
v 0.0956708580912724 -0.19497474683058366 0.47071067811865475
v 0.1352990250365492 -0.16568542494923832 0.3999999999999999
v 0.09567085809127245 -0.13639610306789302 0.3292893218813452
v -2.738138352702015e-18 -0.12426406871192872 0.3
v -0.09567085809127243 -0.13639610306789296 0.3292893218813452
vt 0.03661250000000002 1
vt 0 0.9031374999999999
vt 0.4874375 0.9031374999999999
vt 0.45082500000000003 1
vt 0.015162499999999995 1
vt 0 0.8975625
vt 0.5177625 0.8975625
vt 0.5026 1
vt 0 1
vt 0.015162499999999995 0.8975625
vt 0.5026 0.8975625
vt 0.5177625 1
vt 0 1
vt 0.03661250000000002 0.9031374999999999
vt 0.45082500000000003 0.9031374999999999
vt 0.4874375 1
vt 0.4142125 0.9031375
vt 0.3776 1
vt 0.03661249999999999 1
vt 0 0.9031375
vt 0.3409875 0.8975625
vt 0.32582500000000003 1
vt 0.015162499999999995 1
vt 0 0.8975625
vt 0.32582500000000003 0.8975625
vt 0.3409875 1
vt 0 1
vt 0.015162499999999995 0.8975625
vt 0.3776 0.9031375
vt 0.4142125 1
vt 0 1
vt 0.03661249999999999 0.9031375
vt 0.03661250000000002 1
vt 0 0.9031374999999999
vt 0.4874375 0.9031374999999999
vt 0.45082500000000003 1
vt 0.015162499999999995 1
vt 0 0.8975625
vt 0.5177625 0.8975625
vt 0.5026 1
vt 0 1
vt 0.015162499999999995 0.8975625
vt 0.5026 0.8975625
vt 0.5177625 1
vt 0 1
vt 0.03661250000000002 0.9031374999999999
vt 0.45082500000000003 0.9031374999999999
vt 0.4874375 1
vt 0.4142125 0.9031375
vt 0.3776 1
vt 0.03661249999999999 1
vt 0 0.9031375
vt 0.3409875 0.8975625
vt 0.32582500000000003 1
vt 0.015162499999999995 1
vt 0 0.8975625
vt 0.32582500000000003 0.8975625
vt 0.3409875 1
vt 0 1
vt 0.015162499999999995 0.8975625
vt 0.3776 0.9031375
vt 0.4142125 1
vt 0 1
vt 0.03661249999999999 0.9031375
vt 0.03661250000000002 1
vt 0 0.9031374999999999
vt 0.4874375 0.9031374999999999
vt 0.45082500000000003 1
vt 0.015162499999999995 1
vt 0 0.8975625
vt 0.5177625 0.8975625
vt 0.5026 1
vt 0 1
vt 0.015162499999999995 0.8975625
vt 0.5026 0.8975625
vt 0.5177625 1
vt 0 1
vt 0.03661250000000002 0.9031374999999999
vt 0.45082500000000003 0.9031374999999999
vt 0.4874375 1
vt 0.4142125 0.9031375
vt 0.3776 1
vt 0.03661249999999999 1
vt 0 0.9031375
vt 0.3409875 0.8975625
vt 0.32582500000000003 1
vt 0.015162499999999995 1
vt 0 0.8975625
vt 0.32582500000000003 0.8975625
vt 0.3409875 1
vt 0 1
vt 0.015162499999999995 0.8975625
vt 0.3776 0.9031375
vt 0.4142125 1
vt 0 1
vt 0.03661249999999999 0.9031375
vt 0.03661250000000002 1
vt 0 0.9031374999999999
vt 0.4874375 0.9031374999999999
vt 0.45082500000000003 1
vt 0.015162499999999995 1
vt 0 0.8975625
vt 0.5177625 0.8975625
vt 0.5026 1
vt 0 1
vt 0.015162499999999995 0.8975625
vt 0.5026 0.8975625
vt 0.5177625 1
vt 0 1
vt 0.03661250000000002 0.9031374999999999
vt 0.45082500000000003 0.9031374999999999
vt 0.4874375 1
vt 0.4142125 0.9031375
vt 0.3776 1
vt 0.03661249999999999 1
vt 0 0.9031375
vt 0.3409875 0.8975625
vt 0.32582500000000003 1
vt 0.015162499999999995 1
vt 0 0.8975625
vt 0.32582500000000003 0.8975625
vt 0.3409875 1
vt 0 1
vt 0.015162499999999995 0.8975625
vt 0.3776 0.9031375
vt 0.4142125 1
vt 0 1
vt 0.03661249999999999 0.9031375
vt 0.03661250000000002 1
vt 0 0.9031374999999999
vt 0.4874375 0.9031374999999999
vt 0.45082500000000003 1
vt 0.015162499999999995 1
vt 0 0.8975625
vt 0.5177625 0.8975625
vt 0.5026 1
vt 0 1
vt 0.015162499999999995 0.8975625
vt 0.5026 0.8975625
vt 0.5177625 1
vt 0 1
vt 0.03661250000000002 0.9031374999999999
vt 0.45082500000000003 0.9031374999999999
vt 0.4874375 1
vt 0.4142125 0.9031375
vt 0.3776 1
vt 0.03661249999999999 1
vt 0 0.9031375
vt 0.3409875 0.8975625
vt 0.32582500000000003 1
vt 0.015162499999999995 1
vt 0 0.8975625
vt 0.32582500000000003 0.8975625
vt 0.3409875 1
vt 0 1
vt 0.015162499999999995 0.8975625
vt 0.3776 0.9031375
vt 0.4142125 1
vt 0 1
vt 0.03661249999999999 0.9031375
vt 0.03661250000000002 1
vt 0 0.9031374999999999
vt 0.4874375 0.9031374999999999
vt 0.45082500000000003 1
vt 0.015162499999999995 1
vt 0 0.8975625
vt 0.5177625 0.8975625
vt 0.5026 1
vt 0 1
vt 0.015162499999999995 0.8975625
vt 0.5026 0.8975625
vt 0.5177625 1
vt 0 1
vt 0.03661250000000002 0.9031374999999999
vt 0.45082500000000003 0.9031374999999999
vt 0.4874375 1
vt 0.4142125 0.9031375
vt 0.3776 1
vt 0.03661249999999999 1
vt 0 0.9031375
vt 0.3409875 0.8975625
vt 0.32582500000000003 1
vt 0.015162499999999995 1
vt 0 0.8975625
vt 0.32582500000000003 0.8975625
vt 0.3409875 1
vt 0 1
vt 0.015162499999999995 0.8975625
vt 0.3776 0.9031375
vt 0.4142125 1
vt 0 1
vt 0.03661249999999999 0.9031375
vt 0.03661250000000002 1
vt 0 0.9031374999999999
vt 0.4874375 0.9031374999999999
vt 0.45082500000000003 1
vt 0.015162499999999995 1
vt 0 0.8975625
vt 0.5177625 0.8975625
vt 0.5026 1
vt 0 1
vt 0.015162499999999995 0.8975625
vt 0.5026 0.8975625
vt 0.5177625 1
vt 0 1
vt 0.03661250000000002 0.9031374999999999
vt 0.45082500000000003 0.9031374999999999
vt 0.4874375 1
vt 0.4142125 0.9031375
vt 0.3776 1
vt 0.03661249999999999 1
vt 0 0.9031375
vt 0.3409875 0.8975625
vt 0.32582500000000003 1
vt 0.015162499999999995 1
vt 0 0.8975625
vt 0.32582500000000003 0.8975625
vt 0.3409875 1
vt 0 1
vt 0.015162499999999995 0.8975625
vt 0.3776 0.9031375
vt 0.4142125 1
vt 0 1
vt 0.03661249999999999 0.9031375
vt 0.03661250000000002 1
vt 0 0.9031374999999999
vt 0.4874375 0.9031374999999999
vt 0.45082500000000003 1
vt 0.015162499999999995 1
vt 0 0.8975625
vt 0.5177625 0.8975625
vt 0.5026 1
vt 0 1
vt 0.015162499999999995 0.8975625
vt 0.5026 0.8975625
vt 0.5177625 1
vt 0 1
vt 0.03661250000000002 0.9031374999999999
vt 0.45082500000000003 0.9031374999999999
vt 0.4874375 1
vt 0.4142125 0.9031375
vt 0.3776 1
vt 0.03661249999999999 1
vt 0 0.9031375
vt 0.3409875 0.8975625
vt 0.32582500000000003 1
vt 0.015162499999999995 1
vt 0 0.8975625
vt 0.32582500000000003 0.8975625
vt 0.3409875 1
vt 0 1
vt 0.015162499999999995 0.8975625
vt 0.3776 0.9031375
vt 0.4142125 1
vt 0 1
vt 0.03661249999999999 0.9031375
vn -0.8723472058735968 0.3456952070860463 0.34569520708604606
vn -0.2927355139675296 0.6761308744844323 0.6761308744844322
vn 0.2927355139675298 0.6761308744844321 0.6761308744844325
vn 0.8723472058735969 0.34569520708604573 0.345695207086046
vn 0.8723472058735968 -0.34569520708604623 -0.3456952070860462
vn 0.29273551396752934 -0.6761308744844324 -0.6761308744844323
vn -0.2927355139675298 -0.6761308744844322 -0.6761308744844324
vn -0.8723472058735965 -0.3456952070860463 -0.3456952070860466
vn -0.8723472058735965 0.48888685030846274 0
vn -0.29273551396753034 0.9561934526350648 0
vn 0.2927355139675292 0.9561934526350653 0
vn 0.8723472058735972 0.48888685030846174 0
vn 0.8723472058735968 -0.48888685030846235 0
vn 0.2927355139675294 -0.9561934526350652 0
vn -0.29273551396752984 -0.956193452635065 0
vn -0.8723472058735965 -0.48888685030846263 0
vn -0.8723472058735966 0.3456952070860466 -0.3456952070860464
vn -0.2927355139675302 0.6761308744844325 -0.676130874484432
vn 0.2927355139675292 0.6761308744844324 -0.6761308744844323
vn 0.872347205873597 0.34569520708604584 -0.34569520708604595
vn 0.8723472058735969 -0.3456952070860463 0.34569520708604595
vn 0.29273551396752934 -0.6761308744844325 0.6761308744844322
vn -0.2927355139675297 -0.6761308744844324 0.6761308744844322
vn -0.8723472058735967 -0.34569520708604634 0.3456952070860464
vn -0.8723472058735967 3.995057552122332e-16 -0.4888868503084626
vn -0.29273551396753056 6.500034154644631e-17 -0.9561934526350647
vn 0.292735513967529 -6.500034154644596e-17 -0.9561934526350652
vn 0.872347205873597 -1.1297084820146417e-16 -0.4888868503084618
vn 0.8723472058735969 -2.9176468591836053e-16 0.4888868503084622
vn 0.2927355139675296 -6.50003415464461e-17 0.9561934526350652
vn -0.29273551396752967 -1.2567109948807688e-16 0.9561934526350652
vn -0.8723472058735964 1.1297084820146398e-16 0.48888685030846274
vn -0.8723472058735969 -0.3456952070860459 -0.3456952070860462
vn -0.2927355139675295 -0.6761308744844319 -0.6761308744844329
vn 0.29273551396752895 -0.6761308744844322 -0.6761308744844328
vn 0.8723472058735966 -0.34569520708604623 -0.3456952070860463
vn 0.8723472058735969 0.34569520708604584 0.3456952070860462
vn 0.2927355139675302 0.6761308744844319 0.6761308744844324
vn -0.29273551396752984 0.6761308744844322 0.6761308744844323
vn -0.8723472058735964 0.3456952070860466 0.3456952070860467
vn -0.8723472058735967 -0.48888685030846235 -2.0580576452657527e-16
vn -0.29273551396753134 -0.9561934526350645 0
vn 0.2927355139675293 -0.9561934526350652 0
vn 0.872347205873597 -0.48888685030846196 -8.072914248419353e-17
vn 0.872347205873597 0.48888685030846196 9.806469523270269e-17
vn 0.29273551396752984 0.9561934526350649 0
vn -0.2927355139675294 0.956193452635065 1.9067144103452278e-16
vn -0.8723472058735965 0.488886850308463 8.072914248419362e-17
vn -0.872347205873597 -0.3456952070860459 0.34569520708604606
vn -0.2927355139675298 -0.6761308744844324 0.6761308744844321
vn 0.2927355139675293 -0.6761308744844328 0.6761308744844321
vn 0.8723472058735969 -0.34569520708604634 0.34569520708604595
vn 0.8723472058735969 0.3456952070860459 -0.3456952070860459
vn 0.2927355139675302 0.6761308744844324 -0.676130874484432
vn -0.2927355139675299 0.6761308744844325 -0.6761308744844321
vn -0.8723472058735966 0.34569520708604673 -0.3456952070860464
vn -0.8723472058735965 -1.210577384091761e-17 0.4888868503084625
vn -0.29273551396753106 6.500034154644642e-17 0.9561934526350646
vn 0.2927355139675295 -6.500034154644607e-17 0.956193452635065
vn 0.872347205873597 -2.7442913316985134e-16 0.48888685030846185
vn 0.8723472058735969 -9.563529545295504e-17 -0.4888868503084622
vn 0.29273551396752956 1.6172713172165381e-16 -0.956193452635065
vn -0.29273551396752967 2.5567178258096897e-16 -0.9561934526350652
vn -0.8723472058735964 2.744291331698513e-16 -0.48888685030846274
usemtl m_2aea69f6-10e8-1196-1026-7efa91f5c6d3
f 53/193/57 54/194/57 62/195/57 61/196/57
f 54/197/58 55/198/58 63/199/58 62/200/58
f 55/201/59 56/202/59 64/203/59 63/204/59
f 56/205/60 57/206/60 65/207/60 64/208/60
f 57/209/61 58/210/61 66/211/61 65/212/61
f 58/213/62 59/214/62 67/215/62 66/216/62
f 59/217/63 60/218/63 68/219/63 67/220/63
f 60/221/64 53/222/64 61/223/64 68/224/64
f 61/225/65 62/226/65 70/227/65 69/228/65
f 62/229/66 63/230/66 71/231/66 70/232/66
f 63/233/67 64/234/67 72/235/67 71/236/67
f 64/237/68 65/238/68 73/239/68 72/240/68
f 65/241/69 66/242/69 74/243/69 73/244/69
f 66/245/70 67/246/70 75/247/70 74/248/70
f 67/249/71 68/250/71 76/251/71 75/252/71
f 68/253/72 61/254/72 69/255/72 76/256/72
f 69/257/73 70/258/73 78/259/73 77/260/73
f 70/261/74 71/262/74 79/263/74 78/264/74
f 71/265/75 72/266/75 80/267/75 79/268/75
f 72/269/76 73/270/76 81/271/76 80/272/76
f 73/273/77 74/274/77 82/275/77 81/276/77
f 74/277/78 75/278/78 83/279/78 82/280/78
f 75/281/79 76/282/79 84/283/79 83/284/79
f 76/285/80 69/286/80 77/287/80 84/288/80
f 77/289/81 78/290/81 86/291/81 85/292/81
f 78/293/82 79/294/82 87/295/82 86/296/82
f 79/297/83 80/298/83 88/299/83 87/300/83
f 80/301/84 81/302/84 89/303/84 88/304/84
f 81/305/85 82/306/85 90/307/85 89/308/85
f 82/309/86 83/310/86 91/311/86 90/312/86
f 83/313/87 84/314/87 92/315/87 91/316/87
f 84/317/88 77/318/88 85/319/88 92/320/88
f 85/321/89 86/322/89 94/323/89 93/324/89
f 86/325/90 87/326/90 95/327/90 94/328/90
f 87/329/91 88/330/91 96/331/91 95/332/91
f 88/333/92 89/334/92 97/335/92 96/336/92
f 89/337/93 90/338/93 98/339/93 97/340/93
f 90/341/94 91/342/94 99/343/94 98/344/94
f 91/345/95 92/346/95 100/347/95 99/348/95
f 92/349/96 85/350/96 93/351/96 100/352/96
f 93/353/97 94/354/97 102/355/97 101/356/97
f 94/357/98 95/358/98 103/359/98 102/360/98
f 95/361/99 96/362/99 104/363/99 103/364/99
f 96/365/100 97/366/100 105/367/100 104/368/100
f 97/369/101 98/370/101 106/371/101 105/372/101
f 98/373/102 99/374/102 107/375/102 106/376/102
f 99/377/103 100/378/103 108/379/103 107/380/103
f 100/381/104 93/382/104 101/383/104 108/384/104
f 101/385/105 102/386/105 110/387/105 109/388/105
f 102/389/106 103/390/106 111/391/106 110/392/106
f 103/393/107 104/394/107 112/395/107 111/396/107
f 104/397/108 105/398/108 113/399/108 112/400/108
f 105/401/109 106/402/109 114/403/109 113/404/109
f 106/405/110 107/406/110 115/407/110 114/408/110
f 107/409/111 108/410/111 116/411/111 115/412/111
f 108/413/112 101/414/112 109/415/112 116/416/112
f 109/417/113 110/418/113 54/419/113 53/420/113
f 110/421/114 111/422/114 55/423/114 54/424/114
f 111/425/115 112/426/115 56/427/115 55/428/115
f 112/429/116 113/430/116 57/431/116 56/432/116
f 113/433/117 114/434/117 58/435/117 57/436/117
f 114/437/118 115/438/118 59/439/118 58/440/118
f 115/441/119 116/442/119 60/443/119 59/444/119
f 116/445/120 109/446/120 53/447/120 60/448/120
o sphere_selection
v 0.3314563036811941 0.1325825214724776 0.3200825214724776
v 0.3314563036811941 0.3200825214724776 0.13258252147247768
v 0.331456303681194 -0.13258252147247798 0.3200825214724776
v -0.33145630368119416 0.13258252147247776 0.3200825214724776
v -0.33145630368119416 0.32008252147247773 0.13258252147247768
v -0.3314563036811943 -0.13258252147247782 0.32008252147247757
v 0.331456303681194 -0.32008252147247773 0.13258252147247773
v -0.3314563036811943 -0.32008252147247757 0.13258252147247773
v 0.3314563036811941 0.3200825214724776 -0.13258252147247768
v 0.3314563036811941 0.13258252147247765 -0.32008252147247773
v -0.33145630368119416 0.32008252147247773 -0.13258252147247768
v -0.33145630368119416 0.13258252147247782 -0.3200825214724777
v -0.3314563036811943 -0.13258252147247754 -0.32008252147247773
v 0.331456303681194 -0.1325825214724777 -0.32008252147247773
v 0.331456303681194 -0.3200825214724776 -0.1325825214724779
v -0.3314563036811943 -0.3200825214724775 -0.1325825214724779
v 0.34167236813487945 0.15438241260488392 0.37271211430259
v 0.34167236813487945 0.37271211430258994 0.154382412604884
v -1.9809286417708742e-17 0.177129977022317 0.42762959283011226
v 3.8414887022170506e-17 0.4276295928301123 0.17712997702231698
v 0.34167236813487933 -0.15438241260488433 0.37271211430258994
v -9.977184056129191e-17 -0.17712997702231725 0.42762959283011226
v -0.3416723681348795 0.15438241260488408 0.37271211430259
v -0.3416723681348795 0.37271211430259005 0.154382412604884
v -0.3416723681348796 -0.15438241260488417 0.3727121143025899
v 0.34167236813487933 -0.3727121143025901 0.15438241260488406
v -1.527918435732407e-16 -0.42762959283011237 0.17712997702231706
v -0.3416723681348796 -0.37271211430258994 0.15438241260488406
v 0.34167236813487945 0.37271211430259 -0.154382412604884
v 3.928224876015892e-17 0.42762959283011237 -0.17712997702231698
v 0.34167236813487945 0.154382412604884 -0.3727121143025901
v -1.980928641770873e-17 0.17712997702231706 -0.42762959283011237
v -0.3416723681348795 0.3727121143025901 -0.154382412604884
v -0.3416723681348795 0.15438241260488417 -0.37271211430259
v -1.0020552143028605e-16 -0.17712997702231695 -0.4276295928301124
v -0.3416723681348796 -0.15438241260488386 -0.3727121143025901
v 0.34167236813487933 -0.15438241260488403 -0.3727121143025901
v 0.34167236813487933 -0.37271211430258994 -0.15438241260488425
v -1.5279184357324065e-16 -0.4276295928301122 -0.17712997702231725
v -0.3416723681348796 -0.3727121143025898 -0.15438241260488425
vt 0.08524999999999999 0.9375
vt 0.0625 0.601525
vt 0.3731625 0.601525
vt 0.3504125 0.9375
vt 0.0625 0.9375
vt 0.08524999999999999 0.6015250000000001
vt 0.3504125 0.6015250000000001
vt 0.3731625 0.9375
vt 0.08524999999999999 0.9375
vt 0.0625 0.601525
vt 0.3731625 0.601525
vt 0.3504125 0.9375
vt 0.0625 0.9375
vt 0.08524999999999999 0.6015250000000001
vt 0.3504125 0.6015250000000001
vt 0.3731625 0.9375
vt 0.08524999999999999 0.9375
vt 0.0625 0.601525
vt 0.3731625 0.601525
vt 0.3504125 0.9375
vt 0.0625 0.9375
vt 0.08524999999999999 0.6015250000000001
vt 0.3504125 0.6015250000000001
vt 0.3731625 0.9375
vt 0.08524999999999999 0.9375
vt 0.0625 0.601525
vt 0.3731625 0.601525
vt 0.3504125 0.9375
vt 0.0625 0.9375
vt 0.08524999999999999 0.6015250000000001
vt 0.3504125 0.6015250000000001
vt 0.3731625 0.9375
vt 0.08524999999999999 0.9375
vt 0.0625 0.601525
vt 0.3731625 0.601525
vt 0.3504125 0.9375
vt 0.0625 0.9375
vt 0.08524999999999999 0.6015250000000001
vt 0.3504125 0.6015250000000001
vt 0.3731625 0.9375
vt 0.08524999999999999 0.9375
vt 0.0625 0.601525
vt 0.3731625 0.601525
vt 0.3504125 0.9375
vt 0.0625 0.9375
vt 0.08524999999999999 0.6015250000000001
vt 0.3504125 0.6015250000000001
vt 0.3731625 0.9375
vt 0.08524999999999999 0.9375
vt 0.0625 0.601525
vt 0.3731625 0.601525
vt 0.3504125 0.9375
vt 0.0625 0.9375
vt 0.08524999999999999 0.6015250000000001
vt 0.3504125 0.6015250000000001
vt 0.3731625 0.9375
vt 0.08524999999999999 0.9375
vt 0.0625 0.601525
vt 0.3731625 0.601525
vt 0.3504125 0.9375
vt 0.0625 0.9375
vt 0.08524999999999999 0.6015250000000001
vt 0.3504125 0.6015250000000001
vt 0.3731625 0.9375
vt 0 0.7588937499999999
vt 0.3087625 0.7588937499999999
vt 0.2869625 0.8125
vt 0.021799999999999986 0.8125
vt 0 0.7588937499999999
vt 0.3087625 0.7588937499999999
vt 0.2869625 0.8125
vt 0.021799999999999986 0.8125
vt 0.3087625 0.9375
vt 0 0.9375
vt 0.021799999999999986 0.8838937499999999
vt 0.2869625 0.8838937499999999
vt 0.3087625 0.9375
vt 0 0.9375
vt 0.021799999999999986 0.8838937499999999
vt 0.2869625 0.8838937499999999
vt 0 0.7588937499999999
vt 0.3087625 0.7588937499999999
vt 0.2869625 0.8125
vt 0.021799999999999986 0.8125
vt 0.3087625 0.9375
vt 0 0.9375
vt 0.021799999999999986 0.8838937499999999
vt 0.2869625 0.8838937499999999
vt 0 0.7588937499999999
vt 0.3087625 0.7588937499999999
vt 0.2869625 0.8125
vt 0.021799999999999986 0.8125
vt 0 0.7588937499999999
vt 0.3087625 0.7588937499999999
vt 0.2869625 0.8125
vt 0.021799999999999986 0.8125
vt 0.3087625 0.9375
vt 0 0.9375
vt 0.021799999999999986 0.8838937499999999
vt 0.2869625 0.8838937499999999
vt 0.3087625 0.9375
vt 0 0.9375
vt 0.021799999999999986 0.8838937499999999
vt 0.2869625 0.8838937499999999
vt 0.3087625 0.9375
vt 0 0.9375
vt 0.021799999999999986 0.8838937499999999
vt 0.2869625 0.8838937499999999
vt 0 0.7588937499999999
vt 0.3087625 0.7588937499999999
vt 0.2869625 0.8125
vt 0.021799999999999986 0.8125
vt 0 0.7588937499999999
vt 0.3087625 0.7588937499999999
vt 0.2869625 0.8125
vt 0.021799999999999986 0.8125
vt 0.3087625 0.9375
vt 0 0.9375
vt 0.021799999999999986 0.8838937499999999
vt 0.2869625 0.8838937499999999
vt 0.3087625 0.9375
vt 0 0.9375
vt 0.021799999999999986 0.8838937499999999
vt 0.2869625 0.8838937499999999
vt 0 0.7588937499999999
vt 0.3087625 0.7588937499999999
vt 0.2869625 0.8125
vt 0.021799999999999986 0.8125
vn -0.158694568599203 0.6981461286496949 0.698146128649695
vn 0.15869456859920333 0.6981461286496949 0.6981461286496949
vn -0.15869456859920303 0.9873277236546704 1.4150105179530556e-16
vn 0.15869456859920344 0.9873277236546701 1.6235060477571026e-16
vn -0.15869456859920303 0.698146128649695 -0.6981461286496948
vn 0.15869456859920336 0.698146128649695 -0.6981461286496948
vn -0.15869456859920336 2.05038534942725e-16 -0.9873277236546701
vn 0.15869456859920306 -3.523727278835832e-17 -0.9873277236546703
vn -0.15869456859920344 -0.6981461286496949 -0.698146128649695
vn 0.15869456859920314 -0.6981461286496948 -0.698146128649695
vn -0.15869456859920344 -0.9873277236546701 -4.528033657449772e-16
vn 0.15869456859920306 -0.9873277236546704 -5.195219352822724e-16
vn -0.15869456859920356 -0.698146128649695 0.6981461286496948
vn 0.1586945685992031 -0.6981461286496952 0.6981461286496947
vn -0.15869456859920336 3.523727278835839e-17 0.9873277236546704
vn 0.15869456859920322 -1.9758787756406853e-16 0.9873277236546703
vn 0.9816763840272589 -0.13474323182105633 -0.1347432318210561
vn 0.9816763840272589 -1.8371696927484837e-16 -0.1905557058793197
vn -0.9816763840272589 -0.134743231821056 -0.13474323182105621
vn -0.9816763840272589 2.8649389601700124e-16 -0.19055570587931953
vn 0.9816763840272591 0.13474323182105594 -0.1347432318210561
vn -0.9816763840272589 0.13474323182105638 -0.13474323182105613
vn 0.9816763840272589 -0.19055570587931991 -3.425897558071767e-17
vn 0.9816763840272589 -0.13474323182105638 0.13474323182105608
vn -0.9816763840272591 -0.19055570587931933 -3.4258975580717645e-17
vn -0.9816763840272589 -0.13474323182105594 0.13474323182105613
vn -0.9816763840272589 1.4945799369413073e-16 0.19055570587931953
vn 0.9816763840272589 -2.17975944855566e-16 0.1905557058793195
vn 0.9816763840272589 0.13474323182105583 0.1347432318210561
vn -0.9816763840272589 0.13474323182105638 0.13474323182105621
vn -0.9816763840272589 0.19055570587931975 6.851795116143522e-17
vn 0.9816763840272589 0.19055570587931944 1.0277692674215289e-16
usemtl m_c5d5ad0d-80a9-6421-ef0a-797985170764
f 139/449/121 135/450/121 136/451/121 140/452/121
f 135/453/122 133/454/122 134/455/122 136/456/122
f 140/457/123 136/458/123 146/459/123 149/460/123
f 136/461/124 134/462/124 145/463/124 146/464/124
f 149/465/125 146/466/125 148/467/125 150/468/125
f 146/469/126 145/470/126 147/471/126 148/472/126
f 150/473/127 148/474/127 151/475/127 152/476/127
f 148/477/128 147/478/128 153/479/128 151/480/128
f 152/481/129 151/482/129 155/483/129 156/484/129
f 151/485/130 153/486/130 154/487/130 155/488/130
f 156/489/131 155/490/131 143/491/131 144/492/131
f 155/493/132 154/494/132 142/495/132 143/496/132
f 144/497/133 143/498/133 138/499/133 141/500/133
f 143/501/134 142/502/134 137/503/134 138/504/134
f 141/505/135 138/506/135 135/507/135 139/508/135
f 138/509/136 137/510/136 133/511/136 135/512/136
f 134/513/137 133/514/137 117/515/137 118/516/137
f 133/517/138 137/518/138 119/519/138 117/520/138
f 139/521/139 140/522/139 121/523/139 120/524/139
f 141/525/140 139/526/140 120/527/140 122/528/140
f 137/529/141 142/530/141 123/531/141 119/532/141
f 144/533/142 141/534/142 122/535/142 124/536/142
f 145/537/143 134/538/143 118/539/143 125/540/143
f 147/541/144 145/542/144 125/543/144 126/544/144
f 140/545/145 149/546/145 127/547/145 121/548/145
f 149/549/146 150/550/146 128/551/146 127/552/146
f 150/553/147 152/554/147 129/555/147 128/556/147
f 153/557/148 147/558/148 126/559/148 130/560/148
f 154/561/149 153/562/149 130/563/149 131/564/149
f 152/565/150 156/566/150 132/567/150 129/568/150
f 156/569/151 144/570/151 124/571/151 132/572/151
f 142/573/152 154/574/152 131/575/152 123/576/152
o cylinder
v 1.125 2.4880890998295917e-16 -4.163336342344337e-17
v 1.5 3.2959746043559335e-16 -6.938893903907228e-18
v 1.125 -0.05177669529663663 0.12499999999999994
v 1.5 -0.18121843353822878 0.43749999999999994
v 1.125 -0.12499999999999975 0.051776695296636845
v 1.5 -0.43749999999999967 0.1812184335382291
v 1.125 -0.12499999999999975 -0.05177669529663692
v 1.5 -0.43749999999999967 -0.18121843353822908
v 1.125 -0.05177669529663665 -0.12500000000000003
v 1.5 -0.18121843353822883 -0.4375
v 1.125 0.05177669529663712 -0.12500000000000006
v 1.5 0.1812184335382294 -0.43750000000000006
v 1.125 0.12500000000000022 -0.05177669529663699
v 1.5 0.4375000000000002 -0.18121843353822936
v 1.125 0.12500000000000025 0.05177669529663687
v 1.5 0.43750000000000033 0.1812184335382292
v 1.125 0.05177669529663721 0.12499999999999992
v 1.5 0.18121843353822972 0.4374999999999999
v 1.21875 -0.20312499999999972 0.025888347648318415
v 1.21875 -0.20312499999999972 -0.025888347648318467
v 1.40625 -0.35937499999999967 -0.09060921676911454
v 1.40625 -0.35937499999999967 0.09060921676911454
v 1.21875 -0.025888347648318197 -0.20312500000000006
v 1.21875 0.02588834764831869 -0.20312500000000006
v 1.40625 0.09060921676911482 -0.35937500000000006
v 1.40625 -0.09060921676911429 -0.359375
v 1.21875 0.20312500000000028 -0.02588834764831853
v 1.21875 0.20312500000000028 0.0258883476483184
v 1.40625 0.35937500000000033 0.09060921676911457
v 1.40625 0.3593750000000003 -0.09060921676911471
v 1.21875 0.025888347648318797 0.2031249999999999
v 1.21875 -0.025888347648318124 0.20312499999999992
v 1.40625 -0.09060921676911421 0.3593749999999999
v 1.40625 0.09060921676911504 0.3593749999999999
v 0.05373847502097001 -0.251138829974836 0.025888347648318415
v 0.05373847502097001 -0.251138829974836 -0.025888347648318467
v 0.24123847502097004 -0.40738882997483594 -0.09060921676911454
v 0.24123847502097004 -0.40738882997483594 0.09060921676911454
v 0.05373847502096996 -0.025888347648318457 -0.25113882997483605
v 0.05373847502096995 0.02588834764831843 -0.25113882997483605
v 0.24123847502096993 0.09060921676911457 -0.40738882997483605
v 0.24123847502096998 -0.09060921676911454 -0.407388829974836
v 0.0537384750209699 0.251138829974836 -0.02588834764831853
v 0.0537384750209699 0.251138829974836 0.0258883476483184
v 0.24123847502096987 0.40738882997483605 0.09060921676911457
v 0.24123847502096987 0.407388829974836 -0.09060921676911471
v 0.05373847502096995 0.02588834764831856 0.2511388299748359
v 0.05373847502096996 -0.02588834764831836 0.25113882997483594
v 0.24123847502096998 -0.09060921676911443 0.4073888299748359
v 0.24123847502096993 0.09060921676911482 0.4073888299748359
v -1.125 2.5079145109836123e-16 -4.163336342344337e-17
v -1.5 3.365363543395006e-16 -6.938893903907228e-18
v -1.125 0.05177669529663713 0.12499999999999994
v -1.5 0.18121843353822945 0.43749999999999994
v -1.125 0.12500000000000025 0.051776695296636845
v -1.5 0.43750000000000033 0.1812184335382291
v -1.125 0.12500000000000025 -0.05177669529663692
v -1.5 0.43750000000000033 -0.18121843353822908
v -1.125 0.05177669529663715 -0.12500000000000003
v -1.5 0.1812184335382295 -0.4375
v -1.125 -0.05177669529663662 -0.12500000000000006
v -1.5 -0.18121843353822872 -0.43750000000000006
v -1.125 -0.12499999999999971 -0.05177669529663699
v -1.5 -0.43749999999999956 -0.18121843353822936
v -1.125 -0.12499999999999975 0.05177669529663687
v -1.5 -0.43749999999999967 0.1812184335382292
v -1.125 -0.05177669529663671 0.12499999999999992
v -1.5 -0.18121843353822906 0.4374999999999999
v -1.21875 0.20312500000000028 0.025888347648318415
v -1.21875 0.20312500000000028 -0.025888347648318467
v -1.40625 0.35937500000000033 -0.09060921676911454
v -1.40625 0.35937500000000033 0.09060921676911454
v -1.21875 0.025888347648318738 -0.20312500000000006
v -1.21875 -0.025888347648318148 -0.20312500000000006
v -1.40625 -0.09060921676911421 -0.35937500000000006
v -1.40625 0.0906092167691149 -0.359375
v -1.21875 -0.20312499999999972 -0.02588834764831853
v -1.21875 -0.20312499999999972 0.0258883476483184
v -1.40625 -0.35937499999999967 0.09060921676911457
v -1.40625 -0.3593749999999996 -0.09060921676911471
v -1.21875 -0.025888347648318256 0.2031249999999999
v -1.21875 0.025888347648318665 0.20312499999999992
v -1.40625 0.09060921676911482 0.3593749999999999
v -1.40625 -0.09060921676911443 0.3593749999999999
v -0.0537384750209699 0.251138829974836 0.025888347648318415
v -0.0537384750209699 0.251138829974836 -0.025888347648318467
v -0.24123847502096987 0.40738882997483605 -0.09060921676911454
v -0.24123847502096987 0.40738882997483605 0.09060921676911454
v -0.05373847502096995 0.025888347648318478 -0.25113882997483605
v -0.05373847502096996 -0.02588834764831841 -0.25113882997483605
v -0.24123847502096998 -0.09060921676911446 -0.40738882997483605
v -0.24123847502096993 0.09060921676911465 -0.407388829974836
v -0.05373847502097001 -0.251138829974836 -0.02588834764831853
v -0.05373847502097001 -0.251138829974836 0.0258883476483184
v -0.24123847502097004 -0.40738882997483594 0.09060921676911457
v -0.24123847502097004 -0.4073888299748359 -0.09060921676911471
v -0.05373847502096996 -0.02588834764831854 0.2511388299748359
v -0.05373847502096995 0.02588834764831838 0.25113882997483594
v -0.24123847502096993 0.09060921676911454 0.4073888299748359
v -0.24123847502096998 -0.09060921676911471 0.4073888299748359
vt 0.5411958968701283 0.6173160173447557
vt 0.38268259459790344 1
vt 0 0.6173160173447558
vt 0 0
vt 0.4142125 0
vt 0.4142125 1
vt 0 1
vt 0 0.45880410312987174
vt 0.3826839826552443 0.6173174054020966
vt 1.1102230246251565e-16 1
vt 0.5 0.5857875
vt 0.5 1
vt 0 0.79289375
vt 0.18971875 0.31843124999999994
vt 0.24149375 0.31843124999999994
vt 0.3062125 0.5625
vt 0.125 0.5625
vt 0.5 0.5857875
vt 0.5 1
vt 0 0.79289375
vt 0 0.45880410312987174
vt 0.3826839826552443 0.6173174054020966
vt 1.1102230246251565e-16 1
vt 0 0
vt 0.4142125 0
vt 0.4142125 1
vt 0 1
vt 0.5411958968701283 0.6173160173447557
vt 0.38268259459790344 1
vt 0 0.6173160173447558
vt 0 0.5
vt 0.4142125 0.5
vt 0.20710625 1
vt 0.18971875 0.31843124999999994
vt 0.24149375 0.31843124999999994
vt 0.3062125 0.5625
vt 0.125 0.5625
vt 0.4142125 1
vt 0 1
vt 0.20710625 0.5
vt 0 1
vt 0.15851330227222482 0.6173160173447557
vt 0.5411958968701283 0.9999999999999999
vt 0 0
vt 0.4142125 0
vt 0.4142125 1
vt 0 1
vt 0.3826839826552442 1
vt 0 0.841486697727775
vt 0.3826839826552444 0.45880410312987174
vt 0 1
vt 0 0.5857875
vt 0.5 0.79289375
vt 0.18971875 0.31843124999999994
vt 0.24149375 0.31843124999999994
vt 0.3062125 0.5625
vt 0.125 0.5625
vt 0 1
vt 0 0.5857875
vt 0.5 0.79289375
vt 0.3826839826552442 1
vt 0 0.841486697727775
vt 0.3826839826552444 0.45880410312987174
vt 0 0
vt 0.4142125 0
vt 0.4142125 1
vt 0 1
vt 0 1
vt 0.15851330227222482 0.6173160173447557
vt 0.5411958968701283 0.9999999999999999
vt 0.4142125 1
vt 0 1
vt 0.20710625 0.5
vt 0.18971875 0.31843124999999994
vt 0.24149375 0.31843124999999994
vt 0.3062125 0.5625
vt 0.125 0.5625
vt 0 0.5
vt 0.4142125 0.5
vt 0.20710625 1
vt 0.26516249999999997 0.125
vt 0.2133875 0.125
vt 0.1875 0.0029687499999999645
vt 0.29105000000000003 0.0029687499999999645
vt 0.4888232363720255 0.4375
vt 0.2363196298074357 0.4375
vt 0.125 0.3811996567297501
vt 0.6300088150555554 0.38119361551034636
vt 0.1531125 0.8779625
vt 0.334325 0.8779625
vt 0.4249375 1
vt 0.0625 1
vt 0.05630638448965361 0.2938108147518803
vt 0.05630638448965364 0.5463144213164701
vt 0 0.6875
vt 0.000006041219403729592 0.1824911849444446
vt 0.26516249999999997 0.125
vt 0.2133875 0.125
vt 0.1875 0.0029687499999999645
vt 0.29105000000000003 0.0029687499999999645
vt 0.4888232363720255 0.4375
vt 0.2363196298074357 0.4375
vt 0.125 0.3811996567297501
vt 0.6300088150555554 0.38119361551034636
vt 0.1531125 0.8779625
vt 0.334325 0.8779625
vt 0.4249375 1
vt 0.0625 1
vt 0.05630638448965361 0.2938108147518803
vt 0.05630638448965364 0.5463144213164701
vt 0 0.6875
vt 0.000006041219403729592 0.1824911849444446
vt 0.26516249999999997 0.125
vt 0.2133875 0.125
vt 0.1875 0.0029687499999999645
vt 0.29105000000000003 0.0029687499999999645
vt 0.4888232363720255 0.4375
vt 0.2363196298074357 0.4375
vt 0.125 0.3811996567297501
vt 0.6300088150555554 0.38119361551034636
vt 0.1531125 0.8779625
vt 0.334325 0.8779625
vt 0.4249375 1
vt 0.0625 1
vt 0.05630638448965361 0.2938108147518803
vt 0.05630638448965364 0.5463144213164701
vt 0 0.6875
vt 0.000006041219403729592 0.1824911849444446
vt 0.26516249999999997 0.125
vt 0.2133875 0.125
vt 0.1875 0.0029687499999999645
vt 0.29105000000000003 0.0029687499999999645
vt 0.4888232363720255 0.4375
vt 0.2363196298074357 0.4375
vt 0.125 0.3811996567297501
vt 0.6300088150555554 0.38119361551034636
vt 0.1531125 0.8779625
vt 0.334325 0.8779625
vt 0.4249375 1
vt 0.0625 1
vt 0.05630638448965361 0.2938108147518803
vt 0.05630638448965364 0.5463144213164701
vt 0 0.6875
vt 0.000006041219403729592 0.1824911849444446
vt 0.125 0.5625
vt 0.17677500000000002 0.5625
vt 0.17677500000000002 0.625
vt 0.125 0.625
vt 0.0625 0.8125
vt 0.0625 0.559996658360602
vt 0.12499791144115568 0.5599933711206904
vt 0.12499791144115568 0.8124967127600882
vt 0.0625 0.6875
vt 0.2437125 0.6875
vt 0.2437125 0.75
vt 0.0625 0.75
vt 0.000003287239911831108 0.6250020885588442
vt 0.25250662887930964 0.6250020885588441
vt 0.252503341639398 0.6874999999999998
vt 0 0.6875
vt 0.125 0.5625
vt 0.17677500000000002 0.5625
vt 0.17677500000000002 0.625
vt 0.125 0.625
vt 0.0625 0.8125
vt 0.0625 0.559996658360602
vt 0.12499791144115568 0.5599933711206904
vt 0.12499791144115568 0.8124967127600882
vt 0.0625 0.6875
vt 0.2437125 0.6875
vt 0.2437125 0.75
vt 0.0625 0.75
vt 0.000003287239911831108 0.6250020885588442
vt 0.25250662887930964 0.6250020885588441
vt 0.252503341639398 0.6874999999999998
vt 0 0.6875
vt 0.125 0.5625
vt 0.17677500000000002 0.5625
vt 0.17677500000000002 0.625
vt 0.125 0.625
vt 0.0625 0.8125
vt 0.0625 0.559996658360602
vt 0.12499791144115568 0.5599933711206904
vt 0.12499791144115568 0.8124967127600882
vt 0.0625 0.6875
vt 0.2437125 0.6875
vt 0.2437125 0.75
vt 0.0625 0.75
vt 0.000003287239911831108 0.6250020885588442
vt 0.25250662887930964 0.6250020885588441
vt 0.252503341639398 0.6874999999999998
vt 0 0.6875
vt 0.125 0.5625
vt 0.17677500000000002 0.5625
vt 0.17677500000000002 0.625
vt 0.125 0.625
vt 0.0625 0.8125
vt 0.0625 0.559996658360602
vt 0.12499791144115568 0.5599933711206904
vt 0.12499791144115568 0.8124967127600882
vt 0.0625 0.6875
vt 0.2437125 0.6875
vt 0.2437125 0.75
vt 0.0625 0.75
vt 0.000003287239911831108 0.6250020885588442
vt 0.25250662887930964 0.6250020885588441
vt 0.252503341639398 0.6874999999999998
vt 0 0.6875
vt 0.5411958968701283 0.6173160173447557
vt 0.38268259459790344 1
vt 0 0.6173160173447558
vt 0 0
vt 0.4142125 0
vt 0.4142125 1
vt 0 1
vt 0 0.45880410312987174
vt 0.3826839826552443 0.6173174054020966
vt 1.1102230246251565e-16 1
vt 0.5 0.5857875
vt 0.5 1
vt 0 0.79289375
vt 0.18971875 0.31843124999999994
vt 0.24149375 0.31843124999999994
vt 0.3062125 0.5625
vt 0.125 0.5625
vt 0.5 0.5857875
vt 0.5 1
vt 0 0.79289375
vt 0 0.45880410312987174
vt 0.3826839826552443 0.6173174054020966
vt 1.1102230246251565e-16 1
vt 0 0
vt 0.4142125 0
vt 0.4142125 1
vt 0 1
vt 0.5411958968701283 0.6173160173447557
vt 0.38268259459790344 1
vt 0 0.6173160173447558
vt 0 0.5
vt 0.4142125 0.5
vt 0.20710625 1
vt 0.18971875 0.31843124999999994
vt 0.24149375 0.31843124999999994
vt 0.3062125 0.5625
vt 0.125 0.5625
vt 0.4142125 1
vt 0 1
vt 0.20710625 0.5
vt 0 1
vt 0.15851330227222482 0.6173160173447557
vt 0.5411958968701283 0.9999999999999999
vt 0 0
vt 0.4142125 0
vt 0.4142125 1
vt 0 1
vt 0.3826839826552442 1
vt 0 0.841486697727775
vt 0.3826839826552444 0.45880410312987174
vt 0 1
vt 0 0.5857875
vt 0.5 0.79289375
vt 0.18971875 0.31843124999999994
vt 0.24149375 0.31843124999999994
vt 0.3062125 0.5625
vt 0.125 0.5625
vt 0 1
vt 0 0.5857875
vt 0.5 0.79289375
vt 0.3826839826552442 1
vt 0 0.841486697727775
vt 0.3826839826552444 0.45880410312987174
vt 0 0
vt 0.4142125 0
vt 0.4142125 1
vt 0 1
vt 0 1
vt 0.15851330227222482 0.6173160173447557
vt 0.5411958968701283 0.9999999999999999
vt 0.4142125 1
vt 0 1
vt 0.20710625 0.5
vt 0.18971875 0.31843124999999994
vt 0.24149375 0.31843124999999994
vt 0.3062125 0.5625
vt 0.125 0.5625
vt 0 0.5
vt 0.4142125 0.5
vt 0.20710625 1
vt 0.26516249999999997 0.125
vt 0.2133875 0.125
vt 0.1875 0.0029687499999999645
vt 0.29105000000000003 0.0029687499999999645
vt 0.4888232363720255 0.4375
vt 0.2363196298074357 0.4375
vt 0.125 0.3811996567297501
vt 0.6300088150555554 0.38119361551034636
vt 0.1531125 0.8779625
vt 0.334325 0.8779625
vt 0.4249375 1
vt 0.0625 1
vt 0.05630638448965361 0.2938108147518803
vt 0.05630638448965364 0.5463144213164701
vt 0 0.6875
vt 0.000006041219403729592 0.1824911849444446
vt 0.26516249999999997 0.125
vt 0.2133875 0.125
vt 0.1875 0.0029687499999999645
vt 0.29105000000000003 0.0029687499999999645
vt 0.4888232363720255 0.4375
vt 0.2363196298074357 0.4375
vt 0.125 0.3811996567297501
vt 0.6300088150555554 0.38119361551034636
vt 0.1531125 0.8779625
vt 0.334325 0.8779625
vt 0.4249375 1
vt 0.0625 1
vt 0.05630638448965361 0.2938108147518803
vt 0.05630638448965364 0.5463144213164701
vt 0 0.6875
vt 0.000006041219403729592 0.1824911849444446
vt 0.26516249999999997 0.125
vt 0.2133875 0.125
vt 0.1875 0.0029687499999999645
vt 0.29105000000000003 0.0029687499999999645
vt 0.4888232363720255 0.4375
vt 0.2363196298074357 0.4375
vt 0.125 0.3811996567297501
vt 0.6300088150555554 0.38119361551034636
vt 0.1531125 0.8779625
vt 0.334325 0.8779625
vt 0.4249375 1
vt 0.0625 1
vt 0.05630638448965361 0.2938108147518803
vt 0.05630638448965364 0.5463144213164701
vt 0 0.6875
vt 0.000006041219403729592 0.1824911849444446
vt 0.26516249999999997 0.125
vt 0.2133875 0.125
vt 0.1875 0.0029687499999999645
vt 0.29105000000000003 0.0029687499999999645
vt 0.4888232363720255 0.4375
vt 0.2363196298074357 0.4375
vt 0.125 0.3811996567297501
vt 0.6300088150555554 0.38119361551034636
vt 0.1531125 0.8779625
vt 0.334325 0.8779625
vt 0.4249375 1
vt 0.0625 1
vt 0.05630638448965361 0.2938108147518803
vt 0.05630638448965364 0.5463144213164701
vt 0 0.6875
vt 0.000006041219403729592 0.1824911849444446
vt 0.125 0.5625
vt 0.17677500000000002 0.5625
vt 0.17677500000000002 0.625
vt 0.125 0.625
vt 0.0625 0.8125
vt 0.0625 0.559996658360602
vt 0.12499791144115568 0.5599933711206904
vt 0.12499791144115568 0.8124967127600882
vt 0.0625 0.6875
vt 0.2437125 0.6875
vt 0.2437125 0.75
vt 0.0625 0.75
vt 0.000003287239911831108 0.6250020885588442
vt 0.25250662887930964 0.6250020885588441
vt 0.252503341639398 0.6874999999999998
vt 0 0.6875
vt 0.125 0.5625
vt 0.17677500000000002 0.5625
vt 0.17677500000000002 0.625
vt 0.125 0.625
vt 0.0625 0.8125
vt 0.0625 0.559996658360602
vt 0.12499791144115568 0.5599933711206904
vt 0.12499791144115568 0.8124967127600882
vt 0.0625 0.6875
vt 0.2437125 0.6875
vt 0.2437125 0.75
vt 0.0625 0.75
vt 0.000003287239911831108 0.6250020885588442
vt 0.25250662887930964 0.6250020885588441
vt 0.252503341639398 0.6874999999999998
vt 0 0.6875
vt 0.125 0.5625
vt 0.17677500000000002 0.5625
vt 0.17677500000000002 0.625
vt 0.125 0.625
vt 0.0625 0.8125
vt 0.0625 0.559996658360602
vt 0.12499791144115568 0.5599933711206904
vt 0.12499791144115568 0.8124967127600882
vt 0.0625 0.6875
vt 0.2437125 0.6875
vt 0.2437125 0.75
vt 0.0625 0.75
vt 0.000003287239911831108 0.6250020885588442
vt 0.25250662887930964 0.6250020885588441
vt 0.252503341639398 0.6874999999999998
vt 0 0.6875
vt 0.125 0.5625
vt 0.17677500000000002 0.5625
vt 0.17677500000000002 0.625
vt 0.125 0.625
vt 0.0625 0.8125
vt 0.0625 0.559996658360602
vt 0.12499791144115568 0.5599933711206904
vt 0.12499791144115568 0.8124967127600882
vt 0.0625 0.6875
vt 0.2437125 0.6875
vt 0.2437125 0.75
vt 0.0625 0.75
vt 0.000003287239911831108 0.6250020885588442
vt 0.25250662887930964 0.6250020885588441
vt 0.252503341639398 0.6874999999999998
vt 0 0.6875
vn -1 -2.220446049250313e-16 0
vn -0.6401843996644798 -0.5432144762551112 0.5432144762551112
vn 1 2.220446049250313e-16 0
vn -1 -2.220446049250313e-16 0
vn -0.6401843996644797 -0.7682212795973762 0
vn 1 2.220446049250313e-16 0
vn -1 -2.220446049250313e-16 0
vn -0.6401843996644798 -0.5432144762551113 -0.5432144762551112
vn 1 2.220446049250313e-16 0
vn -1 -2.220446049250313e-16 0
vn -0.6401843996644799 -1.421494921026678e-16 -0.7682212795973759
vn 1 2.220446049250313e-16 0
vn -1 -2.220446049250313e-16 0
vn -0.64018439966448 0.543214476255111 -0.5432144762551112
vn 1 2.220446049250313e-16 0
vn -1 -2.220446049250313e-16 0
vn -0.64018439966448 0.7682212795973757 0
vn 1 2.220446049250313e-16 0
vn -1 -2.220446049250313e-16 0
vn -0.6401843996644802 0.5432144762551111 0.5432144762551112
vn 1 2.220446049250313e-16 0
vn -1 -2.220446049250313e-16 0
vn -0.6401843996644796 6.814806640222306e-16 0.7682212795973763
vn 1 2.220446049250313e-16 0
vn -0.6401843996644797 -0.7682212795973762 0
vn -0.6401843996644797 -0.7682212795973762 0
vn -0.6401843996644797 -0.7682212795973761 0
vn -0.6401843996644797 -0.7682212795973762 0
vn -0.64018439966448 -1.4214949210266782e-16 -0.7682212795973757
vn -0.6401843996644798 -1.4214949210266777e-16 -0.7682212795973759
vn -0.6401843996644797 -3.7747239385263875e-16 -0.768221279597376
vn -0.6401843996644797 -1.4214949210266774e-16 -0.7682212795973762
vn -0.6401843996644803 0.7682212795973755 0
vn -0.6401843996644802 0.7682212795973756 0
vn -0.64018439966448 0.7682212795973759 -2.353229017499708e-16
vn -0.6401843996644802 0.7682212795973756 -4.88077129555495e-16
vn -0.6401843996644797 2.6966558595978124e-16 0.768221279597376
vn -0.6401843996644799 3.459276374528272e-16 0.7682212795973759
vn -0.6401843996644802 -1.4214949210266784e-16 0.7682212795973759
vn -0.6401843996644799 -1.421494921026678e-16 0.7682212795973757
vn -0.041178223942777856 0.9991518172294531 0
vn -0.01512893681520305 0.3670897689192562 -0.9300624800655323
vn 0.041178223942777856 -0.9991518172294532 0
vn -0.015128936815203059 0.3670897689192564 0.9300624800655324
vn -0.04117822394277763 -9.143402466888523e-18 0.9991518172294531
vn -0.015128936815203175 0.9300624800655323 0.3670897689192563
vn 0.04117822394277764 -2.969185502069811e-16 -0.9991518172294532
vn -0.01512893681520277 -0.9300624800655322 0.3670897689192565
vn -0.041178223942777405 -0.9991518172294531 0
vn -0.015128936815202903 -0.36708976891925665 0.9300624800655322
vn 0.04117822394277741 0.9991518172294532 -3.060619526738693e-16
vn -0.01512893681520291 -0.3670897689192567 -0.9300624800655322
vn -0.04117822394277763 -1.0803602368254313e-15 -0.9991518172294531
vn -0.015128936815202792 -0.9300624800655323 -0.3670897689192565
vn 0.041178223942777634 9.143402466888525e-18 0.9991518172294532
vn -0.015128936815203187 0.930062480065532 -0.3670897689192568
vn 1 2.220446049250313e-16 0
vn 0.64018439966448 0.5432144762551111 0.5432144762551111
vn -1 -2.220446049250313e-16 0
vn 1 2.220446049250313e-16 0
vn 0.6401843996644802 0.7682212795973759 0
vn -1 -2.220446049250313e-16 0
vn 1 2.220446049250313e-16 0
vn 0.64018439966448 0.5432144762551112 -0.5432144762551111
vn -1 -2.220446049250313e-16 0
vn 1 2.220446049250313e-16 0
vn 0.6401843996644799 -2.010297396160399e-16 -0.7682212795973759
vn -1 -2.220446049250313e-16 0
vn 1 2.220446049250313e-16 0
vn 0.6401843996644799 -0.543214476255111 -0.5432144762551113
vn -1 -2.220446049250313e-16 0
vn 1 2.220446049250313e-16 0
vn 0.6401843996644797 -0.7682212795973761 0
vn -1 -2.220446049250313e-16 0
vn 1 2.220446049250313e-16 0
vn 0.64018439966448 -0.5432144762551111 0.5432144762551111
vn -1 -2.220446049250313e-16 0
vn 1 2.220446049250313e-16 0
vn 0.6401843996644796 -1.0246598957409378e-15 0.7682212795973763
vn -1 -2.220446049250313e-16 0
vn 0.6401843996644799 0.7682212795973759 0
vn 0.6401843996644799 0.7682212795973757 0
vn 0.6401843996644797 0.7682212795973761 0
vn 0.6401843996644802 0.7682212795973759 4.880771295554951e-16
vn 0.64018439966448 1.4214949210266782e-16 -0.7682212795973757
vn 0.6401843996644799 1.421494921026678e-16 -0.7682212795973759
vn 0.6401843996644797 3.7747239385263875e-16 -0.768221279597376
vn 0.6401843996644798 1.4214949210266777e-16 -0.7682212795973761
vn 0.6401843996644799 -0.7682212795973759 0
vn 0.6401843996644798 -0.768221279597376 0
vn 0.64018439966448 -0.7682212795973759 -2.353229017499708e-16
vn 0.6401843996644797 -0.7682212795973761 4.880771295554952e-16
vn 0.6401843996644797 -2.6966558595978124e-16 0.768221279597376
vn 0.6401843996644797 -3.459276374528273e-16 0.768221279597376
vn 0.6401843996644802 1.4214949210266784e-16 0.7682212795973759
vn 0.6401843996644797 1.4214949210266774e-16 0.768221279597376
vn 0.04117822394277737 -0.9991518172294531 0
vn 0.01512893681520287 -0.36708976891925615 -0.9300624800655323
vn -0.04117822394277737 0.9991518172294532 0
vn 0.015128936815202877 -0.3670897689192564 0.9300624800655323
vn 0.04117822394277763 -1.293072377490936e-17 0.9991518172294531
vn 0.015128936815202752 -0.9300624800655323 0.3670897689192562
vn -0.04117822394277765 3.221461230547501e-16 -0.9991518172294532
vn 0.015128936815203177 0.9300624800655322 0.3670897689192565
vn 0.04117822394277789 0.9991518172294531 0
vn 0.015128936815203081 0.3670897689192566 0.9300624800655322
vn -0.04117822394277789 -0.9991518172294532 -3.0606195267386926e-16
vn 0.015128936815203092 0.36708976891925676 -0.930062480065532
vn 0.04117822394277763 1.0582861105836334e-15 -0.9991518172294531
vn 0.015128936815203215 0.9300624800655323 -0.3670897689192565
vn -0.04117822394277763 1.6084170380880468e-17 0.9991518172294532
vn 0.015128936815202783 -0.930062480065532 -0.3670897689192568
usemtl m_4d239895-1076-d84b-817b-9519523e1884
f 161/577/153 159/578/153 157/579/153
f 159/580/154 161/581/154 162/582/154 160/583/154
f 160/584/155 162/585/155 158/586/155
f 163/587/156 161/588/156 157/589/156
f 191/590/157 192/591/157 193/592/157 194/593/157
f 162/594/158 164/595/158 158/596/158
f 165/597/159 163/598/159 157/599/159
f 163/600/160 165/601/160 166/602/160 164/603/160
f 164/604/161 166/605/161 158/606/161
f 167/607/162 165/608/162 157/609/162
f 195/610/163 196/611/163 197/612/163 198/613/163
f 166/614/164 168/615/164 158/616/164
f 169/617/165 167/618/165 157/619/165
f 167/620/166 169/621/166 170/622/166 168/623/166
f 168/624/167 170/625/167 158/626/167
f 171/627/168 169/628/168 157/629/168
f 199/630/169 200/631/169 201/632/169 202/633/169
f 170/634/170 172/635/170 158/636/170
f 173/637/171 171/638/171 157/639/171
f 171/640/172 173/641/172 174/642/172 172/643/172
f 172/644/173 174/645/173 158/646/173
f 159/647/174 173/648/174 157/649/174
f 203/650/175 204/651/175 205/652/175 206/653/175
f 174/654/176 160/655/176 158/656/176
f 176/657/177 175/658/177 161/659/177 163/660/177
f 177/661/178 176/662/178 163/663/178 164/664/178
f 178/665/179 177/666/179 164/667/179 162/668/179
f 175/669/180 178/670/180 162/671/180 161/672/180
f 180/673/181 179/674/181 165/675/181 167/676/181
f 181/677/182 180/678/182 167/679/182 168/680/182
f 182/681/183 181/682/183 168/683/183 166/684/183
f 179/685/184 182/686/184 166/687/184 165/688/184
f 184/689/185 183/690/185 169/691/185 171/692/185
f 185/693/186 184/694/186 171/695/186 172/696/186
f 186/697/187 185/698/187 172/699/187 170/700/187
f 183/701/188 186/702/188 170/703/188 169/704/188
f 188/705/189 187/706/189 173/707/189 159/708/189
f 189/709/190 188/710/190 159/711/190 160/712/190
f 190/713/191 189/714/191 160/715/191 174/716/191
f 187/717/192 190/718/192 174/719/192 173/720/192
f 192/721/193 191/722/193 175/723/193 176/724/193
f 193/725/194 192/726/194 176/727/194 177/728/194
f 194/729/195 193/730/195 177/731/195 178/732/195
f 191/733/196 194/734/196 178/735/196 175/736/196
f 196/737/197 195/738/197 179/739/197 180/740/197
f 197/741/198 196/742/198 180/743/198 181/744/198
f 198/745/199 197/746/199 181/747/199 182/748/199
f 195/749/200 198/750/200 182/751/200 179/752/200
f 200/753/201 199/754/201 183/755/201 184/756/201
f 201/757/202 200/758/202 184/759/202 185/760/202
f 202/761/203 201/762/203 185/763/203 186/764/203
f 199/765/204 202/766/204 186/767/204 183/768/204
f 204/769/205 203/770/205 187/771/205 188/772/205
f 205/773/206 204/774/206 188/775/206 189/776/206
f 206/777/207 205/778/207 189/779/207 190/780/207
f 203/781/208 206/782/208 190/783/208 187/784/208
f 211/785/209 209/786/209 207/787/209
f 209/788/210 211/789/210 212/790/210 210/791/210
f 210/792/211 212/793/211 208/794/211
f 213/795/212 211/796/212 207/797/212
f 241/798/213 242/799/213 243/800/213 244/801/213
f 212/802/214 214/803/214 208/804/214
f 215/805/215 213/806/215 207/807/215
f 213/808/216 215/809/216 216/810/216 214/811/216
f 214/812/217 216/813/217 208/814/217
f 217/815/218 215/816/218 207/817/218
f 245/818/219 246/819/219 247/820/219 248/821/219
f 216/822/220 218/823/220 208/824/220
f 219/825/221 217/826/221 207/827/221
f 217/828/222 219/829/222 220/830/222 218/831/222
f 218/832/223 220/833/223 208/834/223
f 221/835/224 219/836/224 207/837/224
f 249/838/225 250/839/225 251/840/225 252/841/225
f 220/842/226 222/843/226 208/844/226
f 223/845/227 221/846/227 207/847/227
f 221/848/228 223/849/228 224/850/228 222/851/228
f 222/852/229 224/853/229 208/854/229
f 209/855/230 223/856/230 207/857/230
f 253/858/231 254/859/231 255/860/231 256/861/231
f 224/862/232 210/863/232 208/864/232
f 226/865/233 225/866/233 211/867/233 213/868/233
f 227/869/234 226/870/234 213/871/234 214/872/234
f 228/873/235 227/874/235 214/875/235 212/876/235
f 225/877/236 228/878/236 212/879/236 211/880/236
f 230/881/237 229/882/237 215/883/237 217/884/237
f 231/885/238 230/886/238 217/887/238 218/888/238
f 232/889/239 231/890/239 218/891/239 216/892/239
f 229/893/240 232/894/240 216/895/240 215/896/240
f 234/897/241 233/898/241 219/899/241 221/900/241
f 235/901/242 234/902/242 221/903/242 222/904/242
f 236/905/243 235/906/243 222/907/243 220/908/243
f 233/909/244 236/910/244 220/911/244 219/912/244
f 238/913/245 237/914/245 223/915/245 209/916/245
f 239/917/246 238/918/246 209/919/246 210/920/246
f 240/921/247 239/922/247 210/923/247 224/924/247
f 237/925/248 240/926/248 224/927/248 223/928/248
f 242/929/249 241/930/249 225/931/249 226/932/249
f 243/933/250 242/934/250 226/935/250 227/936/250
f 244/937/251 243/938/251 227/939/251 228/940/251
f 241/941/252 244/942/252 228/943/252 225/944/252
f 246/945/253 245/946/253 229/947/253 230/948/253
f 247/949/254 246/950/254 230/951/254 231/952/254
f 248/953/255 247/954/255 231/955/255 232/956/255
f 245/957/256 248/958/256 232/959/256 229/960/256
f 250/961/257 249/962/257 233/963/257 234/964/257
f 251/965/258 250/966/258 234/967/258 235/968/258
f 252/969/259 251/970/259 235/971/259 236/972/259
f 249/973/260 252/974/260 236/975/260 233/976/260
f 254/977/261 253/978/261 237/979/261 238/980/261
f 255/981/262 254/982/262 238/983/262 239/984/262
f 256/985/263 255/986/263 239/987/263 240/988/263
f 253/989/264 256/990/264 240/991/264 237/992/264
o cuboid
v 2 0.5 0.5
v 2 0.5 -0.5
v 2 -0.5 0.5
v 2 -0.5 -0.5
v 1.625 0.5 0.5
v 1.625 0.5 -0.5
v 1.625 -0.5 0.5
v 1.625 -0.5 -0.5
v 1.5 0.4375 0.4375
v 1.5 0.4375 -0.4375
v 1.5 -0.4375 0.4375
v 1.5 -0.4375 -0.4375
v 2 0.4375 0.4375
v 2 -0.4375 0.4375
v 2 0.4375 -0.4375
v 2 -0.4375 -0.4375
v 2.0625 0.4375 0.4375
v 2.0625 -0.4375 0.4375
v 2.0625 0.4375 -0.4375
v 2.0625 -0.4375 -0.4375
v -1.625 0.5 0.5
v -1.625 0.5 -0.5
v -1.625 -0.5 0.5
v -1.625 -0.5 -0.5
v -2 0.5 0.5
v -2 0.5 -0.5
v -2 -0.5 0.5
v -2 -0.5 -0.5
v -1.5 0.4375 0.4375
v -1.5 -0.4375 0.4375
v -1.5 0.4375 -0.4375
v -1.5 -0.4375 -0.4375
v -2 0.4375 0.4375
v -2 0.4375 -0.4375
v -2 -0.4375 0.4375
v -2 -0.4375 -0.4375
v -2.0625 0.4375 0.4375
v -2.0625 0.4375 -0.4375
v -2.0625 -0.4375 0.4375
v -2.0625 -0.4375 -0.4375
vt 0.75 0.75
vt 0.25 0.75
vt 0.25 0.25
vt 0.75 0.25
vt 1 0
vt 1 1
vt 0 1
vt 0 0
vt 0 0
vt 1 0
vt 1 1
vt 0 1
vt 1 0
vt 1 1
vt 0 1
vt 0 0
vt 1 0
vt 1 1
vt 0 1
vt 0 0
vt 1 1
vt 0 1
vt 0 0
vt 1 0
vt 0.5 1
vt 0.5 0
vt 0.5625 0
vt 0.5625 1
vt 0.25 1
vt 0.25 0
vt 0.3125 0
vt 0.3125 1
vt 0.0625 0
vt 0.0625 1
vt 0 1
vt 0 0
vt 0.25 1
vt 0.25 0
vt 0.3125 0
vt 0.3125 1
vt 0.25 0.75
vt 0.75 0.75
vt 1 1
vt 0 1
vt 0.25 0.25
vt 0.25 0.75
vt 0 1
vt 0 0
vt 0.75 0.25
vt 0.25 0.25
vt 0 0
vt 1 0
vt 0.75 0.75
vt 0.75 0.25
vt 1 0
vt 1 1
vt 0.3125 0.125
vt 0.3125 1
vt 0.25 1
vt 0.25 0.125
vt 0.1875 0.125
vt 0.1875 1
vt 0.125 1
vt 0.125 0.125
vt 0.3125 0.125
vt 0.3125 1
vt 0.25 1
vt 0.25 0.125
vt 0.375 1
vt 0.375 0.125
vt 0.4375 0.125
vt 0.4375 1
vt 1 1
vt 0 1
vt 0 0
vt 1 0
vt 0.75 0.25
vt 0.75 0.75
vt 0.25 0.75
vt 0.25 0.25
vt 0 0
vt 1 0
vt 1 1
vt 0 1
vt 1 0
vt 1 1
vt 0 1
vt 0 0
vt 1 0
vt 1 1
vt 0 1
vt 0 0
vt 1 1
vt 0 1
vt 0 0
vt 1 0
vt 0.3125 0
vt 0.3125 1
vt 0.25 1
vt 0.25 0
vt 0.0625 0
vt 0.0625 1
vt 0 1
vt 0 0
vt 0.3125 0
vt 0.3125 1
vt 0.25 1
vt 0.25 0
vt 0.5 1
vt 0.5 0
vt 0.5625 0
vt 0.5625 1
vt 0.75 0.75
vt 0.75 0.25
vt 1 0
vt 1 1
vt 0.25 0.75
vt 0.75 0.75
vt 1 1
vt 0 1
vt 0.25 0.25
vt 0.25 0.75
vt 0 1
vt 0 0
vt 0.75 0.25
vt 0.25 0.25
vt 0 0
vt 1 0
vt 0.375 1
vt 0.375 0.125
vt 0.4375 0.125
vt 0.4375 1
vt 0.25 1
vt 0.25 0.125
vt 0.3125 0.125
vt 0.3125 1
vt 0.1875 0.125
vt 0.1875 1
vt 0.125 1
vt 0.125 0.125
vt 0.25 1
vt 0.25 0.125
vt 0.3125 0.125
vt 0.3125 1
vn 1 0 0
vn -1 0 0
vn 0 1 0
vn 0 -1 0
vn 0 0 1
vn 0 0 -1
vn -0.44721359549995804 0 0.8944271909999161
vn -0.44721359549995804 0.8944271909999161 0
vn -0.44721359549995804 0 -0.8944271909999161
vn -0.44721359549995804 -0.8944271909999161 0
vn 1 0 0
vn 1 0 0
vn 1 0 0
vn 1 0 0
vn 0 1 0
vn 0 0 1
vn 0 -1 0
vn 0 0 -1
vn 1 0 0
vn -1 0 0
vn 0 1 0
vn 0 -1 0
vn 0 0 1
vn 0 0 -1
vn 0.44721359549995804 0.8944271909999161 0
vn 0.44721359549995804 0 0.8944271909999161
vn 0.44721359549995804 -0.8944271909999161 0
vn 0.44721359549995804 0 -0.8944271909999161
vn -1 0 0
vn -1 0 0
vn -1 0 0
vn -1 0 0
vn 0 0 1
vn 0 1 0
vn 0 0 -1
vn 0 -1 0
usemtl m_c5d5ad0d-80a9-6421-ef0a-797985170764
f 275/993/265 273/994/265 274/995/265 276/996/265
f 267/997/266 265/998/266 266/999/266 268/1000/266
f 261/1001/267 257/1002/267 258/1003/267 262/1004/267
f 260/1005/268 259/1006/268 263/1007/268 264/1008/268
f 259/1009/269 257/1010/269 261/1011/269 263/1012/269
f 262/1013/270 258/1014/270 260/1015/270 264/1016/270
f 265/1017/271 267/1018/271 263/1019/271 261/1020/271
f 266/1021/272 265/1022/272 261/1023/272 262/1024/272
f 268/1025/273 266/1026/273 262/1027/273 264/1028/273
f 267/1029/274 268/1030/274 264/1031/274 263/1032/274
f 269/1033/275 271/1034/275 258/1035/275 257/1036/275
f 270/1037/276 269/1038/276 257/1039/276 259/1040/276
f 272/1041/277 270/1042/277 259/1043/277 260/1044/277
f 271/1045/278 272/1046/278 260/1047/278 258/1048/278
f 273/1049/279 275/1050/279 271/1051/279 269/1052/279
f 274/1053/280 273/1054/280 269/1055/280 270/1056/280
f 276/1057/281 274/1058/281 270/1059/281 272/1060/281
f 275/1061/282 276/1062/282 272/1063/282 271/1064/282
f 287/1065/283 285/1066/283 286/1067/283 288/1068/283
f 295/1069/284 293/1070/284 294/1071/284 296/1072/284
f 281/1073/285 277/1074/285 278/1075/285 282/1076/285
f 280/1077/286 279/1078/286 283/1079/286 284/1080/286
f 279/1081/287 277/1082/287 281/1083/287 283/1084/287
f 282/1085/288 278/1086/288 280/1087/288 284/1088/288
f 285/1089/289 287/1090/289 278/1091/289 277/1092/289
f 286/1093/290 285/1094/290 277/1095/290 279/1096/290
f 288/1097/291 286/1098/291 279/1099/291 280/1100/291
f 287/1101/292 288/1102/292 280/1103/292 278/1104/292
f 289/1105/293 291/1106/293 283/1107/293 281/1108/293
f 290/1109/294 289/1110/294 281/1111/294 282/1112/294
f 292/1113/295 290/1114/295 282/1115/295 284/1116/295
f 291/1117/296 292/1118/296 284/1119/296 283/1120/296
f 293/1121/297 295/1122/297 291/1123/297 289/1124/297
f 294/1125/298 293/1126/298 289/1127/298 290/1128/298
f 296/1129/299 294/1130/299 290/1131/299 292/1132/299
f 295/1133/300 296/1134/300 292/1135/300 291/1136/300