# Made in Blockbench 4.7.4
mtllib MDS_H.mtl

o side
v -6 -4.5 4.5
v 6 -4.5 4.5
v 6 -3.5 4.5
v -6 -3.5 4.5
v 6 -4.5 -4.5
v -6 -4.5 -4.5
v -6 -3.5 -4.5
v 6 -3.5 -4.5
v -3 -2.0625 2.25
v 3 -2.0625 2.25
v 3 -2.0625 -2.25
v -3 -2.0625 -2.25
v 2.1 -2.278125 2.5875
v -2.1 -2.278125 2.5875
v -4.2 -3.284375 4.1625
v 4.2 -3.284375 4.1625
v -2.1 -2.278125 -2.5875
v 2.1 -2.278125 -2.5875
v 4.2 -3.284375 -4.1625
v -4.2 -3.284375 -4.1625
vt 0 0.25
vt 1 0.25
vt 1 1
vt 0 1
vt 0 0.25
vt 1 0.25
vt 1 1
vt 0 1
vt 0 -3.5
vt 6 -3.5
vt 6 1
vt 0 1
vt 0 0.25
vt 1 0.25
vt 1 1
vt 0 1
vt 0 1
vt 9 1
vt 9 0
vt 0 0
vt 0 0
vt 0 1
vt 9 1
vt 9 0
vt 0 -1.25
vt 0 -5.75
vt 3 -8
vt 3 1
vt 3 -5.75
vt 3 -1.25
vt 0 1
vt 0 -8
vt -4.1 0.5995000000000004
vt 0.09999999999999964 0.5995000000000004
vt 1 1
vt -5 1
vt 1.6108580288465468 -0.02251694184601316
vt 4.422114153784293 -0.022516941846013605
vt 4.016080178482496 0.8749999999999991
vt 0 0.875
vt -0.8000000000000007 0.375
vt -9.2 0.375
vt -11 -0.025500000000000078
vt 1 -0.025500000000000078
vt 0.125 1
vt 0.125 -1.8112561249377466
vt 1.022516941846014 -3.4221141537842925
vt 1.0225169418460123 0.5939660246982026
vt -4.1 -0.025499999999999634
vt 0.09999999999999964 -0.025499999999999634
vt 1 0.375
vt -5 0.375
vt -1.8266419711534532 -0.02251694184601316
vt 0.9846141537842925 -0.022516941846013605
vt 0.5785801784824969 0.8749999999999991
vt -3.4375 0.875
vt -0.8000000000000007 1
vt -9.2 1
vt -11 0.5994999999999999
vt 1 0.5994999999999999
vt 0.125 1
vt 0.12500000000000044 -1.8112561249377466
vt 1.0225169418460136 -3.4221141537842925
vt 1.0225169418460127 0.5939660246982026
vn 0 0 1
vn 0 0 -1
vn 0 1 0
vn 0 -1 0
vn 1 0 0
vn -1 0 0
vn 0.4321201804305529 0.9018160287246321 0
vn -0.4321201804305529 0.9018160287246321 0
vn 0 0.8426962598121398 0.538389277102201
vn 1.7600579243436871e-16 0.8426962598121402 0.5383892771022006
vn 0 0.8426962598121401 0.5383892771022005
vn 0 0.8426962598121401 0.5383892771022005
vn 0 0.8426962598121398 -0.538389277102201
vn -1.7600579243436871e-16 0.8426962598121402 -0.5383892771022006
vn 0 0.8426962598121401 -0.5383892771022005
vn 0 0.8426962598121401 -0.5383892771022005
usemtl m_3dc87638-9370-0aae-e5b4-09ca814b5c0a
f 1/1/1 2/2/1 3/3/1 4/4/1
f 5/5/2 6/6/2 7/7/2 8/8/2
f 9/9/3 10/10/3 11/11/3 12/12/3
f 6/13/4 5/14/4 2/15/4 1/16/4
f 8/17/5 3/18/5 2/19/5 5/20/5
f 1/21/6 4/22/6 7/23/6 6/24/6
f 11/25/7 10/26/7 3/27/7 8/28/7
f 9/29/8 12/30/8 7/31/8 4/32/8
f 14/33/9 13/34/9 10/35/9 9/36/9
f 15/37/10 14/38/10 9/39/10 4/40/10
f 16/41/11 15/42/11 4/43/11 3/44/11
f 13/45/12 16/46/12 3/47/12 10/48/12
f 18/49/13 17/50/13 12/51/13 11/52/13
f 19/53/14 18/54/14 11/55/14 8/56/14
f 20/57/15 19/58/15 8/59/15 7/60/15
f 17/61/16 20/62/16 7/63/16 12/64/16
o side_selection
v -6 3.5 4.5
v 6 3.5 4.5
v 6 3.5 -4.5
v -6 3.5 -4.5
v -6 3.5 4.5
v 6 3.5 4.5
v 6 4.5 4.5
v -6 4.5 4.5
v 6 3.5 -4.5
v -6 3.5 -4.5
v -6 4.5 -4.5
v 6 4.5 -4.5
v -3 2.1875 -2.25
v 3 2.1875 -2.25
v 3 2.1875 2.25
v -3 2.1875 2.25
vt 0 -3.5
vt 6 -3.5
vt 6 1
vt 0 1
vt 0 0.25
vt 1 0.25
vt 1 1
vt 0 1
vt 0 0.25
vt 1 0.25
vt 1 1
vt 0 1
vt 0 0.25
vt 1 0.25
vt 1 1
vt 0 1
vt 0 1
vt 9 1
vt 9 0
vt 0 0
vt 0 0
vt 0 1
vt 9 1
vt 9 0
vt 9 1
vt 3 1
vt 0 -1.25
vt 12 -1.25
vt 0 -1.25
vt 0 -5.75
vt 3 -8
vt 3 1
vt 3 -1.25
vt 9 -1.25
vt 12 1
vt 0 1
vt 3 -5.75
vt 3 -1.25
vt 0 1
vt 0 -8
vn 0 -1 0
vn 0 0 1
vn 0 0 -1
vn 0 1 0
vn 1 0 0
vn -1 0 0
vn 0 -0.8637789008984335 -0.5038710255240862
vn 0.40081883401970775 -0.9161573349021892 0
vn 0 -0.8637789008984335 0.5038710255240862
vn -0.40081883401970775 -0.9161573349021892 0
usemtl m_3dc87638-9370-0aae-e5b4-09ca814b5c0a
f 33/65/17 34/66/17 35/67/17 36/68/17
f 25/69/18 26/70/18 27/71/18 28/72/18
f 29/73/19 30/74/19 31/75/19 32/76/19
f 28/77/20 27/78/20 32/79/20 31/80/20
f 32/81/21 27/82/21 26/83/21 29/84/21
f 25/85/22 28/86/22 31/87/22 30/88/22
f 34/89/23 33/90/23 24/91/23 23/92/23
f 35/93/24 34/94/24 23/95/24 22/96/24
f 36/97/25 35/98/25 22/99/25 21/100/25
f 33/101/26 36/102/26 21/103/26 24/104/26
o cylinder
v 1 0.2735045051470295 1.8125
v -2 0.2735045051470302 1.8125
v 1.0000000000000002 0.7788749338569667 1.5365633053534145
v -1.9999999999999998 0.7788749338569674 1.5365633053534145
v 1.0000000000000002 1.1656687144060383 1.0266987764478206
v -1.9999999999999998 1.165668714406039 1.0266987764478206
v 1.0000000000000002 1.3749999999999998 0.36052866587563026
v -1.9999999999999998 1.3750000000000004 0.36052866587563026
v 1.0000000000000002 1.3749999999999998 -0.36052866587563
v -1.9999999999999998 1.3750000000000004 -0.36052866587563
v 1.0000000000000002 1.1656687144060387 -1.0266987764478197
v -1.9999999999999998 1.1656687144060394 -1.0266987764478197
v 1.0000000000000002 0.7788749338569667 -1.5365633053534147
v -1.9999999999999998 0.7788749338569674 -1.5365633053534147
v 1 0.27350450514703 -1.8125
v -2 0.2735045051470307 -1.8125
v 0.9999999999999999 -0.2735045051470301 -1.8125
v -2 -0.27350450514702945 -1.8125
v 0.9999999999999998 -0.7788749338569669 -1.5365633053534151
v -2 -0.7788749338569663 -1.5365633053534151
v 0.9999999999999998 -1.1656687144060387 -1.0266987764478201
v -2.0000000000000004 -1.165668714406038 -1.0266987764478201
v 0.9999999999999997 -1.375 -0.36052866587563087
v -2.0000000000000004 -1.3749999999999993 -0.36052866587563087
v 0.9999999999999997 -1.3750000000000002 0.3605286658756302
v -2.0000000000000004 -1.3749999999999996 0.3605286658756302
v 0.9999999999999998 -1.1656687144060391 1.0266987764478195
v -2.0000000000000004 -1.1656687144060385 1.0266987764478195
v 0.9999999999999998 -0.7788749338569672 1.5365633053534145
v -2 -0.7788749338569665 1.5365633053534145
v 0.9999999999999999 -0.2735045051470306 1.8124999999999998
v -2 -0.27350450514702995 1.8124999999999998
v -3 1.0000000000000007 0.29836855106948706
v -3 1.0000000000000007 -0.2983685510694869
v -3 0.8477590650225741 0.8496817460257825
v -3 0.566454497350522 1.2716385975338602
v -3 0.19891236737965867 1.5
v -3 -0.1989123673796578 1.4999999999999998
v -3 -0.5664544973505207 1.2716385975338602
v -3 -0.8477590650225731 0.8496817460257816
v -3 -0.9999999999999993 0.298368551069487
v -3 -0.9999999999999992 -0.29836855106948756
v -3 -0.8477590650225728 -0.8496817460257821
v -3 -0.5664544973505207 -1.2716385975338607
v -3 -0.19891236737965745 -1.5
v -3 0.198912367379659 -1.5
v -3 0.566454497350522 -1.2716385975338602
v -3 0.8477590650225745 -0.8496817460257818
v 2.375 0.9374999999999994 -0.2983685510694869
v 2.375 0.9374999999999994 0.2983685510694871
v 2.375 0.7947741234586623 -0.8496817460257818
v 2.375 0.5310510912661132 -1.2716385975338604
v 2.375 0.18648034441842914 -1.5
v 2.375 -0.18648034441843 -1.5
v 2.375 -0.5310510912661143 -1.2716385975338607
v 2.375 -0.7947741234586632 -0.8496817460257822
v 2.375 -0.9375000000000003 -0.29836855106948756
v 2.375 -0.7947741234586634 0.8496817460257816
v 2.375 -0.9375000000000006 0.29836855106948706
v 2.375 -0.5310510912661143 1.2716385975338602
v 2.375 -0.1864803444184303 1.4999999999999998
v 2.375 0.18648034441842878 1.5
v 2.375 0.5310510912661132 1.2716385975338602
v 2.375 0.794774123458662 0.8496817460257826
v 4.9375 0.3749999999999989 -0.21134439034088656
v 4.9375 0.3749999999999989 0.21134439034088673
v 4.9375 0.31790964938346405 -0.6018579034349288
v 4.9375 0.21242043650644438 -0.9007440065864846
v 4.9375 0.07459213776737078 -1.0625
v 4.9375 -0.07459213776737289 -1.0625
v 4.9375 -0.2124204365064466 -0.9007440065864847
v 4.9375 -0.31790964938346616 -0.6018579034349291
v 4.9375 -0.37500000000000105 -0.21134439034088703
v 4.9375 -0.3179096493834663 0.6018579034349286
v 4.9375 -0.3750000000000011 0.21134439034088667
v 4.9375 -0.2124204365064466 0.9007440065864843
v 4.9375 -0.07459213776737302 1.0625
v 4.9375 0.07459213776737063 1.0625
v 4.9375 0.21242043650644438 0.9007440065864843
v 4.9375 0.31790964938346394 0.6018579034349294
v 5.5 0.07080681216881393 -2.172382604120345
v 5.5 0.10596988312782049 -1.4515396494607107
v 5.5 0.12499999999999878 -0.5097129414103735
v 5.5 0.12499999999999878 0.5097129414103738
v 5.5 0.10596988312782046 1.451539649460712
v 5.5 0.07080681216881393 2.1723826041203447
v 5.5 0.02486404592245602 2.5625
v 5.5 -0.024864045922458528 2.5625
v 5.5 -0.07080681216881637 2.1723826041203447
v 5.5 -0.10596988312782293 1.4515396494607102
v 5.5 -0.12500000000000122 0.5097129414103737
v 5.5 -0.1250000000000012 -0.5097129414103745
v 5.5 -0.1059698831278229 -1.4515396494607111
v 5.5 -0.07080681216881637 -2.1723826041203456
v 5.5 -0.024864045922458486 -2.5625
v 5.5 0.02486404592245607 -2.5625
v 5.75 -1.27675647831893e-15 0
v -3.5 0.3894374669284842 0.9537289481503951
v -3.5 0.58283435720302 0.6372613095193368
v -3.875 8.604228440844963e-16 0
v -3.5 0.6875000000000008 0.2237764133021153
v -3.5 0.6875000000000008 -0.22377641330211517
v -3.5 0.5828343572030202 -0.6372613095193363
v -3.5 0.3894374669284842 -0.9537289481503951
v -3.5 0.13675225257351586 -1.125
v -3.5 -0.13675225257351417 -1.125
v -3.5 -0.38943746692848263 -0.9537289481503956
v -3.5 -0.5828343572030185 -0.6372613095193366
v -3.5 -0.6874999999999991 -0.22377641330211565
v -3.5 -0.6874999999999992 0.22377641330211526
v -3.5 -0.5828343572030187 0.6372613095193361
v -3.5 -0.38943746692848263 0.9537289481503951
v -3.5 -0.13675225257351442 1.1249999999999998
v -3.5 0.13675225257351567 1.125
v -3.603125 -0.4984374999999991 -0.16223789964403385
v -3.603125 -0.4984374999999992 0.16223789964403357
v -3.7375 -0.2520833333333325 -7.123931074678088e-17
v -3.56875 -0.4951700928952447 -0.44462450513430096
v -3.56875 -0.49517009289524483 0.4446245051343007
vt 0.5097957578546162 0.8049123420559139
vt 0.47099081878732396 1
vt 0 0.8049123420559141
vt 0 0
vt 0.1989125 0
vt 0.1989125 1
vt 0 1
vt 1.6653345369377348e-16 0.49020440795936404
vt 0.19508772139748126 0.529009028020174
vt 0 1
vt 0.5097957578546162 0.80490439172127
vt 0.47098770510164567 1
vt 0 0.8049043917212698
vt 0 0
vt 0.1989125 0
vt 0.1989125 1
vt 0 1
vt 1.942890293094024e-16 0.49020424214538383
vt 0.19509560827873015 0.5290122948983543
vt 0 1
vt 0.509795592040636 0.8049122786025189
vt 0.4709909719798262 1
vt 0 0.8049122786025192
vt 0 0
vt 0.1989125 0
vt 0.1989125 1
vt 0 1
vt 0 0.49020424214538383
vt 0.19508765794408608 0.529009181212676
vt 1.942890293094024e-16 1
vt 0.5 0.8010875
vt 0.5 1
vt 0 0.90054375
vt 0 0
vt 0.1989125 0
vt 0.1989125 1
vt 0 1
vt 0.5 0.8010875
vt 0.5 1
vt 0 0.90054375
vt 0 0.49020424214538383
vt 0.19508765794408608 0.529009181212676
vt 1.942890293094024e-16 1
vt 0 0
vt 0.1989125 0
vt 0.1989125 1
vt 0 1
vt 0.509795592040636 0.8049122786025189
vt 0.4709909719798262 1
vt 0 0.8049122786025192
vt 1.942890293094024e-16 0.49020424214538383
vt 0.19509560827873015 0.5290122948983543
vt 0 1
vt 0 0
vt 0.1989125 0
vt 0.1989125 1
vt 0 1
vt 0.5097957578546162 0.80490439172127
vt 0.47098770510164567 1
vt 0 0.8049043917212698
vt 1.6653345369377348e-16 0.49020440795936404
vt 0.19508772139748126 0.529009028020174
vt 0 1
vt 0 0
vt 0.1989125 0
vt 0.1989125 1
vt 0 1
vt 0.5097957578546162 0.8049123420559139
vt 0.47099081878732396 1
vt 0 0.8049123420559141
vt 0 0.5
vt 0.1989125 0.5
vt 0.09945625 1
vt 0 0
vt 0.1989125 0
vt 0.1989125 1
vt 0 1
vt 0.1989125 1
vt 0 1
vt 0.09945625 0.5
vt 0 1
vt 0.03880493906729221 0.8049123420559139
vt 0.5097957578546162 0.9999999999999998
vt 0 0
vt 0.1989125 0
vt 0.1989125 1
vt 0 1
vt 0.1950877213974811 1
vt 0 0.9611953799391901
vt 0.19508772139748126 0.49020440795936404
vt 0 0.9999999999999998
vt 0.0388080527529705 0.8049043917212698
vt 0.5097957578546162 1
vt 0 0
vt 0.1989125 0
vt 0.1989125 1
vt 0 1
vt 0.19509560827872996 1
vt 0 0.9611919472470296
vt 0.19509560827872996 0.49020424214538383
vt 0 0.9999999999999998
vt 0.038804620060809925 0.8049122786025187
vt 0.509795592040636 1
vt 0 0
vt 0.1989125 0
vt 0.1989125 1
vt 0 1
vt 0 1
vt 0 0.8010875
vt 0.5 0.90054375
vt 0 0
vt 0.1989125 0
vt 0.1989125 1
vt 0 1
vt 0.19508765794408608 1
vt 0 0.9611950609327078
vt 0.1950876579440859 0.49020424214538383
vt 0 0
vt 0.1989125 0
vt 0.1989125 1
vt 0 1
vt 0.19509560827872996 1
vt 0 0.9611919472470296
vt 0.19509560827872996 0.49020424214538383
vt 0 0
vt 0.1989125 0
vt 0.1989125 1
vt 0 1
vt 0 0.9999999999999998
vt 0.0388080527529705 0.8049043917212698
vt 0.5097957578546162 1
vt 0.1950877213974811 1
vt 0 0.9611953799391901
vt 0.19508772139748126 0.49020440795936404
vt 0 0
vt 0.1989125 0
vt 0.1989125 1
vt 0 1
vt 0 1
vt 0.03880493906729221 0.8049123420559139
vt 0.5097957578546162 0.9999999999999998
vt 0.1989125 1
vt 0 1
vt 0.09945625 0.5
vt 0 0
vt 0.1989125 0
vt 0.1989125 1
vt 0 1
vt 0 0.5
vt 0.1989125 0.5
vt 0.09945625 1
vt 0.7210625 1
vt 0 1
vt 0 0.9375
vt 0.7210625 0.9375
vt 0.6982875000000001 0.8125
vt 0 0.8125
vt 0 0.75
vt 0.6982875000000001 0.75
vt 0.639975 0.8125
vt 0 0.8125
vt 0 0.75
vt 0.639975 0.75
vt 0.5757937499999999 0.8125
vt 0 0.8125
vt 0 0.75
vt 0.5757937499999999 0.75
vt 0.5470125 0.75
vt 0 0.75
vt 0 0.6875
vt 0.5470125 0.6875
vt 0.57579375 1
vt 0 1
vt 0 0.9375
vt 0.57579375 0.9375
vt 0.639975 1
vt 0 1
vt 0 0.9375
vt 0.639975 0.9375
vt 0.6982875000000001 1
vt 0 1
vt 0 0.9375
vt 0.6982875000000001 0.9375
vt 0.7210625 1
vt 0 1
vt 0 0.9375
vt 0.7210625 0.9375
vt 0.6982875000000001 1
vt 0 1
vt 0 0.9375
vt 0.6982875000000001 0.9375
vt 0.639975 1
vt 0 1
vt 0 0.9375
vt 0.639975 0.9375
vt 0.5757937499999999 1
vt 0 1
vt 0 0.9375
vt 0.5757937499999999 0.9375
vt 0.5470125 1
vt 0 1
vt 0 0.9375
vt 0.5470125 0.9375
vt 0.57579375 1
vt 0 1
vt 0 0.9375
vt 0.57579375 0.9375
vt 0.639975 1
vt 0 1
vt 0 0.9375
vt 0.639975 0.9375
vt 0.6982875000000001 1
vt 0 1
vt 0 0.9375
vt 0.6982875000000001 0.9375
vt 0 0.9375
vt 0.7210625 0.9375
vt 0.7210625 1
vt 0 1
vt 0 0.75
vt 0.6982875000000001 0.75
vt 0.6982875000000001 0.8125
vt 0 0.8125
vt 0 0.75
vt 0.639975 0.75
vt 0.639975 0.8125
vt 0 0.8125
vt 0 0.75
vt 0.57579375 0.75
vt 0.57579375 0.8125
vt 0 0.8125
vt 0 0.6875
vt 0.5470125 0.6875
vt 0.5470125 0.75
vt 0 0.75
vt 0 0.9375
vt 0.5757937499999999 0.9375
vt 0.5757937499999999 1
vt 0 1
vt 0 0.9375
vt 0.639975 0.9375
vt 0.639975 1
vt 0 1
vt 0 0.9375
vt 0.6982875000000001 0.9375
vt 0.6982875000000001 1
vt 0 1
vt 0 0.9375
vt 0.6982875000000001 0.9375
vt 0.6982875000000001 1
vt 0 1
vt 0 0.9375
vt 0.7210625 0.9375
vt 0.7210625 1
vt 0 1
vt 0 0.9375
vt 0.639975 0.9375
vt 0.639975 1
vt 0 1
vt 0 0.9375
vt 0.57579375 0.9375
vt 0.57579375 1
vt 0 1
vt 0 0.9375
vt 0.5470125 0.9375
vt 0.5470125 1
vt 0 1
vt 0 0.9375
vt 0.57579375 0.9375
vt 0.57579375 1
vt 0 1
vt 0 0.9375
vt 0.639975 0.9375
vt 0.639975 1
vt 0 1
vt 0 0.9375
vt 0.6982875000000001 0.9375
vt 0.6982875000000001 1
vt 0 1
vt 0 0.9375
vt 0.5967375 0.9375
vt 0.5967375 1
vt 0 1
vt 0 0.75
vt 0.5694875 0.75
vt 0.5694875 0.8125
vt 0 0.8125
vt 0 0.75
vt 0.49759374999999995 0.75
vt 0.49759374999999995 0.8125
vt 0 0.8125
vt 0 0.75
vt 0.41337500000000005 0.75
vt 0.41337500000000005 0.8125
vt 0 0.8125
vt 0 0.6875
vt 0.3729625 0.6875
vt 0.3729625 0.75
vt 0 0.75
vt 0 0.9375
vt 0.413375 0.9375
vt 0.413375 1
vt 0 1
vt 0 0.9375
vt 0.49759374999999995 0.9375
vt 0.49759374999999995 1
vt 0 1
vt 0 0.9375
vt 0.5694875 0.9375
vt 0.5694875 1
vt 0 1
vt 0 0.9375
vt 0.5694875 0.9375
vt 0.5694875 1
vt 0 1
vt 0 0.9375
vt 0.5967375 0.9375
vt 0.5967375 1
vt 0 1
vt 0 0.9375
vt 0.49759374999999995 0.9375
vt 0.49759374999999995 1
vt 0 1
vt 0 0.9375
vt 0.41337500000000005 0.9375
vt 0.41337500000000005 1
vt 0 1
vt 0 0.9375
vt 0.3729625 0.9375
vt 0.3729625 1
vt 0 1
vt 0.0625 0.9375
vt 0.475875 0.9375
vt 0.475875 1
vt 0.0625 1
vt 0.0625 0.9375
vt 0.56009375 0.9375
vt 0.56009375 1
vt 0.0625 1
vt 0 0.9375
vt 0.5694875 0.9375
vt 0.5694875 1
vt 0 1
vt 0 0.75
vt 0.31695624999999994 0.75
vt 0.31695624999999994 0.8125
vt 0 0.8125
vt 0 0.75
vt 0.3946625 0.75
vt 0.3946625 0.8125
vt 0 0.8125
vt 0.0625 0.9375
vt 0.4851875 0.9375
vt 0.4851875 1
vt 0.0625 1
vt 0.125 0.9375
vt 0.5196625 0.9375
vt 0.5196625 1
vt 0.125 1
vt 0.125 0.9375
vt 0.44195624999999994 0.9375
vt 0.44195624999999994 1
vt 0.125 1
vt 0.125 0.9375
vt 0.3375125 0.9375
vt 0.3375125 1
vt 0.125 1
vt 0 0.9375
vt 0.1491875 0.9375
vt 0.1491875 1
vt 0 1
vt 0 0.9375
vt 0.2125125 0.9375
vt 0.2125125 1
vt 0 1
vt 0 0.9375
vt 0.31695624999999994 0.9375
vt 0.31695624999999994 1
vt 0 1
vt 0 0.9375
vt 0.3946625 0.9375
vt 0.3946625 1
vt 0 1
vt 0 0.9375
vt 0.4226875 0.9375
vt 0.4226875 1
vt 0 1
vt 0 0.9375
vt 0.3946625 0.9375
vt 0.3946625 1
vt 0 1
vt 0 0.9375
vt 0.31695624999999994 0.9375
vt 0.31695624999999994 1
vt 0 1
vt 0 0.9375
vt 0.2125125 0.9375
vt 0.2125125 1
vt 0 1
vt 0 0.6875
vt 0.1491875 0.6875
vt 0.1491875 0.75
vt 0 0.75
vt 0 0.75
vt 0.2125125 0.75
vt 0.2125125 0.8125
vt 0 0.8125
vt 0.50713125 0.8125
vt 0 0.8125
vt 0 0.75
vt 0.50713125 0.75
vt 0.57194375 0.8125
vt 0 0.8125
vt 0 0.75
vt 0.57194375 0.75
vt 0.5967375 1
vt 0 1
vt 0 0.9375
vt 0.5967375 0.9375
vt 0.57194375 1
vt 0 1
vt 0 0.9375
vt 0.57194375 0.9375
vt 0.50713125 1
vt 0 1
vt 0 0.9375
vt 0.50713125 0.9375
vt 0.43270624999999996 1
vt 0 1
vt 0 0.9375
vt 0.43270624999999996 0.9375
vt 0.397825 1
vt 0 1
vt 0 0.9375
vt 0.397825 0.9375
vt 0.43270624999999996 1
vt 0 1
vt 0 0.9375
vt 0.43270624999999996 0.9375
vt 0.50713125 1
vt 0 1
vt 0 0.9375
vt 0.50713125 0.9375
vt 0.57194375 1
vt 0 1
vt 0 0.9375
vt 0.57194375 0.9375
vt 0.5967375 1
vt 0 1
vt 0 0.9375
vt 0.5967375 0.9375
vt 0.57194375 1
vt 0 1
vt 0 0.9375
vt 0.57194375 0.9375
vt 0.50713125 1
vt 0 1
vt 0 0.9375
vt 0.50713125 0.9375
vt 0.43270624999999996 1
vt 0 1
vt 0 0.9375
vt 0.43270624999999996 0.9375
vt 0.397825 0.75
vt 0 0.75
vt 0 0.6875
vt 0.397825 0.6875
vt 0.43270624999999996 0.8125
vt 0 0.8125
vt 0 0.75
vt 0.43270624999999996 0.75
vt 0.3860125 1
vt 0.061537499999999995 1
vt 0 0.7846437499999999
vt 0.44755 0.7846437499999999
vt 0.43979375 1
vt 0.16523749999999998 0.9254687500000001
vt 0 0.7764125000000001
vt 0.42653125 0.7764125000000001
vt 0.193451027283739 0.4186391613760583
vt 0.6392033590679144 0.7128529980948348
vt 0.6392033590679144 1
vt 0 0.3087553134143759
vt 0.27455625 0.9254687500000001
vt 0 1
vt 0.01326250000000001 0.7764125000000001
vt 0.43979375 0.7764125000000001
vt 0.125 0.793960426177938
vt 0.24635855372133592 0.2738333608045066
vt 0.3119513515526117 0.06118485343808899
vt 0.31195135155261167 1
vt 0.28448876089948616 0.7267974511062121
vt 0.45893339174567316 1
vt 0 0.7267974511062123
vt 0.1622375 1
vt 0 0.7193812500000001
vt 0.324475 0.7193812500000001
vt 1.1102230246251565e-16 1
vt 0 0.6758541039082477
vt 0.23977799980344283 0.5227516353181394
vn 0.7920781067793378 0.606230337207118 0.07139363424426531
vn 1.0640976907390469e-16 0.4792269963498177 0.8776909968602457
vn -0.9372395760632491 0.19563603159070178 0.288632153794797
vn 0.5768928714001097 0.8158497227703919 0.03979754745221431
vn 1.7690099849474364e-16 0.7966912709023961 0.604386481374232
vn -0.9112337411416698 0.351457940513052 0.2147798525357541
vn 0.4758880185515865 0.8793264002143242 0.017767264425438297
vn 2.1183247421309185e-16 0.9540086519310507 0.2997790720525697
vn -0.8872790978343592 0.4471303626077697 0.11318233687501768
vn 0.44721359549995826 0.894427190999916 0
vn 2.220446049250313e-16 1 0
vn -0.8778955729143842 0.4788521306805736 0
vn 0.4758880185515865 0.8793264002143242 -0.01776726442543829
vn 2.1183247421309185e-16 0.9540086519310507 -0.2997790720525694
vn -0.8872790978343593 0.4471303626077699 -0.11318233687501758
vn 0.5768928714001094 0.8158497227703921 -0.039797547452214255
vn 1.769009984947437e-16 0.7966912709023964 -0.6043864813742317
vn -0.9112337411416698 0.35145794051305207 -0.2147798525357541
vn 0.792078106779338 0.606230337207118 -0.07139363424426533
vn 1.064097690739047e-16 0.47922699634981775 -0.8776909968602457
vn -0.937239576063249 0.19563603159070184 -0.28863215379479695
vn 0.9952746339256161 -2.209953628819186e-16 -0.09709996428542596
vn 0 0 -1
vn -0.948683298050514 2.106500081146021e-16 -0.316227766016838
vn 0.792078106779338 -0.6062303372071178 -0.07139363424426537
vn -1.0640976907390457e-16 -0.47922699634981714 -0.877690996860246
vn -0.9372395760632493 -0.19563603159070095 -0.2886321537947971
vn 0.5768928714001088 -0.8158497227703925 -0.039797547452214234
vn -1.7690099849474373e-16 -0.7966912709023966 -0.6043864813742313
vn -0.91123374114167 -0.3514579405130519 -0.21477985253575385
vn 0.4758880185515861 -0.8793264002143244 -0.0177672644254383
vn -2.1183247421309183e-16 -0.9540086519310506 -0.2997790720525699
vn 0.44721359549995776 -0.8944271909999162 -2.4352277052041388e-17
vn -2.220446049250313e-16 -1 -3.079430652008525e-16
vn 0.475888018551586 -0.8793264002143243 0.0177672644254383
vn -2.1183247421309183e-16 -0.9540086519310506 0.29977907205256954
vn 0.5768928714001089 -0.8158497227703924 0.039797547452214255
vn -1.769009984947437e-16 -0.7966912709023964 0.6043864813742317
vn -0.91123374114167 -0.3514579405130518 0.21477985253575402
vn 0.7920781067793372 -0.606230337207119 0.07139363424426527
vn -1.0640976907390474e-16 -0.4792269963498179 0.8776909968602457
vn -0.9372395760632491 -0.1956360315907014 0.28863215379479706
vn 0.9952746339256161 -2.209953628819186e-16 0.09709996428542597
vn -9.013344505935759e-32 -4.059249495829419e-16 1
vn -0.948683298050514 -4.6079471839620535e-17 0.316227766016838
vn -0.35112344158839154 0.9363291775690448 0
vn -0.3333379766908875 0.9087940394486299 0.2509565443623013
vn -0.3079657144269581 0.7916105330584186 0.5277403553722796
vn -0.29156049704270753 0.5048200724704885 0.8124956436776141
vn -0.29827499313594685 -4.66509597812583e-16 0.9544799780350298
vn -0.319465436835493 -0.5000943593196839 0.8048897231572425
vn -0.340972308049709 -0.7821882994959762 0.521458866330651
vn -0.35359640604782866 -0.9016520302017501 0.2489843329672001
vn -0.35112344158839187 -0.9363291775690444 -1.7420304650730298e-16
vn -0.3333379766908881 -0.9087940394486297 -0.2509565443623016
vn -0.30796571442695825 -0.7916105330584189 -0.5277403553722788
vn -0.29156049704270787 -0.5048200724704878 -0.8124956436776144
vn -0.2982749931359468 6.623035300988773e-17 -0.9544799780350298
vn -0.31946543683549294 0.5000943593196843 -0.8048897231572423
vn -0.34097230804970863 0.7821882994959761 -0.5214588663306511
vn -0.35359640604782827 0.9016520302017503 -0.24898433296719996
vn 0.3032036572769472 0.9529257800132619 0
vn 0.28153041422976016 0.9289283982587481 -0.24048421314518065
vn 0.24705255153198016 0.8217121229277925 -0.5135700768298703
vn 0.21896280603985974 0.5390273477668904 -0.8133294584180155
vn 0.2216211035889681 -4.920977038946186e-17 -0.9751328557914598
vn 0.25178943965580797 -0.5346348605009217 -0.8067017069617335
vn 0.2846839487117163 -0.8129093482783945 -0.5080683426739961
vn 0.3042200815973836 -0.9221996931336304 -0.23874226257016007
vn 0.2815304142297597 -0.9289283982587482 0.2404842131451808
vn 0.3032036572769467 -0.9529257800132621 -3.545816534408216e-16
vn 0.24705255153197977 -0.8217121229277925 0.5135700768298703
vn 0.21896280603985957 -0.5390273477668907 0.8133294584180156
vn 0.22162110358896808 -6.297615448643957e-16 0.9751328557914598
vn 0.25178943965580813 0.5346348605009219 0.8067017069617332
vn 0.28468394871171665 0.8129093482783937 0.5080683426739969
vn 0.30422008159738406 0.9221996931336304 0.23874226257016012
vn 0.21440729484260887 0.9767443431718837 0
vn 0.19434826498002566 0.9706152397296031 -0.14189717510894617
vn 0.1632089237650375 0.9303462760496131 -0.3283575091939811
vn 0.1424965128046926 0.7533918390932991 -0.6419466337836179
vn 0.16829646289202077 -3.7369321613138944e-17 -0.9857364255104074
vn 0.18525505625800603 -0.7479839307209295 -0.6373386882295086
vn 0.20333357542964153 -0.9232908152618946 -0.32586734656302146
vn 0.21683162062152572 -0.9659413476329328 -0.14121388469876667
vn 0.1943482649800253 -0.9706152397296033 0.1418971751089463
vn 0.21440729484260843 -0.976744343171884 -1.2827452590682875e-16
vn 0.16320892376503715 -0.9303462760496133 0.32835750919398116
vn 0.14249651280469214 -0.7533918390932997 0.6419466337836175
vn 0.16829646289202077 -3.7369321613138944e-17 0.9857364255104073
vn 0.1852550562580063 0.7479839307209301 0.6373386882295079
vn 0.20333357542964195 0.9232908152618943 0.3258673465630221
vn 0.21683162062152617 0.9659413476329327 0.14121388469876653
vn 0.1399217764341505 0.9889865951818019 -0.048243248545453754
vn 0.32714087178051415 0.9447827410702366 -0.019089845114503415
vn 0.4061384660534478 0.913811548620257 0
vn 0.39784294535645875 0.9172663118383089 0.01853386081323786
vn 0.2897500074697343 0.95596566140884 0.04663247128823618
vn -0.01437529021992946 0.993034210075933 0.11694617843247655
vn -0.9363291775690445 2.0790684231309798e-16 0.35112344158839176
vn -0.2186668750363974 -0.9691024908240892 0.11412782325253948
vn 0.13992177643415007 -0.9889865951818021 0.04824324854545377
vn 0.32714087178051365 -0.9447827410702367 0.019089845114503425
vn 0.4061384660534474 -0.9138115486202573 -2.4880048626962616e-17
vn 0.39784294535645814 -0.917266311838309 -0.01853386081323786
vn 0.289750007469734 -0.9559656614088402 -0.04663247128823606
vn -0.014375290219930436 -0.993034210075933 -0.11694617843247676
vn -0.9363291775690445 2.0790684231309798e-16 -0.3511234415883917
vn -0.21866687503639737 0.9691024908240891 -0.11412782325253963
vn -0.5352362355484096 0.7207692266974275 0.4404700829817616
vn -0.5256491976960758 0.8246905746826223 0.20875434604126916
vn -0.5299989400031798 0.8479983040050884 0
vn -0.5405441322649013 0.8155917837794519 -0.20645116445648046
vn -0.5587000955832607 0.7076861518480096 -0.4324748705737839
vn -0.586940647415404 0.4542561504528178 -0.6701880528533566
vn -0.6000000000000001 1.332267629550188e-16 -0.8
vn -0.5682485650593018 -0.4616773711136192 -0.681136971034213
vn -0.5352362355484096 -0.7207692266974278 -0.44047008298176105
vn -0.5256491976960762 -0.8246905746826223 -0.20875434604126927
vn -0.5299989400031803 -0.847998304005088 -2.1035890871091905e-16
vn -0.5405441322649018 -0.8155917837794515 0.2064511644564806
vn -0.5587000955832611 -0.7076861518480096 0.4324748705737838
vn -0.5869406474154042 -0.45425615045281736 0.6701880528533568
vn -0.6000000000000001 -5.162531563776883e-16 0.8000000000000002
vn -0.5682485650593012 0.46167737111362034 0.6811369710342127
vn -0.8778955729143848 -0.4788521306805727 -1.6384354766637202e-16
vn -0.8872790978343587 -0.44713036260777106 -0.11318233687501704
vn -0.8756669034205123 -0.47763649277482517 -0.07120993627082844
vn -0.8872790978343597 -0.44713036260776917 0.11318233687501714
vn -0.9445721872214101 -0.23338528775575135 0.23089974141805952
vn -0.9018973710258059 -0.41646891407035624 -0.11460704930237985
vn -0.8778955729143846 -0.4788521306805729 -2.286189037205194e-16
vn -0.9018973710258059 -0.41646891407035624 0.11460704930237985
usemtl m_7e749dea-946b-1c92-5f12-432cc8d94690
f 122/105/27 123/106/27 133/107/27
f 37/108/28 39/109/28 40/110/28 38/111/28
f 150/112/29 134/113/29 136/114/29
f 121/115/30 122/116/30 133/117/30
f 39/118/31 41/119/31 42/120/31 40/121/31
f 134/122/32 135/123/32 136/124/32
f 120/125/33 121/126/33 133/127/33
f 41/128/34 43/129/34 44/130/34 42/131/34
f 135/132/35 137/133/35 136/134/35
f 119/135/36 120/136/36 133/137/36
f 43/138/37 45/139/37 46/140/37 44/141/37
f 137/142/38 138/143/38 136/144/38
f 118/145/39 119/146/39 133/147/39
f 45/148/40 47/149/40 48/150/40 46/151/40
f 138/152/41 139/153/41 136/154/41
f 117/155/42 118/156/42 133/157/42
f 47/158/43 49/159/43 50/160/43 48/161/43
f 139/162/44 140/163/44 136/164/44
f 132/165/45 117/166/45 133/167/45
f 49/168/46 51/169/46 52/170/46 50/171/46
f 140/172/47 141/173/47 136/174/47
f 131/175/48 132/176/48 133/177/48
f 51/178/49 53/179/49 54/180/49 52/181/49
f 141/182/50 142/183/50 136/184/50
f 130/185/51 131/186/51 133/187/51
f 53/188/52 55/189/52 56/190/52 54/191/52
f 142/192/53 143/193/53 136/194/53
f 129/195/54 130/196/54 133/197/54
f 55/198/55 57/199/55 58/200/55 56/201/55
f 143/202/56 144/203/56 136/204/56
f 128/205/57 129/206/57 133/207/57
f 57/208/58 59/209/58 60/210/58 58/211/58
f 127/212/59 128/213/59 133/214/59
f 59/215/60 61/216/60 62/217/60 60/218/60
f 126/219/61 127/220/61 133/221/61
f 61/222/62 63/223/62 64/224/62 62/225/62
f 125/226/63 126/227/63 133/228/63
f 63/229/64 65/230/64 66/231/64 64/232/64
f 147/233/65 148/234/65 136/235/65
f 124/236/66 125/237/66 133/238/66
f 65/239/67 67/240/67 68/241/67 66/242/67
f 148/243/68 149/244/68 136/245/68
f 123/246/69 124/247/69 133/248/69
f 67/249/70 37/250/70 38/251/70 68/252/70
f 149/253/71 150/254/71 136/255/71
f 70/256/72 69/257/72 44/258/72 46/259/72
f 69/260/73 71/261/73 42/262/73 44/263/73
f 71/264/74 72/265/74 40/266/74 42/267/74
f 72/268/75 73/269/75 38/270/75 40/271/75
f 73/272/76 74/273/76 68/274/76 38/275/76
f 74/276/77 75/277/77 66/278/77 68/279/77
f 75/280/78 76/281/78 64/282/78 66/283/78
f 76/284/79 77/285/79 62/286/79 64/287/79
f 77/288/80 78/289/80 60/290/80 62/291/80
f 78/292/81 79/293/81 58/294/81 60/295/81
f 79/296/82 80/297/82 56/298/82 58/299/82
f 80/300/83 81/301/83 54/302/83 56/303/83
f 81/304/84 82/305/84 52/306/84 54/307/84
f 82/308/85 83/309/85 50/310/85 52/311/85
f 83/312/86 84/313/86 48/314/86 50/315/86
f 84/316/87 70/317/87 46/318/87 48/319/87
f 86/320/88 85/321/88 45/322/88 43/323/88
f 85/324/89 87/325/89 47/326/89 45/327/89
f 87/328/90 88/329/90 49/330/90 47/331/90
f 88/332/91 89/333/91 51/334/91 49/335/91
f 89/336/92 90/337/92 53/338/92 51/339/92
f 90/340/93 91/341/93 55/342/93 53/343/93
f 91/344/94 92/345/94 57/346/94 55/347/94
f 92/348/95 93/349/95 59/350/95 57/351/95
f 95/352/96 94/353/96 63/354/96 61/355/96
f 93/356/97 95/357/97 61/358/97 59/359/97
f 94/360/98 96/361/98 65/362/98 63/363/98
f 96/364/99 97/365/99 67/366/99 65/367/99
f 97/368/100 98/369/100 37/370/100 67/371/100
f 98/372/101 99/373/101 39/374/101 37/375/101
f 99/376/102 100/377/102 41/378/102 39/379/102
f 100/380/103 86/381/103 43/382/103 41/383/103
f 102/384/104 101/385/104 85/386/104 86/387/104
f 101/388/105 103/389/105 87/390/105 85/391/105
f 103/392/106 104/393/106 88/394/106 87/395/106
f 104/396/107 105/397/107 89/398/107 88/399/107
f 105/400/108 106/401/108 90/402/108 89/403/108
f 106/404/109 107/405/109 91/406/109 90/407/109
f 107/408/110 108/409/110 92/410/110 91/411/110
f 108/412/111 109/413/111 93/414/111 92/415/111
f 111/416/112 110/417/112 94/418/112 95/419/112
f 109/420/113 111/421/113 95/422/113 93/423/113
f 110/424/114 112/425/114 96/426/114 94/427/114
f 112/428/115 113/429/115 97/430/115 96/431/115
f 113/432/116 114/433/116 98/434/116 97/435/116
f 114/436/117 115/437/117 99/438/117 98/439/117
f 115/440/118 116/441/118 100/442/118 99/443/118
f 116/444/119 102/445/119 86/446/119 100/447/119
f 118/448/120 117/449/120 104/450/120 103/451/120
f 119/452/121 118/453/121 103/454/121 101/455/121
f 120/456/122 119/457/122 101/458/122 102/459/122
f 121/460/123 120/461/123 102/462/123 116/463/123
f 122/464/124 121/465/124 116/466/124 115/467/124
f 123/468/125 122/469/125 115/470/125 114/471/125
f 124/472/126 123/473/126 114/474/126 113/475/126
f 125/476/127 124/477/127 113/478/127 112/479/127
f 126/480/128 125/481/128 112/482/128 110/483/128
f 127/484/129 126/485/129 110/486/129 111/487/129
f 128/488/130 127/489/130 111/490/130 109/491/130
f 129/492/131 128/493/131 109/494/131 108/495/131
f 130/496/132 129/497/132 108/498/132 107/499/132
f 131/500/133 130/501/133 107/502/133 106/503/133
f 132/504/134 131/505/134 106/506/134 105/507/134
f 117/508/135 132/509/135 105/510/135 104/511/135
f 135/512/136 134/513/136 72/514/136 71/515/136
f 137/516/137 135/517/137 71/518/137 69/519/137
f 138/520/138 137/521/138 69/522/138 70/523/138
f 139/524/139 138/525/139 70/526/139 84/527/139
f 140/528/140 139/529/140 84/530/140 83/531/140
f 141/532/141 140/533/141 83/534/141 82/535/141
f 142/536/142 141/537/142 82/538/142 81/539/142
f 143/540/143 142/541/143 81/542/143 80/543/143
f 144/544/144 143/545/144 80/546/144 79/547/144
f 145/548/145 144/549/145 79/550/145 78/551/145
f 146/552/146 145/553/146 78/554/146 77/555/146
f 147/556/147 146/557/147 77/558/147 76/559/147
f 148/560/148 147/561/148 76/562/148 75/563/148
f 149/564/149 148/565/149 75/566/149 74/567/149
f 150/568/150 149/569/150 74/570/150 73/571/150
f 134/572/151 150/573/151 73/574/151 72/575/151
f 152/576/152 151/577/152 145/578/152 146/579/152
f 151/580/153 154/581/153 144/582/153 145/583/153
f 154/584/154 153/585/154 136/586/154 144/587/154
f 155/588/155 152/589/155 146/590/155 147/591/155
f 153/592/156 155/593/156 147/594/156 136/595/156
f 151/596/157 153/597/157 154/598/157
f 153/599/158 151/600/158 152/601/158
f 153/602/159 152/603/159 155/604/159
o circle
v -3.75 0.29972809184491533 0.8125
v -3.75 0.3916136243376312 0.7744397662556434
v -3.75 0.4619397662556442 0.7041136243376305
v -3.75 0.5000000000000009 0.6122280918449146
v -3.75 0.5000000000000009 0.5127719081550856
v -3.75 0.4619397662556443 0.42088637566236975
v -3.75 0.3916136243376312 0.35056023374435663
v -3.75 0.2997280918449154 0.3125
v -3.75 0.2002719081550863 0.3125
v -3.75 0.10838637566237053 0.3505602337443565
v -3.75 0.03806023374435746 0.42088637566236964
v -3.75 8.604228440844963e-16 0.5127719081550854
v -3.75 8.326672684688674e-16 0.6122280918449146
v -3.75 0.03806023374435738 0.7041136243376303
v -3.75 0.10838637566237047 0.7744397662556434
v -3.75 0.20027190815508622 0.8125
v -3.75 0.43750000000000083 0.5997960688836859
v -3.75 0.43750000000000083 0.5252039311163141
v -3.75 0.40895482469173344 0.4562897817467773
v -3.75 0.3562102182532236 0.4035451753082675
v -3.75 0.28729606888368675 0.375
v -3.75 0.21270393111631494 0.375
v -3.75 0.1437897817467781 0.4035451753082674
v -3.75 0.0910451753082683 0.45628978174677726
v -3.75 0.06250000000000086 0.5252039311163141
v -3.75 0.06250000000000083 0.5997960688836859
v -3.75 0.09104517530826825 0.6687102182532227
v -3.75 0.14378978174677806 0.7214548246917325
v -3.75 0.21270393111631486 0.75
v -3.75 0.40895482469173333 0.6687102182532229
v -3.75 0.3562102182532236 0.7214548246917325
v -3.75 0.2872960688836867 0.75
vt 0.5 0.92506875
vt 0.5 0.85048125
vt 0.5625 0.83805
vt 0.5625 0.9375
vt 0.4375 0.925067132962304
vt 0.4375 0.8504712901449928
vt 0.5000002170510438 0.8380411314519226
vt 0.4999947731317226 0.9375
vt 0.5 0.987568178903264
vt 0.5 0.912977252322848
vt 0.5624949812047435 0.900545431226112
vt 0.5624949812047435 1
vt 0.5 0.9875698413069299
vt 0.5 0.9129739984896187
vt 0.5624947731317225 0.9005411314519227
vt 0.5625002170510439 1
vt 0.07493125 0.9375
vt 0.14951875000000003 0.9375
vt 0.16195000000000004 1
vt 0.0625 1
vt 0.07493286703769603 0.9374997829489562
vt 0.1495287098550072 0.9374997829489562
vt 0.16195886854807742 1
vt 0.0625 0.9999945560806787
vt 0.07493182109673602 0.9375050187952565
vt 0.14952274767715196 0.9375050187952565
vt 0.16195456877388795 1
vt 0.0625 1
vt 0.07493015869307029 0.9374997829489562
vt 0.14952600151038142 0.9374997829489562
vt 0.1619588685480774 0.9999945560806788
vt 0.0625 1
vt 0.0625 0.85048125
vt 0.0625 0.92506875
vt 0 0.9375
vt 0 0.83805
vt 0.1250002170510438 0.8504739984896186
vt 0.12500021705104386 0.9250698413069298
vt 0.0625 0.9375
vt 0.06250544391932128 0.8380411314519226
vt 0.06249498120474356 0.9129772523228481
vt 0.062494981204743616 0.987568178903264
vt 0 1
vt 0 0.9005454312261122
vt 0.12500021705104392 0.9129712901449927
vt 0.1250002170510437 0.9875671329623039
vt 0.06250544391932122 1
vt 0.0625 0.9005411314519225
vt 0.14952870985500727 0.5625
vt 0.07493286703769603 0.5625
vt 0.0625 0.5000052268682775
vt 0.16195886854807745 0.4999997829489562
vt 0.149522747677152 0.5624999999999998
vt 0.07493182109673602 0.5625
vt 0.0625 0.5000050187952565
vt 0.16195456877388797 0.5000050187952563
vt 0.14952600151038126 0.5625
vt 0.07493015869307013 0.5624999999999998
vt 0.0625 0.499999782948956
vt 0.16195886854807734 0.5000052268682773
vt 0.14951875000000003 0.5
vt 0.07493125 0.5
vt 0.0625 0.4375
vt 0.16195000000000004 0.4375
vn -1 2.220446049250313e-16 0
vn -1 2.220446049250313e-16 0
vn -1 2.220446049250313e-16 0
vn -1 2.220446049250313e-16 0
vn -1 2.220446049250313e-16 0
vn -1 2.220446049250313e-16 0
vn -1 2.220446049250313e-16 0
vn -1 2.220446049250313e-16 0
vn -1 2.220446049250313e-16 0
vn -1 2.220446049250313e-16 0
vn -1 2.220446049250313e-16 0
vn -1 2.220446049250313e-16 0
vn -1 2.220446049250313e-16 0
vn -1 2.220446049250313e-16 0
vn -1 2.220446049250313e-16 0
vn -1 2.220446049250313e-16 0
usemtl m_3dc87638-9370-0aae-e5b4-09ca814b5c0a
f 173/605/160 172/606/160 159/607/160 160/608/160
f 174/609/161 173/610/161 160/611/161 161/612/161
f 175/613/162 174/614/162 161/615/162 162/616/162
f 176/617/163 175/618/163 162/619/163 163/620/163
f 177/621/164 176/622/164 163/623/164 164/624/164
f 178/625/165 177/626/165 164/627/165 165/628/165
f 179/629/166 178/630/166 165/631/166 166/632/166
f 180/633/167 179/634/167 166/635/167 167/636/167
f 181/637/168 180/638/168 167/639/168 168/640/168
f 182/641/169 181/642/169 168/643/169 169/644/169
f 183/645/170 182/646/170 169/647/170 170/648/170
f 184/649/171 183/650/171 170/651/171 171/652/171
f 172/653/172 185/654/172 158/655/172 159/656/172
f 185/657/173 186/658/173 157/659/173 158/660/173
f 186/661/174 187/662/174 156/663/174 157/664/174
f 187/665/175 184/666/175 171/667/175 156/668/175
o circle_selection
v -3.75 0.43750000000000083 0.5997960688836859
v -3.75 0.43750000000000083 0.5252039311163141
v -3.75 0.40895482469173344 0.4562897817467773
v -3.75 0.3562102182532236 0.4035451753082675
v -3.75 0.28729606888368675 0.375
v -3.75 0.21270393111631494 0.375
v -3.75 0.1437897817467781 0.4035451753082674
v -3.75 0.0910451753082683 0.45628978174677726
v -3.75 0.06250000000000086 0.5252039311163141
v -3.75 0.06250000000000083 0.5997960688836859
v -3.75 0.09104517530826825 0.6687102182532227
v -3.75 0.14378978174677806 0.7214548246917325
v -3.75 0.21270393111631486 0.75
v -3.75 0.40895482469173333 0.6687102182532229
v -3.75 0.3562102182532236 0.7214548246917325
v -3.75 0.2872960688836867 0.75
v -3.75 0.3294774123458671 0.6156051091266115
v -3.75 0.34375000000000083 0.5811480344418429
v -3.75 0.34375000000000083 0.5438519655581571
v -3.75 0.32947741234586714 0.5093948908733886
v -3.75 0.3031051091266122 0.48302258765413375
v -3.75 0.26864803444184376 0.46875
v -3.75 0.2313519655581579 0.46875
v -3.75 0.19689489087338946 0.4830225876541337
v -3.75 0.17052258765413458 0.5093948908733886
v -3.75 0.15625000000000083 0.5438519655581571
v -3.75 0.15625000000000083 0.5811480344418429
v -3.75 0.17052258765413453 0.6156051091266114
v -3.75 0.19689489087338946 0.6419774123458662
v -3.75 0.23135196555815785 0.65625
v -3.75 0.26864803444184376 0.65625
v -3.75 0.3031051091266122 0.6419774123458662
vt 0.11843745424777141 0.6875
vt 0.08114122402188256 0.6875
vt 0.0625 0.5937447459734069
vt 0.1370958423703184 0.5937529122226675
vt 0.3125 0.91885625
vt 0.3125 0.8815562499999999
vt 0.40625 0.8629125
vt 0.40625 0.9375
vt 0.25 0.9188587759781174
vt 0.25 0.8815625457522288
vt 0.3437470877773326 0.8629041576296818
vt 0.34375525402659307 0.9375
vt 0.375 0.9813500586462048
vt 0.375 0.9440590147733793
vt 0.4687535203505714 0.925409073419584
vt 0.4687535203505714 1
vt 0.37500000000000006 0.9813416118774532
vt 0.375 0.9440453816515644
vt 0.468755254026593 0.9254041576296818
vt 0.46874708777733265 1
vt 0.08114374999999999 0.84375
vt 0.11844374999999999 0.84375
vt 0.13708750000000003 0.9375
vt 0.0625 0.9375
vt 0.018641224021882535 0.9062447459734069
vt 0.05593745424777133 0.9062447459734069
vt 0.07459584237031824 0.9999918337507395
vt 0 1
vt 0.14364994135379522 0.9062464796494286
vt 0.18094098522662078 0.9062464796494286
vt 0.19959092658041594 1
vt 0.125 1
vt 0.1436583881225471 0.8437447459734069
vt 0.1809546183484358 0.843744745973407
vt 0.19959584237031824 0.9375
vt 0.125 0.9374918337507394
vt 0.15625 0.8815562499999999
vt 0.15625 0.91885625
vt 0.0625 0.9375
vt 0.0625 0.8629125
vt 0.28125525402659307 0.9440453816515643
vt 0.281255254026593 0.981341611877453
vt 0.1875081662492605 1
vt 0.1875 0.9254041576296816
vt 0.2812535203505715 0.9440590147733792
vt 0.28125352035057144 0.9813500586462046
vt 0.18750000000000006 1
vt 0.1875 0.925409073419584
vt 0.21875525402659302 0.9440625457522288
vt 0.21875525402659313 0.9813587759781176
vt 0.125 1
vt 0.1250081662492606 0.9254041576296818
vt 0.11844374999999999 0.6875
vt 0.08114374999999999 0.6875
vt 0.0625 0.59375
vt 0.13708750000000003 0.59375
vt 0.05595461834843579 0.6875
vt 0.018658388122547 0.6875
vt 0 0.5937529122226675
vt 0.07459584237031824 0.593744745973407
vt 0.1615744168468572 0.6875
vt 0.12500000000000006 0.6802244254221863
vt 0.125 0.5846339296047411
vt 0.19815750267139798 0.5991868032388177
vn -1 2.220446049250313e-16 0
vn -1 2.220446049250313e-16 0
vn -1 2.220446049250313e-16 0
vn -1 2.220446049250313e-16 0
vn -1 2.220446049250313e-16 0
vn -1 2.220446049250313e-16 0
vn -1 2.220446049250313e-16 0
vn -1 2.220446049250313e-16 0
vn -1 2.220446049250313e-16 0
vn -1 2.220446049250313e-16 0
vn -1 2.220446049250313e-16 0
vn -1 2.220446049250313e-16 0
vn -1 2.220446049250313e-16 0
vn -1 2.220446049250313e-16 0
vn -1 2.220446049250313e-16 0
vn -1 2.220446049250313e-16 0
usemtl m_5dbd2b34-9ae3-13c1-6e0f-3b8fe4ae48da
f 205/669/176 204/670/176 201/671/176 188/672/176
f 206/673/177 205/674/177 188/675/177 189/676/177
f 207/677/178 206/678/178 189/679/178 190/680/178
f 208/681/179 207/682/179 190/683/179 191/684/179
f 209/685/180 208/686/180 191/687/180 192/688/180
f 210/689/181 209/690/181 192/691/181 193/692/181
f 211/693/182 210/694/182 193/695/182 194/696/182
f 212/697/183 211/698/183 194/699/183 195/700/183
f 213/701/184 212/702/184 195/703/184 196/704/184
f 214/705/185 213/706/185 196/707/185 197/708/185
f 215/709/186 214/710/186 197/711/186 198/712/186
f 216/713/187 215/714/187 198/715/187 199/716/187
f 217/717/188 216/718/188 199/719/188 200/720/188
f 218/721/189 217/722/189 200/723/189 203/724/189
f 219/725/190 218/726/190 203/727/190 202/728/190
f 204/729/191 219/730/191 202/731/191 201/732/191
o circle
v -3.75 0.29972809184491533 -0.3125
v -3.75 0.3916136243376312 -0.35056023374435663
v -3.75 0.4619397662556442 -0.4208863756623695
v -3.75 0.5000000000000009 -0.5127719081550854
v -3.75 0.5000000000000009 -0.6122280918449144
v -3.75 0.4619397662556443 -0.7041136243376303
v -3.75 0.3916136243376312 -0.7744397662556434
v -3.75 0.2997280918449154 -0.8125
v -3.75 0.2002719081550863 -0.8125
v -3.75 0.10838637566237053 -0.7744397662556435
v -3.75 0.03806023374435746 -0.7041136243376304
v -3.75 8.604228440844963e-16 -0.6122280918449146
v -3.75 8.326672684688674e-16 -0.5127719081550854
v -3.75 0.03806023374435738 -0.42088637566236975
v -3.75 0.10838637566237047 -0.35056023374435663
v -3.75 0.20027190815508622 -0.3125
v -3.75 0.43750000000000083 -0.5252039311163141
v -3.75 0.43750000000000083 -0.5997960688836859
v -3.75 0.40895482469173344 -0.6687102182532227
v -3.75 0.3562102182532236 -0.7214548246917325
v -3.75 0.28729606888368675 -0.75
v -3.75 0.21270393111631494 -0.75
v -3.75 0.1437897817467781 -0.7214548246917326
v -3.75 0.0910451753082683 -0.6687102182532227
v -3.75 0.06250000000000086 -0.5997960688836859
v -3.75 0.06250000000000083 -0.5252039311163141
v -3.75 0.09104517530826825 -0.45628978174677726
v -3.75 0.14378978174677806 -0.4035451753082675
v -3.75 0.21270393111631486 -0.375
v -3.75 0.40895482469173333 -0.45628978174677715
v -3.75 0.3562102182532236 -0.4035451753082675
v -3.75 0.2872960688836867 -0.375
vt 0.5 0.92506875
vt 0.5 0.85048125
vt 0.5625 0.83805
vt 0.5625 0.9375
vt 0.4375 0.925067132962304
vt 0.4375 0.8504712901449928
vt 0.5000002170510438 0.8380411314519226
vt 0.4999947731317226 0.9375
vt 0.5 0.987568178903264
vt 0.5 0.912977252322848
vt 0.5624949812047435 0.900545431226112
vt 0.5624949812047435 1
vt 0.5 0.9875698413069299
vt 0.5 0.9129739984896187
vt 0.5624947731317225 0.9005411314519227
vt 0.5625002170510439 1
vt 0.07493125 0.9375
vt 0.14951875000000003 0.9375
vt 0.16195000000000004 1
vt 0.0625 1
vt 0.07493286703769603 0.9374997829489562
vt 0.1495287098550072 0.9374997829489562
vt 0.16195886854807742 1
vt 0.0625 0.9999945560806787
vt 0.07493182109673602 0.9375050187952565
vt 0.14952274767715196 0.9375050187952565
vt 0.16195456877388795 1
vt 0.0625 1
vt 0.07493015869307029 0.9374997829489562
vt 0.14952600151038142 0.9374997829489562
vt 0.1619588685480774 0.9999945560806788
vt 0.0625 1
vt 0.0625 0.85048125
vt 0.0625 0.92506875
vt 0 0.9375
vt 0 0.83805
vt 0.1250002170510438 0.8504739984896186
vt 0.12500021705104386 0.9250698413069298
vt 0.0625 0.9375
vt 0.06250544391932128 0.8380411314519226
vt 0.06249498120474356 0.9129772523228481
vt 0.062494981204743616 0.987568178903264
vt 0 1
vt 0 0.9005454312261122
vt 0.12500021705104392 0.9129712901449927
vt 0.1250002170510437 0.9875671329623039
vt 0.06250544391932122 1
vt 0.0625 0.9005411314519225
vt 0.14952870985500727 0.5625
vt 0.07493286703769603 0.5625
vt 0.0625 0.5000052268682775
vt 0.16195886854807745 0.4999997829489562
vt 0.149522747677152 0.5624999999999998
vt 0.07493182109673602 0.5625
vt 0.0625 0.5000050187952565
vt 0.16195456877388797 0.5000050187952563
vt 0.14952600151038126 0.5625
vt 0.07493015869307013 0.5624999999999998
vt 0.0625 0.499999782948956
vt 0.16195886854807734 0.5000052268682773
vt 0.14951875000000003 0.5
vt 0.07493125 0.5
vt 0.0625 0.4375
vt 0.16195000000000004 0.4375
vn -1 2.220446049250313e-16 0
vn -1 2.220446049250313e-16 0
vn -1 2.220446049250313e-16 0
vn -1 2.220446049250313e-16 0
vn -1 2.220446049250313e-16 0
vn -1 2.220446049250313e-16 0
vn -1 2.220446049250313e-16 0
vn -1 2.220446049250313e-16 0
vn -1 2.220446049250313e-16 0
vn -1 2.220446049250313e-16 0
vn -1 2.220446049250313e-16 0
vn -1 2.220446049250313e-16 0
vn -1 2.220446049250313e-16 0
vn -1 2.220446049250313e-16 0
vn -1 2.220446049250313e-16 0
vn -1 2.220446049250313e-16 0
usemtl m_3dc87638-9370-0aae-e5b4-09ca814b5c0a
f 237/733/192 236/734/192 223/735/192 224/736/192
f 238/737/193 237/738/193 224/739/193 225/740/193
f 239/741/194 238/742/194 225/743/194 226/744/194
f 240/745/195 239/746/195 226/747/195 227/748/195
f 241/749/196 240/750/196 227/751/196 228/752/196
f 242/753/197 241/754/197 228/755/197 229/756/197
f 243/757/198 242/758/198 229/759/198 230/760/198
f 244/761/199 243/762/199 230/763/199 231/764/199
f 245/765/200 244/766/200 231/767/200 232/768/200
f 246/769/201 245/770/201 232/771/201 233/772/201
f 247/773/202 246/774/202 233/775/202 234/776/202
f 248/777/203 247/778/203 234/779/203 235/780/203
f 236/781/204 249/782/204 222/783/204 223/784/204
f 249/785/205 250/786/205 221/787/205 222/788/205
f 250/789/206 251/790/206 220/791/206 221/792/206
f 251/793/207 248/794/207 235/795/207 220/796/207
o circle_selection
v -3.75 0.43750000000000083 -0.5252039311163141
v -3.75 0.43750000000000083 -0.5997960688836859
v -3.75 0.40895482469173344 -0.6687102182532227
v -3.75 0.3562102182532236 -0.7214548246917325
v -3.75 0.28729606888368675 -0.75
v -3.75 0.21270393111631494 -0.75
v -3.75 0.1437897817467781 -0.7214548246917326
v -3.75 0.0910451753082683 -0.6687102182532227
v -3.75 0.06250000000000086 -0.5997960688836859
v -3.75 0.06250000000000083 -0.5252039311163141
v -3.75 0.09104517530826825 -0.45628978174677726
v -3.75 0.14378978174677806 -0.4035451753082675
v -3.75 0.21270393111631486 -0.375
v -3.75 0.40895482469173333 -0.45628978174677715
v -3.75 0.3562102182532236 -0.4035451753082675
v -3.75 0.2872960688836867 -0.375
v -3.75 0.23135196555815785 -0.46875
v -3.75 0.26864803444184376 -0.46875
v -3.75 0.3031051091266122 -0.48302258765413375
v -3.75 0.3294774123458671 -0.5093948908733885
v -3.75 0.34375000000000083 -0.5438519655581571
v -3.75 0.34375000000000083 -0.5811480344418429
v -3.75 0.32947741234586714 -0.6156051091266114
v -3.75 0.3031051091266122 -0.6419774123458662
v -3.75 0.26864803444184376 -0.65625
v -3.75 0.2313519655581579 -0.65625
v -3.75 0.19689489087338946 -0.6419774123458664
v -3.75 0.17052258765413458 -0.6156051091266114
v -3.75 0.15625000000000083 -0.5811480344418429
v -3.75 0.15625000000000083 -0.5438519655581571
v -3.75 0.17052258765413453 -0.5093948908733886
v -3.75 0.19689489087338946 -0.48302258765413375
vt 0.11844374999999999 0.625
vt 0.08114374999999999 0.625
vt 0.0625 0.53125
vt 0.13708750000000003 0.53125
vt 0.05594098522662072 0.6875
vt 0.018649941353795163 0.6875
vt 0 0.5937464796494286
vt 0.074590926580416 0.5937464796494286
vt 0.11843745424777119 0.75
vt 0.08114122402188262 0.75
vt 0.0625 0.6562447459734069
vt 0.13709584237031824 0.6562529122226675
vt 0.05595461834843557 0.6875
vt 0.018658388122546776 0.6875
vt 0 0.5937529122226674
vt 0.07459584237031824 0.593744745973407
vt 0.3125 0.85635625
vt 0.3125 0.8190562499999999
vt 0.40625 0.8004125
vt 0.40625 0.875
vt 0.3125 0.9188587759781175
vt 0.3125 0.8815625457522286
vt 0.40624708777733254 0.8629041576296816
vt 0.4062552540265931 0.9375
vt 0.375 0.918841611877453
vt 0.375 0.8815453816515642
vt 0.4687552540265931 0.8629041576296818
vt 0.46874708777733254 0.9375
vt 0.3125 0.918850058646205
vt 0.3125 0.8815590147733794
vt 0.4062535203505714 0.8629090734195841
vt 0.4062535203505715 0.9375
vt 0.08114374999999999 0.84375
vt 0.11844374999999999 0.84375
vt 0.13708750000000003 0.9375
vt 0.0625 0.9375
vt 0.018641224021882508 0.843744745973407
vt 0.055937454247771246 0.8437447459734069
vt 0.0745958423703183 0.9374918337507394
vt 0 0.9375
vt 0.16158308582454078 0.8346339296047413
vt 0.19815750267139798 0.8419095041825548
vt 0.19815750267139798 0.9375
vt 0.125 0.9229471263659235
vt 0.14365838812254716 0.7812447459734069
vt 0.18095461834843585 0.7812447459734069
vt 0.19959584237031835 0.875
vt 0.125 0.8749918337507394
vt 0.15625 0.8190562499999999
vt 0.15625 0.85635625
vt 0.0625 0.875
vt 0.0625 0.8004125
vt 0.21875525402659307 0.9440453816515642
vt 0.21875525402659302 0.981341611877453
vt 0.12500816624926053 1
vt 0.125 0.9254041576296818
vt 0.21875352035057138 0.9440590147733793
vt 0.21875352035057138 0.9813500586462048
vt 0.12500000000000006 1
vt 0.125 0.9254090734195841
vt 0.15625525402659307 0.9440625457522287
vt 0.15625525402659307 0.9813587759781175
vt 0.0625 1
vt 0.06250816624926048 0.9254041576296818
vn -1 2.220446049250313e-16 0
vn -1 2.220446049250313e-16 0
vn -1 2.220446049250313e-16 0
vn -1 2.220446049250313e-16 0
vn -1 2.220446049250313e-16 0
vn -1 2.220446049250313e-16 0
vn -1 2.220446049250313e-16 0
vn -1 2.220446049250313e-16 0
vn -1 2.220446049250313e-16 0
vn -1 2.220446049250313e-16 0
vn -1 2.220446049250313e-16 0
vn -1 2.220446049250313e-16 0
vn -1 2.220446049250313e-16 0
vn -1 2.220446049250313e-16 0
vn -1 2.220446049250313e-16 0
vn -1 2.220446049250313e-16 0
usemtl m_5dbd2b34-9ae3-13c1-6e0f-3b8fe4ae48da
f 269/797/208 268/798/208 264/799/208 267/800/208
f 271/801/209 270/802/209 266/803/209 265/804/209
f 272/805/210 271/806/210 265/807/210 252/808/210
f 270/809/211 269/810/211 267/811/211 266/812/211
f 273/813/212 272/814/212 252/815/212 253/816/212
f 274/817/213 273/818/213 253/819/213 254/820/213
f 276/821/214 275/822/214 255/823/214 256/824/214
f 275/825/215 274/826/215 254/827/215 255/828/215
f 277/829/216 276/830/216 256/831/216 257/832/216
f 278/833/217 277/834/217 257/835/217 258/836/217
f 279/837/218 278/838/218 258/839/218 259/840/218
f 280/841/219 279/842/219 259/843/219 260/844/219
f 281/845/220 280/846/220 260/847/220 261/848/220
f 282/849/221 281/850/221 261/851/221 262/852/221
f 283/853/222 282/854/222 262/855/222 263/856/222
f 268/857/223 283/858/223 263/859/223 264/860/223
o cylinder_selection
v -3.9156250000000004 -0.0015625000000010227 0.16223789964403385
v -3.9156250000000004 -0.0015625000000008718 -0.16223789964403357
v -3.7375 -0.3729166666666675 2.5570190528577413e-17
v -3.8187499999999996 -0.004829907104755408 0.44462450513430096
v -3.8187499999999996 -0.004829907104755188 -0.4446245051343007
vt 0 0.7267974511062123
vt 0.28448876089948616 0.7267974511062121
vt 0.45893339174567316 1
vt 0.0625 0.7193812500000001
vt 0.386975 0.7193812500000001
vt 0.2247375 1
vt 0.0625 0.6758541039082477
vt 0.30227799980344283 0.5227516353181394
vt 0.06250000000000011 1
vn -0.8151088969553495 -0.5105621290411287 0.2737221191157619
vn -0.9016414233905866 -0.43248438541315826 -2.009424699340043e-16
vn -0.8151088969553496 -0.5105621290411285 -0.27372211911576205
usemtl m_3dc87638-9370-0aae-e5b4-09ca814b5c0a
f 287/861/224 284/862/224 286/863/224
f 284/864/225 285/865/225 286/866/225
f 285/867/226 288/868/226 286/869/226
o side_selection
v 2.1 -2.278125 2.5875
v -2.1 -2.278125 2.5875
v -4.2 -3.284375 4.1625
v 4.2 -3.284375 4.1625
vt -1.0749999999999993 1.875
vt -5.275 1.875
vt -7.375 0.006000000000000227
vt 1.0250000000000004 0.006000000000000227
vn 0 0.8426962598121401 0.5383892771022005
usemtl m_0d3bec49-e602-8fb1-ad9d-0fee87c58fe8
f 289/870/227 290/871/227 291/872/227 292/873/227
o side_selection
v -2.1 -2.278125 -2.5875
v 2.1 -2.278125 -2.5875
v 4.2 -3.284375 -4.1625
v -4.2 -3.284375 -4.1625
vt -1.0749999999999993 1.875
vt -5.275 1.875
vt -7.375 0.006000000000000227
vt 1.0250000000000004 0.006000000000000227
vn 0 0.8426962598121401 -0.5383892771022005
usemtl m_0d3bec49-e602-8fb1-ad9d-0fee87c58fe8
f 293/874/228 294/875/228 295/876/228 296/877/228
o circle_selection_selection
v -3.75 0.3294774123458671 0.6156051091266115
v -3.75 0.34375000000000083 0.5811480344418429
v -3.75 0.25000000000000083 0.5625
v -3.75 0.34375000000000083 0.5438519655581571
v -3.75 0.32947741234586714 0.5093948908733886
v -3.75 0.3031051091266122 0.48302258765413375
v -3.75 0.26864803444184376 0.46875
v -3.75 0.2313519655581579 0.46875
v -3.75 0.19689489087338946 0.4830225876541337
v -3.75 0.17052258765413458 0.5093948908733886
v -3.75 0.15625000000000083 0.5438519655581571
v -3.75 0.15625000000000083 0.5811480344418429
v -3.75 0.17052258765413453 0.6156051091266114
v -3.75 0.19689489087338946 0.6419774123458662
v -3.75 0.23135196555815785 0.65625
v -3.75 0.26864803444184376 0.65625
v -3.75 0.3031051091266122 0.6419774123458662
vt 0.125 0.7169147008475545
vt 0.16157468111662077 0.7241889468113984
vt 0.125 0.8125
vt 0.0625 0.6544147008475544
vt 0.09907991572452535 0.6616892148965562
vt 0.0625 0.75
vt 0.34375 0.9001999999999999
vt 0.34375 0.9375
vt 0.25 0.91885
vt 0.34558705456284344 0.9009207560480773
vt 0.3383091633182437 0.9375
vt 0.25 0.9009207560480774
vt 0.4705852991524456 0.9009253188833792
vt 0.46331105318860155 0.9375
vt 0.375 0.9009253188833792
vt 0.40808529915244557 0.9009200842754745
vt 0.4008107851034438 0.9375
vt 0.3125 0.9009200842754747
vt 0.0998 0.875
vt 0.0625 0.875
vt 0.08115 0.78125
vt 0.036579243951922746 0.9375
vt 0 0.9302221087554002
vt 0.036579243951922746 0.8419129454371567
vt 0.22407468111662077 0.9375
vt 0.1875 0.930225754036156
vt 0.2240746811166208 0.8419147008475545
vt 0.2240799157245253 0.875
vt 0.1875 0.8677254859509982
vt 0.22407991572452535 0.7794147008475545
vt 0.125 0.9375
vt 0.125 0.9001999999999999
vt 0.21875 0.91885
vt 0.1875 0.9999999999999999
vt 0.19477789124459982 0.9634207560480771
vt 0.28308705456284344 1
vt 0.25 1
vt 0.257274245963844 0.9634253188833792
vt 0.3455852991524455 1
vt 0.1875 0.9999999999999999
vt 0.1947745140490018 0.9634200842754747
vt 0.2830852991524455 1
vt 0.0625 0.65625
vt 0.0998 0.65625
vt 0.08115 0.75
vt 0 0.7169129454371566
vt 0.03657924395192283 0.7241908366817563
vt 5.551115123125783e-17 0.8125
vn -1 2.220446049250313e-16 0
vn -1 2.220446049250313e-16 0
vn -1 2.220446049250313e-16 0
vn -1 2.220446049250313e-16 0
vn -1 2.220446049250313e-16 0
vn -1 2.220446049250313e-16 0
vn -1 2.220446049250313e-16 0
vn -1 2.220446049250313e-16 0
vn -1 2.220446049250313e-16 0
vn -1 2.220446049250313e-16 0
vn -1 2.220446049250313e-16 0
vn -1 2.220446049250313e-16 0
vn -1 2.220446049250313e-16 0
vn -1 2.220446049250313e-16 0
vn -1 2.220446049250313e-16 0
vn -1 2.220446049250313e-16 0
usemtl m_3dc87638-9370-0aae-e5b4-09ca814b5c0a
f 313/878/229 297/879/229 299/880/229
f 297/881/230 298/882/230 299/883/230
f 298/884/231 300/885/231 299/886/231
f 300/887/232 301/888/232 299/889/232
f 301/890/233 302/891/233 299/892/233
f 302/893/234 303/894/234 299/895/234
f 303/896/235 304/897/235 299/898/235
f 304/899/236 305/900/236 299/901/236
f 305/902/237 306/903/237 299/904/237
f 306/905/238 307/906/238 299/907/238
f 307/908/239 308/909/239 299/910/239
f 308/911/240 309/912/240 299/913/240
f 309/914/241 310/915/241 299/916/241
f 310/917/242 311/918/242 299/919/242
f 311/920/243 312/921/243 299/922/243
f 312/923/244 313/924/244 299/925/244
o circle_selection_selection
v -3.75 0.25000000000000083 -0.5625
v -3.75 0.23135196555815785 -0.46875
v -3.75 0.26864803444184376 -0.46875
v -3.75 0.3031051091266122 -0.48302258765413375
v -3.75 0.3294774123458671 -0.5093948908733885
v -3.75 0.34375000000000083 -0.5438519655581571
v -3.75 0.34375000000000083 -0.5811480344418429
v -3.75 0.32947741234586714 -0.6156051091266114
v -3.75 0.3031051091266122 -0.6419774123458662
v -3.75 0.26864803444184376 -0.65625
v -3.75 0.2313519655581579 -0.65625
v -3.75 0.19689489087338946 -0.6419774123458664
v -3.75 0.17052258765413458 -0.6156051091266114
v -3.75 0.15625000000000083 -0.5811480344418429
v -3.75 0.15625000000000083 -0.5438519655581571
v -3.75 0.17052258765413453 -0.5093948908733886
v -3.75 0.19689489087338946 -0.48302258765413375
vt 0.0625 0.6544147008475545
vt 0.09907468111662077 0.6616889468113984
vt 0.0625 0.75
vt 1.1102230246251565e-16 0.5919147008475545
vt 0.03657991572452535 0.5991892148965563
vt 0 0.6875
vt 0.34375 0.8376999999999999
vt 0.34375 0.875
vt 0.25 0.85635
vt 0.28308705456284344 0.8384207560480773
vt 0.2758091633182437 0.875
vt 0.1875 0.8384207560480774
vt 0.4080852991524455 0.8384253188833792
vt 0.40081105318860144 0.875
vt 0.3125 0.8384253188833791
vt 0.3455852991524455 0.8384200842754747
vt 0.3383107851034437 0.875
vt 0.25 0.8384200842754747
vt 0.0998 0.8125
vt 0.0625 0.8125
vt 0.08115 0.71875
vt 0.0365792439519228 0.875
vt 0 0.8677221087554002
vt 0.0365792439519228 0.7794129454371566
vt 0.16157468111662077 0.875
vt 0.125 0.867725754036156
vt 0.16157468111662077 0.7794147008475545
vt 0.16157991572452535 0.8125
vt 0.125 0.8052254859509982
vt 0.16157991572452535 0.7169147008475545
vt 0.125 0.875
vt 0.125 0.8376999999999999
vt 0.21875 0.85635
vt 0.1875 0.9999999999999999
vt 0.19477789124459982 0.9634207560480772
vt 0.28308705456284344 1
vt 0.1875 1
vt 0.19477424596384402 0.9634253188833792
vt 0.2830852991524455 1
vt 0.125 0.9375
vt 0.1322745140490017 0.9009200842754747
vt 0.2205852991524455 0.9375
vt 0.0625 0.65625
vt 0.0998 0.65625
vt 0.08115 0.75
vt 0 0.6544129454371566
vt 0.0365792439519228 0.6616908366817564
vt 5.551115123125783e-17 0.75
vn -1 2.220446049250313e-16 0
vn -1 2.220446049250313e-16 0
vn -1 2.220446049250313e-16 0
vn -1 2.220446049250313e-16 0
vn -1 2.220446049250313e-16 0
vn -1 2.220446049250313e-16 0
vn -1 2.220446049250313e-16 0
vn -1 2.220446049250313e-16 0
vn -1 2.220446049250313e-16 0
vn -1 2.220446049250313e-16 0
vn -1 2.220446049250313e-16 0
vn -1 2.220446049250313e-16 0
vn -1 2.220446049250313e-16 0
vn -1 2.220446049250313e-16 0
vn -1 2.220446049250313e-16 0
vn -1 2.220446049250313e-16 0
usemtl m_3dc87638-9370-0aae-e5b4-09ca814b5c0a
f 317/926/245 318/927/245 314/928/245
f 318/929/246 319/930/246 314/931/246
f 319/932/247 320/933/247 314/934/247
f 320/935/248 321/936/248 314/937/248
f 321/938/249 322/939/249 314/940/249
f 322/941/250 323/942/250 314/943/250
f 323/944/251 324/945/251 314/946/251
f 324/947/252 325/948/252 314/949/252
f 325/950/253 326/951/253 314/952/253
f 326/953/254 327/954/254 314/955/254
f 327/956/255 328/957/255 314/958/255
f 328/959/256 329/960/256 314/961/256
f 329/962/257 330/963/257 314/964/257
f 330/965/258 315/966/258 314/967/258
f 315/968/259 316/969/259 314/970/259
f 316/971/260 317/972/260 314/973/260