# Made in Blockbench 4.7.4
mtllib MelecCapacitor.mtl

o cylinder
v 0 -0.5 0
v 0.13397459621556132 -0.5 0.49999999999999994
v 0.13397459621556132 0.5 0.49999999999999994
v 0.3660254037844386 -0.5 0.36602540378443865
v 0.3660254037844386 0.5 0.36602540378443865
v 0.49999999999999994 -0.5 0.13397459621556132
v 0.49999999999999994 0.5 0.13397459621556132
v 0.49999999999999994 -0.5 -0.13397459621556138
v 0.49999999999999994 0.5 -0.13397459621556138
v 0.36602540378443865 -0.5 -0.3660254037844386
v 0.36602540378443865 0.5 -0.3660254037844386
v 0.1339745962155615 -0.5 -0.4999999999999999
v 0.1339745962155615 0.5 -0.4999999999999999
v -0.13397459621556113 -0.5 -0.5
v -0.13397459621556113 0.5 -0.5
v -0.3660254037844386 -0.5 -0.3660254037844387
v -0.3660254037844386 0.5 -0.3660254037844387
v -0.49999999999999994 -0.5 -0.13397459621556126
v -0.49999999999999994 0.5 -0.13397459621556126
v -0.5 -0.5 0.1339745962155611
v -0.5 0.5 0.1339745962155611
v -0.3660254037844387 -0.5 0.36602540378443854
v -0.3660254037844387 0.5 0.36602540378443854
v -0.1339745962155613 -0.5 0.49999999999999994
v -0.1339745962155613 0.5 0.49999999999999994
v -0.274519052838329 0.5 0.2745190528383289
v -0.10048094716167097 0.5 0.37499999999999994
v 0.100480947161671 0.5 0.37499999999999994
v 0.27451905283832895 0.5 0.274519052838329
v 0.37499999999999994 0.5 0.100480947161671
v 0.37499999999999994 0.5 -0.10048094716167102
v 0.274519052838329 0.5 -0.27451905283832895
v 0.10048094716167111 0.5 -0.3749999999999999
v -0.10048094716167084 0.5 -0.375
v -0.27451905283832895 0.5 -0.274519052838329
v -0.37499999999999994 0.5 -0.10048094716167094
v -0.375 0.5 0.10048094716167083
vt 0.046875 0.984375
vt 0.015625 0.984375
vt 0.015625 0.953125
vt 0.109375 0.984375
vt 0.078125 0.984375
vt 0.078125 0.953125
vt 0.109375 0.953125
vt 0.171875 0.984375
vt 0.140625 0.984375
vt 0.140625 0.953125
vt 0.234375 0.984375
vt 0.203125 0.984375
vt 0.203125 0.953125
vt 0.234375 0.953125
vt 0.296875 0.984375
vt 0.265625 0.984375
vt 0.265625 0.953125
vt 0.359375 0.984375
vt 0.328125 0.984375
vt 0.328125 0.953125
vt 0.359375 0.953125
vt 0.421875 0.984375
vt 0.390625 0.984375
vt 0.390625 0.953125
vt 0.484375 0.984375
vt 0.453125 0.984375
vt 0.453125 0.953125
vt 0.484375 0.953125
vt 0.546875 0.984375
vt 0.515625 0.984375
vt 0.515625 0.953125
vt 0.609375 0.984375
vt 0.578125 0.984375
vt 0.578125 0.953125
vt 0.609375 0.953125
vt 0.671875 0.984375
vt 0.640625 0.984375
vt 0.640625 0.953125
vt 0.734375 0.984375
vt 0.703125 0.984375
vt 0.703125 0.953125
vt 0.734375 0.953125
vt 0.796875 0.984375
vt 0.765625 0.984375
vt 0.765625 0.953125
vt 0.859375 0.984375
vt 0.828125 0.984375
vt 0.828125 0.953125
vt 0.859375 0.953125
vt 0.921875 0.984375
vt 0.890625 0.984375
vt 0.890625 0.953125
vt 0.984375 0.984375
vt 0.953125 0.984375
vt 0.953125 0.953125
vt 0.984375 0.953125
vt 0.046875 0.921875
vt 0.015625 0.921875
vt 0.015625 0.890625
vt 0.109375 0.921875
vt 0.078125 0.921875
vt 0.078125 0.890625
vt 0.109375 0.890625
vt 0.171875 0.921875
vt 0.140625 0.921875
vt 0.140625 0.890625
vt 0.234375 0.921875
vt 0.203125 0.921875
vt 0.203125 0.890625
vt 0.234375 0.890625
vt 0.296875 0.921875
vt 0.265625 0.921875
vt 0.265625 0.890625
vt 0.359375 0.921875
vt 0.328125 0.921875
vt 0.328125 0.890625
vt 0.359375 0.890625
vt 0.421875 0.921875
vt 0.390625 0.921875
vt 0.390625 0.890625
vt 0.484375 0.921875
vt 0.453125 0.921875
vt 0.453125 0.890625
vt 0.484375 0.890625
vt 0.546875 0.921875
vt 0.515625 0.921875
vt 0.515625 0.890625
vt 0.546875 0.890625
vt 0.609375 0.921875
vt 0.578125 0.921875
vt 0.578125 0.890625
vt 0.609375 0.890625
vt 0.671875 0.921875
vt 0.640625 0.921875
vt 0.640625 0.890625
vt 0.671875 0.890625
vt 0.734375 0.921875
vt 0.703125 0.921875
vt 0.703125 0.890625
vt 0.734375 0.890625
vt 0.796875 0.921875
vt 0.765625 0.921875
vt 0.765625 0.890625
vt 0.796875 0.890625
vt 0.859375 0.921875
vt 0.828125 0.921875
vt 0.828125 0.890625
vt 0.859375 0.890625
vt 0.921875 0.921875
vt 0.890625 0.921875
vt 0.890625 0.890625
vt 0.921875 0.890625
vt 0.984375 0.921875
vt 0.953125 0.921875
vt 0.953125 0.890625
vt 0.984375 0.890625
vt 0.046875 0.859375
vt 0.015625 0.859375
vt 0.015625 0.828125
vt 0.046875 0.828125
vt 0.109375 0.859375
vt 0.078125 0.859375
vt 0.078125 0.828125
vt 0.109375 0.828125
vt 0.171875 0.859375
vt 0.140625 0.859375
vt 0.140625 0.828125
vt 0.171875 0.828125
vt 0.234375 0.859375
vt 0.203125 0.859375
vt 0.203125 0.828125
vt 0.234375 0.828125
vn 0 -1 0
vn 0.4999999999999999 0 0.8660254037844388
vn 0 -1 0
vn 0.8660254037844388 0 0.5
vn 0 -1 0
vn 1 0 0
vn 0 -1 0
vn 0.8660254037844388 0 -0.5
vn 0 -1 0
vn 0.5000000000000001 0 -0.8660254037844388
vn 0 -1 0
vn 4.143408735633879e-16 0 -1
vn 0 -1 0
vn -0.4999999999999996 0 -0.8660254037844389
vn 0 -1 0
vn -0.8660254037844389 0 -0.4999999999999998
vn 0 -1 0
vn -1 0 -2.0717043678169412e-16
vn 0 -1 0
vn -0.8660254037844389 0 0.4999999999999996
vn 0 -1 0
vn -0.4999999999999999 0 0.8660254037844386
vn 0 -1 0
vn 0 0 1
vn 0 1 0
vn 0 1 0
vn 0 1 0
vn 0 1 0
vn 0 1 0
vn 0 1 0
vn 0 1 0
vn 0 1 0
vn 0 1 0
vn 0 1 0
vn 0 1 0
vn 0 1 0
usemtl m_41d8ec10-5a80-381e-5974-a6ef3d9f966d
f 4/1/1 2/2/1 1/3/1
f 2/4/2 4/5/2 5/6/2 3/7/2
f 6/8/3 4/9/3 1/10/3
f 4/11/4 6/12/4 7/13/4 5/14/4
f 8/15/5 6/16/5 1/17/5
f 6/18/6 8/19/6 9/20/6 7/21/6
f 10/22/7 8/23/7 1/24/7
f 8/25/8 10/26/8 11/27/8 9/28/8
f 12/29/9 10/30/9 1/31/9
f 10/32/10 12/33/10 13/34/10 11/35/10
f 14/36/11 12/37/11 1/38/11
f 12/39/12 14/40/12 15/41/12 13/42/12
f 16/43/13 14/44/13 1/45/13
f 14/46/14 16/47/14 17/48/14 15/49/14
f 18/50/15 16/51/15 1/52/15
f 16/53/16 18/54/16 19/55/16 17/56/16
f 20/57/17 18/58/17 1/59/17
f 18/60/18 20/61/18 21/62/18 19/63/18
f 22/64/19 20/65/19 1/66/19
f 20/67/20 22/68/20 23/69/20 21/70/20
f 24/71/21 22/72/21 1/73/21
f 22/74/22 24/75/22 25/76/22 23/77/22
f 2/78/23 24/79/23 1/80/23
f 24/81/24 2/82/24 3/83/24 25/84/24
f 27/85/25 26/86/25 23/87/25 25/88/25
f 28/89/26 27/90/26 25/91/26 3/92/26
f 29/93/27 28/94/27 3/95/27 5/96/27
f 30/97/28 29/98/28 5/99/28 7/100/28
f 31/101/29 30/102/29 7/103/29 9/104/29
f 32/105/30 31/106/30 9/107/30 11/108/30
f 33/109/31 32/110/31 11/111/31 13/112/31
f 34/113/32 33/114/32 13/115/32 15/116/32
f 36/117/33 35/118/33 17/119/33 19/120/33
f 35/121/34 34/122/34 15/123/34 17/124/34
f 37/125/35 36/126/35 19/127/35 21/128/35
f 26/129/36 37/130/36 21/131/36 23/132/36
o up
v -0.274519052838329 0.5 0.2745190528383289
v -0.10048094716167097 0.5 0.37499999999999994
v 0 0.5 0
v 0.100480947161671 0.5 0.37499999999999994
v 0.27451905283832895 0.5 0.274519052838329
v 0.37499999999999994 0.5 0.100480947161671
v 0.37499999999999994 0.5 -0.10048094716167102
v 0.274519052838329 0.5 -0.27451905283832895
v 0.10048094716167111 0.5 -0.3749999999999999
v -0.10048094716167084 0.5 -0.375
v -0.27451905283832895 0.5 -0.274519052838329
v -0.37499999999999994 0.5 -0.10048094716167094
v -0.375 0.5 0.10048094716167083
vt 0.046875 0.984375
vt 0.015625 0.984375
vt 0.015625 0.953125
vt 0.109375 0.984375
vt 0.078125 0.984375
vt 0.078125 0.953125
vt 0.171875 0.984375
vt 0.140625 0.984375
vt 0.140625 0.953125
vt 0.234375 0.984375
vt 0.203125 0.984375
vt 0.203125 0.953125
vt 0.296875 0.984375
vt 0.265625 0.984375
vt 0.265625 0.953125
vt 0.359375 0.984375
vt 0.328125 0.984375
vt 0.328125 0.953125
vt 0.421875 0.984375
vt 0.390625 0.984375
vt 0.390625 0.953125
vt 0.484375 0.984375
vt 0.453125 0.984375
vt 0.453125 0.953125
vt 0.546875 0.984375
vt 0.515625 0.984375
vt 0.515625 0.953125
vt 0.609375 0.984375
vt 0.578125 0.984375
vt 0.578125 0.953125
vt 0.671875 0.984375
vt 0.640625 0.984375
vt 0.640625 0.953125
vt 0.734375 0.984375
vt 0.703125 0.984375
vt 0.703125 0.953125
vn 0 1 0
vn 0 1 0
vn 0 1 0
vn 0 1 0
vn 0 1 0
vn 0 1 0
vn 0 1 0
vn 0 1 0
vn 0 1 0
vn 0 1 0
vn 0 1 0
vn 0 1 0
usemtl m_c030f87b-67c0-590d-f11d-243f6c781270
f 41/133/37 42/134/37 40/135/37
f 42/136/38 43/137/38 40/138/38
f 43/139/39 44/140/39 40/141/39
f 44/142/40 45/143/40 40/144/40
f 45/145/41 46/146/41 40/147/41
f 46/148/42 47/149/42 40/150/42
f 47/151/43 48/152/43 40/153/43
f 48/154/44 49/155/44 40/156/44
f 49/157/45 50/158/45 40/159/45
f 50/160/46 38/161/46 40/162/46
f 38/163/47 39/164/47 40/165/47
f 39/166/48 41/167/48 40/168/48
o cube
v -0.1875 -0.5 0.125
v -0.1875 -0.5 -0.125
v -0.1875 -0.9375 0.125
v -0.1875 -0.9375 -0.125
v -0.3125 -0.5 -0.125
v -0.3125 -0.5 0.125
v -0.3125 -0.9375 -0.125
v -0.3125 -0.9375 0.125
vt 0 1
vt 0.125 1
vt 0.125 0.5625
vt 0 0.5625
vt 0 1
vt 0.25 1
vt 0.25 0.5625
vt 0 0.5625
vt 0 1
vt 0.125 1
vt 0.125 0.5625
vt 0 0.5625
vt 0 1
vt 0.25 1
vt 0.25 0.5625
vt 0 0.5625
vt 0 1
vt 0.125 1
vt 0.125 0.75
vt 0 0.75
vt 0 1
vt 0.125 1
vt 0.125 0.75
vt 0 0.75
vn 0 0 -1
vn 1 0 0
vn 0 0 1
vn -1 0 0
vn 0 1 0
vn 0 -1 0
usemtl m_c030f87b-67c0-590d-f11d-243f6c781270
f 54/172/49 57/171/49 55/170/49 52/169/49
f 53/176/50 54/175/50 52/174/50 51/173/50
f 58/180/51 53/179/51 51/178/51 56/177/51
f 57/184/52 58/183/52 56/182/52 55/181/52
f 56/188/53 51/187/53 52/186/53 55/185/53
f 57/192/54 54/191/54 53/190/54 58/189/54
o cube
v 0.25 -0.5 0.125
v 0.25 -0.5 -0.125
v 0.25 -0.9375 0.125
v 0.25 -0.9375 -0.125
v 0.125 -0.5 -0.125
v 0.125 -0.5 0.125
v 0.125 -0.9375 -0.125
v 0.125 -0.9375 0.125
vt 0 1
vt 0.125 1
vt 0.125 0.5625
vt 0 0.5625
vt 0 1
vt 0.25 1
vt 0.25 0.5625
vt 0 0.5625
vt 0 1
vt 0.125 1
vt 0.125 0.5625
vt 0 0.5625
vt 0 1
vt 0.25 1
vt 0.25 0.5625
vt 0 0.5625
vt 0 1
vt 0.125 1
vt 0.125 0.75
vt 0 0.75
vt 0 1
vt 0.125 1
vt 0.125 0.75
vt 0 0.75
vn 0 0 -1
vn 1 0 0
vn 0 0 1
vn -1 0 0
vn 0 1 0
vn 0 -1 0
usemtl m_c030f87b-67c0-590d-f11d-243f6c781270
f 62/196/55 65/195/55 63/194/55 60/193/55
f 61/200/56 62/199/56 60/198/56 59/197/56
f 66/204/57 61/203/57 59/202/57 64/201/57
f 65/208/58 66/207/58 64/206/58 63/205/58
f 64/212/59 59/211/59 60/210/59 63/209/59
f 65/216/60 62/215/60 61/214/60 66/213/60