# Made in Blockbench 4.8.1
mtllib MHUD_M.mtl

o cylinder
v 0 -0.0625 0
v 0 0.0625 0
v 0.2261751345948128 -0.0625 0.375
v 0.2261751345948128 0.0625 0.375
v 0.45235026918962573 -0.0625 2.6514380968122673e-17
v 0.45235026918962573 0.0625 2.6514380968122673e-17
v 0.2261751345948128 -0.0625 -0.375
v 0.2261751345948128 0.0625 -0.375
v -0.2261751345948129 -0.0625 -0.37499999999999994
v -0.2261751345948129 0.0625 -0.37499999999999994
v -0.45235026918962573 -0.0625 -7.954314290436801e-17
v -0.45235026918962573 0.0625 -7.954314290436801e-17
v -0.2261751345948131 -0.0625 0.3749999999999999
v -0.2261751345948131 0.0625 0.3749999999999999
vt 0.4527375 0.8125
vt 0.33965 1
vt 0.2265625 0.8125
vt 0.46875 0.6875
vt 0.6875 0.6875
vt 0.6875 0.75
vt 0.46875 0.75
vt 0.6834 0.28125
vt 0.7964875 0.46875
vt 0.5703125 0.46875
vt 0.33965 0.625
vt 0.4527375 0.8125
vt 0.2265625 0.8125
vt 0 0.4375
vt 0.21875 0.4375
vt 0.21875 0.5
vt 0 0.5
vt 0.7964875 0.46875
vt 0.6834 0.65625
vt 0.5703125 0.46875
vt 0.113475 0.625
vt 0.33965 0.625
vt 0.2265625 0.8125
vt 0 0.53125
vt 0.21875 0.53125
vt 0.21875 0.59375
vt 0 0.59375
vt 0.6834 0.65625
vt 0.457225 0.65625
vt 0.5703125 0.46875
vt 0.00038750000000001283 0.8125
vt 0.113475 0.625
vt 0.2265625 0.8125
vt 0.5 0.84375
vt 0.71875 0.84375
vt 0.71875 0.90625
vt 0.5 0.90625
vt 0.457225 0.65625
vt 0.3441375 0.46875
vt 0.5703125 0.46875
vt 0.113475 1
vt 0.00038750000000001283 0.8125
vt 0.2265625 0.8125
vt 0 0.34375
vt 0.21875 0.34375
vt 0.21875 0.40625
vt 0 0.40625
vt 0.3441375 0.46875
vt 0.457225 0.28125
vt 0.5703125 0.46875
vt 0.33965 1
vt 0.113475 1
vt 0.2265625 0.8125
vt 0.4375 0.9375
vt 0.65625 0.9375
vt 0.65625 1
vt 0.4375 1
vt 0.457225 0.28125
vt 0.6834 0.28125
vt 0.5703125 0.46875
vn 0 -1 0
vn 0.8563068018520278 0 0.5164674831022298
vn 0 1 0
vn 0 -1 0
vn 0.8563068018520278 0 -0.5164674831022298
vn 0 1 0
vn 0 -1 0
vn -1.2271718403241956e-16 0 -1
vn 0 1 0
vn 0 -1 0
vn -0.8563068018520278 0 -0.5164674831022298
vn 0 1 0
vn 0 -1 0
vn -0.856306801852028 0 0.5164674831022295
vn 0 1 0
vn 0 -1 0
vn -2.4543436806483903e-16 0 1
vn 0 1 0
usemtl m_8fac8855-9a8e-8ba5-8764-8fd34175d830
f 5/1/1 3/2/1 1/3/1
f 3/4/2 5/5/2 6/6/2 4/7/2
f 4/8/3 6/9/3 2/10/3
f 7/11/4 5/12/4 1/13/4
f 5/14/5 7/15/5 8/16/5 6/17/5
f 6/18/6 8/19/6 2/20/6
f 9/21/7 7/22/7 1/23/7
f 7/24/8 9/25/8 10/26/8 8/27/8
f 8/28/9 10/29/9 2/30/9
f 11/31/10 9/32/10 1/33/10
f 9/34/11 11/35/11 12/36/11 10/37/11
f 10/38/12 12/39/12 2/40/12
f 13/41/13 11/42/13 1/43/13
f 11/44/14 13/45/14 14/46/14 12/47/14
f 12/48/15 14/49/15 2/50/15
f 3/51/16 13/52/16 1/53/16
f 13/54/17 3/55/17 4/56/17 14/57/17
f 14/58/18 4/59/18 2/60/18
o tube
v 0.2886751345948128 -0.125 0.5
v 0.2886751345948128 0.125 0.5
v 0.22991454968463004 -0.125 0.3898502691896258
v 0.22991454968463004 0.125 0.3898502691896258
v 0.5773502691896257 -0.125 3.5352507957496895e-17
v 0.5773502691896257 0.125 3.5352507957496895e-17
v 0.4598290993692602 -0.125 2.7564369487517105e-17
v 0.4598290993692602 0.125 2.7564369487517105e-17
v 0.2886751345948128 -0.125 -0.5
v 0.2886751345948128 0.125 -0.5
v 0.22991454968463004 -0.125 -0.3898502691896258
v 0.22991454968463004 0.125 -0.3898502691896258
v -0.2886751345948129 -0.125 -0.49999999999999994
v -0.2886751345948129 0.125 -0.49999999999999994
v -0.22991454968463015 -0.125 -0.38985026918962573
v -0.22991454968463015 0.125 -0.38985026918962573
v -0.5773502691896257 -0.125 -1.0605752387249068e-16
v -0.5773502691896257 0.125 -1.0605752387249068e-16
v -0.4598290993692602 -0.125 -8.26931084625513e-17
v -0.4598290993692602 0.125 -8.26931084625513e-17
v -0.28867513459481314 -0.125 0.49999999999999983
v -0.28867513459481314 0.125 0.49999999999999983
v -0.2299145496846303 -0.125 0.3898502691896256
v -0.2299145496846303 0.125 0.3898502691896256
vt 0 0.75
vt 0.57735 0.75
vt 0.57735 1
vt 0 1
vt 0.522325 1
vt 0 1
vt 0 0.75
vt 0.522325 0.75
vt 0 0.9724904836406071
vt 1.1102230246251565e-16 0.4501595172250954
vt 0.04764743651576264 0.4226497981236781
vt 0.04765172259134287 1
vt 0 0.952348481632409
vt 0.5773502018922312 0.9523484816324089
vt 0.5498408365119196 0.9999961223708025
vt 0.027509870110801027 1
vt 0 0.75
vt 0.57735 0.75
vt 0.57735 1
vt 0 1
vt 0.522325 1
vt 0 1
vt 0 0.75
vt 0.522325 0.75
vt 0.5498404827749046 1
vt 0.027509516359392916 1
vt 0 0.9523482774086571
vt 0.5773502018763218 0.9523525634842374
vt 0.04765151836759102 0.4226497981077688
vt 0.04765151836759096 1
vt 0 0.972490129889199
vt 0.000003877629197457377 0.4501591634880804
vt 0 0.75
vt 0.57735 0.75
vt 0.57735 1
vt 0 1
vt 0.522325 1
vt 0 1
vt 0 0.75
vt 0.522325 0.75
vt 0.5498375 1
vt 0.027512499999999995 1
vt 0 0.95235
vt 0.57735 0.95235
vt 0.57735 1
vt 0 1
vt 0.027512499999999995 0.95235
vt 0.5498375 0.95235
vt 0 0.75
vt 0.57735 0.75
vt 0.57735 1
vt 0 1
vt 0.522325 1
vt 0 1
vt 0 0.75
vt 0.522325 0.75
vt 0.04765172259134287 0.4501593144830711
vt 0.04765172259134276 0.9724902808985828
vt 0.000004286075580228754 1
vt 0 0.4226497981236781
vt 0.5773502018922312 0.9374999999999999
vt 0 0.9375
vt 0.027509365380311512 0.8898523592616064
vt 0.5498403317814301 0.8898484816324089
vt 0 0.75
vt 0.57735 0.75
vt 0.57735 1
vt 0 1
vt 0.522325 1
vt 0 1
vt 0 0.75
vt 0.522325 0.75
vt 0.027509719101417196 0.9523482774086571
vt 0.5498406855169289 0.9523482774086571
vt 0.5773502018763218 1
vt 0 0.9999957139244198
vt 0.0625 1
vt 0.06250000000000006 0.4226497981077688
vt 0.11015151836759102 0.4501596682185698
vt 0.11014764073839356 0.9724906346196884
vt 0 0.75
vt 0.57735 0.75
vt 0.57735 1
vt 0 1
vt 0.522325 1
vt 0 1
vt 0 0.75
vt 0.522325 0.75
vt 0.027512499999999995 0.95235
vt 0.5498375 0.95235
vt 0.57735 1
vt 0 1
vt 0 0.95235
vt 0.57735 0.95235
vt 0.5498375 1
vt 0.027512499999999995 1
vn 0.8660254037844386 0 0.5000000000000001
vn -0.861363145663923 0 -0.5079896960489961
vn 0 -1 0
vn 0 1 0
vn 0.8660254037844387 0 -0.5000000000000001
vn -0.861363145663923 0 0.5079896960489961
vn 0 -1 0
vn 0 1 0
vn -9.61481343191782e-17 0 -1
vn 1.2072126646052095e-16 0 1
vn 0 -1 0
vn 0 1 0
vn -0.8660254037844388 0 -0.5000000000000001
vn 0.8613631456639231 0 0.5079896960489961
vn 0 -1 0
vn 0 1 0
vn -0.8660254037844389 0 0.4999999999999997
vn 0.8613631456639231 0 -0.5079896960489959
vn 0 -1 0
vn 0 1 0
vn -2.884444029575345e-16 0 1
vn 3.621637993815628e-16 0 -1
vn 0 -1 0
vn 0 1 0
usemtl m_641453ab-4294-9422-0018-667e7c0ec335
f 15/61/19 19/62/19 20/63/19 16/64/19
f 18/65/20 22/66/20 21/67/20 17/68/20
f 17/69/21 21/70/21 19/71/21 15/72/21
f 16/73/22 20/74/22 22/75/22 18/76/22
f 19/77/23 23/78/23 24/79/23 20/80/23
f 22/81/24 26/82/24 25/83/24 21/84/24
f 21/85/25 25/86/25 23/87/25 19/88/25
f 20/89/26 24/90/26 26/91/26 22/92/26
f 23/93/27 27/94/27 28/95/27 24/96/27
f 26/97/28 30/98/28 29/99/28 25/100/28
f 25/101/29 29/102/29 27/103/29 23/104/29
f 24/105/30 28/106/30 30/107/30 26/108/30
f 27/109/31 31/110/31 32/111/31 28/112/31
f 30/113/32 34/114/32 33/115/32 29/116/32
f 29/117/33 33/118/33 31/119/33 27/120/33
f 28/121/34 32/122/34 34/123/34 30/124/34
f 31/125/35 35/126/35 36/127/35 32/128/35
f 34/129/36 38/130/36 37/131/36 33/132/36
f 33/133/37 37/134/37 35/135/37 31/136/37
f 32/137/38 36/138/38 38/139/38 34/140/38
f 35/141/39 15/142/39 16/143/39 36/144/39
f 38/145/40 18/146/40 17/147/40 37/148/40
f 37/149/41 17/150/41 15/151/41 35/152/41
f 36/153/42 16/154/42 18/155/42 38/156/42