# Made in Blockbench 4.7.4
mtllib ML.mtl

o cuboid
v -0.25 0.375 0
v -0.25 0.375 -0.375
v -0.25 -0.25 0
v -0.25 -0.25 -0.375
v -0.3125 0.375 0
v -0.3125 0.375 -0.375
v -0.3125 -0.25 0
v -0.3125 -0.25 -0.375
v -0.3125 0.0625 0
v -0.3125 0.0625 -0.375
v -0.25 0.0625 -0.375
v -0.25 0.0625 0
v -0.3125 0.21875 -0.375
v -0.3125 0.21875 0
v -0.25 0.21875 0
v -0.25 0.21875 -0.375
v -0.3125 -0.09375 0
v -0.3125 -0.09375 -0.375
v -0.25 -0.09375 -0.375
v -0.25 -0.09375 0
v -0.3125 0.296875 -0.375
v -0.3125 0.296875 0
v -0.25 0.296875 0
v -0.25 0.296875 -0.375
v -0.3125 0.140625 0
v -0.3125 0.140625 -0.375
v -0.25 0.140625 -0.375
v -0.25 0.140625 0
v -0.3125 -0.015625 -0.375
v -0.3125 -0.015625 0
v -0.25 -0.015625 0
v -0.25 -0.015625 -0.375
v -0.3125 0.35546875 -0.34375
v -0.3125 0.296875 -0.34375
v -0.3125 0.296875 -0.03125
v -0.3125 0.35546875 -0.03125
v -0.3125 0.21875 -0.03125
v -0.3125 0.21875 -0.34375
v -0.3125 0.140625 -0.03125
v -0.3125 0.140625 -0.34375
v -0.3125 0.0625 -0.03125
v -0.3125 0.0625 -0.34375
v -0.3125 -0.015625 -0.34375
v -0.3125 -0.015625 -0.03125
v -0.3125 -0.09375 -0.03125
v -0.3125 -0.09375 -0.34375
v -0.3125 -0.2109375 -0.03125
v -0.3125 -0.2109375 -0.34375
vt 0 0.875
vt 0 0.8125
vt 0.25 0.8125
vt 0.25 0.875
vt 0 0.75
vt 0.25 0.75
vt 0.25 1
vt 0 1
vt 0.25 0.75
vt 0.25 1
vt 0 1
vt 0 0.75
vt 0 0.875
vt 0 0.8125
vt 0.25 0.8125
vt 0.25 0.875
vt 0 0.875
vt 0 0.8125
vt 0.25 0.8125
vt 0.25 0.875
vt 0.25 0.625
vt 0.25 0.6875
vt 0 0.6875
vt 0 0.625
vt 0.25 0.625
vt 0.25 0.6875
vt 0 0.6875
vt 0 0.625
vt 0.25 0.625
vt 0.25 0.6875
vt 0 0.6875
vt 0 0.625
vt 0.25 0.875
vt 0.25 0.9375
vt 0 0.9375
vt 0 0.875
vt 0.25 0.875
vt 0.25 0.9375
vt 0 0.9375
vt 0 0.875
vt 0.25 0.875
vt 0.25 0.9375
vt 0 0.9375
vt 0 0.875
vt 0.25 0.5
vt 0.25 0.625
vt 0 0.625
vt 0 0.5
vt 0.25 0.5
vt 0.25 0.625
vt 0 0.625
vt 0 0.5
vt 0.25 0.5
vt 0.25 0.625
vt 0 0.625
vt 0 0.5
vt 0 1
vt 0 0.9375
vt 0.25 0.9375
vt 0.25 1
vt 0 1
vt 0 0.9375
vt 0.25 0.9375
vt 0.25 1
vt 0 1
vt 0 0.9375
vt 0.25 0.9375
vt 0.25 1
vt 0.25 0.75
vt 0.25 0.8125
vt 0 0.8125
vt 0 0.75
vt 0.25 0.75
vt 0.25 0.8125
vt 0 0.8125
vt 0 0.75
vt 0.25 0.75
vt 0.25 0.8125
vt 0 0.8125
vt 0 0.75
vt 0 0.75
vt 0 0.6875
vt 0.25 0.6875
vt 0.25 0.75
vt 0 0.75
vt 0 0.6875
vt 0.25 0.6875
vt 0.25 0.75
vt 0 0.75
vt 0 0.6875
vt 0.25 0.6875
vt 0.25 0.75
vt 0.09375 0.921875
vt 0.09375 0.98046875
vt 0 1
vt 0 0.921875
vt 0.25 0.98046875
vt 0.25 0.921875
vt 0.34375 0.921875
vt 0.34375 1
vt 0.09375 0.98046875
vt 0.28125 0.98046875
vt 0.375 1
vt 0 1
vt 0.25 0.875
vt 0.25 0.796875
vt 0.34375 0.796875
vt 0.34375 0.875
vt 0.09375 0.796875
vt 0.09375 0.875
vt 0 0.875
vt 0 0.796875
vt 0.09375 0.796875
vt 0.09375 0.875
vt 0 0.875
vt 0 0.796875
vt 0.25 0.875
vt 0.25 0.796875
vt 0.34375 0.796875
vt 0.34375 0.875
vt 0.25 0.8125
vt 0.25 0.734375
vt 0.34375 0.734375
vt 0.34375 0.8125
vt 0.09375 0.734375
vt 0.09375 0.8125
vt 0 0.8125
vt 0 0.734375
vt 0.09375 0.671875
vt 0.09375 0.75
vt 0 0.75
vt 0 0.671875
vt 0.25 0.75
vt 0.25 0.671875
vt 0.34375 0.671875
vt 0.34375 0.75
vt 0.25 0.6875
vt 0.25 0.609375
vt 0.34375 0.609375
vt 0.34375 0.6875
vt 0.09375 0.609375
vt 0.09375 0.6875
vt 0 0.6875
vt 0 0.609375
vt 0.25 0.6875
vt 0.25 0.5703125
vt 0.34375 0.53125
vt 0.34375 0.6875
vt 0.09375 0.5703125
vt 0.09375 0.6875
vt 0 0.6875
vt 0 0.53125
vt 0.28125 0.5625
vt 0.09375 0.5625
vt 0 0.5234375
vt 0.375 0.5234375
vn 1 0 0
vn 0 1 0
vn 0 -1 0
vn 0 0 1
vn 0 0 -1
vn 0 0 -1
vn 1 0 0
vn 0 0 1
vn 0 0 1
vn 1 0 0
vn 0 0 -1
vn 0 0 -1
vn 1 0 0
vn 0 0 1
vn 0 0 1
vn 1 0 0
vn 0 0 -1
vn 0 0 -1
vn 1 0 0
vn 0 0 1
vn 0 0 1
vn 1 0 0
vn 0 0 -1
vn -1 0 0
vn -1 0 0
vn -1 0 0
vn -1 0 0
vn -1 0 0
vn -1 0 0
vn -1 0 0
vn -1 0 0
vn -1 0 0
vn -1 0 0
vn -1 0 0
vn -1 0 0
vn -1 0 0
vn -1 0 0
vn -1 0 0
vn -1 0 0
usemtl m_3043b577-e65f-e764-e753-da26d84a2fd2
f 15/1/1 28/2/1 27/3/1 16/4/1
f 5/5/2 1/6/2 2/7/2 6/8/2
f 4/9/3 3/10/3 7/11/3 8/12/3
f 14/13/4 25/14/4 28/15/4 15/16/4
f 16/17/5 27/18/5 26/19/5 13/20/5
f 18/21/6 29/22/6 32/23/6 19/24/6
f 19/25/7 32/26/7 31/27/7 20/28/7
f 20/29/8 31/30/8 30/31/8 17/32/8
f 15/33/9 23/34/9 22/35/9 14/36/9
f 16/37/10 24/38/10 23/39/10 15/40/10
f 13/41/11 21/42/11 24/43/11 16/44/11
f 8/45/12 18/46/12 19/47/12 4/48/12
f 4/49/13 19/50/13 20/51/13 3/52/13
f 3/53/14 20/54/14 17/55/14 7/56/14
f 5/57/15 22/58/15 23/59/15 1/60/15
f 1/61/16 23/62/16 24/63/16 2/64/16
f 2/65/17 24/66/17 21/67/17 6/68/17
f 10/69/18 26/70/18 27/71/18 11/72/18
f 11/73/19 27/74/19 28/75/19 12/76/19
f 12/77/20 28/78/20 25/79/20 9/80/20
f 9/81/21 30/82/21 31/83/21 12/84/21
f 12/85/22 31/86/22 32/87/22 11/88/22
f 11/89/23 32/90/23 29/91/23 10/92/23
f 34/93/24 33/94/24 6/95/24 21/96/24
f 36/97/25 35/98/25 22/99/25 5/100/25
f 33/101/26 36/102/26 5/103/26 6/104/26
f 35/105/27 37/106/27 14/107/27 22/108/27
f 38/109/28 34/110/28 21/111/28 13/112/28
f 40/113/29 38/114/29 13/115/29 26/116/29
f 37/117/30 39/118/30 25/119/30 14/120/30
f 39/121/31 41/122/31 9/123/31 25/124/31
f 42/125/32 40/126/32 26/127/32 10/128/32
f 43/129/33 42/130/33 10/131/33 29/132/33
f 41/133/34 44/134/34 30/135/34 9/136/34
f 44/137/35 45/138/35 17/139/35 30/140/35
f 46/141/36 43/142/36 29/143/36 18/144/36
f 45/145/37 47/146/37 7/147/37 17/148/37
f 48/149/38 46/150/38 18/151/38 8/152/38
f 47/153/39 48/154/39 8/155/39 7/156/39
o cuboid_selection
v -0.3125 0.35546875 -0.34375
v -0.3125 0.35546875 -0.03125
v -0.3125 -0.2109375 -0.03125
v -0.3125 -0.2109375 -0.34375
vt 0.3125 1
vt 0 1
vt 0 0.43359375
vt 0.3125 0.43359375
vn -1 0 0
usemtl m_515e4599-380f-89a9-7e28-2ea0860217bc
f 50/157/40 49/158/40 52/159/40 51/160/40
o cuboid
v -0.375 0.375 0
v -0.375 0.375 -0.375
v -0.375 -0.25 0
v -0.375 -0.25 -0.375
v -0.4375 0.375 0
v -0.4375 0.375 -0.375
v -0.4375 -0.25 0
v -0.4375 -0.25 -0.375
v -0.4375 0.0625 0
v -0.4375 0.0625 -0.375
v -0.375 0.0625 -0.375
v -0.375 0.0625 0
v -0.4375 0.21875 -0.375
v -0.4375 0.21875 0
v -0.375 0.21875 0
v -0.375 0.21875 -0.375
v -0.4375 -0.09375 0
v -0.4375 -0.09375 -0.375
v -0.375 -0.09375 -0.375
v -0.375 -0.09375 0
v -0.4375 0.296875 -0.375
v -0.4375 0.296875 0
v -0.375 0.296875 0
v -0.375 0.296875 -0.375
v -0.4375 0.140625 0
v -0.4375 0.140625 -0.375
v -0.375 0.140625 -0.375
v -0.375 0.140625 0
v -0.4375 -0.015625 -0.375
v -0.4375 -0.015625 0
v -0.375 -0.015625 0
v -0.375 -0.015625 -0.375
v -0.4375 0.35546875 -0.34375
v -0.4375 0.296875 -0.34375
v -0.4375 0.296875 -0.03125
v -0.4375 0.35546875 -0.03125
v -0.4375 0.21875 -0.03125
v -0.4375 0.21875 -0.34375
v -0.4375 0.140625 -0.03125
v -0.4375 0.140625 -0.34375
v -0.4375 0.0625 -0.03125
v -0.4375 0.0625 -0.34375
v -0.4375 -0.015625 -0.34375
v -0.4375 -0.015625 -0.03125
v -0.4375 -0.09375 -0.03125
v -0.4375 -0.09375 -0.34375
v -0.4375 -0.2109375 -0.03125
v -0.4375 -0.2109375 -0.34375
vt 0 0.875
vt 0 0.8125
vt 0.25 0.8125
vt 0.25 0.875
vt 0 0.75
vt 0.25 0.75
vt 0.25 1
vt 0 1
vt 0.25 0.75
vt 0.25 1
vt 0 1
vt 0 0.75
vt 0 0.875
vt 0 0.8125
vt 0.25 0.8125
vt 0.25 0.875
vt 0 0.875
vt 0 0.8125
vt 0.25 0.8125
vt 0.25 0.875
vt 0.25 0.625
vt 0.25 0.6875
vt 0 0.6875
vt 0 0.625
vt 0.25 0.625
vt 0.25 0.6875
vt 0 0.6875
vt 0 0.625
vt 0.25 0.625
vt 0.25 0.6875
vt 0 0.6875
vt 0 0.625
vt 0.25 0.875
vt 0.25 0.9375
vt 0 0.9375
vt 0 0.875
vt 0.25 0.875
vt 0.25 0.9375
vt 0 0.9375
vt 0 0.875
vt 0.25 0.875
vt 0.25 0.9375
vt 0 0.9375
vt 0 0.875
vt 0.25 0.5
vt 0.25 0.625
vt 0 0.625
vt 0 0.5
vt 0.25 0.5
vt 0.25 0.625
vt 0 0.625
vt 0 0.5
vt 0.25 0.5
vt 0.25 0.625
vt 0 0.625
vt 0 0.5
vt 0 1
vt 0 0.9375
vt 0.25 0.9375
vt 0.25 1
vt 0 1
vt 0 0.9375
vt 0.25 0.9375
vt 0.25 1
vt 0 1
vt 0 0.9375
vt 0.25 0.9375
vt 0.25 1
vt 0.25 0.75
vt 0.25 0.8125
vt 0 0.8125
vt 0 0.75
vt 0.25 0.75
vt 0.25 0.8125
vt 0 0.8125
vt 0 0.75
vt 0.25 0.75
vt 0.25 0.8125
vt 0 0.8125
vt 0 0.75
vt 0 0.75
vt 0 0.6875
vt 0.25 0.6875
vt 0.25 0.75
vt 0 0.75
vt 0 0.6875
vt 0.25 0.6875
vt 0.25 0.75
vt 0 0.75
vt 0 0.6875
vt 0.25 0.6875
vt 0.25 0.75
vt 0.09375 0.921875
vt 0.09375 0.98046875
vt 0 1
vt 0 0.921875
vt 0.25 0.98046875
vt 0.25 0.921875
vt 0.34375 0.921875
vt 0.34375 1
vt 0.09375 0.98046875
vt 0.28125 0.98046875
vt 0.375 1
vt 0 1
vt 0.25 0.875
vt 0.25 0.796875
vt 0.34375 0.796875
vt 0.34375 0.875
vt 0.09375 0.796875
vt 0.09375 0.875
vt 0 0.875
vt 0 0.796875
vt 0.09375 0.796875
vt 0.09375 0.875
vt 0 0.875
vt 0 0.796875
vt 0.25 0.875
vt 0.25 0.796875
vt 0.34375 0.796875
vt 0.34375 0.875
vt 0.25 0.8125
vt 0.25 0.734375
vt 0.34375 0.734375
vt 0.34375 0.8125
vt 0.09375 0.734375
vt 0.09375 0.8125
vt 0 0.8125
vt 0 0.734375
vt 0.09375 0.671875
vt 0.09375 0.75
vt 0 0.75
vt 0 0.671875
vt 0.25 0.75
vt 0.25 0.671875
vt 0.34375 0.671875
vt 0.34375 0.75
vt 0.25 0.6875
vt 0.25 0.609375
vt 0.34375 0.609375
vt 0.34375 0.6875
vt 0.09375 0.609375
vt 0.09375 0.6875
vt 0 0.6875
vt 0 0.609375
vt 0.25 0.6875
vt 0.25 0.5703125
vt 0.34375 0.53125
vt 0.34375 0.6875
vt 0.09375 0.5703125
vt 0.09375 0.6875
vt 0 0.6875
vt 0 0.53125
vt 0.28125 0.5625
vt 0.09375 0.5625
vt 0 0.5234375
vt 0.375 0.5234375
vn 1 0 0
vn 0 1 0
vn 0 -1 0
vn 0 0 1
vn 0 0 -1
vn 0 0 -1
vn 1 0 0
vn 0 0 1
vn 0 0 1
vn 1 0 0
vn 0 0 -1
vn 0 0 -1
vn 1 0 0
vn 0 0 1
vn 0 0 1
vn 1 0 0
vn 0 0 -1
vn 0 0 -1
vn 1 0 0
vn 0 0 1
vn 0 0 1
vn 1 0 0
vn 0 0 -1
vn -1 0 0
vn -1 0 0
vn -1 0 0
vn -1 0 0
vn -1 0 0
vn -1 0 0
vn -1 0 0
vn -1 0 0
vn -1 0 0
vn -1 0 0
vn -1 0 0
vn -1 0 0
vn -1 0 0
vn -1 0 0
vn -1 0 0
vn -1 0 0
usemtl m_3043b577-e65f-e764-e753-da26d84a2fd2
f 67/161/41 80/162/41 79/163/41 68/164/41
f 57/165/42 53/166/42 54/167/42 58/168/42
f 56/169/43 55/170/43 59/171/43 60/172/43
f 66/173/44 77/174/44 80/175/44 67/176/44
f 68/177/45 79/178/45 78/179/45 65/180/45
f 70/181/46 81/182/46 84/183/46 71/184/46
f 71/185/47 84/186/47 83/187/47 72/188/47
f 72/189/48 83/190/48 82/191/48 69/192/48
f 67/193/49 75/194/49 74/195/49 66/196/49
f 68/197/50 76/198/50 75/199/50 67/200/50
f 65/201/51 73/202/51 76/203/51 68/204/51
f 60/205/52 70/206/52 71/207/52 56/208/52
f 56/209/53 71/210/53 72/211/53 55/212/53
f 55/213/54 72/214/54 69/215/54 59/216/54
f 57/217/55 74/218/55 75/219/55 53/220/55
f 53/221/56 75/222/56 76/223/56 54/224/56
f 54/225/57 76/226/57 73/227/57 58/228/57
f 62/229/58 78/230/58 79/231/58 63/232/58
f 63/233/59 79/234/59 80/235/59 64/236/59
f 64/237/60 80/238/60 77/239/60 61/240/60
f 61/241/61 82/242/61 83/243/61 64/244/61
f 64/245/62 83/246/62 84/247/62 63/248/62
f 63/249/63 84/250/63 81/251/63 62/252/63
f 86/253/64 85/254/64 58/255/64 73/256/64
f 88/257/65 87/258/65 74/259/65 57/260/65
f 85/261/66 88/262/66 57/263/66 58/264/66
f 87/265/67 89/266/67 66/267/67 74/268/67
f 90/269/68 86/270/68 73/271/68 65/272/68
f 92/273/69 90/274/69 65/275/69 78/276/69
f 89/277/70 91/278/70 77/279/70 66/280/70
f 91/281/71 93/282/71 61/283/71 77/284/71
f 94/285/72 92/286/72 78/287/72 62/288/72
f 95/289/73 94/290/73 62/291/73 81/292/73
f 93/293/74 96/294/74 82/295/74 61/296/74
f 96/297/75 97/298/75 69/299/75 82/300/75
f 98/301/76 95/302/76 81/303/76 70/304/76
f 97/305/77 99/306/77 59/307/77 69/308/77
f 100/309/78 98/310/78 70/311/78 60/312/78
f 99/313/79 100/314/79 60/315/79 59/316/79
o grey
v -0.4375 0.35546875 -0.3046875
v -0.4375 0.0625 -0.1875
v -0.4375 -0.09375 -0.1875
v -0.4375 0.0625 -0.109375
v -0.4375 0.21875 -0.265625
v -0.4375 0.0625 -0.265625
v -0.4375 -0.09375 -0.265625
v -0.4375 0.0625 -0.1484375
v -0.4375 0.21875 -0.2265625
v -0.4375 0.0625 -0.2265625
v -0.4375 -0.09375 -0.2265625
v -0.4375 0.0625 -0.3046875
v -0.4375 -0.09375 -0.3046875
v -0.4375 0.1796875 -0.265625
v -0.4375 0.1796875 -0.2265625
v -0.4375 0.1015625 -0.3046875
v -0.4375 0.1015625 -0.265625
v -0.4375 0.1015625 -0.2265625
v -0.4375 0.1015625 -0.1875
v -0.4375 0.1015625 -0.1484375
v -0.4375 0.1015625 -0.109375
v -0.4375 -0.0546875 -0.3046875
v -0.4375 -0.0546875 -0.265625
v -0.4375 -0.0546875 -0.2265625
v -0.4375 -0.0546875 -0.1875
v -0.4375 0.21875 -0.1875
v -0.4375 0.0625 -0.1875
v -0.4375 -0.015625 -0.1875
v -0.4375 -0.015625 -0.109375
v -0.4375 0.140625 -0.265625
v -0.4375 0.0625 -0.265625
v -0.4375 -0.015625 -0.265625
v -0.4375 0.21875 -0.1484375
v -0.4375 0.140625 -0.1484375
v -0.4375 0.0625 -0.1484375
v -0.4375 -0.015625 -0.1484375
v -0.4375 0.140625 -0.2265625
v -0.4375 0.0625 -0.2265625
v -0.4375 -0.015625 -0.2265625
v -0.4375 0.140625 -0.3046875
v -0.4375 0.140625 -0.109375
v -0.4375 0.1796875 -0.3046875
v -0.4375 0.1796875 -0.265625
v -0.4375 0.1796875 -0.1875
v -0.4375 0.1796875 -0.1484375
v -0.4375 0.1796875 -0.109375
v -0.4375 0.1015625 -0.265625
v -0.4375 0.1015625 -0.2265625
v -0.4375 0.1015625 -0.1484375
v -0.4375 0.1015625 -0.109375
v -0.4375 0.0234375 -0.265625
v -0.4375 0.0234375 -0.2265625
v -0.4375 0.0234375 -0.1875
v -0.4375 0.0234375 -0.1484375
v -0.4375 -0.0546875 -0.265625
v -0.4375 -0.0546875 -0.2265625
v -0.4375 -0.0546875 -0.1875
v -0.4375 -0.0546875 -0.1484375
v -0.4375 -0.0546875 -0.109375
v -0.4375 0.140625 -0.1875
v -0.4375 0.21875 -0.1875
v -0.4375 -0.015625 -0.1875
v -0.4375 -0.09375 -0.1875
v -0.4375 0.21875 -0.109375
v -0.4375 -0.015625 -0.109375
v -0.4375 -0.09375 -0.109375
v -0.4375 0.21875 -0.265625
v -0.4375 -0.09375 -0.265625
v -0.4375 0.21875 -0.1484375
v -0.4375 -0.015625 -0.1484375
v -0.4375 -0.09375 -0.1484375
v -0.4375 0.21875 -0.2265625
v -0.4375 0.140625 -0.2265625
v -0.4375 -0.015625 -0.2265625
v -0.4375 -0.09375 -0.2265625
v -0.4375 0.21875 -0.3046875
v -0.4375 0.2578125 -0.3046875
v -0.4375 0.2578125 -0.265625
v -0.4375 0.2578125 -0.2265625
v -0.4375 0.2578125 -0.1875
v -0.4375 0.2578125 -0.1484375
v -0.4375 0.1796875 -0.2265625
v -0.4375 0.1796875 -0.1875
v -0.4375 0.1796875 -0.1484375
v -0.4375 0.1796875 -0.109375
v -0.4375 0.0234375 -0.2265625
v -0.4375 0.0234375 -0.1875
v -0.4375 0.0234375 -0.1484375
v -0.4375 0.0234375 -0.109375
v -0.4375 -0.0546875 -0.265625
v -0.4375 -0.0546875 -0.2265625
v -0.4375 -0.0546875 -0.1875
v -0.4375 -0.0546875 -0.1484375
v -0.4375 -0.0546875 -0.109375
v -0.4375 0.296875 -0.0703125
v -0.4375 0.35546875 -0.34375
v -0.4375 0.296875 -0.34375
v -0.4375 0.296875 -0.03125
v -0.4375 0.35546875 -0.03125
v -0.4375 0.21875 -0.03125
v -0.4375 0.21875 -0.34375
v -0.4375 0.140625 -0.03125
v -0.4375 0.140625 -0.34375
v -0.4375 0.0625 -0.03125
v -0.4375 0.0625 -0.34375
v -0.4375 -0.015625 -0.34375
v -0.4375 -0.015625 -0.03125
v -0.4375 -0.09375 -0.03125
v -0.4375 -0.09375 -0.34375
v -0.4375 -0.2109375 -0.03125
v -0.4375 -0.2109375 -0.34375
v -0.4375 0.140625 -0.1875
v -0.4375 0.296875 -0.1875
v -0.4375 0.35546875 -0.1875
v -0.4375 -0.09375 -0.1875
v -0.4375 -0.2109375 -0.1875
v -0.4375 0.35546875 -0.109375
v -0.4375 0.296875 -0.109375
v -0.4375 0.21875 -0.109375
v -0.4375 0.0625 -0.109375
v -0.4375 0.296875 -0.265625
v -0.4375 0.35546875 -0.265625
v -0.4375 0.21875 -0.265625
v -0.4375 -0.015625 -0.265625
v -0.4375 0.296875 -0.1484375
v -0.4375 0.35546875 -0.1484375
v -0.4375 0.21875 -0.1484375
v -0.4375 0.140625 -0.1484375
v -0.4375 0.0625 -0.1484375
v -0.4375 -0.09375 -0.1484375
v -0.4375 -0.2109375 -0.1484375
v -0.4375 0.35546875 -0.2265625
v -0.4375 0.296875 -0.2265625
v -0.4375 0.21875 -0.2265625
v -0.4375 0.296875 -0.3046875
v -0.4375 0.21875 -0.3046875
v -0.4375 0.140625 -0.3046875
v -0.4375 0.0625 -0.3046875
v -0.4375 -0.015625 -0.3046875
v -0.4375 -0.09375 -0.3046875
v -0.4375 -0.2109375 -0.3046875
v -0.4375 0.35546875 -0.0703125
v -0.4375 0.21875 -0.0703125
v -0.4375 0.140625 -0.0703125
v -0.4375 0.0625 -0.0703125
v -0.4375 -0.015625 -0.0703125
v -0.4375 -0.09375 -0.0703125
v -0.4375 -0.2109375 -0.0703125
v -0.4375 0.2578125 -0.3046875
v -0.4375 0.2578125 -0.34375
v -0.4375 0.2578125 -0.265625
v -0.4375 0.2578125 -0.2265625
v -0.4375 0.2578125 -0.1484375
v -0.4375 0.2578125 -0.109375
v -0.4375 0.2578125 -0.0703125
v -0.4375 0.2578125 -0.03125
v -0.4375 0.1796875 -0.3046875
v -0.4375 0.1796875 -0.34375
v -0.4375 0.1796875 -0.0703125
v -0.4375 0.1796875 -0.03125
v -0.4375 0.1015625 -0.3046875
v -0.4375 0.1015625 -0.34375
v -0.4375 0.1015625 -0.1875
v -0.4375 0.1015625 -0.1484375
v -0.4375 0.1015625 -0.0703125
v -0.4375 0.1015625 -0.03125
v -0.4375 0.0234375 -0.3046875
v -0.4375 0.0234375 -0.34375
v -0.4375 0.0234375 -0.265625
v -0.4375 0.0234375 -0.1484375
v -0.4375 0.0234375 -0.109375
v -0.4375 0.0234375 -0.0703125
v -0.4375 0.0234375 -0.03125
v -0.4375 -0.0546875 -0.3046875
v -0.4375 -0.0546875 -0.34375
v -0.4375 -0.0546875 -0.0703125
v -0.4375 -0.0546875 -0.03125
vt 0.109375 0.875
vt 0.109375 0.8359375
vt 0.1328125 0.8359375
vt 0.1328125 0.875
vt 0.109375 0.734375
vt 0.109375 0.7734375
vt 0.0859375 0.7734375
vt 0.0859375 0.734375
vt 0.15625 0.734375
vt 0.15625 0.7734375
vt 0.1328125 0.7734375
vt 0.1328125 0.734375
vt 0.203125 0.734375
vt 0.203125 0.7734375
vt 0.1796875 0.7734375
vt 0.1796875 0.734375
vt 0.109375 0.609375
vt 0.109375 0.6484375
vt 0.0859375 0.6484375
vt 0.0859375 0.609375
vt 0.15625 0.609375
vt 0.15625 0.6484375
vt 0.1328125 0.6484375
vt 0.1328125 0.609375
vt 0.109375 0.8125
vt 0.109375 0.7734375
vt 0.1328125 0.7734375
vt 0.1328125 0.8125
vt 0.109375 0.75
vt 0.109375 0.7109375
vt 0.1328125 0.7109375
vt 0.1328125 0.75
vt 0.109375 0.6875
vt 0.109375 0.6484375
vt 0.1328125 0.6484375
vt 0.1328125 0.6875
vt 0.15625 0.875
vt 0.15625 0.8359375
vt 0.1796875 0.8359375
vt 0.1796875 0.875
vt 0.15625 0.75
vt 0.15625 0.7109375
vt 0.1796875 0.7109375
vt 0.1796875 0.75
vt 0.1796875 0.6875
vt 0.1796875 0.6484375
vt 0.203125 0.6484375
vt 0.203125 0.6875
vt 0.1796875 0.8125
vt 0.1796875 0.7734375
vt 0.203125 0.7734375
vt 0.203125 0.8125
vt 0.15625 0.6875
vt 0.15625 0.6484375
vt 0.1796875 0.6484375
vt 0.1796875 0.6875
vt 0.109375 0.796875
vt 0.109375 0.8359375
vt 0.0859375 0.8359375
vt 0.0859375 0.796875
vt 0.203125 0.796875
vt 0.203125 0.8359375
vt 0.1796875 0.8359375
vt 0.1796875 0.796875
vt 0.1796875 0.875
vt 0.1796875 0.8359375
vt 0.203125 0.8359375
vt 0.203125 0.875
vt 0.109375 0.796875
vt 0.109375 0.8359375
vt 0.0859375 0.8359375
vt 0.0859375 0.796875
vt 0.15625 0.796875
vt 0.15625 0.8359375
vt 0.1328125 0.8359375
vt 0.1328125 0.796875
vt 0.1796875 0.796875
vt 0.1796875 0.8359375
vt 0.15625 0.8359375
vt 0.15625 0.796875
vt 0.15625 0.796875
vt 0.15625 0.8359375
vt 0.1328125 0.8359375
vt 0.1328125 0.796875
vt 0.15625 0.671875
vt 0.15625 0.7109375
vt 0.1328125 0.7109375
vt 0.1328125 0.671875
vt 0.203125 0.671875
vt 0.203125 0.7109375
vt 0.1796875 0.7109375
vt 0.1796875 0.671875
vt 0.1328125 0.609375
vt 0.1328125 0.6484375
vt 0.109375 0.6484375
vt 0.109375 0.609375
vt 0.1796875 0.609375
vt 0.1796875 0.6484375
vt 0.15625 0.6484375
vt 0.15625 0.609375
vt 0.203125 0.609375
vt 0.203125 0.6484375
vt 0.1796875 0.6484375
vt 0.1796875 0.609375
vt 0.203125 0.9375
vt 0.1796875 0.9375
vt 0.1796875 0.87890625
vt 0.203125 0.87890625
vt 0.1796875 0.75
vt 0.1796875 0.7109375
vt 0.203125 0.7109375
vt 0.203125 0.75
vt 0.109375 0.87890625
vt 0.1328125 0.87890625
vt 0.1328125 0.9375
vt 0.109375 0.9375
vt 0.203125 0.87890625
vt 0.2265625 0.87890625
vt 0.2265625 0.9375
vt 0.203125 0.9375
vt 0.109375 0.9375
vt 0.0859375 0.9375
vt 0.0859375 0.87890625
vt 0.109375 0.87890625
vt 0.15625 0.87890625
vt 0.1796875 0.87890625
vt 0.1796875 0.9375
vt 0.15625 0.9375
vt 0.15625 0.5078125
vt 0.1796875 0.5078125
vt 0.1796875 0.625
vt 0.15625 0.625
vt 0.15625 0.9375
vt 0.1328125 0.9375
vt 0.1328125 0.87890625
vt 0.15625 0.87890625
vt 0.0625 0.87890625
vt 0.0859375 0.87890625
vt 0.0859375 0.9375
vt 0.0625 0.9375
vt 0.0625 0.875
vt 0.0625 0.8359375
vt 0.0859375 0.8359375
vt 0.0859375 0.875
vt 0.0625 0.875
vt 0.0625 0.8359375
vt 0.0859375 0.8359375
vt 0.0859375 0.875
vt 0.0625 0.8125
vt 0.0625 0.7734375
vt 0.0859375 0.7734375
vt 0.0859375 0.8125
vt 0.0625 0.75
vt 0.0625 0.7109375
vt 0.0859375 0.7109375
vt 0.0859375 0.75
vt 0.0625 0.6875
vt 0.0625 0.6484375
vt 0.0859375 0.6484375
vt 0.0859375 0.6875
vt 0.0625 0.5078125
vt 0.0859375 0.5078125
vt 0.0859375 0.625
vt 0.0625 0.625
vt 0.25 0.9375
vt 0.2265625 0.9375
vt 0.2265625 0.87890625
vt 0.25 0.87890625
vt 0.2265625 0.875
vt 0.2265625 0.8359375
vt 0.25 0.8359375
vt 0.25 0.875
vt 0.2265625 0.875
vt 0.2265625 0.8359375
vt 0.25 0.8359375
vt 0.25 0.875
vt 0.2265625 0.8125
vt 0.2265625 0.7734375
vt 0.25 0.7734375
vt 0.25 0.8125
vt 0.2265625 0.75
vt 0.2265625 0.7109375
vt 0.25 0.7109375
vt 0.25 0.75
vt 0.2265625 0.6875
vt 0.2265625 0.6484375
vt 0.25 0.6484375
vt 0.25 0.6875
vt 0.25 0.625
vt 0.2265625 0.625
vt 0.2265625 0.5078125
vt 0.25 0.5078125
vt 0.15625 0.8125
vt 0.15625 0.7734375
vt 0.1796875 0.7734375
vt 0.1796875 0.8125
vt 0.0859375 0.796875
vt 0.0859375 0.8359375
vt 0.0625 0.8359375
vt 0.0625 0.796875
vt 0.1328125 0.796875
vt 0.1328125 0.8359375
vt 0.109375 0.8359375
vt 0.109375 0.796875
vt 0.203125 0.796875
vt 0.203125 0.8359375
vt 0.1796875 0.8359375
vt 0.1796875 0.796875
vt 0.25 0.796875
vt 0.25 0.8359375
vt 0.2265625 0.8359375
vt 0.2265625 0.796875
vt 0.0859375 0.796875
vt 0.0859375 0.8359375
vt 0.0625 0.8359375
vt 0.0625 0.796875
vt 0.25 0.796875
vt 0.25 0.8359375
vt 0.2265625 0.8359375
vt 0.2265625 0.796875
vt 0.0859375 0.734375
vt 0.0859375 0.7734375
vt 0.0625 0.7734375
vt 0.0625 0.734375
vt 0.25 0.734375
vt 0.25 0.7734375
vt 0.2265625 0.7734375
vt 0.2265625 0.734375
vt 0.0859375 0.671875
vt 0.0859375 0.7109375
vt 0.0625 0.7109375
vt 0.0625 0.671875
vt 0.109375 0.671875
vt 0.109375 0.7109375
vt 0.0859375 0.7109375
vt 0.0859375 0.671875
vt 0.25 0.671875
vt 0.25 0.7109375
vt 0.2265625 0.7109375
vt 0.2265625 0.671875
vt 0.0859375 0.609375
vt 0.0859375 0.6484375
vt 0.0625 0.6484375
vt 0.0625 0.609375
vt 0.25 0.609375
vt 0.25 0.6484375
vt 0.2265625 0.6484375
vt 0.2265625 0.609375
vn -1 0 0
vn -1 0 0
vn -1 0 0
vn -1 0 0
vn -1 0 0
vn -1 0 0
vn -1 0 0
vn -1 0 0
vn -1 0 0
vn -1 0 0
vn -1 0 0
vn -1 0 0
vn -1 0 0
vn -1 0 0
vn -1 0 0
vn -1 0 0
vn -1 0 0
vn -1 0 0
vn -1 0 0
vn -1 0 0
vn -1 0 0
vn -1 0 0
vn -1 0 0
vn -1 0 0
vn -1 0 0
vn -1 0 0
vn -1 0 0
vn -1 0 0
vn -1 0 0
vn -1 0 0
vn -1 0 0
vn -1 0 0
vn -1 0 0
vn -1 0 0
vn -1 0 0
vn -1 0 0
vn -1 0 0
vn -1 0 0
vn -1 0 0
vn -1 0 0
vn -1 0 0
vn -1 0 0
vn -1 0 0
vn -1 0 0
vn -1 0 0
vn -1 0 0
vn -1 0 0
vn -1 0 0
vn -1 0 0
vn -1 0 0
vn -1 0 0
vn -1 0 0
vn -1 0 0
vn -1 0 0
vn -1 0 0
vn -1 0 0
vn -1 0 0
vn -1 0 0
vn -1 0 0
vn -1 0 0
vn -1 0 0
vn -1 0 0
usemtl m_515e4599-380f-89a9-7e28-2ea0860217bc
f 105/317/80 114/318/80 115/319/80 109/320/80
f 106/321/81 117/322/81 116/323/81 112/324/81
f 102/325/82 119/326/82 118/327/82 110/328/82
f 104/329/83 121/330/83 120/331/83 108/332/83
f 107/333/84 123/334/84 122/335/84 113/336/84
f 103/337/85 125/338/85 124/339/85 111/340/85
f 130/341/86 147/342/86 148/343/86 137/344/86
f 131/345/87 151/346/87 152/347/87 138/348/87
f 132/349/88 155/350/88 156/351/88 139/352/88
f 126/353/89 144/354/89 145/355/89 133/356/89
f 127/357/90 153/358/90 154/359/90 135/360/90
f 136/361/91 158/362/91 159/363/91 129/364/91
f 134/365/92 149/366/92 150/367/92 141/368/92
f 128/369/93 157/370/93 158/371/93 136/372/93
f 130/373/94 143/374/94 142/375/94 140/376/94
f 141/377/95 146/378/95 145/379/95 134/380/95
f 169/381/96 184/382/96 185/383/96 164/384/96
f 167/385/97 178/386/97 177/387/97 176/388/97
f 161/389/98 180/390/98 179/391/98 172/392/98
f 169/393/99 181/394/99 180/395/99 161/396/99
f 160/397/100 183/398/100 182/399/100 173/400/100
f 162/401/101 187/402/101 186/403/101 174/404/101
f 165/405/102 189/406/102 188/407/102 170/408/102
f 175/409/103 191/410/103 190/411/103 168/412/103
f 171/413/104 193/414/104 192/415/104 163/416/104
f 166/417/105 194/418/105 193/419/105 171/420/105
f 217/421/106 226/422/106 225/423/106 218/424/106
f 229/425/107 270/426/107 271/427/107 220/428/107
f 221/429/108 233/430/108 232/431/108 222/432/108
f 218/433/109 195/434/109 242/435/109 217/436/109
f 222/437/110 101/438/110 235/439/110 221/440/110
f 213/441/111 225/442/111 226/443/111 214/444/111
f 216/445/112 231/446/112 230/447/112 215/448/112
f 214/449/113 232/450/113 233/451/113 213/452/113
f 197/453/114 235/454/114 101/455/114 196/456/114
f 197/457/115 250/458/115 249/459/115 235/460/115
f 201/461/116 258/462/116 257/463/116 236/464/116
f 203/465/117 262/466/117 261/467/117 237/468/117
f 205/469/118 268/470/118 267/471/118 238/472/118
f 206/473/119 275/474/119 274/475/119 239/476/119
f 211/477/120 241/478/120 240/479/120 209/480/120
f 199/481/121 242/482/121 195/483/121 198/484/121
f 195/485/122 255/486/122 256/487/122 198/488/122
f 243/489/123 259/490/123 260/491/123 200/492/123
f 244/493/124 265/494/124 266/495/124 202/496/124
f 245/497/125 272/498/125 273/499/125 204/500/125
f 246/501/126 276/502/126 277/503/126 207/504/126
f 208/505/127 247/506/127 248/507/127 210/508/127
f 212/509/128 263/510/128 264/511/128 228/512/128
f 236/513/129 249/514/129 250/515/129 201/516/129
f 234/517/130 252/518/130 251/519/130 223/520/130
f 219/521/131 254/522/131 253/523/131 227/524/131
f 200/525/132 256/526/132 255/527/132 243/528/132
f 237/529/133 257/530/133 258/531/133 203/532/133
f 202/533/134 260/534/134 259/535/134 244/536/134
f 238/537/135 261/538/135 262/539/135 205/540/135
f 204/541/136 266/542/136 265/543/136 245/544/136
f 239/545/137 267/546/137 268/547/137 206/548/137
f 224/549/138 269/550/138 267/551/138 239/552/138
f 207/553/139 273/554/139 272/555/139 246/556/139
f 240/557/140 274/558/140 275/559/140 209/560/140
f 208/561/141 277/562/141 276/563/141 247/564/141
o green
v -0.4375 0.296875 -0.0703125
v -0.4375 0.140625 -0.1875
v -0.4375 0.296875 -0.1875
v -0.4375 0.0625 -0.1875
v -0.4375 0.296875 -0.109375
v -0.4375 0.21875 -0.109375
v -0.4375 -0.015625 -0.109375
v -0.4375 -0.09375 -0.109375
v -0.4375 0.296875 -0.265625
v -0.4375 0.21875 -0.265625
v -0.4375 0.0625 -0.265625
v -0.4375 -0.015625 -0.265625
v -0.4375 0.296875 -0.1484375
v -0.4375 0.140625 -0.1484375
v -0.4375 0.0625 -0.1484375
v -0.4375 0.296875 -0.2265625
v -0.4375 -0.015625 -0.2265625
v -0.4375 0.21875 -0.3046875
v -0.4375 0.0625 -0.3046875
v -0.4375 -0.015625 -0.3046875
v -0.4375 0.21875 -0.0703125
v -0.4375 0.140625 -0.0703125
v -0.4375 -0.015625 -0.0703125
v -0.4375 -0.09375 -0.0703125
v -0.4375 0.140625 -0.109375
v -0.4375 0.2578125 -0.265625
v -0.4375 0.2578125 -0.2265625
v -0.4375 0.2578125 -0.1875
v -0.4375 0.2578125 -0.1484375
v -0.4375 0.2578125 -0.109375
v -0.4375 0.2578125 -0.0703125
v -0.4375 0.1796875 -0.3046875
v -0.4375 0.1796875 -0.265625
v -0.4375 0.1796875 -0.1875
v -0.4375 0.1796875 -0.1484375
v -0.4375 0.1796875 -0.109375
v -0.4375 0.1796875 -0.0703125
v -0.4375 0.1015625 -0.1875
v -0.4375 0.1015625 -0.1484375
v -0.4375 0.0234375 -0.3046875
v -0.4375 0.0234375 -0.265625
v -0.4375 0.0234375 -0.2265625
v -0.4375 0.0234375 -0.109375
v -0.4375 0.0234375 -0.0703125
v -0.4375 -0.0546875 -0.3046875
v -0.4375 -0.0546875 -0.265625
v -0.4375 -0.0546875 -0.109375
v -0.4375 -0.0546875 -0.0703125
v -0.4375 0.140625 -0.1875
v -0.4375 0.296875 -0.1875
v -0.4375 0.0625 -0.1875
v -0.4375 -0.015625 -0.1875
v -0.4375 0.0625 -0.109375
v -0.4375 0.296875 -0.265625
v -0.4375 0.140625 -0.265625
v -0.4375 0.296875 -0.1484375
v -0.4375 -0.015625 -0.1484375
v -0.4375 0.140625 -0.2265625
v -0.4375 0.0625 -0.2265625
v -0.4375 -0.015625 -0.2265625
v -0.4375 0.296875 -0.3046875
v -0.4375 0.140625 -0.0703125
v -0.4375 0.0625 -0.0703125
v -0.4375 0.140625 -0.109375
v -0.4375 0.2578125 -0.3046875
v -0.4375 0.2578125 -0.265625
v -0.4375 0.2578125 -0.1875
v -0.4375 0.2578125 -0.1484375
v -0.4375 0.1796875 -0.265625
v -0.4375 0.1796875 -0.2265625
v -0.4375 0.1015625 -0.2265625
v -0.4375 0.1015625 -0.1875
v -0.4375 0.1015625 -0.109375
v -0.4375 0.1015625 -0.0703125
v -0.4375 0.0234375 -0.2265625
v -0.4375 0.0234375 -0.1875
v -0.4375 0.0234375 -0.1484375
v -0.4375 0.0234375 -0.109375
v -0.4375 0.0234375 -0.0703125
v -0.4375 -0.0546875 -0.2265625
v -0.4375 -0.0546875 -0.1875
v -0.4375 0.21875 -0.1875
v -0.4375 0.0625 -0.109375
v -0.4375 0.0625 -0.265625
v -0.4375 0.21875 -0.2265625
v -0.4375 0.0625 -0.2265625
v -0.4375 0.0625 -0.0703125
v -0.4375 0.1796875 -0.2265625
v -0.4375 0.1796875 -0.1875
v -0.4375 0.1015625 -0.265625
v -0.4375 0.1015625 -0.2265625
v -0.4375 0.1015625 -0.109375
v -0.4375 0.1015625 -0.0703125
v -0.4375 -0.09375 -0.1875
v -0.4375 -0.2109375 -0.1875
v -0.4375 -0.015625 -0.109375
v -0.4375 -0.09375 -0.109375
v -0.4375 -0.2109375 -0.109375
v -0.4375 0.140625 -0.265625
v -0.4375 -0.09375 -0.265625
v -0.4375 -0.2109375 -0.265625
v -0.4375 -0.09375 -0.1484375
v -0.4375 -0.2109375 -0.1484375
v -0.4375 -0.09375 -0.2265625
v -0.4375 -0.2109375 -0.2265625
v -0.4375 0.140625 -0.3046875
v -0.4375 -0.09375 -0.3046875
v -0.4375 -0.2109375 -0.3046875
v -0.4375 -0.015625 -0.0703125
v -0.4375 -0.09375 -0.0703125
v -0.4375 -0.2109375 -0.0703125
v -0.4375 0.1015625 -0.3046875
v -0.4375 0.1015625 -0.265625
v -0.4375 -0.0546875 -0.109375
v -0.4375 -0.0546875 -0.0703125
vt 0.1796875 0.875
vt 0.1796875 0.8359375
vt 0.203125 0.8359375
vt 0.203125 0.875
vt 0.203125 0.875
vt 0.203125 0.8359375
vt 0.2265625 0.8359375
vt 0.2265625 0.875
vt 0.0859375 0.875
vt 0.0859375 0.8359375
vt 0.109375 0.8359375
vt 0.109375 0.875
vt 0.0859375 0.6875
vt 0.0859375 0.6484375
vt 0.109375 0.6484375
vt 0.109375 0.6875
vt 0.109375 0.875
vt 0.109375 0.8359375
vt 0.1328125 0.8359375
vt 0.1328125 0.875
vt 0.203125 0.875
vt 0.203125 0.8359375
vt 0.2265625 0.8359375
vt 0.2265625 0.875
vt 0.0859375 0.75
vt 0.0859375 0.7109375
vt 0.109375 0.7109375
vt 0.109375 0.75
vt 0.1328125 0.875
vt 0.1328125 0.8359375
vt 0.15625 0.8359375
vt 0.15625 0.875
vt 0.2265625 0.796875
vt 0.2265625 0.8359375
vt 0.203125 0.8359375
vt 0.203125 0.796875
vt 0.1796875 0.796875
vt 0.1796875 0.8359375
vt 0.15625 0.8359375
vt 0.15625 0.796875
vt 0.2265625 0.796875
vt 0.2265625 0.8359375
vt 0.203125 0.8359375
vt 0.203125 0.796875
vt 0.1796875 0.734375
vt 0.1796875 0.7734375
vt 0.15625 0.7734375
vt 0.15625 0.734375
vt 0.1328125 0.671875
vt 0.1328125 0.7109375
vt 0.109375 0.7109375
vt 0.109375 0.671875
vt 0.2265625 0.671875
vt 0.2265625 0.7109375
vt 0.203125 0.7109375
vt 0.203125 0.671875
vt 0.2265625 0.609375
vt 0.2265625 0.6484375
vt 0.203125 0.6484375
vt 0.203125 0.609375
vt 0.203125 0.75
vt 0.203125 0.7109375
vt 0.2265625 0.7109375
vt 0.2265625 0.75
vt 0.15625 0.875
vt 0.15625 0.8359375
vt 0.1796875 0.8359375
vt 0.1796875 0.875
vt 0.1328125 0.75
vt 0.1328125 0.7109375
vt 0.15625 0.7109375
vt 0.15625 0.75
vt 0.203125 0.8125
vt 0.203125 0.7734375
vt 0.2265625 0.7734375
vt 0.2265625 0.8125
vt 0.0859375 0.875
vt 0.0859375 0.8359375
vt 0.109375 0.8359375
vt 0.109375 0.875
vt 0.1328125 0.8125
vt 0.1328125 0.7734375
vt 0.15625 0.7734375
vt 0.15625 0.8125
vt 0.1328125 0.6875
vt 0.1328125 0.6484375
vt 0.15625 0.6484375
vt 0.15625 0.6875
vt 0.1328125 0.796875
vt 0.1328125 0.8359375
vt 0.109375 0.8359375
vt 0.109375 0.796875
vt 0.1796875 0.671875
vt 0.1796875 0.7109375
vt 0.15625 0.7109375
vt 0.15625 0.671875
vt 0.1328125 0.875
vt 0.1328125 0.8359375
vt 0.15625 0.8359375
vt 0.15625 0.875
vt 0.1328125 0.734375
vt 0.1328125 0.7734375
vt 0.109375 0.7734375
vt 0.109375 0.734375
vt 0.2265625 0.734375
vt 0.2265625 0.7734375
vt 0.203125 0.7734375
vt 0.203125 0.734375
vt 0.203125 0.625
vt 0.1796875 0.625
vt 0.1796875 0.5078125
vt 0.203125 0.5078125
vt 0.109375 0.5078125
vt 0.1328125 0.5078125
vt 0.1328125 0.625
vt 0.109375 0.625
vt 0.203125 0.5078125
vt 0.2265625 0.5078125
vt 0.2265625 0.625
vt 0.203125 0.625
vt 0.0859375 0.8125
vt 0.0859375 0.7734375
vt 0.109375 0.7734375
vt 0.109375 0.8125
vt 0.109375 0.625
vt 0.0859375 0.625
vt 0.0859375 0.5078125
vt 0.109375 0.5078125
vt 0.15625 0.625
vt 0.1328125 0.625
vt 0.1328125 0.5078125
vt 0.15625 0.5078125
vt 0.203125 0.6875
vt 0.203125 0.6484375
vt 0.2265625 0.6484375
vt 0.2265625 0.6875
vn -1 0 0
vn -1 0 0
vn -1 0 0
vn -1 0 0
vn -1 0 0
vn -1 0 0
vn -1 0 0
vn -1 0 0
vn -1 0 0
vn -1 0 0
vn -1 0 0
vn -1 0 0
vn -1 0 0
vn -1 0 0
vn -1 0 0
vn -1 0 0
vn -1 0 0
vn -1 0 0
vn -1 0 0
vn -1 0 0
vn -1 0 0
vn -1 0 0
vn -1 0 0
vn -1 0 0
vn -1 0 0
vn -1 0 0
vn -1 0 0
vn -1 0 0
vn -1 0 0
vn -1 0 0
vn -1 0 0
vn -1 0 0
vn -1 0 0
vn -1 0 0
usemtl m_13876f7e-2b86-b3c3-be11-c38f3296216a
f 290/565/142 306/566/142 307/567/142 282/568/142
f 282/569/143 307/570/143 308/571/143 278/572/143
f 295/573/144 309/574/144 310/575/144 287/576/144
f 297/577/145 322/578/145 323/579/145 289/580/145
f 286/581/146 303/582/146 304/583/146 293/584/146
f 283/585/147 313/586/147 314/587/147 298/588/147
f 296/589/148 317/590/148 318/591/148 288/592/148
f 293/593/149 304/594/149 305/595/149 280/596/149
f 298/597/150 308/598/150 307/599/150 283/600/150
f 291/601/151 312/602/151 311/603/151 279/604/151
f 299/605/152 314/606/152 313/607/152 302/608/152
f 292/609/153 316/610/153 315/611/153 281/612/153
f 294/613/154 319/614/154 318/615/154 289/616/154
f 300/617/155 321/618/155 320/619/155 284/620/155
f 301/621/156 325/622/156 324/623/156 285/624/156
f 330/625/157 355/626/157 356/627/157 340/628/157
f 327/629/158 344/630/158 345/631/158 333/632/158
f 336/633/159 352/634/159 353/635/159 328/636/159
f 341/637/160 350/638/160 351/639/160 339/640/160
f 338/641/161 342/642/161 343/643/161 331/644/161
f 335/645/162 348/646/162 349/647/162 326/648/162
f 337/649/163 357/650/163 358/651/163 329/652/163
f 335/653/164 347/654/164 346/655/164 332/656/164
f 334/657/165 354/658/165 353/659/165 329/660/165
f 362/661/166 365/662/166 366/663/166 359/664/166
f 363/665/167 368/666/167 367/667/167 361/668/167
f 364/669/168 370/670/168 369/671/168 360/672/168
f 374/673/169 379/674/169 380/675/169 375/676/169
f 378/677/170 382/678/170 381/679/170 377/680/170
f 375/681/171 388/682/171 387/683/171 374/684/171
f 383/685/172 389/686/172 390/687/172 376/688/172
f 377/689/173 384/690/173 385/691/173 378/692/173
f 371/693/174 381/694/174 382/695/174 372/696/174
f 373/697/175 391/698/175 392/699/175 386/700/175
o cuboid
v -0.125 0.375 0
v -0.125 0.375 -0.375
v -0.125 -0.25 0
v -0.125 -0.25 -0.375
v -0.1875 0.375 0
v -0.1875 0.375 -0.375
v -0.1875 -0.25 0
v -0.1875 -0.25 -0.375
v -0.1875 0.0625 0
v -0.1875 0.0625 -0.375
v -0.125 0.0625 -0.375
v -0.125 0.0625 0
v -0.1875 0.21875 -0.375
v -0.1875 0.21875 0
v -0.125 0.21875 0
v -0.125 0.21875 -0.375
v -0.1875 -0.09375 0
v -0.1875 -0.09375 -0.375
v -0.125 -0.09375 -0.375
v -0.125 -0.09375 0
v -0.1875 0.296875 -0.375
v -0.1875 0.296875 0
v -0.125 0.296875 0
v -0.125 0.296875 -0.375
v -0.1875 0.140625 0
v -0.1875 0.140625 -0.375
v -0.125 0.140625 -0.375
v -0.125 0.140625 0
v -0.1875 -0.015625 -0.375
v -0.1875 -0.015625 0
v -0.125 -0.015625 0
v -0.125 -0.015625 -0.375
v -0.1875 0.35546875 -0.34375
v -0.1875 0.296875 -0.34375
v -0.1875 0.296875 -0.03125
v -0.1875 0.35546875 -0.03125
v -0.1875 0.21875 -0.03125
v -0.1875 0.21875 -0.34375
v -0.1875 0.140625 -0.03125
v -0.1875 0.140625 -0.34375
v -0.1875 0.0625 -0.03125
v -0.1875 0.0625 -0.34375
v -0.1875 -0.015625 -0.34375
v -0.1875 -0.015625 -0.03125
v -0.1875 -0.09375 -0.03125
v -0.1875 -0.09375 -0.34375
v -0.1875 -0.2109375 -0.03125
v -0.1875 -0.2109375 -0.34375
vt 0 0.875
vt 0 0.8125
vt 0.25 0.8125
vt 0.25 0.875
vt 0 0.75
vt 0.25 0.75
vt 0.25 1
vt 0 1
vt 0.25 0.75
vt 0.25 1
vt 0 1
vt 0 0.75
vt 0 0.875
vt 0 0.8125
vt 0.25 0.8125
vt 0.25 0.875
vt 0 0.875
vt 0 0.8125
vt 0.25 0.8125
vt 0.25 0.875
vt 0.25 0.625
vt 0.25 0.6875
vt 0 0.6875
vt 0 0.625
vt 0.25 0.625
vt 0.25 0.6875
vt 0 0.6875
vt 0 0.625
vt 0.25 0.625
vt 0.25 0.6875
vt 0 0.6875
vt 0 0.625
vt 0.25 0.875
vt 0.25 0.9375
vt 0 0.9375
vt 0 0.875
vt 0.25 0.875
vt 0.25 0.9375
vt 0 0.9375
vt 0 0.875
vt 0.25 0.875
vt 0.25 0.9375
vt 0 0.9375
vt 0 0.875
vt 0.25 0.5
vt 0.25 0.625
vt 0 0.625
vt 0 0.5
vt 0.25 0.5
vt 0.25 0.625
vt 0 0.625
vt 0 0.5
vt 0.25 0.5
vt 0.25 0.625
vt 0 0.625
vt 0 0.5
vt 0 1
vt 0 0.9375
vt 0.25 0.9375
vt 0.25 1
vt 0 1
vt 0 0.9375
vt 0.25 0.9375
vt 0.25 1
vt 0 1
vt 0 0.9375
vt 0.25 0.9375
vt 0.25 1
vt 0.25 0.75
vt 0.25 0.8125
vt 0 0.8125
vt 0 0.75
vt 0.25 0.75
vt 0.25 0.8125
vt 0 0.8125
vt 0 0.75
vt 0.25 0.75
vt 0.25 0.8125
vt 0 0.8125
vt 0 0.75
vt 0 0.75
vt 0 0.6875
vt 0.25 0.6875
vt 0.25 0.75
vt 0 0.75
vt 0 0.6875
vt 0.25 0.6875
vt 0.25 0.75
vt 0 0.75
vt 0 0.6875
vt 0.25 0.6875
vt 0.25 0.75
vt 0.09375 0.921875
vt 0.09375 0.98046875
vt 0 1
vt 0 0.921875
vt 0.25 0.98046875
vt 0.25 0.921875
vt 0.34375 0.921875
vt 0.34375 1
vt 0.09375 0.98046875
vt 0.28125 0.98046875
vt 0.375 1
vt 0 1
vt 0.25 0.875
vt 0.25 0.796875
vt 0.34375 0.796875
vt 0.34375 0.875
vt 0.09375 0.796875
vt 0.09375 0.875
vt 0 0.875
vt 0 0.796875
vt 0.09375 0.796875
vt 0.09375 0.875
vt 0 0.875
vt 0 0.796875
vt 0.25 0.875
vt 0.25 0.796875
vt 0.34375 0.796875
vt 0.34375 0.875
vt 0.25 0.8125
vt 0.25 0.734375
vt 0.34375 0.734375
vt 0.34375 0.8125
vt 0.09375 0.734375
vt 0.09375 0.8125
vt 0 0.8125
vt 0 0.734375
vt 0.09375 0.671875
vt 0.09375 0.75
vt 0 0.75
vt 0 0.671875
vt 0.25 0.75
vt 0.25 0.671875
vt 0.34375 0.671875
vt 0.34375 0.75
vt 0.25 0.6875
vt 0.25 0.609375
vt 0.34375 0.609375
vt 0.34375 0.6875
vt 0.09375 0.609375
vt 0.09375 0.6875
vt 0 0.6875
vt 0 0.609375
vt 0.25 0.6875
vt 0.25 0.5703125
vt 0.34375 0.53125
vt 0.34375 0.6875
vt 0.09375 0.5703125
vt 0.09375 0.6875
vt 0 0.6875
vt 0 0.53125
vt 0.28125 0.5625
vt 0.09375 0.5625
vt 0 0.5234375
vt 0.375 0.5234375
vn 1 0 0
vn 0 1 0
vn 0 -1 0
vn 0 0 1
vn 0 0 -1
vn 0 0 -1
vn 1 0 0
vn 0 0 1
vn 0 0 1
vn 1 0 0
vn 0 0 -1
vn 0 0 -1
vn 1 0 0
vn 0 0 1
vn 0 0 1
vn 1 0 0
vn 0 0 -1
vn 0 0 -1
vn 1 0 0
vn 0 0 1
vn 0 0 1
vn 1 0 0
vn 0 0 -1
vn -1 0 0
vn -1 0 0
vn -1 0 0
vn -1 0 0
vn -1 0 0
vn -1 0 0
vn -1 0 0
vn -1 0 0
vn -1 0 0
vn -1 0 0
vn -1 0 0
vn -1 0 0
vn -1 0 0
vn -1 0 0
vn -1 0 0
vn -1 0 0
usemtl m_3043b577-e65f-e764-e753-da26d84a2fd2
f 407/701/176 420/702/176 419/703/176 408/704/176
f 397/705/177 393/706/177 394/707/177 398/708/177
f 396/709/178 395/710/178 399/711/178 400/712/178
f 406/713/179 417/714/179 420/715/179 407/716/179
f 408/717/180 419/718/180 418/719/180 405/720/180
f 410/721/181 421/722/181 424/723/181 411/724/181
f 411/725/182 424/726/182 423/727/182 412/728/182
f 412/729/183 423/730/183 422/731/183 409/732/183
f 407/733/184 415/734/184 414/735/184 406/736/184
f 408/737/185 416/738/185 415/739/185 407/740/185
f 405/741/186 413/742/186 416/743/186 408/744/186
f 400/745/187 410/746/187 411/747/187 396/748/187
f 396/749/188 411/750/188 412/751/188 395/752/188
f 395/753/189 412/754/189 409/755/189 399/756/189
f 397/757/190 414/758/190 415/759/190 393/760/190
f 393/761/191 415/762/191 416/763/191 394/764/191
f 394/765/192 416/766/192 413/767/192 398/768/192
f 402/769/193 418/770/193 419/771/193 403/772/193
f 403/773/194 419/774/194 420/775/194 404/776/194
f 404/777/195 420/778/195 417/779/195 401/780/195
f 401/781/196 422/782/196 423/783/196 404/784/196
f 404/785/197 423/786/197 424/787/197 403/788/197
f 403/789/198 424/790/198 421/791/198 402/792/198
f 426/793/199 425/794/199 398/795/199 413/796/199
f 428/797/200 427/798/200 414/799/200 397/800/200
f 425/801/201 428/802/201 397/803/201 398/804/201
f 427/805/202 429/806/202 406/807/202 414/808/202
f 430/809/203 426/810/203 413/811/203 405/812/203
f 432/813/204 430/814/204 405/815/204 418/816/204
f 429/817/205 431/818/205 417/819/205 406/820/205
f 431/821/206 433/822/206 401/823/206 417/824/206
f 434/825/207 432/826/207 418/827/207 402/828/207
f 435/829/208 434/830/208 402/831/208 421/832/208
f 433/833/209 436/834/209 422/835/209 401/836/209
f 436/837/210 437/838/210 409/839/210 422/840/210
f 438/841/211 435/842/211 421/843/211 410/844/211
f 437/845/212 439/846/212 399/847/212 409/848/212
f 440/849/213 438/850/213 410/851/213 400/852/213
f 439/853/214 440/854/214 400/855/214 399/856/214
o cuboid_selection
v -0.1875 0.35546875 -0.34375
v -0.1875 0.35546875 -0.03125
v -0.1875 -0.2109375 -0.03125
v -0.1875 -0.2109375 -0.34375
vt 0.3125 1
vt 0 1
vt 0 0.43359375
vt 0.3125 0.43359375
vn -1 0 0
usemtl m_515e4599-380f-89a9-7e28-2ea0860217bc
f 442/857/215 441/858/215 444/859/215 443/860/215
o cuboid
v 0 0.375 0
v 0 0.375 -0.375
v 0 -0.25 0
v 0 -0.25 -0.375
v -0.0625 0.375 0
v -0.0625 0.375 -0.375
v -0.0625 -0.25 0
v -0.0625 -0.25 -0.375
v -0.0625 0.0625 0
v -0.0625 0.0625 -0.375
v 0 0.0625 -0.375
v 0 0.0625 0
v -0.0625 0.21875 -0.375
v -0.0625 0.21875 0
v 0 0.21875 0
v 0 0.21875 -0.375
v -0.0625 -0.09375 0
v -0.0625 -0.09375 -0.375
v 0 -0.09375 -0.375
v 0 -0.09375 0
v -0.0625 0.296875 -0.375
v -0.0625 0.296875 0
v 0 0.296875 0
v 0 0.296875 -0.375
v -0.0625 0.140625 0
v -0.0625 0.140625 -0.375
v 0 0.140625 -0.375
v 0 0.140625 0
v -0.0625 -0.015625 -0.375
v -0.0625 -0.015625 0
v 0 -0.015625 0
v 0 -0.015625 -0.375
v -0.0625 0.35546875 -0.34375
v -0.0625 0.296875 -0.34375
v -0.0625 0.296875 -0.03125
v -0.0625 0.35546875 -0.03125
v -0.0625 0.21875 -0.03125
v -0.0625 0.21875 -0.34375
v -0.0625 0.140625 -0.03125
v -0.0625 0.140625 -0.34375
v -0.0625 0.0625 -0.03125
v -0.0625 0.0625 -0.34375
v -0.0625 -0.015625 -0.34375
v -0.0625 -0.015625 -0.03125
v -0.0625 -0.09375 -0.03125
v -0.0625 -0.09375 -0.34375
v -0.0625 -0.2109375 -0.03125
v -0.0625 -0.2109375 -0.34375
vt 0 0.875
vt 0 0.8125
vt 0.25 0.8125
vt 0.25 0.875
vt 0 0.75
vt 0.25 0.75
vt 0.25 1
vt 0 1
vt 0.25 0.75
vt 0.25 1
vt 0 1
vt 0 0.75
vt 0 0.875
vt 0 0.8125
vt 0.25 0.8125
vt 0.25 0.875
vt 0 0.875
vt 0 0.8125
vt 0.25 0.8125
vt 0.25 0.875
vt 0.25 0.625
vt 0.25 0.6875
vt 0 0.6875
vt 0 0.625
vt 0.25 0.625
vt 0.25 0.6875
vt 0 0.6875
vt 0 0.625
vt 0.25 0.625
vt 0.25 0.6875
vt 0 0.6875
vt 0 0.625
vt 0.25 0.875
vt 0.25 0.9375
vt 0 0.9375
vt 0 0.875
vt 0.25 0.875
vt 0.25 0.9375
vt 0 0.9375
vt 0 0.875
vt 0.25 0.875
vt 0.25 0.9375
vt 0 0.9375
vt 0 0.875
vt 0.25 0.5
vt 0.25 0.625
vt 0 0.625
vt 0 0.5
vt 0.25 0.5
vt 0.25 0.625
vt 0 0.625
vt 0 0.5
vt 0.25 0.5
vt 0.25 0.625
vt 0 0.625
vt 0 0.5
vt 0 1
vt 0 0.9375
vt 0.25 0.9375
vt 0.25 1
vt 0 1
vt 0 0.9375
vt 0.25 0.9375
vt 0.25 1
vt 0 1
vt 0 0.9375
vt 0.25 0.9375
vt 0.25 1
vt 0.25 0.75
vt 0.25 0.8125
vt 0 0.8125
vt 0 0.75
vt 0.25 0.75
vt 0.25 0.8125
vt 0 0.8125
vt 0 0.75
vt 0.25 0.75
vt 0.25 0.8125
vt 0 0.8125
vt 0 0.75
vt 0 0.75
vt 0 0.6875
vt 0.25 0.6875
vt 0.25 0.75
vt 0 0.75
vt 0 0.6875
vt 0.25 0.6875
vt 0.25 0.75
vt 0 0.75
vt 0 0.6875
vt 0.25 0.6875
vt 0.25 0.75
vt 0.09375 0.921875
vt 0.09375 0.98046875
vt 0 1
vt 0 0.921875
vt 0.25 0.98046875
vt 0.25 0.921875
vt 0.34375 0.921875
vt 0.34375 1
vt 0.09375 0.98046875
vt 0.28125 0.98046875
vt 0.375 1
vt 0 1
vt 0.25 0.875
vt 0.25 0.796875
vt 0.34375 0.796875
vt 0.34375 0.875
vt 0.09375 0.796875
vt 0.09375 0.875
vt 0 0.875
vt 0 0.796875
vt 0.09375 0.796875
vt 0.09375 0.875
vt 0 0.875
vt 0 0.796875
vt 0.25 0.875
vt 0.25 0.796875
vt 0.34375 0.796875
vt 0.34375 0.875
vt 0.25 0.8125
vt 0.25 0.734375
vt 0.34375 0.734375
vt 0.34375 0.8125
vt 0.09375 0.734375
vt 0.09375 0.8125
vt 0 0.8125
vt 0 0.734375
vt 0.09375 0.671875
vt 0.09375 0.75
vt 0 0.75
vt 0 0.671875
vt 0.25 0.75
vt 0.25 0.671875
vt 0.34375 0.671875
vt 0.34375 0.75
vt 0.25 0.6875
vt 0.25 0.609375
vt 0.34375 0.609375
vt 0.34375 0.6875
vt 0.09375 0.609375
vt 0.09375 0.6875
vt 0 0.6875
vt 0 0.609375
vt 0.25 0.6875
vt 0.25 0.5703125
vt 0.34375 0.53125
vt 0.34375 0.6875
vt 0.09375 0.5703125
vt 0.09375 0.6875
vt 0 0.6875
vt 0 0.53125
vt 0.28125 0.5625
vt 0.09375 0.5625
vt 0 0.5234375
vt 0.375 0.5234375
vn 1 0 0
vn 0 1 0
vn 0 -1 0
vn 0 0 1
vn 0 0 -1
vn 0 0 -1
vn 1 0 0
vn 0 0 1
vn 0 0 1
vn 1 0 0
vn 0 0 -1
vn 0 0 -1
vn 1 0 0
vn 0 0 1
vn 0 0 1
vn 1 0 0
vn 0 0 -1
vn 0 0 -1
vn 1 0 0
vn 0 0 1
vn 0 0 1
vn 1 0 0
vn 0 0 -1
vn -1 0 0
vn -1 0 0
vn -1 0 0
vn -1 0 0
vn -1 0 0
vn -1 0 0
vn -1 0 0
vn -1 0 0
vn -1 0 0
vn -1 0 0
vn -1 0 0
vn -1 0 0
vn -1 0 0
vn -1 0 0
vn -1 0 0
vn -1 0 0
usemtl m_3043b577-e65f-e764-e753-da26d84a2fd2
f 459/861/216 472/862/216 471/863/216 460/864/216
f 449/865/217 445/866/217 446/867/217 450/868/217
f 448/869/218 447/870/218 451/871/218 452/872/218
f 458/873/219 469/874/219 472/875/219 459/876/219
f 460/877/220 471/878/220 470/879/220 457/880/220
f 462/881/221 473/882/221 476/883/221 463/884/221
f 463/885/222 476/886/222 475/887/222 464/888/222
f 464/889/223 475/890/223 474/891/223 461/892/223
f 459/893/224 467/894/224 466/895/224 458/896/224
f 460/897/225 468/898/225 467/899/225 459/900/225
f 457/901/226 465/902/226 468/903/226 460/904/226
f 452/905/227 462/906/227 463/907/227 448/908/227
f 448/909/228 463/910/228 464/911/228 447/912/228
f 447/913/229 464/914/229 461/915/229 451/916/229
f 449/917/230 466/918/230 467/919/230 445/920/230
f 445/921/231 467/922/231 468/923/231 446/924/231
f 446/925/232 468/926/232 465/927/232 450/928/232
f 454/929/233 470/930/233 471/931/233 455/932/233
f 455/933/234 471/934/234 472/935/234 456/936/234
f 456/937/235 472/938/235 469/939/235 453/940/235
f 453/941/236 474/942/236 475/943/236 456/944/236
f 456/945/237 475/946/237 476/947/237 455/948/237
f 455/949/238 476/950/238 473/951/238 454/952/238
f 478/953/239 477/954/239 450/955/239 465/956/239
f 480/957/240 479/958/240 466/959/240 449/960/240
f 477/961/241 480/962/241 449/963/241 450/964/241
f 479/965/242 481/966/242 458/967/242 466/968/242
f 482/969/243 478/970/243 465/971/243 457/972/243
f 484/973/244 482/974/244 457/975/244 470/976/244
f 481/977/245 483/978/245 469/979/245 458/980/245
f 483/981/246 485/982/246 453/983/246 469/984/246
f 486/985/247 484/986/247 470/987/247 454/988/247
f 487/989/248 486/990/248 454/991/248 473/992/248
f 485/993/249 488/994/249 474/995/249 453/996/249
f 488/997/250 489/998/250 461/999/250 474/1000/250
f 490/1001/251 487/1002/251 473/1003/251 462/1004/251
f 489/1005/252 491/1006/252 451/1007/252 461/1008/252
f 492/1009/253 490/1010/253 462/1011/253 452/1012/253
f 491/1013/254 492/1014/254 452/1015/254 451/1016/254
o cuboid_selection
v -0.0625 0.35546875 -0.34375
v -0.0625 0.35546875 -0.03125
v -0.0625 -0.2109375 -0.03125
v -0.0625 -0.2109375 -0.34375
vt 0.3125 1
vt 0 1
vt 0 0.43359375
vt 0.3125 0.43359375
vn -1 0 0
usemtl m_515e4599-380f-89a9-7e28-2ea0860217bc
f 494/1017/255 493/1018/255 496/1019/255 495/1020/255
o cuboid
v -0.015625 0.40625 0.53125
v -0.015625 0.40625 0.46875
v -0.015625 -0.21875 0.53125
v -0.015625 -0.21875 0.46875
v -0.390625 0.40625 0.53125
v -0.390625 0.40625 0.46875
v -0.390625 -0.21875 0.53125
v -0.390625 -0.21875 0.46875
v -0.046875 0.375 0.53125
v -0.359375 0.375 0.53125
v -0.046875 -0.1875 0.53125
v -0.359375 -0.1875 0.53125
vt 1 1
vt 0 1
vt 0 0.5
vt 1 0.5
vt 1 0.5
vt 1 1
vt 0 1
vt 0 0.5
vt 0 0
vt 1 0
vt 1 1
vt 0 1
vt 1 0
vt 1 1
vt 0 1
vt 0 0
vt 1 1
vt 0 1
vt 0 0.5
vt 1 0.5
vt 0.9375 0.84375
vt 0.9375 0.53125
vt 1.03125 0.375
vt 1.03125 1
vt 0.40625 0.84375
vt 0.59375 0.84375
vt 0.6875 1
vt 0.3125 1
vt 0.09375 0.53125
vt 0.09375 0.84375
vt 0 1
vt 0 0.375
vt 0.59375 0.625
vt 0.40625 0.625
vt 0.3125 0.46875
vt 0.6875 0.46875
vn 1 0 0
vn -1 0 0
vn 0 1 0
vn 0 -1 0
vn 0 0 -1
vn 0 0 1
vn 0 0 1
vn 0 0 1
vn 0 0 1
usemtl m_3043b577-e65f-e764-e753-da26d84a2fd2
f 498/1021/256 497/1022/256 499/1023/256 500/1024/256
f 503/1025/257 501/1026/257 502/1027/257 504/1028/257
f 501/1029/258 497/1030/258 498/1031/258 502/1032/258
f 500/1033/259 499/1034/259 503/1035/259 504/1036/259
f 502/1037/260 498/1038/260 500/1039/260 504/1040/260
f 505/1041/261 507/1042/261 499/1043/261 497/1044/261
f 506/1045/262 505/1046/262 497/1047/262 501/1048/262
f 508/1049/263 506/1050/263 501/1051/263 503/1052/263
f 507/1053/264 508/1054/264 503/1055/264 499/1056/264
o cuboid
v 0.146875 0.1625 0.546875
v 0.16875 0.184375 0.5
v 0.146875 0.11875 0.546875
v 0.16875 0.096875 0.5
v 0.103125 0.1625 0.546875
v 0.08125 0.184375 0.5
v 0.103125 0.11875 0.546875
v 0.08125 0.096875 0.5
vt 0.25 1
vt 0 1
vt 0 0.75
vt 0.25 0.75
vt 0.25 0.75
vt 0.25 1
vt 0 1
vt 0 0.75
vt 0 0.75
vt 0.25 0.75
vt 0.25 1
vt 0 1
vt 0.25 0.75
vt 0.25 1
vt 0 1
vt 0 0.75
vt 0.25 0.75
vt 0.25 1
vt 0 1
vt 0 0.75
vt 0.25 1
vt 0 1
vt 0 0.75
vt 0.25 0.75
vn 0.9061831399952656 0 0.42288546533112403
vn -0.9061831399952656 0 0.42288546533112376
vn 0 0.9061831399952656 0.4228854653311241
vn 0 -0.9061831399952656 0.4228854653311237
vn 0 0 1
vn 0 0 -1
usemtl m_515e4599-380f-89a9-7e28-2ea0860217bc
f 510/1057/265 509/1058/265 511/1059/265 512/1060/265
f 515/1061/266 513/1062/266 514/1063/266 516/1064/266
f 513/1065/267 509/1066/267 510/1067/267 514/1068/267
f 512/1069/268 511/1070/268 515/1071/268 516/1072/268
f 511/1073/269 509/1074/269 513/1075/269 515/1076/269
f 514/1077/270 510/1078/270 512/1079/270 516/1080/270
o cuboid
v 0.24062499999999998 0.1625 0.546875
v 0.2625 0.184375 0.5
v 0.24062499999999998 0.11875 0.546875
v 0.2625 0.096875 0.5
v 0.196875 0.1625 0.546875
v 0.175 0.184375 0.5
v 0.196875 0.11875 0.546875
v 0.175 0.096875 0.5
vt 0.25 1
vt 0 1
vt 0 0.75
vt 0.25 0.75
vt 0.25 0.75
vt 0.25 1
vt 0 1
vt 0 0.75
vt 0 0.75
vt 0.25 0.75
vt 0.25 1
vt 0 1
vt 0.25 0.75
vt 0.25 1
vt 0 1
vt 0 0.75
vt 0.25 0.75
vt 0.25 1
vt 0 1
vt 0 0.75
vt 0.25 1
vt 0 1
vt 0 0.75
vt 0.25 0.75
vn 0.9061831399952652 0 0.4228854653311244
vn -0.9061831399952656 0 0.4228854653311241
vn 0 0.9061831399952656 0.42288546533112403
vn 0 -0.9061831399952657 0.4228854653311238
vn 0 0 1
vn 0 0 -1
usemtl m_515e4599-380f-89a9-7e28-2ea0860217bc
f 518/1081/271 517/1082/271 519/1083/271 520/1084/271
f 523/1085/272 521/1086/272 522/1087/272 524/1088/272
f 521/1089/273 517/1090/273 518/1091/273 522/1092/273
f 520/1093/274 519/1094/274 523/1095/274 524/1096/274
f 519/1097/275 517/1098/275 521/1099/275 523/1100/275
f 522/1101/276 518/1102/276 520/1103/276 524/1104/276
o cuboid
v 0.334375 0.1625 0.546875
v 0.35625 0.184375 0.5
v 0.334375 0.11875 0.546875
v 0.35625 0.096875 0.5
v 0.290625 0.1625 0.546875
v 0.26875 0.184375 0.5
v 0.290625 0.11875 0.546875
v 0.26875 0.096875 0.5
vt 0.25 1
vt 0 1
vt 0 0.75
vt 0.25 0.75
vt 0.25 0.75
vt 0.25 1
vt 0 1
vt 0 0.75
vt 0 0.75
vt 0.25 0.75
vt 0.25 1
vt 0 1
vt 0.25 0.75
vt 0.25 1
vt 0 1
vt 0 0.75
vt 0.25 0.75
vt 0.25 1
vt 0 1
vt 0 0.75
vt 0.25 1
vt 0 1
vt 0 0.75
vt 0.25 0.75
vn 0.9061831399952652 0 0.4228854653311244
vn -0.9061831399952652 0 0.4228854653311244
vn 0 0.9061831399952655 0.422885465331124
vn 0 -0.9061831399952657 0.42288546533112376
vn 0 0 1
vn 0 0 -1
usemtl m_515e4599-380f-89a9-7e28-2ea0860217bc
f 526/1105/277 525/1106/277 527/1107/277 528/1108/277
f 531/1109/278 529/1110/278 530/1111/278 532/1112/278
f 529/1113/279 525/1114/279 526/1115/279 530/1116/279
f 528/1117/280 527/1118/280 531/1119/280 532/1120/280
f 527/1121/281 525/1122/281 529/1123/281 531/1124/281
f 530/1125/282 526/1126/282 528/1127/282 532/1128/282
o cuboid
v 0.334375 -0.024999999999999994 0.546875
v 0.35625 -0.003124999999999989 0.5
v 0.334375 -0.06875 0.546875
v 0.35625 -0.09062500000000001 0.5
v 0.290625 -0.024999999999999994 0.546875
v 0.26875 -0.003124999999999989 0.5
v 0.290625 -0.06875 0.546875
v 0.26875 -0.09062500000000001 0.5
vt 0.25 1
vt 0 1
vt 0 0.75
vt 0.25 0.75
vt 0.25 0.75
vt 0.25 1
vt 0 1
vt 0 0.75
vt 0 0.75
vt 0.25 0.75
vt 0.25 1
vt 0 1
vt 0.25 0.75
vt 0.25 1
vt 0 1
vt 0 0.75
vt 0.25 0.75
vt 0.25 1
vt 0 1
vt 0 0.75
vt 0.25 1
vt 0 1
vt 0 0.75
vt 0.25 0.75
vn 0.9061831399952652 0 0.4228854653311244
vn -0.9061831399952652 0 0.4228854653311244
vn 0 0.9061831399952655 0.422885465331124
vn 0 -0.9061831399952655 0.42288546533112403
vn 0 0 1
vn 0 0 -1
usemtl m_515e4599-380f-89a9-7e28-2ea0860217bc
f 534/1129/283 533/1130/283 535/1131/283 536/1132/283
f 539/1133/284 537/1134/284 538/1135/284 540/1136/284
f 537/1137/285 533/1138/285 534/1139/285 538/1140/285
f 536/1141/286 535/1142/286 539/1143/286 540/1144/286
f 535/1145/287 533/1146/287 537/1147/287 539/1148/287
f 538/1149/288 534/1150/288 536/1151/288 540/1152/288
o cuboid
v 0.14687499999999998 0.06875 0.546875
v 0.16875 0.09062500000000001 0.5
v 0.14687499999999998 0.024999999999999994 0.546875
v 0.16875 0.0031250000000000028 0.5
v 0.10312500000000002 0.06875 0.546875
v 0.08124999999999999 0.09062500000000001 0.5
v 0.10312500000000002 0.024999999999999994 0.546875
v 0.08124999999999999 0.0031250000000000028 0.5
vt 0.25 1
vt 0 1
vt 0 0.75
vt 0.25 0.75
vt 0.25 0.75
vt 0.25 1
vt 0 1
vt 0 0.75
vt 0 0.75
vt 0.25 0.75
vt 0.25 1
vt 0 1
vt 0.25 0.75
vt 0.25 1
vt 0 1
vt 0 0.75
vt 0.25 0.75
vt 0.25 1
vt 0 1
vt 0 0.75
vt 0.25 1
vt 0 1
vt 0 0.75
vt 0.25 0.75
vn 0.9061831399952652 0 0.4228854653311244
vn -0.9061831399952652 0 0.4228854653311244
vn 0 0.9061831399952655 0.422885465331124
vn 0 -0.9061831399952657 0.42288546533112376
vn 0 0 1
vn 0 0 -1
usemtl m_515e4599-380f-89a9-7e28-2ea0860217bc
f 542/1153/289 541/1154/289 543/1155/289 544/1156/289
f 547/1157/290 545/1158/290 546/1159/290 548/1160/290
f 545/1161/291 541/1162/291 542/1163/291 546/1164/291
f 544/1165/292 543/1166/292 547/1167/292 548/1168/292
f 543/1169/293 541/1170/293 545/1171/293 547/1172/293
f 546/1173/294 542/1174/294 544/1175/294 548/1176/294
o cuboid
v 0.24062499999999998 0.06875 0.546875
v 0.2625 0.09062500000000001 0.5
v 0.24062499999999998 0.024999999999999994 0.546875
v 0.2625 0.0031250000000000028 0.5
v 0.19687500000000002 0.06875 0.546875
v 0.175 0.09062500000000001 0.5
v 0.19687500000000002 0.024999999999999994 0.546875
v 0.175 0.0031250000000000028 0.5
vt 0.25 1
vt 0 1
vt 0 0.75
vt 0.25 0.75
vt 0.25 0.75
vt 0.25 1
vt 0 1
vt 0 0.75
vt 0 0.75
vt 0.25 0.75
vt 0.25 1
vt 0 1
vt 0.25 0.75
vt 0.25 1
vt 0 1
vt 0 0.75
vt 0.25 0.75
vt 0.25 1
vt 0 1
vt 0 0.75
vt 0.25 1
vt 0 1
vt 0 0.75
vt 0.25 0.75
vn 0.9061831399952652 0 0.4228854653311244
vn -0.9061831399952652 0 0.4228854653311244
vn 0 0.9061831399952655 0.422885465331124
vn 0 -0.9061831399952657 0.42288546533112376
vn 0 0 1
vn 0 0 -1
usemtl m_515e4599-380f-89a9-7e28-2ea0860217bc
f 550/1177/295 549/1178/295 551/1179/295 552/1180/295
f 555/1181/296 553/1182/296 554/1183/296 556/1184/296
f 553/1185/297 549/1186/297 550/1187/297 554/1188/297
f 552/1189/298 551/1190/298 555/1191/298 556/1192/298
f 551/1193/299 549/1194/299 553/1195/299 555/1196/299
f 554/1197/300 550/1198/300 552/1199/300 556/1200/300
o cuboid
v 0.334375 0.06875 0.546875
v 0.35625 0.09062500000000001 0.5
v 0.334375 0.024999999999999994 0.546875
v 0.35625 0.0031250000000000028 0.5
v 0.290625 0.06875 0.546875
v 0.26875 0.09062500000000001 0.5
v 0.290625 0.024999999999999994 0.546875
v 0.26875 0.0031250000000000028 0.5
vt 0.25 1
vt 0 1
vt 0 0.75
vt 0.25 0.75
vt 0.25 0.75
vt 0.25 1
vt 0 1
vt 0 0.75
vt 0 0.75
vt 0.25 0.75
vt 0.25 1
vt 0 1
vt 0.25 0.75
vt 0.25 1
vt 0 1
vt 0 0.75
vt 0.25 0.75
vt 0.25 1
vt 0 1
vt 0 0.75
vt 0.25 1
vt 0 1
vt 0 0.75
vt 0.25 0.75
vn 0.9061831399952652 0 0.4228854653311244
vn -0.9061831399952652 0 0.4228854653311244
vn 0 0.9061831399952655 0.422885465331124
vn 0 -0.9061831399952657 0.42288546533112376
vn 0 0 1
vn 0 0 -1
usemtl m_515e4599-380f-89a9-7e28-2ea0860217bc
f 558/1201/301 557/1202/301 559/1203/301 560/1204/301
f 563/1205/302 561/1206/302 562/1207/302 564/1208/302
f 561/1209/303 557/1210/303 558/1211/303 562/1212/303
f 560/1213/304 559/1214/304 563/1215/304 564/1216/304
f 559/1217/305 557/1218/305 561/1219/305 563/1220/305
f 562/1221/306 558/1222/306 560/1223/306 564/1224/306
o cuboid
v 0.24062499999999998 -0.024999999999999994 0.546875
v 0.2625 -0.003124999999999989 0.5
v 0.24062499999999998 -0.06875 0.546875
v 0.2625 -0.09062500000000001 0.5
v 0.19687500000000002 -0.024999999999999994 0.546875
v 0.175 -0.003124999999999989 0.5
v 0.19687500000000002 -0.06875 0.546875
v 0.175 -0.09062500000000001 0.5
vt 0.25 1
vt 0 1
vt 0 0.75
vt 0.25 0.75
vt 0.25 0.75
vt 0.25 1
vt 0 1
vt 0 0.75
vt 0 0.75
vt 0.25 0.75
vt 0.25 1
vt 0 1
vt 0.25 0.75
vt 0.25 1
vt 0 1
vt 0 0.75
vt 0.25 0.75
vt 0.25 1
vt 0 1
vt 0 0.75
vt 0.25 1
vt 0 1
vt 0 0.75
vt 0.25 0.75
vn 0.9061831399952652 0 0.4228854653311244
vn -0.9061831399952652 0 0.4228854653311244
vn 0 0.9061831399952655 0.422885465331124
vn 0 -0.9061831399952655 0.42288546533112403
vn 0 0 1
vn 0 0 -1
usemtl m_515e4599-380f-89a9-7e28-2ea0860217bc
f 566/1225/307 565/1226/307 567/1227/307 568/1228/307
f 571/1229/308 569/1230/308 570/1231/308 572/1232/308
f 569/1233/309 565/1234/309 566/1235/309 570/1236/309
f 568/1237/310 567/1238/310 571/1239/310 572/1240/310
f 567/1241/311 565/1242/311 569/1243/311 571/1244/311
f 570/1245/312 566/1246/312 568/1247/312 572/1248/312
o cuboid
v 0.14687499999999998 -0.024999999999999994 0.546875
v 0.16875 -0.003124999999999989 0.5
v 0.14687499999999998 -0.06875 0.546875
v 0.16875 -0.09062500000000001 0.5
v 0.10312500000000002 -0.024999999999999994 0.546875
v 0.08124999999999999 -0.003124999999999989 0.5
v 0.10312500000000002 -0.06875 0.546875
v 0.08124999999999999 -0.09062500000000001 0.5
vt 0.25 1
vt 0 1
vt 0 0.75
vt 0.25 0.75
vt 0.25 0.75
vt 0.25 1
vt 0 1
vt 0 0.75
vt 0 0.75
vt 0.25 0.75
vt 0.25 1
vt 0 1
vt 0.25 0.75
vt 0.25 1
vt 0 1
vt 0 0.75
vt 0.25 0.75
vt 0.25 1
vt 0 1
vt 0 0.75
vt 0.25 1
vt 0 1
vt 0 0.75
vt 0.25 0.75
vn 0.9061831399952652 0 0.4228854653311244
vn -0.9061831399952652 0 0.4228854653311244
vn 0 0.9061831399952655 0.422885465331124
vn 0 -0.9061831399952655 0.42288546533112403
vn 0 0 1
vn 0 0 -1
usemtl m_515e4599-380f-89a9-7e28-2ea0860217bc
f 574/1249/313 573/1250/313 575/1251/313 576/1252/313
f 579/1253/314 577/1254/314 578/1255/314 580/1256/314
f 577/1257/315 573/1258/315 574/1259/315 578/1260/315
f 576/1261/316 575/1262/316 579/1263/316 580/1264/316
f 575/1265/317 573/1266/317 577/1267/317 579/1268/317
f 578/1269/318 574/1270/318 576/1271/318 580/1272/318
o cuboid
v 0.24062499999999998 -0.11875 0.546875
v 0.2625 -0.09687499999999999 0.5
v 0.24062499999999998 -0.1625 0.546875
v 0.2625 -0.184375 0.5
v 0.19687500000000002 -0.11875 0.546875
v 0.175 -0.09687499999999999 0.5
v 0.19687500000000002 -0.1625 0.546875
v 0.175 -0.184375 0.5
vt 0.25 1
vt 0 1
vt 0 0.75
vt 0.25 0.75
vt 0.25 0.75
vt 0.25 1
vt 0 1
vt 0 0.75
vt 0 0.75
vt 0.25 0.75
vt 0.25 1
vt 0 1
vt 0.25 0.75
vt 0.25 1
vt 0 1
vt 0 0.75
vt 0.25 0.75
vt 0.25 1
vt 0 1
vt 0 0.75
vt 0.25 1
vt 0 1
vt 0 0.75
vt 0.25 0.75
vn 0.9061831399952652 0 0.4228854653311244
vn -0.9061831399952652 0 0.4228854653311244
vn 0 0.9061831399952655 0.422885465331124
vn 0 -0.9061831399952655 0.42288546533112403
vn 0 0 1
vn 0 0 -1
usemtl m_515e4599-380f-89a9-7e28-2ea0860217bc
f 582/1273/319 581/1274/319 583/1275/319 584/1276/319
f 587/1277/320 585/1278/320 586/1279/320 588/1280/320
f 585/1281/321 581/1282/321 582/1283/321 586/1284/321
f 584/1285/322 583/1286/322 587/1287/322 588/1288/322
f 583/1289/323 581/1290/323 585/1291/323 587/1292/323
f 586/1293/324 582/1294/324 584/1295/324 588/1296/324
o cuboid
v 0.334375 -0.11875 0.546875
v 0.35625 -0.09687499999999999 0.5
v 0.334375 -0.1625 0.546875
v 0.35625 -0.184375 0.5
v 0.290625 -0.11875 0.546875
v 0.26875 -0.09687499999999999 0.5
v 0.290625 -0.1625 0.546875
v 0.26875 -0.184375 0.5
vt 0.25 1
vt 0 1
vt 0 0.75
vt 0.25 0.75
vt 0.25 0.75
vt 0.25 1
vt 0 1
vt 0 0.75
vt 0 0.75
vt 0.25 0.75
vt 0.25 1
vt 0 1
vt 0.25 0.75
vt 0.25 1
vt 0 1
vt 0 0.75
vt 0.25 0.75
vt 0.25 1
vt 0 1
vt 0 0.75
vt 0.25 1
vt 0 1
vt 0 0.75
vt 0.25 0.75
vn 0.9061831399952652 0 0.4228854653311244
vn -0.9061831399952652 0 0.4228854653311244
vn 0 0.9061831399952655 0.422885465331124
vn 0 -0.9061831399952655 0.42288546533112403
vn 0 0 1
vn 0 0 -1
usemtl m_515e4599-380f-89a9-7e28-2ea0860217bc
f 590/1297/325 589/1298/325 591/1299/325 592/1300/325
f 595/1301/326 593/1302/326 594/1303/326 596/1304/326
f 593/1305/327 589/1306/327 590/1307/327 594/1308/327
f 592/1309/328 591/1310/328 595/1311/328 596/1312/328
f 591/1313/329 589/1314/329 593/1315/329 595/1316/329
f 594/1317/330 590/1318/330 592/1319/330 596/1320/330
o cuboid
v 0.14687499999999998 -0.11875 0.546875
v 0.16875 -0.09687499999999999 0.5
v 0.14687499999999998 -0.1625 0.546875
v 0.16875 -0.184375 0.5
v 0.10312500000000002 -0.11875 0.546875
v 0.08124999999999999 -0.09687499999999999 0.5
v 0.10312500000000002 -0.1625 0.546875
v 0.08124999999999999 -0.184375 0.5
vt 0.25 1
vt 0 1
vt 0 0.75
vt 0.25 0.75
vt 0.25 0.75
vt 0.25 1
vt 0 1
vt 0 0.75
vt 0 0.75
vt 0.25 0.75
vt 0.25 1
vt 0 1
vt 0.25 0.75
vt 0.25 1
vt 0 1
vt 0 0.75
vt 0.25 0.75
vt 0.25 1
vt 0 1
vt 0 0.75
vt 0.25 1
vt 0 1
vt 0 0.75
vt 0.25 0.75
vn 0.9061831399952652 0 0.4228854653311244
vn -0.9061831399952652 0 0.4228854653311244
vn 0 0.9061831399952655 0.422885465331124
vn 0 -0.9061831399952655 0.42288546533112403
vn 0 0 1
vn 0 0 -1
usemtl m_515e4599-380f-89a9-7e28-2ea0860217bc
f 598/1321/331 597/1322/331 599/1323/331 600/1324/331
f 603/1325/332 601/1326/332 602/1327/332 604/1328/332
f 601/1329/333 597/1330/333 598/1331/333 602/1332/333
f 600/1333/334 599/1334/334 603/1335/334 604/1336/334
f 599/1337/335 597/1338/335 601/1339/335 603/1340/335
f 602/1341/336 598/1342/336 600/1343/336 604/1344/336
o cuboid
v 0.5 0.5 0.4375
v 0.5 -0.5 0.4375
v 0.5 -0.5 -0.5
v -0.5 0.5 0.4375
v -0.5 -0.5 0.4375
v -0.5 -0.5 -0.5
v 0 -0.5 -0.5
v 0 -0.5 0.5
v 0.5 0.5 0
v 0.5 -0.5 0
v 0 -0.5 0
v -0.5 -0.5 0
v -0.5 0.5 0
v 0 -0.1875 -0.5
v 0.5 -0.1875 -0.5
v 0.5 -0.1875 0
v 0.5 0 0.4375
v -0.5 0 0.4375
v -0.5 -0.1875 0
v -0.5 -0.1875 -0.5
v 0.4375 0.5 0.0625
v -0.4375 0.5 0.0625
v -0.4375 0.5 0.5
v 0.4375 0.5 0.5
v -0.4375 -0.25 0.5
v 0.4375 -0.25 0.5
vt 0 1
vt 0 0.5
vt 0.5 0.5
vt 0.5 1
vt 0.5 1
vt 0.5 0.5
vt 1 0.5
vt 1 1
vt 0.5 1
vt 0.5 0.5
vt 1 0.5
vt 1 1
vt 0 1
vt 0 0.5
vt 0.5 0.5
vt 0.5 1
vt 1 0
vt 1 0.5
vt 0.5 0.5
vt 0.5 0
vt 0.5 0
vt 0.5 0.5
vt 0 0.5
vt 0 0
vt 0.5 0
vt 0.5 0.5
vt 0 0.5
vt 0 0
vt 1 0
vt 1 0.5
vt 0.5 0.5
vt 0.5 0
vt 0.5 0
vt 0.5 0.5
vt 0 0.5
vt 0 0
vt 1 0
vt 1 0.5
vt 0.5 0.5
vt 0.5 0
vt 0.5 0
vt 0.5 0.5
vt 0 0.5
vt 0 0
vt 1 0
vt 1 0.5
vt 0.5 0.5
vt 0.5 0
vt 0 0.5
vt 1 0.5
vt 1 1
vt 0 1
vt 1 1
vt 0 1
vt 0 0.5
vt 1 0.5
vt 0.25 0.875
vt 0.75 0.875
vt 1 1
vt 0 1
vt 0.25 0.5
vt 0.25 0.875
vt 0 1
vt 0 0.5
vt 0.75 0.875
vt 0.75 0.5
vt 1 0.5
vt 1 1
vt 0.25 0.25
vt 0.25 1
vt 0 1
vt 0 0
vt 0.75 0.25
vt 0.25 0.25
vt 0 0
vt 1 0
vt 0.75 1
vt 0.75 0.25
vt 1 0
vt 1 1
vn 1 0 0
vn -1 0 0
vn 0 -1 0
vn 0 -1 0
vn 0 -1 0
vn 0 -1 0
vn 0 0 -1
vn 1 0 0
vn 1 0 0
vn -1 0 0
vn -1 0 0
vn 0 0 -1
vn 0 0 -1
vn 0 1 0
vn 0 1 0
vn 0 1 0
vn 0 1 0
vn -0.7071067811865476 0 0.7071067811865476
vn 0 -0.24253562503633297 0.9701425001453319
vn 0.7071067811865476 0 0.7071067811865476
usemtl m_3043b577-e65f-e764-e753-da26d84a2fd2
f 605/1345/337 621/1346/337 620/1347/337 613/1348/337
f 617/1349/338 623/1350/338 622/1351/338 608/1352/338
f 612/1353/339 615/1354/339 614/1355/339 606/1356/339
f 609/1357/340 616/1358/340 615/1359/340 612/1360/340
f 607/1361/341 614/1362/341 615/1363/341 611/1364/341
f 611/1365/342 615/1366/342 616/1367/342 610/1368/342
f 611/1369/343 618/1370/343 619/1371/343 607/1372/343
f 607/1373/344 619/1374/344 620/1375/344 614/1376/344
f 614/1377/345 620/1378/345 621/1379/345 606/1380/345
f 609/1381/346 622/1382/346 623/1383/346 616/1384/346
f 616/1385/347 623/1386/347 624/1387/347 610/1388/347
f 610/1389/348 624/1390/348 618/1391/348 611/1392/348
f 620/1393/349 623/1394/349 617/1395/349 613/1396/349
f 619/1397/350 624/1398/350 623/1399/350 620/1400/350
f 626/1401/351 625/1402/351 613/1403/351 617/1404/351
f 627/1405/352 626/1406/352 617/1407/352 608/1408/352
f 625/1409/353 628/1410/353 605/1411/353 613/1412/353
f 629/1413/354 627/1414/354 608/1415/354 609/1416/354
f 630/1417/355 629/1418/355 609/1419/355 606/1420/355
f 628/1421/356 630/1422/356 606/1423/356 605/1424/356
o flame
v 0.515625 0.515625 0.515625
v 0.515625 0.515625 -0.515625
v 0.515625 -0.515625 0.515625
v 0.515625 -0.515625 -0.515625
v -0.515625 0.515625 0.515625
v -0.515625 0.515625 -0.515625
v -0.515625 -0.515625 0.515625
v -0.515625 -0.515625 -0.515625
v 0.4453125 0.515625 0.4453125
v 0.4453125 0.515625 -0.4453125
v -0.4453125 0.515625 0.4453125
v -0.4453125 0.515625 -0.4453125
v -0.515625 0.4453125 0.4453125
v -0.515625 0.4453125 -0.4453125
v -0.515625 -0.4453125 0.4453125
v -0.515625 -0.4453125 -0.4453125
v 0.4453125 0.4453125 0.515625
v -0.4453125 0.4453125 0.515625
v 0.4453125 -0.4453125 0.515625
v -0.4453125 -0.4453125 0.515625
v 0.515625 0.4453125 0.4453125
v 0.515625 -0.4453125 0.4453125
v 0.515625 0.4453125 -0.4453125
v 0.515625 -0.4453125 -0.4453125
v 0.4453125 0.4453125 -0.515625
v 0.4453125 -0.4453125 -0.515625
v -0.4453125 0.4453125 -0.515625
v -0.4453125 -0.4453125 -0.515625
v 0.4453125 -0.515625 0.4453125
v -0.4453125 -0.515625 0.4453125
v 0.4453125 -0.515625 -0.4453125
v -0.4453125 -0.515625 -0.4453125
vt 0.7734375 0.25
vt 0.2578125 0.25
vt 0 -0.0078125
vt 1.03125 -0.0078125
vt 0.75 0.7421875
vt 0.75 0.2265625
vt 1.0078125 -0.03125
vt 1.0078125 1
vt 0.2578125 0.7421875
vt 0.7734375 0.7421875
vt 1.03125 1
vt 0 1
vt 0.2578125 0.2265625
vt 0.2578125 0.7421875
vt 0 1
vt 0 -0.03125
vt 0.75 0.7421875
vt 0.75 0.2265625
vt 1.0078125 -0.03125
vt 1.0078125 1
vt 0.2578125 0.7421875
vt 0.7734375 0.7421875
vt 1.03125 1
vt 0 1
vt 0.2578125 0.2265625
vt 0.2578125 0.7421875
vt 0 1
vt 0 -0.03125
vt 0.7734375 0.25
vt 0.2578125 0.25
vt 0 -0.0078125
vt 1.03125 -0.0078125
vt 0.75 0.7421875
vt 0.75 0.2265625
vt 1.0078125 -0.03125
vt 1.0078125 1
vt 0.2578125 0.7421875
vt 0.7734375 0.7421875
vt 1.03125 1
vt 0 1
vt 0.2578125 0.2265625
vt 0.2578125 0.7421875
vt 0 1
vt 0 -0.03125
vt 0.7734375 0.25
vt 0.2578125 0.25
vt 0 -0.0078125
vt 1.03125 -0.0078125
vt 0.2578125 0.7421875
vt 0.7734375 0.7421875
vt 1.03125 1
vt 0 1
vt 0.2578125 0.2265625
vt 0.2578125 0.7421875
vt 0 1
vt 0 -0.03125
vt 0.7734375 0.25
vt 0.2578125 0.25
vt 0 -0.0078125
vt 1.03125 -0.0078125
vt 0.75 0.7421875
vt 0.75 0.2265625
vt 1.0078125 -0.03125
vt 1.0078125 1
vt 0.2578125 0.7421875
vt 0.7734375 0.7421875
vt 1.03125 1
vt 0 1
vt 0.2578125 0.2265625
vt 0.2578125 0.7421875
vt 0 1
vt 0 -0.03125
vt 0.7734375 0.25
vt 0.2578125 0.25
vt 0 -0.0078125
vt 1.03125 -0.0078125
vt 0.75 0.7421875
vt 0.75 0.2265625
vt 1.0078125 -0.03125
vt 1.0078125 1
vt 0.75 0.7421875
vt 0.75 0.2265625
vt 1.0078125 -0.03125
vt 1.0078125 1
vt 0.2578125 0.7421875
vt 0.7734375 0.7421875
vt 1.03125 1
vt 0 1
vt 0.2578125 0.2265625
vt 0.2578125 0.7421875
vt 0 1
vt 0 -0.03125
vt 0.7734375 0.25
vt 0.2578125 0.25
vt 0 -0.0078125
vt 1.03125 -0.0078125
vn 0 1 0
vn 0 1 0
vn 0 1 0
vn 0 1 0
vn -1 0 0
vn -1 0 0
vn -1 0 0
vn -1 0 0
vn 0 0 1
vn 0 0 1
vn 0 0 1
vn 0 0 1
vn 1 0 0
vn 1 0 0
vn 1 0 0
vn 1 0 0
vn 0 0 -1
vn 0 0 -1
vn 0 0 -1
vn 0 0 -1
vn 0 -1 0
vn 0 -1 0
vn 0 -1 0
vn 0 -1 0
usemtl m_3043b577-e65f-e764-e753-da26d84a2fd2
f 639/1425/357 641/1426/357 635/1427/357 631/1428/357
f 640/1429/358 639/1430/358 631/1431/358 632/1432/358
f 642/1433/359 640/1434/359 632/1435/359 636/1436/359
f 641/1437/360 642/1438/360 636/1439/360 635/1440/360
f 643/1441/361 645/1442/361 637/1443/361 635/1444/361
f 644/1445/362 643/1446/362 635/1447/362 636/1448/362
f 646/1449/363 644/1450/363 636/1451/363 638/1452/363
f 645/1453/364 646/1454/364 638/1455/364 637/1456/364
f 647/1457/365 649/1458/365 633/1459/365 631/1460/365
f 648/1461/366 647/1462/366 631/1463/366 635/1464/366
f 650/1465/367 648/1466/367 635/1467/367 637/1468/367
f 649/1469/368 650/1470/368 637/1471/368 633/1472/368
f 651/1473/369 653/1474/369 632/1475/369 631/1476/369
f 652/1477/370 651/1478/370 631/1479/370 633/1480/370
f 654/1481/371 652/1482/371 633/1483/371 634/1484/371
f 653/1485/372 654/1486/372 634/1487/372 632/1488/372
f 655/1489/373 657/1490/373 636/1491/373 632/1492/373
f 656/1493/374 655/1494/374 632/1495/374 634/1496/374
f 658/1497/375 656/1498/375 634/1499/375 638/1500/375
f 657/1501/376 658/1502/376 638/1503/376 636/1504/376
f 659/1505/377 661/1506/377 634/1507/377 633/1508/377
f 660/1509/378 659/1510/378 633/1511/378 637/1512/378
f 662/1513/379 660/1514/379 637/1515/379 638/1516/379
f 661/1517/380 662/1518/380 638/1519/380 634/1520/380
o cylinder
v 0.32766504294495535 -0.125 -0.0625
v 0.32766504294495535 0.4375 -0.0625
v 0.4375 -0.125 -0.17233495705504465
v 0.4375 0.4375 -0.17233495705504465
v 0.4375 -0.125 -0.3276650429449553
v 0.4375 0.4375 -0.3276650429449553
v 0.32766504294495535 -0.125 -0.4375
v 0.32766504294495535 0.4375 -0.4375
v 0.1723349570550447 -0.125 -0.4375
v 0.1723349570550447 0.4375 -0.4375
v 0.06250000000000006 -0.125 -0.32766504294495546
v 0.06250000000000006 0.4375 -0.32766504294495546
v 0.06250000000000003 -0.125 -0.17233495705504462
v 0.06250000000000003 0.4375 -0.17233495705504462
v 0.17233495705504454 -0.125 -0.06250000000000006
v 0.17233495705504454 0.4375 -0.06250000000000006
v 0.10937500000000003 0.4375 -0.19175121779128346
v 0.1917512177912834 0.4375 -0.10937500000000004
v 0.10937500000000004 0.4375 -0.3082487822087166
v 0.1917512177912835 0.4375 -0.390625
v 0.30824878220871654 0.4375 -0.390625
v 0.390625 0.4375 -0.3082487822087165
v 0.390625 0.4375 -0.19175121779128348
v 0.30824878220871654 0.4375 -0.109375
v 0.10937500000000004 -0.125 -0.3082487822087166
v 0.1917512177912835 -0.125 -0.390625
v 0.30824878220871654 -0.125 -0.390625
v 0.390625 -0.125 -0.3082487822087165
v 0.390625 -0.125 -0.19175121779128348
v 0.30824878220871654 -0.125 -0.109375
v 0.1917512177912834 -0.125 -0.10937500000000004
v 0.10937500000000003 -0.125 -0.19175121779128346
vt 0 0.5
vt 0.10355 0.5
vt 0.10355 1
vt 0 1
vt 0 0.5
vt 0.10355 0.5
vt 0.10355 1
vt 0 1
vt 0 0.5
vt 0.10355 0.5
vt 0.10355 1
vt 0 1
vt 0 0.5
vt 0.10355 0.5
vt 0.10355 1
vt 0 1
vt 0 0.5
vt 0.10355 0.5
vt 0.10355 1
vt 0 1
vt 0 0.5
vt 0.10355 0.5
vt 0.10355 1
vt 0 1
vt 0 0.5
vt 0.10355 0.5
vt 0.10355 1
vt 0 1
vt 0 0.5
vt 0.10355 0.5
vt 0.10355 1
vt 0 1
vt 0.04687234075790328 0.8640852378211807
vt 0.04687234075790325 0.9805810800216644
vt 0 1
vt 0 0.8446663178428452
vt 0.046875 0.8640875
vt 0.046875 0.9805875
vt 0 1
vt 0 0.844675
vt 0.019418919978335503 0.8906276592420967
vt 0.1359147621788192 0.8906276592420967
vt 0.15533368215715476 0.9375
vt 0 0.9375
vt 0.0194125 0.953125
vt 0.1359125 0.953125
vt 0.15532500000000005 1
vt 0 1
vt 0.0625 0.9805810800216644
vt 0.0625 0.8640852378211809
vt 0.10937234075790336 0.8446663178428453
vt 0.10937234075790325 1
vt 0.0625 0.9805875
vt 0.0625 0.8640875
vt 0.109375 0.844675
vt 0.109375 1
vt 0.13591476217881926 0.9375
vt 0.019418919978335558 0.9375
vt 0 0.8906276592420966
vt 0.15533368215715482 0.8906276592420967
vt 0.1359125 0.875
vt 0.0194125 0.875
vt 0 0.828125
vt 0.15532500000000005 0.828125
vt 0.10937234075790334 0.8640852378211807
vt 0.10937234075790328 0.9805810800216644
vt 0.0625 1
vt 0.06250000000000008 0.8446663178428452
vt 0.1359125 0.9375
vt 0.0194125 0.9375
vt 0 0.890625
vt 0.15532500000000005 0.890625
vt 0.1359147621788192 0.9375
vt 0.019418919978335558 0.9375
vt 0 0.8906276592420966
vt 0.15533368215715473 0.8906276592420967
vt 0.0625 0.9805875
vt 0.0625 0.8640875
vt 0.109375 0.844675
vt 0.109375 1
vt 0.06250000000000003 0.9805810800216646
vt 0.0625 0.8640852378211807
vt 0.10937234075790325 0.8446663178428453
vt 0.10937234075790328 1
vt 0.019418919978335572 0.9531276592420967
vt 0.1359147621788193 0.9531276592420967
vt 0.15533368215715482 1
vt 0 1
vt 0.0194125 0.953125
vt 0.1359125 0.953125
vt 0.15532500000000005 1
vt 0 1
vt 0.046875 0.8640875
vt 0.046875 0.9805875
vt 0 1
vt 0 0.844675
vn 0.7071067811865476 0 0.7071067811865476
vn 1 0 0
vn 0.7071067811865478 0 -0.7071067811865474
vn 0 0 -1
vn -0.7071067811865472 0 -0.7071067811865479
vn -1 0 -1.7868769888726187e-16
vn -0.7071067811865477 0 0.7071067811865474
vn -3.573753977745238e-16 0 1
vn 0 1 0
vn 0 1 0
vn 0 1 0
vn 0 1 0
vn 0 1 0
vn 0 1 0
vn 0 1 0
vn 0 1 0
vn 0 -1 0
vn 0 -1 0
vn 0 -1 0
vn 0 -1 0
vn 0 -1 0
vn 0 -1 0
vn 0 -1 0
vn 0 -1 0
usemtl m_3043b577-e65f-e764-e753-da26d84a2fd2
f 663/1521/381 665/1522/381 666/1523/381 664/1524/381
f 665/1525/382 667/1526/382 668/1527/382 666/1528/382
f 667/1529/383 669/1530/383 670/1531/383 668/1532/383
f 669/1533/384 671/1534/384 672/1535/384 670/1536/384
f 671/1537/385 673/1538/385 674/1539/385 672/1540/385
f 673/1541/386 675/1542/386 676/1543/386 674/1544/386
f 675/1545/387 677/1546/387 678/1547/387 676/1548/387
f 677/1549/388 663/1550/388 664/1551/388 678/1552/388
f 680/1553/389 679/1554/389 676/1555/389 678/1556/389
f 679/1557/390 681/1558/390 674/1559/390 676/1560/390
f 681/1561/391 682/1562/391 672/1563/391 674/1564/391
f 682/1565/392 683/1566/392 670/1567/392 672/1568/392
f 683/1569/393 684/1570/393 668/1571/393 670/1572/393
f 684/1573/394 685/1574/394 666/1575/394 668/1576/394
f 685/1577/395 686/1578/395 664/1579/395 666/1580/395
f 686/1581/396 680/1582/396 678/1583/396 664/1584/396
f 688/1585/397 687/1586/397 673/1587/397 671/1588/397
f 689/1589/398 688/1590/398 671/1591/398 669/1592/398
f 690/1593/399 689/1594/399 669/1595/399 667/1596/399
f 691/1597/400 690/1598/400 667/1599/400 665/1600/400
f 692/1601/401 691/1602/401 665/1603/401 663/1604/401
f 694/1605/402 693/1606/402 677/1607/402 675/1608/402
f 693/1609/403 692/1610/403 663/1611/403 677/1612/403
f 687/1613/404 694/1614/404 675/1615/404 673/1616/404
o cylinder_selection
v 0.10937500000000003 0.4375 -0.19175121779128346
v 0.1917512177912834 0.4375 -0.10937500000000004
v 0.25 0.4375 -0.25
v 0.10937500000000004 0.4375 -0.3082487822087166
v 0.1917512177912835 0.4375 -0.390625
v 0.30824878220871654 0.4375 -0.390625
v 0.390625 0.4375 -0.3082487822087165
v 0.390625 0.4375 -0.19175121779128348
v 0.30824878220871654 0.4375 -0.109375
v 0.10937500000000004 -0.125 -0.3082487822087166
v 0.1917512177912835 -0.125 -0.390625
v 0.30824878220871654 -0.125 -0.390625
v 0.390625 -0.125 -0.3082487822087165
v 0.390625 -0.125 -0.19175121779128348
v 0.30824878220871654 -0.125 -0.109375
v 0.1917512177912834 -0.125 -0.10937500000000004
v 0.10937500000000003 -0.125 -0.19175121779128346
v 0.10937500000000004 -0.1875 -0.3082487822087166
v 0.1917512177912835 -0.1875 -0.390625
v 0.25 -0.1875 -0.25
v 0.30824878220871654 -0.1875 -0.390625
v 0.390625 -0.1875 -0.3082487822087165
v 0.390625 -0.1875 -0.19175121779128348
v 0.30824878220871654 -0.1875 -0.109375
v 0.1917512177912834 -0.1875 -0.10937500000000004
v 0.10937500000000003 -0.1875 -0.19175121779128346
vt 0 0.8477881308011757
vt 0.10762845375481755 0.8923683640032026
vt 0 1
vt 0.140625 0.821
vt 0.140625 0.9375
vt 0 0.87925
vt 0.15221186919882435 0.8298715462451824
vt 0.10763163599679759 0.9375
vt 0 0.8298715462451826
vt 0.11650000000000005 1
vt 0 1
vt 0.058249999999999996 0.859375
vt 0.10762845375481755 1
vt 0 0.9554197667979731
vt 0.10762845375481755 0.8477881308011758
vt 0 0.9375
vt 0 0.821
vt 0.140625 0.87925
vt 0 1
vt 0.04458023320202692 0.8923715462451824
vt 0.15221186919882435 1
vt 0 0.859375
vt 0.11650000000000005 0.859375
vt 0.058249999999999996 1
vt 0.15221186919882435 0.8923715462451824
vt 0.10763163599679756 1
vt 0 0.8923715462451826
vt 0.140625 0.8835
vt 0.140625 1
vt 0 0.94175
vt 2.7755575615628914e-17 0.8477881308011757
vt 0.10762845375481753 0.8923683640032026
vt 0 1
vt 0 0.859375
vt 0.11650000000000005 0.859375
vt 0.058249999999999996 1
vt 0 1
vt 0.04458023320202692 0.8923715462451824
vt 0.15221186919882432 1
vt 0 1
vt 0 0.8835
vt 0.140625 0.94175
vt 0.10762845375481754 1
vt 0 0.9554197667979731
vt 0.10762845375481757 0.8477881308011757
vt 0.11650000000000005 1
vt 0 1
vt 0.058249999999999996 0.859375
vt 0 0.9375
vt 0.11649375000000001 0.9375
vt 0.11649375000000001 1
vt 0 1
vt 0 0.875
vt 0.11650000000000002 0.875
vt 0.11650000000000002 0.9375
vt 0 0.9375
vt 0 0.875
vt 0.1165 0.875
vt 0.1165 0.9375
vt 0 0.9375
vt 0 0.9375
vt 0.11650000000000005 0.9375
vt 0.11650000000000005 1
vt 0 1
vt 0 0.9375
vt 0.11649375000000001 0.9375
vt 0.11649375000000001 1
vt 0 1
vt 0 0.9375
vt 0.1165 0.9375
vt 0.1165 1
vt 0 1
vt 0 0.9375
vt 0.11650000000000005 0.9375
vt 0.11650000000000005 1
vt 0 1
vt 0 0.9375
vt 0.11650000000000002 0.9375
vt 0.11650000000000002 1
vt 0 1
vn 0 1 0
vn 0 1 0
vn 0 1 0
vn 0 1 0
vn 0 1 0
vn 0 1 0
vn 0 1 0
vn 0 1 0
vn 0 -1 0
vn 0 -1 0
vn 0 -1 0
vn 0 -1 0
vn 0 -1 0
vn 0 -1 0
vn 0 -1 0
vn 0 -1 0
vn -0.7071067811865472 0 -0.7071067811865478
vn 0 0 -1
vn 0.7071067811865478 0 -0.7071067811865472
vn 1 0 0
vn 0.7071067811865477 0 0.7071067811865475
vn -0.7071067811865477 0 0.7071067811865474
vn -3.5737539777452373e-16 0 1
vn -1 0 -1.191251325915079e-16
usemtl m_515e4599-380f-89a9-7e28-2ea0860217bc
f 703/1617/405 702/1618/405 697/1619/405
f 702/1620/406 701/1621/406 697/1622/406
f 701/1623/407 700/1624/407 697/1625/407
f 700/1626/408 699/1627/408 697/1628/408
f 699/1629/409 698/1630/409 697/1631/409
f 698/1632/410 695/1633/410 697/1634/410
f 695/1635/411 696/1636/411 697/1637/411
f 696/1638/412 703/1639/412 697/1640/412
f 717/1641/413 718/1642/413 714/1643/413
f 716/1644/414 717/1645/414 714/1646/414
f 715/1647/415 716/1648/415 714/1649/415
f 713/1650/416 715/1651/416 714/1652/416
f 712/1653/417 713/1654/417 714/1655/417
f 720/1656/418 712/1657/418 714/1658/418
f 719/1659/419 720/1660/419 714/1661/419
f 718/1662/420 719/1663/420 714/1664/420
f 713/1665/421 712/1666/421 704/1667/421 705/1668/421
f 715/1669/422 713/1670/422 705/1671/422 706/1672/422
f 716/1673/423 715/1674/423 706/1675/423 707/1676/423
f 717/1677/424 716/1678/424 707/1679/424 708/1680/424
f 718/1681/425 717/1682/425 708/1683/425 709/1684/425
f 720/1685/426 719/1686/426 710/1687/426 711/1688/426
f 719/1689/427 718/1690/427 709/1691/427 710/1692/427
f 712/1693/428 720/1694/428 711/1695/428 704/1696/428
o cuboid_selection
v 0.4375 0.5 0.0625
v -0.4375 0.5 0.0625
v -0.4375 0.5 0.5
v 0.4375 0.5 0.5
v -0.4375 -0.25 0.5
v 0.4375 -0.25 0.5
vt 0.75 0.9375
vt 0.25 0.9375
vt 0.25 0.5625
vt 0.75 0.5625
vt 0.75 0.875
vt 0.25 0.875
vt 0.25 0.125
vt 0.75 0.125
vn 0 1 0
vn 0 0 1
usemtl m_515e4599-380f-89a9-7e28-2ea0860217bc
f 721/1697/429 722/1698/429 723/1699/429 724/1700/429
f 724/1701/430 723/1702/430 725/1703/430 726/1704/430
o cuboid
v 0.40312500000000007 0.25 0.53125
v 0.40312500000000007 0.25 0.46875
v 0.40312500000000007 -0.21875 0.53125
v 0.40312500000000007 -0.21875 0.46875
v 0.03125 0.25 0.53125
v 0.03125 0.25 0.46875
v 0.03125 -0.21875 0.53125
v 0.03125 -0.21875 0.46875
v 0.3609375 0.1953125 0.515625
v 0.07343750000000002 0.1953125 0.515625
v 0.3609375 -0.1640625 0.515625
v 0.07343750000000002 -0.1640625 0.515625
vt 0.25 1
vt 0 1
vt 0 0.75
vt 0.25 0.75
vt 0.25 0.75
vt 0.25 1
vt 0 1
vt 0 0.75
vt 0 0.75
vt 0.25 0.75
vt 0.25 1
vt 0 1
vt 0.25 0.75
vt 0.25 1
vt 0 1
vt 0 0.75
vt 0.20937500000000003 0.765625
vt 0.20937500000000003 1
vt 0 1
vt 0 0.765625
vt 0.25 1
vt 0 1
vt 0 0.75
vt 0.25 0.75
vt 0.1875 0.8828125
vt 0.1875 0.6484375
vt 0.2921875 0.53125
vt 0.2921875 1
vt 0.1046875 0.8828125
vt 0.3140625 0.8828125
vt 0.41875 1
vt 0 1
vt 0.1046875 0.6484375
vt 0.1046875 0.8828125
vt 0 1
vt 0 0.53125
vt 0.3140625 0.875
vt 0.1046875 0.875
vt 0 0.7578125
vt 0.41875 0.7578125
vn 1 0 0
vn -1 0 0
vn 0 1 0
vn 0 -1 0
vn 0 0 1
vn 0 0 -1
vn -0.34731435582359366 0 0.937748760723704
vn 0 -0.27472112789737807 0.9615239476408232
vn 0.3473143558235939 0 0.9377487607237038
vn 0 0.27472112789737807 0.9615239476408232
usemtl m_3043b577-e65f-e764-e753-da26d84a2fd2
f 728/1705/431 727/1706/431 729/1707/431 730/1708/431
f 733/1709/432 731/1710/432 732/1711/432 734/1712/432
f 731/1713/433 727/1714/433 728/1715/433 732/1716/433
f 730/1717/434 729/1718/434 733/1719/434 734/1720/434
f 737/1721/435 735/1722/435 736/1723/435 738/1724/435
f 732/1725/436 728/1726/436 730/1727/436 734/1728/436
f 735/1729/437 737/1730/437 729/1731/437 727/1732/437
f 736/1733/438 735/1734/438 727/1735/438 731/1736/438
f 738/1737/439 736/1738/439 731/1739/439 733/1740/439
f 737/1741/440 738/1742/440 733/1743/440 729/1744/440
o cuboid_selection
v -0.109375 0.125 0.53125
v -0.203125 0.296875 0.53125
v -0.203125 0.0625 0.53125
v -0.296875 0.125 0.53125
vt 0.625 0.5625
vt 0.625 0.875
vt 0.4375 0.875
vt 0.4375 0.5625
vn 0 0 1
usemtl m_13876f7e-2b86-b3c3-be11-c38f3296216a
f 741/1745/441 739/1746/441 740/1747/441 742/1748/441
o cuboid_selection
v -0.28125 0.06249999999999997 0.53125
v -0.203125 -0.04687500000000002 0.53125
v -0.203125 -1.9135106236677395e-17 0.53125
v -0.125 0.06249999999999999 0.53125
vt 0.625 0.5625
vt 0.625 0.875
vt 0.4375 0.875
vt 0.4375 0.5625
vn 0 0 1
usemtl m_13876f7e-2b86-b3c3-be11-c38f3296216a
f 745/1749/442 743/1750/442 744/1751/442 746/1752/442
o cuboid
v 0.40625 0.40625 0.53125
v 0.40625 0.40625 0.46875
v 0.40625 0.28125 0.53125
v 0.40625 0.28125 0.46875
v 0.03125 0.40625 0.53125
v 0.03125 0.40625 0.46875
v 0.03125 0.28125 0.53125
v 0.03125 0.28125 0.46875
vt 0.25 1
vt 0 1
vt 0 0.75
vt 0.25 0.75
vt 0.25 0.75
vt 0.25 1
vt 0 1
vt 0 0.75
vt 0 0.75
vt 0.25 0.75
vt 0.25 1
vt 0 1
vt 0.25 0.75
vt 0.25 1
vt 0 1
vt 0 0.75
vt 0.25 0.75
vt 0.25 1
vt 0 1
vt 0 0.75
vt 0.25 1
vt 0 1
vt 0 0.75
vt 0.25 0.75
vn 1 0 0
vn -1 0 0
vn 0 1 0
vn 0 -1 0
vn 0 0 1
vn 0 0 -1
usemtl m_3043b577-e65f-e764-e753-da26d84a2fd2
f 748/1753/443 747/1754/443 749/1755/443 750/1756/443
f 753/1757/444 751/1758/444 752/1759/444 754/1760/444
f 751/1761/445 747/1762/445 748/1763/445 752/1764/445
f 750/1765/446 749/1766/446 753/1767/446 754/1768/446
f 749/1769/447 747/1770/447 751/1771/447 753/1772/447
f 752/1773/448 748/1774/448 750/1775/448 754/1776/448