# Made in Blockbench 4.7.4
mtllib MlogicGate.mtl

o tube
v 0.4999999999999999 0.4375 0.5
v 0.4999999999999999 0.5 0.5
v 0.3321067811865474 0.4375 0.33210678118654746
v 0.3321067811865474 0.5 0.33210678118654746
v 0.5 0.4375 -0.4999999999999999
v 0.5 0.5 -0.4999999999999999
v 0.33210678118654746 0.4375 -0.3321067811865474
v 0.33210678118654746 0.5 -0.3321067811865474
v -0.4999999999999999 0.4375 -0.5000000000000001
v -0.4999999999999999 0.5 -0.5000000000000001
v -0.3321067811865474 0.4375 -0.3321067811865475
v -0.3321067811865474 0.5 -0.3321067811865475
v -0.5000000000000001 0.4375 0.49999999999999983
v -0.5000000000000001 0.5 0.49999999999999983
v -0.3321067811865475 0.4375 0.33210678118654735
v -0.3321067811865475 0.5 0.33210678118654735
v -0.2905934335382291 0.375 0.2905934335382289
v 0.290593433538229 0.375 0.29059343353822903
v 0.4374999999999999 0.375 0.43749999999999994
v -0.43750000000000006 0.375 0.43749999999999983
v 0.29059343353822903 0.375 -0.290593433538229
v 0.43749999999999994 0.375 -0.4374999999999999
v -0.290593433538229 0.375 -0.2905934335382291
v -0.4374999999999999 0.375 -0.43750000000000006
vt 0 0
vt 1 0
vt 1 1
vt 0 1
vt 0.6642125 1
vt 0 1
vt 0 0
vt 0.6642125 0
vt 0 0.83210625
vt 0 0.16789374999999995
vt 0.16789375 0
vt 0.16789375 1
vt 0.16789375 0
vt 0.16789375 1
vt 0 0.83210625
vt 0 0.16789374999999995
vt 0 0
vt 1 0
vt 1 1
vt 0 1
vt 0.6642125 1
vt 0 1
vt 0 0
vt 0.6642125 0
vt 0.83210625 1
vt 0.16789375 1
vt 0 0.83210625
vt 1 0.83210625
vt 1 1
vt 0 1
vt 0.16789375 0.83210625
vt 0.83210625 0.83210625
vt 0 0
vt 1 0
vt 1 1
vt 0 1
vt 0.6642125 1
vt 0 1
vt 0 0
vt 0.6642125 0
vt 0.16789375 0.16789374999999995
vt 0.16789375 0.83210625
vt 0 1
vt 0 0
vt 0 1
vt 0 0
vt 0.16789375 0.16789374999999995
vt 0.16789375 0.83210625
vt 0 0
vt 1 0
vt 1 1
vt 0 1
vt 0.6642125 1
vt 0 1
vt 0 0
vt 0.6642125 0
vt 0.16789375 0.83210625
vt 0.83210625 0.83210625
vt 1 1
vt 0 1
vt 0 0.83210625
vt 1 0.83210625
vt 0.83210625 1
vt 0.16789375 1
vt 0 0.875
vt 0.6642125 0.875
vt 0.6642125 0.9375
vt 0 0.9375
vt 0 0.9375
vt 1 0.9375
vt 1 1
vt 0 1
vt 0 0.6875
vt 0.6642125 0.6875
vt 0.6642125 0.75
vt 0 0.75
vt 0 0.6875
vt 1 0.6875
vt 1 0.75
vt 0 0.75
vt 0 0.9375
vt 0.6642125 0.9375
vt 0.6642125 1
vt 0 1
vt 0 0.875
vt 1 0.875
vt 1 0.9375
vt 0 0.9375
vt 0 0.6875
vt 0.6642125 0.6875
vt 0.6642125 0.75
vt 0 0.75
vt 0 0.6875
vt 1 0.6875
vt 1 0.75
vt 0 0.75
vn 1 0 1.1102230246251568e-16
vn -1 0 -8.357425137922236e-17
vn 0 -1 0
vn 0 1 0
vn 2.2204460492503136e-16 0 -1
vn -1.6714850275844472e-16 0 1
vn 0 -1 0
vn 0 1 0
vn -1 0 -2.220446049250313e-16
vn 1 0 1.6714850275844472e-16
vn 0 -1 0
vn 0 1 0
vn -1.6653345369377348e-16 0 1
vn 1.6714850275844472e-16 0 -1
vn 0 -1 0
vn 0 1 0
vn 1.5912388597910492e-16 0.5532847213287718 -0.8329922071329019
vn -8.971956906764426e-17 -0.7071067811865478 0.7071067811865472
vn -0.8329922071329019 0.5532847213287718 -7.956194298955247e-17
vn 0.7071067811865472 -0.7071067811865478 4.4859784533822135e-17
vn -1.5912388597910494e-16 0.5532847213287718 0.8329922071329019
vn 1.3457935360146642e-16 -0.7071067811865478 -0.7071067811865472
vn 0.8329922071329019 0.5532847213287718 1.5912388597910494e-16
vn -0.7071067811865472 -0.7071067811865478 -1.3457935360146642e-16
usemtl m_4569ab1b-bdf9-822c-7834-45bea2c7044e
f 1/1/1 5/2/1 6/3/1 2/4/1
f 4/5/2 8/6/2 7/7/2 3/8/2
f 18/9/3 21/10/3 22/11/3 19/12/3
f 2/13/4 6/14/4 8/15/4 4/16/4
f 5/17/5 9/18/5 10/19/5 6/20/5
f 8/21/6 12/22/6 11/23/6 7/24/6
f 21/25/7 23/26/7 24/27/7 22/28/7
f 6/29/8 10/30/8 12/31/8 8/32/8
f 9/33/9 13/34/9 14/35/9 10/36/9
f 12/37/10 16/38/10 15/39/10 11/40/10
f 23/41/11 17/42/11 20/43/11 24/44/11
f 10/45/12 14/46/12 16/47/12 12/48/12
f 13/49/13 1/50/13 2/51/13 14/52/13
f 16/53/14 4/54/14 3/55/14 15/56/14
f 17/57/15 18/58/15 19/59/15 20/60/15
f 14/61/16 2/62/16 4/63/16 16/64/16
f 18/65/17 17/66/17 15/67/17 3/68/17
f 20/69/18 19/70/18 1/71/18 13/72/18
f 21/73/19 18/74/19 3/75/19 7/76/19
f 19/77/20 22/78/20 5/79/20 1/80/20
f 23/81/21 21/82/21 7/83/21 11/84/21
f 22/85/22 24/86/22 9/87/22 5/88/22
f 17/89/23 23/90/23 11/91/23 15/92/23
f 24/93/24 20/94/24 13/95/24 9/96/24
o tube
v 0.4999999999999999 -0.5 0.5
v 0.4999999999999999 -0.4375 0.5
v 0.3321067811865474 -0.5 0.33210678118654746
v 0.3321067811865474 -0.4375 0.33210678118654746
v 0.5 -0.5 -0.4999999999999999
v 0.5 -0.4375 -0.4999999999999999
v 0.33210678118654746 -0.5 -0.3321067811865474
v 0.33210678118654746 -0.4375 -0.3321067811865474
v -0.4999999999999999 -0.5 -0.5000000000000001
v -0.4999999999999999 -0.4375 -0.5000000000000001
v -0.3321067811865474 -0.5 -0.3321067811865475
v -0.3321067811865474 -0.4375 -0.3321067811865475
v -0.5000000000000001 -0.5 0.49999999999999983
v -0.5000000000000001 -0.4375 0.49999999999999983
v -0.3321067811865475 -0.5 0.33210678118654735
v -0.3321067811865475 -0.4375 0.33210678118654735
v -0.43750000000000006 -0.375 0.43749999999999983
v 0.4374999999999999 -0.375 0.43749999999999994
v 0.290593433538229 -0.375 0.29059343353822903
v -0.2905934335382291 -0.375 0.2905934335382289
v -0.4374999999999999 -0.375 -0.43750000000000006
v -0.290593433538229 -0.375 -0.2905934335382291
v 0.43749999999999994 -0.375 -0.4374999999999999
v 0.29059343353822903 -0.375 -0.290593433538229
vt 0 0
vt 1 0
vt 1 1
vt 0 1
vt 0.6642125 1
vt 0 1
vt 0 0
vt 0.6642125 0
vt 0 0.83210625
vt 0 0.16789374999999995
vt 0.16789375 0
vt 0.16789375 1
vt 0.16789375 0
vt 0.16789375 1
vt 0 0.83210625
vt 0 0.16789374999999995
vt 0 0
vt 1 0
vt 1 1
vt 0 1
vt 0.6642125 1
vt 0 1
vt 0 0
vt 0.6642125 0
vt 0.83210625 1
vt 0.16789375 1
vt 0 0.83210625
vt 1 0.83210625
vt 1 1
vt 0 1
vt 0.16789375 0.83210625
vt 0.83210625 0.83210625
vt 0 0
vt 1 0
vt 1 1
vt 0 1
vt 0.6642125 1
vt 0 1
vt 0 0
vt 0.6642125 0
vt 0.16789375 0.16789374999999995
vt 0.16789375 0.83210625
vt 0 1
vt 0 0
vt 0 1
vt 0 0
vt 0.16789375 0.16789374999999995
vt 0.16789375 0.83210625
vt 0 0
vt 1 0
vt 1 1
vt 0 1
vt 0.6642125 1
vt 0 1
vt 0 0
vt 0.6642125 0
vt 0.16789375 0.83210625
vt 0.83210625 0.83210625
vt 1 1
vt 0 1
vt 0 0.83210625
vt 1 0.83210625
vt 0.83210625 1
vt 0.16789375 1
vt 1 0.9375
vt 0 0.9375
vt 0 0.875
vt 1 0.875
vt 0.6642125 1
vt 0 1
vt 0 0.9375
vt 0.6642125 0.9375
vt 1 0.75
vt 0 0.75
vt 0 0.6875
vt 1 0.6875
vt 0.6642125 0.75
vt 0 0.75
vt 0 0.6875
vt 0.6642125 0.6875
vt 1 1
vt 0 1
vt 0 0.9375
vt 1 0.9375
vt 0.6642125 0.9375
vt 0 0.9375
vt 0 0.875
vt 0.6642125 0.875
vt 1 0.75
vt 0 0.75
vt 0 0.6875
vt 1 0.6875
vt 0.6642125 0.75
vt 0 0.75
vt 0 0.6875
vt 0.6642125 0.6875
vn 1 0 1.1102230246251568e-16
vn -1 0 -8.357425137922236e-17
vn 0 -1 0
vn 0 1 0
vn 2.2204460492503136e-16 0 -1
vn -1.6714850275844472e-16 0 1
vn 0 -1 0
vn 0 1 0
vn -1 0 -2.220446049250313e-16
vn 1 0 1.6714850275844472e-16
vn 0 -1 0
vn 0 1 0
vn -1.6653345369377348e-16 0 1
vn 1.6714850275844472e-16 0 -1
vn 0 -1 0
vn 0 1 0
vn -8.971956906764428e-17 0.7071067811865476 0.7071067811865476
vn 1.5912388597910494e-16 -0.5532847213287717 -0.832992207132902
vn -0.7071067811865475 0.7071067811865476 -1.3457935360146644e-16
vn 0.832992207132902 -0.5532847213287717 1.5912388597910497e-16
vn 1.3457935360146647e-16 0.7071067811865476 -0.7071067811865475
vn -1.5912388597910497e-16 -0.5532847213287717 0.832992207132902
vn 0.7071067811865476 0.7071067811865476 4.4859784533822166e-17
vn -0.832992207132902 -0.5532847213287717 -7.956194298955248e-17
usemtl m_4569ab1b-bdf9-822c-7834-45bea2c7044e
f 25/97/25 29/98/25 30/99/25 26/100/25
f 28/101/26 32/102/26 31/103/26 27/104/26
f 27/105/27 31/106/27 29/107/27 25/108/27
f 42/109/28 47/110/28 48/111/28 43/112/28
f 29/113/29 33/114/29 34/115/29 30/116/29
f 32/117/30 36/118/30 35/119/30 31/120/30
f 31/121/31 35/122/31 33/123/31 29/124/31
f 47/125/32 45/126/32 46/127/32 48/128/32
f 33/129/33 37/130/33 38/131/33 34/132/33
f 36/133/34 40/134/34 39/135/34 35/136/34
f 35/137/35 39/138/35 37/139/35 33/140/35
f 45/141/36 41/142/36 44/143/36 46/144/36
f 37/145/37 25/146/37 26/147/37 38/148/37
f 40/149/38 28/150/38 27/151/38 39/152/38
f 39/153/39 27/154/39 25/155/39 37/156/39
f 41/157/40 42/158/40 43/159/40 44/160/40
f 42/161/41 41/162/41 38/163/41 26/164/41
f 44/165/42 43/166/42 28/167/42 40/168/42
f 41/169/43 45/170/43 34/171/43 38/172/43
f 46/173/44 44/174/44 40/175/44 36/176/44
f 45/177/45 47/178/45 30/179/45 34/180/45
f 48/181/46 46/182/46 36/183/46 32/184/46
f 47/185/47 42/186/47 26/187/47 30/188/47
f 43/189/48 48/190/48 32/191/48 28/192/48
o tube
v 0.1812184335382291 0.43749999999999983 0.5000000000000001
v 0.1812184335382291 0.43750000000000006 -0.4999999999999999
v 0.12819250643414884 0.3094840876279223 0.5000000000000001
v 0.12819250643414884 0.3094840876279225 -0.49999999999999994
v 0.4375 0.181218433538229 0.5
v 0.4375 0.18121843353822922 -0.49999999999999994
v 0.30948408762792246 0.12819250643414873 0.5
v 0.30948408762792246 0.12819250643414895 -0.49999999999999994
v 0.4375 -0.1812184335382292 0.49999999999999994
v 0.4375 -0.18121843353822897 -0.5
v 0.30948408762792246 -0.12819250643414898 0.49999999999999994
v 0.30948408762792246 -0.12819250643414876 -0.5
v 0.18121843353822917 -0.4375000000000001 0.4999999999999999
v 0.18121843353822917 -0.4374999999999999 -0.5000000000000001
v 0.1281925064341489 -0.30948408762792257 0.49999999999999994
v 0.1281925064341489 -0.30948408762792234 -0.5000000000000001
v -0.18121843353822906 -0.43750000000000017 0.4999999999999999
v -0.18121843353822906 -0.43749999999999994 -0.5000000000000001
v -0.1281925064341488 -0.30948408762792257 0.49999999999999994
v -0.1281925064341488 -0.30948408762792234 -0.5000000000000001
v -0.4374999999999999 -0.18121843353822947 0.49999999999999994
v -0.4374999999999999 -0.18121843353822925 -0.5
v -0.30948408762792223 -0.12819250643414914 0.49999999999999994
v -0.30948408762792223 -0.12819250643414892 -0.5
v -0.4375 0.18121843353822908 0.5
v -0.4375 0.1812184335382293 -0.49999999999999994
v -0.30948408762792246 0.1281925064341488 0.5
v -0.30948408762792246 0.12819250643414903 -0.49999999999999994
v -0.1812184335382294 0.4374999999999998 0.5000000000000001
v -0.1812184335382294 0.4375 -0.4999999999999999
v -0.12819250643414903 0.3094840876279222 0.5000000000000001
v -0.12819250643414903 0.3094840876279224 -0.49999999999999994
v 0.24528882515367184 0.3734296083845572 0.25000000000000006
v 0.4375 0.18121843353822906 0.25000000000000006
v 0.4375 0.18121843353822917 -0.24999999999999997
v 0.24528882515367184 0.3734296083845573 -0.24999999999999992
v 0.4375 -0.18121843353822914 0.24999999999999997
v 0.4375 -0.18121843353822903 -0.25000000000000006
v 0.2452888251536719 -0.37342960838455735 0.24999999999999992
v 0.2452888251536719 -0.37342960838455724 -0.25000000000000006
v -0.4375 0.18121843353822914 0.25000000000000006
v -0.24528882515367206 0.37342960838455713 0.25000000000000006
v -0.24528882515367206 0.37342960838455724 -0.24999999999999992
v -0.4375 0.18121843353822925 -0.24999999999999997
v -0.4374999999999999 -0.18121843353822942 0.24999999999999997
v -0.4374999999999999 -0.1812184335382293 -0.25000000000000006
v -0.24528882515367173 -0.37342960838455747 0.24999999999999992
v -0.24528882515367173 -0.37342960838455735 -0.25000000000000006
v 0.1281925064341489 -0.18448408762792234 -0.43750000000000006
v -0.1281925064341488 -0.18448408762792234 -0.43750000000000006
v -0.1281925064341488 -0.18448408762792257 0.43749999999999994
v 0.1281925064341489 -0.18448408762792257 0.43749999999999994
v -0.128192506434149 0.1844840876279224 -0.43749999999999994
v 0.12819250643414887 0.1844840876279225 -0.43749999999999994
v 0.12819250643414887 0.1844840876279223 0.43750000000000006
v -0.128192506434149 0.18448408762792223 0.43750000000000006
vt 0.3447875 1
vt 0 1
vt 0 0
vt 0.3447875 0
vt 0 0.965285476461123
vt 5.551115123125783e-17 0.6205002099545623
vt 0.08380541182275314 0.5857856864156853
vt 0.08380541182275314 1
vt 0 0.9161945881772469
vt 0.4142143135843147 0.9161945881772469
vt 0.37949979004543766 1
vt 0.03471452353887708 1
vt 0.3447875 1
vt 0 1
vt 0 0
vt 0.3447875 0
vt 0 0.9652875000000001
vt 0 0.6205
vt 0.08380625000000003 0.5857875
vt 0.08380625000000003 1
vt 0.08380625000000003 0.5857875
vt 0.08380625000000003 1
vt 0 0.9652875000000001
vt 0 0.6205
vt 0.3447875 1
vt 0 1
vt 0 0
vt 0.3447875 0
vt 0.37949979004543766 1
vt 0.03471452353887708 1
vt 0 0.9161945881772469
vt 0.4142143135843147 0.9161945881772469
vt 0.08380541182275314 0.5857856864156853
vt 0.08380541182275314 1
vt 0 0.965285476461123
vt 5.551115123125783e-17 0.6205002099545623
vt 0 0
vt 0.4142125 0
vt 0.4142125 1
vt 0 1
vt 0.3447875 1
vt 0 1
vt 0 0
vt 0.3447875 0
vt 0.3795 1
vt 0.03471249999999998 1
vt 0 0.9161937499999999
vt 0.4142125 0.9161937499999999
vt 0.4142125 1
vt 0 1
vt 0.03471249999999998 0.9161937499999999
vt 0.3795 0.9161937499999999
vt 0.3447875 1
vt 0 1
vt 0 0
vt 0.3447875 0
vt 0.08380541182275314 0.6205002099545623
vt 0.08380541182275308 0.965285476461123
vt 0 1
vt 0 0.5857856864156853
vt 0.4142143135843147 1
vt 0 1
vt 0.03471452353887711 0.9161945881772469
vt 0.37949979004543766 0.9161945881772469
vt 0.3447875 1
vt 0 1
vt 0 0
vt 0.3447875 0
vt 0.08380625000000003 0.6205
vt 0.08380625000000003 0.9652875000000001
vt 0 1
vt 0 0.5857875
vt 0 1
vt 0 0.5857875
vt 0.08380625000000003 0.6205
vt 0.08380625000000003 0.9652875000000001
vt 0.3447875 1
vt 0 1
vt 0 0
vt 0.3447875 0
vt 0.03471452353887711 0.9161945881772469
vt 0.37949979004543766 0.9161945881772469
vt 0.4142143135843147 1
vt 0 1
vt 0 1
vt 0 0.5857856864156853
vt 0.08380541182275314 0.6205002099545623
vt 0.08380541182275308 0.965285476461123
vt 0 0
vt 0.4142125 0
vt 0.4142125 1
vt 0 1
vt 0.3447875 1
vt 0 1
vt 0 0
vt 0.3447875 0
vt 0.03471249999999998 0.9161937499999999
vt 0.3795 0.9161937499999999
vt 0.4142125 1
vt 0 1
vt 0 0.9161937499999999
vt 0.4142125 0.9161937499999999
vt 0.3795 1
vt 0.03471249999999998 1
vt 0.4249375 0.25
vt 0.1531125 0.25
vt 0.0625 0
vt 0.4249375 0
vt 0.1531125 0.75
vt 0.4249375 0.75
vt 0.4249375 1
vt 0.0625 1
vt 0.09061250000000001 0.25
vt 0.09061250000000001 0.75
vt 0 1
vt 0 0
vt 0.4249375 0.25
vt 0.0625 0.25
vt 0.0625 0
vt 0.4249375 0
vt 0.0625 0.75
vt 0.4249375 0.75
vt 0.4249375 1
vt 0.0625 1
vt 0.396825 0.25
vt 0.125 0.25
vt 0.125 0
vt 0.4874375 0
vt 0.3125 0.75
vt 0.3125 0.25
vt 0.4031125 0
vt 0.4031125 1
vt 0.125 0.75
vt 0.396825 0.75
vt 0.4874375 1
vt 0.125 1
vt 0.396825 0.25
vt 0.125 0.25
vt 0.125 0
vt 0.4874375 0
vt 0.3125 0.75
vt 0.3125 0.25
vt 0.4031125 0
vt 0.4031125 1
vt 0.125 0.75
vt 0.396825 0.75
vt 0.4874375 1
vt 0.125 1
vt 0.4249375 0.25
vt 0.0625 0.25
vt 0.0625 0
vt 0.4249375 0
vt 0.0625 0.75
vt 0.4249375 0.75
vt 0.4249375 1
vt 0.0625 1
vt 0.4249375 0.25
vt 0.1531125 0.25
vt 0.0625 0
vt 0.4249375 0
vt 0.1531125 0.75
vt 0.4249375 0.75
vt 0.4249375 1
vt 0.0625 1
vt 0.09061250000000001 0.25
vt 0.09061250000000001 0.75
vt 0 1
vt 0 0
vt 0 0.9375
vt 0.2563875 0.9375
vt 0.2563875 1
vt 0 1
vt 0.06249999999999997 0
vt 0.06249999999999997 1
vt 0 1
vt 0 0
vt 0.2563875 0.5625
vt 0 0.5625
vt 0 0.5
vt 0.2563875 0.5
vt 0.0625 1
vt 0.0625 0
vt 0.12499999999999997 0
vt 0.12499999999999997 1
vt 0.2563875 1
vt 0 1
vt 0 0.9375
vt 0.2563875 0.9375
vt 0.06249999999999997 0
vt 0.06249999999999997 1
vt 0 1
vt 0 0
vt 0 0.4375
vt 0.2563875 0.4375
vt 0.2563875 0.5
vt 0 0.5
vt 0.0625 1
vt 0.0625 0
vt 0.12499999999999997 0
vt 0.12499999999999997 1
vn -0.7071067811865475 -0.7071067811865477 -1.5700924586837754e-16
vn 0 -2.220446049250313e-16 1
vn 0 2.220446049250313e-16 -1
vn -1 0 0
vn 0 -2.220446049250313e-16 1
vn 0 2.220446049250313e-16 -1
vn -0.7071067811865476 0.7071067811865475 1.570092458683775e-16
vn 0 -2.220446049250313e-16 1
vn 0 2.220446049250313e-16 -1
vn 1.5316088476051036e-16 -1 -2.220446049250313e-16
vn 0 1 2.220446049250313e-16
vn 0 -2.220446049250313e-16 1
vn 0 2.220446049250313e-16 -1
vn 0.7071067811865476 0.7071067811865476 1.5700924586837752e-16
vn 0 -2.220446049250313e-16 1
vn 0 2.220446049250313e-16 -1
vn 1 8.660592225766842e-16 1.923037779187196e-31
vn 0 -2.220446049250313e-16 1
vn 0 2.220446049250313e-16 -1
vn 0.7071067811865475 -0.7071067811865477 -1.5700924586837754e-16
vn 0 -2.220446049250313e-16 1
vn 0 2.220446049250313e-16 -1
vn -1.5316088476051023e-16 1 2.220446049250313e-16
vn 3.2477220846625674e-16 -1 -2.220446049250313e-16
vn 0 -2.220446049250313e-16 1
vn 0 2.220446049250313e-16 -1
vn 0.7071067811865475 0.7071067811865476 3.6122375888239136e-16
vn 0.7071067811865475 0.7071067811865476 1.5700924586837752e-16
vn 0.7071067811865474 0.7071067811865477 1.5700924586837754e-16
vn 1 0 0
vn 1 0 0
vn 0.7071067811865478 -0.7071067811865474 -1.5700924586837747e-16
vn 0.7071067811865474 -0.7071067811865477 -1.5700924586837754e-16
vn 0.7071067811865478 -0.7071067811865474 -2.5911650237538443e-16
vn -0.7071067811865477 0.7071067811865475 1.570092458683775e-16
vn -0.7071067811865477 0.7071067811865474 1.5700924586837747e-16
vn -0.7071067811865477 0.7071067811865475 2.5911650237538453e-16
vn -1 -3.063217695210204e-16 -6.801709629323147e-32
vn -1 -3.063217695210204e-16 -6.801709629323147e-32
vn -0.7071067811865474 -0.7071067811865477 -2.5911650237538453e-16
vn -0.7071067811865474 -0.7071067811865477 -1.5700924586837754e-16
vn -0.7071067811865474 -0.7071067811865477 -1.5700924586837754e-16
vn 0 0.4472135954999582 -0.8944271909999159
vn -1 0 0
vn 0 0.44721359549995776 0.8944271909999161
vn 1 0 0
vn 1.452425470666566e-16 -0.44721359549995787 -0.8944271909999161
vn 1 2.220446049250313e-16 4.930380657631324e-32
vn 1.4524254706665657e-16 -0.44721359549995826 0.894427190999916
vn -1 -2.2204460492503136e-16 -4.930380657631325e-32
usemtl m_ba20216c-d936-2ad9-12ed-eb081b4ca282
f 52/193/49 56/194/49 55/195/49 51/196/49
f 51/197/50 55/198/50 53/199/50 49/200/50
f 50/201/51 54/202/51 56/203/51 52/204/51
f 56/205/52 60/206/52 59/207/52 55/208/52
f 55/209/53 59/210/53 57/211/53 53/212/53
f 54/213/54 58/214/54 60/215/54 56/216/54
f 60/217/55 64/218/55 63/219/55 59/220/55
f 59/221/56 63/222/56 61/223/56 57/224/56
f 58/225/57 62/226/57 64/227/57 60/228/57
f 61/229/58 65/230/58 66/231/58 62/232/58
f 97/233/59 98/234/59 99/235/59 100/236/59
f 63/237/60 67/238/60 65/239/60 61/240/60
f 62/241/61 66/242/61 68/243/61 64/244/61
f 68/245/62 72/246/62 71/247/62 67/248/62
f 67/249/63 71/250/63 69/251/63 65/252/63
f 66/253/64 70/254/64 72/255/64 68/256/64
f 72/257/65 76/258/65 75/259/65 71/260/65
f 71/261/66 75/262/66 73/263/66 69/264/66
f 70/265/67 74/266/67 76/267/67 72/268/67
f 76/269/68 80/270/68 79/271/68 75/272/68
f 75/273/69 79/274/69 77/275/69 73/276/69
f 74/277/70 78/278/70 80/279/70 76/280/70
f 77/281/71 49/282/71 50/283/71 78/284/71
f 101/285/72 102/286/72 103/287/72 104/288/72
f 79/289/73 51/290/73 49/291/73 77/292/73
f 78/293/74 50/294/74 52/295/74 80/296/74
f 82/297/75 81/298/75 49/299/75 53/300/75
f 84/301/76 83/302/76 54/303/76 50/304/76
f 81/305/77 84/306/77 50/307/77 49/308/77
f 85/309/78 82/310/78 53/311/78 57/312/78
f 83/313/79 86/314/79 58/315/79 54/316/79
f 87/317/80 85/318/80 57/319/80 61/320/80
f 88/321/81 87/322/81 61/323/81 62/324/81
f 86/325/82 88/326/82 62/327/82 58/328/82
f 90/329/83 89/330/83 73/331/83 77/332/83
f 91/333/84 90/334/84 77/335/84 78/336/84
f 92/337/85 91/338/85 78/339/85 74/340/85
f 89/341/86 93/342/86 69/343/86 73/344/86
f 94/345/87 92/346/87 74/347/87 70/348/87
f 93/349/88 95/350/88 65/351/88 69/352/88
f 96/353/89 94/354/89 70/355/89 66/356/89
f 95/357/90 96/358/90 66/359/90 65/360/90
f 98/361/91 97/362/91 64/363/91 68/364/91
f 99/365/92 98/366/92 68/367/92 67/368/92
f 100/369/93 99/370/93 67/371/93 63/372/93
f 97/373/94 100/374/94 63/375/94 64/376/94
f 102/377/95 101/378/95 80/379/95 52/380/95
f 103/381/96 102/382/96 52/383/96 51/384/96
f 104/385/97 103/386/97 51/387/97 79/388/97
f 101/389/98 104/390/98 79/391/98 80/392/98
o tube_selection
v -0.4375 0.18121843353822914 0.25000000000000006
v -0.24528882515367206 0.37342960838455713 0.25000000000000006
v -0.24528882515367206 0.37342960838455724 -0.24999999999999992
v -0.4375 0.18121843353822925 -0.24999999999999997
v -0.4374999999999999 -0.18121843353822942 0.24999999999999997
v -0.4374999999999999 -0.1812184335382293 -0.25000000000000006
v -0.24528882515367173 -0.37342960838455747 0.24999999999999992
v -0.24528882515367173 -0.37342960838455735 -0.25000000000000006
v -0.4908470869120796 0.20331552045030873 0.25000000000000006
v -0.2894829989778313 0.4176237822087164 0.2500000000000001
v -0.2894829989778313 0.4176237822087165 -0.24999999999999992
v -0.4908470869120796 0.20331552045030885 -0.24999999999999994
v -0.4908470869120795 -0.20331552045030904 0.24999999999999994
v -0.4908470869120795 -0.20331552045030893 -0.25000000000000006
v -0.2894829989778309 -0.4176237822087167 0.24999999999999992
v -0.2894829989778309 -0.4176237822087166 -0.2500000000000001
v 0.24528882515367184 0.3734296083845572 0.25000000000000006
v 0.4375 0.18121843353822906 0.25000000000000006
v 0.4375 0.18121843353822917 -0.24999999999999997
v 0.24528882515367184 0.3734296083845573 -0.24999999999999992
v 0.4375 -0.18121843353822914 0.24999999999999997
v 0.4375 -0.18121843353822903 -0.25000000000000006
v 0.2452888251536719 -0.37342960838455735 0.24999999999999992
v 0.2452888251536719 -0.37342960838455724 -0.25000000000000006
v 0.28948299897783103 0.41762378220871643 0.2500000000000001
v 0.4908470869120796 0.20331552045030868 0.25000000000000006
v 0.4908470869120796 0.2033155204503088 -0.24999999999999994
v 0.28948299897783103 0.41762378220871654 -0.24999999999999992
v 0.4908470869120796 -0.20331552045030873 0.24999999999999994
v 0.4908470869120796 -0.20331552045030862 -0.25000000000000006
v 0.28948299897783114 -0.41762378220871654 0.24999999999999992
v 0.28948299897783114 -0.41762378220871643 -0.2500000000000001
v 0.4908470869120796 0.10165776022515434 0.18750000000000003
v 0.4908470869120796 -0.10165776022515437 0.18749999999999997
v 0.4908470869120796 -0.10165776022515428 -0.18750000000000003
v 0.4908470869120796 0.10165776022515442 -0.18749999999999997
v -0.49084708691207957 -0.10165776022515459 0.18749999999999997
v -0.49084708691207957 0.10165776022515431 0.18750000000000003
v -0.49084708691207957 0.1016577602251544 -0.18749999999999997
v -0.49084708691207957 -0.1016577602251545 -0.18750000000000003
vt 0.125 0.25
vt 0.396825 0.25
vt 0.396825 0.75
vt 0.125 0.75
vt 0.125 0.25
vt 0.396825 0.25
vt 0.396825 0.75
vt 0.125 0.75
vt 0.294073496141377 0.625
vt 0 0.6249999999999998
vt 0.02043045733280438 0.5709911794034068
vt 0.2921282924454701 0.5625308775417291
vt 0.1875 1
vt 0.1875 0.5
vt 0.25 0.5
vt 0.25 1
vt 0.19665261339898338 1
vt 0.1875 0.7060689693128994
vt 0.249999400622126 0.7060689693128994
vt 0.249999400622126 0.9778984936705379
vt 0.125 0.8125
vt 0.125 0.405875
vt 0.17835 0.42796875
vt 0.17835 0.79040625
vt 0.125 1
vt 0.125 0.593375
vt 0.17835 0.61546875
vt 0.17835 0.97790625
vt 0.19665261339898338 0.75
vt 0.1875 0.4560689693128994
vt 0.249999400622126 0.4560689693128994
vt 0.249999400622126 0.7278984936705379
vt 0.294073496141377 0.875
vt 0 0.8749999999999998
vt 0.02043045733280438 0.8209911794034068
vt 0.2921282924454701 0.8125308775417291
vt 0.125 0.5
vt 0.125 1
vt 0.0625 1
vt 0.0625 0.5
vt 0.125 0.25
vt 0.396825 0.25
vt 0.396825 0.75
vt 0.125 0.75
vt 0.125 0.25
vt 0.396825 0.25
vt 0.396825 0.75
vt 0.125 0.75
vt 0.17834678722314262 0.4560689693128994
vt 0.187499400622126 0.75
vt 0.125 0.75
vt 0.125 0.4781704756423615
vt 0.0625 0.8750308775417291
vt 0.356573496141377 0.8750308775417294
vt 0.33614303880857266 0.9290396981383223
vt 0.06444520369590695 0.9375
vt 0.125 0.5
vt 0.125 1
vt 0.0625 1
vt 0.0625 0.5
vt 0.17835 0.405875
vt 0.17835 0.8125
vt 0.125 0.79040625
vt 0.125 0.42796875
vt 0.17835 0.593375
vt 0.17835 1
vt 0.125 0.97790625
vt 0.125 0.61546875
vt 0.0625 0.6250308775417291
vt 0.356573496141377 0.6250308775417294
vt 0.33614303880857266 0.6790396981383223
vt 0.06444520369590695 0.6875
vt 0.1875 1
vt 0.1875 0.5
vt 0.25 0.5
vt 0.25 1
vt 0.17834678722314262 0.7060689693128994
vt 0.187499400622126 1
vt 0.125 1
vt 0.125 0.7281704756423615
vt 0.36746875 0.3125
vt 0.16415625 0.3125
vt 0.0625 0.1875
vt 0.469125 0.1875
vt 0.3125 0.625
vt 0.3125 0.375
vt 0.41415625 0.25
vt 0.41415625 0.75
vt 0.16415625 0.6875
vt 0.36746875 0.6875
vt 0.469125 0.8125
vt 0.0625 0.8125
vt 0.10165625 0.375
vt 0.10165625 0.625
vt 0 0.75
vt 0 0.25
vt 0.36746875 0.3125
vt 0.16415625 0.3125
vt 0.0625 0.1875
vt 0.469125 0.1875
vt 0.3125 0.625
vt 0.3125 0.375
vt 0.41415625 0.25
vt 0.41415625 0.75
vt 0.16415625 0.6875
vt 0.36746875 0.6875
vt 0.469125 0.8125
vt 0.0625 0.8125
vt 0.10165625 0.375
vt 0.10165625 0.625
vt 0 0.75
vt 0 0.25
vn -0.7287730518401137 -0.6847553131678842 -1.5204622298267893e-16
vn -0.728773051840114 0.6847553131678837 1.5204622298267883e-16
vn 0 -2.220446049250313e-16 1
vn 0.7071067811865476 0.7071067811865476 1.5700924586837752e-16
vn 0 2.220446049250313e-16 -1
vn 0 -2.220446049250313e-16 1
vn 0 2.220446049250313e-16 -1
vn 0 -2.220446049250313e-16 1
vn 0 2.220446049250313e-16 -1
vn 0.707106781186548 -0.7071067811865471 -1.5700924586837742e-16
vn 0.7287730518401138 0.6847553131678841 1.520462229826789e-16
vn 0.728773051840114 -0.6847553131678837 -1.5204622298267883e-16
vn -3.237971309559532e-16 -5.262844574425882e-16 1
vn 0 2.220446049250313e-16 -1
vn -0.707106781186548 0.7071067811865471 1.5700924586837742e-16
vn 0 -2.220446049250313e-16 1
vn 0 2.220446049250313e-16 -1
vn 0 -2.220446049250313e-16 1
vn -0.7071067811865471 -0.707106781186548 -1.5700924586837762e-16
vn -3.237971309559533e-16 5.262844574425881e-16 -1
vn 1 0 0
vn 1 0 0
vn 1 0 0
vn 1 0 0
vn -1 -1.9721522630525295e-31 8.881784197001252e-16
vn -1 -5.460591607400181e-16 -1.2124949061221148e-31
vn -1 -1.9721522630525295e-31 8.881784197001252e-16
vn -1 -5.460591607400181e-16 -1.2124949061221148e-31
usemtl m_4569ab1b-bdf9-822c-7834-45bea2c7044e
f 119/393/99 117/394/99 118/395/99 120/396/99
f 113/397/100 114/398/100 115/399/100 116/400/100
f 114/401/101 113/402/101 105/403/101 106/404/101
f 115/405/102 114/406/102 106/407/102 107/408/102
f 116/409/103 115/410/103 107/411/103 108/412/103
f 113/413/104 117/414/104 109/415/104 105/416/104
f 118/417/105 116/418/105 108/419/105 110/420/105
f 117/421/106 119/422/106 111/423/106 109/424/106
f 120/425/107 118/426/107 110/427/107 112/428/107
f 119/429/108 120/430/108 112/431/108 111/432/108
f 129/433/109 130/434/109 131/435/109 132/436/109
f 133/437/110 135/438/110 136/439/110 134/440/110
f 130/441/111 129/442/111 121/443/111 122/444/111
f 132/445/112 131/446/112 123/447/112 124/448/112
f 129/449/113 132/450/113 124/451/113 121/452/113
f 133/453/114 130/454/114 122/455/114 125/456/114
f 131/457/115 134/458/115 126/459/115 123/460/115
f 135/461/116 133/462/116 125/463/116 127/464/116
f 136/465/117 135/466/117 127/467/117 128/468/117
f 134/469/118 136/470/118 128/471/118 126/472/118
f 138/473/119 137/474/119 130/475/119 133/476/119
f 139/477/120 138/478/120 133/479/120 134/480/120
f 140/481/121 139/482/121 134/483/121 131/484/121
f 137/485/122 140/486/122 131/487/122 130/488/122
f 142/489/123 141/490/123 117/491/123 113/492/123
f 143/493/124 142/494/124 113/495/124 116/496/124
f 144/497/125 143/498/125 116/499/125 118/500/125
f 141/501/126 144/502/126 118/503/126 117/504/126
o tube_selection_selection
v -0.49084708691207957 -0.10165776022515459 0.18749999999999997
v -0.49084708691207957 0.10165776022515431 0.18750000000000003
v -0.49084708691207957 0.1016577602251544 -0.18749999999999997
v -0.49084708691207957 -0.1016577602251545 -0.18750000000000003
v 0.4908470869120796 0.10165776022515434 0.18750000000000003
v 0.4908470869120796 -0.10165776022515437 0.18749999999999997
v 0.4908470869120796 -0.10165776022515428 -0.18750000000000003
v 0.4908470869120796 0.10165776022515442 -0.18749999999999997
vt 0.1875 0.375
vt 0.3908125 0.375
vt 0.3908125 0.625
vt 0.1875 0.625
vt 0.1875 0.375
vt 0.3908125 0.375
vt 0.3908125 0.625
vt 0.1875 0.625
vn -1 0 0
vn 1 0 0
usemtl m_504e46ee-bc08-d695-f731-19d95e7d89c5
f 145/505/127 146/506/127 147/507/127 148/508/127
f 149/509/128 150/510/128 151/511/128 152/512/128
o cylinder
v 0 -9.71445146547012e-17 -0.4375
v 0 9.71445146547012e-17 0.4375
v 0.10355339059327377 -0.2500000000000001 -0.43749999999999994
v 0.10355339059327377 -0.2499999999999999 0.43750000000000006
v 0.25 -0.10355339059327388 -0.4375
v 0.25 -0.10355339059327369 0.4375
v 0.25 0.10355339059327366 -0.4375
v 0.25 0.10355339059327386 0.4375
v 0.1035533905932738 0.2499999999999999 -0.43750000000000006
v 0.1035533905932738 0.2500000000000001 0.43749999999999994
v -0.10355339059327374 0.24999999999999994 -0.43750000000000006
v -0.10355339059327374 0.25000000000000017 0.43749999999999994
v -0.24999999999999994 0.10355339059327383 -0.4375
v -0.24999999999999994 0.10355339059327402 0.4375
v -0.24999999999999997 -0.10355339059327393 -0.4375
v -0.24999999999999997 -0.10355339059327373 0.4375
v -0.10355339059327394 -0.25000000000000006 -0.43749999999999994
v -0.10355339059327394 -0.24999999999999983 0.43750000000000006
vt 0.2705991443335742 0.8086612460898552
vt 0.19134622590000458 1
vt 0 0.8086612460898552
vt 0 0.5
vt 0.2071125 0.5
vt 0.2071125 1
vt 0 1
vt 0 0.7294008556664258
vt 0.19133875391014482 0.8086537740999954
vt 1.1102230246251565e-16 1
vt 0.25 0.7928875
vt 0.25 1
vt 0 0.89644375
vt 0 0.5
vt 0.2071125 0.5
vt 0.2071125 1
vt 0 1
vt 0.25 0.7928875
vt 0.25 1
vt 0 0.89644375
vt 0 0.7294008556664258
vt 0.19133875391014482 0.8086537740999954
vt 1.1102230246251565e-16 1
vt 0 0.5
vt 0.2071125 0.5
vt 0.2071125 1
vt 0 1
vt 0.2705991443335742 0.8086612460898552
vt 0.19134622590000458 1
vt 0 0.8086612460898552
vt 0 0.75
vt 0.2071125 0.75
vt 0.10355625 1
vt 0 0.5
vt 0.2071125 0.5
vt 0.2071125 1
vt 0 1
vt 0.2071125 1
vt 0 1
vt 0.10355625 0.75
vt 0 0.9999999999999999
vt 0.07925291843356974 0.8086612460898551
vt 0.2705991443335741 1
vt 0 0.5
vt 0.2071125 0.5
vt 0.2071125 1
vt 0 1
vt 0.1913387539101448 1
vt 0 0.9207470815664303
vt 0.19133875391014482 0.7294008556664258
vt 0 1
vt 0 0.7928875
vt 0.25 0.89644375
vt 0 0.5
vt 0.2071125 0.5
vt 0.2071125 1
vt 0 1
vt 0 1
vt 0 0.7928875
vt 0.25 0.89644375
vt 0.1913387539101448 1
vt 0 0.9207470815664303
vt 0.19133875391014482 0.7294008556664258
vt 0 0.5
vt 0.2071125 0.5
vt 0.2071125 1
vt 0 1
vt 0 0.9999999999999999
vt 0.07925291843356974 0.8086612460898551
vt 0.2705991443335741 1
vt 0.2071125 1
vt 0 1
vt 0.10355625 0.75
vt 0 0.5
vt 0.2071125 0.5
vt 0.2071125 1
vt 0 1
vt 0 0.75
vt 0.2071125 0.75
vt 0.10355625 1
vn 0 -2.220446049250313e-16 -1
vn 0.7071067811865476 -0.7071067811865476 1.5700924586837752e-16
vn 0 2.220446049250313e-16 1
vn 0 -2.220446049250313e-16 -1
vn 1 0 0
vn 0 2.220446049250313e-16 1
vn 0 -2.220446049250313e-16 -1
vn 0.7071067811865477 0.7071067811865475 -1.570092458683775e-16
vn 0 2.220446049250313e-16 1
vn 0 -2.220446049250313e-16 -1
vn 2.680315483308931e-16 1 -2.220446049250313e-16
vn 0 2.220446049250313e-16 1
vn 0 -2.220446049250313e-16 -1
vn -0.7071067811865474 0.7071067811865477 -1.5700924586837754e-16
vn 0 2.220446049250313e-16 1
vn 0 -2.220446049250313e-16 -1
vn -1 1.3401577416544643e-16 -2.975747962828877e-32
vn 0 2.220446049250313e-16 1
vn 0 -2.220446049250313e-16 -1
vn -0.7071067811865477 -0.7071067811865474 1.5700924586837747e-16
vn 0 2.220446049250313e-16 1
vn 0 -2.220446049250313e-16 -1
vn -2.680315483308929e-16 -1 2.220446049250313e-16
vn 0 2.220446049250313e-16 1
usemtl m_504e46ee-bc08-d695-f731-19d95e7d89c5
f 157/513/129 155/514/129 153/515/129
f 155/516/130 157/517/130 158/518/130 156/519/130
f 156/520/131 158/521/131 154/522/131
f 159/523/132 157/524/132 153/525/132
f 157/526/133 159/527/133 160/528/133 158/529/133
f 158/530/134 160/531/134 154/532/134
f 161/533/135 159/534/135 153/535/135
f 159/536/136 161/537/136 162/538/136 160/539/136
f 160/540/137 162/541/137 154/542/137
f 163/543/138 161/544/138 153/545/138
f 161/546/139 163/547/139 164/548/139 162/549/139
f 162/550/140 164/551/140 154/552/140
f 165/553/141 163/554/141 153/555/141
f 163/556/142 165/557/142 166/558/142 164/559/142
f 164/560/143 166/561/143 154/562/143
f 167/563/144 165/564/144 153/565/144
f 165/566/145 167/567/145 168/568/145 166/569/145
f 166/570/146 168/571/146 154/572/146
f 169/573/147 167/574/147 153/575/147
f 167/576/148 169/577/148 170/578/148 168/579/148
f 168/580/149 170/581/149 154/582/149
f 155/583/150 169/584/150 153/585/150
f 169/586/151 155/587/151 156/588/151 170/589/151
f 170/590/152 156/591/152 154/592/152