# Made in Blockbench 4.7.4
mtllib MPC.mtl

o cuboid
v 0.5 -0.25 0.5
v 0.5 -0.25 -0.5
v 0.5 -0.5 0.5
v 0.5 -0.5 -0.5
v -0.5 -0.25 0.5
v -0.5 -0.25 -0.5
v -0.5 -0.5 0.5
v -0.5 -0.5 -0.5
vt 0.75 1
vt 0 1
vt 0 0.5
vt 0.75 0.5
vt 0.75 0.5
vt 0.75 1
vt 0 1
vt 0 0.5
vt 0 0.25
vt 0.75 0.25
vt 0.75 1
vt 0 1
vt 0.75 0.25
vt 0.75 1
vt 0 1
vt 0 0.25
vt 0.75 0.5
vt 0.75 1
vt 0 1
vt 0 0.5
vt 0.75 1
vt 0 1
vt 0 0.5
vt 0.75 0.5
vn 1 0 0
vn -1 0 0
vn 0 1 0
vn 0 -1 0
vn 0 0 1
vn 0 0 -1
usemtl m_be1a0f2d-2cc7-8e3e-d0a9-e607c01a0897
f 2/1/1 1/2/1 3/3/1 4/4/1
f 7/5/2 5/6/2 6/7/2 8/8/2
f 5/9/3 1/10/3 2/11/3 6/12/3
f 4/13/4 3/14/4 7/15/4 8/16/4
f 3/17/5 1/18/5 5/19/5 7/20/5
f 6/21/6 2/22/6 4/23/6 8/24/6
o cylinder_selection
v -0.37499999999999994 0 -0.10048094716167094
v -0.27451905283832895 0 -0.274519052838329
v -0.10048094716167084 0 -0.375
v 0.10048094716167111 0 -0.3749999999999999
v 0.274519052838329 0 -0.27451905283832895
v 0.37499999999999994 0 -0.10048094716167102
v 0.37499999999999994 0 0.100480947161671
v 0.27451905283832895 0 0.274519052838329
v 0.100480947161671 0 0.37499999999999994
v -0.10048094716167097 0 0.37499999999999994
v -0.274519052838329 0 0.2745190528383289
v -0.375 0 0.10048094716167083
v -0.37499999999999994 -0.375 -0.10048094716167094
v -0.27451905283832895 -0.375 -0.274519052838329
v -0.10048094716167084 -0.375 -0.375
v 0.10048094716167111 -0.375 -0.3749999999999999
v 0.274519052838329 -0.375 -0.27451905283832895
v 0.37499999999999994 -0.375 -0.10048094716167102
v 0.37499999999999994 -0.375 0.100480947161671
v 0.27451905283832895 -0.375 0.274519052838329
v 0.100480947161671 -0.375 0.37499999999999994
v -0.10048094716167097 -0.375 0.37499999999999994
v -0.274519052838329 -0.375 0.2745190528383289
v -0.375 -0.375 0.10048094716167083
vt 0 0.9375
vt 0.2009625 0.9375
vt 0.2009625 1
vt 0 1
vt 0 0.9375
vt 0.2009625 0.9375
vt 0.2009625 1
vt 0 1
vt 0 0.75
vt 0.2009625 0.75
vt 0.2009625 0.8125
vt 0 0.8125
vt 0 0.75
vt 0.2009625 0.75
vt 0.2009625 0.8125
vt 0 0.8125
vt 0.125 0.875
vt 0.3259625 0.875
vt 0.3259625 0.9375
vt 0.125 0.9375
vt 0.125 0.875
vt 0.3259625 0.875
vt 0.3259625 0.9375
vt 0.125 0.9375
vt 0 0.9375
vt 0.2009625 0.9375
vt 0.2009625 1
vt 0 1
vt 0 0.9375
vt 0.2009625 0.9375
vt 0.2009625 1
vt 0 1
vn -0.8660254037844388 0 -0.4999999999999997
vn -0.4999999999999996 0 -0.8660254037844389
vn 0.4999999999999999 0 -0.8660254037844387
vn 0.8660254037844388 0 -0.49999999999999983
vn 0.8660254037844387 0 0.49999999999999983
vn 0.49999999999999983 0 0.8660254037844388
vn -0.5 0 0.8660254037844387
vn -0.8660254037844388 0 0.4999999999999997
usemtl m_60fe2593-e5ce-6550-3255-a8bad47c8ee8
f 22/25/7 21/26/7 9/27/7 10/28/7
f 23/29/8 22/30/8 10/31/8 11/32/8
f 25/33/9 24/34/9 12/35/9 13/36/9
f 26/37/10 25/38/10 13/39/10 14/40/10
f 28/41/11 27/42/11 15/43/11 16/44/11
f 29/45/12 28/46/12 16/47/12 17/48/12
f 31/49/13 30/50/13 18/51/13 19/52/13
f 32/53/14 31/54/14 19/55/14 20/56/14
o cylinder_selection
v -0.37499999999999994 0 -0.10048094716167094
v -0.10048094716167084 0 -0.375
v 0.10048094716167111 0 -0.3749999999999999
v 0.37499999999999994 0 -0.10048094716167102
v 0.37499999999999994 0 0.100480947161671
v 0.100480947161671 0 0.37499999999999994
v -0.10048094716167097 0 0.37499999999999994
v -0.375 0 0.10048094716167083
v -0.37499999999999994 -0.375 -0.10048094716167094
v -0.10048094716167084 -0.375 -0.375
v 0.10048094716167111 -0.375 -0.3749999999999999
v 0.37499999999999994 -0.375 -0.10048094716167102
v 0.37499999999999994 -0.375 0.100480947161671
v 0.100480947161671 -0.375 0.37499999999999994
v -0.10048094716167097 -0.375 0.37499999999999994
v -0.375 -0.375 0.10048094716167083
v 0.10048094716167114 -0.375 -0.4374999999999999
v -0.10048094716167082 -0.375 -0.4375
v -0.10048094716167082 0 -0.4375
v 0.10048094716167114 0 -0.4374999999999999
v 0.43749999999999994 -0.375 0.100480947161671
v 0.43749999999999994 -0.375 -0.10048094716167102
v 0.43749999999999994 0 -0.10048094716167102
v 0.43749999999999994 0 0.100480947161671
v -0.43749999999999994 -0.375 -0.10048094716167096
v -0.4375 -0.375 0.10048094716167082
v -0.4375 0 0.10048094716167082
v -0.43749999999999994 0 -0.10048094716167096
v -0.10048094716167097 -0.375 0.43749999999999994
v 0.100480947161671 -0.375 0.43749999999999994
v 0.100480947161671 0 0.43749999999999994
v -0.10048094716167097 0 0.43749999999999994
v 0.13397459621556132 0 0.49999999999999994
v 0.13397459621556132 0.5 0.49999999999999994
v 0.3660254037844386 0 0.36602540378443865
v 0.3660254037844386 0.5 0.36602540378443865
v 0.49999999999999994 0 0.13397459621556132
v 0.49999999999999994 0.5 0.13397459621556132
v 0.49999999999999994 0 -0.13397459621556138
v 0.49999999999999994 0.5 -0.13397459621556138
v 0.36602540378443865 0 -0.3660254037844386
v 0.36602540378443865 0.5 -0.3660254037844386
v 0.1339745962155615 0 -0.4999999999999999
v 0.1339745962155615 0.5 -0.4999999999999999
v -0.13397459621556113 0 -0.5
v -0.13397459621556113 0.5 -0.5
v -0.3660254037844386 0 -0.3660254037844387
v -0.3660254037844386 0.5 -0.3660254037844387
v -0.49999999999999994 0 -0.13397459621556126
v -0.49999999999999994 0.5 -0.13397459621556126
v -0.5 0 0.1339745962155611
v -0.5 0.5 0.1339745962155611
v -0.3660254037844387 0 0.36602540378443854
v -0.3660254037844387 0.5 0.36602540378443854
v -0.1339745962155613 0 0.49999999999999994
v -0.1339745962155613 0.5 0.49999999999999994
v -0.37499999999999994 0 -0.10048094716167094
v -0.27451905283832895 0 -0.274519052838329
v -0.10048094716167084 0 -0.375
v 0.10048094716167111 0 -0.3749999999999999
v 0.274519052838329 0 -0.27451905283832895
v 0.37499999999999994 0 -0.10048094716167102
v 0.37499999999999994 0 0.100480947161671
v 0.27451905283832895 0 0.274519052838329
v 0.100480947161671 0 0.37499999999999994
v -0.10048094716167097 0 0.37499999999999994
v -0.274519052838329 0 0.2745190528383289
v -0.375 0 0.10048094716167083
v -0.37499999999999994 -0.375 -0.10048094716167094
v -0.27451905283832895 -0.375 -0.274519052838329
v 0 -0.375 0
v -0.10048094716167084 -0.375 -0.375
v 0.10048094716167111 -0.375 -0.3749999999999999
v 0.274519052838329 -0.375 -0.27451905283832895
v 0.37499999999999994 -0.375 -0.10048094716167102
v 0.37499999999999994 -0.375 0.100480947161671
v 0.27451905283832895 -0.375 0.274519052838329
v 0.100480947161671 -0.375 0.37499999999999994
v -0.10048094716167097 -0.375 0.37499999999999994
v -0.274519052838329 -0.375 0.2745190528383289
v -0.375 -0.375 0.10048094716167083
v 0.10048094716167114 -0.375 -0.4374999999999999
v -0.10048094716167082 -0.375 -0.4375
v -0.10048094716167082 0 -0.4375
v 0.10048094716167114 0 -0.4374999999999999
v 0.43749999999999994 -0.375 0.100480947161671
v 0.43749999999999994 -0.375 -0.10048094716167102
v 0.43749999999999994 0 -0.10048094716167102
v 0.43749999999999994 0 0.100480947161671
v -0.43749999999999994 -0.375 -0.10048094716167096
v -0.4375 -0.375 0.10048094716167082
v -0.4375 0 0.10048094716167082
v -0.43749999999999994 0 -0.10048094716167096
v -0.10048094716167097 -0.375 0.43749999999999994
v 0.100480947161671 -0.375 0.43749999999999994
v 0.100480947161671 0 0.43749999999999994
v -0.10048094716167097 0 0.43749999999999994
v 0.3169872981077806 0.0625 -0.31698729810778054
v 0.16626587736527418 0.0625 -0.4040063509461096
v 0.16626587736527418 0.4375 -0.4040063509461096
v 0.3169872981077806 0.4375 -0.31698729810778054
v 0.4040063509461096 0.0625 -0.16626587736527412
v 0.4040063509461096 0.4375 -0.16626587736527412
v -0.16626587736527396 0.0625 -0.4040063509461096
v -0.31698729810778054 0.0625 -0.31698729810778065
v -0.31698729810778054 0.4375 -0.31698729810778065
v -0.16626587736527396 0.4375 -0.4040063509461096
v -0.4040063509461096 0.0625 -0.16626587736527407
v -0.4040063509461096 0.4375 -0.16626587736527407
v -0.4040063509461096 0.0625 0.16626587736527396
v -0.31698729810778065 0.0625 0.3169872981077805
v -0.31698729810778065 0.4375 0.3169872981077805
v -0.4040063509461096 0.4375 0.16626587736527396
v -0.16626587736527407 0.0625 0.4040063509461096
v -0.16626587736527407 0.4375 0.4040063509461096
v 0.1662658773652741 0.0625 0.4040063509461096
v 0.31698729810778054 0.0625 0.3169872981077806
v 0.31698729810778054 0.4375 0.3169872981077806
v 0.1662658773652741 0.4375 0.4040063509461096
v 0.4040063509461096 0.0625 0.1662658773652741
v 0.4040063509461096 0.4375 0.1662658773652741
v 0.16340309025946134 0.0625 -0.16340309025946134
v 0.08973281884233116 0.0625 -0.208132938682637
v 0.08973281884233116 0.4375 -0.208132938682637
v 0.16340309025946134 0.4375 -0.16340309025946134
v 0.20813293868263702 0.0625 -0.08973281884233114
v 0.20813293868263702 0.4375 -0.08973281884233114
v -0.08973281884233102 0.0625 -0.20813293868263708
v -0.16340309025946131 0.0625 -0.1634030902594614
v -0.16340309025946131 0.4375 -0.1634030902594614
v -0.08973281884233102 0.4375 -0.20813293868263708
v -0.20813293868263702 0.0625 -0.0897328188423311
v -0.20813293868263702 0.4375 -0.0897328188423311
v -0.20813293868263702 0.0625 0.08973281884233099
v -0.16340309025946134 0.0625 0.16340309025946123
v -0.16340309025946134 0.4375 0.16340309025946123
v -0.20813293868263702 0.4375 0.08973281884233099
v -0.08973281884233109 0.0625 0.20813293868263702
v -0.08973281884233109 0.4375 0.20813293868263702
v 0.08973281884233109 0.0625 0.20813293868263702
v 0.16340309025946131 0.0625 0.16340309025946134
v 0.16340309025946131 0.4375 0.16340309025946134
v 0.08973281884233109 0.4375 0.20813293868263702
v 0.20813293868263702 0.0625 0.08973281884233109
v 0.20813293868263702 0.4375 0.08973281884233109
v -0.37499999999999994 0.5625 -0.10048094716167094
v -0.375 0.5625 0.10048094716167083
v 0 0.5625 0
v -0.27451905283832895 0.5625 -0.274519052838329
v -0.10048094716167084 0.5625 -0.375
v 0.10048094716167111 0.5625 -0.3749999999999999
v 0.274519052838329 0.5625 -0.27451905283832895
v 0.37499999999999994 0.5625 -0.10048094716167102
v 0.37499999999999994 0.5625 0.100480947161671
v 0.27451905283832895 0.5625 0.274519052838329
v 0.100480947161671 0.5625 0.37499999999999994
v -0.10048094716167097 0.5625 0.37499999999999994
v -0.274519052838329 0.5625 0.2745190528383289
vt 0 0.75
vt 0.2009625 0.75
vt 0.2009625 0.8125
vt 0 0.8125
vt 0.1875 0.875
vt 0.3884625 0.875
vt 0.3884625 0.9375
vt 0.1875 0.9375
vt 0 0.9375
vt 0.2009625 0.9375
vt 0.2009625 1
vt 0 1
vt 0 0.875
vt 0.2009625 0.875
vt 0.2009625 0.9375
vt 0 0.9375
vt 0.0625 1
vt 0.0625 0.625
vt 0.125 0.625
vt 0.125 1
vt 0.0625 0.625
vt 0.0625 1
vt 0 1
vt 0 0.625
vt 0.1875 1
vt 0.1875 0.625
vt 0.25 0.625
vt 0.25 1
vt 0.125 0.625
vt 0.125 1
vt 0.0625 1
vt 0.0625 0.625
vt 0.0625 1
vt 0.0625 0.625
vt 0.125 0.625
vt 0.125 1
vt 0.0625 0.625
vt 0.0625 1
vt 0 1
vt 0 0.625
vt 0.0625 1
vt 0.0625 0.625
vt 0.125 0.625
vt 0.125 1
vt 0.0625 0.625
vt 0.0625 1
vt 0 1
vt 0 0.625
vt 0.4507281393757091 0.7433859303121455
vt 0.3987160162020561 0.9375
vt 0.0625 0.7433859303121454
vt 0 0.5492713539657815
vt 0.19411381635893044 0.6012844225772749
vt 6.938893903907228e-17 0.9375
vt 0.45072864603421847 0.7433861836410696
vt 0.39871557742272506 0.9375
vt 0.0625 0.7433861836410696
vt 2.7755575615628914e-17 0.5492718606242909
vt 0.19411406968785458 0.6012839837979439
vt 0 0.9375
vt 0.4375 0.7365375000000001
vt 0.4375 0.9375
vt 0.0625 0.83701875
vt 0 0.5
vt 0.26795 0.5
vt 0.26795 1
vt 0 1
vt 0.4375 0.7365375000000001
vt 0.4375 0.9375
vt 0.0625 0.83701875
vt 2.7755575615628914e-17 0.5492718606242909
vt 0.19411406968785458 0.6012839837979439
vt 0 0.9375
vt 0.45072864603421847 0.7433861836410696
vt 0.39871557742272506 0.9375
vt 0.0625 0.7433861836410696
vt 0 0.5492713539657815
vt 0.19411381635893044 0.6012844225772749
vt 6.938893903907228e-17 0.9375
vt 0.4507281393757091 0.7433859303121455
vt 0.3987160162020561 0.9375
vt 0.0625 0.7433859303121454
vt 0.0625 0.5625
vt 0.2634625 0.5625
vt 0.16298125 0.9375
vt 0 0.5
vt 0.26795 0.5
vt 0.26795 1
vt 0 1
vt 0.2634625 0.9375
vt 0.0625 0.9375
vt 0.16298125 0.5625
vt 0.0625 1
vt 0.114512123173653 0.8058859303121454
vt 0.4507281393757091 1
vt 0.25661381635893044 0.9375
vt 0.0625 0.8854869313885065
vt 0.25661381635893055 0.5492713539657815
vt 0.0625 1
vt 0.11451306861149341 0.8058861836410696
vt 0.45072864603421847 0.9999999999999999
vt 0.25661406968785455 0.9375
vt 0.0625 0.885487876826347
vt 0.2566140696878546 0.5492718606242909
vt 0.0625 0.9375
vt 0.0625 0.7365375000000001
vt 0.4375 0.83701875
vt 0 0.5
vt 0.26795 0.5
vt 0.26795 1
vt 0 1
vt 0.0625 0.9375
vt 0.0625 0.7365375000000001
vt 0.4375 0.83701875
vt 0.25661406968785455 0.9375
vt 0.0625 0.885487876826347
vt 0.2566140696878546 0.5492718606242909
vt 0.0625 1
vt 0.11451306861149341 0.8058861836410696
vt 0.45072864603421847 0.9999999999999999
vt 0.25661381635893044 0.9375
vt 0.0625 0.8854869313885065
vt 0.25661381635893055 0.5492713539657815
vt 0.0625 1
vt 0.114512123173653 0.8058859303121454
vt 0.4507281393757091 1
vt 0.2634625 0.9375
vt 0.0625 0.9375
vt 0.16298125 0.5625
vt 0 0.5
vt 0.26795 0.5
vt 0.26795 1
vt 0 1
vt 0.0625 0.5625
vt 0.2634625 0.5625
vt 0.16298125 0.9375
vt 0.18749995628862914 0.7655445656559314
vt 0.1874999562886291 0.9665060868678603
vt 0.0625 1
vt 0.06250000000000006 0.7320513050507615
vt 0.18749995628862914 0.7655452181829014
vt 0.18749995628862903 0.9665067393948302
vt 0.0625 1
vt 0.06250000000000006 0.7320513050507617
vt 0.23445625 0.5625
vt 0.03349375000000002 0.5625
vt 0 0.4375
vt 0.26795 0.4375
vt 0.23445543434406851 0.625
vt 0.03349391313213977 0.625
vt 0 0.500000043711371
vt 0.26794869494923834 0.5000000437113709
vt 0.23445478181709853 0.625
vt 0.0334932606051698 0.6249999999999999
vt 0 0.5000000437113709
vt 0.26794869494923834 0.500000043711371
vt 0.4375 0.96650625
vt 0.4375 0.76554375
vt 0.5625 0.73205
vt 0.5625 1
vt 0.37500000000000006 0.9665067393948301
vt 0.375 0.7655452181829014
vt 0.4999999562886291 0.7320513050507617
vt 0.49999995628862914 1
vt 0.375 0.9665060868678602
vt 0.3750000000000001 0.7655445656559314
vt 0.49999995628862914 0.7320513050507617
vt 0.4999999562886291 1
vt 0.03349375000000002 0.875
vt 0.23445625 0.875
vt 0.26795 1
vt 0 1
vt 0.03349326060516983 0.812500043711371
vt 0.23445478181709856 0.8125000437113709
vt 0.26794869494923834 0.9375
vt 0 0.9375
vt 0.03349391313213963 0.812500043711371
vt 0.2344554343440684 0.8125000437113707
vt 0.2679486949492383 0.9374999999999998
vt 0 0.9375
vt 0.125 0.76554375
vt 0.125 0.96650625
vt 0 1
vt 0 0.73205
vt 0 0.8125
vt 0.2009625 0.8125
vt 0.2009625 0.875
vt 0 0.875
vt 0.2009625 0.9375
vt 0 0.9375
vt 0 0.875
vt 0.2009625 0.875
vt 0.1875 0.7990375000000001
vt 0.1875 1
vt 0.125 1
vt 0.125 0.7990375000000001
vt 0.1875 0.7990375000000001
vt 0.1875 1
vt 0.125 1
vt 0.125 0.7990375000000001
vt 0 1
vt 0 0.7990375000000001
vt 0.0625 0.7990375000000001
vt 0.0625 1
vt 0 1
vt 0 0.7990375000000001
vt 0.0625 0.7990375000000001
vt 0.0625 1
vt 0.2009625 1
vt 0 1
vt 0 0.9375
vt 0.2009625 0.9375
vt 0 0.9375
vt 0.2009625 0.9375
vt 0.2009625 1
vt 0 1
vt 0.20096250000000002 0.5625
vt 0 0.5625
vt 0 0.4375
vt 0.26795 0.4375
vt 0.25 0.875
vt 0.25 0.625
vt 0.3169875 0.5
vt 0.3169875 1
vt 0 0.875
vt 0.20096250000000002 0.875
vt 0.26795 1
vt 0 1
vt 0.26795 0.5625
vt 0.0669875 0.5625
vt 0 0.4375
vt 0.26795 0.4375
vt 0.0669875 0.875
vt 0.26795 0.875
vt 0.26795 1
vt 0 1
vt 0.0669875 0.625
vt 0.0669875 0.875
vt 0 1
vt 0 0.5
vt 0.26795 0.5625
vt 0.0669875 0.5625
vt 0 0.4375
vt 0.26795 0.4375
vt 0.0669875 0.875
vt 0.26795 0.875
vt 0.26795 1
vt 0 1
vt 0.0669875 0.625
vt 0.0669875 0.875
vt 0 1
vt 0 0.5
vt 0.20096250000000002 0.5625
vt 0 0.5625
vt 0 0.4375
vt 0.26795 0.4375
vt 0.25 0.875
vt 0.25 0.625
vt 0.3169875 0.5
vt 0.3169875 1
vt 0 0.875
vt 0.20096250000000002 0.875
vt 0.26795 1
vt 0 1
vt 0.26795 0.5625
vt 0.0669875 0.5625
vt 0 0.4375
vt 0.26795 0.4375
vt 0.0669875 0.875
vt 0.26795 0.875
vt 0.26795 1
vt 0 1
vt 0.0669875 0.625
vt 0.0669875 0.875
vt 0 1
vt 0 0.5
vt 0.20096250000000002 0.5625
vt 0 0.5625
vt 0 0.4375
vt 0.26795 0.4375
vt 0.25 0.875
vt 0.25 0.625
vt 0.3169875 0.5
vt 0.3169875 1
vt 0 0.875
vt 0.20096250000000002 0.875
vt 0.26795 1
vt 0 1
vt 0.26795 0.5625
vt 0.0669875 0.5625
vt 0 0.4375
vt 0.26795 0.4375
vt 0.0669875 0.875
vt 0.26795 0.875
vt 0.26795 1
vt 0 1
vt 0.0669875 0.625
vt 0.0669875 0.875
vt 0 1
vt 0 0.5
vt 0.20096250000000002 0.5625
vt 0 0.5625
vt 0 0.4375
vt 0.26795 0.4375
vt 0.25 0.875
vt 0.25 0.625
vt 0.3169875 0.5
vt 0.3169875 1
vt 0 0.875
vt 0.20096250000000002 0.875
vt 0.26795 1
vt 0 1
vt 0.06250040850109467 0.8125013750164604
vt 0.2521599912000081 0.8166876942349399
vt 0.23653564132994423 0.8749999999999999
vt 0.0625 0.875
vt 0.1875 1
vt 0.1875 0.625
vt 0.25 0.625
vt 0.25 1
vt 0.05831354541211137 0.8103403899426801
vt 0.062498624984874684 1
vt 0 1
vt 0.0000011375250258405245 0.8259643586737733
vt 0 0.8166864545878887
vt 0.1896596100573199 0.8125013750151253
vt 0.1896596100573199 0.875
vt 0.015623968731093146 0.8749988624749742
vt 0.06249862498353975 0.8103404173010865
vt 0.05831230576505991 1
vt 0 0.9843756501299361
vt 1.6653345369377348e-16 0.8103400087999919
vt 0.0625 0.625
vt 0.0625 1
vt 0 1
vt 0 0.625
vt 0.12918507957276343 0.875
vt 0.125 0.6853403899426801
vt 0.18749862498487468 0.68534038994268
vt 0.18749748745984895 0.8593760312689067
vt 0.18965958269891345 0.9375
vt 0 0.9333136807815204
vt 0.015624349870063892 0.8750013750164605
vt 0.18965999120000812 0.8750013750164604
vt 0.0625 0.625
vt 0.0625 1
vt 0 1
vt 0 0.625
vt 0.125 0.8749995914989053
vt 0.12918631921847984 0.6853400087999919
vt 0.18749862498353975 0.7009643586700558
vt 0.18749862498353959 0.875
vt 0.1875 1
vt 0.1875 0.625
vt 0.25 0.625
vt 0.25 1
vt 0.2521596100573199 0.9333149204272366
vt 0.0625 0.9375
vt 0.0625 0.8750013750151253
vt 0.23653564132622676 0.8750025125401512
vt 0.2521596100573199 0.8083149204272366
vt 0.0625 0.8125
vt 0.0625 0.7500013750151253
vt 0.23653564132622676 0.7500025125401512
vt 0.125 0.9999995914989053
vt 0.12918631921847984 0.8103400087999919
vt 0.18749862498353975 0.8259643586700558
vt 0.18749862498353959 1
vt 0.0625 0.625
vt 0.0625 1
vt 0 1
vt 0 0.625
vt 0.18965958269891345 0.8125
vt 0 0.8083136807815204
vt 0.015624349870063892 0.7500013750164605
vt 0.18965999120000812 0.7500013750164604
vt 0.1875 1
vt 0.1875 0.625
vt 0.25 0.625
vt 0.25 1
vt 0.12918507957276343 1
vt 0.125 0.8103403899426801
vt 0.18749862498487468 0.81034038994268
vt 0.18749748745984895 0.9843760312689067
vt 0.05831354541211137 0.6853403899426801
vt 0.062498624984874684 0.875
vt 0 0.875
vt 0.0000011375250258405245 0.7009643586737733
vt 0.06250040850109467 0.9375013750164604
vt 0.2521599912000081 0.9416876942349399
vt 0.23653564132994423 0.9999999999999999
vt 0.0625 1
vt 0.0625 0.625
vt 0.0625 1
vt 0 1
vt 0 0.625
vt 0.06249862498353975 0.6853404173010865
vt 0.05831230576505991 0.875
vt 0 0.8593756501299361
vt 1.6653345369377348e-16 0.6853400087999919
vt 0.1875 1
vt 0.1875 0.625
vt 0.25 0.625
vt 0.25 1
vt 0 0.9416864545878887
vt 0.1896596100573199 0.9375013750151253
vt 0.1896596100573199 1
vt 0.015623968731093146 0.9999988624749742
vt 0.125 0.76554375
vt 0.125 0.96650625
vt 0 1
vt 0 0.73205
vt 0.03349391313213963 0.812500043711371
vt 0.2344554343440684 0.8125000437113707
vt 0.2679486949492383 0.9374999999999998
vt 0 0.9375
vt 0.03349326060516983 0.812500043711371
vt 0.23445478181709856 0.8125000437113709
vt 0.26794869494923834 0.9375
vt 0 0.9375
vt 0.03349375000000002 0.875
vt 0.23445625 0.875
vt 0.26795 1
vt 0 1
vt 0.375 0.9665060868678602
vt 0.3750000000000001 0.7655445656559314
vt 0.49999995628862914 0.7320513050507617
vt 0.4999999562886291 1
vt 0.37500000000000006 0.9665067393948301
vt 0.375 0.7655452181829014
vt 0.4999999562886291 0.7320513050507617
vt 0.49999995628862914 1
vt 0.4375 0.96650625
vt 0.4375 0.76554375
vt 0.5625 0.73205
vt 0.5625 1
vt 0.23445478181709853 0.625
vt 0.0334932606051698 0.6249999999999999
vt 0 0.5000000437113709
vt 0.26794869494923834 0.500000043711371
vt 0.23445543434406851 0.625
vt 0.03349391313213977 0.625
vt 0 0.500000043711371
vt 0.26794869494923834 0.5000000437113709
vt 0.23445625 0.5625
vt 0.03349375000000002 0.5625
vt 0 0.4375
vt 0.26795 0.4375
vt 0.18749995628862914 0.7655452181829014
vt 0.18749995628862903 0.9665067393948302
vt 0.0625 1
vt 0.06250000000000006 0.7320513050507617
vt 0.18749995628862914 0.7655445656559314
vt 0.1874999562886291 0.9665060868678603
vt 0.0625 1
vt 0.06250000000000006 0.7320513050507615
vn 5.524544980845172e-16 0 -1
vn 1 0 0
vn 0 0 1
vn -1 0 -2.762272490422588e-16
vn -1 0 -4.440892098500626e-16
vn 1 0 4.440892098500626e-16
vn 0 0 -1
vn 0 0 1
vn -2.220446049250313e-16 0 1
vn 2.220446049250313e-16 0 -1
vn 1 0 0
vn -1 0 0
vn 0 -1 0
vn 0 1 0
vn 0 -1 0
vn 0 1 0
vn 0 -1 0
vn 1 0 0
vn 0 1 0
vn 0 -1 0
vn 0 1 0
vn 0 -1 0
vn 0 1 0
vn 0 -1 0
vn 4.143408735633879e-16 0 -1
vn 0 1 0
vn 0 -1 0
vn 0 1 0
vn 0 -1 0
vn 0 1 0
vn 0 -1 0
vn -1 0 -2.0717043678169412e-16
vn 0 1 0
vn 0 -1 0
vn 0 1 0
vn 0 -1 0
vn 0 1 0
vn 0 -1 0
vn 0 0 1
vn 0 1 0
vn 0 -1 0
vn 0 -1 0
vn 0 -1 0
vn 0 -1 0
vn 0 -1 0
vn 0 -1 0
vn 0 -1 0
vn 0 -1 0
vn 0 -1 0
vn 0 -1 0
vn 0 -1 0
vn 0 -1 0
vn 0 -1 0
vn 0 1 0
vn 0 -1 0
vn 0 1 0
vn 0 -1 0
vn 0 1 0
vn 0 -1 0
vn 0 1 0
vn 0.3410964737574629 0.7311721974753272 -0.590796422830509
vn 0.9478106395344984 0 -0.31883379931432165
vn 0.3410964737574634 -0.7311721974753264 -0.5907964228305099
vn 0.5907964228305097 0.7311721974753266 -0.3410964737574631
vn 0.5907964228305091 -0.7311721974753271 -0.3410964737574627
vn 0.31883379931432193 0 -0.9478106395344983
vn -0.34109647375746244 0.731172197475327 -0.5907964228305096
vn -0.34109647375746227 -0.7311721974753271 -0.5907964228305094
vn -0.9478106395344981 0 -0.31883379931432254
vn -0.5907964228305093 0.7311721974753271 -0.34109647375746266
vn -0.3188337993143225 0 -0.9478106395344983
vn -0.5907964228305099 -0.7311721974753265 -0.341096473757463
vn -0.5907964228305098 0.7311721974753268 0.34109647375746266
vn -0.5907964228305094 -0.7311721974753271 0.34109647375746244
vn -0.3188337993143228 0 0.9478106395344981
vn -0.34109647375746277 0.7311721974753272 0.5907964228305091
vn -0.9478106395344983 0 0.3188337993143222
vn -0.34109647375746316 -0.7311721974753264 0.5907964228305098
vn 0.3410964737574631 0.7311721974753266 0.5907964228305098
vn 0.3410964737574627 -0.7311721974753271 0.5907964228305093
vn 0.9478106395344983 0 0.3188337993143222
vn 0.5907964228305091 0.7311721974753272 0.34109647375746277
vn 0.3188337993143222 0 0.9478106395344983
vn 0.5907964228305098 -0.7311721974753266 0.34109647375746316
vn 0 1 0
vn 0.9314251026836587 0 0.36393306814679005
vn 0 -1 0
vn 0 1 0
vn 0 -1 0
vn -0.36393306814678983 0 -0.9314251026836587
vn 0 1 0
vn 0 -1 0
vn -0.9314251026836586 0 0.3639330681467898
vn 0 1 0
vn 0.3639330681467898 0 -0.9314251026836587
vn 0 -1 0
vn 0 1 0
vn 0 -1 0
vn 0.3639330681467898 0 0.9314251026836587
vn 0 1 0
vn -0.9314251026836587 0 -0.36393306814678983
vn 0 -1 0
vn 0 1 0
vn 0 -1 0
vn 0.9314251026836587 0 -0.36393306814678994
vn 0 1 0
vn -0.36393306814678994 0 0.9314251026836587
vn 0 -1 0
vn -0.4472135954999579 0.894427190999916 -1.2353258121925088e-16
vn -0.38729833462074187 0.8944271909999161 -0.2236067977499789
vn -0.22360679774997885 0.8944271909999161 -0.38729833462074187
vn 2.470651624385015e-16 0.894427190999916 -0.4472135954999578
vn 0.22360679774997896 0.8944271909999159 -0.3872983346207418
vn 0.3872983346207417 0.894427190999916 -0.22360679774997888
vn 0.44721359549995804 0.8944271909999161 0
vn 0.38729833462074187 0.8944271909999161 0.223606797749979
vn 0.22360679774997888 0.894427190999916 0.38729833462074176
vn 0 0.894427190999916 0.447213595499958
vn -0.22360679774997896 0.8944271909999159 0.3872983346207417
vn -0.3872983346207418 0.8944271909999159 0.2236067977499789
usemtl m_be1a0f2d-2cc7-8e3e-d0a9-e607c01a0897
f 49/57/15 50/58/15 51/59/15 52/60/15
f 53/61/16 54/62/16 55/63/16 56/64/16
f 61/65/17 62/66/17 63/67/17 64/68/17
f 57/69/18 58/70/18 59/71/18 60/72/18
f 51/73/19 50/74/19 42/75/19 34/76/19
f 49/77/20 52/78/20 35/79/20 43/80/20
f 55/81/21 54/82/21 44/83/21 36/84/21
f 53/85/22 56/86/22 37/87/22 45/88/22
f 59/89/23 58/90/23 48/91/23 40/92/23
f 57/93/24 60/94/24 33/95/24 41/96/24
f 63/97/25 62/98/25 46/99/25 38/100/25
f 61/101/26 64/102/26 39/103/26 47/104/26
f 109/105/27 110/106/27 103/107/27
f 188/108/28 187/109/28 180/110/28
f 108/111/29 109/112/29 103/113/29
f 187/114/30 186/115/30 180/116/30
f 107/117/31 108/118/31 103/119/31
f 69/120/32 71/121/32 72/122/32 70/123/32
f 186/124/33 185/125/33 180/126/33
f 106/127/34 107/128/34 103/129/34
f 185/130/35 184/131/35 180/132/35
f 105/133/36 106/134/36 103/135/36
f 184/136/37 183/137/37 180/138/37
f 104/139/38 105/140/38 103/141/38
f 75/142/39 77/143/39 78/144/39 76/145/39
f 183/146/40 182/147/40 180/148/40
f 102/149/41 104/150/41 103/151/41
f 182/152/42 181/153/42 180/154/42
f 101/155/43 102/156/43 103/157/43
f 181/158/44 178/159/44 180/160/44
f 113/161/45 101/162/45 103/163/45
f 81/164/46 83/165/46 84/166/46 82/167/46
f 178/168/47 179/169/47 180/170/47
f 112/171/48 113/172/48 103/173/48
f 179/174/49 190/175/49 180/176/49
f 111/177/50 112/178/50 103/179/50
f 190/180/51 189/181/51 180/182/51
f 110/183/52 111/184/52 103/185/52
f 87/186/53 65/187/53 66/188/53 88/189/53
f 189/190/54 188/191/54 180/192/54
f 90/193/55 89/194/55 81/195/55 79/196/55
f 91/197/56 90/198/56 79/199/56 77/200/56
f 92/201/57 91/202/57 77/203/57 75/204/57
f 93/205/58 92/206/58 75/207/58 73/208/58
f 94/209/59 93/210/59 73/211/59 71/212/59
f 95/213/60 94/214/60 71/215/60 69/216/60
f 96/217/61 95/218/61 69/219/61 67/220/61
f 97/221/62 96/222/62 67/223/62 65/224/62
f 98/225/63 97/226/63 65/227/63 87/228/63
f 99/229/64 98/230/64 87/231/64 85/232/64
f 100/233/65 99/234/65 85/235/65 83/236/65
f 89/237/66 100/238/66 83/239/66 81/240/66
f 115/241/67 114/242/67 105/243/67 104/244/67
f 117/245/68 116/246/68 91/247/68 92/248/68
f 119/249/69 118/250/69 108/251/69 107/252/69
f 121/253/70 120/254/70 94/255/70 95/256/70
f 123/257/71 122/258/71 101/259/71 113/260/71
f 125/261/72 124/262/72 100/263/72 89/264/72
f 127/265/73 126/266/73 111/267/73 110/268/73
f 129/269/74 128/270/74 97/271/74 98/272/74
f 131/273/75 130/274/75 73/275/75 75/276/75
f 132/277/76 131/278/76 75/279/76 76/280/76
f 133/281/77 132/282/77 76/283/77 74/284/77
f 130/285/78 134/286/78 71/287/78 73/288/78
f 135/289/79 133/290/79 74/291/79 72/292/79
f 134/293/80 135/294/80 72/295/80 71/296/80
f 137/297/81 136/298/81 77/299/81 79/300/81
f 139/301/82 138/302/82 80/303/82 78/304/82
f 136/305/83 139/306/83 78/307/83 77/308/83
f 140/309/84 137/310/84 79/311/84 81/312/84
f 141/313/85 140/314/85 81/315/85 82/316/85
f 138/317/86 141/318/86 82/319/86 80/320/86
f 143/321/87 142/322/87 83/323/87 85/324/87
f 145/325/88 144/326/88 86/327/88 84/328/88
f 142/329/89 145/330/89 84/331/89 83/332/89
f 146/333/90 143/334/90 85/335/90 87/336/90
f 147/337/91 146/338/91 87/339/91 88/340/91
f 144/341/92 147/342/92 88/343/92 86/344/92
f 149/345/93 148/346/93 65/347/93 67/348/93
f 151/349/94 150/350/94 68/351/94 66/352/94
f 148/353/95 151/354/95 66/355/95 65/356/95
f 152/357/96 149/358/96 67/359/96 69/360/96
f 153/361/97 152/362/97 69/363/97 70/364/97
f 150/365/98 153/366/98 70/367/98 68/368/98
f 155/369/99 154/370/99 130/371/99 131/372/99
f 156/373/100 155/374/100 131/375/100 132/376/100
f 157/377/101 156/378/101 132/379/101 133/380/101
f 154/381/102 158/382/102 134/383/102 130/384/102
f 159/385/103 157/386/103 133/387/103 135/388/103
f 158/389/104 159/390/104 135/391/104 134/392/104
f 161/393/105 160/394/105 136/395/105 137/396/105
f 163/397/106 162/398/106 138/399/106 139/400/106
f 160/401/107 163/402/107 139/403/107 136/404/107
f 164/405/108 161/406/108 137/407/108 140/408/108
f 165/409/109 164/410/109 140/411/109 141/412/109
f 162/413/110 165/414/110 141/415/110 138/416/110
f 167/417/111 166/418/111 142/419/111 143/420/111
f 169/421/112 168/422/112 144/423/112 145/424/112
f 166/425/113 169/426/113 145/427/113 142/428/113
f 170/429/114 167/430/114 143/431/114 146/432/114
f 171/433/115 170/434/115 146/435/115 147/436/115
f 168/437/116 171/438/116 147/439/116 144/440/116
f 173/441/117 172/442/117 148/443/117 149/444/117
f 175/445/118 174/446/118 150/447/118 151/448/118
f 172/449/119 175/450/119 151/451/119 148/452/119
f 176/453/120 173/454/120 149/455/120 152/456/120
f 177/457/121 176/458/121 152/459/121 153/460/121
f 174/461/122 177/462/122 153/463/122 150/464/122
f 179/465/123 178/466/123 82/467/123 84/468/123
f 178/469/124 181/470/124 80/471/124 82/472/124
f 181/473/125 182/474/125 78/475/125 80/476/125
f 182/477/126 183/478/126 76/479/126 78/480/126
f 183/481/127 184/482/127 74/483/127 76/484/127
f 184/485/128 185/486/128 72/487/128 74/488/128
f 185/489/129 186/490/129 70/491/129 72/492/129
f 186/493/130 187/494/130 68/495/130 70/496/130
f 187/497/131 188/498/131 66/499/131 68/500/131
f 188/501/132 189/502/132 88/503/132 66/504/132
f 189/505/133 190/506/133 86/507/133 88/508/133
f 190/509/134 179/510/134 84/511/134 86/512/134
o cylinder_selection_selection
v 0.16340309025946134 0.0625 -0.16340309025946134
v 0.08973281884233116 0.0625 -0.208132938682637
v 0.08973281884233116 0.4375 -0.208132938682637
v 0.16340309025946134 0.4375 -0.16340309025946134
v 0.20813293868263702 0.0625 -0.08973281884233114
v 0.20813293868263702 0.4375 -0.08973281884233114
v -0.08973281884233102 0.0625 -0.20813293868263708
v -0.16340309025946131 0.0625 -0.1634030902594614
v -0.16340309025946131 0.4375 -0.1634030902594614
v -0.08973281884233102 0.4375 -0.20813293868263708
v -0.20813293868263702 0.0625 -0.0897328188423311
v -0.20813293868263702 0.4375 -0.0897328188423311
v -0.20813293868263702 0.0625 0.08973281884233099
v -0.16340309025946134 0.0625 0.16340309025946123
v -0.16340309025946134 0.4375 0.16340309025946123
v -0.20813293868263702 0.4375 0.08973281884233099
v -0.08973281884233109 0.0625 0.20813293868263702
v -0.08973281884233109 0.4375 0.20813293868263702
v 0.08973281884233109 0.0625 0.20813293868263702
v 0.16340309025946131 0.0625 0.16340309025946134
v 0.16340309025946131 0.4375 0.16340309025946134
v 0.08973281884233109 0.4375 0.20813293868263702
v 0.20813293868263702 0.0625 0.08973281884233109
v 0.20813293868263702 0.4375 0.08973281884233109
vt 0.0625 0.625
vt 0.26346250000000004 0.625
vt 0.26346250000000004 0.875
vt 0.0625 0.875
vt 0.0625 0.625
vt 0.26346250000000004 0.625
vt 0.26346250000000004 0.875
vt 0.0625 0.875
vt 0.0625 0.625
vt 0.26346250000000004 0.625
vt 0.26346250000000004 0.875
vt 0.0625 0.875
vt 0.0625 0.625
vt 0.26346250000000004 0.625
vt 0.26346250000000004 0.875
vt 0.0625 0.875
vt 0.0625 0.625
vt 0.26346250000000004 0.625
vt 0.26346250000000004 0.875
vt 0.0625 0.875
vt 0.0625 0.625
vt 0.26346250000000004 0.625
vt 0.26346250000000004 0.875
vt 0.0625 0.875
vt 0.0625 0.625
vt 0.26346250000000004 0.625
vt 0.26346250000000004 0.875
vt 0.0625 0.875
vt 0.0625 0.625
vt 0.26346250000000004 0.625
vt 0.26346250000000004 0.875
vt 0.0625 0.875
vn 0.5189905908925116 0 0.8547799521309808
vn 0.8547799521309808 0 0.5189905908925118
vn 0.8547799521309807 0 -0.5189905908925118
vn 0.5189905908925116 0 -0.8547799521309809
vn -0.5189905908925113 0 -0.8547799521309811
vn -0.8547799521309809 0 -0.5189905908925115
vn -0.8547799521309808 0 0.5189905908925115
vn -0.5189905908925124 0 0.8547799521309802
usemtl m_b169029e-ec3a-eb53-7dea-0115e8ee84c4
f 209/513/135 210/514/135 211/515/135 212/516/135
f 210/517/136 213/518/136 214/519/136 211/520/136
f 195/521/137 191/522/137 194/523/137 196/524/137
f 191/525/138 192/526/138 193/527/138 194/528/138
f 197/529/139 198/530/139 199/531/139 200/532/139
f 198/533/140 201/534/140 202/535/140 199/536/140
f 203/537/141 204/538/141 205/539/141 206/540/141
f 204/541/142 207/542/142 208/543/142 205/544/142