# Made in Blockbench 4.8.1
mtllib Mshifter.mtl

o glowingpart
v -0.5625 0.375 -0.06698729810778067
v -0.5625 0.375 0.06698729810778051
v -0.5556353151840596 0.4853228151840597 0.06698729810778048
v -0.5556353151840596 0.4853228151840597 -0.0669872981077807
v -0.5604799581707873 0.2248561297018723 -0.06698729810778067
v -0.5604799581707873 0.2248561297018723 0.06698729810778051
v -0.06698729810778065 0.375 0.5625
v 0.06698729810778067 0.375 0.5625
v 0.06698729810778067 0.4853228151840597 0.5556353151840596
v -0.06698729810778065 0.4853228151840597 0.5556353151840596
v -0.06698729810778065 0.2248561297018723 0.5604799581707873
v 0.06698729810778067 0.2248561297018723 0.5604799581707873
v 0.5625 0.375 0.06698729810778065
v 0.5625 0.375 -0.0669872981077807
v 0.5556353151840596 0.4853228151840597 -0.0669872981077807
v 0.5556353151840596 0.4853228151840597 0.06698729810778065
v 0.5604799581707873 0.2248561297018723 0.06698729810778065
v 0.5604799581707873 0.2248561297018723 -0.0669872981077807
v 0.06698729810778087 0.375 -0.5624999999999999
v -0.06698729810778045 0.375 -0.5625
v -0.06698729810778045 0.4853228151840597 -0.5556353151840596
v 0.06698729810778087 0.4853228151840597 -0.5556353151840596
v 0.06698729810778084 0.2248561297018723 -0.5604799581707871
v -0.06698729810778047 0.2248561297018723 -0.5604799581707872
v 0.5625 -0.37499999999999994 -0.06698729810778067
v 0.5625 -0.37499999999999994 0.06698729810778051
v 0.5556353151840597 -0.4853228151840596 0.06698729810778048
v 0.5556353151840597 -0.4853228151840596 -0.0669872981077807
v 0.5604799581707873 -0.22485612970187224 -0.06698729810778067
v 0.5604799581707873 -0.22485612970187224 0.06698729810778051
v 0.06698729810778069 -0.375 0.5625
v -0.06698729810778063 -0.375 0.5625
v -0.06698729810778062 -0.4853228151840597 0.5556353151840596
v 0.0669872981077807 -0.4853228151840597 0.5556353151840596
v 0.06698729810778067 -0.2248561297018723 0.5604799581707873
v -0.06698729810778065 -0.2248561297018723 0.5604799581707873
v -0.5625 -0.37500000000000006 0.06698729810778065
v -0.5625 -0.37500000000000006 -0.0669872981077807
v -0.5556353151840595 -0.48532281518405973 -0.0669872981077807
v -0.5556353151840595 -0.48532281518405973 0.06698729810778065
v -0.5604799581707873 -0.22485612970187235 0.06698729810778065
v -0.5604799581707873 -0.22485612970187235 -0.0669872981077807
v -0.06698729810778083 -0.375 -0.5624999999999999
v 0.0669872981077805 -0.375 -0.5625
v 0.06698729810778051 -0.4853228151840597 -0.5556353151840596
v -0.06698729810778081 -0.4853228151840597 -0.5556353151840596
v -0.06698729810778081 -0.2248561297018723 -0.5604799581707871
v 0.0669872981077805 -0.2248561297018723 -0.5604799581707872
vt 0.0625 0.45196250000000004
vt 0.196475 0.45196250000000004
vt 0.196475 0.5625
vt 0.0625 0.5625
vt 0.0625 0.45196250000000004
vt 0.196475 0.45196250000000004
vt 0.196475 0.5625
vt 0.0625 0.5625
vt 0.0625 0.45196250000000004
vt 0.196475 0.45196250000000004
vt 0.196475 0.5625
vt 0.0625 0.5625
vt 0.0625 0.45196250000000004
vt 0.196475 0.45196250000000004
vt 0.196475 0.5625
vt 0.0625 0.5625
vt 0.0625 0.84984375
vt 0.196475 0.84984375
vt 0.196475 1
vt 0.0625 1
vt 0.0625 0.66234375
vt 0.196475 0.66234375
vt 0.196475 0.8125
vt 0.0625 0.8125
vt 0.1875 0.84984375
vt 0.321475 0.84984375
vt 0.321475 1
vt 0.1875 1
vt 0.0625 0.84984375
vt 0.196475 0.84984375
vt 0.196475 1
vt 0.0625 1
vt 0.0625 0.45196250000000004
vt 0.196475 0.45196250000000004
vt 0.196475 0.5625
vt 0.0625 0.5625
vt 0.0625 0.45196250000000004
vt 0.196475 0.45196250000000004
vt 0.196475 0.5625
vt 0.0625 0.5625
vt 0.0625 0.45196250000000004
vt 0.196475 0.45196250000000004
vt 0.196475 0.5625
vt 0.0625 0.5625
vt 0.0625 0.45196250000000004
vt 0.196475 0.45196250000000004
vt 0.196475 0.5625
vt 0.0625 0.5625
vt 0.0625 0.84984375
vt 0.196475 0.84984375
vt 0.196475 1
vt 0.0625 1
vt 0.0625 0.66234375
vt 0.196475 0.66234375
vt 0.196475 0.8125
vt 0.0625 0.8125
vt 0.1875 0.84984375
vt 0.321475 0.84984375
vt 0.321475 1
vt 0.1875 1
vt 0.0625 0.84984375
vt 0.196475 0.84984375
vt 0.196475 1
vt 0.0625 1
vn 0.9980697140460987 0.06210350959437954 0
vn 8.270821543900424e-16 0.06210350959437954 -0.9980697140460987
vn -0.9980697140460987 0.06210350959437954 0
vn 0 0.06210350959437954 0.9980697140460987
vn -0.9999095066716387 -0.013452823780907319 0
vn 8.28606756957326e-16 -0.013452823780908058 -0.9999095066716387
vn 0.9999095066716387 -0.01345282378090732 0
vn 0 -0.013452823780907317 0.9999095066716387
vn -0.9980697140460986 -0.06210350959438054 0
vn -8.270821543900424e-16 -0.06210350959437954 -0.9980697140460987
vn 0.9980697140460987 -0.06210350959437854 0
vn 0 -0.06210350959437954 0.9980697140460987
vn 0.9999095066716387 0.013452823780907319 0
vn -8.28606756957326e-16 0.013452823780908058 -0.9999095066716387
vn -0.9999095066716387 0.01345282378090732 0
vn 0 0.013452823780907317 0.9999095066716387
usemtl m_46918859-2b9a-3a03-6f81-b2646d2c8bc0
f 13/1/1 14/2/1 15/3/1 16/4/1
f 19/5/2 20/6/2 21/7/2 22/8/2
f 1/9/3 2/10/3 3/11/3 4/12/3
f 7/13/4 8/14/4 9/15/4 10/16/4
f 5/17/5 6/18/5 2/19/5 1/20/5
f 23/21/6 24/22/6 20/23/6 19/24/6
f 17/25/7 18/26/7 14/27/7 13/28/7
f 11/29/8 12/30/8 8/31/8 7/32/8
f 37/33/9 38/34/9 39/35/9 40/36/9
f 43/37/10 44/38/10 45/39/10 46/40/10
f 25/41/11 26/42/11 27/43/11 28/44/11
f 31/45/12 32/46/12 33/47/12 34/48/12
f 29/49/13 30/50/13 26/51/13 25/52/13
f 47/53/14 48/54/14 44/55/14 43/56/14
f 41/57/15 42/58/15 38/59/15 37/60/15
f 35/61/16 36/62/16 32/63/16 31/64/16
o top
v -0.11722777168861624 -0.5625 -0.4374999999999999
v 0.11722777168861606 -0.5625 -0.4375
v -0.43749999999999994 -0.5625 0.11722777168861617
v -0.43749999999999994 -0.5625 -0.1172277716886162
v 0.1172277716886162 -0.5625 0.4375
v -0.1172277716886161 -0.5625 0.4375
v 0.43749999999999994 -0.5625 -0.1172277716886161
v 0.43750000000000006 -0.5625 0.11722777168861598
v -0.32027222831138374 -0.5625 -0.3202722283113838
v -0.32027222831138374 -0.5625 0.3202722283113838
v 0.32027222831138386 -0.5625 -0.3202722283113839
v 0.32027222831138397 -0.5625 0.3202722283113837
v 6.426045318276713e-17 -0.5625 4.625929269271488e-18
v 0.11722777168861631 0.5625 -0.4374999999999999
v -0.11722777168861599 0.5625 -0.4375
v 0.4375 0.5625 0.11722777168861617
v 0.4375 0.5625 -0.1172277716886162
v -0.11722777168861613 0.5625 0.4375
v 0.11722777168861617 0.5625 0.4375
v -0.4374999999999999 0.5625 -0.1172277716886161
v -0.4375 0.5625 0.11722777168861598
v 0.3202722283113838 0.5625 -0.3202722283113838
v 0.3202722283113838 0.5625 0.3202722283113838
v -0.3202722283113838 0.5625 -0.3202722283113839
v -0.3202722283113839 0.5625 0.3202722283113837
v 4.625929269271494e-18 0.5625 4.625929269271488e-18
vt 0 0.5492713539657815
vt 0.19411381635893044 0.6012844225772749
vt 6.938893903907228e-17 0.9375
vt 2.7755575615628914e-17 0.5492718606242909
vt 0.19411406968785458 0.6012839837979439
vt 0 0.9375
vt 0.45072864603421847 0.7433861836410696
vt 0.39871557742272506 0.9375
vt 0.0625 0.7433861836410696
vt 0.4507281393757091 0.7433859303121455
vt 0.3987160162020561 0.9375
vt 0.0625 0.7433859303121454
vt 0.25661381635893044 0.9375
vt 0.0625 0.8854869313885065
vt 0.25661381635893055 0.5492713539657815
vt 0.25661406968785455 0.9375
vt 0.0625 0.885487876826347
vt 0.2566140696878546 0.5492718606242909
vt 0.0625 1
vt 0.11451306861149341 0.8058861836410696
vt 0.45072864603421847 0.9999999999999999
vt 0.0625 1
vt 0.114512123173653 0.8058859303121454
vt 0.4507281393757091 1
vt 0 0.5492713539657815
vt 0.19411381635893044 0.6012844225772749
vt 6.938893903907228e-17 0.9375
vt 2.7755575615628914e-17 0.5492718606242909
vt 0.19411406968785458 0.6012839837979439
vt 0 0.9375
vt 0.45072864603421847 0.7433861836410696
vt 0.39871557742272506 0.9375
vt 0.0625 0.7433861836410696
vt 0.4507281393757091 0.7433859303121455
vt 0.3987160162020561 0.9375
vt 0.0625 0.7433859303121454
vt 0.25661381635893044 0.9375
vt 0.0625 0.8854869313885065
vt 0.25661381635893055 0.5492713539657815
vt 0.25661406968785455 0.9375
vt 0.0625 0.885487876826347
vt 0.2566140696878546 0.5492718606242909
vt 0.0625 1
vt 0.11451306861149341 0.8058861836410696
vt 0.45072864603421847 0.9999999999999999
vt 0.0625 1
vt 0.114512123173653 0.8058859303121454
vt 0.4507281393757091 1
vn 1.2246467991473532e-16 -1 0
vn 1.2246467991473532e-16 -1 0
vn 1.2246467991473532e-16 -1 0
vn 1.2246467991473532e-16 -1 0
vn 1.2246467991473532e-16 -1 0
vn 1.2246467991473532e-16 -1 0
vn 1.2246467991473532e-16 -1 0
vn 1.2246467991473532e-16 -1 0
vn -1.2246467991473532e-16 1 0
vn -1.2246467991473532e-16 1 0
vn -1.2246467991473532e-16 1 0
vn -1.2246467991473532e-16 1 0
vn -1.2246467991473532e-16 1 0
vn -1.2246467991473532e-16 1 0
vn -1.2246467991473532e-16 1 0
vn -1.2246467991473532e-16 1 0
usemtl m_02463f83-72b4-f268-846f-690817f1bf03
f 54/65/17 58/66/17 61/67/17
f 58/68/18 51/69/18 61/70/18
f 52/71/19 57/72/19 61/73/19
f 57/74/20 49/75/20 61/76/20
f 50/77/21 59/78/21 61/79/21
f 59/80/22 55/81/22 61/82/22
f 56/83/23 60/84/23 61/85/23
f 60/86/24 53/87/24 61/88/24
f 67/89/25 71/90/25 74/91/25
f 71/92/26 64/93/26 74/94/26
f 65/95/27 70/96/27 74/97/27
f 70/98/28 62/99/28 74/100/28
f 63/101/29 72/102/29 74/103/29
f 72/104/30 68/105/30 74/106/30
f 69/107/31 73/108/31 74/109/31
f 73/110/32 66/111/32 74/112/32
o cylinder
v 4.592425496802574e-17 -0.375 0
v -0.13397459621556126 -0.375 0.49999999999999994
v -0.13397459621556126 -0.5 0.49999999999999994
v -0.36602540378443854 -0.37500000000000006 0.36602540378443865
v -0.36602540378443854 -0.5 0.36602540378443865
v -0.4999999999999999 -0.37500000000000006 0.13397459621556132
v -0.4999999999999999 -0.5000000000000001 0.13397459621556132
v -0.4999999999999999 -0.37500000000000006 -0.13397459621556138
v -0.4999999999999999 -0.5000000000000001 -0.13397459621556138
v -0.3660254037844386 -0.37500000000000006 -0.3660254037844386
v -0.3660254037844386 -0.5 -0.3660254037844386
v -0.13397459621556143 -0.375 -0.4999999999999999
v -0.13397459621556143 -0.5 -0.4999999999999999
v 0.13397459621556118 -0.375 -0.5
v 0.13397459621556118 -0.5 -0.5
v 0.36602540378443865 -0.37499999999999994 -0.3660254037844387
v 0.36602540378443865 -0.49999999999999994 -0.3660254037844387
v 0.5 -0.37499999999999994 -0.13397459621556126
v 0.5 -0.49999999999999994 -0.13397459621556126
v 0.5 -0.37499999999999994 0.1339745962155611
v 0.5000000000000001 -0.49999999999999994 0.1339745962155611
v 0.36602540378443876 -0.37499999999999994 0.36602540378443854
v 0.36602540378443876 -0.49999999999999994 0.36602540378443854
v 0.13397459621556135 -0.375 0.49999999999999994
v 0.13397459621556135 -0.5 0.49999999999999994
v 0.5 -0.18749999999999994 0.1339745962155611
v 0.49999999999999994 -0.18749999999999994 -0.13397459621556126
v 2.296212748401287e-17 -0.1875 0
v 0.13397459621556115 -0.18749999999999997 -0.5
v -0.13397459621556146 -0.18750000000000003 -0.4999999999999999
v -0.49999999999999994 -0.18750000000000006 -0.13397459621556138
v -0.49999999999999994 -0.18750000000000006 0.13397459621556132
v -0.1339745962155613 -0.18750000000000003 0.49999999999999994
v 0.13397459621556132 -0.18749999999999997 0.49999999999999994
v -0.41666666666666663 -5.1026949964473046e-17 -0.0669872981077807
v -0.41666666666666663 -5.1026949964473046e-17 0.06698729810778065
v 0 0 0
v 0.06698729810778051 8.203578021122295e-18 -0.41666666666666663
v -0.0669872981077808 -8.20357802112233e-18 -0.41666666666666663
v 0.41666666666666663 5.1026949964473046e-17 0.06698729810778052
v 0.41666666666666663 5.1026949964473046e-17 -0.06698729810778066
v -0.06698729810778066 -8.203578021122313e-18 0.41666666666666663
v 0.06698729810778065 8.203578021122312e-18 0.41666666666666663
v -0.11722777168861624 -0.5625 -0.4374999999999999
v 0.11722777168861606 -0.5625 -0.4375
v -0.43749999999999994 -0.5625 0.11722777168861617
v -0.43749999999999994 -0.5625 -0.1172277716886162
v 0.1172277716886162 -0.5625 0.4375
v -0.1172277716886161 -0.5625 0.4375
v 0.43749999999999994 -0.5625 -0.1172277716886161
v 0.43750000000000006 -0.5625 0.11722777168861598
v -0.32027222831138374 -0.5625 -0.3202722283113838
v -0.32027222831138374 -0.5625 0.3202722283113838
v 0.32027222831138386 -0.5625 -0.3202722283113839
v 0.32027222831138397 -0.5625 0.3202722283113837
v 6.426045318276713e-17 -0.5625 4.625929269271488e-18
v 0.11722777168861605 -0.6158470869120796 -0.4595970869120796
v -0.11722777168861626 -0.6158470869120796 -0.4595970869120795
v -0.13397459621556146 -0.5220970869120796 -0.5533470869120795
v 0.13397459621556115 -0.5220970869120796 -0.5533470869120796
v 6.617396380643486e-17 -0.578125 4.625929269271488e-18
v -0.13397459621556146 -0.375 -0.5624999999999999
v 0.13397459621556115 -0.375 -0.5625
v -0.13397459621556146 -0.1748081729358298 -0.5598066108943829
v 0.13397459621556115 -0.17480817293582973 -0.559806610894383
v -0.45959708691207957 -0.6158470869120797 0.11722777168861617
v -0.45959708691207957 -0.6158470869120797 -0.1172277716886162
v -0.5533470869120795 -0.5220970869120797 0.13397459621556132
v -0.5533470869120795 -0.5220970869120797 -0.13397459621556138
v -0.5625 -0.37500000000000006 0.13397459621556132
v -0.5625 -0.37500000000000006 -0.13397459621556138
v -0.559806610894383 -0.17480817293582981 0.13397459621556132
v -0.559806610894383 -0.17480817293582981 -0.13397459621556138
v -0.0669872981077808 -0.037116345871659524 -0.4737798884554327
v 0.06698729810778051 -0.03711634587165951 -0.4737798884554327
v -0.47377988845543273 -0.03711634587165959 0.06698729810778065
v -0.47377988845543273 -0.03711634587165959 -0.0669872981077807
v 0.45959708691207957 -0.6158470869120795 -0.11722777168861612
v 0.4595970869120797 -0.6158470869120795 0.11722777168861596
v 0.5533470869120797 -0.5220970869120795 -0.1339745962155613
v 0.5533470869120797 -0.5220970869120795 0.13397459621556107
v 0.5625 -0.37499999999999994 -0.13397459621556126
v 0.5625 -0.37499999999999994 0.1339745962155611
v 0.559806610894383 -0.1748081729358297 -0.13397459621556126
v 0.559806610894383 -0.1748081729358297 0.1339745962155611
v 0.4737798884554327 -0.03711634587165946 -0.06698729810778066
v 0.4737798884554327 -0.03711634587165946 0.06698729810778052
v 0.1172277716886162 -0.6158470869120796 0.4595970869120796
v -0.1172277716886161 -0.6158470869120796 0.4595970869120796
v 0.13397459621556135 -0.5220970869120796 0.5533470869120796
v -0.13397459621556126 -0.5220970869120796 0.5533470869120796
v 0.13397459621556135 -0.375 0.5625
v -0.13397459621556126 -0.375 0.5625
v 0.13397459621556132 -0.17480817293582973 0.559806610894383
v -0.1339745962155613 -0.1748081729358298 0.559806610894383
v 0.06698729810778065 -0.037116345871659524 0.47377988845543273
v -0.06698729810778066 -0.03711634587165954 0.47377988845543273
v 0.5625 -0.37499999999999994 -0.06698729810778067
v 0.5625 -0.37499999999999994 0.06698729810778051
v 0.5556353151840597 -0.4853228151840596 0.06698729810778048
v 0.5556353151840597 -0.4853228151840596 -0.0669872981077807
v 0.5604799581707873 -0.22485612970187224 -0.06698729810778067
v 0.5604799581707873 -0.22485612970187224 0.06698729810778051
v 0.06698729810778069 -0.375 0.5625
v -0.06698729810778063 -0.375 0.5625
v -0.06698729810778062 -0.4853228151840597 0.5556353151840596
v 0.0669872981077807 -0.4853228151840597 0.5556353151840596
v 0.06698729810778067 -0.2248561297018723 0.5604799581707873
v -0.06698729810778065 -0.2248561297018723 0.5604799581707873
v -0.5625 -0.37500000000000006 0.06698729810778065
v -0.5625 -0.37500000000000006 -0.0669872981077807
v -0.5556353151840595 -0.48532281518405973 -0.0669872981077807
v -0.5556353151840595 -0.48532281518405973 0.06698729810778065
v -0.5604799581707873 -0.22485612970187235 0.06698729810778065
v -0.5604799581707873 -0.22485612970187235 -0.0669872981077807
v -0.06698729810778083 -0.375 -0.5624999999999999
v 0.0669872981077805 -0.375 -0.5625
v 0.06698729810778051 -0.4853228151840597 -0.5556353151840596
v -0.06698729810778081 -0.4853228151840597 -0.5556353151840596
v -0.06698729810778081 -0.2248561297018723 -0.5604799581707871
v 0.0669872981077805 -0.2248561297018723 -0.5604799581707872
v 0 0.375 0
v 0.13397459621556132 0.375 0.49999999999999994
v 0.13397459621556132 0.5 0.49999999999999994
v 0.3660254037844386 0.375 0.36602540378443865
v 0.3660254037844386 0.5 0.36602540378443865
v 0.49999999999999994 0.375 0.13397459621556132
v 0.49999999999999994 0.5 0.13397459621556132
v 0.49999999999999994 0.375 -0.13397459621556138
v 0.49999999999999994 0.5 -0.13397459621556138
v 0.36602540378443865 0.375 -0.3660254037844386
v 0.36602540378443865 0.5 -0.3660254037844386
v 0.1339745962155615 0.375 -0.4999999999999999
v 0.1339745962155615 0.5 -0.4999999999999999
v -0.13397459621556113 0.375 -0.5
v -0.13397459621556113 0.5 -0.5
v -0.3660254037844386 0.375 -0.3660254037844387
v -0.3660254037844386 0.49999999999999994 -0.3660254037844387
v -0.49999999999999994 0.375 -0.13397459621556126
v -0.49999999999999994 0.5 -0.13397459621556126
v -0.5 0.375 0.1339745962155611
v -0.5 0.5 0.1339745962155611
v -0.3660254037844387 0.375 0.36602540378443854
v -0.3660254037844387 0.49999999999999994 0.36602540378443854
v -0.1339745962155613 0.375 0.49999999999999994
v -0.1339745962155613 0.5 0.49999999999999994
v -0.5 0.1875 0.1339745962155611
v -0.49999999999999994 0.1875 -0.13397459621556126
v 0 0.1875 0
v -0.13397459621556113 0.1875 -0.5
v 0.1339745962155615 0.1875 -0.4999999999999999
v 0.49999999999999994 0.1875 -0.13397459621556138
v 0.49999999999999994 0.1875 0.13397459621556132
v 0.13397459621556132 0.1875 0.49999999999999994
v -0.1339745962155613 0.1875 0.49999999999999994
v 0.41666666666666663 0 -0.0669872981077807
v 0.41666666666666663 0 0.06698729810778065
v 0 0 0
v -0.06698729810778051 0 -0.41666666666666663
v 0.0669872981077808 0 -0.41666666666666663
v -0.41666666666666663 0 0.06698729810778052
v -0.41666666666666663 0 -0.06698729810778066
v 0.06698729810778066 0 0.41666666666666663
v -0.06698729810778065 0 0.41666666666666663
v 0.11722777168861631 0.5625 -0.4374999999999999
v -0.11722777168861599 0.5625 -0.4375
v 0.4375 0.5625 0.11722777168861617
v 0.4375 0.5625 -0.1172277716886162
v -0.11722777168861613 0.5625 0.4375
v 0.11722777168861617 0.5625 0.4375
v -0.4374999999999999 0.5625 -0.1172277716886161
v -0.4375 0.5625 0.11722777168861598
v 0.3202722283113838 0.5625 -0.3202722283113838
v 0.3202722283113838 0.5625 0.3202722283113838
v -0.3202722283113838 0.5625 -0.3202722283113839
v -0.3202722283113839 0.5625 0.3202722283113837
v 4.625929269271494e-18 0.5625 4.625929269271488e-18
v -0.11722777168861598 0.6158470869120796 -0.4595970869120796
v 0.11722777168861633 0.6158470869120796 -0.4595970869120795
v 0.13397459621556151 0.5220970869120796 -0.5533470869120795
v -0.1339745962155611 0.5220970869120796 -0.5533470869120796
v 4.625929269271494e-18 0.578125 4.625929269271488e-18
v 0.13397459621556151 0.375 -0.5624999999999999
v -0.1339745962155611 0.375 -0.5625
v 0.1339745962155615 0.17480817293582976 -0.5598066108943829
v -0.13397459621556113 0.17480817293582976 -0.559806610894383
v 0.4595970869120796 0.6158470869120796 0.11722777168861617
v 0.4595970869120796 0.6158470869120796 -0.1172277716886162
v 0.5533470869120796 0.5220970869120796 0.13397459621556132
v 0.5533470869120796 0.5220970869120796 -0.13397459621556138
v 0.5625 0.375 0.13397459621556132
v 0.5625 0.375 -0.13397459621556138
v 0.559806610894383 0.17480817293582976 0.13397459621556132
v 0.559806610894383 0.17480817293582976 -0.13397459621556138
v 0.0669872981077808 0.03711634587165952 -0.4737798884554327
v -0.06698729810778051 0.03711634587165952 -0.4737798884554327
v 0.47377988845543273 0.03711634587165953 0.06698729810778065
v 0.47377988845543273 0.03711634587165953 -0.0669872981077807
v -0.4595970869120795 0.6158470869120796 -0.11722777168861612
v -0.4595970869120796 0.6158470869120796 0.11722777168861596
v -0.5533470869120796 0.5220970869120796 -0.1339745962155613
v -0.5533470869120796 0.5220970869120796 0.13397459621556107
v -0.5625 0.375 -0.13397459621556126
v -0.5625 0.375 0.1339745962155611
v -0.559806610894383 0.17480817293582976 -0.13397459621556126
v -0.559806610894383 0.17480817293582976 0.1339745962155611
v -0.4737798884554327 0.03711634587165952 -0.06698729810778066
v -0.4737798884554327 0.03711634587165952 0.06698729810778052
v -0.11722777168861613 0.6158470869120796 0.4595970869120796
v 0.11722777168861617 0.6158470869120796 0.4595970869120796
v -0.1339745962155613 0.5220970869120796 0.5533470869120796
v 0.13397459621556132 0.5220970869120796 0.5533470869120796
v -0.1339745962155613 0.375 0.5625
v 0.13397459621556132 0.375 0.5625
v -0.1339745962155613 0.17480817293582976 0.559806610894383
v 0.13397459621556132 0.17480817293582976 0.559806610894383
v -0.06698729810778065 0.03711634587165953 0.47377988845543273
v 0.06698729810778066 0.03711634587165953 0.47377988845543273
v -0.5625 0.375 -0.06698729810778067
v -0.5625 0.375 0.06698729810778051
v -0.5556353151840596 0.4853228151840597 0.06698729810778048
v -0.5556353151840596 0.4853228151840597 -0.0669872981077807
v -0.5604799581707873 0.2248561297018723 -0.06698729810778067
v -0.5604799581707873 0.2248561297018723 0.06698729810778051
v -0.06698729810778065 0.375 0.5625
v 0.06698729810778067 0.375 0.5625
v 0.06698729810778067 0.4853228151840597 0.5556353151840596
v -0.06698729810778065 0.4853228151840597 0.5556353151840596
v -0.06698729810778065 0.2248561297018723 0.5604799581707873
v 0.06698729810778067 0.2248561297018723 0.5604799581707873
v 0.5625 0.375 0.06698729810778065
v 0.5625 0.375 -0.0669872981077807
v 0.5556353151840596 0.4853228151840597 -0.0669872981077807
v 0.5556353151840596 0.4853228151840597 0.06698729810778065
v 0.5604799581707873 0.2248561297018723 0.06698729810778065
v 0.5604799581707873 0.2248561297018723 -0.0669872981077807
v 0.06698729810778087 0.375 -0.5624999999999999
v -0.06698729810778045 0.375 -0.5625
v -0.06698729810778045 0.4853228151840597 -0.5556353151840596
v 0.06698729810778087 0.4853228151840597 -0.5556353151840596
v 0.06698729810778084 0.2248561297018723 -0.5604799581707871
v -0.06698729810778047 0.2248561297018723 -0.5604799581707872
vt 0.5176375191676121 0.7411812404161939
vt 0.44828802160274145 1
vt 0 0.7411812404161939
vt 0 0
vt 0.26795 0
vt 0.26795 1
vt 0 1
vt 0.5176381947122913 0.7411815781880927
vt 0.44828743656363346 1
vt 0 0.7411815781880928
vt 0 0
vt 0.26795 0
vt 0.26795 1
vt 0 1
vt 0.47916875 0.803525
vt 0.47916875 0.9375
vt 0.0625 0.8705125
vt 0.4375 0.7365375000000001
vt 0.4375 0.9375
vt 0.0625 0.83701875
vt 5.551115123125783e-17 0.48236248083238786
vt 0.25881875958380607 0.5517119783972586
vt 0 1
vt 0 0
vt 0.26795 0
vt 0.26795 1
vt 0 1
vt 0 0.48236180528770867
vt 0.2588184218119073 0.5517125634363665
vt 8.326672684688674e-17 1
vt 0 0
vt 0.26795 0
vt 0.26795 1
vt 0 1
vt 0.0625 0.5208312500000001
vt 0.196475 0.5208312500000001
vt 0.1294875 0.9375
vt 0.2634625 0.9375
vt 0.0625 0.9375
vt 0.16298125 0.5625
vt 0 1
vt 0.06934949756487069 0.7411812404161939
vt 0.5176375191676121 1
vt 0 0
vt 0.26795 0
vt 0.26795 1
vt 0 1
vt 0 1
vt 0.06935075814865788 0.7411815781880927
vt 0.5176381947122913 0.9999999999999999
vt 0 0
vt 0.26795 0
vt 0.26795 1
vt 0 1
vt 0.0625 0.9375
vt 0.0625 0.803525
vt 0.47916875 0.8705125
vt 0.0625 0.9375
vt 0.0625 0.7365375000000001
vt 0.4375 0.83701875
vt 0.258818759583806 1
vt 0 0.9306505024351293
vt 0.25881875958380607 0.48236248083238786
vt 0 0
vt 0.26795 0
vt 0.26795 1
vt 0 1
vt 0.2588184218119073 1
vt 0 0.9306492418513421
vt 0.2588184218119072 0.48236180528770867
vt 0 0
vt 0.26795 0
vt 0.26795 1
vt 0 1
vt 0.196475 0.9375
vt 0.0625 0.9375
vt 0.1294875 0.5208312500000001
vt 0.0625 0.5625
vt 0.2634625 0.5625
vt 0.16298125 0.9375
vt 0 0.875
vt 0.5176375 0.875
vt 0.5176375 0.9375
vt 0 0.9375
vt 0 0.9375
vt 0.5176375 0.9375
vt 0.5176375 1
vt 0 1
vt 0 0.8125
vt 0.5176375 0.8125
vt 0.5176375 0.875
vt 0 0.875
vt 0 0.8125
vt 0.5176375 0.8125
vt 0.5176375 0.875
vt 0 0.875
vt 0 0.9375
vt 0.5176375 0.9375
vt 0.5176375 1
vt 0 1
vt 0 0.875
vt 0.5176375 0.875
vt 0.5176375 0.9375
vt 0 0.9375
vt 0 0.8125
vt 0.5176375 0.8125
vt 0.5176375 0.875
vt 0 0.875
vt 0 0.8125
vt 0.5176375 0.8125
vt 0.5176375 0.875
vt 0 0.875
vt 0.4375 0.9330125
vt 0.4375 0.7990375
vt 0.5208312500000001 0.73205
vt 0.5208312500000001 1
vt 0 1
vt 0.41666875 0.9330125
vt 0.5 0.866025
vt 0 1
vt 0.41666875 0.8080125
vt 0 0.741025
vt 0 0.741025
vt 0.5 0.875
vt 0.20096250000000002 0.5625
vt 0.0669875 0.5625
vt 0 0.4791687499999999
vt 0.26795 0.4791687499999999
vt 0.125 0.5
vt 0.1919875 0.9166687499999999
vt 0.258975 1
vt 0.125 0.5
vt 0.0669875 0.9166687499999999
vt 0.133975 0.5
vt 0.133975 0.5
vt 0 1
vt 0.08333125000000002 0.7990375
vt 0.08333125000000002 0.9330125
vt 0 1
vt 0 0.73205
vt 0.5 0.741025
vt 0.08333125000000002 0.8080125
vt 0 0.875
vt 0.5 0.741025
vt 0.08333125000000002 0.9330125
vt 0.5 1
vt 0.5 1
vt 0 0.866025
vt 0.0669875 0.9166687499999999
vt 0.20096250000000002 0.9166687499999999
vt 0.26795 1
vt 0 1
vt 0.133975 1
vt 0.0669875 0.5833312500000001
vt 0 0.5
vt 0.133975 1
vt 0.1919875 0.5833312500000001
vt 0.125 1
vt 0.125 1
vt 0.258975 0.5
vt 0.03349375000000002 0.875
vt 0.23445625 0.875
vt 0.26795 1
vt 0 1
vt 0.4375 0.96650625
vt 0.4375 0.76554375
vt 0.5625 0.73205
vt 0.5625 1
vt 0.23445625 0.5625
vt 0.03349375000000002 0.5625
vt 0 0.4375
vt 0.26795 0.4375
vt 0.125 0.76554375
vt 0.125 0.96650625
vt 0 1
vt 0 0.73205
vt 0.375 0.9665060868678602
vt 0.3750000000000001 0.7655445656559314
vt 0.49999995628862914 0.7320513050507617
vt 0.4999999562886291 1
vt 0.37500000000000006 0.9665067393948301
vt 0.375 0.7655452181829014
vt 0.4999999562886291 0.7320513050507617
vt 0.49999995628862914 1
vt 0.23445478181709853 0.625
vt 0.0334932606051698 0.6249999999999999
vt 0 0.5000000437113709
vt 0.26794869494923834 0.500000043711371
vt 0.23445543434406851 0.625
vt 0.03349391313213977 0.625
vt 0 0.500000043711371
vt 0.26794869494923834 0.5000000437113709
vt 0.03349326060516983 0.812500043711371
vt 0.23445478181709856 0.8125000437113709
vt 0.26794869494923834 0.9375
vt 0 0.9375
vt 0.03349391313213963 0.812500043711371
vt 0.2344554343440684 0.8125000437113707
vt 0.2679486949492383 0.9374999999999998
vt 0 0.9375
vt 0.18749995628862914 0.7655445656559314
vt 0.1874999562886291 0.9665060868678603
vt 0.0625 1
vt 0.06250000000000006 0.7320513050507615
vt 0.18749995628862914 0.7655452181829014
vt 0.18749995628862903 0.9665067393948302
vt 0.0625 1
vt 0.06250000000000006 0.7320513050507617
vt 0.11591636239340186 0.8663627923022559
vt 0.11591636239340186 1
vt 0.0625 0.9780754320046716
vt 0.06278712238931083 0.8882867435391497
vt 0.12353703698942861 1
vt 0 0.949030212076809
vt 0.040639820162863494 0.9080081903429877
vt 0.12353703698942864 0.9425196959684232
vt 0.47432509801795497 0.875
vt 0 0.8664742128511556
vt 0.021348753997806225 0.8128188128177837
vt 0.4742367115218637 0.8128188128177838
vt 0.4743125 0.92835
vt 0 0.9375
vt 0 0.875
vt 0.4529 0.875
vt 0.13415 0.8125
vt 0.125 0.6654
vt 0.1875 0.6654
vt 0.1875 0.7904
vt 0.0625 0.6654
vt 0.05335000000000001 0.8125
vt 0 0.7904
vt 0 0.6654
vt 0.1875 0.9375
vt 0.1875 0.7372881276544145
vt 0.2474716246061306 0.7491760656684835
vt 0.24999434276006804 0.9366590939486875
vt 0.05980624999999995 0.73730625
vt 0.0625 0.9375
vt 0 0.9375
vt 0 0.75
vt 0.47432509801795497 0.9375
vt 0 0.9289742128511556
vt 0.021348753997806225 0.8753188128177837
vt 0.4742367115218637 0.8753188128177838
vt 0.4743125 0.92835
vt 0 0.9375
vt 0 0.875
vt 0.4529 0.875
vt 0.24091636239340186 0.8038627923022559
vt 0.24091636239340186 0.9375
vt 0.1875 0.9155754320046716
vt 0.18778712238931083 0.8257867435391497
vt 0.31103703698942864 1
vt 0.1875 0.949030212076809
vt 0.2281398201628635 0.9080081903429877
vt 0.31103703698942864 0.9425196959684232
vt 0.13415 0.8125
vt 0.125 0.6654
vt 0.1875 0.6654
vt 0.1875 0.7904
vt 0.0625 0.6654
vt 0.05335000000000001 0.8125
vt 0 0.7904
vt 0 0.6654
vt 0.25 1
vt 0.25 0.7997881276544145
vt 0.3099716246061306 0.8116760656684835
vt 0.31249434276006804 0.9991590939486875
vt 0.12230624999999995 0.79980625
vt 0.125 1
vt 0.0625 1
vt 0.0625 0.8125
vt 0 0.75
vt 0.133975 0.75
vt 0.133975 0.8125
vt 0 0.8125
vt 0 0.875
vt 5.551115123125783e-17 0.6470440952042479
vt 0.06249668664106256 0.6477804944769512
vt 0.059942703117268015 0.8635742324849681
vt 0 0.7501246462602151
vt 0.22795248416953584 0.7501246462602151
vt 0.2165301278759716 0.8101880045018701
vt 0.0007363416066686057 0.8125
vt 0.1875 0.9375
vt 0.321475 0.9375
vt 0.321475 1
vt 0.1875 1
vt 0.1875 1
vt 0.18750000000000006 0.7720440952042479
vt 0.24999668664106256 0.7727804944769512
vt 0.24744270311726801 0.9885742324849681
vt 0.0625 0.9376246462602151
vt 0.29045248416953584 0.9376246462602151
vt 0.2790301278759716 0.9976880045018701
vt 0.0632363416066686 1
vt 0.47432509801795497 0.875
vt 0 0.8664742128511556
vt 0.021348753997806225 0.8128188128177837
vt 0.4742367115218637 0.8128188128177838
vt 0.4743125 0.99085
vt 0 1
vt 0 0.9375
vt 0.4529 0.9375
vt 0.05341636239340186 0.8663627923022559
vt 0.05341636239340186 1
vt 0 0.9780754320046716
vt 0.00028712238931083434 0.8882867435391497
vt 0.12353703698942861 0.875
vt 0 0.824030212076809
vt 0.040639820162863494 0.7830081903429877
vt 0.12353703698942864 0.8175196959684232
vt 0.13415 0.8125
vt 0.125 0.6654
vt 0.1875 0.6654
vt 0.1875 0.7904
vt 0.0625 0.6654
vt 0.05335000000000001 0.8125
vt 0 0.7904
vt 0 0.6654
vt 0.1875 1
vt 0.1875 0.7997881276544145
vt 0.2474716246061306 0.8116760656684835
vt 0.24999434276006804 0.9991590939486875
vt 0.05980624999999995 0.79980625
vt 0.0625 1
vt 0 1
vt 0 0.8125
vt 0 0.9375
vt 0.133975 0.9375
vt 0.133975 1
vt 0 1
vt 0 1
vt 5.551115123125783e-17 0.7720440952042479
vt 0.06249668664106256 0.7727804944769512
vt 0.059942703117268015 0.9885742324849681
vt 0 0.8751246462602151
vt 0.22795248416953584 0.8751246462602151
vt 0.2165301278759716 0.9351880045018701
vt 0.0007363416066686057 0.9375
vt 0.47432509801795497 0.875
vt 0 0.8664742128511556
vt 0.021348753997806225 0.8128188128177837
vt 0.4742367115218637 0.8128188128177838
vt 0.4743125 0.92835
vt 0 0.9375
vt 0 0.875
vt 0.4529 0.875
vt 0.05341636239340186 0.6788627923022559
vt 0.05341636239340186 0.8125
vt 0 0.7905754320046716
vt 0.00028712238931083434 0.7007867435391497
vt 0.1860370369894286 0.75
vt 0.0625 0.699030212076809
vt 0.1031398201628635 0.6580081903429877
vt 0.18603703698942864 0.6925196959684232
vt 0.13415 0.8125
vt 0.125 0.6654
vt 0.1875 0.6654
vt 0.1875 0.7904
vt 0.0625 0.6654
vt 0.05335000000000001 0.8125
vt 0 0.7904
vt 0 0.6654
vt 0.1875 1
vt 0.1875 0.7997881276544145
vt 0.2474716246061306 0.8116760656684835
vt 0.24999434276006804 0.9991590939486875
vt 0.05980624999999995 0.79980625
vt 0.0625 1
vt 0 1
vt 0 0.8125
vt 0 0.9375
vt 0.133975 0.9375
vt 0.133975 1
vt 0 1
vt 0.125 1
vt 0.12500000000000006 0.7720440952042479
vt 0.18749668664106256 0.7727804944769512
vt 0.18494270311726801 0.9885742324849681
vt 0 0.9376246462602151
vt 0.22795248416953584 0.9376246462602151
vt 0.2165301278759716 0.9976880045018701
vt 0.0007363416066686057 1
vt 0.25 0.5256562499999999
vt 0.25 0.41511875
vt 0.3169875 0.41511875
vt 0.3169875 0.5625
vt 0.0669875 0.9631562499999999
vt 0.20096250000000002 0.9631562499999999
vt 0.26795 1
vt 0 1
vt 0.0669875 0.41511875
vt 0.0669875 0.5256562499999999
vt 0 0.5625
vt 0 0.41511875
vt 0.20096250000000002 0.875
vt 0.0669875 0.875
vt 0 0.82495
vt 0.26795 0.82495
vt 0.25 1
vt 0.25 0.84984375
vt 0.3169875 0.79979375
vt 0.3169875 1
vt 0.0669875 0.84984375
vt 0.0669875 1
vt 0 1
vt 0 0.79979375
vt 0.25 0.5256562499999999
vt 0.25 0.41511875
vt 0.3169875 0.41511875
vt 0.3169875 0.5625
vt 0.0669875 0.9631562499999999
vt 0.20096250000000002 0.9631562499999999
vt 0.26795 1
vt 0 1
vt 0.0669875 0.41511875
vt 0.0669875 0.5256562499999999
vt 0 0.5625
vt 0 0.41511875
vt 0.20096250000000002 0.9375
vt 0.0669875 0.9375
vt 0 0.88745
vt 0.26795 0.88745
vt 0.25 1
vt 0.25 0.84984375
vt 0.3169875 0.79979375
vt 0.3169875 1
vt 0.0669875 0.84984375
vt 0.0669875 1
vt 0 1
vt 0 0.79979375
vt 0.25 0.5256562499999999
vt 0.25 0.41511875
vt 0.3169875 0.41511875
vt 0.3169875 0.5625
vt 0.0669875 0.9631562499999999
vt 0.20096250000000002 0.9631562499999999
vt 0.26795 1
vt 0 1
vt 0.0669875 0.41511875
vt 0.0669875 0.5256562499999999
vt 0 0.5625
vt 0 0.41511875
vt 0.32596250000000004 0.875
vt 0.1919875 0.875
vt 0.125 0.82495
vt 0.39295 0.82495
vt 0.375 1
vt 0.375 0.84984375
vt 0.4419875 0.79979375
vt 0.4419875 1
vt 0.1919875 0.84984375
vt 0.1919875 1
vt 0.125 1
vt 0.125 0.79979375
vt 0.25 0.5256562499999999
vt 0.25 0.41511875
vt 0.3169875 0.41511875
vt 0.3169875 0.5625
vt 0.0669875 0.9631562499999999
vt 0.20096250000000002 0.9631562499999999
vt 0.26795 1
vt 0 1
vt 0.0669875 0.41511875
vt 0.0669875 0.5256562499999999
vt 0 0.5625
vt 0 0.41511875
vt 0.20096250000000002 0.6875
vt 0.0669875 0.6875
vt 0 0.63745
vt 0.26795 0.63745
vt 0.25 0.8125
vt 0.25 0.66234375
vt 0.3169875 0.61229375
vt 0.3169875 0.8125
vt 0.0669875 0.66234375
vt 0.0669875 0.8125
vt 0 0.8125
vt 0 0.61229375
vt 0.5176375191676121 0.7411812404161939
vt 0.44828802160274145 1
vt 0 0.7411812404161939
vt 0 0
vt 0.26795 0
vt 0.26795 1
vt 0 1
vt 0.5176381947122913 0.7411815781880927
vt 0.44828743656363346 1
vt 0 0.7411815781880928
vt 0 0
vt 0.26795 0
vt 0.26795 1
vt 0 1
vt 0.47916875 0.803525
vt 0.47916875 0.9375
vt 0.0625 0.8705125
vt 0.4375 0.7365375000000001
vt 0.4375 0.9375
vt 0.0625 0.83701875
vt 5.551115123125783e-17 0.48236248083238786
vt 0.25881875958380607 0.5517119783972586
vt 0 1
vt 0 0
vt 0.26795 0
vt 0.26795 1
vt 0 1
vt 0 0.48236180528770867
vt 0.2588184218119073 0.5517125634363665
vt 8.326672684688674e-17 1
vt 0 0
vt 0.26795 0
vt 0.26795 1
vt 0 1
vt 0.0625 0.5208312500000001
vt 0.196475 0.5208312500000001
vt 0.1294875 0.9375
vt 0.2634625 0.9375
vt 0.0625 0.9375
vt 0.16298125 0.5625
vt 0 1
vt 0.06934949756487069 0.7411812404161939
vt 0.5176375191676121 1
vt 0 0
vt 0.26795 0
vt 0.26795 1
vt 0 1
vt 0 1
vt 0.06935075814865788 0.7411815781880927
vt 0.5176381947122913 0.9999999999999999
vt 0 0
vt 0.26795 0
vt 0.26795 1
vt 0 1
vt 0.0625 0.9375
vt 0.0625 0.803525
vt 0.47916875 0.8705125
vt 0.0625 0.9375
vt 0.0625 0.7365375000000001
vt 0.4375 0.83701875
vt 0.258818759583806 1
vt 0 0.9306505024351293
vt 0.25881875958380607 0.48236248083238786
vt 0 0
vt 0.26795 0
vt 0.26795 1
vt 0 1
vt 0.2588184218119073 1
vt 0 0.9306492418513421
vt 0.2588184218119072 0.48236180528770867
vt 0 0
vt 0.26795 0
vt 0.26795 1
vt 0 1
vt 0.196475 0.9375
vt 0.0625 0.9375
vt 0.1294875 0.5208312500000001
vt 0.0625 0.5625
vt 0.2634625 0.5625
vt 0.16298125 0.9375
vt 0 0.875
vt 0.5176375 0.875
vt 0.5176375 0.9375
vt 0 0.9375
vt 0 0.9375
vt 0.5176375 0.9375
vt 0.5176375 1
vt 0 1
vt 0 0.8125
vt 0.5176375 0.8125
vt 0.5176375 0.875
vt 0 0.875
vt 0 0.8125
vt 0.5176375 0.8125
vt 0.5176375 0.875
vt 0 0.875
vt 0 0.9375
vt 0.5176375 0.9375
vt 0.5176375 1
vt 0 1
vt 0 0.875
vt 0.5176375 0.875
vt 0.5176375 0.9375
vt 0 0.9375
vt 0 0.8125
vt 0.5176375 0.8125
vt 0.5176375 0.875
vt 0 0.875
vt 0 0.8125
vt 0.5176375 0.8125
vt 0.5176375 0.875
vt 0 0.875
vt 0.4375 0.9330125
vt 0.4375 0.7990375
vt 0.5208312500000001 0.73205
vt 0.5208312500000001 1
vt 0 1
vt 0.41666875 0.9330125
vt 0.5 0.866025
vt 0 1
vt 0.41666875 0.8080125
vt 0 0.741025
vt 0 0.741025
vt 0.5 0.875
vt 0.20096250000000002 0.5625
vt 0.0669875 0.5625
vt 0 0.4791687499999999
vt 0.26795 0.4791687499999999
vt 0.125 0.5
vt 0.1919875 0.9166687499999999
vt 0.258975 1
vt 0.125 0.5
vt 0.0669875 0.9166687499999999
vt 0.133975 0.5
vt 0.133975 0.5
vt 0 1
vt 0.08333125000000002 0.7990375
vt 0.08333125000000002 0.9330125
vt 0 1
vt 0 0.73205
vt 0.5 0.741025
vt 0.08333125000000002 0.8080125
vt 0 0.875
vt 0.5 0.741025
vt 0.08333125000000002 0.9330125
vt 0.5 1
vt 0.5 1
vt 0 0.866025
vt 0.0669875 0.9166687499999999
vt 0.20096250000000002 0.9166687499999999
vt 0.26795 1
vt 0 1
vt 0.133975 1
vt 0.0669875 0.5833312500000001
vt 0 0.5
vt 0.133975 1
vt 0.1919875 0.5833312500000001
vt 0.125 1
vt 0.125 1
vt 0.258975 0.5
vt 0.03349375000000002 0.875
vt 0.23445625 0.875
vt 0.26795 1
vt 0 1
vt 0.4375 0.96650625
vt 0.4375 0.76554375
vt 0.5625 0.73205
vt 0.5625 1
vt 0.23445625 0.5625
vt 0.03349375000000002 0.5625
vt 0 0.4375
vt 0.26795 0.4375
vt 0.125 0.76554375
vt 0.125 0.96650625
vt 0 1
vt 0 0.73205
vt 0.375 0.9665060868678602
vt 0.3750000000000001 0.7655445656559314
vt 0.49999995628862914 0.7320513050507617
vt 0.4999999562886291 1
vt 0.37500000000000006 0.9665067393948301
vt 0.375 0.7655452181829014
vt 0.4999999562886291 0.7320513050507617
vt 0.49999995628862914 1
vt 0.23445478181709853 0.625
vt 0.0334932606051698 0.6249999999999999
vt 0 0.5000000437113709
vt 0.26794869494923834 0.500000043711371
vt 0.23445543434406851 0.625
vt 0.03349391313213977 0.625
vt 0 0.500000043711371
vt 0.26794869494923834 0.5000000437113709
vt 0.03349326060516983 0.812500043711371
vt 0.23445478181709856 0.8125000437113709
vt 0.26794869494923834 0.9375
vt 0 0.9375
vt 0.03349391313213963 0.812500043711371
vt 0.2344554343440684 0.8125000437113707
vt 0.2679486949492383 0.9374999999999998
vt 0 0.9375
vt 0.18749995628862914 0.7655445656559314
vt 0.1874999562886291 0.9665060868678603
vt 0.0625 1
vt 0.06250000000000006 0.7320513050507615
vt 0.18749995628862914 0.7655452181829014
vt 0.18749995628862903 0.9665067393948302
vt 0.0625 1
vt 0.06250000000000006 0.7320513050507617
vt 0.11591636239340186 0.8663627923022559
vt 0.11591636239340186 1
vt 0.0625 0.9780754320046716
vt 0.06278712238931083 0.8882867435391497
vt 0.12353703698942861 1
vt 0 0.949030212076809
vt 0.040639820162863494 0.9080081903429877
vt 0.12353703698942864 0.9425196959684232
vt 0.47432509801795497 0.875
vt 0 0.8664742128511556
vt 0.021348753997806225 0.8128188128177837
vt 0.4742367115218637 0.8128188128177838
vt 0.4743125 0.92835
vt 0 0.9375
vt 0 0.875
vt 0.4529 0.875
vt 0.13415 0.8125
vt 0.125 0.6654
vt 0.1875 0.6654
vt 0.1875 0.7904
vt 0.0625 0.6654
vt 0.05335000000000001 0.8125
vt 0 0.7904
vt 0 0.6654
vt 0.1875 0.9375
vt 0.1875 0.7372881276544145
vt 0.2474716246061306 0.7491760656684835
vt 0.24999434276006804 0.9366590939486875
vt 0.05980624999999995 0.73730625
vt 0.0625 0.9375
vt 0 0.9375
vt 0 0.75
vt 0.47432509801795497 0.9375
vt 0 0.9289742128511556
vt 0.021348753997806225 0.8753188128177837
vt 0.4742367115218637 0.8753188128177838
vt 0.4743125 0.92835
vt 0 0.9375
vt 0 0.875
vt 0.4529 0.875
vt 0.24091636239340186 0.8038627923022559
vt 0.24091636239340186 0.9375
vt 0.1875 0.9155754320046716
vt 0.18778712238931083 0.8257867435391497
vt 0.31103703698942864 1
vt 0.1875 0.949030212076809
vt 0.2281398201628635 0.9080081903429877
vt 0.31103703698942864 0.9425196959684232
vt 0.13415 0.8125
vt 0.125 0.6654
vt 0.1875 0.6654
vt 0.1875 0.7904
vt 0.0625 0.6654
vt 0.05335000000000001 0.8125
vt 0 0.7904
vt 0 0.6654
vt 0.25 1
vt 0.25 0.7997881276544145
vt 0.3099716246061306 0.8116760656684835
vt 0.31249434276006804 0.9991590939486875
vt 0.12230624999999995 0.79980625
vt 0.125 1
vt 0.0625 1
vt 0.0625 0.8125
vt 0 0.75
vt 0.133975 0.75
vt 0.133975 0.8125
vt 0 0.8125
vt 0 0.875
vt 5.551115123125783e-17 0.6470440952042479
vt 0.06249668664106256 0.6477804944769512
vt 0.059942703117268015 0.8635742324849681
vt 0 0.7501246462602151
vt 0.22795248416953584 0.7501246462602151
vt 0.2165301278759716 0.8101880045018701
vt 0.0007363416066686057 0.8125
vt 0.1875 0.9375
vt 0.321475 0.9375
vt 0.321475 1
vt 0.1875 1
vt 0.1875 1
vt 0.18750000000000006 0.7720440952042479
vt 0.24999668664106256 0.7727804944769512
vt 0.24744270311726801 0.9885742324849681
vt 0.0625 0.9376246462602151
vt 0.29045248416953584 0.9376246462602151
vt 0.2790301278759716 0.9976880045018701
vt 0.0632363416066686 1
vt 0.47432509801795497 0.875
vt 0 0.8664742128511556
vt 0.021348753997806225 0.8128188128177837
vt 0.4742367115218637 0.8128188128177838
vt 0.4743125 0.99085
vt 0 1
vt 0 0.9375
vt 0.4529 0.9375
vt 0.05341636239340186 0.8663627923022559
vt 0.05341636239340186 1
vt 0 0.9780754320046716
vt 0.00028712238931083434 0.8882867435391497
vt 0.12353703698942861 0.875
vt 0 0.824030212076809
vt 0.040639820162863494 0.7830081903429877
vt 0.12353703698942864 0.8175196959684232
vt 0.13415 0.8125
vt 0.125 0.6654
vt 0.1875 0.6654
vt 0.1875 0.7904
vt 0.0625 0.6654
vt 0.05335000000000001 0.8125
vt 0 0.7904
vt 0 0.6654
vt 0.1875 1
vt 0.1875 0.7997881276544145
vt 0.2474716246061306 0.8116760656684835
vt 0.24999434276006804 0.9991590939486875
vt 0.05980624999999995 0.79980625
vt 0.0625 1
vt 0 1
vt 0 0.8125
vt 0 0.9375
vt 0.133975 0.9375
vt 0.133975 1
vt 0 1
vt 0 1
vt 5.551115123125783e-17 0.7720440952042479
vt 0.06249668664106256 0.7727804944769512
vt 0.059942703117268015 0.9885742324849681
vt 0 0.8751246462602151
vt 0.22795248416953584 0.8751246462602151
vt 0.2165301278759716 0.9351880045018701
vt 0.0007363416066686057 0.9375
vt 0.47432509801795497 0.875
vt 0 0.8664742128511556
vt 0.021348753997806225 0.8128188128177837
vt 0.4742367115218637 0.8128188128177838
vt 0.4743125 0.92835
vt 0 0.9375
vt 0 0.875
vt 0.4529 0.875
vt 0.05341636239340186 0.6788627923022559
vt 0.05341636239340186 0.8125
vt 0 0.7905754320046716
vt 0.00028712238931083434 0.7007867435391497
vt 0.1860370369894286 0.75
vt 0.0625 0.699030212076809
vt 0.1031398201628635 0.6580081903429877
vt 0.18603703698942864 0.6925196959684232
vt 0.13415 0.8125
vt 0.125 0.6654
vt 0.1875 0.6654
vt 0.1875 0.7904
vt 0.0625 0.6654
vt 0.05335000000000001 0.8125
vt 0 0.7904
vt 0 0.6654
vt 0.1875 1
vt 0.1875 0.7997881276544145
vt 0.2474716246061306 0.8116760656684835
vt 0.24999434276006804 0.9991590939486875
vt 0.05980624999999995 0.79980625
vt 0.0625 1
vt 0 1
vt 0 0.8125
vt 0 0.9375
vt 0.133975 0.9375
vt 0.133975 1
vt 0 1
vt 0.125 1
vt 0.12500000000000006 0.7720440952042479
vt 0.18749668664106256 0.7727804944769512
vt 0.18494270311726801 0.9885742324849681
vt 0 0.9376246462602151
vt 0.22795248416953584 0.9376246462602151
vt 0.2165301278759716 0.9976880045018701
vt 0.0007363416066686057 1
vt 0.25 0.5256562499999999
vt 0.25 0.41511875
vt 0.3169875 0.41511875
vt 0.3169875 0.5625
vt 0.0669875 0.9631562499999999
vt 0.20096250000000002 0.9631562499999999
vt 0.26795 1
vt 0 1
vt 0.0669875 0.41511875
vt 0.0669875 0.5256562499999999
vt 0 0.5625
vt 0 0.41511875
vt 0.20096250000000002 0.875
vt 0.0669875 0.875
vt 0 0.82495
vt 0.26795 0.82495
vt 0.25 1
vt 0.25 0.84984375
vt 0.3169875 0.79979375
vt 0.3169875 1
vt 0.0669875 0.84984375
vt 0.0669875 1
vt 0 1
vt 0 0.79979375
vt 0.25 0.5256562499999999
vt 0.25 0.41511875
vt 0.3169875 0.41511875
vt 0.3169875 0.5625
vt 0.0669875 0.9631562499999999
vt 0.20096250000000002 0.9631562499999999
vt 0.26795 1
vt 0 1
vt 0.0669875 0.41511875
vt 0.0669875 0.5256562499999999
vt 0 0.5625
vt 0 0.41511875
vt 0.20096250000000002 0.9375
vt 0.0669875 0.9375
vt 0 0.88745
vt 0.26795 0.88745
vt 0.25 1
vt 0.25 0.84984375
vt 0.3169875 0.79979375
vt 0.3169875 1
vt 0.0669875 0.84984375
vt 0.0669875 1
vt 0 1
vt 0 0.79979375
vt 0.25 0.5256562499999999
vt 0.25 0.41511875
vt 0.3169875 0.41511875
vt 0.3169875 0.5625
vt 0.0669875 0.9631562499999999
vt 0.20096250000000002 0.9631562499999999
vt 0.26795 1
vt 0 1
vt 0.0669875 0.41511875
vt 0.0669875 0.5256562499999999
vt 0 0.5625
vt 0 0.41511875
vt 0.32596250000000004 0.875
vt 0.1919875 0.875
vt 0.125 0.82495
vt 0.39295 0.82495
vt 0.375 1
vt 0.375 0.84984375
vt 0.4419875 0.79979375
vt 0.4419875 1
vt 0.1919875 0.84984375
vt 0.1919875 1
vt 0.125 1
vt 0.125 0.79979375
vt 0.25 0.5256562499999999
vt 0.25 0.41511875
vt 0.3169875 0.41511875
vt 0.3169875 0.5625
vt 0.0669875 0.9631562499999999
vt 0.20096250000000002 0.9631562499999999
vt 0.26795 1
vt 0 1
vt 0.0669875 0.41511875
vt 0.0669875 0.5256562499999999
vt 0 0.5625
vt 0 0.41511875
vt 0.20096250000000002 0.6875
vt 0.0669875 0.6875
vt 0 0.63745
vt 0.26795 0.63745
vt 0.25 0.8125
vt 0.25 0.66234375
vt 0.3169875 0.61229375
vt 0.3169875 0.8125
vt 0.0669875 0.66234375
vt 0.0669875 0.8125
vt 0 0.8125
vt 0 0.61229375
vn -1.2246467991473532e-16 1 0
vn -0.4999999999999999 -6.123233995736765e-17 0.8660254037844388
vn -1.2246467991473532e-16 1 0
vn -0.8660254037844388 -1.060575238724907e-16 0.5
vn -1.2246467991473532e-16 1 0
vn 0.08180136075073922 -0.9966486529260589 0
vn -1.2246467991473532e-16 1 0
vn -0.8660254037844388 -1.060575238724907e-16 -0.5
vn -1.2246467991473532e-16 1 0
vn -0.5000000000000001 -6.123233995736767e-17 -0.8660254037844388
vn -1.2246467991473532e-16 1 0
vn 1.6078985515048202e-16 -0.9966486529260589 0.0818013607507391
vn -1.2246467991473532e-16 1 0
vn 0.4999999999999996 6.123233995736761e-17 -0.8660254037844389
vn -1.2246467991473532e-16 1 0
vn 0.8660254037844389 1.0605752387249073e-16 -0.4999999999999998
vn -1.2246467991473532e-16 1 0
vn -0.08180136075073899 -0.9966486529260589 3.873559688244011e-17
vn -1.2246467991473532e-16 1 0
vn 0.8660254037844389 1.0605752387249073e-16 0.4999999999999996
vn -1.2246467991473532e-16 1 0
vn 0.4999999999999999 6.123233995736765e-17 0.8660254037844386
vn -1.2246467991473532e-16 1 0
vn 1.2205425826804193e-16 -0.9966486529260589 -0.08180136075073909
vn -0.25881904510252063 -3.169619151431763e-17 -0.9659258262890683
vn -0.2588190451025203 -3.1696191514317594e-17 0.9659258262890684
vn -0.9659258262890682 -1.1829179713786696e-16 0.2588190451025211
vn 0.9659258262890684 1.1829179713786698e-16 0.25881904510252035
vn 0.2588190451025208 3.1696191514317656e-17 0.9659258262890684
vn 0.25881904510252085 3.169619151431766e-17 -0.9659258262890684
vn 0.9659258262890684 1.1829179713786698e-16 -0.25881904510252074
vn -0.9659258262890684 -1.1829179713786698e-16 -0.2588190451025208
vn -0.8480831929191455 0.5298630935327234 0
vn 0.15276534817319937 0.27158284119679915 0.9502134016972164
vn 0.15873125170110716 1.9438971932041375e-17 -0.9873218268292259
vn -6.488951414811649e-17 0.5298630935327239 -0.8480831929191454
vn -0.9502134016972164 0.27158284119679893 0.15276534817319976
vn 0.9873218268292259 1.2091205149547288e-16 0.15873125170110672
vn 0.8480831929191452 0.529863093532724 0
vn -0.1527653481731995 0.27158284119679876 -0.9502134016972166
vn -0.15873125170110672 -1.943897193204132e-17 0.9873218268292259
vn -6.488951414811646e-17 0.5298630935327237 0.8480831929191454
vn 0.9502134016972164 0.2715828411967991 -0.1527653481731994
vn -0.9873218268292259 -1.2091205149547288e-16 -0.15873125170110708
vn -2.482423845700844e-16 -0.7071067811865474 -0.7071067811865477
vn -0.7071067811865477 -0.7071067811865475 0
vn 8.65956056235493e-17 -0.7071067811865474 0.7071067811865478
vn 0.7071067811865475 -0.7071067811865477 -3.3483799019363385e-16
vn -0.3535533905932737 -0.7071067811865475 -0.6123724356957947
vn -0.6123724356957947 -0.7071067811865474 -0.353553390593274
vn -0.6123724356957945 -0.7071067811865476 0.35355339059327384
vn -0.3535533905932739 -0.7071067811865472 0.6123724356957949
vn 0.3535533905932734 -0.7071067811865477 -0.6123724356957947
vn 0.6123724356957951 -0.7071067811865471 -0.35355339059327345
vn 0.6123724356957949 -0.7071067811865475 0.3535533905932735
vn 0.35355339059327395 -0.7071067811865476 0.6123724356957944
vn -0.9907828894677079 -0.05183809199541732 0.12514822474288084
vn 0.990782889467708 -0.12514822474288048 0.05183809199541672
vn 0.9615026306453921 -0.10515977178795856 0.2538781472665482
vn -0.9689763876389289 -1.1866538315713793e-16 0.2471533131443158
vn 1 9.483184213141217e-17 -4.440892098500626e-16
vn -1 -9.090423149762333e-17 5.072101066842866e-16
vn 1 -1.5785495065949614e-17 -2.933868490800779e-17
vn -1 1.0205424381696401e-17 4.440892098500626e-16
vn 0.25387814726654867 -0.10515977178795836 -0.9615026306453921
vn 0.2471533131443155 3.0267551384084944e-17 0.968976387638929
vn 0.12514822474288034 -0.051838091995417244 0.9907828894677079
vn 0.0518380919954172 -0.12514822474288068 -0.9907828894677079
vn 0 0 -1
vn 0 0 1
vn 0 0 -1
vn 0 0 1
vn -1.026856835260105e-16 0.838492237904874 -0.5449135408239333
vn 0.7153464788680395 0.5859131624456654 -0.38076919681615107
vn -0.9156135051517454 0.3933009602405926 0.08346414713853163
vn -0.5449135408239331 0.838492237904874 0
vn -0.38076919681615096 0.5859131624456655 -0.7153464788680396
vn 0.08346414713853169 0.39330096024059263 0.9156135051517454
vn -0.25387814726654817 -0.1051597717879587 0.9615026306453921
vn -0.2471533131443155 -3.0267551384084944e-17 -0.968976387638929
vn -0.12514822474288062 -0.051838091995417133 -0.9907828894677079
vn -0.05183809199541664 -0.12514822474288048 0.990782889467708
vn 2.3107715828858445e-32 -1.886888190533543e-16 1
vn -4.3101644408111845e-16 2.1550822204055935e-16 -1
vn 0 0 1
vn 0 0 -1
vn 0.5449135408239332 0.838492237904874 0
vn 0.3807691968161509 0.5859131624456649 0.7153464788680399
vn -0.0834641471385316 0.3933009602405923 -0.9156135051517457
vn -0.9615026306453921 -0.1051597717879588 -0.2538781472665486
vn 0.968976387638929 1.1866538315713793e-16 -0.2471533131443155
vn 0.9907828894677079 -0.051838091995417175 -0.12514822474288045
vn -0.990782889467708 -0.1251482247428806 -0.051838091995417133
vn -1 -1.2246467991473532e-16 0
vn 1 1.2246467991473532e-16 0
vn -1 -1.2246467991473532e-16 0
vn 1 1.2246467991473532e-16 0
vn -1.0268568352601053e-16 0.8384922379048743 0.5449135408239331
vn -0.7153464788680397 0.5859131624456653 0.3807691968161512
vn 0.9156135051517454 0.3933009602405926 -0.0834641471385319
vn 0.9980697140460987 -0.06210350959437942 0
vn 0.9980697140460988 -0.06210350959437742 0
vn 0.9980697140460987 -0.06210350959437942 1.083540312375549e-15
vn 0.9999095066716387 0.013452823780909666 0
vn 0.9999095066716387 0.013452823780907442 1.6599370698330721e-15
vn 0.9999095066716387 0.013452823780907442 0
vn 7.605486424057383e-18 -0.06210350959437954 0.9980697140460987
vn 7.60548642405714e-18 -0.06210350959437755 0.9980697140460988
vn -1.0759348259514903e-15 -0.06210350959437954 0.9980697140460987
vn -1.6474957582784266e-18 0.013452823780909543 0.9999095066716387
vn -1.661584565591349e-15 0.013452823780907317 0.9999095066716387
vn -1.647495758278154e-18 0.013452823780907317 0.9999095066716387
vn -0.9980697140460987 -0.062103509594379665 0
vn -0.9980697140460988 -0.06210350959437767 0
vn -0.9980697140460987 -0.062103509594379665 -1.0835403123755471e-15
vn -0.9999095066716387 0.013452823780909423 0
vn -0.9999095066716387 0.013452823780907197 -1.6599370698330702e-15
vn -0.9999095066716387 0.013452823780907197 0
vn 7.605486424057383e-18 -0.06210350959437954 -0.9980697140460987
vn 7.60548642405714e-18 -0.06210350959437755 -0.9980697140460988
vn -1.1052196992589377e-15 -0.06210350959437854 -0.9980697140460987
vn -8.302542527156041e-16 0.01345282378090622 -0.9999095066716388
vn -5.513669149887107e-16 0.013452823780908061 -0.9999095066716387
vn -1.6474957582782448e-18 0.013452823780908058 -0.9999095066716387
vn -8.470575686695855e-17 -1 5.551115123125783e-17
vn 0.4999999999999999 6.123233995736765e-17 0.8660254037844388
vn 2.6316545595557105e-17 -1 -5.551115123125783e-17
vn 0.8660254037844388 1.060575238724907e-16 0.5
vn 0 -1 0
vn -0.08180136075073899 0.9966486529260589 0
vn 2.6316545595557105e-17 -1 5.551115123125783e-17
vn 0.8660254037844388 1.060575238724907e-16 -0.5
vn -8.470575686695862e-17 -1 -5.551115123125791e-17
vn 0.5000000000000001 6.123233995736767e-17 -0.8660254037844388
vn 0 -1 0
vn -1.6078985515048202e-16 0.9966486529260589 0.0818013607507391
vn -8.470575686695845e-17 -1 5.551115123125771e-17
vn -0.4999999999999996 -6.123233995736761e-17 -0.8660254037844389
vn 2.6316545595557093e-17 -1 -5.55111512312578e-17
vn -0.8660254037844389 -1.0605752387249072e-16 -0.4999999999999998
vn 0 -1 0
vn 0.08180136075073922 0.9966486529260589 3.873559688244023e-17
vn 2.6316545595557093e-17 -1 5.5511151231257784e-17
vn -0.8660254037844388 -1.0605752387249072e-16 0.4999999999999996
vn -8.470575686695843e-17 -1 -5.5511151231257784e-17
vn -0.4999999999999999 -6.123233995736765e-17 0.8660254037844386
vn 0 -1 0
vn -1.2205425826804193e-16 0.9966486529260589 -0.08180136075073909
vn 0.2588190451025207 3.169619151431764e-17 -0.9659258262890684
vn 0.2588190451025203 3.1696191514317594e-17 0.9659258262890684
vn 0.9659258262890683 -2.4693948518960093e-17 0.2588190451025211
vn -0.9659258262890684 2.4693948518960086e-17 0.25881904510252035
vn -0.25881904510252074 1.1128955414250946e-16 0.9659258262890684
vn -0.2588190451025209 -3.169619151431767e-17 -0.9659258262890684
vn -0.9659258262890684 2.4693948518960142e-17 -0.25881904510252074
vn 0.9659258262890684 -2.4693948518960117e-17 -0.2588190451025208
vn 0.8480831929191455 -0.5298630935327234 0
vn -0.15276534817319942 -0.27158284119679915 0.9502134016972164
vn -0.1587312517011072 -1.9438971932041378e-17 -0.9873218268292259
vn 1.0003529887279514e-17 -0.5298630935327239 -0.8480831929191454
vn 0.9502134016972164 -0.2715828411967991 0.15276534817319978
vn -0.9873218268292259 5.4471536482251616e-17 0.15873125170110672
vn -0.8480831929191452 -0.529863093532724 0
vn 0.15276534817319948 -0.2715828411967988 -0.9502134016972166
vn 0.15873125170110672 1.943897193204132e-17 0.9873218268292259
vn 1.00035298872795e-17 -0.5298630935327237 0.8480831929191454
vn -0.9502134016972166 -0.271582841196799 -0.15276534817319942
vn 0.9873218268292259 -5.4471536482251616e-17 -0.15873125170110708
vn 2.482423845700844e-16 0.7071067811865474 -0.7071067811865477
vn 0.7071067811865475 0.7071067811865477 0
vn -8.65956056235493e-17 0.7071067811865474 0.7071067811865478
vn -0.7071067811865477 0.7071067811865475 -3.34837990193634e-16
vn 0.3535533905932739 0.7071067811865472 -0.6123724356957949
vn 0.612372435695795 0.707106781186547 -0.35355339059327423
vn 0.6123724356957947 0.7071067811865472 0.353553390593274
vn 0.35355339059327395 0.707106781186547 0.6123724356957949
vn -0.3535533905932734 0.7071067811865477 -0.6123724356957947
vn -0.6123724356957951 0.7071067811865471 -0.35355339059327345
vn -0.6123724356957944 0.707106781186548 0.3535533905932732
vn -0.3535533905932739 0.7071067811865476 0.6123724356957944
vn 0.9907828894677079 0.05183809199541726 0.12514822474288073
vn -0.9907828894677079 0.12514822474288056 0.05183809199541674
vn -0.9615026306453921 0.10515977178795856 0.2538781472665482
vn 0.9689763876389289 1.1866538315713793e-16 0.2471533131443158
vn -1 -9.483184213141217e-17 -4.440892098500626e-16
vn 1 9.090423149762333e-17 5.072101066842866e-16
vn -1 1.540356700466346e-16 -5.867736981601559e-17
vn 1 -1.488503232402898e-16 4.440892098500626e-16
vn -0.25387814726654867 0.10515977178795857 -0.961502630645392
vn -0.24715331314431538 -3.026755138408493e-17 0.968976387638929
vn -0.1251482247428802 0.0518380919954173 0.9907828894677079
vn -0.05183809199541707 0.12514822474288076 -0.9907828894677079
vn 0 0 -1
vn 0 0 1
vn 0 0 -1
vn 0 0 1
vn 1.5830281943604107e-17 -0.838492237904874 -0.5449135408239333
vn -0.7153464788680397 -0.5859131624456654 -0.38076919681615096
vn 0.9156135051517454 -0.39330096024059286 0.08346414713853181
vn 0.5449135408239331 -0.8384922379048743 0
vn 0.38076919681615096 -0.5859131624456655 -0.7153464788680396
vn -0.08346414713853169 -0.39330096024059263 0.9156135051517454
vn 0.2538781472665482 0.1051597717879585 0.9615026306453921
vn 0.24715331314431563 3.0267551384084956e-17 -0.968976387638929
vn 0.12514822474288076 0.05183809199541709 -0.990782889467708
vn 0.051838091995416676 0.1251482247428804 0.9907828894677079
vn -2.3107715828858437e-32 1.8868881905335422e-16 1
vn 4.3101644408111884e-16 -2.1550822204055962e-16 -1
vn 0 0 1
vn 0 0 -1
vn -0.5449135408239333 -0.838492237904874 0
vn -0.3807691968161509 -0.5859131624456649 0.7153464788680399
vn 0.0834641471385316 -0.3933009602405923 -0.9156135051517457
vn 0.9615026306453921 0.1051597717879588 -0.2538781472665486
vn -0.968976387638929 -1.1866538315713793e-16 -0.2471533131443155
vn -0.9907828894677079 0.0518380919954172 -0.12514822474288056
vn 0.990782889467708 0.12514822474288048 -0.05183809199541707
vn 1 1.2246467991473532e-16 0
vn -1 -1.2246467991473532e-16 0
vn 1 -1.5785495065949614e-17 -2.9338684908007764e-17
vn -1 1.6180218943858163e-17 0
vn 1.5830281943604107e-17 -0.8384922379048743 0.5449135408239331
vn 0.7153464788680398 -0.5859131624456654 0.3807691968161507
vn -0.9156135051517454 -0.39330096024059247 -0.08346414713853156
vn -0.9980697140460986 0.06210350959438042 0
vn -0.9980697140460988 0.062103509594377326 0
vn -0.9980697140460986 0.06210350959438042 1.6985226518319413e-15
vn -0.9999095066716387 -0.013452823780909666 0
vn -0.9999095066716387 -0.013452823780907442 1.6599370698330721e-15
vn -0.9999095066716387 -0.013452823780907442 0
vn -7.605486424057383e-18 0.06210350959437954 0.9980697140460987
vn -7.60548642405714e-18 0.06210350959437755 0.9980697140460988
vn 1.0759348259514903e-15 0.06210350959437955 0.9980697140460987
vn 1.6474957582784273e-18 -0.01345282378090955 0.9999095066716387
vn 1.6561951595204622e-15 -0.013452823780907317 0.9999095066716387
vn 1.6474957582781542e-18 -0.013452823780907319 0.9999095066716387
vn 0.9980697140460987 0.062103509594378666 0
vn 0.9980697140460988 0.062103509594377763 0
vn 0.9980697140460987 0.062103509594378666 -4.978428462266028e-16
vn 0.9999095066716387 -0.013452823780909423 0
vn 0.9999095066716387 -0.013452823780907197 -1.6599370698330702e-15
vn 0.9999095066716387 -0.013452823780907197 0
vn -7.605486424057383e-18 0.06210350959437954 -0.9980697140460987
vn -7.60548642405714e-18 0.06210350959437755 -0.9980697140460988
vn 1.1052196992589377e-15 0.06210350959437854 -0.9980697140460987
vn 8.302542527156039e-16 -0.01345282378090621 -0.9999095066716387
vn 5.459775089178241e-16 -0.013452823780908058 -0.9999095066716387
vn 1.6474957582782451e-18 -0.013452823780908061 -0.9999095066716387
usemtl m_d0c6dfac-9308-7b42-bb36-523be44078cf
f 78/113/33 76/114/33 75/115/33
f 76/116/34 78/117/34 79/118/34 77/119/34
f 80/120/35 78/121/35 75/122/35
f 78/123/36 80/124/36 81/125/36 79/126/36
f 109/127/37 110/128/37 111/129/37
f 140/130/38 141/131/38 135/132/38
f 84/133/39 82/134/39 75/135/39
f 82/136/40 84/137/40 85/138/40 83/139/40
f 86/140/41 84/141/41 75/142/41
f 84/143/42 86/144/42 87/145/42 85/146/42
f 112/147/43 113/148/43 111/149/43
f 132/150/44 131/151/44 135/152/44
f 90/153/45 88/154/45 75/155/45
f 88/156/46 90/157/46 91/158/46 89/159/46
f 92/160/47 90/161/47 75/162/47
f 90/163/48 92/164/48 93/165/48 91/166/48
f 114/167/49 115/168/49 111/169/49
f 152/170/50 153/171/50 135/172/50
f 96/173/51 94/174/51 75/175/51
f 94/176/52 96/177/52 97/178/52 95/179/52
f 98/180/53 96/181/53 75/182/53
f 96/183/54 98/184/54 99/185/54 97/186/54
f 116/187/55 117/188/55 111/189/55
f 162/190/56 163/191/56 135/192/56
f 102/193/57 101/194/57 92/195/57 75/196/57
f 100/197/58 102/198/58 75/199/58 94/200/58
f 102/201/59 104/202/59 86/203/59 75/204/59
f 103/205/60 102/206/60 75/207/60 88/208/60
f 102/209/61 106/210/61 80/211/61 75/212/61
f 105/213/62 102/214/62 75/215/62 82/216/62
f 102/217/63 108/218/63 98/219/63 75/220/63
f 107/221/64 102/222/64 75/223/64 76/224/64
f 150/225/65 151/226/65 147/227/65 146/228/65
f 111/229/66 110/230/66 106/231/66 102/232/66
f 109/233/67 111/234/67 102/235/67 105/236/67
f 148/237/68 149/238/68 139/239/68 138/240/68
f 111/241/69 113/242/69 104/243/69 102/244/69
f 112/245/70 111/246/70 102/247/70 103/248/70
f 160/249/71 161/250/71 159/251/71 158/252/71
f 111/253/72 115/254/72 101/255/72 102/256/72
f 114/257/73 111/258/73 102/259/73 100/260/73
f 170/261/74 171/262/74 169/263/74 168/264/74
f 111/265/75 117/266/75 108/267/75 102/268/75
f 116/269/76 111/270/76 102/271/76 107/272/76
f 131/273/77 132/274/77 133/275/77 134/276/77
f 141/277/78 140/278/78 142/279/78 143/280/78
f 163/281/79 162/282/79 164/283/79 165/284/79
f 153/285/80 152/286/80 154/287/80 155/288/80
f 118/289/81 126/290/81 85/291/81 87/292/81
f 126/293/82 121/294/82 83/295/82 85/296/82
f 120/297/83 127/298/83 79/299/83 81/300/83
f 127/301/84 123/302/84 77/303/84 79/304/84
f 128/305/85 119/306/85 89/307/85 91/308/85
f 124/309/86 128/310/86 91/311/86 93/312/86
f 129/313/87 125/314/87 95/315/87 97/316/87
f 122/317/88 129/318/88 97/319/88 99/320/88
f 133/321/89 132/322/89 118/323/89 87/324/89
f 131/325/90 134/326/90 89/327/90 119/328/90
f 135/329/91 131/330/91 119/331/91 130/332/91
f 132/333/92 135/334/92 130/335/92 118/336/92
f 134/337/93 137/338/93 88/339/93 89/340/93
f 136/341/94 133/342/94 87/343/94 86/344/94
f 137/345/95 139/346/95 103/347/95 88/348/95
f 138/349/96 136/350/96 86/351/96 104/352/96
f 135/353/97 141/354/97 121/355/97 130/356/97
f 140/357/98 135/358/98 130/359/98 120/360/98
f 142/361/99 140/362/99 120/363/99 81/364/99
f 141/365/100 143/366/100 83/367/100 121/368/100
f 143/369/101 145/370/101 82/371/101 83/372/101
f 144/373/102 142/374/102 81/375/102 80/376/102
f 145/377/103 147/378/103 105/379/103 82/380/103
f 146/381/104 144/382/104 80/383/104 106/384/104
f 149/385/105 148/386/105 113/387/105 112/388/105
f 139/389/106 149/390/106 112/391/106 103/392/106
f 148/393/107 138/394/107 104/395/107 113/396/107
f 151/397/108 150/398/108 110/399/108 109/400/108
f 147/401/109 151/402/109 109/403/109 105/404/109
f 150/405/110 146/406/110 106/407/110 110/408/110
f 135/409/111 153/410/111 125/411/111 130/412/111
f 152/413/112 135/414/112 130/415/112 124/416/112
f 154/417/113 152/418/113 124/419/113 93/420/113
f 153/421/114 155/422/114 95/423/114 125/424/114
f 155/425/115 157/426/115 94/427/115 95/428/115
f 156/429/116 154/430/116 93/431/116 92/432/116
f 157/433/117 159/434/117 100/435/117 94/436/117
f 158/437/118 156/438/118 92/439/118 101/440/118
f 161/441/119 160/442/119 115/443/119 114/444/119
f 159/445/120 161/446/120 114/447/120 100/448/120
f 160/449/121 158/450/121 101/451/121 115/452/121
f 135/453/122 163/454/122 123/455/122 130/456/122
f 162/457/123 135/458/123 130/459/123 122/460/123
f 164/461/124 162/462/124 122/463/124 99/464/124
f 163/465/125 165/466/125 77/467/125 123/468/125
f 165/469/126 167/470/126 76/471/126 77/472/126
f 166/473/127 164/474/127 99/475/127 98/476/127
f 167/477/128 169/478/128 107/479/128 76/480/128
f 168/481/129 166/482/129 98/483/129 108/484/129
f 171/485/130 170/486/130 117/487/130 116/488/130
f 169/489/131 171/490/131 116/491/131 107/492/131
f 170/493/132 168/494/132 108/495/132 117/496/132
f 174/497/133 173/498/133 157/499/133 155/500/133
f 175/501/134 174/502/134 155/503/134 154/504/134
f 172/505/135 175/506/135 154/507/135 156/508/135
f 177/509/136 176/510/136 158/511/136 159/512/136
f 173/513/137 177/514/137 159/515/137 157/516/137
f 176/517/138 172/518/138 156/519/138 158/520/138
f 180/521/139 179/522/139 167/523/139 165/524/139
f 181/525/140 180/526/140 165/527/140 164/528/140
f 178/529/141 181/530/141 164/531/141 166/532/141
f 183/533/142 182/534/142 168/535/142 169/536/142
f 179/537/143 183/538/143 169/539/143 167/540/143
f 182/541/144 178/542/144 166/543/144 168/544/144
f 186/545/145 185/546/145 145/547/145 143/548/145
f 187/549/146 186/550/146 143/551/146 142/552/146
f 184/553/147 187/554/147 142/555/147 144/556/147
f 189/557/148 188/558/148 146/559/148 147/560/148
f 185/561/149 189/562/149 147/563/149 145/564/149
f 188/565/150 184/566/150 144/567/150 146/568/150
f 192/569/151 191/570/151 137/571/151 134/572/151
f 193/573/152 192/574/152 134/575/152 133/576/152
f 190/577/153 193/578/153 133/579/153 136/580/153
f 195/581/154 194/582/154 138/583/154 139/584/154
f 191/585/155 195/586/155 139/587/155 137/588/155
f 194/589/156 190/590/156 136/591/156 138/592/156
f 199/593/157 197/594/157 196/595/157
f 197/596/158 199/597/158 200/598/158 198/599/158
f 201/600/159 199/601/159 196/602/159
f 199/603/160 201/604/160 202/605/160 200/606/160
f 230/607/161 231/608/161 232/609/161
f 261/610/162 262/611/162 256/612/162
f 205/613/163 203/614/163 196/615/163
f 203/616/164 205/617/164 206/618/164 204/619/164
f 207/620/165 205/621/165 196/622/165
f 205/623/166 207/624/166 208/625/166 206/626/166
f 233/627/167 234/628/167 232/629/167
f 253/630/168 252/631/168 256/632/168
f 211/633/169 209/634/169 196/635/169
f 209/636/170 211/637/170 212/638/170 210/639/170
f 213/640/171 211/641/171 196/642/171
f 211/643/172 213/644/172 214/645/172 212/646/172
f 235/647/173 236/648/173 232/649/173
f 273/650/174 274/651/174 256/652/174
f 217/653/175 215/654/175 196/655/175
f 215/656/176 217/657/176 218/658/176 216/659/176
f 219/660/177 217/661/177 196/662/177
f 217/663/178 219/664/178 220/665/178 218/666/178
f 237/667/179 238/668/179 232/669/179
f 283/670/180 284/671/180 256/672/180
f 223/673/181 222/674/181 213/675/181 196/676/181
f 221/677/182 223/678/182 196/679/182 215/680/182
f 223/681/183 225/682/183 207/683/183 196/684/183
f 224/685/184 223/686/184 196/687/184 209/688/184
f 223/689/185 227/690/185 201/691/185 196/692/185
f 226/693/186 223/694/186 196/695/186 203/696/186
f 223/697/187 229/698/187 219/699/187 196/700/187
f 228/701/188 223/702/188 196/703/188 197/704/188
f 271/705/189 272/706/189 268/707/189 267/708/189
f 232/709/190 231/710/190 227/711/190 223/712/190
f 230/713/191 232/714/191 223/715/191 226/716/191
f 269/717/192 270/718/192 260/719/192 259/720/192
f 232/721/193 234/722/193 225/723/193 223/724/193
f 233/725/194 232/726/194 223/727/194 224/728/194
f 281/729/195 282/730/195 280/731/195 279/732/195
f 232/733/196 236/734/196 222/735/196 223/736/196
f 235/737/197 232/738/197 223/739/197 221/740/197
f 291/741/198 292/742/198 290/743/198 289/744/198
f 232/745/199 238/746/199 229/747/199 223/748/199
f 237/749/200 232/750/200 223/751/200 228/752/200
f 252/753/201 253/754/201 254/755/201 255/756/201
f 262/757/202 261/758/202 263/759/202 264/760/202
f 284/761/203 283/762/203 285/763/203 286/764/203
f 274/765/204 273/766/204 275/767/204 276/768/204
f 239/769/205 247/770/205 206/771/205 208/772/205
f 247/773/206 242/774/206 204/775/206 206/776/206
f 241/777/207 248/778/207 200/779/207 202/780/207
f 248/781/208 244/782/208 198/783/208 200/784/208
f 249/785/209 240/786/209 210/787/209 212/788/209
f 245/789/210 249/790/210 212/791/210 214/792/210
f 250/793/211 246/794/211 216/795/211 218/796/211
f 243/797/212 250/798/212 218/799/212 220/800/212
f 254/801/213 253/802/213 239/803/213 208/804/213
f 252/805/214 255/806/214 210/807/214 240/808/214
f 256/809/215 252/810/215 240/811/215 251/812/215
f 253/813/216 256/814/216 251/815/216 239/816/216
f 255/817/217 258/818/217 209/819/217 210/820/217
f 257/821/218 254/822/218 208/823/218 207/824/218
f 258/825/219 260/826/219 224/827/219 209/828/219
f 259/829/220 257/830/220 207/831/220 225/832/220
f 256/833/221 262/834/221 242/835/221 251/836/221
f 261/837/222 256/838/222 251/839/222 241/840/222
f 263/841/223 261/842/223 241/843/223 202/844/223
f 262/845/224 264/846/224 204/847/224 242/848/224
f 264/849/225 266/850/225 203/851/225 204/852/225
f 265/853/226 263/854/226 202/855/226 201/856/226
f 266/857/227 268/858/227 226/859/227 203/860/227
f 267/861/228 265/862/228 201/863/228 227/864/228
f 270/865/229 269/866/229 234/867/229 233/868/229
f 260/869/230 270/870/230 233/871/230 224/872/230
f 269/873/231 259/874/231 225/875/231 234/876/231
f 272/877/232 271/878/232 231/879/232 230/880/232
f 268/881/233 272/882/233 230/883/233 226/884/233
f 271/885/234 267/886/234 227/887/234 231/888/234
f 256/889/235 274/890/235 246/891/235 251/892/235
f 273/893/236 256/894/236 251/895/236 245/896/236
f 275/897/237 273/898/237 245/899/237 214/900/237
f 274/901/238 276/902/238 216/903/238 246/904/238
f 276/905/239 278/906/239 215/907/239 216/908/239
f 277/909/240 275/910/240 214/911/240 213/912/240
f 278/913/241 280/914/241 221/915/241 215/916/241
f 279/917/242 277/918/242 213/919/242 222/920/242
f 282/921/243 281/922/243 236/923/243 235/924/243
f 280/925/244 282/926/244 235/927/244 221/928/244
f 281/929/245 279/930/245 222/931/245 236/932/245
f 256/933/246 284/934/246 244/935/246 251/936/246
f 283/937/247 256/938/247 251/939/247 243/940/247
f 285/941/248 283/942/248 243/943/248 220/944/248
f 284/945/249 286/946/249 198/947/249 244/948/249
f 286/949/250 288/950/250 197/951/250 198/952/250
f 287/953/251 285/954/251 220/955/251 219/956/251
f 288/957/252 290/958/252 228/959/252 197/960/252
f 289/961/253 287/962/253 219/963/253 229/964/253
f 292/965/254 291/966/254 238/967/254 237/968/254
f 290/969/255 292/970/255 237/971/255 228/972/255
f 291/973/256 289/974/256 229/975/256 238/976/256
f 295/977/257 294/978/257 278/979/257 276/980/257
f 296/981/258 295/982/258 276/983/258 275/984/258
f 293/985/259 296/986/259 275/987/259 277/988/259
f 298/989/260 297/990/260 279/991/260 280/992/260
f 294/993/261 298/994/261 280/995/261 278/996/261
f 297/997/262 293/998/262 277/999/262 279/1000/262
f 301/1001/263 300/1002/263 288/1003/263 286/1004/263
f 302/1005/264 301/1006/264 286/1007/264 285/1008/264
f 299/1009/265 302/1010/265 285/1011/265 287/1012/265
f 304/1013/266 303/1014/266 289/1015/266 290/1016/266
f 300/1017/267 304/1018/267 290/1019/267 288/1020/267
f 303/1021/268 299/1022/268 287/1023/268 289/1024/268
f 307/1025/269 306/1026/269 266/1027/269 264/1028/269
f 308/1029/270 307/1030/270 264/1031/270 263/1032/270
f 305/1033/271 308/1034/271 263/1035/271 265/1036/271
f 310/1037/272 309/1038/272 267/1039/272 268/1040/272
f 306/1041/273 310/1042/273 268/1043/273 266/1044/273
f 309/1045/274 305/1046/274 265/1047/274 267/1048/274
f 313/1049/275 312/1050/275 258/1051/275 255/1052/275
f 314/1053/276 313/1054/276 255/1055/276 254/1056/276
f 311/1057/277 314/1058/277 254/1059/277 257/1060/277
f 316/1061/278 315/1062/278 259/1063/278 260/1064/278
f 312/1065/279 316/1066/279 260/1067/279 258/1068/279
f 315/1069/280 311/1070/280 257/1071/280 259/1072/280
o cylinder
v -2.4781763942525816e-18 -0.4375 -2.4781763942525816e-18
v -2.4781763942525816e-18 0.4375 -2.4781763942525816e-18
v 0.08373412263472581 -0.4375 0.3125
v 0.08373412263472581 0.4375 0.3125
v 0.22876587736527412 -0.4375 0.22876587736527412
v 0.22876587736527412 0.4375 0.22876587736527412
v 0.3125 -0.4375 0.08373412263472581
v 0.3125 0.4375 0.08373412263472581
v 0.3125 -0.4375 -0.08373412263472586
v 0.3125 0.4375 -0.08373412263472586
v 0.22876587736527412 -0.4375 -0.22876587736527412
v 0.22876587736527412 0.4375 -0.22876587736527412
v 0.08373412263472593 -0.4375 -0.31249999999999994
v 0.08373412263472593 0.4375 -0.31249999999999994
v -0.08373412263472571 -0.4375 -0.3125
v -0.08373412263472571 0.4375 -0.3125
v -0.22876587736527412 -0.4375 -0.22876587736527423
v -0.22876587736527412 0.4375 -0.22876587736527423
v -0.31249999999999994 -0.4375 -0.0837341226347258
v -0.31249999999999994 0.4375 -0.0837341226347258
v -0.3125 -0.4375 0.08373412263472567
v -0.3125 0.4375 0.08373412263472567
v -0.22876587736527423 -0.4375 0.22876587736527412
v -0.22876587736527423 0.4375 0.22876587736527412
v -0.08373412263472581 -0.4375 0.3125
v -0.08373412263472581 0.4375 0.3125
vt 0.5176375191676121 0.7411812404161939
vt 0.44828802160274145 1
vt 0 0.7411812404161939
vt 0 0
vt 0.26795 0
vt 0.26795 1
vt 0 1
vt 0 0.48236180528770867
vt 0.2588184218119073 0.5517125634363665
vt 8.326672684688674e-17 1
vt 0.5176381947122913 0.7411815781880927
vt 0.44828743656363346 1
vt 0 0.7411815781880928
vt 0 0
vt 0.26795 0
vt 0.26795 1
vt 0 1
vt 5.551115123125783e-17 0.48236248083238786
vt 0.25881875958380607 0.5517119783972586
vt 0 1
vt 0.5 0.73205
vt 0.5 1
vt 0 0.866025
vt 0 0
vt 0.26795 0
vt 0.26795 1
vt 0 1
vt 0.5 0.73205
vt 0.5 1
vt 0 0.866025
vt 5.551115123125783e-17 0.48236248083238786
vt 0.25881875958380607 0.5517119783972586
vt 0 1
vt 0 0
vt 0.26795 0
vt 0.26795 1
vt 0 1
vt 0.5176381947122913 0.7411815781880927
vt 0.44828743656363346 1
vt 0 0.7411815781880928
vt 0 0.48236180528770867
vt 0.2588184218119073 0.5517125634363665
vt 8.326672684688674e-17 1
vt 0 0
vt 0.26795 0
vt 0.26795 1
vt 0 1
vt 0.5176375191676121 0.7411812404161939
vt 0.44828802160274145 1
vt 0 0.7411812404161939
vt 0 0.5
vt 0.26795 0.5
vt 0.133975 1
vt 0 0
vt 0.26795 0
vt 0.26795 1
vt 0 1
vt 0.26795 1
vt 0 1
vt 0.133975 0.5
vt 0 1
vt 0.06934949756487069 0.7411812404161939
vt 0.5176375191676121 1
vt 0 0
vt 0.26795 0
vt 0.26795 1
vt 0 1
vt 0.2588184218119073 1
vt 0 0.9306492418513421
vt 0.2588184218119072 0.48236180528770867
vt 0 1
vt 0.06935075814865788 0.7411815781880927
vt 0.5176381947122913 0.9999999999999999
vt 0 0
vt 0.26795 0
vt 0.26795 1
vt 0 1
vt 0.258818759583806 1
vt 0 0.9306505024351293
vt 0.25881875958380607 0.48236248083238786
vt 0 1
vt 0 0.73205
vt 0.5 0.866025
vt 0 0
vt 0.26795 0
vt 0.26795 1
vt 0 1
vt 0 1
vt 0 0.73205
vt 0.5 0.866025
vt 0.258818759583806 1
vt 0 0.9306505024351293
vt 0.25881875958380607 0.48236248083238786
vt 0 0
vt 0.26795 0
vt 0.26795 1
vt 0 1
vt 0 1
vt 0.06935075814865788 0.7411815781880927
vt 0.5176381947122913 0.9999999999999999
vt 0.2588184218119073 1
vt 0 0.9306492418513421
vt 0.2588184218119072 0.48236180528770867
vt 0 0
vt 0.26795 0
vt 0.26795 1
vt 0 1
vt 0 1
vt 0.06934949756487069 0.7411812404161939
vt 0.5176375191676121 1
vt 0.26795 1
vt 0 1
vt 0.133975 0.5
vt 0 0
vt 0.26795 0
vt 0.26795 1
vt 0 1
vt 0 0.5
vt 0.26795 0.5
vt 0.133975 1
vn 0 -1 0
vn 0.5000000000000001 0 0.8660254037844386
vn 0 1 0
vn 0 -1 0
vn 0.8660254037844386 0 0.5000000000000001
vn 0 1 0
vn 0 -1 0
vn 1 0 0
vn 0 1 0
vn 0 -1 0
vn 0.8660254037844386 0 -0.5000000000000003
vn 0 1 0
vn 0 -1 0
vn 0.5000000000000003 0 -0.8660254037844387
vn 0 1 0
vn 0 -1 0
vn 3.314726988507102e-16 0 -1
vn 0 1 0
vn 0 -1 0
vn -0.49999999999999944 0 -0.8660254037844392
vn 0 1 0
vn 0 -1 0
vn -0.866025403784439 0 -0.4999999999999996
vn 0 1 0
vn 0 -1 0
vn -1 0 -3.3147269885071057e-16
vn 0 1 0
vn 0 -1 0
vn -0.8660254037844392 0 0.4999999999999992
vn 0 1 0
vn 0 -1 0
vn -0.49999999999999983 0 0.8660254037844387
vn 0 1 0
vn 0 -1 0
vn 0 0 1
vn 0 1 0
usemtl m_02463f83-72b4-f268-846f-690817f1bf03
f 321/1073/281 319/1074/281 317/1075/281
f 319/1076/282 321/1077/282 322/1078/282 320/1079/282
f 320/1080/283 322/1081/283 318/1082/283
f 323/1083/284 321/1084/284 317/1085/284
f 321/1086/285 323/1087/285 324/1088/285 322/1089/285
f 322/1090/286 324/1091/286 318/1092/286
f 325/1093/287 323/1094/287 317/1095/287
f 323/1096/288 325/1097/288 326/1098/288 324/1099/288
f 324/1100/289 326/1101/289 318/1102/289
f 327/1103/290 325/1104/290 317/1105/290
f 325/1106/291 327/1107/291 328/1108/291 326/1109/291
f 326/1110/292 328/1111/292 318/1112/292
f 329/1113/293 327/1114/293 317/1115/293
f 327/1116/294 329/1117/294 330/1118/294 328/1119/294
f 328/1120/295 330/1121/295 318/1122/295
f 331/1123/296 329/1124/296 317/1125/296
f 329/1126/297 331/1127/297 332/1128/297 330/1129/297
f 330/1130/298 332/1131/298 318/1132/298
f 333/1133/299 331/1134/299 317/1135/299
f 331/1136/300 333/1137/300 334/1138/300 332/1139/300
f 332/1140/301 334/1141/301 318/1142/301
f 335/1143/302 333/1144/302 317/1145/302
f 333/1146/303 335/1147/303 336/1148/303 334/1149/303
f 334/1150/304 336/1151/304 318/1152/304
f 337/1153/305 335/1154/305 317/1155/305
f 335/1156/306 337/1157/306 338/1158/306 336/1159/306
f 336/1160/307 338/1161/307 318/1162/307
f 339/1163/308 337/1164/308 317/1165/308
f 337/1166/309 339/1167/309 340/1168/309 338/1169/309
f 338/1170/310 340/1171/310 318/1172/310
f 341/1173/311 339/1174/311 317/1175/311
f 339/1176/312 341/1177/312 342/1178/312 340/1179/312
f 340/1180/313 342/1181/313 318/1182/313
f 319/1183/314 341/1184/314 317/1185/314
f 341/1186/315 319/1187/315 320/1188/315 342/1189/315
f 342/1190/316 320/1191/316 318/1192/316
o cylinder
v -3.469446951953614e-18 -0.4375 -3.469446951953614e-18
v -3.469446951953614e-18 0.4375 -3.469446951953614e-18
v 0.11722777168861614 -0.4375 0.4375
v 0.11722777168861614 0.4375 0.4375
v 0.3202722283113838 -0.4375 0.3202722283113838
v 0.3202722283113838 0.4375 0.3202722283113838
v 0.4375 -0.4375 0.11722777168861614
v 0.4375 0.4375 0.11722777168861614
v 0.4375 -0.4375 -0.1172277716886162
v 0.4375 0.4375 -0.1172277716886162
v 0.3202722283113838 -0.4375 -0.3202722283113838
v 0.3202722283113838 0.4375 -0.3202722283113838
v 0.1172277716886163 -0.4375 -0.4374999999999999
v 0.1172277716886163 0.4375 -0.4374999999999999
v -0.11722777168861599 -0.4375 -0.4375
v -0.11722777168861599 0.4375 -0.4375
v -0.3202722283113838 -0.4375 -0.3202722283113839
v -0.3202722283113838 0.4375 -0.3202722283113839
v -0.4374999999999999 -0.4375 -0.11722777168861612
v -0.4374999999999999 0.4375 -0.11722777168861612
v -0.4375 -0.4375 0.11722777168861595
v -0.4375 0.4375 0.11722777168861595
v -0.3202722283113839 -0.4375 0.3202722283113838
v -0.3202722283113839 0.4375 0.3202722283113838
v -0.11722777168861613 -0.4375 0.4375
v -0.11722777168861613 0.4375 0.4375
vt 0.5176375191676121 0.7411812404161939
vt 0.44828802160274145 1
vt 0 0.7411812404161939
vt 0 0
vt 0.26795 0
vt 0.26795 1
vt 0 1
vt 0 0.48236180528770867
vt 0.2588184218119073 0.5517125634363665
vt 8.326672684688674e-17 1
vt 0.5176381947122913 0.7411815781880927
vt 0.44828743656363346 1
vt 0 0.7411815781880928
vt 0 0
vt 0.26795 0
vt 0.26795 1
vt 0 1
vt 5.551115123125783e-17 0.48236248083238786
vt 0.25881875958380607 0.5517119783972586
vt 0 1
vt 0.5 0.73205
vt 0.5 1
vt 0 0.866025
vt 0 0
vt 0.26795 0
vt 0.26795 1
vt 0 1
vt 0.5 0.73205
vt 0.5 1
vt 0 0.866025
vt 5.551115123125783e-17 0.48236248083238786
vt 0.25881875958380607 0.5517119783972586
vt 0 1
vt 0 0
vt 0.26795 0
vt 0.26795 1
vt 0 1
vt 0.5176381947122913 0.7411815781880927
vt 0.44828743656363346 1
vt 0 0.7411815781880928
vt 0 0.48236180528770867
vt 0.2588184218119073 0.5517125634363665
vt 8.326672684688674e-17 1
vt 0 0
vt 0.26795 0
vt 0.26795 1
vt 0 1
vt 0.5176375191676121 0.7411812404161939
vt 0.44828802160274145 1
vt 0 0.7411812404161939
vt 0 0.5
vt 0.26795 0.5
vt 0.133975 1
vt 0 0
vt 0.26795 0
vt 0.26795 1
vt 0 1
vt 0.26795 1
vt 0 1
vt 0.133975 0.5
vt 0 1
vt 0.06934949756487069 0.7411812404161939
vt 0.5176375191676121 1
vt 0 0
vt 0.26795 0
vt 0.26795 1
vt 0 1
vt 0.2588184218119073 1
vt 0 0.9306492418513421
vt 0.2588184218119072 0.48236180528770867
vt 0 1
vt 0.06935075814865788 0.7411815781880927
vt 0.5176381947122913 0.9999999999999999
vt 0 0
vt 0.26795 0
vt 0.26795 1
vt 0 1
vt 0.258818759583806 1
vt 0 0.9306505024351293
vt 0.25881875958380607 0.48236248083238786
vt 0 1
vt 0 0.73205
vt 0.5 0.866025
vt 0 0
vt 0.26795 0
vt 0.26795 1
vt 0 1
vt 0 1
vt 0 0.73205
vt 0.5 0.866025
vt 0.258818759583806 1
vt 0 0.9306505024351293
vt 0.25881875958380607 0.48236248083238786
vt 0 0
vt 0.26795 0
vt 0.26795 1
vt 0 1
vt 0 1
vt 0.06935075814865788 0.7411815781880927
vt 0.5176381947122913 0.9999999999999999
vt 0.2588184218119073 1
vt 0 0.9306492418513421
vt 0.2588184218119072 0.48236180528770867
vt 0 0
vt 0.26795 0
vt 0.26795 1
vt 0 1
vt 0 1
vt 0.06934949756487069 0.7411812404161939
vt 0.5176375191676121 1
vt 0.26795 1
vt 0 1
vt 0.133975 0.5
vt 0 0
vt 0.26795 0
vt 0.26795 1
vt 0 1
vt 0 0.5
vt 0.26795 0.5
vt 0.133975 1
vn 0 -1 0
vn 0.5 0 0.8660254037844387
vn 0 1 0
vn 0 -1 0
vn 0.8660254037844387 0 0.5
vn 0 1 0
vn 0 -1 0
vn 1 0 0
vn 0 1 0
vn 0 -1 0
vn 0.8660254037844387 0 -0.5000000000000002
vn 0 1 0
vn 0 -1 0
vn 0.49999999999999994 0 -0.8660254037844387
vn 0 1 0
vn 0 -1 0
vn 4.735324269295861e-16 0 -1
vn 0 1 0
vn 0 -1 0
vn -0.49999999999999933 0 -0.866025403784439
vn 0 1 0
vn 0 -1 0
vn -0.8660254037844392 0 -0.4999999999999995
vn 0 1 0
vn 0 -1 0
vn -1 0 -4.735324269295866e-16
vn 0 1 0
vn 0 -1 0
vn -0.8660254037844392 0 0.49999999999999933
vn 0 1 0
vn 0 -1 0
vn -0.4999999999999999 0 0.8660254037844389
vn 0 1 0
vn 0 -1 0
vn 0 0 1
vn 0 1 0
usemtl m_1d72bd09-210b-3cdf-3fbe-6474174ff938
f 347/1193/317 345/1194/317 343/1195/317
f 345/1196/318 347/1197/318 348/1198/318 346/1199/318
f 346/1200/319 348/1201/319 344/1202/319
f 349/1203/320 347/1204/320 343/1205/320
f 347/1206/321 349/1207/321 350/1208/321 348/1209/321
f 348/1210/322 350/1211/322 344/1212/322
f 351/1213/323 349/1214/323 343/1215/323
f 349/1216/324 351/1217/324 352/1218/324 350/1219/324
f 350/1220/325 352/1221/325 344/1222/325
f 353/1223/326 351/1224/326 343/1225/326
f 351/1226/327 353/1227/327 354/1228/327 352/1229/327
f 352/1230/328 354/1231/328 344/1232/328
f 355/1233/329 353/1234/329 343/1235/329
f 353/1236/330 355/1237/330 356/1238/330 354/1239/330
f 354/1240/331 356/1241/331 344/1242/331
f 357/1243/332 355/1244/332 343/1245/332
f 355/1246/333 357/1247/333 358/1248/333 356/1249/333
f 356/1250/334 358/1251/334 344/1252/334
f 359/1253/335 357/1254/335 343/1255/335
f 357/1256/336 359/1257/336 360/1258/336 358/1259/336
f 358/1260/337 360/1261/337 344/1262/337
f 361/1263/338 359/1264/338 343/1265/338
f 359/1266/339 361/1267/339 362/1268/339 360/1269/339
f 360/1270/340 362/1271/340 344/1272/340
f 363/1273/341 361/1274/341 343/1275/341
f 361/1276/342 363/1277/342 364/1278/342 362/1279/342
f 362/1280/343 364/1281/343 344/1282/343
f 365/1283/344 363/1284/344 343/1285/344
f 363/1286/345 365/1287/345 366/1288/345 364/1289/345
f 364/1290/346 366/1291/346 344/1292/346
f 367/1293/347 365/1294/347 343/1295/347
f 365/1296/348 367/1297/348 368/1298/348 366/1299/348
f 366/1300/349 368/1301/349 344/1302/349
f 345/1303/350 367/1304/350 343/1305/350
f 367/1306/351 345/1307/351 346/1308/351 368/1309/351
f 368/1310/352 346/1311/352 344/1312/352
o cuboid
v 0.4375 0.625 0.125
v 0.4375 0.625 -0.125
v 0.4375 0.4375 0.125
v 0.4375 0.4375 -0.125
v 0.1875 0.625 0.0625
v 0.1875 0.625 -0.0625
v 0.1875 0.5 0.0625
v 0.1875 0.5 -0.0625
vt 0.25 1
vt 0 1
vt 0 0.75
vt 0.25 0.75
vt 0.25 0.75
vt 0.25 1
vt 0 1
vt 0 0.75
vt 0 0.75
vt 0.25 0.75
vt 0.25 1
vt 0 1
vt 0.25 0.75
vt 0.25 1
vt 0 1
vt 0 0.75
vt 0.25 0.75
vt 0.25 1
vt 0 1
vt 0 0.75
vt 0.25 1
vt 0 1
vt 0 0.75
vt 0.25 0.75
vn 1 0 0
vn -1 0 0
vn 0 1 0
vn -0.24253562503633297 -0.9701425001453319 0
vn -0.242535625036333 0 0.970142500145332
vn -0.242535625036333 0 -0.970142500145332
usemtl m_46918859-2b9a-3a03-6f81-b2646d2c8bc0
f 370/1313/353 369/1314/353 371/1315/353 372/1316/353
f 375/1317/354 373/1318/354 374/1319/354 376/1320/354
f 373/1321/355 369/1322/355 370/1323/355 374/1324/355
f 372/1325/356 371/1326/356 375/1327/356 376/1328/356
f 371/1329/357 369/1330/357 373/1331/357 375/1332/357
f 374/1333/358 370/1334/358 372/1335/358 376/1336/358