# Made in Blockbench 4.7.4
mtllib Mthruster.mtl

o tube
v 0.25479658762792246 -0.3125 -0.10554020224187022
v 0.20710678118654754 -0.5 0.5
v 0.20710678118654754 -0.375 0.5
v 0.12061737399070882 -0.5 0.291196100146197
v 0.12061737399070882 -0.375 0.291196100146197
v 0.5 -0.5 0.20710678118654757
v 0.5 -0.375 0.20710678118654757
v 0.291196100146197 -0.5 0.12061737399070883
v 0.291196100146197 -0.375 0.12061737399070883
v 0.5 -0.5 -0.20710678118654752
v 0.5 -0.375 -0.20710678118654752
v 0.291196100146197 -0.5 -0.1206173739907088
v 0.291196100146197 -0.375 -0.1206173739907088
v 0.2071067811865476 -0.5 -0.5
v 0.2071067811865476 -0.375 -0.5
v 0.12061737399070886 -0.5 -0.291196100146197
v 0.12061737399070886 -0.375 -0.291196100146197
v -0.2071067811865475 -0.5 -0.5000000000000001
v -0.2071067811865475 -0.375 -0.5000000000000001
v -0.12061737399070879 -0.5 -0.29119610014619707
v -0.12061737399070879 -0.375 -0.29119610014619707
v -0.4999999999999999 -0.5 -0.20710678118654785
v -0.4999999999999999 -0.375 -0.20710678118654785
v -0.29119610014619696 -0.5 -0.120617373990709
v -0.29119610014619696 -0.375 -0.120617373990709
v -0.49999999999999994 -0.5 0.20710678118654766
v -0.49999999999999994 -0.375 0.20710678118654766
v -0.291196100146197 -0.5 0.12061737399070889
v -0.291196100146197 -0.375 0.12061737399070889
v -0.20710678118654788 -0.5 0.4999999999999999
v -0.20710678118654788 -0.375 0.4999999999999999
v -0.12061737399070901 -0.5 0.29119610014619696
v -0.12061737399070901 -0.375 0.29119610014619696
v -0.1812184335382294 -0.3125 0.4374999999999999
v 0.1812184335382291 -0.3125 0.43749999999999994
v 0.10554020224187022 -0.3125 0.2547965876279224
v -0.10554020224187038 -0.3125 0.25479658762792234
v -0.18121843353822906 -0.3125 -0.43750000000000006
v -0.4374999999999999 -0.3125 -0.18121843353822936
v -0.25479658762792234 -0.3125 -0.10554020224187038
v -0.10554020224187019 -0.3125 -0.25479658762792246
v -0.4375 -0.3125 0.1812184335382292
v -0.25479658762792234 -0.3125 0.10554020224187027
v 0.18121843353822917 -0.3125 -0.4375
v 0.10554020224187026 -0.3125 -0.2547965876279224
v 0.4375 -0.3125 -0.18121843353822908
v 0.4375 -0.3125 0.1812184335382291
v 0.25479658762792246 -0.3125 0.10554020224187022
v 0.4375 -0.25 0.1812184335382291
v 0.4375 -0.25 -0.18121843353822908
v 0.25479658762792246 -0.25 -0.10554020224187022
v 0.25479658762792246 -0.25 0.10554020224187022
v -0.4374999999999999 -0.25 -0.18121843353822936
v -0.4375 -0.25 0.1812184335382292
v -0.25479658762792234 -0.25 0.10554020224187027
v -0.25479658762792234 -0.25 -0.10554020224187038
v -0.1812184335382294 -0.25 0.4374999999999999
v 0.1812184335382291 -0.25 0.43749999999999994
v 0.10554020224187022 -0.25 0.2547965876279224
v -0.10554020224187038 -0.25 0.25479658762792234
v 0.18121843353822917 -0.25 -0.4375
v -0.18121843353822906 -0.25 -0.43750000000000006
v -0.10554020224187019 -0.25 -0.25479658762792246
v 0.10554020224187026 -0.25 -0.2547965876279224
v 0.39182414690698064 0.0625 0.09060921676911456
v 0.39182414690698064 0.0625 -0.09060921676911454
v 0.30047244072094187 0.0625 -0.05277010112093511
v 0.30047244072094187 0.0625 0.05277010112093511
v -0.39182414690698053 0.0625 -0.09060921676911471
v -0.39182414690698053 0.0625 0.09060921676911457
v -0.3004724407209417 0.0625 0.0527701011209351
v -0.3004724407209417 0.0625 -0.05277010112093523
v -0.09060921676911475 0.0625 0.39182414690698053
v 0.0906092167691145 0.0625 0.39182414690698053
v 0.05277010112093505 0.0625 0.30047244072094176
v -0.05277010112093525 0.0625 0.3004724407209417
v 0.09060921676911461 0.0625 -0.39182414690698064
v -0.0906092167691145 0.0625 -0.39182414690698064
v -0.052770101120935074 0.0625 -0.3004724407209418
v 0.05277010112093515 0.0625 -0.3004724407209418
v 0.26682414690698064 0.4375 0.06170300415933335
v 0.26682414690698064 0.4375 -0.06170300415933338
v 0.20461552279843753 0.4375 -0.03593534835700492
v 0.20461552279843753 0.4375 0.03593534835700488
v -0.26682414690698053 0.4375 -0.06170300415933349
v -0.26682414690698053 0.4375 0.06170300415933336
v -0.20461552279843737 0.4375 0.035935348357004876
v -0.20461552279843737 0.4375 -0.035935348357004994
v -0.06170300415933348 0.4375 0.26682414690698053
v 0.06170300415933335 0.4375 0.26682414690698053
v 0.035935348357004876 0.4375 0.20461552279843742
v -0.03593534835700497 0.4375 0.20461552279843737
v 0.06170300415933343 0.4375 -0.26682414690698064
v -0.061703004159333316 0.4375 -0.26682414690698064
v -0.035935348357004855 0.4375 -0.20461552279843748
v 0.035935348357004945 0.4375 -0.20461552279843748
vt 0 0.5
vt 0.4142125 0.5
vt 0.4142125 1
vt 0 1
vt 0.2412375 1
vt 0 1
vt 0 0.5
vt 0.2412375 0.5
vt 0 0.913507582408738
vt 1.1102230246251565e-16 0.6722781040069473
vt 0.20880421306700514 0.5857856864156853
vt 0.20880421306700514 1
vt 0 0.7911957869329949
vt 0.4142143135843147 0.7911957869329949
vt 0.3277218959930527 1
vt 0.08649241759126203 0.9999999999999999
vt 0 0.5
vt 0.4142125 0.5
vt 0.4142125 1
vt 0 1
vt 0.2412375 1
vt 0 1
vt 0 0.5
vt 0.2412375 0.5
vt 0 0.9135125
vt 0 0.672275
vt 0.20880625000000003 0.5857875
vt 0.20880625000000003 1
vt 0.09134999999999999 0.6937875
vt 0.09134999999999999 0.875
vt 0 0.8371625
vt 0 0.731625
vt 0 0.5
vt 0.4142125 0.5
vt 0.4142125 1
vt 0 1
vt 0.2412375 1
vt 0 1
vt 0 0.5
vt 0.2412375 0.5
vt 0.3277218959930527 1
vt 0.08649241759126203 0.9999999999999999
vt 0 0.7911957869329949
vt 0.4142143135843147 0.7911957869329949
vt 0.20880421306700514 0.5857856864156853
vt 0.20880421306700514 1
vt 0 0.913507582408738
vt 1.1102230246251565e-16 0.6722781040069473
vt 0 0.5
vt 0.4142125 0.5
vt 0.4142125 1
vt 0 1
vt 0.2412375 1
vt 0 1
vt 0 0.5
vt 0.2412375 0.5
vt 0.327725 1
vt 0.0864875 1
vt 0 0.7911937499999999
vt 0.4142125 0.7911937499999999
vt 0.3062125 0.9375
vt 0.125 0.9375
vt 0.1628375 0.84615
vt 0.26837500000000003 0.84615
vt 0 0.5
vt 0.4142125 0.5
vt 0.4142125 1
vt 0 1
vt 0.2412375 1
vt 0 1
vt 0 0.5
vt 0.2412375 0.5
vt 0.20880421306700514 0.6722781040069473
vt 0.20880421306700503 0.913507582408738
vt 0 1
vt 0 0.5857856864156853
vt 0.4142143135843147 1
vt 0 1
vt 0.08649241759126206 0.7911957869329949
vt 0.3277218959930527 0.791195786932995
vt 0 0.5
vt 0.4142125 0.5
vt 0.4142125 1
vt 0 1
vt 0.2412375 1
vt 0 1
vt 0 0.5
vt 0.2412375 0.5
vt 0.20880625000000003 0.672275
vt 0.20880625000000003 0.9135125
vt 0 1
vt 0 0.5857875
vt 0.0625 0.875
vt 0.0625 0.6937875
vt 0.15385 0.731625
vt 0.15385 0.8371625
vt 0 0.5
vt 0.4142125 0.5
vt 0.4142125 1
vt 0 1
vt 0.2412375 1
vt 0 1
vt 0 0.5
vt 0.2412375 0.5
vt 0.08649241759126206 0.7911957869329949
vt 0.3277218959930527 0.791195786932995
vt 0.4142143135843147 1
vt 0 1
vt 0 1
vt 0 0.5857856864156853
vt 0.20880421306700514 0.6722781040069473
vt 0.20880421306700503 0.913507582408738
vt 0 0.5
vt 0.4142125 0.5
vt 0.4142125 1
vt 0 1
vt 0.2412375 1
vt 0 1
vt 0 0.5
vt 0.2412375 0.5
vt 0.0864875 0.7911937499999999
vt 0.327725 0.7911937499999999
vt 0.4142125 1
vt 0 1
vt 0.125 0.90865
vt 0.3062125 0.90865
vt 0.26837500000000003 1
vt 0.1628375 1
vt 0.4142125 0.9375
vt 0 0.9375
vt 0 0.875
vt 0.4142125 0.875
vt 0.3037375 1
vt 0.0625 1
vt 0.0625 0.9375
vt 0.3037375 0.9375
vt 0.4142125 1
vt 0 1
vt 0 0.9375
vt 0.4142125 0.9375
vt 0.3037375 0.9375
vt 0.0625 0.9375
vt 0.0625 0.875
vt 0.3037375 0.875
vt 0.4142125 0.9375
vt 0 0.9375
vt 0 0.875
vt 0.4142125 0.875
vt 0.3037375 0.9375
vt 0.0625 0.9375
vt 0.0625 0.875
vt 0.3037375 0.875
vt 0.4142125 0.9375
vt 0 0.9375
vt 0 0.875
vt 0.4142125 0.875
vt 0.3037375 0.9375
vt 0.0625 0.9375
vt 0.0625 0.875
vt 0.3037375 0.875
vt 0.4142125 1
vt 0 1
vt 0 0.9375
vt 0.4142125 0.9375
vt 0.3037375 0.9375
vt 0.0625 0.9375
vt 0.0625 0.875
vt 0.3037375 0.875
vt 0.4142125 0.9375
vt 0 0.9375
vt 0 0.875
vt 0.4142125 0.875
vt 0.2412375 0.9375
vt 0 0.9375
vt 0 0.875
vt 0.2412375 0.875
vt 0.4142125 0.9375
vt 0 0.9375
vt 0 0.875
vt 0.4142125 0.875
vt 0.3037375 1
vt 0.0625 1
vt 0.0625 0.9375
vt 0.3037375 0.9375
vt 0.4142125 0.9375
vt 0 0.9375
vt 0 0.875
vt 0.4142125 0.875
vt 0.2412375 0.9375
vt 0 0.9375
vt 0 0.875
vt 0.2412375 0.875
vt 0.3624375 0.9375
vt 0 0.9375
vt 0 0.875
vt 0.3624375 0.875
vt 0.19775624999999997 1
vt 0 1
vt 0 0.9375
vt 0.19775624999999997 0.9375
vt 0.211075 0.9375
vt 0 0.9375
vt 0 0.875
vt 0.211075 0.875
vt 0.19775624999999997 0.875
vt 0 0.875
vt 0 0.8125
vt 0.19775624999999997 0.8125
vt 0.3624375 0.9375
vt 0 0.9375
vt 0 0.875
vt 0.3624375 0.875
vt 0.19775624999999997 0.875
vt 0 0.875
vt 0 0.8125
vt 0.19775624999999997 0.8125
vt 0.273575 0.9375
vt 0.0625 0.9375
vt 0.0625 0.875
vt 0.273575 0.875
vt 0.19775624999999997 1
vt 0 1
vt 0 0.9375
vt 0.19775624999999997 0.9375
vt 0.3624375 0.9375
vt 0 0.9375
vt 0 0.875
vt 0.3624375 0.875
vt 0.32275624999999997 1
vt 0.125 1
vt 0.125 0.9375
vt 0.32275624999999997 0.9375
vt 0.273575 1
vt 0.0625 1
vt 0.0625 0.9375
vt 0.273575 0.9375
vt 0.19775624999999997 1
vt 0 1
vt 0 0.9375
vt 0.19775624999999997 0.9375
vt 0.3624375 1
vt 0 1
vt 0 0.9375
vt 0.3624375 0.9375
vt 0.19775624999999997 1
vt 0 1
vt 0 0.9375
vt 0.19775624999999997 0.9375
vt 0.273575 0.9375
vt 0.0625 0.9375
vt 0.0625 0.875
vt 0.273575 0.875
vt 0.26025624999999997 1
vt 0.0625 1
vt 0.0625 0.9375
vt 0.26025624999999997 0.9375
vt 0.1875 0.8468875
vt 0.1875 0.665675
vt 0.23317500000000002 0.5750625
vt 0.23317500000000002 0.9375
vt 0.022010808029048756 0.9337633787599878
vt 0.12088698769963468 0.9337633787599878
vt 0.1977605253309755 1
vt 0 0.9999966174550219
vt 0.04568125000000001 0.71669375
vt 0.04568125000000001 0.82223125
vt 0 0.875
vt 0 0.663925
vt 0.12873662124001223 0.6291130123003653
vt 0.1287366212400122 0.7279891919709512
vt 0.06250338254497809 0.75
vt 0.0625 0.5522394746690245
vt 0.04567500000000002 0.665675
vt 0.04567500000000002 0.8468875
vt 0 0.9375
vt 0 0.5750625
vt 0.17574971730192673 0.6875
vt 0.0768735376313408 0.6875
vt 0 0.6212633787599877
vt 0.1977605253309755 0.6212667613049658
vt 0.25 0.82223125
vt 0.25 0.71669375
vt 0.29568125 0.663925
vt 0.29568125 0.875
vt 0.0625 0.9231264623686593
vt 0.06250000000000001 0.8242502826980733
vt 0.1287332386950341 0.8022394746690245
vt 0.12873662124001223 1
vt 0.334325 0.8125
vt 0.1531125 0.8125
vt 0.0625 0.766825
vt 0.4249375 0.766825
vt 0.3125 0.9779891919709512
vt 0.3125 0.8791130123003653
vt 0.37873662124001223 0.8022394746690245
vt 0.37873323869503417 1
vt 0.17776875 0.95431875
vt 0.28330625 0.95431875
vt 0.336075 1
vt 0.125 1
vt 0.07687353763134086 0.8712633787599879
vt 0.17574971730192684 0.8712633787599879
vt 0.1977605253309755 0.9374966174550221
vt 0 0.9375
vt 0.1531125 0.954325
vt 0.334325 0.954325
vt 0.4249375 1
vt 0.0625 1
vt 0.06623662124001219 0.8242502826980733
vt 0.06623662124001221 0.9231264623686593
vt 0 1
vt 0.0000033825449780727768 0.8022394746690245
vt 0.28330625 0.75
vt 0.17776875 0.75
vt 0.125 0.70431875
vt 0.336075 0.70431875
vt 0.3708869876996347 0.9375
vt 0.27201080802904876 0.9375
vt 0.25 0.8712667613049658
vt 0.4477605253309755 0.8712633787599877
vt 0.1812125 0.9375
vt 0 0.9375
vt 0 0.875
vt 0.1812125 0.875
vt 0.09888124999999998 0.9375
vt 0 0.9375
vt 0 0.875
vt 0.09888124999999998 0.875
vt 0.1055375 0.9375
vt 0 0.9375
vt 0 0.875
vt 0.1055375 0.875
vt 0.09888124999999998 0.875
vt 0 0.875
vt 0 0.8125
vt 0.09888124999999998 0.8125
vt 0.1812125 0.9375
vt 0 0.9375
vt 0 0.875
vt 0.1812125 0.875
vt 0.09888124999999998 0.875
vt 0 0.875
vt 0 0.8125
vt 0.09888124999999998 0.8125
vt 0.1680375 0.9375
vt 0.0625 0.9375
vt 0.0625 0.875
vt 0.1680375 0.875
vt 0.09888124999999998 0.9375
vt 0 0.9375
vt 0 0.875
vt 0.09888124999999998 0.875
vt 0.2437125 1
vt 0.0625 1
vt 0.0625 0.9375
vt 0.2437125 0.9375
vt 0.22388124999999998 1
vt 0.125 1
vt 0.125 0.9375
vt 0.22388124999999998 0.9375
vt 0.2305375 1
vt 0.125 1
vt 0.125 0.9375
vt 0.2305375 0.9375
vt 0.09888124999999998 1
vt 0 1
vt 0 0.9375
vt 0.09888124999999998 0.9375
vt 0.2437125 1
vt 0.0625 1
vt 0.0625 0.9375
vt 0.2437125 0.9375
vt 0.16138124999999998 1
vt 0.0625 1
vt 0.0625 0.9375
vt 0.16138124999999998 0.9375
vt 0.2305375 0.9375
vt 0.125 0.9375
vt 0.125 0.875
vt 0.2305375 0.875
vt 0.16138124999999998 1
vt 0.0625 1
vt 0.0625 0.9375
vt 0.16138124999999998 0.9375
vn 0.7071067811865476 0 0.7071067811865476
vn -0.7071067811865476 0 -0.7071067811865476
vn 0 -1 0
vn 0 1 0
vn 1 0 0
vn -1 0 0
vn 0 -1 0
vn 0 1 0
vn 0.7071067811865476 0 -0.7071067811865475
vn -0.7071067811865477 0 0.7071067811865475
vn 0 -1 0
vn 0 1 0
vn 2.6803154833089315e-16 0 -1
vn -2.3011258409395424e-16 0 1
vn 0 -1 0
vn 0 1 0
vn -0.7071067811865474 0 -0.7071067811865477
vn 0.7071067811865474 0 0.7071067811865477
vn 0 -1 0
vn 0 1 0
vn -1 0 -1.3401577416544645e-16
vn 1 0 2.30112584093954e-16
vn 0 -1 0
vn 0 1 0
vn -0.7071067811865477 0 0.7071067811865474
vn 0.7071067811865477 0 -0.7071067811865474
vn 0 -1 0
vn 0 1 0
vn -2.680315483308929e-16 0 1
vn 2.301125840939541e-16 0 -1
vn 0 -1 0
vn 0 1 0
vn -1.0830110022668813e-16 0.7071067811865476 0.7071067811865476
vn 2.2725462449479997e-16 -0.5032641137113825 -0.8641326471383295
vn -0.4999999999999999 0.7071067811865477 -0.5000000000000001
vn 0.6110340546361948 -0.5032641137113825 0.6110340546361951
vn -0.5000000000000001 0.7071067811865477 0.4999999999999999
vn 0.611034054636195 -0.5032641137113827 -0.6110340546361945
vn -0.7071067811865476 0.7071067811865476 -2.1660220045337624e-16
vn 0.8641326471383293 -0.503264113711383 0
vn 1.0830110022668823e-16 0.7071067811865476 -0.7071067811865476
vn -2.2725462449480016e-16 -0.5032641137113825 0.8641326471383295
vn 0.5000000000000001 0.7071067811865477 -0.4999999999999999
vn -0.6110340546361949 -0.5032641137113826 0.6110340546361949
vn 0.49999999999999944 0.7071067811865481 0.49999999999999967
vn -0.6110340546361949 -0.5032641137113821 -0.6110340546361951
vn 0.7071067811865476 0.7071067811865476 0
vn -0.8641326471383298 -0.5032641137113819 0
vn 1 0 0
vn -0.38268343236508995 0 -0.9238795325112868
vn -1 0 0
vn -0.38268343236509006 0 0.9238795325112868
vn -1 0 -3.063217695210204e-16
vn 0.3826834323650899 0 0.9238795325112867
vn 1 0 0
vn 0.38268343236509034 0 -0.9238795325112865
vn -1.5316088476051023e-16 0 1
vn 0.9238795325112868 0 -0.38268343236509006
vn 2.6298581039309035e-16 0 -1
vn -0.9238795325112866 0 -0.3826834323650905
vn 1.5316088476051036e-16 0 -1
vn -0.9238795325112868 0 0.38268343236508984
vn -2.6298581039309055e-16 0 1
vn 0.9238795325112868 0 0.38268343236509006
vn 0.9894863874691746 0.14462603158907025 0
vn -0.37436742758231023 0.2073386341074214 -0.9038029209799406
vn -0.9894863874691745 0.1446260315890704 0
vn -0.3743674275823103 0.20733863410742134 0.9038029209799404
vn -0.9894863874691745 0.14462603158907023 0
vn 0.3743674275823103 0.20733863410742145 0.9038029209799406
vn 0.9894863874691745 0.1446260315890702 0
vn 0.3743674275823104 0.2073386341074214 -0.9038029209799404
vn 0 0.14462603158907023 0.9894863874691745
vn 0.9038029209799404 0.20733863410742143 -0.3743674275823103
vn 5.204417589630245e-16 0.14462603158907028 -0.9894863874691745
vn -0.9038029209799404 0.2073386341074214 -0.37436742758231056
vn 0 0.14462603158907025 -0.9894863874691745
vn -0.9038029209799406 0.20733863410742137 0.37436742758230995
vn 0 0.14462603158907023 0.9894863874691745
vn 0.9038029209799406 0.20733863410742137 0.37436742758231023
vn 0.948683298050514 0.316227766016838 0
vn -0.3820773999141047 -0.056256291301915624 -0.9224164407488797
vn -0.9688481670758103 -0.24765546461534593 0
vn -0.3820773999141048 -0.05625629130191552 0.9224164407488797
vn -0.948683298050514 0.316227766016838 0
vn 0.38207739991410467 -0.05625629130191549 0.9224164407488799
vn 0.9688481670758103 -0.2476554646153459 0
vn 0.3820773999141048 -0.05625629130191551 -0.9224164407488796
vn 0 0.31622776601683794 0.9486832980505139
vn 0.9224164407488797 -0.05625629130191573 -0.3820773999141049
vn 7.483143976839797e-16 -0.2476554646153459 -0.9688481670758103
vn -0.9224164407488796 -0.056256291301915465 -0.382077399914105
vn 0 0.316227766016838 -0.948683298050514
vn -0.9224164407488799 -0.05625629130191548 0.3820773999141044
vn 0 -0.24765546461534593 0.9688481670758103
vn 0.9224164407488797 -0.05625629130191554 0.3820773999141046
usemtl m_b7f4ee12-be7a-2b25-54d0-c2a372f65e66
f 2/1/1 6/2/1 7/3/1 3/4/1
f 5/5/2 9/6/2 8/7/2 4/8/2
f 4/9/3 8/10/3 6/11/3 2/12/3
f 35/13/4 47/14/4 48/15/4 36/16/4
f 6/17/5 10/18/5 11/19/5 7/20/5
f 9/21/6 13/22/6 12/23/6 8/24/6
f 8/25/7 12/26/7 10/27/7 6/28/7
f 81/29/8 82/30/8 83/31/8 84/32/8
f 10/33/9 14/34/9 15/35/9 11/36/9
f 13/37/10 17/38/10 16/39/10 12/40/10
f 12/41/11 16/42/11 14/43/11 10/44/11
f 46/45/12 44/46/12 45/47/12 1/48/12
f 14/49/13 18/50/13 19/51/13 15/52/13
f 17/53/14 21/54/14 20/55/14 16/56/14
f 16/57/15 20/58/15 18/59/15 14/60/15
f 93/61/16 94/62/16 95/63/16 96/64/16
f 18/65/17 22/66/17 23/67/17 19/68/17
f 21/69/18 25/70/18 24/71/18 20/72/18
f 20/73/19 24/74/19 22/75/19 18/76/19
f 38/77/20 39/78/20 40/79/20 41/80/20
f 22/81/21 26/82/21 27/83/21 23/84/21
f 25/85/22 29/86/22 28/87/22 24/88/22
f 24/89/23 28/90/23 26/91/23 22/92/23
f 85/93/24 86/94/24 87/95/24 88/96/24
f 26/97/25 30/98/25 31/99/25 27/100/25
f 29/101/26 33/102/26 32/103/26 28/104/26
f 28/105/27 32/106/27 30/107/27 26/108/27
f 42/109/28 34/110/28 37/111/28 43/112/28
f 30/113/29 2/114/29 3/115/29 31/116/29
f 33/117/30 5/118/30 4/119/30 32/120/30
f 32/121/31 4/122/31 2/123/31 30/124/31
f 89/125/32 90/126/32 91/127/32 92/128/32
f 35/129/33 34/130/33 31/131/33 3/132/33
f 37/133/34 36/134/34 5/135/34 33/136/34
f 39/137/35 38/138/35 19/139/35 23/140/35
f 41/141/36 40/142/36 25/143/36 21/144/36
f 34/145/37 42/146/37 27/147/37 31/148/37
f 43/149/38 37/150/38 33/151/38 29/152/38
f 42/153/39 39/154/39 23/155/39 27/156/39
f 40/157/40 43/158/40 29/159/40 25/160/40
f 38/161/41 44/162/41 15/163/41 19/164/41
f 45/165/42 41/166/42 21/167/42 17/168/42
f 44/169/43 46/170/43 11/171/43 15/172/43
f 1/173/44 45/174/44 17/175/44 13/176/44
f 47/177/45 35/178/45 3/179/45 7/180/45
f 36/181/46 48/182/46 9/183/46 5/184/46
f 46/185/47 47/186/47 7/187/47 11/188/47
f 48/189/48 1/190/48 13/191/48 9/192/48
f 50/193/49 49/194/49 47/195/49 46/196/49
f 51/197/50 50/198/50 46/199/50 1/200/50
f 52/201/51 51/202/51 1/203/51 48/204/51
f 49/205/52 52/206/52 48/207/52 47/208/52
f 54/209/53 53/210/53 39/211/53 42/212/53
f 55/213/54 54/214/54 42/215/54 43/216/54
f 56/217/55 55/218/55 43/219/55 40/220/55
f 53/221/56 56/222/56 40/223/56 39/224/56
f 58/225/57 57/226/57 34/227/57 35/228/57
f 59/229/58 58/230/58 35/231/58 36/232/58
f 60/233/59 59/234/59 36/235/59 37/236/59
f 57/237/60 60/238/60 37/239/60 34/240/60
f 62/241/61 61/242/61 44/243/61 38/244/61
f 63/245/62 62/246/62 38/247/62 41/248/62
f 64/249/63 63/250/63 41/251/63 45/252/63
f 61/253/64 64/254/64 45/255/64 44/256/64
f 66/257/65 65/258/65 49/259/65 50/260/65
f 67/261/66 66/262/66 50/263/66 51/264/66
f 68/265/67 67/266/67 51/267/67 52/268/67
f 65/269/68 68/270/68 52/271/68 49/272/68
f 70/273/69 69/274/69 53/275/69 54/276/69
f 71/277/70 70/278/70 54/279/70 55/280/70
f 72/281/71 71/282/71 55/283/71 56/284/71
f 69/285/72 72/286/72 56/287/72 53/288/72
f 74/289/73 73/290/73 57/291/73 58/292/73
f 75/293/74 74/294/74 58/295/74 59/296/74
f 76/297/75 75/298/75 59/299/75 60/300/75
f 73/301/76 76/302/76 60/303/76 57/304/76
f 78/305/77 77/306/77 61/307/77 62/308/77
f 79/309/78 78/310/78 62/311/78 63/312/78
f 80/313/79 79/314/79 63/315/79 64/316/79
f 77/317/80 80/318/80 64/319/80 61/320/80
f 82/321/81 81/322/81 65/323/81 66/324/81
f 83/325/82 82/326/82 66/327/82 67/328/82
f 84/329/83 83/330/83 67/331/83 68/332/83
f 81/333/84 84/334/84 68/335/84 65/336/84
f 86/337/85 85/338/85 69/339/85 70/340/85
f 87/341/86 86/342/86 70/343/86 71/344/86
f 88/345/87 87/346/87 71/347/87 72/348/87
f 85/349/88 88/350/88 72/351/88 69/352/88
f 90/353/89 89/354/89 73/355/89 74/356/89
f 91/357/90 90/358/90 74/359/90 75/360/90
f 92/361/91 91/362/91 75/363/91 76/364/91
f 89/365/92 92/366/92 76/367/92 73/368/92
f 94/369/93 93/370/93 77/371/93 78/372/93
f 95/373/94 94/374/94 78/375/94 79/376/94
f 96/377/95 95/378/95 79/379/95 80/380/95
f 93/381/96 96/382/96 80/383/96 77/384/96
o sphere
v 4.163336342344338e-18 -0.375 -4.163336342344337e-17
v 4.163336342344338e-18 0.5 -4.163336342344337e-17
v 0.03661165235168157 0.3718592167691146 0.0883883476483184
v 0.05177669529663689 0.06250000000000003 0.12499999999999994
v 0.036611652351681574 -0.2468592167691145 0.08838834764831843
v 0.08838834764831845 0.3718592167691146 0.036611652351681526
v 0.125 0.06250000000000003 0.05177669529663685
v 0.08838834764831849 -0.2468592167691145 0.036611652351681526
v 0.08838834764831845 0.3718592167691146 -0.036611652351681595
v 0.125 0.06250000000000003 -0.05177669529663692
v 0.08838834764831849 -0.2468592167691145 -0.0366116523516816
v 0.03661165235168158 0.3718592167691146 -0.08838834764831849
v 0.0517766952966369 0.06250000000000003 -0.125
v 0.03661165235168158 -0.2468592167691145 -0.0883883476483185
v -0.03661165235168155 0.3718592167691146 -0.08838834764831849
v -0.051776695296636865 0.06250000000000003 -0.12500000000000006
v -0.03661165235168155 -0.2468592167691145 -0.0883883476483185
v -0.08838834764831843 0.3718592167691146 -0.03661165235168166
v -0.12499999999999996 0.06250000000000003 -0.05177669529663701
v -0.08838834764831843 -0.2468592167691145 -0.036611652351681664
v -0.08838834764831843 0.3718592167691146 0.03661165235168154
v -0.125 0.06250000000000003 0.05177669529663688
v -0.08838834764831845 -0.2468592167691145 0.036611652351681546
v -0.03661165235168161 0.3718592167691146 0.08838834764831838
v -0.05177669529663696 0.06250000000000003 0.12499999999999992
v -0.03661165235168161 -0.2468592167691145 0.08838834764831839
vt 0 0.6173124999999999
vt 0.2928875 0.6173124999999999
vt 0.14644375 1
vt 0.06066249999999998 1
vt 0 0.6173124999999999
vt 0.4142125 0.6173124999999999
vt 0.35355000000000003 1
vt 0 1
vt 0.06066249999999998 0.6173124999999999
vt 0.35355000000000003 0.6173124999999999
vt 0.4142125 1
vt 0.2928875 1
vt 0 1
vt 0.14644375 0.6173124999999999
vt 0 0.6173124999999999
vt 0.2928875 0.6173124999999999
vt 0.14644375 1
vt 0.06066249999999998 1
vt 0 0.6173124999999999
vt 0.4142125 0.6173124999999999
vt 0.35355000000000003 1
vt 0 1
vt 0.06066249999999998 0.6173124999999999
vt 0.35355000000000003 0.6173124999999999
vt 0.4142125 1
vt 0.2928875 1
vt 0 1
vt 0.14644375 0.6173124999999999
vt 0 0.6173124999999999
vt 0.2928875 0.6173124999999999
vt 0.14644375 1
vt 0.06066249999999998 1
vt 0 0.6173124999999999
vt 0.4142125 0.6173124999999999
vt 0.35355000000000003 1
vt 0 1
vt 0.06066249999999998 0.6173124999999999
vt 0.35355000000000003 0.6173124999999999
vt 0.4142125 1
vt 0.2928875 1
vt 0 1
vt 0.14644375 0.6173124999999999
vt 0 0.6173124999999999
vt 0.2928875 0.6173124999999999
vt 0.14644375 1
vt 0.06066249999999998 1
vt 0 0.6173124999999999
vt 0.4142125 0.6173124999999999
vt 0.35355000000000003 1
vt 0 1
vt 0.06066249999999998 0.6173124999999999
vt 0.35355000000000003 0.6173124999999999
vt 0.4142125 1
vt 0.2928875 1
vt 0 1
vt 0.14644375 0.6173124999999999
vt 0 0.6173124999999999
vt 0.2928875 0.6173124999999999
vt 0.14644375 1
vt 0.06066249999999998 1
vt 0 0.6173124999999999
vt 0.4142125 0.6173124999999999
vt 0.35355000000000003 1
vt 0 1
vt 0.06066249999999998 0.6173124999999999
vt 0.35355000000000003 0.6173124999999999
vt 0.4142125 1
vt 0.2928875 1
vt 0 1
vt 0.14644375 0.6173124999999999
vt 0 0.6173124999999999
vt 0.2928875 0.6173124999999999
vt 0.14644375 1
vt 0.06066249999999998 1
vt 0 0.6173124999999999
vt 0.4142125 0.6173124999999999
vt 0.35355000000000003 1
vt 0 1
vt 0.06066249999999998 0.6173124999999999
vt 0.35355000000000003 0.6173124999999999
vt 0.4142125 1
vt 0.2928875 1
vt 0 1
vt 0.14644375 0.6173124999999999
vt 0 0.6173124999999999
vt 0.2928875 0.6173124999999999
vt 0.14644375 1
vt 0.06066249999999998 1
vt 0 0.6173124999999999
vt 0.4142125 0.6173124999999999
vt 0.35355000000000003 1
vt 0 1
vt 0.06066249999999998 0.6173124999999999
vt 0.35355000000000003 0.6173124999999999
vt 0.4142125 1
vt 0.2928875 1
vt 0 1
vt 0.14644375 0.6173124999999999
vt 0 0.6173124999999999
vt 0.2928875 0.6173124999999999
vt 0.14644375 1
vt 0.06066249999999998 1
vt 0 0.6173124999999999
vt 0.4142125 0.6173124999999999
vt 0.35355000000000003 1
vt 0 1
vt 0.06066249999999998 0.6173124999999999
vt 0.35355000000000003 0.6173124999999999
vt 0.4142125 1
vt 0.2928875 1
vt 0 1
vt 0.14644375 0.6173124999999999
vn 0.5820666611692977 0.5677999682198407 0.5820666611692977
vn 0.7022063471862826 0.1175265584563583 0.7022063471862827
vn 0.7022063471862827 -0.11752655845635823 0.7022063471862827
vn 0.5820666611692978 -0.5677999682198404 0.5820666611692978
vn 0.8231665664308457 0.5677999682198406 0
vn 0.9930697397753113 0.11752655845635833 0
vn 0.9930697397753112 -0.11752655845635819 0
vn 0.823166566430846 -0.5677999682198405 0
vn 0.5820666611692978 0.5677999682198406 -0.5820666611692975
vn 0.7022063471862825 0.11752655845635829 -0.7022063471862828
vn 0.7022063471862826 -0.11752655845635823 -0.7022063471862827
vn 0.5820666611692978 -0.5677999682198405 -0.582066661169298
vn 0 0.5677999682198406 -0.8231665664308458
vn 5.377527270974858e-16 0.11752655845635819 -0.9930697397753113
vn 0 -0.11752655845635815 -0.9930697397753112
vn 0 -0.5677999682198404 -0.823166566430846
vn -0.5820666611692974 0.5677999682198407 -0.582066661169298
vn -0.7022063471862825 0.11752655845635834 -0.7022063471862829
vn -0.7022063471862823 -0.11752655845635834 -0.7022063471862829
vn -0.5820666611692976 -0.5677999682198404 -0.5820666611692981
vn -0.8231665664308458 0.5677999682198406 0
vn -0.9930697397753113 0.11752655845635823 -4.302021816779881e-16
vn -0.9930697397753112 -0.11752655845635823 -2.2814915995931447e-16
vn -0.823166566430846 -0.5677999682198402 -1.5601222842500004e-16
vn -0.5820666611692978 0.5677999682198407 0.5820666611692977
vn -0.7022063471862826 0.11752655845635836 0.7022063471862826
vn -0.7022063471862827 -0.11752655845635836 0.7022063471862825
vn -0.5820666611692978 -0.5677999682198404 0.5820666611692977
vn -3.120244568500003e-16 0.5677999682198406 0.823166566430846
vn -2.688763635487427e-16 0.11752655845635826 0.9930697397753113
vn -6.083977598915054e-16 -0.11752655845635827 0.9930697397753112
vn -4.680366852750004e-16 -0.5677999682198404 0.8231665664308461
usemtl m_69fb0518-3b4a-e601-bf2e-e308fe9e25dc
f 99/385/97 102/386/97 98/387/97
f 99/388/98 100/389/98 103/390/98 102/391/98
f 100/392/99 101/393/99 104/394/99 103/395/99
f 104/396/100 101/397/100 97/398/100
f 102/399/101 105/400/101 98/401/101
f 102/402/102 103/403/102 106/404/102 105/405/102
f 103/406/103 104/407/103 107/408/103 106/409/103
f 107/410/104 104/411/104 97/412/104
f 105/413/105 108/414/105 98/415/105
f 105/416/106 106/417/106 109/418/106 108/419/106
f 106/420/107 107/421/107 110/422/107 109/423/107
f 110/424/108 107/425/108 97/426/108
f 108/427/109 111/428/109 98/429/109
f 108/430/110 109/431/110 112/432/110 111/433/110
f 109/434/111 110/435/111 113/436/111 112/437/111
f 113/438/112 110/439/112 97/440/112
f 111/441/113 114/442/113 98/443/113
f 111/444/114 112/445/114 115/446/114 114/447/114
f 112/448/115 113/449/115 116/450/115 115/451/115
f 116/452/116 113/453/116 97/454/116
f 114/455/117 117/456/117 98/457/117
f 114/458/118 115/459/118 118/460/118 117/461/118
f 115/462/119 116/463/119 119/464/119 118/465/119
f 119/466/120 116/467/120 97/468/120
f 117/469/121 120/470/121 98/471/121
f 117/472/122 118/473/122 121/474/122 120/475/122
f 118/476/123 119/477/123 122/478/123 121/479/123
f 122/480/124 119/481/124 97/482/124
f 120/483/125 99/484/125 98/485/125
f 120/486/126 121/487/126 100/488/126 99/489/126
f 121/490/127 122/491/127 101/492/127 100/493/127
f 101/494/128 122/495/128 97/496/128
o tube
v 0.15533008588991065 0 0.37499999999999994
v 0.15533008588991065 0.0625 0.37499999999999994
v 0.11635137814135008 0 0.2808970751096478
v 0.11635137814135008 0.0625 0.2808970751096478
v 0.375 0 0.15533008588991068
v 0.375 0.0625 0.15533008588991068
v 0.2808970751096478 0 0.11635137814135005
v 0.2808970751096478 0.0625 0.11635137814135005
v 0.375 0 -0.15533008588991065
v 0.375 0.0625 -0.15533008588991065
v 0.2808970751096478 0 -0.11635137814135006
v 0.2808970751096478 0.0625 -0.11635137814135006
v 0.15533008588991068 0 -0.375
v 0.15533008588991068 0.0625 -0.375
v 0.1163513781413501 0 -0.28089707510964773
v 0.1163513781413501 0.0625 -0.28089707510964773
v -0.1553300858899106 0 -0.37500000000000006
v -0.1553300858899106 0.0625 -0.37500000000000006
v -0.11635137814135002 0 -0.2808970751096478
v -0.11635137814135002 0.0625 -0.2808970751096478
v -0.37499999999999983 0 -0.1553300858899109
v -0.37499999999999983 0.0625 -0.1553300858899109
v -0.2808970751096477 0 -0.11635137814135026
v -0.2808970751096477 0.0625 -0.11635137814135026
v -0.375 0 0.15533008588991074
v -0.375 0.0625 0.15533008588991074
v -0.2808970751096477 0 0.11635137814135012
v -0.2808970751096477 0.0625 0.11635137814135012
v -0.1553300858899109 0 0.3749999999999999
v -0.1553300858899109 0.0625 0.3749999999999999
v -0.11635137814135023 0 0.2808970751096477
v -0.11635137814135023 0.0625 0.2808970751096477
vt 0 0.5
vt 0.4142125 0.5
vt 0.4142125 1
vt 0 1
vt 0.2412375 1
vt 0 1
vt 0 0.5
vt 0.2412375 0.5
vt 0 0.913507582408738
vt 1.1102230246251565e-16 0.6722781040069473
vt 0.20880421306700514 0.5857856864156853
vt 0.20880421306700514 1
vt 0 0.7911957869329949
vt 0.4142143135843147 0.7911957869329949
vt 0.3277218959930527 1
vt 0.08649241759126203 0.9999999999999999
vt 0 0.5
vt 0.4142125 0.5
vt 0.4142125 1
vt 0 1
vt 0.2412375 1
vt 0 1
vt 0 0.5
vt 0.2412375 0.5
vt 0 0.9135125
vt 0 0.672275
vt 0.20880625000000003 0.5857875
vt 0.20880625000000003 1
vt 0.20880625000000003 0.5857875
vt 0.20880625000000003 1
vt 0 0.9135125
vt 0 0.672275
vt 0 0.5
vt 0.4142125 0.5
vt 0.4142125 1
vt 0 1
vt 0.2412375 1
vt 0 1
vt 0 0.5
vt 0.2412375 0.5
vt 0.3277218959930527 1
vt 0.08649241759126203 0.9999999999999999
vt 0 0.7911957869329949
vt 0.4142143135843147 0.7911957869329949
vt 0.20880421306700514 0.5857856864156853
vt 0.20880421306700514 1
vt 0 0.913507582408738
vt 1.1102230246251565e-16 0.6722781040069473
vt 0 0.5
vt 0.4142125 0.5
vt 0.4142125 1
vt 0 1
vt 0.2412375 1
vt 0 1
vt 0 0.5
vt 0.2412375 0.5
vt 0.327725 1
vt 0.0864875 1
vt 0 0.7911937499999999
vt 0.4142125 0.7911937499999999
vt 0.4142125 1
vt 0 1
vt 0.0864875 0.7911937499999999
vt 0.327725 0.7911937499999999
vt 0 0.5
vt 0.4142125 0.5
vt 0.4142125 1
vt 0 1
vt 0.2412375 1
vt 0 1
vt 0 0.5
vt 0.2412375 0.5
vt 0.20880421306700514 0.6722781040069473
vt 0.20880421306700503 0.913507582408738
vt 0 1
vt 0 0.5857856864156853
vt 0.4142143135843147 1
vt 0 1
vt 0.08649241759126206 0.7911957869329949
vt 0.3277218959930527 0.791195786932995
vt 0 0.5
vt 0.4142125 0.5
vt 0.4142125 1
vt 0 1
vt 0.2412375 1
vt 0 1
vt 0 0.5
vt 0.2412375 0.5
vt 0.20880625000000003 0.672275
vt 0.20880625000000003 0.9135125
vt 0 1
vt 0 0.5857875
vt 0 1
vt 0 0.5857875
vt 0.20880625000000003 0.672275
vt 0.20880625000000003 0.9135125
vt 0 0.5
vt 0.4142125 0.5
vt 0.4142125 1
vt 0 1
vt 0.2412375 1
vt 0 1
vt 0 0.5
vt 0.2412375 0.5
vt 0.08649241759126206 0.7911957869329949
vt 0.3277218959930527 0.791195786932995
vt 0.4142143135843147 1
vt 0 1
vt 0 1
vt 0 0.5857856864156853
vt 0.20880421306700514 0.6722781040069473
vt 0.20880421306700503 0.913507582408738
vt 0 0.5
vt 0.4142125 0.5
vt 0.4142125 1
vt 0 1
vt 0.2412375 1
vt 0 1
vt 0 0.5
vt 0.2412375 0.5
vt 0.0864875 0.7911937499999999
vt 0.327725 0.7911937499999999
vt 0.4142125 1
vt 0 1
vt 0 0.7911937499999999
vt 0.4142125 0.7911937499999999
vt 0.327725 1
vt 0.0864875 1
vn 0.7071067811865475 0 0.7071067811865477
vn -0.7071067811865477 0 -0.7071067811865475
vn 0 -1 0
vn 0 1 0
vn 1 0 0
vn -1 0 0
vn 0 -1 0
vn 0 1 0
vn 0.7071067811865476 0 -0.7071067811865475
vn -0.7071067811865476 0 0.7071067811865476
vn 0 -1 0
vn 0 1 0
vn 1.786876988872621e-16 0 -1
vn -2.3854960774001243e-16 0 1
vn 0 -1 0
vn 0 1 0
vn -0.7071067811865475 0 -0.7071067811865477
vn 0.7071067811865472 0 0.7071067811865479
vn 0 -1 0
vn 0 1 0
vn -1 0 -5.360630966617857e-16
vn 1 0 0
vn 0 -1 0
vn 0 1 0
vn -0.7071067811865476 0 0.7071067811865475
vn 0.7071067811865478 0 -0.7071067811865472
vn 0 -1 0
vn 0 1 0
vn -1.7868769888726197e-16 0 1
vn 4.770992154800245e-16 0 -1
vn 0 -1 0
vn 0 1 0
usemtl m_3c354cdb-9b7b-b1e2-05a7-676ac8f5c10f
f 123/497/129 127/498/129 128/499/129 124/500/129
f 126/501/130 130/502/130 129/503/130 125/504/130
f 125/505/131 129/506/131 127/507/131 123/508/131
f 124/509/132 128/510/132 130/511/132 126/512/132
f 127/513/133 131/514/133 132/515/133 128/516/133
f 130/517/134 134/518/134 133/519/134 129/520/134
f 129/521/135 133/522/135 131/523/135 127/524/135
f 128/525/136 132/526/136 134/527/136 130/528/136
f 131/529/137 135/530/137 136/531/137 132/532/137
f 134/533/138 138/534/138 137/535/138 133/536/138
f 133/537/139 137/538/139 135/539/139 131/540/139
f 132/541/140 136/542/140 138/543/140 134/544/140
f 135/545/141 139/546/141 140/547/141 136/548/141
f 138/549/142 142/550/142 141/551/142 137/552/142
f 137/553/143 141/554/143 139/555/143 135/556/143
f 136/557/144 140/558/144 142/559/144 138/560/144
f 139/561/145 143/562/145 144/563/145 140/564/145
f 142/565/146 146/566/146 145/567/146 141/568/146
f 141/569/147 145/570/147 143/571/147 139/572/147
f 140/573/148 144/574/148 146/575/148 142/576/148
f 143/577/149 147/578/149 148/579/149 144/580/149
f 146/581/150 150/582/150 149/583/150 145/584/150
f 145/585/151 149/586/151 147/587/151 143/588/151
f 144/589/152 148/590/152 150/591/152 146/592/152
f 147/593/153 151/594/153 152/595/153 148/596/153
f 150/597/154 154/598/154 153/599/154 149/600/154
f 149/601/155 153/602/155 151/603/155 147/604/155
f 148/605/156 152/606/156 154/607/156 150/608/156
f 151/609/157 123/610/157 124/611/157 152/612/157
f 154/613/158 126/614/158 125/615/158 153/616/158
f 153/617/159 125/618/159 123/619/159 151/620/159
f 152/621/160 124/622/160 126/623/160 154/624/160
o torus
v 0.10355339059327377 0.5051495125182746 0.25
v 0.12185921676911454 0.4853354290456362 0.2941941738241592
v 0.12944173824159222 0.4375 0.3125
v 0.12185921676911457 0.3896645709543638 0.29419417382415924
v 0.10355339059327377 0.36985048748172544 0.25
v 0.08524756441743299 0.3896645709543638 0.20580582617584078
v 0.07766504294495534 0.4375 0.18750000000000003
v 0.08524756441743299 0.4853354290456362 0.20580582617584078
v 0.25 0.5051495125182746 0.10355339059327379
v 0.2941941738241592 0.4853354290456362 0.12185921676911456
v 0.3125 0.4375 0.12944173824159222
v 0.29419417382415924 0.3896645709543638 0.12185921676911458
v 0.25 0.36985048748172544 0.10355339059327379
v 0.20580582617584078 0.3896645709543638 0.085247564417433
v 0.18750000000000003 0.4375 0.07766504294495534
v 0.20580582617584078 0.4853354290456362 0.085247564417433
v 0.25 0.5051495125182746 -0.10355339059327376
v 0.2941941738241592 0.4853354290456362 -0.12185921676911453
v 0.3125 0.4375 -0.1294417382415922
v 0.29419417382415924 0.3896645709543638 -0.12185921676911454
v 0.25 0.36985048748172544 -0.10355339059327376
v 0.20580582617584078 0.3896645709543638 -0.08524756441743297
v 0.18750000000000003 0.4375 -0.07766504294495533
v 0.20580582617584078 0.4853354290456362 -0.08524756441743297
v 0.1035533905932738 0.5051495125182746 -0.25
v 0.12185921676911458 0.4853354290456362 -0.2941941738241592
v 0.12944173824159225 0.4375 -0.3125
v 0.1218592167691146 0.3896645709543638 -0.29419417382415924
v 0.1035533905932738 0.36985048748172544 -0.25
v 0.08524756441743302 0.3896645709543638 -0.20580582617584078
v 0.07766504294495535 0.4375 -0.18750000000000003
v 0.08524756441743302 0.4853354290456362 -0.20580582617584078
v -0.10355339059327374 0.5051495125182746 -0.25000000000000006
v -0.12185921676911451 0.4853354290456362 -0.29419417382415924
v -0.12944173824159216 0.4375 -0.31250000000000006
v -0.12185921676911453 0.3896645709543638 -0.2941941738241593
v -0.10355339059327374 0.36985048748172544 -0.25000000000000006
v -0.08524756441743296 0.3896645709543638 -0.2058058261758408
v -0.07766504294495531 0.4375 -0.18750000000000003
v -0.08524756441743296 0.4853354290456362 -0.2058058261758408
v -0.24999999999999994 0.5051495125182746 -0.10355339059327393
v -0.29419417382415913 0.4853354290456362 -0.12185921676911472
v -0.31249999999999994 0.4375 -0.12944173824159239
v -0.2941941738241592 0.3896645709543638 -0.12185921676911474
v -0.24999999999999994 0.36985048748172544 -0.10355339059327393
v -0.20580582617584073 0.3896645709543638 -0.08524756441743311
v -0.18749999999999997 0.4375 -0.07766504294495545
v -0.20580582617584073 0.4853354290456362 -0.08524756441743311
v -0.24999999999999997 0.5051495125182746 0.10355339059327383
v -0.2941941738241592 0.4853354290456362 0.12185921676911461
v -0.31249999999999994 0.4375 0.12944173824159227
v -0.29419417382415924 0.3896645709543638 0.12185921676911464
v -0.24999999999999997 0.36985048748172544 0.10355339059327383
v -0.20580582617584076 0.3896645709543638 0.08524756441743303
v -0.1875 0.4375 0.07766504294495538
v -0.20580582617584076 0.4853354290456362 0.08524756441743303
v -0.10355339059327394 0.5051495125182746 0.24999999999999994
v -0.12185921676911474 0.4853354290456362 0.29419417382415913
v -0.1294417382415924 0.4375 0.31249999999999994
v -0.12185921676911476 0.3896645709543638 0.2941941738241592
v -0.10355339059327394 0.36985048748172544 0.24999999999999994
v -0.08524756441743313 0.3896645709543638 0.20580582617584073
v -0.07766504294495545 0.4375 0.18749999999999997
v -0.08524756441743313 0.4853354290456362 0.20580582617584073
vt 0.018299999999999997 1
vt 0 0.9515625
vt 0.2437125 0.9515625
vt 0.22541250000000002 1
vt 0.007587499999999997 1
vt 0 0.94878125
vt 0.2588875 0.94878125
vt 0.25129999999999997 1
vt 0 1
vt 0.007587499999999997 0.94878125
vt 0.25129999999999997 0.94878125
vt 0.2588875 1
vt 0 0.9375
vt 0.018299999999999997 0.8890625
vt 0.22541250000000002 0.8890625
vt 0.2437125 0.9375
vt 0.2071125 0.9515625
vt 0.18880625 1
vt 0.018306249999999996 1
vt 0 0.9515625
vt 0.1705 0.94878125
vt 0.16291250000000002 1
vt 0.007587500000000011 1
vt 0 0.94878125
vt 0.16291250000000002 0.94878125
vt 0.1705 1
vt 0 1
vt 0.007587500000000011 0.94878125
vt 0.18880625 0.9515625
vt 0.2071125 1
vt 0 1
vt 0.018306249999999996 0.9515625
vt 0.018299999999999997 1
vt 0 0.9515625
vt 0.2437125 0.9515625
vt 0.22541250000000002 1
vt 0.007587499999999997 1
vt 0 0.94878125
vt 0.2588875 0.94878125
vt 0.25129999999999997 1
vt 0 1
vt 0.007587499999999997 0.94878125
vt 0.25129999999999997 0.94878125
vt 0.2588875 1
vt 0 0.9375
vt 0.018299999999999997 0.8890625
vt 0.22541250000000002 0.8890625
vt 0.2437125 0.9375
vt 0.2071125 0.9515625
vt 0.18880625 1
vt 0.018306249999999996 1
vt 0 0.9515625
vt 0.1705 0.94878125
vt 0.16291250000000002 1
vt 0.007587500000000011 1
vt 0 0.94878125
vt 0.16291250000000002 0.94878125
vt 0.1705 1
vt 0 1
vt 0.007587500000000011 0.94878125
vt 0.18880625 0.9515625
vt 0.2071125 1
vt 0 1
vt 0.018306249999999996 0.9515625
vt 0.018299999999999997 1
vt 0 0.9515625
vt 0.2437125 0.9515625
vt 0.22541250000000002 1
vt 0.007587499999999997 1
vt 0 0.94878125
vt 0.2588875 0.94878125
vt 0.25129999999999997 1
vt 0 1
vt 0.007587499999999997 0.94878125
vt 0.25129999999999997 0.94878125
vt 0.2588875 1
vt 0 0.9375
vt 0.018299999999999997 0.8890625
vt 0.22541250000000002 0.8890625
vt 0.2437125 0.9375
vt 0.2071125 0.9515625
vt 0.18880625 1
vt 0.018306249999999996 1
vt 0 0.9515625
vt 0.1705 0.94878125
vt 0.16291250000000002 1
vt 0.007587500000000011 1
vt 0 0.94878125
vt 0.16291250000000002 0.94878125
vt 0.1705 1
vt 0 1
vt 0.007587500000000011 0.94878125
vt 0.18880625 0.9515625
vt 0.2071125 1
vt 0 1
vt 0.018306249999999996 0.9515625
vt 0.018299999999999997 1
vt 0 0.9515625
vt 0.2437125 0.9515625
vt 0.22541250000000002 1
vt 0.007587499999999997 1
vt 0 0.94878125
vt 0.2588875 0.94878125
vt 0.25129999999999997 1
vt 0 1
vt 0.007587499999999997 0.94878125
vt 0.25129999999999997 0.94878125
vt 0.2588875 1
vt 0 0.9375
vt 0.018299999999999997 0.8890625
vt 0.22541250000000002 0.8890625
vt 0.2437125 0.9375
vt 0.2071125 0.9515625
vt 0.18880625 1
vt 0.018306249999999996 1
vt 0 0.9515625
vt 0.1705 0.94878125
vt 0.16291250000000002 1
vt 0.007587500000000011 1
vt 0 0.94878125
vt 0.16291250000000002 0.94878125
vt 0.1705 1
vt 0 1
vt 0.007587500000000011 0.94878125
vt 0.18880625 0.9515625
vt 0.2071125 1
vt 0 1
vt 0.018306249999999996 0.9515625
vt 0.018299999999999997 1
vt 0 0.9515625
vt 0.2437125 0.9515625
vt 0.22541250000000002 1
vt 0.007587499999999997 1
vt 0 0.94878125
vt 0.2588875 0.94878125
vt 0.25129999999999997 1
vt 0 1
vt 0.007587499999999997 0.94878125
vt 0.25129999999999997 0.94878125
vt 0.2588875 1
vt 0 0.9375
vt 0.018299999999999997 0.8890625
vt 0.22541250000000002 0.8890625
vt 0.2437125 0.9375
vt 0.2071125 0.9515625
vt 0.18880625 1
vt 0.018306249999999996 1
vt 0 0.9515625
vt 0.1705 0.94878125
vt 0.16291250000000002 1
vt 0.007587500000000011 1
vt 0 0.94878125
vt 0.16291250000000002 0.94878125
vt 0.1705 1
vt 0 1
vt 0.007587500000000011 0.94878125
vt 0.18880625 0.9515625
vt 0.2071125 1
vt 0 1
vt 0.018306249999999996 0.9515625
vt 0.018299999999999997 1
vt 0 0.9515625
vt 0.2437125 0.9515625
vt 0.22541250000000002 1
vt 0.007587499999999997 1
vt 0 0.94878125
vt 0.2588875 0.94878125
vt 0.25129999999999997 1
vt 0 1
vt 0.007587499999999997 0.94878125
vt 0.25129999999999997 0.94878125
vt 0.2588875 1
vt 0 0.9375
vt 0.018299999999999997 0.8890625
vt 0.22541250000000002 0.8890625
vt 0.2437125 0.9375
vt 0.2071125 0.9515625
vt 0.18880625 1
vt 0.018306249999999996 1
vt 0 0.9515625
vt 0.1705 0.94878125
vt 0.16291250000000002 1
vt 0.007587500000000011 1
vt 0 0.94878125
vt 0.16291250000000002 0.94878125
vt 0.1705 1
vt 0 1
vt 0.007587500000000011 0.94878125
vt 0.18880625 0.9515625
vt 0.2071125 1
vt 0 1
vt 0.018306249999999996 0.9515625
vt 0.018299999999999997 1
vt 0 0.9515625
vt 0.2437125 0.9515625
vt 0.22541250000000002 1
vt 0.007587499999999997 1
vt 0 0.94878125
vt 0.2588875 0.94878125
vt 0.25129999999999997 1
vt 0 1
vt 0.007587499999999997 0.94878125
vt 0.25129999999999997 0.94878125
vt 0.2588875 1
vt 0 0.9375
vt 0.018299999999999997 0.8890625
vt 0.22541250000000002 0.8890625
vt 0.2437125 0.9375
vt 0.2071125 0.9515625
vt 0.18880625 1
vt 0.018306249999999996 1
vt 0 0.9515625
vt 0.1705 0.94878125
vt 0.16291250000000002 1
vt 0.007587500000000011 1
vt 0 0.94878125
vt 0.16291250000000002 0.94878125
vt 0.1705 1
vt 0 1
vt 0.007587500000000011 0.94878125
vt 0.18880625 0.9515625
vt 0.2071125 1
vt 0 1
vt 0.018306249999999996 0.9515625
vt 0.018299999999999997 1
vt 0 0.9515625
vt 0.2437125 0.9515625
vt 0.22541250000000002 1
vt 0.007587499999999997 1
vt 0 0.94878125
vt 0.2588875 0.94878125
vt 0.25129999999999997 1
vt 0 1
vt 0.007587499999999997 0.94878125
vt 0.25129999999999997 0.94878125
vt 0.2588875 1
vt 0 0.9375
vt 0.018299999999999997 0.8890625
vt 0.22541250000000002 0.8890625
vt 0.2437125 0.9375
vt 0.2071125 0.9515625
vt 0.18880625 1
vt 0.018306249999999996 1
vt 0 0.9515625
vt 0.1705 0.94878125
vt 0.16291250000000002 1
vt 0.007587500000000011 1
vt 0 0.94878125
vt 0.16291250000000002 0.94878125
vt 0.1705 1
vt 0 1
vt 0.007587500000000011 0.94878125
vt 0.18880625 0.9515625
vt 0.2071125 1
vt 0 1
vt 0.018306249999999996 0.9515625
vn 0.2892814836864665 0.9124869568340764 0.28928148368646645
vn 0.6604015517481453 0.35740674433659403 0.6604015517481453
vn 0.6604015517481455 -0.357406744336593 0.6604015517481457
vn 0.2892814836864661 -0.9124869568340767 0.2892814836864661
vn -0.2892814836864662 -0.9124869568340763 -0.2892814836864663
vn -0.6604015517481457 -0.357406744336593 -0.6604015517481456
vn -0.6604015517481455 0.357406744336593 -0.6604015517481456
vn -0.2892814836864662 0.9124869568340765 -0.2892814836864663
vn 0.40910579757281207 0.9124869568340763 0
vn 0.9339488310944645 0.357406744336594 0
vn 0.933948831094465 -0.357406744336593 0
vn 0.4091057975728116 -0.9124869568340764 0
vn -0.4091057975728118 -0.9124869568340763 0
vn -0.9339488310944649 -0.3574067443365929 0
vn -0.933948831094465 0.35740674433659303 0
vn -0.4091057975728118 0.9124869568340763 0
vn 0.28928148368646645 0.9124869568340763 -0.28928148368646633
vn 0.6604015517481455 0.3574067443365938 -0.6604015517481453
vn 0.6604015517481457 -0.357406744336593 -0.6604015517481455
vn 0.2892814836864662 -0.9124869568340765 -0.28928148368646617
vn -0.2892814836864663 -0.9124869568340763 0.28928148368646617
vn -0.6604015517481457 -0.3574067443365929 0.6604015517481455
vn -0.6604015517481457 0.35740674433659303 0.6604015517481455
vn -0.2892814836864663 0.9124869568340763 0.28928148368646617
vn 9.185092639313554e-17 0.9124869568340763 -0.40910579757281207
vn 1.9624138132632156e-16 0.357406744336594 -0.9339488310944645
vn 2.0845223026452563e-16 -0.35740674433659314 -0.9339488310944649
vn 1.0808802962084856e-16 -0.9124869568340764 -0.4091057975728115
vn -6.564927705721149e-17 -0.9124869568340763 0.4091057975728118
vn 0 -0.3574067443365929 0.9339488310944649
vn -1.6140428465426168e-16 0.35740674433659303 0.933948831094465
vn -1.0808802962084864e-16 0.9124869568340765 0.40910579757281185
vn -0.2892814836864663 0.9124869568340763 -0.2892814836864665
vn -0.6604015517481452 0.3574067443365937 -0.6604015517481456
vn -0.6604015517481454 -0.3574067443365928 -0.6604015517481459
vn -0.28928148368646606 -0.9124869568340765 -0.28928148368646617
vn 0.289281483686466 -0.9124869568340764 0.28928148368646617
vn 0.6604015517481453 -0.3574067443365934 0.6604015517481459
vn 0.6604015517481454 0.3574067443365933 0.6604015517481456
vn 0.28928148368646606 0.9124869568340765 0.28928148368646617
vn -0.4091057975728121 0.9124869568340763 -9.185092639313547e-17
vn -0.9339488310944645 0.3574067443365939 0
vn -0.933948831094465 -0.3574067443365931 -2.084522302645254e-16
vn -0.4091057975728117 -0.9124869568340764 -5.404401481042424e-17
vn 0.4091057975728118 -0.9124869568340763 6.564927705721141e-17
vn 0.933948831094465 -0.35740674433659303 1.635344844386012e-16
vn 0.9339488310944649 0.357406744336593 1.6140428465426148e-16
vn 0.40910579757281196 0.9124869568340764 5.404401481042427e-17
vn -0.2892814836864663 0.9124869568340763 0.28928148368646617
vn -0.6604015517481459 0.3574067443365932 0.6604015517481453
vn -0.660401551748146 -0.35740674433659214 0.6604015517481459
vn -0.289281483686466 -0.9124869568340768 0.28928148368646583
vn 0.2892814836864663 -0.9124869568340765 -0.28928148368646617
vn 0.6604015517481457 -0.35740674433659303 -0.6604015517481455
vn 0.6604015517481459 0.357406744336593 -0.6604015517481455
vn 0.2892814836864663 0.9124869568340764 -0.2892814836864661
vn -9.185092639313549e-17 0.9124869568340764 0.4091057975728121
vn -1.962413813263214e-16 0.35740674433659386 0.9339488310944645
vn -2.0845223026452546e-16 -0.3574067443365931 0.933948831094465
vn -1.0808802962084848e-16 -0.9124869568340764 0.4091057975728117
vn 1.3129855411442285e-16 -0.9124869568340763 -0.4091057975728118
vn 3.2706896887720244e-16 -0.3574067443365931 -0.933948831094465
vn 3.103928551043491e-16 0.3574067443365931 -0.9339488310944649
vn 1.0808802962084854e-16 0.9124869568340764 -0.4091057975728118
usemtl m_3c354cdb-9b7b-b1e2-05a7-676ac8f5c10f
f 155/625/161 156/626/161 164/627/161 163/628/161
f 156/629/162 157/630/162 165/631/162 164/632/162
f 157/633/163 158/634/163 166/635/163 165/636/163
f 158/637/164 159/638/164 167/639/164 166/640/164
f 159/641/165 160/642/165 168/643/165 167/644/165
f 160/645/166 161/646/166 169/647/166 168/648/166
f 161/649/167 162/650/167 170/651/167 169/652/167
f 162/653/168 155/654/168 163/655/168 170/656/168
f 163/657/169 164/658/169 172/659/169 171/660/169
f 164/661/170 165/662/170 173/663/170 172/664/170
f 165/665/171 166/666/171 174/667/171 173/668/171
f 166/669/172 167/670/172 175/671/172 174/672/172
f 167/673/173 168/674/173 176/675/173 175/676/173
f 168/677/174 169/678/174 177/679/174 176/680/174
f 169/681/175 170/682/175 178/683/175 177/684/175
f 170/685/176 163/686/176 171/687/176 178/688/176
f 171/689/177 172/690/177 180/691/177 179/692/177
f 172/693/178 173/694/178 181/695/178 180/696/178
f 173/697/179 174/698/179 182/699/179 181/700/179
f 174/701/180 175/702/180 183/703/180 182/704/180
f 175/705/181 176/706/181 184/707/181 183/708/181
f 176/709/182 177/710/182 185/711/182 184/712/182
f 177/713/183 178/714/183 186/715/183 185/716/183
f 178/717/184 171/718/184 179/719/184 186/720/184
f 179/721/185 180/722/185 188/723/185 187/724/185
f 180/725/186 181/726/186 189/727/186 188/728/186
f 181/729/187 182/730/187 190/731/187 189/732/187
f 182/733/188 183/734/188 191/735/188 190/736/188
f 183/737/189 184/738/189 192/739/189 191/740/189
f 184/741/190 185/742/190 193/743/190 192/744/190
f 185/745/191 186/746/191 194/747/191 193/748/191
f 186/749/192 179/750/192 187/751/192 194/752/192
f 187/753/193 188/754/193 196/755/193 195/756/193
f 188/757/194 189/758/194 197/759/194 196/760/194
f 189/761/195 190/762/195 198/763/195 197/764/195
f 190/765/196 191/766/196 199/767/196 198/768/196
f 191/769/197 192/770/197 200/771/197 199/772/197
f 192/773/198 193/774/198 201/775/198 200/776/198
f 193/777/199 194/778/199 202/779/199 201/780/199
f 194/781/200 187/782/200 195/783/200 202/784/200
f 195/785/201 196/786/201 204/787/201 203/788/201
f 196/789/202 197/790/202 205/791/202 204/792/202
f 197/793/203 198/794/203 206/795/203 205/796/203
f 198/797/204 199/798/204 207/799/204 206/800/204
f 199/801/205 200/802/205 208/803/205 207/804/205
f 200/805/206 201/806/206 209/807/206 208/808/206
f 201/809/207 202/810/207 210/811/207 209/812/207
f 202/813/208 195/814/208 203/815/208 210/816/208
f 203/817/209 204/818/209 212/819/209 211/820/209
f 204/821/210 205/822/210 213/823/210 212/824/210
f 205/825/211 206/826/211 214/827/211 213/828/211
f 206/829/212 207/830/212 215/831/212 214/832/212
f 207/833/213 208/834/213 216/835/213 215/836/213
f 208/837/214 209/838/214 217/839/214 216/840/214
f 209/841/215 210/842/215 218/843/215 217/844/215
f 210/845/216 203/846/216 211/847/216 218/848/216
f 211/849/217 212/850/217 156/851/217 155/852/217
f 212/853/218 213/854/218 157/855/218 156/856/218
f 213/857/219 214/858/219 158/859/219 157/860/219
f 214/861/220 215/862/220 159/863/220 158/864/220
f 215/865/221 216/866/221 160/867/221 159/868/221
f 216/869/222 217/870/222 161/871/222 160/872/222
f 217/873/223 218/874/223 162/875/223 161/876/223
f 218/877/224 211/878/224 155/879/224 162/880/224