# Made in Blockbench 4.7.4
mtllib swordNEW.mtl

o cylinder
v 0 -0.5 0
v 0.13397459621556132 -0.5 0.49999999999999994
v 0.13397459621556132 -0.1875 0.49999999999999994
v 0.3660254037844386 -0.5 0.36602540378443865
v 0.3660254037844386 -0.1875 0.36602540378443865
v 0.49999999999999994 -0.5 0.13397459621556132
v 0.49999999999999994 -0.1875 0.13397459621556132
v 0.49999999999999994 -0.5 -0.13397459621556138
v 0.49999999999999994 -0.1875 -0.13397459621556138
v 0.36602540378443865 -0.5 -0.3660254037844386
v 0.36602540378443865 -0.1875 -0.3660254037844386
v 0.1339745962155615 -0.5 -0.4999999999999999
v 0.1339745962155615 -0.1875 -0.4999999999999999
v -0.13397459621556113 -0.5 -0.5
v -0.13397459621556113 -0.1875 -0.5
v -0.3660254037844386 -0.5 -0.3660254037844387
v -0.3660254037844386 -0.1875 -0.3660254037844387
v -0.49999999999999994 -0.5 -0.13397459621556126
v -0.49999999999999994 -0.1875 -0.13397459621556126
v -0.5 -0.5 0.1339745962155611
v -0.5 -0.1875 0.1339745962155611
v -0.3660254037844387 -0.5 0.36602540378443854
v -0.3660254037844387 -0.1875 0.36602540378443854
v -0.1339745962155613 -0.5 0.49999999999999994
v -0.1339745962155613 -0.1875 0.49999999999999994
v -0.08373412263472572 0 -0.3125
v -0.22876587736527418 0 -0.22876587736527418
v -0.31249999999999994 0 -0.0837341226347258
v -0.3125 0 0.0837341226347257
v -0.22876587736527418 0 0.2287658773652741
v -0.08373412263472582 0 0.3125
v 0.08373412263472584 0 0.3125
v 0.2287658773652741 0 0.22876587736527418
v 0.3125 0 0.08373412263472584
v 0.3125 0 -0.08373412263472586
v 0.22876587736527418 0 -0.22876587736527418
v 0.08373412263472593 0 -0.31249999999999994
v -0.06280059197604429 -0.375 -0.234375
v -0.17157440802395563 -0.375 -0.17157440802395563
v -5.782411586589357e-18 -0.375 -5.782411586589357e-18
v -0.23437499999999994 -0.375 -0.06280059197604435
v -0.234375 -0.375 0.06280059197604428
v -0.17157440802395563 -0.375 0.17157440802395557
v -0.06280059197604437 -0.375 0.234375
v 0.06280059197604437 -0.375 0.234375
v 0.17157440802395557 -0.375 0.17157440802395563
v 0.234375 -0.375 0.06280059197604437
v 0.234375 -0.375 -0.0628005919760444
v 0.17157440802395563 -0.375 -0.17157440802395563
v 0.06280059197604446 -0.375 -0.23437499999999994
v 0.34716876226407684 0.3645031433961152 -0.08373412263472586
v 0.34716876226407684 0.3645031433961152 0.08373412263472584
v 0.5346687622640768 0.23950314339611523 0.13397459621556132
v 0.5346687622640768 0.23950314339611523 -0.13397459621556138
v 0.08373412263472584 0.3645031433961152 0.34716876226407684
v -0.08373412263472582 0.3645031433961152 0.34716876226407684
v -0.1339745962155613 0.23950314339611523 0.5346687622640768
v 0.13397459621556132 0.23950314339611523 0.5346687622640768
v -0.34716876226407684 0.3645031433961152 0.08373412263472568
v -0.3471687622640768 0.3645031433961152 -0.08373412263472581
v -0.5346687622640768 0.23950314339611523 -0.13397459621556126
v -0.5346687622640768 0.23950314339611523 0.1339745962155611
v -0.08373412263472571 0.3645031433961152 -0.34716876226407684
v 0.08373412263472595 0.3645031433961152 -0.3471687622640768
v 0.1339745962155615 0.23950314339611523 -0.5346687622640767
v -0.13397459621556113 0.23950314339611523 -0.5346687622640768
v 0.29800379056590365 0.6665062867922305 -0.06535000973435941
v 0.29800379056590365 0.6665062867922305 0.06535000973435938
v 0.44433752452815356 0.5415062867922305 0.10456001557497499
v 0.44433752452815356 0.5415062867922305 -0.10456001557497503
v 0.06535000973435938 0.6665062867922305 0.29800379056590365
v -0.06535000973435937 0.6665062867922305 0.29800379056590365
v -0.10456001557497498 0.5415062867922305 0.44433752452815356
v 0.10456001557497499 0.5415062867922305 0.44433752452815356
v -0.29800379056590365 0.6665062867922305 0.06535000973435925
v -0.2980037905659036 0.6665062867922305 -0.06535000973435937
v -0.44433752452815356 0.5415062867922305 -0.10456001557497495
v -0.44433752452815356 0.5415062867922305 0.10456001557497482
v -0.06535000973435927 0.6665062867922305 -0.29800379056590365
v 0.06535000973435948 0.6665062867922305 -0.2980037905659036
v 0.10456001557497513 0.5415062867922305 -0.44433752452815356
v -0.10456001557497484 0.5415062867922305 -0.44433752452815356
v -0.1328431527980894 0.6564637294928245 -0.0367360033156074
v -0.13284315279808942 0.6564637294928245 0.03673600331560737
v -0.16048086196840988 0.4794605860967093 0.04707049041373668
v -0.16048086196840985 0.4794605860967093 -0.047070490413736725
v 0.03673600331560746 0.6564637294928245 -0.1328431527980894
v -0.03673600331560738 0.6564637294928245 -0.13284315279808945
v -0.0470704904137367 0.4794605860967093 -0.16048086196840988
v 0.0470704904137368 0.4794605860967093 -0.16048086196840985
v -0.03673600331560741 0.6564637294928245 0.13284315279808945
v 0.036736003315607425 0.6564637294928245 0.13284315279808945
v 0.04707049041373675 0.4794605860967093 0.16048086196840988
v -0.047070490413736746 0.4794605860967093 0.16048086196840988
v 0.13284315279808945 0.6564637294928245 0.036736003315607425
v 0.13284315279808945 0.6564637294928245 -0.03673600331560744
v 0.16048086196840988 0.4794605860967093 -0.047070490413736774
v 0.16048086196840988 0.4794605860967093 0.04707049041373675
v -0.21770871885028698 -0.421875 -0.5290063509461096
v -0.4150635094610965 -0.421875 -0.41506350946109666
v -0.4150635094610965 -0.265625 -0.41506350946109666
v -0.21770871885028698 -0.265625 -0.5290063509461096
v -0.5290063509461096 -0.421875 -0.21770871885028711
v -0.5290063509461096 -0.265625 -0.21770871885028711
v -0.5290063509461096 -0.421875 0.21770871885028692
v -0.4150635094610966 -0.421875 0.4150635094610965
v -0.4150635094610966 -0.265625 0.4150635094610965
v -0.5290063509461096 -0.265625 0.21770871885028692
v -0.21770871885028711 -0.421875 0.5290063509461096
v -0.21770871885028711 -0.265625 0.5290063509461096
v 0.21770871885028714 -0.421875 0.5290063509461096
v 0.4150635094610965 -0.421875 0.4150635094610966
v 0.4150635094610965 -0.265625 0.4150635094610966
v 0.21770871885028714 -0.265625 0.5290063509461096
v 0.5290063509461096 -0.421875 0.21770871885028714
v 0.5290063509461096 -0.265625 0.21770871885028714
v 0.5290063509461096 -0.421875 -0.2177087188502872
v 0.41506350946109655 -0.421875 -0.4150635094610965
v 0.41506350946109655 -0.265625 -0.4150635094610965
v 0.5290063509461096 -0.265625 -0.2177087188502872
v 0.21770871885028725 -0.421875 -0.5290063509461096
v 0.21770871885028725 -0.265625 -0.5290063509461096
v 0.0326750048671797 0.6352562867922305 0.3345872240564661
v -0.03267500486717968 0.6352562867922305 0.3345872240564661
v -0.05228000778748748 0.5415062867922305 0.44433752452815356
v 0.052280007787487495 0.5415062867922305 0.44433752452815356
v -0.06698729810778065 0.23950314339611523 0.5346687622640768
v 0.06698729810778067 0.23950314339611523 0.5346687622640768
v -0.06698729810778065 -0.0807492141509712 0.5086671905660192
v 0.06698729810778067 -0.0807492141509712 0.5086671905660192
v -0.3345872240564661 0.6352562867922305 0.0326750048671796
v -0.3345872240564661 0.6352562867922305 -0.03267500486717971
v -0.44433752452815356 0.5415062867922305 -0.05228000778748751
v -0.44433752452815356 0.5415062867922305 0.052280007787487384
v -0.5346687622640768 0.23950314339611523 -0.06698729810778067
v -0.5346687622640768 0.23950314339611523 0.06698729810778051
v -0.5086671905660192 -0.0807492141509712 -0.06698729810778067
v -0.5086671905660192 -0.0807492141509712 0.06698729810778051
v 0.3345872240564661 0.6352562867922305 -0.03267500486717971
v 0.3345872240564661 0.6352562867922305 0.03267500486717968
v 0.44433752452815356 0.5415062867922305 0.05228000778748748
v 0.44433752452815356 0.5415062867922305 -0.05228000778748752
v 0.5346687622640768 0.23950314339611523 0.06698729810778065
v 0.5346687622640768 0.23950314339611523 -0.0669872981077807
v 0.5086671905660192 -0.0807492141509712 0.06698729810778065
v 0.5086671905660192 -0.0807492141509712 -0.0669872981077807
v -0.03267500486717957 0.6352562867922305 -0.3345872240564661
v 0.0326750048671798 0.6352562867922305 -0.3345872240564661
v 0.052280007787487634 0.5415062867922305 -0.44433752452815356
v -0.05228000778748734 0.5415062867922305 -0.44433752452815356
v 0.06698729810778084 0.23950314339611523 -0.5346687622640767
v -0.06698729810778048 0.23950314339611523 -0.5346687622640768
v 0.06698729810778084 -0.0807492141509712 -0.5086671905660192
v -0.06698729810778048 -0.0807492141509712 -0.5086671905660192
v 0.0326750048671797 0.6827785827969757 0.3751813293235782
v -0.03267500486717968 0.6827785827969757 0.3751813293235782
v -0.05228000778748748 0.5742225233538937 0.49457399747833
v 0.052280007787487495 0.5742225233538937 0.49457399747833
v -0.06698729810778065 0.24592933835195413 0.5957556896581893
v 0.06698729810778067 0.24592933835195413 0.5957556896581893
v -0.06698729810778065 -0.08580700135787468 0.5709622047210033
v 0.06698729810778067 -0.08580700135787468 0.5709622047210033
v -0.3751813293235782 0.6827785827969757 0.0326750048671796
v -0.3751813293235782 0.6827785827969757 -0.03267500486717971
v -0.49457399747833 0.5742225233538937 -0.05228000778748751
v -0.49457399747833 0.5742225233538937 0.052280007787487384
v -0.5957556896581893 0.24592933835195413 -0.06698729810778067
v -0.5957556896581893 0.24592933835195413 0.06698729810778051
v -0.5709622047210033 -0.08580700135787468 -0.06698729810778067
v -0.5709622047210033 -0.08580700135787468 0.06698729810778051
v 0.3751813293235782 0.6827785827969757 -0.03267500486717971
v 0.3751813293235782 0.6827785827969757 0.03267500486717968
v 0.49457399747833 0.5742225233538937 0.05228000778748748
v 0.49457399747833 0.5742225233538937 -0.05228000778748752
v 0.5957556896581893 0.24592933835195413 0.06698729810778065
v 0.5957556896581893 0.24592933835195413 -0.0669872981077807
v 0.5709622047210033 -0.08580700135787468 0.06698729810778065
v 0.5709622047210033 -0.08580700135787468 -0.0669872981077807
v -0.03267500486717957 0.6827785827969757 -0.3751813293235782
v 0.0326750048671798 0.6827785827969757 -0.3751813293235782
v 0.052280007787487634 0.5742225233538937 -0.49457399747833
v -0.05228000778748734 0.5742225233538937 -0.49457399747833
v 0.06698729810778087 0.24592933835195413 -0.5957556896581891
v -0.06698729810778045 0.24592933835195413 -0.5957556896581893
v 0.0669872981077809 -0.08580700135787467 -0.5709622047210033
v -0.06698729810778042 -0.08580700135787467 -0.5709622047210033
vt 0.5176375191676121 0.7411812404161939
vt 0.44828802160274145 1
vt 0 0.7411812404161939
vt 0.0625 0.65625
vt 0.26346250000000004 0.65625
vt 0.26346250000000004 0.8125
vt 0.0625 0.8125
vt 0.0625 0.5698572984303876
vt 0.1838223411813788 0.6023646845952135
vt 0.0625 0.8125
vt 0.5176381947122913 0.7411815781880927
vt 0.44828743656363346 1
vt 0 0.7411815781880928
vt 0.0625 0.65625
vt 0.26346250000000004 0.65625
vt 0.26346250000000004 0.8125
vt 0.0625 0.8125
vt 0.06250000000000001 0.5698563080358362
vt 0.1838218459820819 0.6023655423008878
vt 0.0625 0.8125
vt 0.5 0.73205
vt 0.5 1
vt 0 0.866025
vt 0 0.5
vt 0.26795 0.5
vt 0.26795 1
vt 0 1
vt 0.421875 0.8119000000000001
vt 0.421875 0.9375
vt 0.1875 0.8747
vt 5.551115123125783e-17 0.48236248083238786
vt 0.25881875958380607 0.5517119783972586
vt 0 1
vt 0.0625 0.65625
vt 0.26346250000000004 0.65625
vt 0.26346250000000004 0.8125
vt 0.0625 0.8125
vt 0.43014270156961243 0.7536776588186211
vt 0.3976353154047865 0.875
vt 0.1875 0.7536776588186211
vt 0 0.48236180528770867
vt 0.2588184218119073 0.5517125634363665
vt 8.326672684688674e-17 1
vt 0.0625 0.65625
vt 0.26346250000000004 0.65625
vt 0.26346250000000004 0.8125
vt 0.0625 0.8125
vt 0.4301436919641638 0.753678154017918
vt 0.3976344576991122 0.875
vt 0.1875 0.753678154017918
vt 0 0.5
vt 0.26795 0.5
vt 0.133975 1
vt 0 0.5
vt 0.26795 0.5
vt 0.26795 1
vt 0 1
vt 0.1881 0.875
vt 0.0625 0.875
vt 0.1253 0.640625
vt 0 1
vt 0.06934949756487069 0.7411812404161939
vt 0.5176375191676121 1
vt 0.0625 0.65625
vt 0.26346250000000004 0.65625
vt 0.26346250000000004 0.8125
vt 0.0625 0.8125
vt 0.2463223411813788 0.8125
vt 0.125 0.779992613835174
vt 0.2463223411813788 0.5698572984303876
vt 0 1
vt 0.06935075814865788 0.7411815781880927
vt 0.5176381947122913 0.9999999999999999
vt 0.0625 0.65625
vt 0.26346250000000004 0.65625
vt 0.26346250000000004 0.8125
vt 0.0625 0.8125
vt 0.2463218459820819 0.8125
vt 0.125 0.7799907657349484
vt 0.2463218459820819 0.5698563080358362
vt 0 1
vt 0 0.73205
vt 0.5 0.866025
vt 0 0.5
vt 0.26795 0.5
vt 0.26795 1
vt 0 1
vt 0.125 0.9375
vt 0.125 0.8119000000000001
vt 0.359375 0.8747
vt 0.258818759583806 1
vt 0 0.9306505024351293
vt 0.25881875958380607 0.48236248083238786
vt 0.0625 0.65625
vt 0.26346250000000004 0.65625
vt 0.26346250000000004 0.8125
vt 0.0625 0.8125
vt 0.1875 0.9375
vt 0.2200073861648259 0.8161776588186211
vt 0.43014270156961243 0.9375
vt 0.2588184218119073 1
vt 0 0.9306492418513421
vt 0.2588184218119072 0.48236180528770867
vt 0.0625 0.65625
vt 0.26346250000000004 0.65625
vt 0.26346250000000004 0.8125
vt 0.0625 0.8125
vt 0.1875 0.9375
vt 0.22000923426505156 0.816178154017918
vt 0.4301436919641638 0.9375
vt 0.26795 1
vt 0 1
vt 0.133975 0.5
vt 0 0.5
vt 0.26795 0.5
vt 0.26795 1
vt 0 1
vt 0.0625 0.578125
vt 0.1881 0.578125
vt 0.1253 0.8125
vt 0.26795 1
vt 0 1
vt 0 0.9375
vt 0.26795 0.9375
vt 0.26795 1
vt 0 1
vt 0 0.9375
vt 0.26795 0.9375
vt 0.20995625 0.9375
vt 0.14460625 0.9375
vt 0.125 0.79315625
vt 0.2295625 0.79315625
vt 0.26795 0.9375
vt 0 0.9375
vt 0 0.875
vt 0.26795 0.875
vt 0.26795 0.9375
vt 0 0.9375
vt 0 0.875
vt 0.26795 0.875
vt 0.20995625 0.75
vt 0.14460625 0.75
vt 0.125 0.60565625
vt 0.2295625 0.60565625
vt 0.26795 0.8125
vt 0 0.8125
vt 0 0.75
vt 0.26795 0.75
vt 0.26795 0.8125
vt 0 0.8125
vt 0 0.75
vt 0.26795 0.75
vt 0.33495625 0.9375
vt 0.26960625 0.9375
vt 0.25 0.79315625
vt 0.3545625 0.79315625
vt 0.39295 0.9375
vt 0.125 0.9375
vt 0.125 0.875
vt 0.39295 0.875
vt 0.39295 0.9375
vt 0.125 0.9375
vt 0.125 0.875
vt 0.39295 0.875
vt 0.20995625 1
vt 0.14460625 1
vt 0.125 0.85565625
vt 0.2295625 0.85565625
vt 0.08343505255718421 0.9218720686786541
vt 0.20903696585869408 0.9218720686786542
vt 0.22997178454205236 0.9999961124696499
vt 0.0625 1
vt 0.08343481868335831 0.9218720686786542
vt 0.20903673198486816 0.9218720686786541
vt 0.2299717845420524 1
vt 0.0625 0.9999961124696499
vt 0.078125 0.79096875
vt 0.078125 0.91656875
vt 0 0.9375
vt 0 0.7700375
vt 0.07812793132134585 0.7909632680151318
vt 0.0781279313213458 0.9165651813166417
vt 0.000003887530350132895 0.9375
vt 0 0.7700282154579476
vt 0.0781279313213458 0.7909630341413059
vt 0.07812793132134585 0.9165649474428158
vt 0 0.9375
vt 0.000003887530350132895 0.7700282154579476
vt 0.20903125 0.5625
vt 0.08343125 0.5625
vt 0.0625 0.484375
vt 0.2299625 0.484375
vt 0.20903673198486816 0.625
vt 0.0834348186833583 0.625
vt 0.0625 0.5468759562090043
vt 0.22997178454205236 0.5468720686786541
vt 0.20903696585869408 0.625
vt 0.08343505255718422 0.625
vt 0.0625 0.5468720686786541
vt 0.2299717845420524 0.5468759562090043
vt 0.4375 0.91656875
vt 0.4375 0.79096875
vt 0.515625 0.7700375
vt 0.515625 0.9375
vt 0.375 0.9165649474428158
vt 0.37500000000000006 0.7909630341413059
vt 0.4531240437909957 0.7700282154579476
vt 0.4531279313213459 0.9375
vt 0.37500000000000006 0.9165651813166417
vt 0.375 0.7909632680151318
vt 0.4531279313213459 0.7700282154579476
vt 0.4531240437909957 0.9375
vt 0.08343125 0.921875
vt 0.20903125 0.921875
vt 0.2299625 1
vt 0.0625 1
vt 0.2299625 1
vt 0.0625 1
vt 0.0625 0.9375
vt 0.2299625 0.9375
vt 0.06250126248724841 0.7691177444038314
vt 0.06250126248724852 0.9999965831983926
vt 0.000005238644623428712 1
vt 0 0.7691177525249742
vt 0.196475 1
vt 0.0625 1
vt 0.0625 0.67869375
vt 0.196475 0.67869375
vt 0.3558788387945612 0.9375
vt 0.125 0.9374999999999999
vt 0.12500000812114276 0.8749987375127515
vt 0.3558822555961686 0.8750039761573749
vt 0.1674625 0.875
vt 0 0.875
vt 0 0.8125
vt 0.1674625 0.8125
vt 0.06250126248724841 0.7691177444038314
vt 0.06250126248724852 0.9999965831983926
vt 0.000005238644623428712 1
vt 0 0.7691177525249742
vt 0.196475 1
vt 0.0625 1
vt 0.0625 0.67869375
vt 0.196475 0.67869375
vt 0.2933788387945612 0.875
vt 0.0625 0.8749999999999999
vt 0.06250000812114276 0.8124987375127515
vt 0.2933822555961686 0.8125039761573749
vt 0.1674625 1
vt 0 1
vt 0 0.9375
vt 0.1674625 0.9375
vt 0.06250126248724841 0.7691177444038314
vt 0.06250126248724852 0.9999965831983926
vt 0.000005238644623428712 1
vt 0 0.7691177525249742
vt 0.196475 1
vt 0.0625 1
vt 0.0625 0.67869375
vt 0.196475 0.67869375
vt 0.2933788387945612 0.9375
vt 0.0625 0.9374999999999999
vt 0.06250000812114276 0.8749987375127515
vt 0.2933822555961686 0.8750039761573749
vt 0.1674625 1
vt 0 1
vt 0 0.9375
vt 0.1674625 0.9375
vt 0.06250126248724841 0.7691177444038314
vt 0.06250126248724852 0.9999965831983926
vt 0.000005238644623428712 1
vt 0 0.7691177525249742
vt 0.196475 1
vt 0.0625 1
vt 0.0625 0.67869375
vt 0.196475 0.67869375
vt 0.2933788387945612 1
vt 0.0625 0.9999999999999999
vt 0.06250000812114276 0.9374987375127515
vt 0.2933822555961686 0.9375039761573749
vt 0.2299625 0.9375
vt 0.0625 0.9375
vt 0.0625 0.875
vt 0.2299625 0.875
vt 0.06250126247134424 0.7691177524655425
vt 0.06250126247134424 1
vt 0 0.9999985899874135
vt 0.0000052385672800747685 0.769119751252283
vt 0.18176875 1
vt 0.07720625 1
vt 0.0625 0.684775
vt 0.196475 0.684775
vt 0.3558822475344575 0.9374999999999999
vt 0.125 0.9375
vt 0.12500199878674056 0.8750039760959358
vt 0.35588083752187105 0.8749987375286556
vt 0.1674625 0.875
vt 0 0.875
vt 0 0.8125
vt 0.1674625 0.8125
vt 0.06250126247134424 0.7691177524655425
vt 0.06250126247134424 1
vt 0 0.9999985899874135
vt 0.0000052385672800747685 0.769119751252283
vt 0.18176875 0.9375
vt 0.07720625 0.9375
vt 0.0625 0.622275
vt 0.196475 0.622275
vt 0.2933822475344575 0.8124999999999999
vt 0.0625 0.8125
vt 0.06250199878674056 0.7500039760959358
vt 0.29338083752187105 0.7499987375286556
vt 0.1674625 0.9375
vt 0 0.9375
vt 0 0.875
vt 0.1674625 0.875
vt 0.06250126247134424 0.7691177524655425
vt 0.06250126247134424 1
vt 0 0.9999985899874135
vt 0.0000052385672800747685 0.769119751252283
vt 0.18176875 1
vt 0.07720625 1
vt 0.0625 0.684775
vt 0.196475 0.684775
vt 0.2933822475344575 0.9374999999999999
vt 0.0625 0.9375
vt 0.06250199878674056 0.8750039760959358
vt 0.29338083752187105 0.8749987375286556
vt 0.1674625 1
vt 0 1
vt 0 0.9375
vt 0.1674625 0.9375
vt 0.06250126247134424 0.7691177524655425
vt 0.06250126247134424 1
vt 0 0.9999985899874135
vt 0.0000052385672800747685 0.769119751252283
vt 0.18176875 1
vt 0.07720625 1
vt 0.0625 0.684775
vt 0.196475 0.684775
vt 0.2933822475344575 0.9374999999999999
vt 0.0625 0.9375
vt 0.06250199878674056 0.8750039760959358
vt 0.29338083752187105 0.8749987375286556
vt 0 0.9375
vt 0.1307 0.9375
vt 0.1307 1
vt 0 1
vt 0 0.8749971876146195
vt 0.3065340565296131 0.8749971876146199
vt 0.30653142733562033 0.9374928255320965
vt 0.0000025333645102265656 0.9375
vt 0 0.875
vt 0.1674625 0.875
vt 0.1674625 0.9375
vt 0 0.9375
vt 5.551115123125783e-17 1
vt 0 0.6934659434703869
vt 0.06250281238538047 0.6934684768348972
vt 0.06249563791747664 0.9999973708060073
vt 0 0.9375
vt 0.1307 0.9375
vt 0.1307 1
vt 0 1
vt 0 0.9374971876146195
vt 0.3065340565296131 0.9374971876146199
vt 0.30653142733562033 0.9999928255320965
vt 0.0000025333645102265656 1
vt 0 0.9375
vt 0.1674625 0.9375
vt 0.1674625 1
vt 0 1
vt 5.551115123125783e-17 1
vt 0 0.6934659434703869
vt 0.06250281238538047 0.6934684768348972
vt 0.06249563791747664 0.9999973708060073
vt 0 0.875
vt 0.1307 0.875
vt 0.1307 0.9375
vt 0 0.9375
vt 0 0.8749971876146195
vt 0.3065340565296131 0.8749971876146199
vt 0.30653142733562033 0.9374928255320965
vt 0.0000025333645102265656 0.9375
vt 0 0.875
vt 0.1674625 0.875
vt 0.1674625 0.9375
vt 0 0.9375
vt 5.551115123125783e-17 1
vt 0 0.6934659434703869
vt 0.06250281238538047 0.6934684768348972
vt 0.06249563791747664 0.9999973708060073
vt 0 0.9375
vt 0.1307 0.9375
vt 0.1307 1
vt 0 1
vt 0 0.8749971876146195
vt 0.3065340565296131 0.8749971876146199
vt 0.30653142733562033 0.9374928255320965
vt 0.0000025333645102265656 0.9375
vt 0 0.875
vt 0.1674625 0.875
vt 0.1674625 0.9375
vt 0 0.9375
vt 0.06250000000000006 1
vt 0.0625 0.6934659434703869
vt 0.12500281238538047 0.6934684768348972
vt 0.12499563791747664 0.9999973708060073
vt 0.26795 0.5625
vt 0.0669875 0.5625
vt 0 0.484375
vt 0.26795 0.484375
vt 0.0669875 0.921875
vt 0.26795 0.921875
vt 0.26795 1
vt 0 1
vt 0.0669875 0.640625
vt 0.0669875 0.796875
vt 0 0.875
vt 0 0.5625
vt 0.20096250000000002 0.5625
vt 0 0.5625
vt 0 0.484375
vt 0.26795 0.484375
vt 0.25 0.796875
vt 0.25 0.640625
vt 0.3169875 0.5625
vt 0.3169875 0.875
vt 0 0.921875
vt 0.20096250000000002 0.921875
vt 0.26795 1
vt 0 1
vt 0.26795 0.5625
vt 0.0669875 0.5625
vt 0 0.484375
vt 0.26795 0.484375
vt 0.0669875 0.921875
vt 0.26795 0.921875
vt 0.26795 1
vt 0 1
vt 0.0669875 0.640625
vt 0.0669875 0.796875
vt 0 0.875
vt 0 0.5625
vt 0.20096250000000002 0.5625
vt 0 0.5625
vt 0 0.484375
vt 0.26795 0.484375
vt 0.25 0.796875
vt 0.25 0.640625
vt 0.3169875 0.5625
vt 0.3169875 0.875
vt 0 0.921875
vt 0.20096250000000002 0.921875
vt 0.26795 1
vt 0 1
vt 0.26795 0.5625
vt 0.0669875 0.5625
vt 0 0.484375
vt 0.26795 0.484375
vt 0.0669875 0.921875
vt 0.26795 0.921875
vt 0.26795 1
vt 0 1
vt 0.0669875 0.640625
vt 0.0669875 0.796875
vt 0 0.875
vt 0 0.5625
vt 0.20096250000000002 0.5625
vt 0 0.5625
vt 0 0.484375
vt 0.26795 0.484375
vt 0.25 0.796875
vt 0.25 0.640625
vt 0.3169875 0.5625
vt 0.3169875 0.875
vt 0 0.921875
vt 0.20096250000000002 0.921875
vt 0.26795 1
vt 0 1
vt 0.26795 0.5625
vt 0.0669875 0.5625
vt 0 0.484375
vt 0.26795 0.484375
vt 0.0669875 0.921875
vt 0.26795 0.921875
vt 0.26795 1
vt 0 1
vt 0.0669875 0.640625
vt 0.0669875 0.796875
vt 0 0.875
vt 0 0.5625
vt 0.20096250000000002 0.5625
vt 0 0.5625
vt 0 0.484375
vt 0.26795 0.484375
vt 0.25 0.796875
vt 0.25 0.640625
vt 0.3169875 0.5625
vt 0.3169875 0.875
vt 0 0.921875
vt 0.20096250000000002 0.921875
vt 0.26795 1
vt 0 1
vt 0.09517500000000001 0.7018875
vt 0.160525 0.7018875
vt 0.1932 0.75
vt 0.0625 0.75
vt 0.05228125 0.62004375
vt 0.0718875 0.7643875
vt 0.0392125 0.8125
vt 0 0.62004375
vt 0.1875 0.7643875
vt 0.20710625 0.62004375
vt 0.2593875 0.62004375
vt 0.220175 0.8125
vt 0.0669875 0.622275
vt 0.08169375000000001 0.9375
vt 0.029412500000000008 0.9375
vt 0 0.622275
vt 0.1875 0.9375
vt 0.20220625 0.622275
vt 0.26919375 0.622275
vt 0.23978125 0.9375
vt 0.0669875 0.67869375
vt 0.0669875 1
vt 0 1
vt 0 0.5715875
vt 0.20096250000000002 0.875
vt 0.0669875 0.875
vt 0 0.76789375
vt 0.26795 0.76789375
vt 0.25 1
vt 0.25 0.67869375
vt 0.3169875 0.5715875
vt 0.3169875 1
vt 0.09517500000000001 0.8893875
vt 0.160525 0.8893875
vt 0.1932 0.9375
vt 0.0625 0.9375
vt 0.05228125 0.80754375
vt 0.0718875 0.9518875
vt 0.0392125 1
vt 0 0.80754375
vt 0.1875 0.9518875
vt 0.20710625 0.80754375
vt 0.2593875 0.80754375
vt 0.220175 1
vt 0.0669875 0.684775
vt 0.08169375000000001 1
vt 0.029412500000000008 1
vt 0 0.684775
vt 0.1875 1
vt 0.20220625 0.684775
vt 0.26919375 0.684775
vt 0.23978125 1
vt 0.0669875 0.67869375
vt 0.0669875 1
vt 0 1
vt 0 0.5715875
vt 0.20096250000000002 0.9375
vt 0.0669875 0.9375
vt 0 0.83039375
vt 0.26795 0.83039375
vt 0.25 1
vt 0.25 0.67869375
vt 0.3169875 0.5715875
vt 0.3169875 1
vt 0.220175 0.8893875
vt 0.28552500000000003 0.8893875
vt 0.31820000000000004 0.9375
vt 0.1875 0.9375
vt 0.17728125 0.80754375
vt 0.1968875 0.9518875
vt 0.16421249999999998 1
vt 0.125 0.80754375
vt 0.3125 0.9518875
vt 0.33210625 0.80754375
vt 0.3843875 0.80754375
vt 0.345175 1
vt 0.0669875 0.684775
vt 0.08169375000000001 1
vt 0.029412500000000008 1
vt 0 0.684775
vt 0.1875 1
vt 0.20220625 0.684775
vt 0.26919375 0.684775
vt 0.23978125 1
vt 0.0669875 0.67869375
vt 0.0669875 1
vt 0 1
vt 0 0.5715875
vt 0.20096250000000002 0.9375
vt 0.0669875 0.9375
vt 0 0.83039375
vt 0.26795 0.83039375
vt 0.25 1
vt 0.25 0.67869375
vt 0.3169875 0.5715875
vt 0.3169875 1
vt 0.09517500000000001 0.9518875
vt 0.160525 0.9518875
vt 0.1932 1
vt 0.0625 1
vt 0.05228125 0.80754375
vt 0.0718875 0.9518875
vt 0.0392125 1
vt 0 0.80754375
vt 0.1875 0.9518875
vt 0.20710625 0.80754375
vt 0.2593875 0.80754375
vt 0.220175 1
vt 0.0669875 0.684775
vt 0.08169375000000001 1
vt 0.029412500000000008 1
vt 0 0.684775
vt 0.1875 1
vt 0.20220625 0.684775
vt 0.26919375 0.684775
vt 0.23978125 1
vt 0.0669875 0.67869375
vt 0.0669875 1
vt 0 1
vt 0 0.5715875
vt 0.20096250000000002 1
vt 0.0669875 1
vt 0 0.89289375
vt 0.26795 0.89289375
vt 0.25 1
vt 0.25 0.67869375
vt 0.3169875 0.5715875
vt 0.3169875 1
vt 0.12785000000000002 0.875
vt 0.0625 0.875
vt 0.0625 0.8125
vt 0.12785000000000002 0.8125
vt 0.05750314996487749 0.7125197789522841
vt 0.06250393454435788 0.875
vt 0.0000060539552930727325 0.875
vt 0 0.729349484657281
vt 0.22497859890392657 0.875
vt 0.0625 0.8700872042298263
vt 0.07929902183360021 0.8125399996403833
vt 0.2249493572101881 0.8125399996403831
vt 0.11969919762486625 0.6626036862449388
vt 0.053397448940847025 1
vt 0 0.9727343396252333
vt 0.058288141197195886 0.6626036862449388
vt 0.33064071348836777 0.9375
vt 0 0.843127116797763
vt 0.02792987212485798 0.7884191112053309
vt 0.33064071348836777 0.8775609668470328
vt 0 0.8750026603365573
vt 0.3326627405425989 0.875002660336557
vt 0.3217026864208838 0.935441393735753
vt 0.0003993596340119976 0.9375
vt 0 0.8125
vt 0.133975 0.8125
vt 0.133975 0.875
vt 0 0.875
vt 0.0625 1
vt 0.0625 0.6673372594574011
vt 0.12499733966344273 0.667736619091413
vt 0.12293873339919581 0.9890399458782848
vt 0.12785000000000002 1
vt 0.0625 1
vt 0.0625 0.9375
vt 0.12785000000000002 0.9375
vt 0.05750314996487749 0.8375197789522841
vt 0.06250393454435788 1
vt 0.0000060539552930727325 1
vt 0 0.854349484657281
vt 0.22497859890392657 0.9375
vt 0.0625 0.9325872042298263
vt 0.07929902183360021 0.8750399996403833
vt 0.2249493572101881 0.8750399996403831
vt 0.11969919762486625 0.6626036862449388
vt 0.053397448940847025 1
vt 0 0.9727343396252333
vt 0.058288141197195886 0.6626036862449388
vt 0.33064071348836777 0.9375
vt 0 0.843127116797763
vt 0.02792987212485798 0.7884191112053309
vt 0.33064071348836777 0.8775609668470328
vt 0 0.8750026603365573
vt 0.3326627405425989 0.875002660336557
vt 0.3217026864208838 0.935441393735753
vt 0.0003993596340119976 0.9375
vt 0 0.8125
vt 0.133975 0.8125
vt 0.133975 0.875
vt 0 0.875
vt 0.0625 1
vt 0.0625 0.6673372594574011
vt 0.12499733966344273 0.667736619091413
vt 0.12293873339919581 0.9890399458782848
vt 0.19035000000000002 1
vt 0.125 1
vt 0.125 0.9375
vt 0.19035000000000002 0.9375
vt 0.12000314996487749 0.8375197789522841
vt 0.12500393454435788 1
vt 0.06250605395529307 1
vt 0.0625 0.854349484657281
vt 0.2874785989039266 0.9375
vt 0.125 0.9325872042298263
vt 0.14179902183360021 0.8750399996403833
vt 0.2874493572101881 0.8750399996403831
vt 0.11969919762486625 0.6626036862449388
vt 0.053397448940847025 1
vt 0 0.9727343396252333
vt 0.058288141197195886 0.6626036862449388
vt 0.33064071348836777 0.9375
vt 0 0.843127116797763
vt 0.02792987212485798 0.7884191112053309
vt 0.33064071348836777 0.8775609668470328
vt 0 0.8750026603365573
vt 0.3326627405425989 0.875002660336557
vt 0.3217026864208838 0.935441393735753
vt 0.0003993596340119976 0.9375
vt 0 0.8125
vt 0.133975 0.8125
vt 0.133975 0.875
vt 0 0.875
vt 0.0625 1
vt 0.0625 0.6673372594574011
vt 0.12499733966344273 0.667736619091413
vt 0.12293873339919581 0.9890399458782848
vt 0.12785000000000002 1
vt 0.0625 1
vt 0.0625 0.9375
vt 0.12785000000000002 0.9375
vt 0.05750314996487749 0.8375197789522841
vt 0.06250393454435788 1
vt 0.0000060539552930727325 1
vt 0 0.854349484657281
vt 0.22497859890392657 1
vt 0.0625 0.9950872042298263
vt 0.07929902183360021 0.9375399996403833
vt 0.2249493572101881 0.9375399996403831
vt 0.11969919762486625 0.6626036862449388
vt 0.053397448940847025 1
vt 0 0.9727343396252333
vt 0.058288141197195886 0.6626036862449388
vt 0.33064071348836777 0.9375
vt 0 0.843127116797763
vt 0.02792987212485798 0.7884191112053309
vt 0.33064071348836777 0.8775609668470328
vt 0 0.8750026603365573
vt 0.3326627405425989 0.875002660336557
vt 0.3217026864208838 0.935441393735753
vt 0.0003993596340119976 0.9375
vt 0 0.8125
vt 0.133975 0.8125
vt 0.133975 0.875
vt 0 0.875
vt 0.0625 1
vt 0.0625 0.6673372594574011
vt 0.12499733966344273 0.667736619091413
vt 0.12293873339919581 0.9890399458782848
vn 0 -1 0
vn 0.5 0 0.8660254037844387
vn 0 1 0
vn 0 -1 0
vn 0.8660254037844386 0 0.5000000000000001
vn 0 1 0
vn 0 -1 0
vn 1 0 0
vn 0 1 0
vn 0 -1 0
vn 0.8660254037844387 0 -0.5000000000000003
vn 0 1 0
vn 0 -1 0
vn 0.5000000000000004 0 -0.8660254037844384
vn 0 1 0
vn 0 -1 0
vn 4.143408735633879e-16 0 -1
vn 0 1 0
vn 0 -1 0
vn -0.4999999999999995 0 -0.8660254037844389
vn 0 1 0
vn 0 -1 0
vn -0.8660254037844387 0 -0.5
vn 0 1 0
vn 0 -1 0
vn -1 0 -2.0717043678169412e-16
vn 0 1 0
vn 0 -1 0
vn -0.866025403784439 0 0.4999999999999996
vn 0 1 0
vn 0 -1 0
vn -0.5000000000000001 0 0.8660254037844387
vn 0 1 0
vn 0 -1 0
vn 0 0 1
vn 0 1 0
vn -0.3535533905932735 0.7071067811865475 -0.6123724356957949
vn -0.6123724356957949 0.7071067811865475 -0.3535533905932734
vn -0.6727313892907887 0.7398868007086525 0
vn -0.6123724356957947 0.7071067811865475 0.35355339059327356
vn -0.3535533905932739 0.7071067811865475 0.6123724356957945
vn 0 0.7398868007086525 0.6727313892907887
vn 0.3535533905932739 0.7071067811865475 0.6123724356957946
vn 0.6123724356957945 0.7071067811865476 0.3535533905932739
vn 0.6727313892907887 0.7398868007086525 0
vn 0.6123724356957946 0.7071067811865475 -0.3535533905932738
vn 0.3535533905932737 0.7071067811865474 -0.6123724356957948
vn 0 0.7398868007086525 -0.6727313892907887
vn 0.48949020986880215 0.20395425411200105 0.8478219133003189
vn 0.8478219133003191 0.20395425411200108 0.489490209868802
vn 0.9789804197376052 0.20395425411200113 4.326737091365672e-16
vn 0.847821913300319 0.20395425411200105 -0.4894902098688023
vn 0.48949020986880276 0.20395425411200105 -0.8478219133003186
vn 0 0.2039542541120011 -0.9789804197376052
vn -0.4894902098688026 0.20395425411200108 -0.8478219133003186
vn -0.8478219133003186 0.20395425411200105 -0.48949020986880276
vn -0.9789804197376051 0.20395425411200102 0
vn -0.8478219133003186 0.20395425411200105 0.4894902098688025
vn -0.48949020986880226 0.20395425411200105 0.8478219133003188
vn -4.326737091365668e-16 0.20395425411200113 0.9789804197376052
vn -0.9955072766187608 0.09468506851187343 0
vn -0.24426907753589322 0.0232330138463423 0.9694291334736024
vn 0.9972187228245538 -0.07453065710273708 0
vn -0.24630697047193326 0.01999788042626886 -0.9689855319226367
vn 0 0.09468506851187343 -0.9955072766187608
vn -0.9694291334736024 0.0232330138463423 -0.24426907753589316
vn 0 -0.07453065710273708 0.9972187228245538
vn 0.9689855319226367 0.019997880426268853 -0.2463069704719331
vn 0.9955072766187607 0.09468506851187343 3.2998348370634153e-16
vn 0.24426907753589308 0.023233013846342247 -0.9694291334736024
vn -0.9972187228245538 -0.07453065710273708 0
vn 0.24630697047193278 0.019997880426268783 0.9689855319226367
vn -3.2998348370634124e-16 0.09468506851187343 0.9955072766187608
vn 0.9694291334736022 0.023233013846342274 0.24426907753589353
vn 8.26376953497783e-16 -0.07453065710273675 -0.9972187228245538
vn -0.9689855319226367 0.019997880426268783 0.24630697047193278
vn -0.9880282321119097 -0.1542731750817829 0
vn -0.2432483837159221 0.019433734650925592 0.9697693301899731
vn 0.9556411136434154 0.29453363460625814 0
vn -0.24078805448055596 0.022485828913034682 -0.9703172163357522
vn 0 -0.1542731750817829 -0.9880282321119097
vn -0.9697693301899731 0.019433734650925592 -0.2432483837159221
vn 0 0.2945336346062582 0.9556411136434154
vn 0.9703172163357522 0.022485828913034633 -0.24078805448055585
vn 0.9880282321119097 -0.15427317508178306 3.73248173884874e-16
vn 0.24324838371592183 0.019433734650925596 -0.9697693301899731
vn -0.9556411136434154 0.2945336346062582 0
vn 0.2407880544805557 0.02248582891303453 0.9703172163357522
vn -7.464963477697472e-16 -0.15427317508178287 0.9880282321119097
vn 0.9697693301899731 0.019433734650925617 0.2432483837159223
vn 0 0.2945336346062579 -0.9556411136434156
vn -0.9703172163357522 0.02248582891303458 0.24078805448055565
vn 0.06069269272174938 0.998156499277635 2.2927924517022186e-17
vn 0.1724306035357614 0.0305599462448659 0.9845474984223993
vn 0.5243375243486105 -0.851510516999039 1.5459037793371279e-16
vn 0.17469261807489922 0.030184140119385527 -0.984160254671662
vn -4.585584903404432e-17 0.998156499277635 0.06069269272174938
vn -0.9845474984223991 0.030559946244865945 0.17243060353576145
vn -1.5459037793371266e-16 -0.851510516999039 0.5243375243486105
vn 0.984160254671662 0.030184140119385555 0.17469261807489947
vn 0 0.9981564992776351 -0.0606926927217494
vn 0.9845474984223992 0.030559946244865934 -0.17243060353576184
vn 0 -0.8515105169990389 -0.5243375243486104
vn -0.9841602546716622 0.030184140119385628 -0.17469261807489914
vn -0.06069269272174938 0.998156499277635 0
vn -0.17243060353576192 0.030559946244865955 -0.9845474984223992
vn -0.5243375243486105 -0.851510516999039 0
vn -0.17469261807489916 0.030184140119385566 0.984160254671662
vn -0.37957305013654696 -0.6509202704173168 -0.6574398080203889
vn -0.37957305013654685 0.6509202704173168 -0.6574398080203888
vn 0.3273268353539879 0 -0.9449111825230684
vn -0.6574398080203886 -0.6509202704173168 -0.3795730501365472
vn -0.9449111825230682 0 0.32732683535398843
vn -0.6574398080203882 0.6509202704173174 -0.37957305013654696
vn -0.6574398080203888 -0.6509202704173167 0.37957305013654696
vn -0.6574398080203887 0.6509202704173169 0.3795730501365469
vn -0.9449111825230683 0 -0.327326835353988
vn -0.37957305013654713 -0.650920270417317 0.6574398080203884
vn 0.32732683535398854 0 0.9449111825230682
vn -0.37957305013654713 0.6509202704173171 0.6574398080203884
vn 0.3795730501365471 -0.6509202704173174 0.6574398080203883
vn 0.3795730501365472 0.650920270417317 0.6574398080203885
vn -0.32732683535398854 0 0.9449111825230682
vn 0.6574398080203885 -0.6509202704173168 0.37957305013654724
vn 0.9449111825230682 0 -0.32732683535398854
vn 0.6574398080203883 0.6509202704173174 0.3795730501365472
vn 0.6574398080203883 -0.6509202704173171 -0.37957305013654724
vn 0.6574398080203885 0.6509202704173168 -0.37957305013654735
vn 0.9449111825230682 0 0.32732683535398854
vn 0.3795730501365477 -0.6509202704173167 -0.6574398080203886
vn -0.32732683535398926 0 -0.9449111825230678
vn 0.37957305013654735 0.6509202704173175 -0.6574398080203879
vn 0 0.7603567360759234 0.6495056842737937
vn 0 0.7603567360759232 0.6495056842737936
vn 0 0.7603567360759234 0.6495056842737937
vn 0 0.2865628338973009 0.9580614501318526
vn 0 0.2865628338973009 0.9580614501318525
vn 0 -0.08092459531045584 0.9967202264797476
vn 0 -0.080924595310456 0.9967202264797475
vn 2.4179091871157973e-16 -0.08092459531045584 0.9967202264797476
vn -0.6495056842737937 0.7603567360759234 0
vn -0.6495056842737935 0.7603567360759234 -9.19530805780622e-16
vn -0.6495056842737936 0.7603567360759232 0
vn -0.9580614501318524 0.2865628338973008 0
vn -0.9580614501318525 0.2865628338973009 0
vn -0.9967202264797476 -0.08092459531045584 0
vn -0.9967202264797475 -0.08092459531045601 0
vn -0.9967202264797476 -0.08092459531045584 -5.641788103270198e-16
vn 0.6495056842737936 0.7603567360759232 0
vn 0.6495056842737936 0.7603567360759232 0
vn 0.6495056842737936 0.7603567360759232 0
vn 0.9580614501318526 0.2865628338973009 0
vn 0.9580614501318526 0.2865628338973009 0
vn 0.9967202264797476 -0.08092459531045584 0
vn 0.9967202264797475 -0.080924595310456 0
vn 0.9967202264797476 -0.08092459531045584 -2.417909187115796e-16
vn 0 0.7603567360759234 -0.6495056842737936
vn 9.195308057806213e-16 0.7603567360759232 -0.6495056842737935
vn 0 0.7603567360759232 -0.6495056842737936
vn 0 0.2865628338973006 -0.9580614501318526
vn 0 0.2865628338973009 -0.9580614501318525
vn 0 -0.08092459531045551 -0.9967202264797476
vn 0 -0.08092459531045652 -0.9967202264797473
vn 5.641788103270194e-16 -0.08092459531045584 -0.9967202264797476
vn 0 0.6495056842737934 -0.7603567360759235
vn -0.9926934021539641 0.07837197655937504 -0.09174771174348226
vn 0.9922074634606676 0.10440792507053112 -0.06799510743733271
vn -0.9990102361723867 0.03727348993144499 -0.024274162624540768
vn 0.9990494895068649 0.04335112428055096 -0.004560431962542478
vn -1 0 0
vn 0 -0.9967202264797476 -0.08092459531045589
vn 1 0 0
vn 0.7603567360759234 0.6495056842737935 0
vn 0.09174771174348226 0.07837197655937504 -0.9926934021539641
vn 0.06799510743733266 0.10440792507053102 0.9922074634606676
vn 0.024274162624540768 0.03727348993144499 -0.9990102361723867
vn 0.004560431962542437 0.043351124280550796 0.9990494895068649
vn 0 0 -1
vn 0.08092459531045587 -0.9967202264797476 0
vn 0 0 1
vn -0.7603567360759234 0.6495056842737935 0
vn -0.09174771174348226 0.07837197655937504 0.9926934021539641
vn -0.0679951074373328 0.10440792507053119 -0.9922074634606676
vn -0.024274162624540768 0.03727348993144499 0.9990102361723867
vn -0.004560431962542478 0.04335112428055096 -0.9990494895068649
vn 0 0 1
vn -0.08092459531045589 -0.9967202264797476 0
vn 0 0 -1
vn 0 0.6495056842737935 0.7603567360759234
vn 0.9926934021539641 0.07837197655937521 0.09174771174348242
vn -0.9922074634606676 0.10440792507053093 0.06799510743733261
vn 0.9990102361723867 0.037273489931445164 0.02427416262454091
vn -0.9990494895068649 0.043351124280550886 0.004560431962542018
vn 1 1.1855805923543098e-16 4.668339697931866e-16
vn 0 -0.9967202264797476 0.08092459531045566
vn -1 -1.4936081931521522e-16 -8.789742924511681e-16
usemtl m_ac6185ce-5d68-9017-d1b5-a2b3861ae1dd
f 4/1/1 2/2/1 1/3/1
f 111/4/2 112/5/2 113/6/2 114/7/2
f 45/8/3 46/9/3 40/10/3
f 6/11/4 4/12/4 1/13/4
f 112/14/5 115/15/5 116/16/5 113/17/5
f 46/18/6 47/19/6 40/20/6
f 8/21/7 6/22/7 1/23/7
f 6/24/8 8/25/8 9/26/8 7/27/8
f 47/28/9 48/29/9 40/30/9
f 10/31/10 8/32/10 1/33/10
f 117/34/11 118/35/11 119/36/11 120/37/11
f 48/38/12 49/39/12 40/40/12
f 12/41/13 10/42/13 1/43/13
f 118/44/14 121/45/14 122/46/14 119/47/14
f 49/48/15 50/49/15 40/50/15
f 14/51/16 12/52/16 1/53/16
f 12/54/17 14/55/17 15/56/17 13/57/17
f 50/58/18 38/59/18 40/60/18
f 16/61/19 14/62/19 1/63/19
f 99/64/20 100/65/20 101/66/20 102/67/20
f 38/68/21 39/69/21 40/70/21
f 18/71/22 16/72/22 1/73/22
f 100/74/23 103/75/23 104/76/23 101/77/23
f 39/78/24 41/79/24 40/80/24
f 20/81/25 18/82/25 1/83/25
f 18/84/26 20/85/26 21/86/26 19/87/26
f 41/88/27 42/89/27 40/90/27
f 22/91/28 20/92/28 1/93/28
f 105/94/29 106/95/29 107/96/29 108/97/29
f 42/98/30 43/99/30 40/100/30
f 24/101/31 22/102/31 1/103/31
f 106/104/32 109/105/32 110/106/32 107/107/32
f 43/108/33 44/109/33 40/110/33
f 2/111/34 24/112/34 1/113/34
f 24/114/35 2/115/35 3/116/35 25/117/35
f 44/118/36 45/119/36 40/120/36
f 27/121/37 26/122/37 15/123/37 17/124/37
f 28/125/38 27/126/38 17/127/38 19/128/38
f 163/129/39 164/130/39 165/131/39 166/132/39
f 30/133/40 29/134/40 21/135/40 23/136/40
f 31/137/41 30/138/41 23/139/41 25/140/41
f 155/141/42 156/142/42 157/143/42 158/144/42
f 33/145/43 32/146/43 3/147/43 5/148/43
f 34/149/44 33/150/44 5/151/44 7/152/44
f 171/153/45 172/154/45 173/155/45 174/156/45
f 36/157/46 35/158/46 9/159/46 11/160/46
f 37/161/47 36/162/47 11/163/47 13/164/47
f 179/165/48 180/166/48 181/167/48 182/168/48
f 39/169/49 38/170/49 26/171/49 27/172/49
f 41/173/50 39/174/50 27/175/50 28/176/50
f 42/177/51 41/178/51 28/179/51 29/180/51
f 43/181/52 42/182/52 29/183/52 30/184/52
f 44/185/53 43/186/53 30/187/53 31/188/53
f 45/189/54 44/190/54 31/191/54 32/192/54
f 46/193/55 45/194/55 32/195/55 33/196/55
f 47/197/56 46/198/56 33/199/56 34/200/56
f 48/201/57 47/202/57 34/203/57 35/204/57
f 49/205/58 48/206/58 35/207/58 36/208/58
f 50/209/59 49/210/59 36/211/59 37/212/59
f 38/213/60 50/214/60 37/215/60 26/216/60
f 52/217/61 51/218/61 35/219/61 34/220/61
f 53/221/62 52/222/62 34/223/62 7/224/62
f 176/225/63 175/226/63 177/227/63 178/228/63
f 51/229/64 54/230/64 9/231/64 35/232/64
f 56/233/65 55/234/65 32/235/65 31/236/65
f 57/237/66 56/238/66 31/239/66 25/240/66
f 160/241/67 159/242/67 161/243/67 162/244/67
f 55/245/68 58/246/68 3/247/68 32/248/68
f 60/249/69 59/250/69 29/251/69 28/252/69
f 61/253/70 60/254/70 28/255/70 19/256/70
f 168/257/71 167/258/71 169/259/71 170/260/71
f 59/261/72 62/262/72 21/263/72 29/264/72
f 64/265/73 63/266/73 26/267/73 37/268/73
f 65/269/74 64/270/74 37/271/74 13/272/74
f 184/273/75 183/274/75 185/275/75 186/276/75
f 63/277/76 66/278/76 15/279/76 26/280/76
f 95/281/77 96/282/77 97/283/77 98/284/77
f 69/285/78 68/286/78 52/287/78 53/288/78
f 174/289/79 173/290/79 175/291/79 176/292/79
f 67/293/80 70/294/80 54/295/80 51/296/80
f 91/297/81 92/298/81 93/299/81 94/300/81
f 73/301/82 72/302/82 56/303/82 57/304/82
f 158/305/83 157/306/83 159/307/83 160/308/83
f 71/309/84 74/310/84 58/311/84 55/312/84
f 83/313/85 84/314/85 85/315/85 86/316/85
f 77/317/86 76/318/86 60/319/86 61/320/86
f 166/321/87 165/322/87 167/323/87 168/324/87
f 75/325/88 78/326/88 62/327/88 59/328/88
f 87/329/89 88/330/89 89/331/89 90/332/89
f 81/333/90 80/334/90 64/335/90 65/336/90
f 182/337/91 181/338/91 183/339/91 184/340/91
f 79/341/92 82/342/92 66/343/92 63/344/92
f 84/345/93 83/346/93 76/347/93 75/348/93
f 85/349/94 84/350/94 75/351/94 59/352/94
f 86/353/95 85/354/95 59/355/95 60/356/95
f 83/357/96 86/358/96 60/359/96 76/360/96
f 88/361/97 87/362/97 80/363/97 79/364/97
f 89/365/98 88/366/98 79/367/98 63/368/98
f 90/369/99 89/370/99 63/371/99 64/372/99
f 87/373/100 90/374/100 64/375/100 80/376/100
f 92/377/101 91/378/101 72/379/101 71/380/101
f 93/381/102 92/382/102 71/383/102 55/384/102
f 94/385/103 93/386/103 55/387/103 56/388/103
f 91/389/104 94/390/104 56/391/104 72/392/104
f 96/393/105 95/394/105 68/395/105 67/396/105
f 97/397/106 96/398/106 67/399/106 51/400/106
f 98/401/107 97/402/107 51/403/107 52/404/107
f 95/405/108 98/406/108 52/407/108 68/408/108
f 100/409/109 99/410/109 14/411/109 16/412/109
f 102/413/110 101/414/110 17/415/110 15/416/110
f 99/417/111 102/418/111 15/419/111 14/420/111
f 103/421/112 100/422/112 16/423/112 18/424/112
f 104/425/113 103/426/113 18/427/113 19/428/113
f 101/429/114 104/430/114 19/431/114 17/432/114
f 106/433/115 105/434/115 20/435/115 22/436/115
f 108/437/116 107/438/116 23/439/116 21/440/116
f 105/441/117 108/442/117 21/443/117 20/444/117
f 109/445/118 106/446/118 22/447/118 24/448/118
f 110/449/119 109/450/119 24/451/119 25/452/119
f 107/453/120 110/454/120 25/455/120 23/456/120
f 112/457/121 111/458/121 2/459/121 4/460/121
f 114/461/122 113/462/122 5/463/122 3/464/122
f 111/465/123 114/466/123 3/467/123 2/468/123
f 115/469/124 112/470/124 4/471/124 6/472/124
f 116/473/125 115/474/125 6/475/125 7/476/125
f 113/477/126 116/478/126 7/479/126 5/480/126
f 118/481/127 117/482/127 8/483/127 10/484/127
f 120/485/128 119/486/128 11/487/128 9/488/128
f 117/489/129 120/490/129 9/491/129 8/492/129
f 121/493/130 118/494/130 10/495/130 12/496/130
f 122/497/131 121/498/131 12/499/131 13/500/131
f 119/501/132 122/502/132 13/503/132 11/504/132
f 124/505/133 123/506/133 71/507/133 72/508/133
f 125/509/134 124/510/134 72/511/134 73/512/134
f 123/513/135 126/514/135 74/515/135 71/516/135
f 127/517/136 125/518/136 73/519/136 57/520/136
f 126/521/137 128/522/137 58/523/137 74/524/137
f 129/525/138 127/526/138 57/527/138 25/528/138
f 130/529/139 129/530/139 25/531/139 3/532/139
f 128/533/140 130/534/140 3/535/140 58/536/140
f 132/537/141 131/538/141 75/539/141 76/540/141
f 133/541/142 132/542/142 76/543/142 77/544/142
f 131/545/143 134/546/143 78/547/143 75/548/143
f 135/549/144 133/550/144 77/551/144 61/552/144
f 134/553/145 136/554/145 62/555/145 78/556/145
f 137/557/146 135/558/146 61/559/146 19/560/146
f 138/561/147 137/562/147 19/563/147 21/564/147
f 136/565/148 138/566/148 21/567/148 62/568/148
f 140/569/149 139/570/149 67/571/149 68/572/149
f 141/573/150 140/574/150 68/575/150 69/576/150
f 139/577/151 142/578/151 70/579/151 67/580/151
f 143/581/152 141/582/152 69/583/152 53/584/152
f 142/585/153 144/586/153 54/587/153 70/588/153
f 145/589/154 143/590/154 53/591/154 7/592/154
f 146/593/155 145/594/155 7/595/155 9/596/155
f 144/597/156 146/598/156 9/599/156 54/600/156
f 148/601/157 147/602/157 79/603/157 80/604/157
f 149/605/158 148/606/158 80/607/158 81/608/158
f 147/609/159 150/610/159 82/611/159 79/612/159
f 151/613/160 149/614/160 81/615/160 65/616/160
f 150/617/161 152/618/161 66/619/161 82/620/161
f 153/621/162 151/622/162 65/623/162 13/624/162
f 154/625/163 153/626/163 13/627/163 15/628/163
f 152/629/164 154/630/164 15/631/164 66/632/164
f 156/633/165 155/634/165 123/635/165 124/636/165
f 157/637/166 156/638/166 124/639/166 125/640/166
f 155/641/167 158/642/167 126/643/167 123/644/167
f 159/645/168 157/646/168 125/647/168 127/648/168
f 158/649/169 160/650/169 128/651/169 126/652/169
f 161/653/170 159/654/170 127/655/170 129/656/170
f 162/657/171 161/658/171 129/659/171 130/660/171
f 160/661/172 162/662/172 130/663/172 128/664/172
f 164/665/173 163/666/173 131/667/173 132/668/173
f 165/669/174 164/670/174 132/671/174 133/672/174
f 163/673/175 166/674/175 134/675/175 131/676/175
f 167/677/176 165/678/176 133/679/176 135/680/176
f 166/681/177 168/682/177 136/683/177 134/684/177
f 169/685/178 167/686/178 135/687/178 137/688/178
f 170/689/179 169/690/179 137/691/179 138/692/179
f 168/693/180 170/694/180 138/695/180 136/696/180
f 172/697/181 171/698/181 139/699/181 140/700/181
f 173/701/182 172/702/182 140/703/182 141/704/182
f 171/705/183 174/706/183 142/707/183 139/708/183
f 175/709/184 173/710/184 141/711/184 143/712/184
f 174/713/185 176/714/185 144/715/185 142/716/185
f 177/717/186 175/718/186 143/719/186 145/720/186
f 178/721/187 177/722/187 145/723/187 146/724/187
f 176/725/188 178/726/188 146/727/188 144/728/188
f 180/729/189 179/730/189 147/731/189 148/732/189
f 181/733/190 180/734/190 148/735/190 149/736/190
f 179/737/191 182/738/191 150/739/191 147/740/191
f 183/741/192 181/742/192 149/743/192 151/744/192
f 182/745/193 184/746/193 152/747/193 150/748/193
f 185/749/194 183/750/194 151/751/194 153/752/194
f 186/753/195 185/754/195 153/755/195 154/756/195
f 184/757/196 186/758/196 154/759/196 152/760/196
o tube
v 0.08373412263472581 0.5 0.3125
v 0.08373412263472581 0.625 0.3125
v 0.06575441199258696 0.5 0.2453988063781509
v 0.06575441199258696 0.625 0.2453988063781509
v 0.2287658773652741 0.5 0.22876587736527418
v 0.2287658773652741 0.625 0.22876587736527418
v 0.1796443943855639 0.5 0.17964439438556395
v 0.1796443943855639 0.625 0.17964439438556395
v 0.3125 0.5 0.08373412263472582
v 0.3125 0.625 0.08373412263472582
v 0.24539880637815092 0.5 0.06575441199258697
v 0.24539880637815092 0.625 0.06575441199258697
v 0.3125 0.5 -0.08373412263472588
v 0.3125 0.625 -0.08373412263472588
v 0.24539880637815092 0.5 -0.06575441199258701
v 0.24539880637815092 0.625 -0.06575441199258701
v 0.2287658773652742 0.5 -0.22876587736527415
v 0.2287658773652742 0.625 -0.22876587736527415
v 0.17964439438556395 0.5 -0.17964439438556393
v 0.17964439438556395 0.625 -0.17964439438556393
v 0.08373412263472592 0.5 -0.3125
v 0.08373412263472592 0.625 -0.3125
v 0.06575441199258704 0.5 -0.2453988063781509
v 0.06575441199258704 0.625 -0.2453988063781509
v -0.08373412263472572 0.5 -0.3125
v -0.08373412263472572 0.625 -0.3125
v -0.06575441199258689 0.5 -0.24539880637815095
v -0.06575441199258689 0.625 -0.24539880637815095
v -0.22876587736527415 0.5 -0.22876587736527423
v -0.22876587736527415 0.625 -0.22876587736527423
v -0.1796443943855639 0.5 -0.179644394385564
v -0.1796443943855639 0.625 -0.179644394385564
v -0.31249999999999994 0.5 -0.0837341226347258
v -0.31249999999999994 0.625 -0.0837341226347258
v -0.24539880637815092 0.5 -0.06575441199258696
v -0.24539880637815092 0.625 -0.06575441199258696
v -0.3125 0.5 0.08373412263472568
v -0.3125 0.625 0.08373412263472568
v -0.24539880637815092 0.5 0.06575441199258686
v -0.24539880637815092 0.625 0.06575441199258686
v -0.2287658773652742 0.5 0.2287658773652741
v -0.2287658773652742 0.625 0.2287658773652741
v -0.179644394385564 0.5 0.17964439438556387
v -0.179644394385564 0.625 0.17964439438556387
v -0.08373412263472582 0.5 0.3125
v -0.08373412263472582 0.625 0.3125
v -0.06575441199258697 0.5 0.2453988063781509
v -0.06575441199258697 0.625 0.2453988063781509
vt 0 0.5
vt 0.26795 0.5
vt 0.26795 1
vt 0 1
vt 0.2104125 1
vt 0 1
vt 0 0.5
vt 0.2104125 0.5
vt 5.551115123125783e-17 0.9712338382135871
vt 0 0.7608192340054607
vt 0.1073608929841336 0.7320513050606374
vt 0.1073631935017324 1
vt 0 0.8926370534788388
vt 0.26794869494923834 0.8926370534788388
vt 0.23918168777008322 0.9999981934508018
vt 0.028767083569711985 1
vt 0 0.5
vt 0.26795 0.5
vt 0.26795 1
vt 0 1
vt 0.2104125 1
vt 0 1
vt 0 0.5
vt 0.2104125 0.5
vt 0 0.9712320710551766
vt 5.551115123125783e-17 0.7608174668470502
vt 0.1073631935017324 0.7320513050606374
vt 0.10736089298413354 1
vt 0 0.892637053478839
vt 0.2679486949492383 0.8926370534788388
vt 0.2391816113795264 1
vt 0.028767007179155174 0.999998193450802
vt 0 0.5
vt 0.26795 0.5
vt 0.26795 1
vt 0 1
vt 0.2104125 1
vt 0 1
vt 0 0.5
vt 0.2104125 0.5
vt 0 0.97123125
vt 0 0.76081875
vt 0.10736250000000003 0.73205
vt 0.10736250000000003 1
vt 0.10736250000000003 0.73205
vt 0.10736250000000003 1
vt 0 0.97123125
vt 0 0.76081875
vt 0 0.5
vt 0.26795 0.5
vt 0.26795 1
vt 0 1
vt 0.2104125 1
vt 0 1
vt 0 0.5
vt 0.2104125 0.5
vt 0.23918253315294977 1
vt 0.02876792894482333 1
vt 0 0.8926391070158664
vt 0.26794869493936263 0.8926368064982676
vt 0.10736294652116113 0.7320513050507615
vt 0.10736294652116107 1
vt 0.0000018065491981245074 0.9712329928208447
vt 0 0.7608183886204736
vt 0 0.5
vt 0.26795 0.5
vt 0.26795 1
vt 0 1
vt 0.2104125 1
vt 0 1
vt 0 0.5
vt 0.2104125 0.5
vt 0.23918076599453925 1
vt 0.028766161786412836 1
vt 0 0.8926368064982676
vt 0.2679486949393626 0.8926391070158665
vt 0.10736294652116124 0.7320513050507617
vt 0.10736294652116118 1
vt 0 0.971232916430288
vt 0.0000018065491982910409 0.7608183122299168
vt 0 0.5
vt 0.26795 0.5
vt 0.26795 1
vt 0 1
vt 0.2104125 1
vt 0 1
vt 0 0.5
vt 0.2104125 0.5
vt 0.23918125 1
vt 0.02876875000000001 1
vt 0 0.8926375
vt 0.26795 0.8926375
vt 0.26795 1
vt 0 1
vt 0.02876875000000001 0.8926375
vt 0.23918125 0.8926375
vt 0 0.5
vt 0.26795 0.5
vt 0.26795 1
vt 0 1
vt 0.2104125 1
vt 0 1
vt 0 0.5
vt 0.2104125 0.5
vt 0.1073631935017324 0.7608174668470502
vt 0.10736319350173235 0.9712320710551767
vt 0.000002300517598752272 1
vt 0 0.7320513050606373
vt 0.26794869494923834 1
vt 0 1
vt 0.02876700717915512 0.892638860028037
vt 0.23918161137952637 0.8926370534788388
vt 0 0.5
vt 0.26795 0.5
vt 0.26795 1
vt 0 1
vt 0.2104125 1
vt 0 1
vt 0 0.5
vt 0.2104125 0.5
vt 0.1073631935017324 0.7608192340054607
vt 0.10736319350173235 0.9712338382135872
vt 0 1
vt 0.000002300517598863294 0.7320513050606374
vt 0.26794869494923834 1
vt 0 1
vt 0.028767083569712013 0.8926370534788388
vt 0.23918168777008322 0.892638860028037
vt 0 0.5
vt 0.26795 0.5
vt 0.26795 1
vt 0 1
vt 0.2104125 1
vt 0 1
vt 0 0.5
vt 0.2104125 0.5
vt 0.10736250000000003 0.76081875
vt 0.10736250000000003 0.97123125
vt 0 1
vt 0 0.73205
vt 0 1
vt 0 0.73205
vt 0.10736250000000003 0.76081875
vt 0.10736250000000003 0.97123125
vt 0 0.5
vt 0.26795 0.5
vt 0.26795 1
vt 0 1
vt 0.2104125 1
vt 0 1
vt 0 0.5
vt 0.2104125 0.5
vt 0.028766161786412864 0.8926368064982677
vt 0.2391807659945393 0.8926368064982676
vt 0.26794869493936263 0.9999976994824011
vt 0 1
vt 5.551115123125783e-17 1
vt 0 0.7320513050507617
vt 0.107361139971963 0.7608183122299168
vt 0.10736294652116124 0.971232916430288
vt 0 0.5
vt 0.26795 0.5
vt 0.26795 1
vt 0 1
vt 0.2104125 1
vt 0 1
vt 0 0.5
vt 0.2104125 0.5
vt 0.028767928944823357 0.8926368064982676
vt 0.23918253315294977 0.8926368064982677
vt 0.2679486949393626 1
vt 0 0.9999976994824011
vt 0 1
vt 5.551115123125783e-17 0.7320513050507617
vt 0.10736294652116124 0.7608183886204737
vt 0.10736113997196295 0.971232992820845
vt 0 0.5
vt 0.26795 0.5
vt 0.26795 1
vt 0 1
vt 0.2104125 1
vt 0 1
vt 0 0.5
vt 0.2104125 0.5
vt 0.02876875000000001 0.8926375
vt 0.23918125 0.8926375
vt 0.26795 1
vt 0 1
vt 0 0.8926375
vt 0.26795 0.8926375
vt 0.23918125 1
vt 0.02876875000000001 1
vn 0.49999999999999994 0 0.8660254037844387
vn -0.4999999999999999 0 -0.8660254037844389
vn 0 -1 0
vn 0 1 0
vn 0.8660254037844386 0 0.5000000000000001
vn -0.8660254037844387 0 -0.5000000000000002
vn 0 -1 0
vn 0 1 0
vn 1 0 0
vn -1 0 0
vn 0 -1 0
vn 0 1 0
vn 0.8660254037844387 0 -0.49999999999999983
vn -0.8660254037844387 0 0.5000000000000001
vn 0 -1 0
vn 0 1 0
vn 0.5000000000000001 0 -0.8660254037844388
vn -0.5000000000000001 0 0.8660254037844387
vn 0 -1 0
vn 0 1 0
vn 0 0 -1
vn -4.2210970753959483e-16 0 1
vn 0 -1 0
vn 0 1 0
vn -0.49999999999999944 0 -0.8660254037844392
vn 0.49999999999999956 0 0.8660254037844389
vn 0 -1 0
vn 0 1 0
vn -0.8660254037844392 0 -0.49999999999999956
vn 0.8660254037844387 0 0.4999999999999999
vn 0 -1 0
vn 0 1 0
vn -1 0 -3.3147269885071057e-16
vn 1 0 0
vn 0 -1 0
vn 0 1 0
vn -0.8660254037844389 0 0.4999999999999995
vn 0.8660254037844392 0 -0.4999999999999995
vn 0 -1 0
vn 0 1 0
vn -0.5000000000000001 0 0.8660254037844386
vn 0.5 0 -0.8660254037844387
vn 0 -1 0
vn 0 1 0
vn 0 0 1
vn 0 0 -1
vn 0 -1 0
vn 0 1 0
usemtl m_8733381a-48f0-ec5f-7c9c-3cba02781be2
f 187/761/197 191/762/197 192/763/197 188/764/197
f 190/765/198 194/766/198 193/767/198 189/768/198
f 189/769/199 193/770/199 191/771/199 187/772/199
f 188/773/200 192/774/200 194/775/200 190/776/200
f 191/777/201 195/778/201 196/779/201 192/780/201
f 194/781/202 198/782/202 197/783/202 193/784/202
f 193/785/203 197/786/203 195/787/203 191/788/203
f 192/789/204 196/790/204 198/791/204 194/792/204
f 195/793/205 199/794/205 200/795/205 196/796/205
f 198/797/206 202/798/206 201/799/206 197/800/206
f 197/801/207 201/802/207 199/803/207 195/804/207
f 196/805/208 200/806/208 202/807/208 198/808/208
f 199/809/209 203/810/209 204/811/209 200/812/209
f 202/813/210 206/814/210 205/815/210 201/816/210
f 201/817/211 205/818/211 203/819/211 199/820/211
f 200/821/212 204/822/212 206/823/212 202/824/212
f 203/825/213 207/826/213 208/827/213 204/828/213
f 206/829/214 210/830/214 209/831/214 205/832/214
f 205/833/215 209/834/215 207/835/215 203/836/215
f 204/837/216 208/838/216 210/839/216 206/840/216
f 207/841/217 211/842/217 212/843/217 208/844/217
f 210/845/218 214/846/218 213/847/218 209/848/218
f 209/849/219 213/850/219 211/851/219 207/852/219
f 208/853/220 212/854/220 214/855/220 210/856/220
f 211/857/221 215/858/221 216/859/221 212/860/221
f 214/861/222 218/862/222 217/863/222 213/864/222
f 213/865/223 217/866/223 215/867/223 211/868/223
f 212/869/224 216/870/224 218/871/224 214/872/224
f 215/873/225 219/874/225 220/875/225 216/876/225
f 218/877/226 222/878/226 221/879/226 217/880/226
f 217/881/227 221/882/227 219/883/227 215/884/227
f 216/885/228 220/886/228 222/887/228 218/888/228
f 219/889/229 223/890/229 224/891/229 220/892/229
f 222/893/230 226/894/230 225/895/230 221/896/230
f 221/897/231 225/898/231 223/899/231 219/900/231
f 220/901/232 224/902/232 226/903/232 222/904/232
f 223/905/233 227/906/233 228/907/233 224/908/233
f 226/909/234 230/910/234 229/911/234 225/912/234
f 225/913/235 229/914/235 227/915/235 223/916/235
f 224/917/236 228/918/236 230/919/236 226/920/236
f 227/921/237 231/922/237 232/923/237 228/924/237
f 230/925/238 234/926/238 233/927/238 229/928/238
f 229/929/239 233/930/239 231/931/239 227/932/239
f 228/933/240 232/934/240 234/935/240 230/936/240
f 231/937/241 187/938/241 188/939/241 232/940/241
f 234/941/242 190/942/242 189/943/242 233/944/242
f 233/945/243 189/946/243 187/947/243 231/948/243
f 232/949/244 188/950/244 190/951/244 234/952/244
o tube
v 0.10048094716167097 0.25 0.375
v 0.10048094716167097 0.375 0.375
v 0.07890529439110434 0.25 0.29447856765378105
v 0.07890529439110434 0.375 0.29447856765378105
v 0.2745190528383289 0.25 0.274519052838329
v 0.2745190528383289 0.375 0.274519052838329
v 0.21557327326267667 0.25 0.21557327326267675
v 0.21557327326267667 0.375 0.21557327326267675
v 0.375 0.25 0.10048094716167098
v 0.375 0.375 0.10048094716167098
v 0.2944785676537811 0.25 0.07890529439110436
v 0.2944785676537811 0.375 0.07890529439110436
v 0.375 0.25 -0.10048094716167105
v 0.375 0.375 -0.10048094716167105
v 0.2944785676537811 0.25 -0.07890529439110441
v 0.2944785676537811 0.375 -0.07890529439110441
v 0.27451905283832906 0.25 -0.27451905283832895
v 0.27451905283832906 0.375 -0.27451905283832895
v 0.21557327326267675 0.25 -0.2155732732626767
v 0.21557327326267675 0.375 -0.2155732732626767
v 0.1004809471616711 0.25 -0.375
v 0.1004809471616711 0.375 -0.375
v 0.07890529439110444 0.25 -0.29447856765378105
v 0.07890529439110444 0.375 -0.29447856765378105
v -0.10048094716167087 0.25 -0.375
v -0.10048094716167087 0.375 -0.375
v -0.07890529439110426 0.25 -0.2944785676537811
v -0.07890529439110426 0.375 -0.2944785676537811
v -0.27451905283832895 0.25 -0.27451905283832906
v -0.27451905283832895 0.375 -0.27451905283832906
v -0.21557327326267667 0.25 -0.2155732732626768
v -0.21557327326267667 0.375 -0.2155732732626768
v -0.37499999999999994 0.25 -0.10048094716167096
v -0.37499999999999994 0.375 -0.10048094716167096
v -0.2944785676537811 0.25 -0.07890529439110434
v -0.2944785676537811 0.375 -0.07890529439110434
v -0.375 0.25 0.10048094716167082
v -0.375 0.375 0.10048094716167082
v -0.2944785676537811 0.25 0.07890529439110423
v -0.2944785676537811 0.375 0.07890529439110423
v -0.27451905283832906 0.25 0.2745190528383289
v -0.27451905283832906 0.375 0.2745190528383289
v -0.2155732732626768 0.25 0.21557327326267664
v -0.2155732732626768 0.375 0.21557327326267664
v -0.10048094716167098 0.25 0.375
v -0.10048094716167098 0.375 0.375
v -0.07890529439110436 0.25 0.29447856765378105
v -0.07890529439110436 0.375 0.29447856765378105
vt 0 0.5
vt 0.26795 0.5
vt 0.26795 1
vt 0 1
vt 0.2104125 1
vt 0 1
vt 0 0.5
vt 0.2104125 0.5
vt 5.551115123125783e-17 0.9712338382135871
vt 0 0.7608192340054607
vt 0.1073608929841336 0.7320513050606374
vt 0.1073631935017324 1
vt 0 0.8926370534788388
vt 0.26794869494923834 0.8926370534788388
vt 0.23918168777008322 0.9999981934508018
vt 0.028767083569711985 1
vt 0 0.5
vt 0.26795 0.5
vt 0.26795 1
vt 0 1
vt 0.2104125 1
vt 0 1
vt 0 0.5
vt 0.2104125 0.5
vt 0 0.9712320710551766
vt 5.551115123125783e-17 0.7608174668470502
vt 0.1073631935017324 0.7320513050606374
vt 0.10736089298413354 1
vt 0 0.892637053478839
vt 0.2679486949492383 0.8926370534788388
vt 0.2391816113795264 1
vt 0.028767007179155174 0.999998193450802
vt 0 0.5
vt 0.26795 0.5
vt 0.26795 1
vt 0 1
vt 0.2104125 1
vt 0 1
vt 0 0.5
vt 0.2104125 0.5
vt 0 0.97123125
vt 0 0.76081875
vt 0.10736250000000003 0.73205
vt 0.10736250000000003 1
vt 0.10736250000000003 0.73205
vt 0.10736250000000003 1
vt 0 0.97123125
vt 0 0.76081875
vt 0 0.5
vt 0.26795 0.5
vt 0.26795 1
vt 0 1
vt 0.2104125 1
vt 0 1
vt 0 0.5
vt 0.2104125 0.5
vt 0.23918253315294977 1
vt 0.02876792894482333 1
vt 0 0.8926391070158664
vt 0.26794869493936263 0.8926368064982676
vt 0.10736294652116113 0.7320513050507615
vt 0.10736294652116107 1
vt 0.0000018065491981245074 0.9712329928208447
vt 0 0.7608183886204736
vt 0 0.5
vt 0.26795 0.5
vt 0.26795 1
vt 0 1
vt 0.2104125 1
vt 0 1
vt 0 0.5
vt 0.2104125 0.5
vt 0.23918076599453925 1
vt 0.028766161786412836 1
vt 0 0.8926368064982676
vt 0.2679486949393626 0.8926391070158665
vt 0.10736294652116124 0.7320513050507617
vt 0.10736294652116118 1
vt 0 0.971232916430288
vt 0.0000018065491982910409 0.7608183122299168
vt 0 0.5
vt 0.26795 0.5
vt 0.26795 1
vt 0 1
vt 0.2104125 1
vt 0 1
vt 0 0.5
vt 0.2104125 0.5
vt 0.23918125 1
vt 0.02876875000000001 1
vt 0 0.8926375
vt 0.26795 0.8926375
vt 0.26795 1
vt 0 1
vt 0.02876875000000001 0.8926375
vt 0.23918125 0.8926375
vt 0 0.5
vt 0.26795 0.5
vt 0.26795 1
vt 0 1
vt 0.2104125 1
vt 0 1
vt 0 0.5
vt 0.2104125 0.5
vt 0.1073631935017324 0.7608174668470502
vt 0.10736319350173235 0.9712320710551767
vt 0.000002300517598752272 1
vt 0 0.7320513050606373
vt 0.26794869494923834 1
vt 0 1
vt 0.02876700717915512 0.892638860028037
vt 0.23918161137952637 0.8926370534788388
vt 0 0.5
vt 0.26795 0.5
vt 0.26795 1
vt 0 1
vt 0.2104125 1
vt 0 1
vt 0 0.5
vt 0.2104125 0.5
vt 0.1073631935017324 0.7608192340054607
vt 0.10736319350173235 0.9712338382135872
vt 0 1
vt 0.000002300517598863294 0.7320513050606374
vt 0.26794869494923834 1
vt 0 1
vt 0.028767083569712013 0.8926370534788388
vt 0.23918168777008322 0.892638860028037
vt 0 0.5
vt 0.26795 0.5
vt 0.26795 1
vt 0 1
vt 0.2104125 1
vt 0 1
vt 0 0.5
vt 0.2104125 0.5
vt 0.10736250000000003 0.76081875
vt 0.10736250000000003 0.97123125
vt 0 1
vt 0 0.73205
vt 0 1
vt 0 0.73205
vt 0.10736250000000003 0.76081875
vt 0.10736250000000003 0.97123125
vt 0 0.5
vt 0.26795 0.5
vt 0.26795 1
vt 0 1
vt 0.2104125 1
vt 0 1
vt 0 0.5
vt 0.2104125 0.5
vt 0.028766161786412864 0.8926368064982677
vt 0.2391807659945393 0.8926368064982676
vt 0.26794869493936263 0.9999976994824011
vt 0 1
vt 5.551115123125783e-17 1
vt 0 0.7320513050507617
vt 0.107361139971963 0.7608183122299168
vt 0.10736294652116124 0.971232916430288
vt 0 0.5
vt 0.26795 0.5
vt 0.26795 1
vt 0 1
vt 0.2104125 1
vt 0 1
vt 0 0.5
vt 0.2104125 0.5
vt 0.028767928944823357 0.8926368064982676
vt 0.23918253315294977 0.8926368064982677
vt 0.2679486949393626 1
vt 0 0.9999976994824011
vt 0 1
vt 5.551115123125783e-17 0.7320513050507617
vt 0.10736294652116124 0.7608183886204737
vt 0.10736113997196295 0.971232992820845
vt 0 0.5
vt 0.26795 0.5
vt 0.26795 1
vt 0 1
vt 0.2104125 1
vt 0 1
vt 0 0.5
vt 0.2104125 0.5
vt 0.02876875000000001 0.8926375
vt 0.23918125 0.8926375
vt 0.26795 1
vt 0 1
vt 0 0.8926375
vt 0.26795 0.8926375
vt 0.23918125 1
vt 0.02876875000000001 1
vn 0.5000000000000001 0 0.8660254037844387
vn -0.49999999999999967 0 -0.8660254037844388
vn 0 -1 0
vn 0 1 0
vn 0.8660254037844387 0 0.5000000000000003
vn -0.8660254037844386 0 -0.5000000000000002
vn 0 -1 0
vn 0 1 0
vn 1 0 0
vn -1 0 0
vn 0 -1 0
vn 0 1 0
vn 0.8660254037844387 0 -0.4999999999999999
vn -0.8660254037844386 0 0.5000000000000001
vn 0 -1 0
vn 0 1 0
vn 0.5000000000000002 0 -0.8660254037844387
vn -0.5 0 0.8660254037844387
vn 0 -1 0
vn 0 1 0
vn 0 0 -1
vn -3.5175808961632904e-16 0 1
vn 0 -1 0
vn 0 1 0
vn -0.4999999999999995 0 -0.8660254037844389
vn 0.49999999999999956 0 0.8660254037844392
vn 0 -1 0
vn 0 1 0
vn -0.8660254037844389 0 -0.49999999999999967
vn 0.8660254037844388 0 0.5000000000000001
vn 0 -1 0
vn 0 1 0
vn -1 0 -2.762272490422588e-16
vn 1 0 0
vn 0 -1 0
vn 0 1 0
vn -0.8660254037844389 0 0.4999999999999995
vn 0.8660254037844392 0 -0.49999999999999956
vn 0 -1 0
vn 0 1 0
vn -0.5000000000000001 0 0.8660254037844385
vn 0.49999999999999994 0 -0.8660254037844388
vn 0 -1 0
vn 0 1 0
vn 0 0 1
vn 0 0 -1
vn 0 -1 0
vn 0 1 0
usemtl m_8733381a-48f0-ec5f-7c9c-3cba02781be2
f 235/953/245 239/954/245 240/955/245 236/956/245
f 238/957/246 242/958/246 241/959/246 237/960/246
f 237/961/247 241/962/247 239/963/247 235/964/247
f 236/965/248 240/966/248 242/967/248 238/968/248
f 239/969/249 243/970/249 244/971/249 240/972/249
f 242/973/250 246/974/250 245/975/250 241/976/250
f 241/977/251 245/978/251 243/979/251 239/980/251
f 240/981/252 244/982/252 246/983/252 242/984/252
f 243/985/253 247/986/253 248/987/253 244/988/253
f 246/989/254 250/990/254 249/991/254 245/992/254
f 245/993/255 249/994/255 247/995/255 243/996/255
f 244/997/256 248/998/256 250/999/256 246/1000/256
f 247/1001/257 251/1002/257 252/1003/257 248/1004/257
f 250/1005/258 254/1006/258 253/1007/258 249/1008/258
f 249/1009/259 253/1010/259 251/1011/259 247/1012/259
f 248/1013/260 252/1014/260 254/1015/260 250/1016/260
f 251/1017/261 255/1018/261 256/1019/261 252/1020/261
f 254/1021/262 258/1022/262 257/1023/262 253/1024/262
f 253/1025/263 257/1026/263 255/1027/263 251/1028/263
f 252/1029/264 256/1030/264 258/1031/264 254/1032/264
f 255/1033/265 259/1034/265 260/1035/265 256/1036/265
f 258/1037/266 262/1038/266 261/1039/266 257/1040/266
f 257/1041/267 261/1042/267 259/1043/267 255/1044/267
f 256/1045/268 260/1046/268 262/1047/268 258/1048/268
f 259/1049/269 263/1050/269 264/1051/269 260/1052/269
f 262/1053/270 266/1054/270 265/1055/270 261/1056/270
f 261/1057/271 265/1058/271 263/1059/271 259/1060/271
f 260/1061/272 264/1062/272 266/1063/272 262/1064/272
f 263/1065/273 267/1066/273 268/1067/273 264/1068/273
f 266/1069/274 270/1070/274 269/1071/274 265/1072/274
f 265/1073/275 269/1074/275 267/1075/275 263/1076/275
f 264/1077/276 268/1078/276 270/1079/276 266/1080/276
f 267/1081/277 271/1082/277 272/1083/277 268/1084/277
f 270/1085/278 274/1086/278 273/1087/278 269/1088/278
f 269/1089/279 273/1090/279 271/1091/279 267/1092/279
f 268/1093/280 272/1094/280 274/1095/280 270/1096/280
f 271/1097/281 275/1098/281 276/1099/281 272/1100/281
f 274/1101/282 278/1102/282 277/1103/282 273/1104/282
f 273/1105/283 277/1106/283 275/1107/283 271/1108/283
f 272/1109/284 276/1110/284 278/1111/284 274/1112/284
f 275/1113/285 279/1114/285 280/1115/285 276/1116/285
f 278/1117/286 282/1118/286 281/1119/286 277/1120/286
f 277/1121/287 281/1122/287 279/1123/287 275/1124/287
f 276/1125/288 280/1126/288 282/1127/288 278/1128/288
f 279/1129/289 235/1130/289 236/1131/289 280/1132/289
f 282/1133/290 238/1134/290 237/1135/290 281/1136/290
f 281/1137/291 237/1138/291 235/1139/291 279/1140/291
f 280/1141/292 236/1142/292 238/1143/292 282/1144/292
o tube
v 0.11722777168861612 0 0.4375
v 0.11722777168861612 0.125 0.4375
v 0.09205617678962173 0 0.34355832892941124
v 0.09205617678962173 0.125 0.34355832892941124
v 0.3202722283113837 0 0.32027222831138386
v 0.3202722283113837 0.125 0.32027222831138386
v 0.25150215213978944 0 0.25150215213978955
v 0.25150215213978944 0.125 0.25150215213978955
v 0.4375 0 0.11722777168861614
v 0.4375 0.125 0.11722777168861614
v 0.3435583289294113 0 0.09205617678962175
v 0.3435583289294113 0.125 0.09205617678962175
v 0.4375 0 -0.11722777168861621
v 0.4375 0.125 -0.11722777168861621
v 0.3435583289294113 0 -0.09205617678962182
v 0.3435583289294113 0.125 -0.09205617678962182
v 0.32027222831138386 0 -0.3202722283113838
v 0.32027222831138386 0.125 -0.3202722283113838
v 0.25150215213978955 0 -0.2515021521397895
v 0.25150215213978955 0.125 -0.2515021521397895
v 0.11722777168861628 0 -0.4375
v 0.11722777168861628 0.125 -0.4375
v 0.09205617678962184 0 -0.34355832892941124
v 0.09205617678962184 0.125 -0.34355832892941124
v -0.117227771688616 0 -0.4375
v -0.117227771688616 0.125 -0.4375
v -0.09205617678962164 0 -0.3435583289294113
v -0.09205617678962164 0.125 -0.3435583289294113
v -0.3202722283113838 0 -0.3202722283113839
v -0.3202722283113838 0.125 -0.3202722283113839
v -0.25150215213978944 0 -0.2515021521397896
v -0.25150215213978944 0.125 -0.2515021521397896
v -0.4374999999999999 0 -0.1172277716886161
v -0.4374999999999999 0.125 -0.1172277716886161
v -0.3435583289294113 0 -0.09205617678962173
v -0.3435583289294113 0.125 -0.09205617678962173
v -0.4375 0 0.11722777168861595
v -0.4375 0.125 0.11722777168861595
v -0.3435583289294113 0 0.0920561767896216
v -0.3435583289294113 0.125 0.0920561767896216
v -0.32027222831138386 0 0.3202722283113837
v -0.32027222831138386 0.125 0.3202722283113837
v -0.2515021521397896 0 0.2515021521397894
v -0.2515021521397896 0.125 0.2515021521397894
v -0.11722777168861614 0 0.4375
v -0.11722777168861614 0.125 0.4375
v -0.09205617678962175 0 0.34355832892941124
v -0.09205617678962175 0.125 0.34355832892941124
vt 0 0.5
vt 0.26795 0.5
vt 0.26795 1
vt 0 1
vt 0.2104125 1
vt 0 1
vt 0 0.5
vt 0.2104125 0.5
vt 5.551115123125783e-17 0.9712338382135871
vt 0 0.7608192340054607
vt 0.1073608929841336 0.7320513050606374
vt 0.1073631935017324 1
vt 0 0.8926370534788388
vt 0.26794869494923834 0.8926370534788388
vt 0.23918168777008322 0.9999981934508018
vt 0.028767083569711985 1
vt 0 0.5
vt 0.26795 0.5
vt 0.26795 1
vt 0 1
vt 0.2104125 1
vt 0 1
vt 0 0.5
vt 0.2104125 0.5
vt 0 0.9712320710551766
vt 5.551115123125783e-17 0.7608174668470502
vt 0.1073631935017324 0.7320513050606374
vt 0.10736089298413354 1
vt 0 0.892637053478839
vt 0.2679486949492383 0.8926370534788388
vt 0.2391816113795264 1
vt 0.028767007179155174 0.999998193450802
vt 0 0.5
vt 0.26795 0.5
vt 0.26795 1
vt 0 1
vt 0.2104125 1
vt 0 1
vt 0 0.5
vt 0.2104125 0.5
vt 0 0.97123125
vt 0 0.76081875
vt 0.10736250000000003 0.73205
vt 0.10736250000000003 1
vt 0.10736250000000003 0.73205
vt 0.10736250000000003 1
vt 0 0.97123125
vt 0 0.76081875
vt 0 0.5
vt 0.26795 0.5
vt 0.26795 1
vt 0 1
vt 0.2104125 1
vt 0 1
vt 0 0.5
vt 0.2104125 0.5
vt 0.23918253315294977 1
vt 0.02876792894482333 1
vt 0 0.8926391070158664
vt 0.26794869493936263 0.8926368064982676
vt 0.10736294652116113 0.7320513050507615
vt 0.10736294652116107 1
vt 0.0000018065491981245074 0.9712329928208447
vt 0 0.7608183886204736
vt 0 0.5
vt 0.26795 0.5
vt 0.26795 1
vt 0 1
vt 0.2104125 1
vt 0 1
vt 0 0.5
vt 0.2104125 0.5
vt 0.23918076599453925 1
vt 0.028766161786412836 1
vt 0 0.8926368064982676
vt 0.2679486949393626 0.8926391070158665
vt 0.10736294652116124 0.7320513050507617
vt 0.10736294652116118 1
vt 0 0.971232916430288
vt 0.0000018065491982910409 0.7608183122299168
vt 0 0.5
vt 0.26795 0.5
vt 0.26795 1
vt 0 1
vt 0.2104125 1
vt 0 1
vt 0 0.5
vt 0.2104125 0.5
vt 0.23918125 1
vt 0.02876875000000001 1
vt 0 0.8926375
vt 0.26795 0.8926375
vt 0.26795 1
vt 0 1
vt 0.02876875000000001 0.8926375
vt 0.23918125 0.8926375
vt 0 0.5
vt 0.26795 0.5
vt 0.26795 1
vt 0 1
vt 0.2104125 1
vt 0 1
vt 0 0.5
vt 0.2104125 0.5
vt 0.1073631935017324 0.7608174668470502
vt 0.10736319350173235 0.9712320710551767
vt 0.000002300517598752272 1
vt 0 0.7320513050606373
vt 0.26794869494923834 1
vt 0 1
vt 0.02876700717915512 0.892638860028037
vt 0.23918161137952637 0.8926370534788388
vt 0 0.5
vt 0.26795 0.5
vt 0.26795 1
vt 0 1
vt 0.2104125 1
vt 0 1
vt 0 0.5
vt 0.2104125 0.5
vt 0.1073631935017324 0.7608192340054607
vt 0.10736319350173235 0.9712338382135872
vt 0 1
vt 0.000002300517598863294 0.7320513050606374
vt 0.26794869494923834 1
vt 0 1
vt 0.028767083569712013 0.8926370534788388
vt 0.23918168777008322 0.892638860028037
vt 0 0.5
vt 0.26795 0.5
vt 0.26795 1
vt 0 1
vt 0.2104125 1
vt 0 1
vt 0 0.5
vt 0.2104125 0.5
vt 0.10736250000000003 0.76081875
vt 0.10736250000000003 0.97123125
vt 0 1
vt 0 0.73205
vt 0 1
vt 0 0.73205
vt 0.10736250000000003 0.76081875
vt 0.10736250000000003 0.97123125
vt 0 0.5
vt 0.26795 0.5
vt 0.26795 1
vt 0 1
vt 0.2104125 1
vt 0 1
vt 0 0.5
vt 0.2104125 0.5
vt 0.028766161786412864 0.8926368064982677
vt 0.2391807659945393 0.8926368064982676
vt 0.26794869493936263 0.9999976994824011
vt 0 1
vt 5.551115123125783e-17 1
vt 0 0.7320513050507617
vt 0.107361139971963 0.7608183122299168
vt 0.10736294652116124 0.971232916430288
vt 0 0.5
vt 0.26795 0.5
vt 0.26795 1
vt 0 1
vt 0.2104125 1
vt 0 1
vt 0 0.5
vt 0.2104125 0.5
vt 0.028767928944823357 0.8926368064982676
vt 0.23918253315294977 0.8926368064982677
vt 0.2679486949393626 1
vt 0 0.9999976994824011
vt 0 1
vt 5.551115123125783e-17 0.7320513050507617
vt 0.10736294652116124 0.7608183886204737
vt 0.10736113997196295 0.971232992820845
vt 0 0.5
vt 0.26795 0.5
vt 0.26795 1
vt 0 1
vt 0.2104125 1
vt 0 1
vt 0 0.5
vt 0.2104125 0.5
vt 0.02876875000000001 0.8926375
vt 0.23918125 0.8926375
vt 0.26795 1
vt 0 1
vt 0 0.8926375
vt 0.26795 0.8926375
vt 0.23918125 1
vt 0.02876875000000001 1
vn 0.5 0 0.8660254037844387
vn -0.4999999999999998 0 -0.8660254037844388
vn 0 -1 0
vn 0 1 0
vn 0.8660254037844386 0 0.5000000000000003
vn -0.8660254037844386 0 -0.5000000000000002
vn 0 -1 0
vn 0 1 0
vn 1 0 0
vn -1 0 0
vn 0 -1 0
vn 0 1 0
vn 0.8660254037844387 0 -0.49999999999999994
vn -0.8660254037844387 0 0.5
vn 0 -1 0
vn 0 1 0
vn 0.5000000000000002 0 -0.8660254037844386
vn -0.5 0 0.8660254037844387
vn 0 -1 0
vn 0 1 0
vn 0 0 -1
vn -3.015069339568535e-16 0 1
vn 0 -1 0
vn 0 1 0
vn -0.4999999999999994 0 -0.866025403784439
vn 0.49999999999999956 0 0.8660254037844392
vn 0 -1 0
vn 0 1 0
vn -0.866025403784439 0 -0.49999999999999933
vn 0.8660254037844387 0 0.5000000000000001
vn 0 -1 0
vn 0 1 0
vn -1 0 -4.735324269295866e-16
vn 1 0 0
vn 0 -1 0
vn 0 1 0
vn -0.8660254037844389 0 0.4999999999999997
vn 0.8660254037844392 0 -0.49999999999999956
vn 0 -1 0
vn 0 1 0
vn -0.5000000000000003 0 0.8660254037844386
vn 0.5000000000000001 0 -0.8660254037844387
vn 0 -1 0
vn 0 1 0
vn 0 0 1
vn 0 0 -1
vn 0 -1 0
vn 0 1 0
usemtl m_8733381a-48f0-ec5f-7c9c-3cba02781be2
f 283/1145/293 287/1146/293 288/1147/293 284/1148/293
f 286/1149/294 290/1150/294 289/1151/294 285/1152/294
f 285/1153/295 289/1154/295 287/1155/295 283/1156/295
f 284/1157/296 288/1158/296 290/1159/296 286/1160/296
f 287/1161/297 291/1162/297 292/1163/297 288/1164/297
f 290/1165/298 294/1166/298 293/1167/298 289/1168/298
f 289/1169/299 293/1170/299 291/1171/299 287/1172/299
f 288/1173/300 292/1174/300 294/1175/300 290/1176/300
f 291/1177/301 295/1178/301 296/1179/301 292/1180/301
f 294/1181/302 298/1182/302 297/1183/302 293/1184/302
f 293/1185/303 297/1186/303 295/1187/303 291/1188/303
f 292/1189/304 296/1190/304 298/1191/304 294/1192/304
f 295/1193/305 299/1194/305 300/1195/305 296/1196/305
f 298/1197/306 302/1198/306 301/1199/306 297/1200/306
f 297/1201/307 301/1202/307 299/1203/307 295/1204/307
f 296/1205/308 300/1206/308 302/1207/308 298/1208/308
f 299/1209/309 303/1210/309 304/1211/309 300/1212/309
f 302/1213/310 306/1214/310 305/1215/310 301/1216/310
f 301/1217/311 305/1218/311 303/1219/311 299/1220/311
f 300/1221/312 304/1222/312 306/1223/312 302/1224/312
f 303/1225/313 307/1226/313 308/1227/313 304/1228/313
f 306/1229/314 310/1230/314 309/1231/314 305/1232/314
f 305/1233/315 309/1234/315 307/1235/315 303/1236/315
f 304/1237/316 308/1238/316 310/1239/316 306/1240/316
f 307/1241/317 311/1242/317 312/1243/317 308/1244/317
f 310/1245/318 314/1246/318 313/1247/318 309/1248/318
f 309/1249/319 313/1250/319 311/1251/319 307/1252/319
f 308/1253/320 312/1254/320 314/1255/320 310/1256/320
f 311/1257/321 315/1258/321 316/1259/321 312/1260/321
f 314/1261/322 318/1262/322 317/1263/322 313/1264/322
f 313/1265/323 317/1266/323 315/1267/323 311/1268/323
f 312/1269/324 316/1270/324 318/1271/324 314/1272/324
f 315/1273/325 319/1274/325 320/1275/325 316/1276/325
f 318/1277/326 322/1278/326 321/1279/326 317/1280/326
f 317/1281/327 321/1282/327 319/1283/327 315/1284/327
f 316/1285/328 320/1286/328 322/1287/328 318/1288/328
f 319/1289/329 323/1290/329 324/1291/329 320/1292/329
f 322/1293/330 326/1294/330 325/1295/330 321/1296/330
f 321/1297/331 325/1298/331 323/1299/331 319/1300/331
f 320/1301/332 324/1302/332 326/1303/332 322/1304/332
f 323/1305/333 327/1306/333 328/1307/333 324/1308/333
f 326/1309/334 330/1310/334 329/1311/334 325/1312/334
f 325/1313/335 329/1314/335 327/1315/335 323/1316/335
f 324/1317/336 328/1318/336 330/1319/336 326/1320/336
f 327/1321/337 283/1322/337 284/1323/337 328/1324/337
f 330/1325/338 286/1326/338 285/1327/338 329/1328/338
f 329/1329/339 285/1330/339 283/1331/339 327/1332/339
f 328/1333/340 284/1334/340 286/1335/340 330/1336/340
o sphere
v -1.734723475976807e-17 -0.4375 -1.734723475976807e-17
v -1.734723475976807e-17 0.5625 -1.734723475976807e-17
v 0.025120236790417725 0.49551270189221946 0.09374999999999997
v 0.04350952641916447 0.3125 0.16237976320958225
v 0.05024047358083548 0.0625 0.1875
v 0.043509526419164474 -0.1875 0.16237976320958228
v 0.025120236790417725 -0.3705127018922194 0.09374999999999997
v 0.0686297632095822 0.49551270189221946 0.06862976320958222
v 0.11887023679041775 0.3125 0.11887023679041775
v 0.13725952641916447 0.0625 0.1372595264191645
v 0.11887023679041775 -0.1875 0.11887023679041775
v 0.0686297632095822 -0.3705127018922194 0.06862976320958222
v 0.09374999999999997 0.49551270189221946 0.025120236790417725
v 0.16237976320958225 0.3125 0.04350952641916447
v 0.1875 0.0625 0.05024047358083548
v 0.16237976320958228 -0.1875 0.043509526419164474
v 0.09374999999999997 -0.3705127018922194 0.025120236790417725
v 0.09374999999999997 0.49551270189221946 -0.02512023679041777
v 0.16237976320958225 0.3125 -0.04350952641916452
v 0.1875 0.0625 -0.05024047358083553
v 0.16237976320958228 -0.1875 -0.04350952641916453
v 0.09374999999999997 -0.3705127018922194 -0.02512023679041777
v 0.06862976320958222 0.49551270189221946 -0.06862976320958222
v 0.11887023679041775 0.3125 -0.11887023679041772
v 0.1372595264191645 0.0625 -0.13725952641916447
v 0.11887023679041775 -0.1875 -0.11887023679041772
v 0.06862976320958222 -0.3705127018922194 -0.06862976320958222
v 0.02512023679041775 0.49551270189221946 -0.09374999999999997
v 0.043509526419164515 0.3125 -0.1623797632095822
v 0.05024047358083554 0.0625 -0.18749999999999994
v 0.04350952641916452 -0.1875 -0.16237976320958225
v 0.02512023679041775 -0.3705127018922194 -0.09374999999999997
v -0.02512023679041772 0.49551270189221946 -0.09375
v -0.04350952641916444 0.3125 -0.16237976320958225
v -0.050240473580835436 0.0625 -0.1875
v -0.043509526419164446 -0.1875 -0.16237976320958228
v -0.02512023679041772 -0.3705127018922194 -0.09375
v -0.06862976320958222 0.49551270189221946 -0.06862976320958225
v -0.11887023679041772 0.3125 -0.11887023679041778
v -0.13725952641916447 0.0625 -0.1372595264191645
v -0.11887023679041772 -0.1875 -0.11887023679041778
v -0.06862976320958222 -0.3705127018922194 -0.06862976320958225
v -0.09375 0.49551270189221946 -0.02512023679041775
v -0.16237976320958225 0.3125 -0.04350952641916449
v -0.18749999999999994 0.0625 -0.05024047358083549
v -0.16237976320958225 -0.1875 -0.043509526419164495
v -0.09375 -0.3705127018922194 -0.02512023679041775
v -0.09375 0.49551270189221946 0.025120236790417683
v -0.16237976320958225 0.3125 0.0435095264191644
v -0.1875 0.0625 0.050240473580835394
v -0.16237976320958228 -0.1875 0.0435095264191644
v -0.09375 -0.3705127018922194 0.025120236790417683
v -0.06862976320958225 0.49551270189221946 0.0686297632095822
v -0.11887023679041778 0.3125 0.11887023679041772
v -0.1372595264191645 0.0625 0.13725952641916447
v -0.11887023679041778 -0.1875 0.11887023679041772
v -0.06862976320958225 -0.3705127018922194 0.0686297632095822
v -0.025120236790417756 0.49551270189221946 0.09374999999999997
v -0.043509526419164495 0.3125 0.16237976320958225
v -0.050240473580835505 0.0625 0.1875
v -0.043509526419164495 -0.1875 0.16237976320958228
v -0.025120236790417756 -0.3705127018922194 0.09374999999999997
vt 0 0.7411749999999999
vt 0.133975 0.7411749999999999
vt 0.0669875 1
vt 0.0490375 1
vt 0 0.7411749999999999
vt 0.23205 0.7411749999999999
vt 0.18301250000000002 1
vt 0.017950000000000008 1
vt 0 0.7411749999999999
vt 0.26795 0.7411749999999999
vt 0.25 1
vt 0 1
vt 0.017950000000000008 0.7411749999999999
vt 0.25 0.7411749999999999
vt 0.26795 1
vt 0 1
vt 0.0490375 0.7411749999999999
vt 0.18301250000000002 0.7411749999999999
vt 0.23205 1
vt 0.133975 1
vt 0 1
vt 0.0669875 0.7411749999999999
vt 0 0.7411749999999999
vt 0.133975 0.7411749999999999
vt 0.0669875 1
vt 0.0490375 1
vt 0 0.7411749999999999
vt 0.23205 0.7411749999999999
vt 0.18301250000000002 1
vt 0.017950000000000008 1
vt 0 0.7411749999999999
vt 0.26795 0.7411749999999999
vt 0.25 1
vt 0 1
vt 0.017950000000000008 0.7411749999999999
vt 0.25 0.7411749999999999
vt 0.26795 1
vt 0 1
vt 0.0490375 0.7411749999999999
vt 0.18301250000000002 0.7411749999999999
vt 0.23205 1
vt 0.133975 1
vt 0 1
vt 0.0669875 0.7411749999999999
vt 0 0.7411749999999999
vt 0.133975 0.7411749999999999
vt 0.0669875 1
vt 0.0490375 1
vt 0 0.7411749999999999
vt 0.23205 0.7411749999999999
vt 0.18301250000000002 1
vt 0.017950000000000008 1
vt 0 0.7411749999999999
vt 0.26795 0.7411749999999999
vt 0.25 1
vt 0 1
vt 0.017950000000000008 0.7411749999999999
vt 0.25 0.7411749999999999
vt 0.26795 1
vt 0 1
vt 0.0490375 0.7411749999999999
vt 0.18301250000000002 0.7411749999999999
vt 0.23205 1
vt 0.133975 1
vt 0 1
vt 0.0669875 0.7411749999999999
vt 0 0.7411749999999999
vt 0.133975 0.7411749999999999
vt 0.0669875 1
vt 0.0490375 1
vt 0 0.7411749999999999
vt 0.23205 0.7411749999999999
vt 0.18301250000000002 1
vt 0.017950000000000008 1
vt 0 0.7411749999999999
vt 0.26795 0.7411749999999999
vt 0.25 1
vt 0 1
vt 0.017950000000000008 0.7411749999999999
vt 0.25 0.7411749999999999
vt 0.26795 1
vt 0 1
vt 0.0490375 0.7411749999999999
vt 0.18301250000000002 0.7411749999999999
vt 0.23205 1
vt 0.133975 1
vt 0 1
vt 0.0669875 0.7411749999999999
vt 0 0.7411749999999999
vt 0.133975 0.7411749999999999
vt 0.0669875 1
vt 0.0490375 1
vt 0 0.7411749999999999
vt 0.23205 0.7411749999999999
vt 0.18301250000000002 1
vt 0.017950000000000008 1
vt 0 0.7411749999999999
vt 0.26795 0.7411749999999999
vt 0.25 1
vt 0 1
vt 0.017950000000000008 0.7411749999999999
vt 0.25 0.7411749999999999
vt 0.26795 1
vt 0 1
vt 0.0490375 0.7411749999999999
vt 0.18301250000000002 0.7411749999999999
vt 0.23205 1
vt 0.133975 1
vt 0 1
vt 0.0669875 0.7411749999999999
vt 0 0.7411749999999999
vt 0.133975 0.7411749999999999
vt 0.0669875 1
vt 0.0490375 1
vt 0 0.7411749999999999
vt 0.23205 0.7411749999999999
vt 0.18301250000000002 1
vt 0.017950000000000008 1
vt 0 0.7411749999999999
vt 0.26795 0.7411749999999999
vt 0.25 1
vt 0 1
vt 0.017950000000000008 0.7411749999999999
vt 0.25 0.7411749999999999
vt 0.26795 1
vt 0 1
vt 0.0490375 0.7411749999999999
vt 0.18301250000000002 0.7411749999999999
vt 0.23205 1
vt 0.133975 1
vt 0 1
vt 0.0669875 0.7411749999999999
vt 0 0.7411749999999999
vt 0.133975 0.7411749999999999
vt 0.0669875 1
vt 0.0490375 1
vt 0 0.7411749999999999
vt 0.23205 0.7411749999999999
vt 0.18301250000000002 1
vt 0.017950000000000008 1
vt 0 0.7411749999999999
vt 0.26795 0.7411749999999999
vt 0.25 1
vt 0 1
vt 0.017950000000000008 0.7411749999999999
vt 0.25 0.7411749999999999
vt 0.26795 1
vt 0 1
vt 0.0490375 0.7411749999999999
vt 0.18301250000000002 0.7411749999999999
vt 0.23205 1
vt 0.133975 1
vt 0 1
vt 0.0669875 0.7411749999999999
vt 0 0.7411749999999999
vt 0.133975 0.7411749999999999
vt 0.0669875 1
vt 0.0490375 1
vt 0 0.7411749999999999
vt 0.23205 0.7411749999999999
vt 0.18301250000000002 1
vt 0.017950000000000008 1
vt 0 0.7411749999999999
vt 0.26795 0.7411749999999999
vt 0.25 1
vt 0 1
vt 0.017950000000000008 0.7411749999999999
vt 0.25 0.7411749999999999
vt 0.26795 1
vt 0 1
vt 0.0490375 0.7411749999999999
vt 0.18301250000000002 0.7411749999999999
vt 0.23205 1
vt 0.133975 1
vt 0 1
vt 0.0669875 0.7411749999999999
vt 0 0.7411749999999999
vt 0.133975 0.7411749999999999
vt 0.0669875 1
vt 0.0490375 1
vt 0 0.7411749999999999
vt 0.23205 0.7411749999999999
vt 0.18301250000000002 1
vt 0.017950000000000008 1
vt 0 0.7411749999999999
vt 0.26795 0.7411749999999999
vt 0.25 1
vt 0 1
vt 0.017950000000000008 0.7411749999999999
vt 0.25 0.7411749999999999
vt 0.26795 1
vt 0 1
vt 0.0490375 0.7411749999999999
vt 0.18301250000000002 0.7411749999999999
vt 0.23205 1
vt 0.133975 1
vt 0 1
vt 0.0669875 0.7411749999999999
vt 0 0.7411749999999999
vt 0.133975 0.7411749999999999
vt 0.0669875 1
vt 0.0490375 1
vt 0 0.7411749999999999
vt 0.23205 0.7411749999999999
vt 0.18301250000000002 1
vt 0.017950000000000008 1
vt 0 0.7411749999999999
vt 0.26795 0.7411749999999999
vt 0.25 1
vt 0 1
vt 0.017950000000000008 0.7411749999999999
vt 0.25 0.7411749999999999
vt 0.26795 1
vt 0 1
vt 0.0490375 0.7411749999999999
vt 0.18301250000000002 0.7411749999999999
vt 0.23205 1
vt 0.133975 1
vt 0 1
vt 0.0669875 0.7411749999999999
vt 0 0.7411749999999999
vt 0.133975 0.7411749999999999
vt 0.0669875 1
vt 0.0490375 1
vt 0 0.7411749999999999
vt 0.23205 0.7411749999999999
vt 0.18301250000000002 1
vt 0.017950000000000008 1
vt 0 0.7411749999999999
vt 0.26795 0.7411749999999999
vt 0.25 1
vt 0 1
vt 0.017950000000000008 0.7411749999999999
vt 0.25 0.7411749999999999
vt 0.26795 1
vt 0 1
vt 0.0490375 0.7411749999999999
vt 0.18301250000000002 0.7411749999999999
vt 0.23205 1
vt 0.133975 1
vt 0 1
vt 0.0669875 0.7411749999999999
vt 0 0.7411749999999999
vt 0.133975 0.7411749999999999
vt 0.0669875 1
vt 0.0490375 1
vt 0 0.7411749999999999
vt 0.23205 0.7411749999999999
vt 0.18301250000000002 1
vt 0.017950000000000008 1
vt 0 0.7411749999999999
vt 0.26795 0.7411749999999999
vt 0.25 1
vt 0 1
vt 0.017950000000000008 0.7411749999999999
vt 0.25 0.7411749999999999
vt 0.26795 1
vt 0 1
vt 0.0490375 0.7411749999999999
vt 0.18301250000000002 0.7411749999999999
vt 0.23205 1
vt 0.133975 1
vt 0 1
vt 0.0669875 0.7411749999999999
vn 0.2906852166438075 0.8136389981428933 0.5034815642362407
vn 0.46816458878452233 0.3511234415883916 0.8108848540793833
vn 0.49749484872978983 0.09997750721684304 0.861686354503789
vn 0.49749484872979016 -0.09997750721684294 0.8616863545037889
vn 0.4681645887845224 -0.35112344158839176 0.810884854079383
vn 0.29068521664380764 -0.8136389981428931 0.5034815642362409
vn 0.5034815642362407 0.8136389981428933 0.2906852166438076
vn 0.8108848540793834 0.3511234415883917 0.4681645887845223
vn 0.861686354503789 0.09997750721684304 0.49749484872978983
vn 0.8616863545037889 -0.09997750721684304 0.49749484872979016
vn 0.810884854079383 -0.35112344158839187 0.46816458878452266
vn 0.503481564236241 -0.813638998142893 0.2906852166438078
vn 0.5813704332876148 0.8136389981428932 0
vn 0.9363291775690445 0.35112344158839165 0
vn 0.9949896974595798 0.09997750721684304 0
vn 0.9949896974595798 -0.09997750721684294 0
vn 0.9363291775690447 -0.3511234415883918 0
vn 0.5813704332876152 -0.8136389981428932 0
vn 0.5034815642362407 0.8136389981428932 -0.2906852166438076
vn 0.8108848540793829 0.35112344158839154 -0.46816458878452266
vn 0.8616863545037889 0.09997750721684304 -0.49749484872979
vn 0.8616863545037886 -0.09997750721684293 -0.49749484872979055
vn 0.8108848540793829 -0.3511234415883918 -0.46816458878452255
vn 0.5034815642362409 -0.8136389981428931 -0.29068521664380775
vn 0.29068521664380753 0.8136389981428933 -0.5034815642362408
vn 0.4681645887845223 0.3511234415883914 -0.8108848540793833
vn 0.4974948487297897 0.09997750721684315 -0.8616863545037892
vn 0.4974948487297904 -0.09997750721684315 -0.8616863545037887
vn 0.46816458878452244 -0.3511234415883916 -0.8108848540793832
vn 0.2906852166438077 -0.8136389981428931 -0.503481564236241
vn 3.2118071092308765e-16 0.8136389981428932 -0.5813704332876148
vn 6.119479419092273e-16 0.3511234415883915 -0.9363291775690448
vn 5.496865339092977e-16 0.09997750721684306 -0.9949896974595798
vn 3.173616683224453e-16 -0.09997750721684283 -0.9949896974595798
vn 5.29962463486995e-16 -0.35112344158839176 -0.9363291775690445
vn 3.2118071092308785e-16 -0.813638998142893 -0.5813704332876153
vn -0.2906852166438074 0.8136389981428933 -0.5034815642362409
vn -0.468164588784522 0.3511234415883914 -0.8108848540793836
vn -0.4974948487297896 0.09997750721684302 -0.8616863545037892
vn -0.4974948487297899 -0.0999775072168429 -0.861686354503789
vn -0.46816458878452205 -0.3511234415883917 -0.8108848540793833
vn -0.29068521664380753 -0.813638998142893 -0.5034815642362411
vn -0.5034815642362407 0.8136389981428933 -0.2906852166438076
vn -0.8108848540793833 0.35112344158839154 -0.4681645887845226
vn -0.8616863545037893 0.09997750721684308 -0.49749484872978955
vn -0.8616863545037889 -0.0999775072168431 -0.49749484872979016
vn -0.8108848540793829 -0.3511234415883917 -0.46816458878452266
vn -0.503481564236241 -0.813638998142893 -0.2906852166438078
vn -0.5813704332876148 0.8136389981428932 0
vn -0.9363291775690447 0.35112344158839154 0
vn -0.9949896974595798 0.09997750721684286 -5.496865339092982e-16
vn -0.9949896974595798 -0.09997750721684284 -3.173616683224456e-16
vn -0.9363291775690445 -0.35112344158839154 0
vn -0.5813704332876152 -0.813638998142893 0
vn -0.5034815642362409 0.8136389981428933 0.29068521664380736
vn -0.8108848540793836 0.3511234415883915 0.46816458878452183
vn -0.8616863545037894 0.09997750721684302 0.4974948487297894
vn -0.8616863545037892 -0.09997750721684291 0.4974948487297896
vn -0.8108848540793835 -0.35112344158839165 0.468164588784522
vn -0.5034815642362411 -0.8136389981428929 0.2906852166438075
vn -0.29068521664380764 0.8136389981428931 0.5034815642362407
vn -0.4681645887845225 0.3511234415883916 0.8108848540793832
vn -0.49749484872979005 0.0999775072168431 0.8616863545037892
vn -0.4974948487297904 -0.0999775072168431 0.8616863545037887
vn -0.46816458878452266 -0.3511234415883918 0.810884854079383
vn -0.2906852166438078 -0.813638998142893 0.5034815642362409
vn 0 0.8136389981428933 0.5813704332876148
vn 0 0.35112344158839165 0.9363291775690445
vn 0 0.09997750721684304 0.9949896974595798
vn 0 -0.09997750721684293 0.9949896974595798
vn 0 -0.35112344158839187 0.9363291775690447
vn 0 -0.8136389981428931 0.5813704332876152
usemtl m_ef3083c8-00cf-500c-a540-bf4a722df995
f 333/1337/341 338/1338/341 332/1339/341
f 333/1340/342 334/1341/342 339/1342/342 338/1343/342
f 334/1344/343 335/1345/343 340/1346/343 339/1347/343
f 335/1348/344 336/1349/344 341/1350/344 340/1351/344
f 336/1352/345 337/1353/345 342/1354/345 341/1355/345
f 342/1356/346 337/1357/346 331/1358/346
f 338/1359/347 343/1360/347 332/1361/347
f 338/1362/348 339/1363/348 344/1364/348 343/1365/348
f 339/1366/349 340/1367/349 345/1368/349 344/1369/349
f 340/1370/350 341/1371/350 346/1372/350 345/1373/350
f 341/1374/351 342/1375/351 347/1376/351 346/1377/351
f 347/1378/352 342/1379/352 331/1380/352
f 343/1381/353 348/1382/353 332/1383/353
f 343/1384/354 344/1385/354 349/1386/354 348/1387/354
f 344/1388/355 345/1389/355 350/1390/355 349/1391/355
f 345/1392/356 346/1393/356 351/1394/356 350/1395/356
f 346/1396/357 347/1397/357 352/1398/357 351/1399/357
f 352/1400/358 347/1401/358 331/1402/358
f 348/1403/359 353/1404/359 332/1405/359
f 348/1406/360 349/1407/360 354/1408/360 353/1409/360
f 349/1410/361 350/1411/361 355/1412/361 354/1413/361
f 350/1414/362 351/1415/362 356/1416/362 355/1417/362
f 351/1418/363 352/1419/363 357/1420/363 356/1421/363
f 357/1422/364 352/1423/364 331/1424/364
f 353/1425/365 358/1426/365 332/1427/365
f 353/1428/366 354/1429/366 359/1430/366 358/1431/366
f 354/1432/367 355/1433/367 360/1434/367 359/1435/367
f 355/1436/368 356/1437/368 361/1438/368 360/1439/368
f 356/1440/369 357/1441/369 362/1442/369 361/1443/369
f 362/1444/370 357/1445/370 331/1446/370
f 358/1447/371 363/1448/371 332/1449/371
f 358/1450/372 359/1451/372 364/1452/372 363/1453/372
f 359/1454/373 360/1455/373 365/1456/373 364/1457/373
f 360/1458/374 361/1459/374 366/1460/374 365/1461/374
f 361/1462/375 362/1463/375 367/1464/375 366/1465/375
f 367/1466/376 362/1467/376 331/1468/376
f 363/1469/377 368/1470/377 332/1471/377
f 363/1472/378 364/1473/378 369/1474/378 368/1475/378
f 364/1476/379 365/1477/379 370/1478/379 369/1479/379
f 365/1480/380 366/1481/380 371/1482/380 370/1483/380
f 366/1484/381 367/1485/381 372/1486/381 371/1487/381
f 372/1488/382 367/1489/382 331/1490/382
f 368/1491/383 373/1492/383 332/1493/383
f 368/1494/384 369/1495/384 374/1496/384 373/1497/384
f 369/1498/385 370/1499/385 375/1500/385 374/1501/385
f 370/1502/386 371/1503/386 376/1504/386 375/1505/386
f 371/1506/387 372/1507/387 377/1508/387 376/1509/387
f 377/1510/388 372/1511/388 331/1512/388
f 373/1513/389 378/1514/389 332/1515/389
f 373/1516/390 374/1517/390 379/1518/390 378/1519/390
f 374/1520/391 375/1521/391 380/1522/391 379/1523/391
f 375/1524/392 376/1525/392 381/1526/392 380/1527/392
f 376/1528/393 377/1529/393 382/1530/393 381/1531/393
f 382/1532/394 377/1533/394 331/1534/394
f 378/1535/395 383/1536/395 332/1537/395
f 378/1538/396 379/1539/396 384/1540/396 383/1541/396
f 379/1542/397 380/1543/397 385/1544/397 384/1545/397
f 380/1546/398 381/1547/398 386/1548/398 385/1549/398
f 381/1550/399 382/1551/399 387/1552/399 386/1553/399
f 387/1554/400 382/1555/400 331/1556/400
f 383/1557/401 388/1558/401 332/1559/401
f 383/1560/402 384/1561/402 389/1562/402 388/1563/402
f 384/1564/403 385/1565/403 390/1566/403 389/1567/403
f 385/1568/404 386/1569/404 391/1570/404 390/1571/404
f 386/1572/405 387/1573/405 392/1574/405 391/1575/405
f 392/1576/406 387/1577/406 331/1578/406
f 388/1579/407 333/1580/407 332/1581/407
f 388/1582/408 389/1583/408 334/1584/408 333/1585/408
f 389/1586/409 390/1587/409 335/1588/409 334/1589/409
f 390/1590/410 391/1591/410 336/1592/410 335/1593/410
f 391/1594/411 392/1595/411 337/1596/411 336/1597/411
f 337/1598/412 392/1599/412 331/1600/412