# Made in Blockbench 4.7.4
mtllib timer.mtl

o cuboid
v 0.4375 -0.4375 0.4375
v 0.4375 -0.4375 -0.4375
v 0.4375 -0.5 0.4375
v 0.4375 -0.5 -0.4375
v -0.4375 -0.4375 0.4375
v -0.4375 -0.4375 -0.4375
v -0.4375 -0.5 0.4375
v -0.4375 -0.5 -0.4375
v 0 -0.4375 0.5
v 0 -0.4375 -0.5
v 0 -0.5 -0.5
v 0 -0.5 0.5
v 0.5 -0.4375 0
v 0.5 -0.5 0
v 0 -0.5 0
v -0.5 -0.5 0
v -0.5 -0.4375 0
v 0 -0.375 0.4375
v -0.4375 -0.375 0
v 0 -0.375 0
v -0.3828125 -0.375 0.3828125
v -0.3828125 -0.375 -0.3828125
v 0 -0.375 -0.4375
v 0.4375 -0.375 0
v 0.3828125 -0.375 -0.3828125
v 0.3828125 -0.375 0.3828125
vt 0 0
vt 0.5 0
vt 0.5 1
vt 0 1
vt 1 1
vt 0.5 1
vt 0.5 0
vt 1 0
vt 0.5 1
vt 0.5 0.5
vt 1 0.5
vt 1 1
vt 1 1
vt 0.5 1
vt 0.5 0
vt 1 0
vt 0 0
vt 0.5 0
vt 0.5 1
vt 0 1
vt 1 1
vt 0.5 1
vt 0.5 0
vt 1 0
vt 0 1
vt 0 0.5
vt 0.5 0.5
vt 0.5 1
vt 0 0
vt 0.5 0
vt 0.5 1
vt 0 1
vt 1 1
vt 0.5 1
vt 0.5 0
vt 1 0
vt 1 0
vt 1 0.5
vt 0.5 0.5
vt 0.5 0
vt 0.5 0
vt 0.5 0.5
vt 0 0.5
vt 0 0
vt 0 0
vt 0.5 0
vt 0.5 1
vt 0 1
vt 1 0
vt 1 0.5
vt 0.5 0.5
vt 0.5 0
vt 0.5 0
vt 0.5 0.5
vt 0 0.5
vt 0 0
vt 0.5 1
vt 0.5 0.5
vt 1 0.5
vt 1 1
vt 0 1
vt 0 0.5
vt 0.5 0.5
vt 0.5 1
vt 0.220971875 0.625
vt 0 0.625
vt 0 0.59375
vt 0.220971875 0.59375
vt 0.25222187500000004 0.5
vt 0.03125 0.5
vt 0.03125 0.46875
vt 0.25222187500000004 0.46875
vt 0.220971875 0.875
vt 0 0.875
vt 0 0.84375
vt 0.220971875 0.84375
vt 0.25222187500000004 1
vt 0.03125 1
vt 0.03125 0.96875
vt 0.25222187500000004 0.96875
vt 0.627221875 0.875
vt 0.40625 0.875
vt 0.40625 0.84375
vt 0.627221875 0.84375
vt 0.502221875 1
vt 0.28125 1
vt 0.28125 0.96875
vt 0.502221875 0.96875
vt 0.627221875 0.625
vt 0.40625 0.625
vt 0.40625 0.59375
vt 0.627221875 0.59375
vt 0.502221875 0.5
vt 0.28125 0.5
vt 0.28125 0.46875
vt 0.502221875 0.46875
vn 0.9899494936611667 0 0.14142135623730953
vn -0.9899494936611667 0 0.14142135623730953
vn 0 -1 0
vn 0.14142135623730953 0 0.9899494936611667
vn 0.14142135623730953 0 -0.9899494936611667
vn -0.14142135623730953 0 -0.9899494936611667
vn 0 -1 0
vn -0.14142135623730953 0 0.9899494936611667
vn 0.9899494936611667 0 -0.14142135623730953
vn 0 -1 0
vn 0 -1 0
vn -0.9899494936611667 0 -0.14142135623730953
vn 0 1 0
vn 0 1 0
vn 0 1 0
vn 0 1 0
vn -0.7035264706814485 0.7035264706814485 0.10050378152592121
vn -0.10050378152592121 0.7035264706814485 0.7035264706814485
vn -0.7035264706814485 0.7035264706814485 -0.10050378152592121
vn -0.10050378152592121 0.7035264706814485 -0.7035264706814485
vn 0.7035264706814485 0.7035264706814485 -0.10050378152592121
vn 0.10050378152592121 0.7035264706814485 -0.7035264706814485
vn 0.7035264706814485 0.7035264706814485 0.10050378152592121
vn 0.10050378152592121 0.7035264706814485 0.7035264706814485
usemtl m_d86ec0fa-030c-8e94-5db2-18a8af8c4c04
f 3/1/1 14/2/1 13/3/1 1/4/1
f 5/5/2 17/6/2 16/7/2 7/8/2
f 12/9/3 15/10/3 14/11/3 3/12/3
f 1/13/4 9/14/4 12/15/4 3/16/4
f 4/17/5 11/18/5 10/19/5 2/20/5
f 6/21/6 10/22/6 11/23/6 8/24/6
f 7/25/7 16/26/7 15/27/7 12/28/7
f 7/29/8 12/30/8 9/31/8 5/32/8
f 2/33/9 13/34/9 14/35/9 4/36/9
f 4/37/10 14/38/10 15/39/10 11/40/10
f 11/41/11 15/42/11 16/43/11 8/44/11
f 8/45/12 16/46/12 17/47/12 6/48/12
f 26/49/13 24/50/13 20/51/13 18/52/13
f 18/53/14 20/54/14 19/55/14 21/56/14
f 23/57/15 20/58/15 24/59/15 25/60/15
f 22/61/16 19/62/16 20/63/16 23/64/16
f 21/65/17 19/66/17 17/67/17 5/68/17
f 18/69/18 21/70/18 5/71/18 9/72/18
f 19/73/19 22/74/19 6/75/19 17/76/19
f 22/77/20 23/78/20 10/79/20 6/80/20
f 25/81/21 24/82/21 13/83/21 2/84/21
f 23/85/22 25/86/22 2/87/22 10/88/22
f 24/89/23 26/90/23 1/91/23 13/92/23
f 26/93/24 18/94/24 9/95/24 1/96/24
o cuboid
v 0.4375 0.5 0.4375
v 0.4375 0.5 -0.4375
v 0.4375 0.4375 0.4375
v 0.4375 0.4375 -0.4375
v -0.4375 0.5 0.4375
v -0.4375 0.5 -0.4375
v -0.4375 0.4375 0.4375
v -0.4375 0.4375 -0.4375
v 0 0.5 0.5
v 0 0.5 -0.5
v 0 0.4375 -0.5
v 0 0.4375 0.5
v 0 0.5 0
v 0.5 0.5 0
v 0.5 0.4375 0
v -0.5 0.4375 0
v -0.5 0.5 0
v 0 0.375 -0.4375
v 0 0.375 0
v -0.4375 0.375 0
v -0.3828125 0.375 -0.3828125
v -0.3828125 0.375 0.3828125
v 0 0.375 0.4375
v 0.4375 0.375 0
v 0.3828125 0.375 0.3828125
v 0.3828125 0.375 -0.3828125
vt 0 0
vt 0.5 0
vt 0.5 1
vt 0 1
vt 1 1
vt 0.5 1
vt 0.5 0
vt 1 0
vt 1 0
vt 1 0.5
vt 0.5 0.5
vt 0.5 0
vt 0.5 1
vt 0.5 0.5
vt 1 0.5
vt 1 1
vt 1 1
vt 0.5 1
vt 0.5 0
vt 1 0
vt 0 0
vt 0.5 0
vt 0.5 1
vt 0 1
vt 0.5 0
vt 0.5 0.5
vt 0 0.5
vt 0 0
vt 1 1
vt 0.5 1
vt 0.5 0
vt 1 0
vt 0 1
vt 0 0.5
vt 0.5 0.5
vt 0.5 1
vt 0 0
vt 0.5 0
vt 0.5 1
vt 0 1
vt 0.5 1
vt 0.5 0.5
vt 1 0.5
vt 1 1
vt 1 1
vt 0.5 1
vt 0.5 0
vt 1 0
vt 1 0
vt 1 0.5
vt 0.5 0.5
vt 0.5 0
vt 0.5 0
vt 0.5 0.5
vt 0 0.5
vt 0 0
vt 0 0
vt 0.5 0
vt 0.5 1
vt 0 1
vt 0 1
vt 0 0.5
vt 0.5 0.5
vt 0.5 1
vt 0 0.59375
vt 0.220971875 0.59375
vt 0.220971875 0.625
vt 0 0.625
vt 0.03125 0.46875
vt 0.25222187500000004 0.46875
vt 0.25222187500000004 0.5
vt 0.03125 0.5
vt 0 0.84375
vt 0.220971875 0.84375
vt 0.220971875 0.875
vt 0 0.875
vt 0.03125 0.96875
vt 0.25222187500000004 0.96875
vt 0.25222187500000004 1
vt 0.03125 1
vt 0.40625 0.84375
vt 0.627221875 0.84375
vt 0.627221875 0.875
vt 0.40625 0.875
vt 0.28125 0.96875
vt 0.502221875 0.96875
vt 0.502221875 1
vt 0.28125 1
vt 0.40625 0.59375
vt 0.627221875 0.59375
vt 0.627221875 0.625
vt 0.40625 0.625
vt 0.28125 0.46875
vt 0.502221875 0.46875
vt 0.502221875 0.5
vt 0.28125 0.5
vn 0.9899494936611667 0 0.14142135623730953
vn -0.9899494936611667 0 0.14142135623730953
vn 0 1 0
vn 0 -1 0
vn 0.14142135623730953 0 0.9899494936611667
vn 0.14142135623730953 0 -0.9899494936611667
vn 0 1 0
vn -0.14142135623730953 0 -0.9899494936611667
vn 0 -1 0
vn -0.14142135623730953 0 0.9899494936611667
vn 0 1 0
vn 0.9899494936611667 0 -0.14142135623730953
vn 0 -1 0
vn 0 -1 0
vn -0.9899494936611667 0 -0.14142135623730953
vn 0 1 0
vn -0.7035264706814485 -0.7035264706814485 -0.10050378152592121
vn -0.10050378152592121 -0.7035264706814485 -0.7035264706814485
vn -0.7035264706814485 -0.7035264706814485 0.10050378152592121
vn -0.10050378152592121 -0.7035264706814485 0.7035264706814485
vn 0.7035264706814485 -0.7035264706814485 0.10050378152592121
vn 0.10050378152592121 -0.7035264706814485 0.7035264706814485
vn 0.7035264706814485 -0.7035264706814485 -0.10050378152592121
vn 0.10050378152592121 -0.7035264706814485 -0.7035264706814485
usemtl m_d86ec0fa-030c-8e94-5db2-18a8af8c4c04
f 29/97/25 41/98/25 40/99/25 27/100/25
f 31/101/26 43/102/26 42/103/26 33/104/26
f 27/105/27 40/106/27 39/107/27 35/108/27
f 49/109/28 45/110/28 50/111/28 51/112/28
f 27/113/29 35/114/29 38/115/29 29/116/29
f 30/117/30 37/118/30 36/119/30 28/120/30
f 35/121/31 39/122/31 43/123/31 31/124/31
f 32/125/32 36/126/32 37/127/32 34/128/32
f 48/129/33 46/130/33 45/131/33 49/132/33
f 33/133/34 38/134/34 35/135/34 31/136/34
f 36/137/35 39/138/35 40/139/35 28/140/35
f 28/141/36 40/142/36 41/143/36 30/144/36
f 52/145/37 50/146/37 45/147/37 44/148/37
f 44/149/38 45/150/38 46/151/38 47/152/38
f 34/153/39 42/154/39 43/155/39 32/156/39
f 32/157/40 43/158/40 39/159/40 36/160/40
f 47/161/41 46/162/41 42/163/41 34/164/41
f 44/165/42 47/166/42 34/167/42 37/168/42
f 46/169/43 48/170/43 33/171/43 42/172/43
f 48/173/44 49/174/44 38/175/44 33/176/44
f 51/177/45 50/178/45 41/179/45 29/180/45
f 49/181/46 51/182/46 29/183/46 38/184/46
f 50/185/47 52/186/47 30/187/47 41/188/47
f 52/189/48 44/190/48 37/191/48 30/192/48
o oupWindow
v 0.4375 -0.4375 0.4375
v 0.4375 -0.4375 -0.4375
v -0.4375 -0.4375 0.4375
v -0.4375 -0.4375 -0.4375
v 0 -0.4375 0.5
v 0 -0.4375 -0.5
v 0.5 -0.4375 0
v -0.5 -0.4375 0
v -0.4375 0.4375 -0.4375
v -0.5 0.4375 0
v 0 0.4375 -0.5
v 0 0.4375 0.5
v -0.4375 0.4375 0.4375
v 0.4375 0.4375 0.4375
v 0.5 0.4375 0
v 0.4375 0.4375 -0.4375
vt 0.247778125 1
vt 0.026806249999999976 1
vt 0.026806249999999976 0.5625
vt 0.247778125 0.5625
vt 0.96875 1
vt 0.747778125 1
vt 0.747778125 0.5625
vt 0.96875 0.5625
vt 0.46875 1
vt 0.247778125 1
vt 0.247778125 0.5625
vt 0.46875 0.5625
vt 0.720971875 0.53125
vt 0.5 0.53125
vt 0.5 0.09375
vt 0.720971875 0.09375
vt 0.247778125 0.53125
vt 0.026806249999999976 0.53125
vt 0.026806249999999976 0.09375
vt 0.247778125 0.09375
vt 0.9419437500000001 0.53125
vt 0.720971875 0.53125
vt 0.720971875 0.09375
vt 0.9419437500000001 0.09375
vt 0.46875 0.53125
vt 0.247778125 0.53125
vt 0.247778125 0.09375
vt 0.46875 0.09375
vt 0.747778125 1
vt 0.5268062499999999 1
vt 0.5268062499999999 0.5625
vt 0.747778125 0.5625
vn -0.9899494936611667 0 -0.14142135623730953
vn -0.14142135623730953 0 -0.9899494936611667
vn -0.9899494936611667 0 0.14142135623730953
vn -0.14142135623730953 0 0.9899494936611667
vn 0.9899494936611667 0 0.14142135623730953
vn 0.14142135623730953 0 0.9899494936611667
vn 0.9899494936611667 0 -0.14142135623730953
vn 0.14142135623730953 0 -0.9899494936611667
usemtl m_2e494604-b2b1-a36c-0eb2-e2ce1b2c720e
f 62/193/49 61/194/49 56/195/49 60/196/49
f 61/197/50 63/198/50 58/199/50 56/200/50
f 65/201/51 62/202/51 60/203/51 55/204/51
f 64/205/52 65/206/52 55/207/52 57/208/52
f 67/209/53 66/210/53 53/211/53 59/212/53
f 66/213/54 64/214/54 57/215/54 53/216/54
f 68/217/55 67/218/55 59/219/55 54/220/55
f 63/221/56 68/222/56 54/223/56 58/224/56
o sphere
v 0 -0.5 0
v 0 0.5 0
v 0.15624999999999997 0.2500000000000001 0.24551270189221933
v 0.15624999999999997 -0.2499999999999999 0.24551270189221935
v 0.31249999999999994 0.2500000000000001 1.735897949462249e-17
v 0.3125 -0.2499999999999999 1.7358979494622497e-17
v 0.15624999999999997 0.2500000000000001 -0.24551270189221933
v 0.15624999999999997 -0.2499999999999999 -0.24551270189221935
v -0.15625 0.2500000000000001 -0.2455127018922193
v -0.15625000000000006 -0.2499999999999999 -0.24551270189221933
v -0.31249999999999994 0.2500000000000001 -5.207693848386748e-17
v -0.3125 -0.2499999999999999 -5.207693848386748e-17
v -0.1562500000000001 0.2500000000000001 0.24551270189221924
v -0.15625000000000014 -0.2499999999999999 0.24551270189221924
vt 0 0.5
vt 0.5 0.5
vt 0.25 1
vt 0 1
vt 0 0.5
vt 0.5 0.5
vt 0.5 1
vt 0.5 1
vt 0 1
vt 0.25 0.5
vt 0 0.5
vt 0.5 0.5
vt 0.25 1
vt 0 1
vt 0 0.5
vt 0.5 0.5
vt 0.5 1
vt 0.5 1
vt 0 1
vt 0.25 0.5
vt 0 0.5
vt 0.5 0.5
vt 0.25 1
vt 0 1
vt 0 0.5
vt 0.5 0.5
vt 0.5 1
vt 0.5 1
vt 0 1
vt 0.25 0.5
vt 0 0.5
vt 0.5 0.5
vt 0.25 1
vt 0 1
vt 0 0.5
vt 0.5 0.5
vt 0.5 1
vt 0.5 1
vt 0 1
vt 0.25 0.5
vt 0 0.5
vt 0.5 0.5
vt 0.25 1
vt 0 1
vt 0 0.5
vt 0.5 0.5
vt 0.5 1
vt 0.5 1
vt 0 1
vt 0.25 0.5
vt 0 0.5
vt 0.5 0.5
vt 0.25 1
vt 0 1
vt 0 0.5
vt 0.5 0.5
vt 0.5 1
vt 0.5 1
vt 0 1
vt 0.25 0.5
vn 0.5804998403100471 0.725624800387559 0.36944361472696324
vn 0.8436386944974438 2.9804564841407116e-17 0.5369113084548035
vn 0.5804998403100473 -0.7256248003875588 0.3694436147269635
vn 0.5804998403100471 0.7256248003875592 -0.3694436147269632
vn 0.8436386944974438 9.366271030957703e-17 -0.5369113084548034
vn 0.5804998403100474 -0.7256248003875588 -0.36944361472696347
vn -6.336984202332897e-17 0.7006745846801129 -0.7134809923069789
vn -8.881784197001253e-17 5.551115123125783e-17 -1
vn -6.336984202332902e-17 -0.7006745846801127 -0.7134809923069793
vn -0.5804998403100471 0.7256248003875592 -0.36944361472696324
vn -0.8436386944974437 1.2346727515098414e-16 -0.5369113084548034
vn -0.5804998403100473 -0.7256248003875589 -0.3694436147269633
vn -0.5804998403100472 0.7256248003875592 0.369443614726963
vn -0.8436386944974438 9.366271030957704e-17 0.5369113084548031
vn -0.5804998403100474 -0.7256248003875588 0.36944361472696313
vn -1.901095260699869e-16 0.7006745846801129 0.713480992306979
vn -3.5527136788004996e-16 1.9721522630525288e-32 1
vn -2.5347936809331594e-16 -0.7006745846801126 0.7134809923069794
usemtl m_027127f0-4570-833f-0bac-2b783bef3548
f 71/225/57 73/226/57 70/227/57
f 71/228/58 72/229/58 74/230/58 73/231/58
f 74/232/59 72/233/59 69/234/59
f 73/235/60 75/236/60 70/237/60
f 73/238/61 74/239/61 76/240/61 75/241/61
f 76/242/62 74/243/62 69/244/62
f 75/245/63 77/246/63 70/247/63
f 75/248/64 76/249/64 78/250/64 77/251/64
f 78/252/65 76/253/65 69/254/65
f 77/255/66 79/256/66 70/257/66
f 77/258/67 78/259/67 80/260/67 79/261/67
f 80/262/68 78/263/68 69/264/68
f 79/265/69 81/266/69 70/267/69
f 79/268/70 80/269/70 82/270/70 81/271/70
f 82/272/71 80/273/71 69/274/71
f 81/275/72 71/276/72 70/277/72
f 81/278/73 82/279/73 72/280/73 71/281/73
f 72/282/74 82/283/74 69/284/74
o tube
v 0.2261751345948128 -0.25 0.375
v 0.2261751345948128 -0.125 0.375
v 0.20462076603592683 -0.25 0.33926270189221935
v 0.20462076603592683 -0.125 0.33926270189221935
v 0.45235026918962573 -0.25 2.6514380968122673e-17
v 0.45235026918962573 -0.125 2.6514380968122673e-17
v 0.40924153207185376 -0.25 2.398757473665316e-17
v 0.40924153207185376 -0.125 2.398757473665316e-17
v 0.2261751345948128 -0.25 -0.375
v 0.2261751345948128 -0.125 -0.375
v 0.20462076603592683 -0.25 -0.33926270189221935
v 0.20462076603592683 -0.125 -0.33926270189221935
v -0.2261751345948129 -0.25 -0.37499999999999994
v -0.2261751345948129 -0.125 -0.37499999999999994
v -0.2046207660359269 -0.25 -0.3392627018922193
v -0.2046207660359269 -0.125 -0.3392627018922193
v -0.45235026918962573 -0.25 -7.954314290436801e-17
v -0.45235026918962573 -0.125 -7.954314290436801e-17
v -0.40924153207185376 -0.25 -7.196272420995948e-17
v -0.40924153207185376 -0.125 -7.196272420995948e-17
v -0.2261751345948131 -0.25 0.3749999999999999
v -0.2261751345948131 -0.125 0.3749999999999999
v -0.20462076603592705 -0.25 0.3392627018922192
v -0.20462076603592705 -0.125 0.3392627018922192
vt 0 0.5
vt 0.288675 0.5
vt 0.288675 1
vt 0 1
vt 0.2611625 1
vt 0 1
vt 0 0.5
vt 0.2611625 0.5
vt 0 0.9862452418203036
vt 5.551115123125783e-17 0.7250797586125477
vt 0.02382371825788132 0.711324899061839
vt 0.023825861295671436 1
vt 0 0.9761742408162045
vt 0.2886751009461156 0.9761742408162044
vt 0.2749204182559598 0.9999980611854012
vt 0.013754935055400513 1
vt 0 0.5
vt 0.288675 0.5
vt 0.288675 1
vt 0 1
vt 0.2611625 1
vt 0 1
vt 0 0.5
vt 0.2611625 0.5
vt 0.2749202413874523 1
vt 0.013754758179696458 1
vt 0 0.9761741387043286
vt 0.2886751009381609 0.9761762817421187
vt 0.02382575918379551 0.7113248990538844
vt 0.02382575918379548 1
vt 0 0.9862450649445995
vt 0.0000019388145987286887 0.7250795817440402
vt 0 0.5
vt 0.288675 0.5
vt 0.288675 1
vt 0 1
vt 0.2611625 1
vt 0 1
vt 0 0.5
vt 0.2611625 0.5
vt 0.27491875 1
vt 0.013756249999999998 1
vt 0 0.976175
vt 0.288675 0.976175
vt 0.288675 1
vt 0 1
vt 0.013756249999999998 0.976175
vt 0.27491875 0.976175
vt 0 0.5
vt 0.288675 0.5
vt 0.288675 1
vt 0 1
vt 0.2611625 1
vt 0 1
vt 0 0.5
vt 0.2611625 0.5
vt 0.023825861295671436 0.7250796572415356
vt 0.02382586129567138 0.9862451404492913
vt 0.000002143037790114377 1
vt 0 0.711324899061839
vt 0.2886751009461156 0.96875
vt 0 0.96875
vt 0.013754682690155756 0.9449261796308033
vt 0.27492016589071505 0.9449242408162044
vt 0 0.5
vt 0.288675 0.5
vt 0.288675 1
vt 0 1
vt 0.2611625 1
vt 0 1
vt 0 0.5
vt 0.2611625 0.5
vt 0.013754859550708598 0.9761741387043286
vt 0.27492034275846444 0.9761741387043286
vt 0.2886751009381609 1
vt 0 0.9999978569622099
vt 0.03125 1
vt 0.03125000000000003 0.7113248990538844
vt 0.05507575918379551 0.7250798341092849
vt 0.05507382036919678 0.9862453173098442
vt 0 0.5
vt 0.288675 0.5
vt 0.288675 1
vt 0 1
vt 0.2611625 1
vt 0 1
vt 0 0.5
vt 0.2611625 0.5
vt 0.013756249999999998 0.976175
vt 0.27491875 0.976175
vt 0.288675 1
vt 0 1
vt 0 0.976175
vt 0.288675 0.976175
vt 0.27491875 1
vt 0.013756249999999998 1
vn 0.8563068018520278 0 0.5164674831022298
vn -0.8563068018520279 0 -0.5164674831022299
vn 0 -1 0
vn 0 1 0
vn 0.8563068018520278 0 -0.5164674831022298
vn -0.8563068018520279 0 0.5164674831022299
vn 0 -1 0
vn 0 1 0
vn -1.2271718403241956e-16 0 -1
vn 1.3564398254063641e-16 0 1
vn 0 -1 0
vn 0 1 0
vn -0.8563068018520278 0 -0.5164674831022298
vn 0.8563068018520278 0 0.5164674831022298
vn 0 -1 0
vn 0 1 0
vn -0.856306801852028 0 0.5164674831022295
vn 0.8563068018520281 0 -0.5164674831022296
vn 0 -1 0
vn 0 1 0
vn -2.4543436806483903e-16 0 1
vn 4.069319476219091e-16 0 -1
vn 0 -1 0
vn 0 1 0
usemtl m_f0c58bec-cd35-c5ba-9698-cd62f2338277
f 83/285/75 87/286/75 88/287/75 84/288/75
f 86/289/76 90/290/76 89/291/76 85/292/76
f 85/293/77 89/294/77 87/295/77 83/296/77
f 84/297/78 88/298/78 90/299/78 86/300/78
f 87/301/79 91/302/79 92/303/79 88/304/79
f 90/305/80 94/306/80 93/307/80 89/308/80
f 89/309/81 93/310/81 91/311/81 87/312/81
f 88/313/82 92/314/82 94/315/82 90/316/82
f 91/317/83 95/318/83 96/319/83 92/320/83
f 94/321/84 98/322/84 97/323/84 93/324/84
f 93/325/85 97/326/85 95/327/85 91/328/85
f 92/329/86 96/330/86 98/331/86 94/332/86
f 95/333/87 99/334/87 100/335/87 96/336/87
f 98/337/88 102/338/88 101/339/88 97/340/88
f 97/341/89 101/342/89 99/343/89 95/344/89
f 96/345/90 100/346/90 102/347/90 98/348/90
f 99/349/91 103/350/91 104/351/91 100/352/91
f 102/353/92 106/354/92 105/355/92 101/356/92
f 101/357/93 105/358/93 103/359/93 99/360/93
f 100/361/94 104/362/94 106/363/94 102/364/94
f 103/365/95 83/366/95 84/367/95 104/368/95
f 106/369/96 86/370/96 85/371/96 105/372/96
f 105/373/97 85/374/97 83/375/97 103/376/97
f 104/377/98 84/378/98 86/379/98 106/380/98
o tube
v 0.2261751345948128 0.125 0.375
v 0.2261751345948128 0.25 0.375
v 0.20462076603592683 0.125 0.33926270189221935
v 0.20462076603592683 0.25 0.33926270189221935
v 0.45235026918962573 0.125 2.6514380968122673e-17
v 0.45235026918962573 0.25 2.6514380968122673e-17
v 0.40924153207185376 0.125 2.398757473665316e-17
v 0.40924153207185376 0.25 2.398757473665316e-17
v 0.2261751345948128 0.125 -0.375
v 0.2261751345948128 0.25 -0.375
v 0.20462076603592683 0.125 -0.33926270189221935
v 0.20462076603592683 0.25 -0.33926270189221935
v -0.2261751345948129 0.125 -0.37499999999999994
v -0.2261751345948129 0.25 -0.37499999999999994
v -0.2046207660359269 0.125 -0.3392627018922193
v -0.2046207660359269 0.25 -0.3392627018922193
v -0.45235026918962573 0.125 -7.954314290436801e-17
v -0.45235026918962573 0.25 -7.954314290436801e-17
v -0.40924153207185376 0.125 -7.196272420995948e-17
v -0.40924153207185376 0.25 -7.196272420995948e-17
v -0.2261751345948131 0.125 0.3749999999999999
v -0.2261751345948131 0.25 0.3749999999999999
v -0.20462076603592705 0.125 0.3392627018922192
v -0.20462076603592705 0.25 0.3392627018922192
vt 0 0.5
vt 0.288675 0.5
vt 0.288675 1
vt 0 1
vt 0.2611625 1
vt 0 1
vt 0 0.5
vt 0.2611625 0.5
vt 0 0.9862452418203036
vt 5.551115123125783e-17 0.7250797586125477
vt 0.02382371825788132 0.711324899061839
vt 0.023825861295671436 1
vt 0 0.9761742408162045
vt 0.2886751009461156 0.9761742408162044
vt 0.2749204182559598 0.9999980611854012
vt 0.013754935055400513 1
vt 0 0.5
vt 0.288675 0.5
vt 0.288675 1
vt 0 1
vt 0.2611625 1
vt 0 1
vt 0 0.5
vt 0.2611625 0.5
vt 0.2749202413874523 1
vt 0.013754758179696458 1
vt 0 0.9761741387043286
vt 0.2886751009381609 0.9761762817421187
vt 0.02382575918379551 0.7113248990538844
vt 0.02382575918379548 1
vt 0 0.9862450649445995
vt 0.0000019388145987286887 0.7250795817440402
vt 0 0.5
vt 0.288675 0.5
vt 0.288675 1
vt 0 1
vt 0.2611625 1
vt 0 1
vt 0 0.5
vt 0.2611625 0.5
vt 0.27491875 1
vt 0.013756249999999998 1
vt 0 0.976175
vt 0.288675 0.976175
vt 0.288675 1
vt 0 1
vt 0.013756249999999998 0.976175
vt 0.27491875 0.976175
vt 0 0.5
vt 0.288675 0.5
vt 0.288675 1
vt 0 1
vt 0.2611625 1
vt 0 1
vt 0 0.5
vt 0.2611625 0.5
vt 0.023825861295671436 0.7250796572415356
vt 0.02382586129567138 0.9862451404492913
vt 0.000002143037790114377 1
vt 0 0.711324899061839
vt 0.2886751009461156 0.96875
vt 0 0.96875
vt 0.013754682690155756 0.9449261796308033
vt 0.27492016589071505 0.9449242408162044
vt 0 0.5
vt 0.288675 0.5
vt 0.288675 1
vt 0 1
vt 0.2611625 1
vt 0 1
vt 0 0.5
vt 0.2611625 0.5
vt 0.013754859550708598 0.9761741387043286
vt 0.27492034275846444 0.9761741387043286
vt 0.2886751009381609 1
vt 0 0.9999978569622099
vt 0.03125 1
vt 0.03125000000000003 0.7113248990538844
vt 0.05507575918379551 0.7250798341092849
vt 0.05507382036919678 0.9862453173098442
vt 0 0.5
vt 0.288675 0.5
vt 0.288675 1
vt 0 1
vt 0.2611625 1
vt 0 1
vt 0 0.5
vt 0.2611625 0.5
vt 0.013756249999999998 0.976175
vt 0.27491875 0.976175
vt 0.288675 1
vt 0 1
vt 0 0.976175
vt 0.288675 0.976175
vt 0.27491875 1
vt 0.013756249999999998 1
vn 0.8563068018520278 0 0.5164674831022298
vn -0.8563068018520279 0 -0.5164674831022299
vn 0 -1 0
vn 0 1 0
vn 0.8563068018520278 0 -0.5164674831022298
vn -0.8563068018520279 0 0.5164674831022299
vn 0 -1 0
vn 0 1 0
vn -1.2271718403241956e-16 0 -1
vn 1.3564398254063641e-16 0 1
vn 0 -1 0
vn 0 1 0
vn -0.8563068018520278 0 -0.5164674831022298
vn 0.8563068018520278 0 0.5164674831022298
vn 0 -1 0
vn 0 1 0
vn -0.856306801852028 0 0.5164674831022295
vn 0.8563068018520281 0 -0.5164674831022296
vn 0 -1 0
vn 0 1 0
vn -2.4543436806483903e-16 0 1
vn 4.069319476219091e-16 0 -1
vn 0 -1 0
vn 0 1 0
usemtl m_f0c58bec-cd35-c5ba-9698-cd62f2338277
f 107/381/99 111/382/99 112/383/99 108/384/99
f 110/385/100 114/386/100 113/387/100 109/388/100
f 109/389/101 113/390/101 111/391/101 107/392/101
f 108/393/102 112/394/102 114/395/102 110/396/102
f 111/397/103 115/398/103 116/399/103 112/400/103
f 114/401/104 118/402/104 117/403/104 113/404/104
f 113/405/105 117/406/105 115/407/105 111/408/105
f 112/409/106 116/410/106 118/411/106 114/412/106
f 115/413/107 119/414/107 120/415/107 116/416/107
f 118/417/108 122/418/108 121/419/108 117/420/108
f 117/421/109 121/422/109 119/423/109 115/424/109
f 116/425/110 120/426/110 122/427/110 118/428/110
f 119/429/111 123/430/111 124/431/111 120/432/111
f 122/433/112 126/434/112 125/435/112 121/436/112
f 121/437/113 125/438/113 123/439/113 119/440/113
f 120/441/114 124/442/114 126/443/114 122/444/114
f 123/445/115 127/446/115 128/447/115 124/448/115
f 126/449/116 130/450/116 129/451/116 125/452/116
f 125/453/117 129/454/117 127/455/117 123/456/117
f 124/457/118 128/458/118 130/459/118 126/460/118
f 127/461/119 107/462/119 108/463/119 128/464/119
f 130/465/120 110/466/120 109/467/120 129/468/120
f 129/469/121 109/470/121 107/471/121 127/472/121
f 128/473/122 108/474/122 110/475/122 130/476/122
o tube
v 0.2261751345948128 -0.0625 0.375
v 0.2261751345948128 0.0625 0.375
v 0.20462076603592683 -0.0625 0.33926270189221935
v 0.20462076603592683 0.0625 0.33926270189221935
v 0.45235026918962573 -0.0625 2.6514380968122673e-17
v 0.45235026918962573 0.0625 2.6514380968122673e-17
v 0.40924153207185376 -0.0625 2.398757473665316e-17
v 0.40924153207185376 0.0625 2.398757473665316e-17
v 0.2261751345948128 -0.0625 -0.375
v 0.2261751345948128 0.0625 -0.375
v 0.20462076603592683 -0.0625 -0.33926270189221935
v 0.20462076603592683 0.0625 -0.33926270189221935
v -0.2261751345948129 -0.0625 -0.37499999999999994
v -0.2261751345948129 0.0625 -0.37499999999999994
v -0.2046207660359269 -0.0625 -0.3392627018922193
v -0.2046207660359269 0.0625 -0.3392627018922193
v -0.45235026918962573 -0.0625 -7.954314290436801e-17
v -0.45235026918962573 0.0625 -7.954314290436801e-17
v -0.40924153207185376 -0.0625 -7.196272420995948e-17
v -0.40924153207185376 0.0625 -7.196272420995948e-17
v -0.2261751345948131 -0.0625 0.3749999999999999
v -0.2261751345948131 0.0625 0.3749999999999999
v -0.20462076603592705 -0.0625 0.3392627018922192
v -0.20462076603592705 0.0625 0.3392627018922192
vt 0 0.5
vt 0.288675 0.5
vt 0.288675 1
vt 0 1
vt 0.2611625 1
vt 0 1
vt 0 0.5
vt 0.2611625 0.5
vt 0 0.9862452418203036
vt 5.551115123125783e-17 0.7250797586125477
vt 0.02382371825788132 0.711324899061839
vt 0.023825861295671436 1
vt 0 0.9761742408162045
vt 0.2886751009461156 0.9761742408162044
vt 0.2749204182559598 0.9999980611854012
vt 0.013754935055400513 1
vt 0 0.5
vt 0.288675 0.5
vt 0.288675 1
vt 0 1
vt 0.2611625 1
vt 0 1
vt 0 0.5
vt 0.2611625 0.5
vt 0.2749202413874523 1
vt 0.013754758179696458 1
vt 0 0.9761741387043286
vt 0.2886751009381609 0.9761762817421187
vt 0.02382575918379551 0.7113248990538844
vt 0.02382575918379548 1
vt 0 0.9862450649445995
vt 0.0000019388145987286887 0.7250795817440402
vt 0 0.5
vt 0.288675 0.5
vt 0.288675 1
vt 0 1
vt 0.2611625 1
vt 0 1
vt 0 0.5
vt 0.2611625 0.5
vt 0.27491875 1
vt 0.013756249999999998 1
vt 0 0.976175
vt 0.288675 0.976175
vt 0.288675 1
vt 0 1
vt 0.013756249999999998 0.976175
vt 0.27491875 0.976175
vt 0 0.5
vt 0.288675 0.5
vt 0.288675 1
vt 0 1
vt 0.2611625 1
vt 0 1
vt 0 0.5
vt 0.2611625 0.5
vt 0.023825861295671436 0.7250796572415356
vt 0.02382586129567138 0.9862451404492913
vt 0.000002143037790114377 1
vt 0 0.711324899061839
vt 0.2886751009461156 0.96875
vt 0 0.96875
vt 0.013754682690155756 0.9449261796308033
vt 0.27492016589071505 0.9449242408162044
vt 0 0.5
vt 0.288675 0.5
vt 0.288675 1
vt 0 1
vt 0.2611625 1
vt 0 1
vt 0 0.5
vt 0.2611625 0.5
vt 0.013754859550708598 0.9761741387043286
vt 0.27492034275846444 0.9761741387043286
vt 0.2886751009381609 1
vt 0 0.9999978569622099
vt 0.03125 1
vt 0.03125000000000003 0.7113248990538844
vt 0.05507575918379551 0.7250798341092849
vt 0.05507382036919678 0.9862453173098442
vt 0 0.5
vt 0.288675 0.5
vt 0.288675 1
vt 0 1
vt 0.2611625 1
vt 0 1
vt 0 0.5
vt 0.2611625 0.5
vt 0.013756249999999998 0.976175
vt 0.27491875 0.976175
vt 0.288675 1
vt 0 1
vt 0 0.976175
vt 0.288675 0.976175
vt 0.27491875 1
vt 0.013756249999999998 1
vn 0.8563068018520278 0 0.5164674831022298
vn -0.8563068018520279 0 -0.5164674831022299
vn 0 -1 0
vn 0 1 0
vn 0.8563068018520278 0 -0.5164674831022298
vn -0.8563068018520279 0 0.5164674831022299
vn 0 -1 0
vn 0 1 0
vn -1.2271718403241956e-16 0 -1
vn 1.3564398254063641e-16 0 1
vn 0 -1 0
vn 0 1 0
vn -0.8563068018520278 0 -0.5164674831022298
vn 0.8563068018520278 0 0.5164674831022298
vn 0 -1 0
vn 0 1 0
vn -0.856306801852028 0 0.5164674831022295
vn 0.8563068018520281 0 -0.5164674831022296
vn 0 -1 0
vn 0 1 0
vn -2.4543436806483903e-16 0 1
vn 4.069319476219091e-16 0 -1
vn 0 -1 0
vn 0 1 0
usemtl m_f0c58bec-cd35-c5ba-9698-cd62f2338277
f 131/477/123 135/478/123 136/479/123 132/480/123
f 134/481/124 138/482/124 137/483/124 133/484/124
f 133/485/125 137/486/125 135/487/125 131/488/125
f 132/489/126 136/490/126 138/491/126 134/492/126
f 135/493/127 139/494/127 140/495/127 136/496/127
f 138/497/128 142/498/128 141/499/128 137/500/128
f 137/501/129 141/502/129 139/503/129 135/504/129
f 136/505/130 140/506/130 142/507/130 138/508/130
f 139/509/131 143/510/131 144/511/131 140/512/131
f 142/513/132 146/514/132 145/515/132 141/516/132
f 141/517/133 145/518/133 143/519/133 139/520/133
f 140/521/134 144/522/134 146/523/134 142/524/134
f 143/525/135 147/526/135 148/527/135 144/528/135
f 146/529/136 150/530/136 149/531/136 145/532/136
f 145/533/137 149/534/137 147/535/137 143/536/137
f 144/537/138 148/538/138 150/539/138 146/540/138
f 147/541/139 151/542/139 152/543/139 148/544/139
f 150/545/140 154/546/140 153/547/140 149/548/140
f 149/549/141 153/550/141 151/551/141 147/552/141
f 148/553/142 152/554/142 154/555/142 150/556/142
f 151/557/143 131/558/143 132/559/143 152/560/143
f 154/561/144 134/562/144 133/563/144 153/564/144
f 153/565/145 133/566/145 131/567/145 151/568/145
f 152/569/146 132/570/146 134/571/146 154/572/146