# Made in Blockbench 4.10.4
mtllib RVpoint.mtl

o cone
v 9.388765970647765e-17 0.625 9.388765970647765e-17
v -0.05024047358083543 0.375 -0.18749999999999992
v -0.1372595264191644 0.375 -0.13725952641916442
v -0.18749999999999992 0.375 -0.05024047358083543
v -0.18749999999999992 0.375 0.05024047358083558
v -0.13725952641916442 0.375 0.13725952641916456
v -0.05024047358083549 0.375 0.18750000000000003
v 0.05024047358083549 0.375 0.18750000000000008
v 0.13725952641916456 0.375 0.13725952641916458
v 0.18750000000000003 0.375 0.05024047358083554
v 0.18750000000000008 0.375 -0.050240473580835346
v 0.13725952641916458 0.375 -0.1372595264191644
v 0.05024047358083555 0.375 -0.18749999999999992
v 0.029306942922154057 0.375 0.10937500000000007
v -0.02930694292215401 0.375 0.10937500000000004
v -0.08006805707784588 0.375 0.080068057077846
v -0.10937499999999993 0.375 0.029306942922154113
v -0.10937499999999993 0.375 -0.02930694292215397
v -0.08006805707784587 0.375 -0.08006805707784588
v -0.02930694292215397 0.375 -0.10937499999999993
v 0.029306942922154095 0.375 -0.10937499999999993
v 0.08006805707784602 0.375 -0.08006805707784587
v 0.10937500000000007 0.375 -0.02930694292215392
v 0.10937500000000004 0.375 0.029306942922154095
v 0.080068057077846 0.375 0.08006805707784602
v 0.029306942922154012 -1.698363974991518e-17 0.10937499999999996
v -0.029306942922154054 -9.805508981433153e-18 0.10937499999999993
v 1.9660199394403815e-17 -1.2861073097276752e-34 -1.861001307895097e-17
v -0.08006805707784592 3.0814879110195774e-33 0.0800680570778459
v -0.10937499999999997 9.805508981433161e-18 0.029306942922154033
v -0.10937499999999997 1.6983639749915185e-17 -0.02930694292215405
v -0.08006805707784591 1.9611017962866325e-17 -0.08006805707784599
v -0.029306942922154015 1.698363974991519e-17 -0.10937500000000004
v 0.02930694292215405 9.805508981433169e-18 -0.10937500000000004
v 0.08006805707784598 0 -0.08006805707784598
v 0.10937500000000003 -9.805508981433172e-18 -0.029306942922154
v 0.109375 -1.6983639749915185e-17 0.029306942922154015
v 0.08006805707784596 -1.961101796286632e-17 0.08006805707784591
vt 0.3955844474115453 0.8022077762942246
vt 0.37608155850294384 0.8749999999999972
vt 0.25 0.8022077762942246
vt 0 -0.11803125000000003
vt 0.26795 -0.11803125000000003
vt 0.133975 1
vt 0.3955859444677353 0.8022085248146239
vt 0.3760802620098086 0.8749999999999987
vt 0.25 0.802208524814624
vt 0 -0.11803125000000003
vt 0.26795 -0.11803125000000003
vt 0.133975 1
vt 0.390625 0.8621375000000014
vt 0.390625 0.9375000000000014
vt 0.25 0.8998187500000014
vt 0 -0.11803125000000003
vt 0.26795 -0.11803125000000003
vt 0.133975 1
vt 0.0625 0.6044155525884547
vt 0.13529222370577265 0.6239184414970562
vt 0.0625 0.75
vt 0 -0.11803125000000003
vt 0.26795 -0.11803125000000003
vt 0.133975 1
vt 0.06250000000000006 0.6044140555322647
vt 0.13529147518537482 0.6239197379901915
vt 0.0625 0.75
vt 0 -0.11803125000000003
vt 0.26795 -0.11803125000000003
vt 0.133975 1
vt 0.06249999999999856 0.609375
vt 0.13786249999999856 0.609375
vt 0.10018124999999856 0.75
vt 0 -0.11803125000000003
vt 0.26795 -0.11803125000000003
vt 0.133975 1
vt 0.18749999999999845 0.9375
vt 0.2070028889085999 0.8647077762942273
vt 0.33308444741154375 0.9375
vt 0 -0.11803125000000003
vt 0.26795 -0.11803125000000003
vt 0.133975 1
vt 0.1874999999999977 0.9375
vt 0.20700568245792447 0.8647085248146251
vt 0.333085944467733 0.9375
vt 0 -0.11803125000000003
vt 0.26795 -0.11803125000000003
vt 0.133975 1
vt 0.125 0.9375000000000014
vt 0.125 0.8621375000000014
vt 0.265625 0.8998187500000014
vt 0 -0.11803125000000003
vt 0.26795 -0.11803125000000003
vt 0.133975 1
vt 0.19779222370577543 0.8125000000000016
vt 0.12500000000000278 0.7929971110914
vt 0.19779222370577543 0.6669155525884563
vt 0 -0.11803125000000003
vt 0.26795 -0.11803125000000003
vt 0.133975 1
vt 0.19779147518537601 0.8125000000000022
vt 0.12500000000000125 0.7929943175420755
vt 0.197791475185376 0.666914055532267
vt 0 -0.11803125000000003
vt 0.26795 -0.11803125000000003
vt 0.133975 1
vt 0.13786249999999856 0.875
vt 0.06249999999999856 0.875
vt 0.10018124999999856 0.734375
vt 0 -0.11803125000000003
vt 0.26795 -0.11803125000000003
vt 0.133975 1
vt 0.1504187500000015 0.5625
vt 0.07505625000000149 0.5625
vt 0.0625000000000015 0.515625
vt 0.16297500000000148 0.515625
vt 0.15042411502233435 0.5624999999999978
vt 0.0750645070893541 0.5624999999999978
vt 0.062499999999998335 0.5156272125784669
vt 0.16298461061672892 0.5156194373588754
vt 0.150420103527378 0.5624999999999978
vt 0.07506049559439776 0.5624999999999978
vt 0.06250000000000323 0.5156194373588754
vt 0.16298461061673378 0.5156272125784669
vt 0.4375 0.9249437499999985
vt 0.4375 0.8495812499999985
vt 0.484375 0.8370249999999986
vt 0.484375 0.9374999999999984
vt 0.4375000000000022 0.9249395044056022
vt 0.4375000000000022 0.849579896472622
vt 0.4843727874215331 0.8370153893832663
vt 0.48438056264112456 0.9374999999999968
vt 0.4375000000000022 0.9249354929106459
vt 0.4375000000000022 0.8495758849776657
vt 0.4843805626411246 0.8370153893832711
vt 0.4843727874215331 0.9375000000000017
vt 0.07505625000000149 0.953125
vt 0.1504187500000015 0.953125
vt 0.16297500000000148 1
vt 0.0625000000000015 1
vt 0.07506049559439773 0.9531194373588776
vt 0.150420103527378 0.9531194373588776
vt 0.16298461061673375 0.9999922247804086
vt 0.06250000000000318 1
vt 0.07506450708935407 0.953119437358874
vt 0.15042411502233433 0.953119437358874
vt 0.16298461061672886 0.9999999999999964
vt 0.06249999999999831 0.999992224780405
vt 0.046875 0.8495812499999985
vt 0.046875 0.9249437499999985
vt 0 0.9374999999999984
vt 0 0.8370249999999986
vt 0.046880562641122336 0.8495758849776657
vt 0.046880562641122336 0.9249354929106459
vt 0.000007775219591416027 0.9375000000000017
vt 0 0.837015389383271
vt 0.04688056264112597 0.849579896472622
vt 0.04688056264112592 0.9249395044056022
vt 3.552713678800501e-15 0.9374999999999968
vt 0.000007775219595024252 0.8370153893832663
vt 0.06249999999999765 0.75
vt 0.12111249999999765 0.75
vt 0.12111249999999765 0.8125
vt 0.06249999999999765 0.8125
vt 0.06249999999999765 0.75
vt 0.12111249999999765 0.75
vt 0.12111249999999765 0.8125
vt 0.06249999999999765 0.8125
vt 0.06249999999999765 0.75
vt 0.12111249999999765 0.75
vt 0.12111249999999765 0.8125
vt 0.06249999999999765 0.8125
vt 0.18749999999999764 0.9375
vt 0.24611249999999765 0.9375
vt 0.24611249999999765 1
vt 0.18749999999999764 1
vt 0.18749999999999764 0.875
vt 0.24611249999999765 0.875
vt 0.24611249999999765 0.9375
vt 0.18749999999999764 0.9375
vt 0.18749999999999764 0.875
vt 0.24611249999999765 0.875
vt 0.24611249999999765 0.9375
vt 0.18749999999999764 0.9375
vt 0.06249999999999765 0.875
vt 0.12111249999999765 0.875
vt 0.12111249999999765 0.9375
vt 0.06249999999999765 0.9375
vt 0.06249999999999765 0.875
vt 0.12111249999999765 0.875
vt 0.12111249999999765 0.9375
vt 0.06249999999999765 0.9375
vt 0.06249999999999765 0.875
vt 0.12111249999999765 0.875
vt 0.12111249999999765 0.9375
vt 0.06249999999999765 0.9375
vt 0.06249999999999765 0.9375
vt 0.12111249999999765 0.9375
vt 0.12111249999999765 1
vt 0.06249999999999765 1
vt 0.12499999999999764 0.9375
vt 0.18361249999999765 0.9375
vt 0.18361249999999765 1
vt 0.12499999999999764 1
vt 0.12499999999999764 0.9375
vt 0.18361249999999765 0.9375
vt 0.18361249999999765 1
vt 0.12499999999999764 1
vn -1.2246467991473532e-16 -1 -1.2246467991473532e-16
vn -0.4000000000000001 0.6000000000000002 -0.6928203230275509
vn -1.2246467991473532e-16 -1 -1.2246467991473532e-16
vn -0.6928203230275508 0.6000000000000001 -0.39999999999999997
vn -1.2246467991473532e-16 -1 -1.2246467991473532e-16
vn -0.8 0.6000000000000002 7.34788079488413e-17
vn -1.2246467991473532e-16 -1 -1.2246467991473532e-16
vn -0.6928203230275508 0.6000000000000001 0.4000000000000001
vn -1.2246467991473532e-16 -1 -1.2246467991473532e-16
vn -0.3999999999999999 0.5999999999999999 0.692820323027551
vn -1.2246467991473532e-16 -1 -1.2246467991473532e-16
vn -3.6848479051877243e-16 0.5999999999999999 0.8000000000000002
vn -1.2246467991473532e-16 -1 -1.2246467991473532e-16
vn 0.3999999999999998 0.5999999999999999 0.6928203230275513
vn -1.2246467991473532e-16 -1 -1.2246467991473532e-16
vn 0.6928203230275513 0.5999999999999998 0.39999999999999963
vn -1.2246467991473532e-16 -1 -1.2246467991473532e-16
vn 0.8000000000000002 0.5999999999999998 5.154424064164552e-16
vn -1.2246467991473532e-16 -1 -1.2246467991473532e-16
vn 0.6928203230275513 0.5999999999999999 -0.3999999999999997
vn -1.2246467991473532e-16 -1 -1.2246467991473532e-16
vn 0.4 0.6000000000000001 -0.6928203230275508
vn -1.2246467991473532e-16 -1 -1.2246467991473532e-16
vn 7.34788079488411e-17 0.6000000000000001 -0.8
vn -1.2246467991473532e-16 -1 -1.2246467991473532e-16
vn -1.2246467991473532e-16 -1 -1.2246467991473532e-16
vn -1.2246467991473532e-16 -1 -1.2246467991473532e-16
vn -1.2246467991473532e-16 -1 -1.2246467991473532e-16
vn -1.2246467991473532e-16 -1 -1.2246467991473532e-16
vn -1.2246467991473532e-16 -1 -1.2246467991473532e-16
vn -1.2246467991473532e-16 -1 -1.2246467991473532e-16
vn -1.2246467991473532e-16 -1 -1.2246467991473532e-16
vn -1.2246467991473532e-16 -1 -1.2246467991473532e-16
vn -1.2246467991473532e-16 -1 -1.2246467991473532e-16
vn -1.2246467991473532e-16 -1 -1.2246467991473532e-16
vn -1.2246467991473532e-16 -1 -1.2246467991473532e-16
vn -4.735324269295861e-16 -3.075018506855947e-16 1
vn -0.5000000000000001 -2.026693262249851e-16 0.8660254037844386
vn -0.8660254037844385 -5.382740502854084e-17 0.5000000000000004
vn -1 1.2246467991473532e-16 1.1822744284577442e-31
vn -0.8660254037844388 2.166161583016902e-16 -0.5000000000000001
vn -0.5000000000000002 3.251340061397204e-16 -0.8660254037844387
vn -8.05693271283743e-32 3.0750185068559475e-16 -1
vn 0.5000000000000001 2.026693262249849e-16 -0.8660254037844386
vn 0.866025403784439 4.3962146134174165e-17 -0.4999999999999996
vn 1 -1.2246467991473542e-16 4.735324269295865e-16
vn 0.8660254037844388 -2.1661615830169026e-16 0.5000000000000001
vn 0.49999999999999967 -3.3499926503408654e-16 0.8660254037844388
usemtl m_2ecab5ba-3b65-64d9-8883-2314733795de
f 32/1/1 33/2/1 28/3/1
f 2/4/2 3/5/2 1/6/2
f 31/7/3 32/8/3 28/9/3
f 3/10/4 4/11/4 1/12/4
f 30/13/5 31/14/5 28/15/5
f 4/16/6 5/17/6 1/18/6
f 29/19/7 30/20/7 28/21/7
f 5/22/8 6/23/8 1/24/8
f 27/25/9 29/26/9 28/27/9
f 6/28/10 7/29/10 1/30/10
f 26/31/11 27/32/11 28/33/11
f 7/34/12 8/35/12 1/36/12
f 38/37/13 26/38/13 28/39/13
f 8/40/14 9/41/14 1/42/14
f 37/43/15 38/44/15 28/45/15
f 9/46/16 10/47/16 1/48/16
f 36/49/17 37/50/17 28/51/17
f 10/52/18 11/53/18 1/54/18
f 35/55/19 36/56/19 28/57/19
f 11/58/20 12/59/20 1/60/20
f 34/61/21 35/62/21 28/63/21
f 12/64/22 13/65/22 1/66/22
f 33/67/23 34/68/23 28/69/23
f 13/70/24 2/71/24 1/72/24
f 15/73/25 14/74/25 8/75/25 7/76/25
f 16/77/26 15/78/26 7/79/26 6/80/26
f 17/81/27 16/82/27 6/83/27 5/84/27
f 18/85/28 17/86/28 5/87/28 4/88/28
f 19/89/29 18/90/29 4/91/29 3/92/29
f 20/93/30 19/94/30 3/95/30 2/96/30
f 21/97/31 20/98/31 2/99/31 13/100/31
f 22/101/32 21/102/32 13/103/32 12/104/32
f 23/105/33 22/106/33 12/107/33 11/108/33
f 24/109/34 23/110/34 11/111/34 10/112/34
f 25/113/35 24/114/35 10/115/35 9/116/35
f 14/117/36 25/118/36 9/119/36 8/120/36
f 27/121/37 26/122/37 14/123/37 15/124/37
f 29/125/38 27/126/38 15/127/38 16/128/38
f 30/129/39 29/130/39 16/131/39 17/132/39
f 31/133/40 30/134/40 17/135/40 18/136/40
f 32/137/41 31/138/41 18/139/41 19/140/41
f 33/141/42 32/142/42 19/143/42 20/144/42
f 34/145/43 33/146/43 20/147/43 21/148/43
f 35/149/44 34/150/44 21/151/44 22/152/44
f 36/153/45 35/154/45 22/155/45 23/156/45
f 37/157/46 36/158/46 23/159/46 24/160/46
f 38/161/47 37/162/47 24/163/47 25/164/47
f 26/165/48 38/166/48 25/167/48 14/168/48