# 3ds Max Wavefront OBJ Exporter v0.97b - (c)2007 guruware
# 创建的文件:08.01.2019 11:43:26

mtllib BaoPian_TieBian_XSLZ_1x2.mtl

#
# object Box001
#

v  -0.5000 -0.5000 -1.0000
v  0.5000 -0.5000 1.0000
v  0.5000 0.5000 -1.0000
v  0.5000 -0.5000 0.6000
v  0.5000 0.3000 -1.0000
v  -0.3000 -0.5000 -1.0000
# 6 vertices

vn -0.5774 0.5774 0.5774
vn 1.0000 0.0000 -0.0000
vn 0.0000 0.0000 -1.0000
vn 0.0000 -1.0000 -0.0000
vn 0.5774 -0.5774 -0.5774
# 5 vertex normals

vt 1.0000 0.0000 0.0000
vt 0.0000 0.0000 0.0000
vt 1.0000 1.0000 0.0000
vt 0.2000 0.0000 0.0000
vt 1.0000 0.8000 0.0000
vt 0.0000 1.0000 0.0000
vt 0.0000 0.8000 0.0000
vt 0.8000 0.0000 0.0000
vt 0.8000 1.0000 0.0000
vt 0.0000 0.2000 0.0000
# 10 texture coords

g Box001
usemtl wire_227153153
s off
f 1/1/1 2/2/1 3/3/1 
s 16
f 3/3/2 2/2/2 4/4/2 5/5/2 
s 32
f 1/1/3 3/6/3 5/7/3 6/8/3 
s 2
f 2/2/4 1/3/4 6/9/4 4/10/4 
s off
f 4/4/5 6/9/5 5/7/5 
# 3 polygons - 2 triangles

