# Made in Blockbench 4.8.1
mtllib HUD1_2.mtl

o plane
v 0.5000000000000001 -0.4999999999999999 0.5
v 0.5000000000000001 0.5000000000000001 0.4999999999999998
v 0.4999999999999999 -0.5000000000000001 -0.5
v 0.4999999999999999 0.4999999999999999 -0.5000000000000002
v -0.5000000000000003 -0.5000000000000001 -0.49999999999999956
v -0.5000000000000003 0.4999999999999999 -0.4999999999999998
v -0.49999999999999967 -0.4999999999999999 0.5000000000000004
v -0.49999999999999967 0.5000000000000001 0.5000000000000002
vt 1 0
vt 1 1
vt 0 1
vt 0 0
vt 1 0
vt 1 1
vt 0 1
vt 0 0
vn -1 4.930380657631324e-32 2.220446049250313e-16
vn 1 -1.4791141972893971e-31 -6.661338147750939e-16
usemtl m_4a7fdfd1-1715-5ad1-1fb3-31444ccf0d23
f 1/1/1 2/2/1 4/3/1 3/4/1
f 5/5/2 6/6/2 8/7/2 7/8/2