# Made in Blockbench 4.8.1
mtllib HUD1_2_2.mtl

o cylinder
v 0.5 0.1339745962155612 0.49999999999999994
v -0.49999999999999994 0.13397459621556143 0.49999999999999994
v 0.5 0.13397459621556138 -0.4999999999999999
v -0.49999999999999994 0.1339745962155616 -0.4999999999999999
v 0.49999999999999994 -0.13397459621556124 -0.5
v -0.5 -0.13397459621556101 -0.5
v 0.49999999999999994 -0.1339745962155614 0.49999999999999994
v -0.5 -0.13397459621556118 0.49999999999999994
vt 0.3125 0
vt 0.5625 0
vt 0.5625 1
vt 0.3125 1
vt 0 0
vt 0.25 0
vt 0.25 1
vt 0 1
vn 9.200215557467481e-32 4.143408735633879e-16 -1
vn 0 0 1
usemtl m_85f78e5c-e148-e970-861e-ff655b312196
f 3/1/1 5/2/1 6/3/1 4/4/1
f 7/5/2 1/6/2 2/7/2 8/8/2