# Made in Blockbench 4.8.1
mtllib MHUD1.mtl

o cylinder
v -0.49999999999999994 -0.13397459621556143 0.49999999999999994
v 0.5 -0.1339745962155612 0.49999999999999994
v -0.49999999999999994 -0.3660254037844387 0.36602540378443865
v 0.5000000000000001 -0.3660254037844385 0.36602540378443865
v -0.4999999999999999 -0.5 0.13397459621556132
v 0.5000000000000001 -0.49999999999999983 0.13397459621556132
v -0.4999999999999999 -0.5 -0.13397459621556138
v 0.5000000000000001 -0.49999999999999983 -0.13397459621556138
v -0.49999999999999994 -0.36602540378443876 -0.3660254037844386
v 0.5000000000000001 -0.36602540378443854 -0.3660254037844386
v -0.49999999999999994 -0.1339745962155616 -0.4999999999999999
v 0.5 -0.13397459621556138 -0.4999999999999999
v -0.5 0.13397459621556101 -0.5
v 0.49999999999999994 0.13397459621556124 -0.5
v -0.5000000000000001 0.3660254037844385 -0.3660254037844387
v 0.49999999999999994 0.3660254037844387 -0.3660254037844387
v -0.5000000000000001 0.49999999999999983 -0.13397459621556126
v 0.4999999999999999 0.5 -0.13397459621556126
v -0.5000000000000001 0.4999999999999999 0.1339745962155611
v 0.4999999999999999 0.5000000000000001 0.1339745962155611
v -0.5000000000000001 0.3660254037844386 0.36602540378443854
v 0.49999999999999994 0.3660254037844388 0.36602540378443854
v -0.5 0.13397459621556118 0.49999999999999994
v 0.49999999999999994 0.1339745962155614 0.49999999999999994
vt 0.21983124999999998 1
vt 0.21983124999999998 0.75
vt 0.28681875 0.75
vt 0.28681875 1
vt 0.13505625 1
vt 0.13505625 0.75
vt 0.20204375000000002 0.75
vt 0.20204375000000002 1
vt 0.06806875 1
vt 0.06806875 0.75
vt 0.13505625 0.75
vt 0.13505625 1
vt 0.001081249999999992 1
vt 0.001081249999999992 0.75
vt 0.06806875 0.75
vt 0.06806875 1
vt 0.35380625 0.734375
vt 0.35380625 0.484375
vt 0.42079375 0.484375
vt 0.42079375 0.734375
vt 0.28681875 0.734375
vt 0.28681875 0.484375
vt 0.35380625 0.484375
vt 0.35380625 0.734375
vt 0.21983124999999998 0.734375
vt 0.21983124999999998 0.484375
vt 0.28681875 0.484375
vt 0.28681875 0.734375
vt 0.13505625 0.734375
vt 0.13505625 0.484375
vt 0.20204375000000002 0.484375
vt 0.20204375000000002 0.734375
vt 0.06806875 0.734375
vt 0.06806875 0.484375
vt 0.13505625 0.484375
vt 0.13505625 0.734375
vt 0.001081249999999992 0.734375
vt 0.001081249999999992 0.484375
vt 0.06806875 0.484375
vt 0.06806875 0.734375
vt 0.35380625 1
vt 0.35380625 0.75
vt 0.42079375 0.75
vt 0.42079375 1
vt 0.28681875 1
vt 0.28681875 0.75
vt 0.35380625 0.75
vt 0.35380625 1
vn -1.1102230246251563e-16 0.4999999999999999 -0.8660254037844388
vn -1.9229626863835643e-16 0.8660254037844388 -0.5
vn -2.220446049250313e-16 1 0
vn -1.9229626863835643e-16 0.8660254037844388 0.5
vn -1.1102230246251568e-16 0.5000000000000001 0.8660254037844388
vn -9.200215557467481e-32 4.143408735633879e-16 1
vn 1.1102230246251557e-16 -0.4999999999999996 0.8660254037844389
vn 1.9229626863835646e-16 -0.8660254037844389 0.4999999999999998
vn 2.220446049250313e-16 -1 2.0717043678169412e-16
vn 1.9229626863835646e-16 -0.8660254037844389 -0.4999999999999996
vn 1.1102230246251563e-16 -0.4999999999999999 -0.8660254037844386
vn 0 0 -1
usemtl m_c7da95bd-b013-a47c-4454-4a52407719dc
f 4/1/1 3/2/1 1/3/1 2/4/1
f 6/5/2 5/6/2 3/7/2 4/8/2
f 8/9/3 7/10/3 5/11/3 6/12/3
f 10/13/4 9/14/4 7/15/4 8/16/4
f 12/17/5 11/18/5 9/19/5 10/20/5
f 14/21/6 13/22/6 11/23/6 12/24/6
f 16/25/7 15/26/7 13/27/7 14/28/7
f 18/29/8 17/30/8 15/31/8 16/32/8
f 20/33/9 19/34/9 17/35/9 18/36/9
f 22/37/10 21/38/10 19/39/10 20/40/10
f 24/41/11 23/42/11 21/43/11 22/44/11
f 2/45/12 1/46/12 23/47/12 24/48/12